<?xml version="1.0" encoding="UTF-8" standalone="no"?>
<!DOCTYPE svg PUBLIC "-//W3C//DTD SVG 1.1//EN" "http://www.w3.org/Graphics/SVG/1.1/DTD/svg11.dtd">
<!-- GeoHints -->
<svg width="100%" height="100%" viewBox="0 0 208 208" version="1.1" xmlns="http://www.w3.org/2000/svg" xmlns:xlink="http://www.w3.org/1999/xlink" xml:space="preserve" xmlns:serif="http://www.serif.com/" style="fill-rule:evenodd;clip-rule:evenodd;stroke-linejoin:round;stroke-miterlimit:2;">
    <g transform="matrix(1,0,0,1,-3.95928,-3.95936)">
        <g transform="matrix(1.01651,0,0,1.01651,-1.77791,-1.77783)">
            <path d="M209.716,12.32C209.716,8.631 206.724,5.644 203.04,5.644L12.32,5.644C8.634,5.644 5.644,8.63 5.644,12.32L5.644,203.035C5.644,206.719 8.634,209.707 12.32,209.707L203.041,209.707C206.725,209.707 209.717,206.719 209.717,203.035L209.717,12.32" style="fill:white;fill-rule:nonzero;"/>
        </g>
        <path d="M209.716,12.32C209.716,8.631 206.724,5.644 203.04,5.644L12.32,5.644C8.634,5.644 5.644,8.63 5.644,12.32L5.644,203.035C5.644,206.719 8.634,209.707 12.32,209.707L203.041,209.707C206.725,209.707 209.717,206.719 209.717,203.035L209.717,12.32" style="fill:rgb(45,41,137);fill-rule:nonzero;"/>
        <path d="M208.994,176.812L107.679,5.164L6.359,176.812L208.994,176.812" style="fill:white;fill-rule:nonzero;"/>
        <g transform="matrix(0.784785,0,0,0.784785,23.2345,15.6598)">
            <g transform="matrix(1.14824,0,0,1,-16.0042,0)">
                <path d="M94.439,136.519L103.798,136.519L102.759,169.789L92.363,169.789L94.439,136.519" style="fill:rgb(28,29,32);fill-rule:nonzero;"/>
                <path d="M77.812,136.519L87.167,136.519L83.011,169.789L72.611,169.789L77.812,136.519" style="fill:rgb(28,29,32);fill-rule:nonzero;"/>
                <path d="M60.66,136.519L70.011,136.519L61.699,169.789L51.302,169.789L60.66,136.519" style="fill:rgb(28,29,32);fill-rule:nonzero;"/>
                <path d="M44.546,136.519L53.904,136.519L41.427,169.789L31.035,169.789L44.546,136.519" style="fill:rgb(28,29,32);fill-rule:nonzero;"/>
                <path d="M121.47,136.519L112.119,136.519L113.158,169.789L123.552,169.789L121.47,136.519" style="fill:rgb(28,29,32);fill-rule:nonzero;"/>
                <path d="M138.103,136.519L128.748,136.519L132.904,169.789L143.306,169.789L138.103,136.519" style="fill:rgb(28,29,32);fill-rule:nonzero;"/>
                <path d="M155.255,136.519L145.904,136.519L154.216,169.789L164.611,169.789L155.255,136.519" style="fill:rgb(28,29,32);fill-rule:nonzero;"/>
                <path d="M171.369,136.519L162.005,136.519L174.486,169.789L184.884,169.789L171.369,136.519" style="fill:rgb(28,29,32);fill-rule:nonzero;"/>
            </g>
            <g transform="matrix(1.16348,0,0,1.10211,-18.7297,-16.3482)">
                <path d="M94.291,55.126C94.291,49.56 98.803,45.042 104.371,45.042C109.943,45.042 114.459,49.56 114.459,55.126C114.459,60.698 109.943,65.21 104.371,65.21C98.802,65.21 94.291,60.699 94.291,55.126" style="fill:rgb(28,29,32);fill-rule:nonzero;"/>
                <path d="M98.962,71.191L109.415,65.228C109.415,65.228 112.806,62.755 116.2,65.779C116.2,65.867 136.282,84.759 136.282,84.759C136.282,84.759 137.649,85.491 137.649,88.054L137.649,98.599C137.649,98.599 137.743,99.335 137.196,100.068C137.008,100.164 136.098,104.103 130.872,106.115C130.778,106.115 127.845,107.219 127.845,104.56L127.845,90.626L117.763,83.931L117.763,107.765L125.74,131.331L131.795,139.116L132.983,159.843L121.616,144.718L115.475,136.921L107.963,121.249C107.963,121.249 106.488,118.956 104.748,121.335L96.588,131.241C96.588,131.241 95.397,132.249 95.397,132.983L95.397,143.62L93.196,149.671C93.196,149.671 88.796,161.128 83.661,160.026C83.753,160.026 84.852,137.565 84.852,137.565L84.852,130.975C84.852,130.975 84.489,129.409 85.86,127.123C85.768,127.029 97.044,108.045 97.044,108.045L97.044,91.183L79.444,107.956C79.444,107.956 78.985,108.87 77.52,108.964C77.428,109.054 74.768,109.878 71.192,108.507C71.284,108.507 68.715,107.499 71.1,104.747C71,104.839 98.962,71.191 98.962,71.191" style="fill:rgb(28,29,32);fill-rule:nonzero;"/>
            </g>
        </g>
    </g>
</svg>
