<?xml version="1.0" encoding="UTF-8" standalone="no"?><!DOCTYPE svg PUBLIC "-//W3C//DTD SVG 1.1//EN" "http://www.w3.org/Graphics/SVG/1.1/DTD/svg11.dtd"><svg width="100%" height="100%" viewBox="0 0 898 898" version="1.1" xmlns="http://www.w3.org/2000/svg" xmlns:xlink="http://www.w3.org/1999/xlink" xml:space="preserve" xmlns:serif="http://www.serif.com/" style="fill-rule:evenodd;clip-rule:evenodd;stroke-linejoin:round;stroke-miterlimit:2;"><path d="M895.675,845.979c0,27.442 -22.267,49.659 -49.658,49.659l-794.684,-0c-27.433,-0 -49.666,-22.234 -49.666,-49.659l-0,-794.646c-0,-27.433 22.233,-49.666 49.666,-49.666l794.671,-0c27.408,-0 49.658,22.233 49.658,49.666l0,794.646l0.013,0Z" style="fill:#fff;fill-rule:nonzero;stroke:#000;stroke-width:3.33px;"/><path d="M873.817,51.333c-0,-15.37 -12.467,-27.816 -27.817,-27.816l-794.667,-0c-15.358,-0 -27.816,12.441 -27.816,27.816l-0,794.646c-0,15.35 12.458,27.8 27.816,27.8l794.671,0c15.35,0 27.817,-12.45 27.817,-27.8l-0,-794.646" style="fill:#19408b;fill-rule:nonzero;"/><path d="M870.808,736.717l-422.145,-715.2l-422.167,715.2l844.312,-0" style="fill:#fff;fill-rule:nonzero;"/><path d="M393.496,568.829l38.996,0l-4.329,138.625l-43.317,0l8.65,-138.625Zm112.629,0l-38.962,0l4.329,138.625l43.308,0l-8.675,-138.625Zm-181.908,0l38.979,0l-17.317,138.625l-43.333,0l21.671,-138.625Zm251.212,0l-38.979,0l17.317,138.625l43.341,0l-21.679,-138.625Zm71.467,0l-38.963,0l34.634,138.625l43.312,0l-38.983,-138.625Zm-394.146,0l38.963,0l-34.634,138.625l-43.321,0l38.992,-138.625Zm-67.142,0l38.992,0l-51.987,138.625l-43.3,0l56.295,-138.625Zm528.43,0l-39.017,0l52.004,138.625l43.325,0l-56.313,-138.625Z" style="fill:#1c1d20;fill-rule:nonzero;"/><path d="M412.342,296.629l43.554,-24.846c-0,0 14.129,-10.304 28.271,2.296c-0,0.367 83.675,79.084 83.675,79.084c-0,-0 5.696,3.05 5.696,13.729l-0,43.937c-0,0 0.391,3.067 -1.888,6.121c-0.783,0.4 -4.575,16.813 -26.35,25.196c-0.392,-0 -12.612,4.6 -12.612,-6.479l-0,-58.059l-42.009,-27.895l0,99.308l33.238,98.192l25.229,32.437l4.95,86.363l-47.363,-63.021l-25.587,-32.488l-31.3,-65.3c-0,0 -6.146,-9.554 -13.396,0.359l-34,41.275c-0,-0 -4.963,4.2 -4.963,7.258l0,44.321l-9.17,25.212c-0,0 -18.334,47.738 -39.73,43.146c0.384,0 4.963,-93.587 4.963,-93.587l-0,-27.459c-0,0 -1.513,-6.525 4.2,-16.05c-0.383,-0.391 46.6,-79.491 46.6,-79.491l-0,-70.259l-73.333,69.888c-0,-0 -1.913,3.808 -8.017,4.2c-0.383,0.375 -11.467,3.808 -26.367,-1.904c0.384,-0 -10.321,-4.2 -0.383,-15.667c-0.417,0.383 116.092,-139.817 116.092,-139.817Zm-19.463,-66.937c0,-23.192 18.8,-42.017 42,-42.017c23.217,0 42.034,18.825 42.034,42.017c-0,23.216 -18.817,42.016 -42.034,42.016c-23.204,0 -42,-18.796 -42,-42.016Z" style="fill:#1c1d20;fill-rule:nonzero;"/></svg>