<?xml version="1.0" encoding="UTF-8" standalone="no"?>
<!DOCTYPE svg PUBLIC "-//W3C//DTD SVG 1.1//EN" "http://www.w3.org/Graphics/SVG/1.1/DTD/svg11.dtd">
<!-- GeoHints -->
<svg width="100%" height="100%" viewBox="0 0 9600 8442" version="1.1" xmlns="http://www.w3.org/2000/svg" xmlns:xlink="http://www.w3.org/1999/xlink" xml:space="preserve" xmlns:serif="http://www.serif.com/" style="fill-rule:evenodd;clip-rule:evenodd;stroke-linejoin:round;stroke-miterlimit:2;">
    <g transform="matrix(0.92145,0,0,0.998739,248.936,-276.214)">
        <path d="M4477.35,522.623C4572.54,370.579 4748.41,276.925 4938.72,276.925C5129.04,276.925 5304.9,370.579 5400.1,522.623C6453.01,2204.31 9023.11,6309.23 10076.4,7991.47C10171.6,8143.56 10171.6,8330.98 10076.5,8483.1C9981.29,8635.23 9805.37,8728.94 9614.99,8728.94L262.453,8728.94C72.073,8728.94 -103.841,8635.23 -199.013,8483.1C-294.184,8330.98 -294.149,8143.56 -198.922,7991.47C854.333,6309.23 3424.44,2204.31 4477.35,522.623Z" style="fill:rgb(226,10,22);"/>
    </g>
    <g transform="matrix(1.06485,0,0,1.06013,156.188,124.566)">
        <path d="M4238.25,1291.34C4264.85,1245.09 4313.85,1216.62 4366.85,1216.62C4419.86,1216.62 4468.86,1245.09 4495.46,1291.34C5036.44,2231.89 7124.32,5861.93 7667.14,6805.68C7693.83,6852.08 7693.92,6909.33 7667.38,6955.82C7640.84,7002.31 7591.71,7030.96 7538.53,7030.96L1195.18,7030.96C1142,7030.96 1092.87,7002.31 1066.33,6955.82C1039.79,6909.33 1039.88,6852.08 1066.57,6805.68C1609.38,5861.93 3697.27,2231.89 4238.25,1291.34Z" style="fill:white;"/>
    </g>
    <g transform="matrix(38.4551,0,0,37.1443,648.416,1237.87)">
        <g id="Layer-1" serif:id="Layer 1">
            <g>
                <g transform="matrix(0.901122,0,0,0.784785,10.6746,15.6598)">
                    <path d="M94.439,136.519L103.798,136.519L102.759,169.789L92.363,169.789L94.439,136.519" style="fill-rule:nonzero;"/>
                    <path d="M77.812,136.519L87.167,136.519L83.011,169.789L72.611,169.789L77.812,136.519" style="fill-rule:nonzero;"/>
                    <path d="M60.66,136.519L70.011,136.519L61.699,169.789L51.302,169.789L60.66,136.519" style="fill-rule:nonzero;"/>
                    <path d="M44.546,136.519L53.904,136.519L41.427,169.789L31.035,169.789L44.546,136.519" style="fill-rule:nonzero;"/>
                    <path d="M121.47,136.519L112.119,136.519L113.158,169.789L123.552,169.789L121.47,136.519" style="fill-rule:nonzero;"/>
                    <path d="M138.103,136.519L128.748,136.519L132.904,169.789L143.306,169.789L138.103,136.519" style="fill-rule:nonzero;"/>
                    <path d="M155.255,136.519L145.904,136.519L154.216,169.789L164.611,169.789L155.255,136.519" style="fill-rule:nonzero;"/>
                    <path d="M171.369,136.519L162.005,136.519L174.486,169.789L184.884,169.789L171.369,136.519" style="fill-rule:nonzero;"/>
                </g>
                <g transform="matrix(0.28289,-0.0175968,0.0175968,0.28289,57.2077,34.0471)">
                    <g transform="matrix(1.02019,0,0,1.02019,-312.341,-122.981)">
                        <path d="M546.202,513.997C558.198,499.74 556.279,490.524 533.407,452.555L514.951,421.915L497.792,347.085L501.558,315.504C503.63,298.134 505.822,283.425 506.429,282.817C507.036,282.21 512.498,286.604 518.567,292.581L529.601,303.448L528.234,325.876C527.033,345.598 527.262,348.455 530.137,349.558C535.787,351.726 543.843,348.395 551.524,340.714C558.48,333.758 559.018,332.322 560.266,317.376C560.998,308.617 562.054,299.025 562.612,296.061C563.5,291.35 559.505,286.062 530.931,254.12C507.128,227.513 496.862,217.407 493.191,216.971C490.237,216.62 479.488,220.519 467.23,226.388C449.255,234.995 444.372,238.452 432.54,250.953C424.966,258.955 403.668,280.883 385.212,299.683C366.755,318.482 351.654,334.745 351.654,335.822C351.654,339.927 359.824,344.901 368.099,345.834C376.622,346.795 377.024,346.55 404.544,323.629C419.849,310.882 433.083,300.452 433.953,300.452C435.884,300.452 435.784,323.637 433.793,337.569C432.571,346.121 429.406,351.782 413.726,373.453C403.488,387.605 394.321,401.01 393.355,403.243C391.592,407.321 371.626,492.839 371.626,496.315C371.626,499.124 386.852,498.541 394.252,495.449C406.679,490.256 410.241,483.367 417.512,450.462L424.215,420.129L439.961,404.728C448.621,396.257 456.846,389.068 458.239,388.751C459.812,388.394 464.464,397.475 470.517,412.717C481.601,440.628 490.839,457.191 510.416,484.253C517.941,494.655 526.813,506.986 530.131,511.654C533.449,516.322 537.259,520.142 538.597,520.142C539.936,520.142 543.358,517.377 546.202,513.997Z"/>
                        <path d="M432.65,304.017C432.802,305.256 432.968,306.881 433.022,308.426C433.3,316.321 432.805,328.589 431.569,337.238C430.38,345.556 427.178,350.987 411.929,372.063C401.545,386.415 392.282,400.035 391.303,402.299C391.303,402.299 391.303,402.299 391.303,402.299C389.522,406.419 369.378,492.814 369.378,496.325C369.378,497.614 370.287,499.16 372.658,499.843C377.076,501.114 388.76,500.249 395.086,497.606C408.029,492.199 412.132,485.241 419.704,450.972C419.704,450.972 426.254,421.329 426.254,421.329L441.502,406.416C447.498,400.551 453.281,395.305 456.685,392.579C457.152,392.205 457.661,391.833 458.074,391.541C458.412,391.993 458.857,392.624 459.241,393.278C461.486,397.11 464.683,404.159 468.437,413.61C479.599,441.718 488.898,458.4 508.614,485.653C516.135,496.049 525.002,508.373 528.318,513.038C530.788,516.515 533.531,519.534 535.434,521.041C536.744,522.079 537.901,522.469 538.588,522.469C539.255,522.469 540.276,522.176 541.448,521.445C543.238,520.328 545.728,518.097 547.895,515.521L547.895,515.521C551.786,510.896 554.271,506.732 555.248,502.102C556.229,497.455 555.713,492.301 553.357,485.668C550.428,477.418 544.578,466.691 535.317,451.317C535.317,451.317 519.022,424.266 517.054,420.999C517.054,420.999 500.073,346.945 500.073,346.945L503.79,315.779C505.344,302.75 506.954,291.233 507.905,286.168C510.132,287.83 513.464,290.775 517.013,294.27C517.013,294.27 524.8,301.94 527.291,304.393C527.291,304.393 525.99,325.739 525.99,325.739C525.248,337.919 525.086,343.851 525.675,346.892C526.275,349.997 527.535,351.045 529.348,351.741C529.348,351.741 529.348,351.741 529.348,351.741C532.01,352.763 535.126,352.801 538.487,351.836C543.06,350.523 548.156,347.311 553.083,342.384C556.079,339.388 557.941,337.317 559.217,334.912C561.096,331.369 561.715,327.049 562.507,317.567C563.23,308.909 564.267,299.427 564.819,296.497C564.819,296.497 564.819,296.497 564.819,296.497C565.253,294.196 564.945,291.708 561.931,287.143C558.202,281.494 549.856,271.843 532.584,252.535C515.803,233.777 505.693,223.172 499.875,218.341C496.899,215.87 494.78,214.816 493.457,214.659C492.409,214.534 490.521,214.788 488.015,215.496C482.988,216.914 475.015,220.101 466.293,224.277C447.969,233.05 442.999,236.585 430.937,249.328C423.368,257.325 402.083,279.24 383.638,298.027C368.815,313.126 356.151,326.597 351.677,331.934C350.621,333.193 349.976,334.088 349.75,334.518C349.448,335.095 349.406,335.558 349.406,335.832C349.406,337.577 350.299,339.515 352.075,341.294C355.269,344.495 361.516,347.434 367.846,348.148C373.506,348.786 375.943,348.991 383.556,343.535C388.168,340.23 394.878,334.661 405.949,325.44C417.607,315.73 428.046,307.369 432.65,304.017ZM546.202,513.997C558.198,499.74 556.279,490.524 533.407,452.555L514.951,421.915L497.792,347.085L501.558,315.504C503.63,298.134 505.822,283.425 506.429,282.817C507.036,282.21 512.498,286.604 518.567,292.581L529.601,303.448L528.234,325.876C527.033,345.598 527.262,348.455 530.137,349.558C535.787,351.726 543.843,348.395 551.524,340.714C558.48,333.758 559.018,332.322 560.266,317.376C560.998,308.617 562.054,299.025 562.612,296.061C563.5,291.35 559.505,286.062 530.931,254.12C507.128,227.513 496.862,217.407 493.191,216.971C490.237,216.62 479.488,220.519 467.23,226.388C449.255,234.995 444.372,238.452 432.54,250.953C424.966,258.955 403.668,280.883 385.212,299.683C366.755,318.482 351.654,334.745 351.654,335.822C351.654,339.927 359.824,344.901 368.099,345.834C376.622,346.795 377.024,346.55 404.544,323.629C419.849,310.882 433.083,300.452 433.953,300.452C435.884,300.452 435.784,323.637 433.793,337.569C432.571,346.121 429.406,351.782 413.726,373.453C403.488,387.605 394.321,401.01 393.355,403.243C391.592,407.321 371.626,492.839 371.626,496.315C371.626,499.124 386.852,498.541 394.252,495.449C406.679,490.256 410.241,483.367 417.512,450.462L424.215,420.129L439.961,404.728C448.621,396.257 456.846,389.068 458.239,388.751C459.812,388.394 464.464,397.475 470.517,412.717C481.601,440.628 490.839,457.191 510.416,484.253C517.941,494.655 526.813,506.986 530.131,511.654C533.449,516.322 537.259,520.142 538.597,520.142C539.936,520.142 543.358,517.377 546.202,513.997Z" style="fill:white;"/>
                    </g>
                    <g transform="matrix(1.02019,0,0,1.02019,-312.341,-122.981)">
                        <path d="M480.39,207.782C490.303,200.221 494.098,192.021 492.995,180.546C490.426,153.803 459.797,141.91 441.253,160.455C425.373,176.335 427.921,198.274 447.025,210.141C457.019,216.349 470.398,215.403 480.39,207.782Z"/>
                    </g>
                </g>
            </g>
        </g>
    </g>
</svg>
