<?xml version="1.0" encoding="UTF-8" standalone="no"?>
<svg xmlns:dc="http://purl.org/dc/elements/1.1/" xmlns:cc="http://creativecommons.org/ns#" xmlns:rdf="http://www.w3.org/1999/02/22-rdf-syntax-ns#" xmlns:svg="http://www.w3.org/2000/svg" xmlns="http://www.w3.org/2000/svg" xmlns:sodipodi="http://sodipodi.sourceforge.net/DTD/sodipodi-0.dtd" xmlns:inkscape="http://www.inkscape.org/namespaces/inkscape" id="Nederlands_verkeersbord_F7" width="103.54237" height="103.54211" viewBox="0 0 103.54237 103.54211" version="1.1" inkscape:version="0.92.4 (5da689c313, 2019-01-14)" sodipodi:docname="Australia_W6-2_(fluoro_with_target_board).svg">
  <metadata id="metadata9">
    <rdf:RDF>
      <cc:Work rdf:about="">
        <dc:format>image/svg+xml</dc:format>
        <dc:type rdf:resource="http://purl.org/dc/dcmitype/StillImage"/>
        <dc:title/>
      </cc:Work>
    </rdf:RDF>
  </metadata>
  <defs id="defs7">
    <clipPath clipPathUnits="userSpaceOnUse" id="clipPath3441">
      <path inkscape:connector-curvature="0" d="m 233.858,445.744 99.213,0 0,-99.213 -99.213,0 0,99.213 z" clip-rule="evenodd" id="path3443"/>
    </clipPath>
    <clipPath clipPathUnits="userSpaceOnUse" id="clipPath3447">
      <path inkscape:connector-curvature="0" d="m 0,842 595.276,0 0,-841.89 L 0,0.11 0,842 z" id="path3449"/>
    </clipPath>
    <clipPath clipPathUnits="userSpaceOnUse" id="clipPath3453">
      <path inkscape:connector-curvature="0" d="m 0,841.98 595.2,0 L 595.2,0 0,0 0,841.98 z" id="path3455"/>
    </clipPath>
  </defs>
  <sodipodi:namedview pagecolor="#ffffff" bordercolor="#666666" borderopacity="1" objecttolerance="10" gridtolerance="10" guidetolerance="10" inkscape:pageopacity="0" inkscape:pageshadow="2" inkscape:window-width="1920" inkscape:window-height="1057" id="namedview5" showgrid="false" fit-margin-top="0" fit-margin-left="0" fit-margin-right="0" fit-margin-bottom="0" inkscape:zoom="6.2933335" inkscape:cx="106.78346" inkscape:cy="40.988007" inkscape:window-x="-8" inkscape:window-y="-8" inkscape:window-maximized="1" inkscape:current-layer="Nederlands_verkeersbord_F7"/>
  <path inkscape:connector-curvature="0" d="m 59.55015,3.1768675 41.1475,41.1637515 c 3.25125,3.795 3.75,8.69375 1.31875,13.06125 -0.49125,0.79 -1.00875,1.47125 -1.64875,2.14625 l -41.17,41.151251 c -3.79625,3.2525 -8.69125,3.745 -13.06,1.3175 -0.79,-0.4925 -1.47125,-1.01 -2.14625,-1.65125 L 2.8439006,59.200619 c -3.12250001,-3.6425 -3.70750001,-8.28 -1.5875,-12.58125 0.5475,-0.98625 1.145,-1.81375 1.9225,-2.63 L 44.33765,2.8456175 c 3.64625,-3.12374999 8.27875,-3.70999999 12.58375,-1.58875 0.985,0.5475 1.8125,1.14375 2.62875,1.92" style="fill:#e96e13;fill-opacity:1;fill-rule:evenodd;stroke:none" id="path3431"/>
  <path inkscape:connector-curvature="0" d="M 9.8526506,54.768119 48.7864,93.701869 c 1.62,1.62 4.32,1.62 5.9675,0 l 38.933754,-38.93375 c 1.6475,-1.6475 1.6475,-4.3475 0,-5.99375 L 54.7539,9.8406175 c -1.6475,-1.62 -4.3475,-1.62 -5.9675,0 L 9.8526506,48.774369 c -1.6475,1.64625 -1.6475,4.34625 0,5.99375" style="fill:#cdff00;fill-opacity:1;fill-rule:evenodd;stroke:none" id="path3435"/>
  <path inkscape:connector-curvature="0" d="m 49.3539,93.054369 c 1.40375,1.13375 3.0775,1.40375 4.53625,0.2425 l 0.29625,-0.215 38.880004,-38.9075 c 1.35,-1.5925 1.35,-3.24 0,-4.8325 L 54.1864,10.434368 c -1.295,-1.0525005 -2.78,-1.3775005 -4.265,-0.4325 l -0.27,0.21625 -0.2975,0.21625 -38.88,38.907501 c -1.3499994,1.5925 -1.3499994,3.2125 0,4.805 l 38.88,38.9075" style="fill:#000000;fill-opacity:1;fill-rule:evenodd;stroke:none" id="path3439"/>
  <path inkscape:connector-curvature="0" d="m 52.2164,92.379369 c 0.2975,-0.08125 0.4325,-0.18875 0.7025,-0.3775 l 38.880004,-38.88 c 0.755,-0.945 0.755,-1.6475 0,-2.5925 L 52.9189,11.649368 c -0.75625,-0.5675 -1.54,-0.54 -2.26875,0.0275 L 11.7439,50.556869 c -0.73,0.9175 -0.73,1.62 0,2.5375 l 38.90625,38.88 c 0.51375,0.4325 0.91875,0.48625 1.56625,0.405" style="fill:#cdff00;fill-opacity:1;fill-rule:evenodd;stroke:none" id="path3443-4"/>
  <path inkscape:connector-curvature="0" d="m 62.6914,69.321869 -0.18875,-0.5675 c 0.72875,-0.32375 0.99875,-0.3775 1.89,-0.32375 0.7825,0.05375 1.80875,-0.45875 2.51125,-0.86375 1.78125,-1.1075 0.70125,-2.3225 0.0263,-2.10625 -1.3225,0.48625 -3.0775,0.51375 -3.96875,-0.135 -1.1075,1.26875 -2.61875,1.67375 -3.7525,1.67375 -0.4325,1.08 0.08,1.7825 0.945,2.62 l 0.35,0.675 2.1875,-0.9725 z m -22.545,-1.3225 0.2975,-0.54 c 0.72875,0.35 0.97125,0.5125 1.51125,1.215 0.45875,0.62 1.53875,1.08 2.295,1.3225 1.97125,0.6475 2.21375,-0.99875 1.56625,-1.35 -1.215,-0.675 -2.37625,-1.97125 -2.4575,-3.105 -1.67375,0 -2.97,-0.8375 -3.69875,-1.7275 -1.13375,0.3775 -1.35,1.24125 -1.40375,2.43 l -0.27,0.755 2.16,1 z m 10.2325,-19.4675 6.69625,0 7.3175,15.20125 -5.6975,2.72625 -8.31625,-17.9275 z m -4.455,0 3.18625,0 2.0525,4.0225 -6.12875,13.23 -5.6975,-2.7 6.5875,-14.5525 z m 6.58875,29.34875 c 9.74625,0 17.685,-7.91125 17.685,-17.6575 0,-9.72 -7.93875,-17.65875 -17.685,-17.65875 -9.72,0 -17.65875,7.93875 -17.65875,17.65875 0,9.74625 7.93875,17.6575 17.65875,17.6575 z m 0,1.485 c 10.55625,0 19.1425,-8.58625 19.1425,-19.1425 0,-10.5575 -8.58625,-19.14375 -19.1425,-19.14375 -10.5575,0 -19.14375,8.58625 -19.14375,19.14375 0,10.55625 8.58625,19.1425 19.14375,19.1425" style="fill:#000000;fill-opacity:1;fill-rule:evenodd;stroke:none" id="path3447"/>
  <path inkscape:connector-curvature="0" d="m 51.7839,38.541869 3.45625,0 0,-9.3425 6.29125,1.35 c 0.08,0 0.16125,0.0275 0.27,0.0275 0.35,0 0.62,-0.27 0.62,-0.62125 0,-0.18875 -0.135,-0.405 -0.27,-0.5125 l -10.3675,-9.50375 -10.3675,9.50375 c -0.135,0.1075 -0.27,0.32375 -0.27,0.5125 0,0.35125 0.27,0.62125 0.62,0.62125 0.10875,0 0.19,-0.0275 0.27,-0.0275 l 6.29125,-1.35 0,9.3425 3.45625,0" style="fill:#000000;fill-opacity:1;fill-rule:evenodd;stroke:none" id="path3451"/>
</svg>