<?xml version="1.0" encoding="UTF-8" standalone="no"?>
<!DOCTYPE svg PUBLIC "-//W3C//DTD SVG 1.1//EN" "http://www.w3.org/Graphics/SVG/1.1/DTD/svg11.dtd">
<!-- GeoHints -->
<svg width="100%" height="100%" viewBox="0 0 1625 2121" version="1.1" xmlns="http://www.w3.org/2000/svg" xmlns:xlink="http://www.w3.org/1999/xlink" xml:space="preserve" xmlns:serif="http://www.serif.com/" style="fill-rule:evenodd;clip-rule:evenodd;stroke-linejoin:round;stroke-miterlimit:2;">
    <g>
        <path d="M1624.77,100.332L1624.77,2019.86C1624.77,2075.06 1580.68,2120.21 1526.78,2120.21L97.977,2120.21C44.09,2120.21 0,2075.06 0,2019.86L0,100.332C0,45.149 44.09,0 97.977,0L1526.78,0C1580.68,0 1624.77,45.149 1624.77,100.332Z" style="fill:rgb(254,224,17);"/>
        <path d="M1605.55,2019.86C1605.55,2064.22 1570.1,2100.51 1526.78,2100.51L97.977,2100.51C54.659,2100.51 19.224,2064.22 19.224,2019.86L19.224,100.955C19.224,56.596 54.659,20.31 97.977,20.31L1526.78,20.31C1570.1,20.31 1605.55,56.596 1605.55,100.955L1605.55,2019.86Z"/>
        <path d="M1589.29,2017.61L1589.29,102.603C1589.29,84.568 1582.13,67.272 1569.38,54.519C1556.62,41.767 1539.33,34.603 1521.29,34.603L103.48,34.603C85.445,34.603 68.149,41.767 55.397,54.519C42.644,67.272 35.48,84.568 35.48,102.603L35.48,2017.61C35.48,2035.64 42.644,2052.93 55.397,2065.69C68.149,2078.44 85.445,2085.61 103.48,2085.61L1521.29,2085.61C1539.33,2085.61 1556.62,2078.44 1569.38,2065.69C1582.13,2052.93 1589.29,2035.64 1589.29,2017.61Z" style="fill:rgb(254,224,17);"/>
    </g>
    <g transform="matrix(16.5063,0,0,16.5063,-2884.05,-25159.8)">
        <g transform="matrix(16,0,0,16,185.725,1614.25)">
            <path d="M0.615,-0.67L0.516,-0L0.422,-0L0.316,-0.43L0.213,-0L0.119,-0L0.02,-0.67L0.128,-0.67L0.18,-0.317L0.265,-0.67L0.368,-0.67L0.455,-0.317L0.507,-0.67L0.615,-0.67Z" style="fill-rule:nonzero;"/>
        </g>
        <g transform="matrix(16,0,0,16,195.885,1614.25)">
            <path d="M0.586,-0L0.474,-0L0.408,-0.188L0.199,-0.188L0.133,-0L0.02,-0L0.25,-0.67L0.356,-0.67L0.586,-0ZM0.37,-0.296L0.304,-0.484L0.236,-0.296L0.37,-0.296Z" style="fill-rule:nonzero;"/>
        </g>
        <g transform="matrix(16,0,0,16,205.565,1614.25)">
            <path d="M0.464,-0.576L0.309,-0.576L0.309,-0L0.203,-0L0.203,-0.576L0.05,-0.576L0.05,-0.67L0.464,-0.67L0.464,-0.576Z" style="fill-rule:nonzero;"/>
        </g>
        <g transform="matrix(16,0,0,16,213.805,1614.25)">
            <path d="M0.297,-0.095C0.346,-0.096 0.382,-0.119 0.404,-0.165L0.503,-0.116C0.462,-0.033 0.394,0.009 0.297,0.011C0.218,0.011 0.158,-0.019 0.116,-0.08C0.073,-0.141 0.052,-0.226 0.052,-0.335C0.052,-0.444 0.073,-0.529 0.116,-0.59C0.158,-0.651 0.218,-0.681 0.297,-0.681C0.394,-0.679 0.462,-0.637 0.503,-0.554L0.404,-0.505C0.382,-0.551 0.346,-0.574 0.297,-0.575C0.25,-0.575 0.216,-0.553 0.195,-0.508C0.174,-0.464 0.163,-0.406 0.163,-0.335C0.163,-0.264 0.174,-0.206 0.195,-0.162C0.216,-0.117 0.25,-0.095 0.297,-0.095Z" style="fill-rule:nonzero;"/>
        </g>
        <g transform="matrix(16,0,0,16,222.685,1614.25)">
            <path d="M0.506,-0L0.4,-0L0.4,-0.291L0.156,-0.291L0.156,-0L0.05,-0L0.05,-0.67L0.156,-0.67L0.156,-0.399L0.4,-0.399L0.4,-0.67L0.506,-0.67L0.506,-0Z" style="fill-rule:nonzero;"/>
        </g>
        <g transform="matrix(16,0,0,16,235.645,1614.25)">
            <path d="M0.282,0.012C0.203,0.012 0.143,-0.018 0.101,-0.078C0.058,-0.137 0.037,-0.223 0.037,-0.335C0.037,-0.444 0.058,-0.529 0.101,-0.59C0.143,-0.651 0.203,-0.681 0.282,-0.681C0.362,-0.681 0.423,-0.651 0.465,-0.59C0.506,-0.529 0.527,-0.444 0.527,-0.335C0.527,-0.223 0.506,-0.137 0.465,-0.078C0.423,-0.018 0.362,0.012 0.282,0.012ZM0.282,-0.575C0.235,-0.575 0.201,-0.553 0.18,-0.508C0.159,-0.464 0.148,-0.407 0.147,-0.337C0.147,-0.258 0.158,-0.199 0.179,-0.158C0.2,-0.117 0.234,-0.097 0.282,-0.098C0.333,-0.099 0.368,-0.12 0.387,-0.161C0.406,-0.202 0.417,-0.26 0.418,-0.337C0.417,-0.412 0.406,-0.469 0.385,-0.51C0.364,-0.551 0.329,-0.572 0.282,-0.575Z" style="fill-rule:nonzero;"/>
        </g>
        <g transform="matrix(16,0,0,16,244.685,1614.25)">
            <path d="M0.506,-0.24C0.506,-0.187 0.496,-0.141 0.475,-0.101C0.458,-0.068 0.432,-0.041 0.395,-0.02C0.358,0.001 0.319,0.012 0.278,0.012C0.237,0.012 0.198,0.001 0.161,-0.02C0.124,-0.041 0.097,-0.068 0.08,-0.101C0.06,-0.141 0.05,-0.187 0.05,-0.24L0.05,-0.67L0.156,-0.67L0.156,-0.24C0.156,-0.197 0.167,-0.162 0.19,-0.136C0.212,-0.109 0.241,-0.096 0.278,-0.096C0.315,-0.096 0.344,-0.109 0.367,-0.136C0.389,-0.162 0.4,-0.197 0.4,-0.24L0.4,-0.67L0.506,-0.67L0.506,-0.24Z" style="fill-rule:nonzero;"/>
        </g>
        <g transform="matrix(16,0,0,16,253.565,1614.25)">
            <path d="M0.464,-0.576L0.309,-0.576L0.309,-0L0.203,-0L0.203,-0.576L0.05,-0.576L0.05,-0.67L0.464,-0.67L0.464,-0.576Z" style="fill-rule:nonzero;"/>
        </g>
        <g transform="matrix(16,0,0,16,210.685,1630.25)">
            <path d="M0.466,-0.564L0.156,-0.564L0.156,-0.399L0.351,-0.399L0.351,-0.291L0.156,-0.291L0.156,-0L0.05,-0L0.05,-0.67L0.466,-0.67L0.466,-0.564Z" style="fill-rule:nonzero;"/>
        </g>
        <g transform="matrix(16,0,0,16,218.925,1630.25)">
            <path d="M0.282,0.012C0.203,0.012 0.143,-0.018 0.101,-0.078C0.058,-0.137 0.037,-0.223 0.037,-0.335C0.037,-0.444 0.058,-0.529 0.101,-0.59C0.143,-0.651 0.203,-0.681 0.282,-0.681C0.362,-0.681 0.423,-0.651 0.465,-0.59C0.506,-0.529 0.527,-0.444 0.527,-0.335C0.527,-0.223 0.506,-0.137 0.465,-0.078C0.423,-0.018 0.362,0.012 0.282,0.012ZM0.282,-0.575C0.235,-0.575 0.201,-0.553 0.18,-0.508C0.159,-0.464 0.148,-0.407 0.147,-0.337C0.147,-0.258 0.158,-0.199 0.179,-0.158C0.2,-0.117 0.234,-0.097 0.282,-0.098C0.333,-0.099 0.368,-0.12 0.387,-0.161C0.406,-0.202 0.417,-0.26 0.418,-0.337C0.417,-0.412 0.406,-0.469 0.385,-0.51C0.364,-0.551 0.329,-0.572 0.282,-0.575Z" style="fill-rule:nonzero;"/>
        </g>
        <g transform="matrix(16,0,0,16,227.965,1630.25)">
            <path d="M0.506,-0L0.391,-0L0.283,-0.291L0.156,-0.291L0.156,-0L0.05,-0L0.05,-0.67L0.315,-0.67C0.37,-0.669 0.413,-0.65 0.445,-0.611C0.476,-0.572 0.492,-0.529 0.492,-0.482C0.492,-0.447 0.482,-0.413 0.463,-0.382C0.444,-0.35 0.419,-0.327 0.388,-0.313L0.506,-0ZM0.387,-0.479C0.387,-0.505 0.379,-0.525 0.364,-0.539C0.348,-0.553 0.33,-0.56 0.311,-0.561L0.156,-0.561L0.156,-0.396L0.315,-0.396C0.335,-0.396 0.352,-0.403 0.366,-0.418C0.38,-0.433 0.387,-0.453 0.387,-0.479Z" style="fill-rule:nonzero;"/>
        </g>
        <g transform="matrix(16,0,0,16,178.205,1646.25)">
            <path d="M0.29,-0.291L0.163,-0.291L0.163,-0L0.057,-0L0.057,-0.67L0.278,-0.67C0.327,-0.67 0.367,-0.663 0.397,-0.649C0.427,-0.634 0.452,-0.611 0.47,-0.58C0.49,-0.549 0.499,-0.516 0.499,-0.482C0.499,-0.447 0.491,-0.415 0.476,-0.386C0.461,-0.357 0.438,-0.334 0.406,-0.317C0.376,-0.299 0.337,-0.29 0.29,-0.291ZM0.392,-0.48C0.392,-0.506 0.384,-0.526 0.369,-0.54C0.353,-0.554 0.335,-0.561 0.316,-0.562L0.161,-0.562L0.161,-0.397L0.32,-0.397C0.34,-0.397 0.357,-0.404 0.371,-0.419C0.385,-0.434 0.392,-0.454 0.392,-0.48Z" style="fill-rule:nonzero;"/>
        </g>
        <g transform="matrix(16,0,0,16,187.085,1646.25)">
            <path d="M0.466,-0L0.05,-0L0.05,-0.67L0.445,-0.67L0.445,-0.564L0.156,-0.564L0.156,-0.399L0.351,-0.399L0.351,-0.291L0.156,-0.291L0.156,-0.108L0.466,-0.108L0.466,-0Z" style="fill-rule:nonzero;"/>
        </g>
        <g transform="matrix(16,0,0,16,195.325,1646.25)">
            <path d="M0.506,-0.335C0.505,-0.218 0.481,-0.133 0.434,-0.08C0.386,-0.027 0.327,-0 0.258,-0L0.049,-0L0.049,-0.67L0.258,-0.67C0.327,-0.67 0.386,-0.643 0.434,-0.59C0.481,-0.537 0.505,-0.452 0.506,-0.335ZM0.155,-0.564L0.155,-0.106L0.258,-0.106C0.303,-0.107 0.338,-0.129 0.363,-0.17C0.388,-0.211 0.4,-0.266 0.401,-0.335C0.401,-0.408 0.388,-0.465 0.363,-0.503C0.338,-0.543 0.303,-0.563 0.258,-0.564L0.155,-0.564Z" style="fill-rule:nonzero;"/>
        </g>
        <g transform="matrix(16,0,0,16,204.205,1646.25)">
            <path d="M0.466,-0L0.05,-0L0.05,-0.67L0.445,-0.67L0.445,-0.564L0.156,-0.564L0.156,-0.399L0.351,-0.399L0.351,-0.291L0.156,-0.291L0.156,-0.108L0.466,-0.108L0.466,-0Z" style="fill-rule:nonzero;"/>
        </g>
        <g transform="matrix(16,0,0,16,212.445,1646.25)">
            <path d="M0.351,-0.518C0.33,-0.557 0.297,-0.577 0.252,-0.578C0.226,-0.578 0.204,-0.57 0.187,-0.554C0.17,-0.538 0.161,-0.519 0.162,-0.497C0.162,-0.481 0.17,-0.467 0.186,-0.454C0.201,-0.441 0.226,-0.432 0.26,-0.427C0.341,-0.413 0.399,-0.386 0.436,-0.345C0.472,-0.305 0.49,-0.259 0.49,-0.207C0.49,-0.15 0.468,-0.099 0.425,-0.055C0.382,-0.01 0.328,0.012 0.263,0.012C0.16,0.011 0.084,-0.041 0.034,-0.144L0.135,-0.195C0.166,-0.13 0.21,-0.098 0.265,-0.098C0.297,-0.097 0.325,-0.109 0.348,-0.132C0.371,-0.155 0.383,-0.181 0.383,-0.212C0.384,-0.233 0.375,-0.253 0.356,-0.274C0.337,-0.294 0.304,-0.308 0.257,-0.317C0.193,-0.326 0.144,-0.346 0.11,-0.376C0.076,-0.405 0.059,-0.441 0.059,-0.482C0.058,-0.531 0.075,-0.577 0.111,-0.619C0.147,-0.66 0.195,-0.681 0.254,-0.681C0.337,-0.679 0.399,-0.64 0.44,-0.563L0.351,-0.518Z" style="fill-rule:nonzero;"/>
        </g>
        <g transform="matrix(16,0,0,16,220.845,1646.25)">
            <path d="M0.464,-0.576L0.309,-0.576L0.309,-0L0.203,-0L0.203,-0.576L0.05,-0.576L0.05,-0.67L0.464,-0.67L0.464,-0.576Z" style="fill-rule:nonzero;"/>
        </g>
        <g transform="matrix(16,0,0,16,229.085,1646.25)">
            <path d="M0.506,-0L0.391,-0L0.283,-0.291L0.156,-0.291L0.156,-0L0.05,-0L0.05,-0.67L0.315,-0.67C0.37,-0.669 0.413,-0.65 0.445,-0.611C0.476,-0.572 0.492,-0.529 0.492,-0.482C0.492,-0.447 0.482,-0.413 0.463,-0.382C0.444,-0.35 0.419,-0.327 0.388,-0.313L0.506,-0ZM0.387,-0.479C0.387,-0.505 0.379,-0.525 0.364,-0.539C0.348,-0.553 0.33,-0.56 0.311,-0.561L0.156,-0.561L0.156,-0.396L0.315,-0.396C0.335,-0.396 0.352,-0.403 0.366,-0.418C0.38,-0.433 0.387,-0.453 0.387,-0.479Z" style="fill-rule:nonzero;"/>
        </g>
        <g transform="matrix(16,0,0,16,237.965,1646.25)">
            <rect x="0.083" y="-0.67" width="0.108" height="0.67" style="fill-rule:nonzero;"/>
        </g>
        <g transform="matrix(16,0,0,16,242.365,1646.25)">
            <path d="M0.586,-0L0.474,-0L0.408,-0.188L0.199,-0.188L0.133,-0L0.02,-0L0.25,-0.67L0.356,-0.67L0.586,-0ZM0.37,-0.296L0.304,-0.484L0.236,-0.296L0.37,-0.296Z" style="fill-rule:nonzero;"/>
        </g>
        <g transform="matrix(16,0,0,16,252.045,1646.25)">
            <path d="M0.506,-0L0.412,-0L0.156,-0.454L0.156,-0L0.05,-0L0.05,-0.67L0.156,-0.67L0.4,-0.242L0.4,-0.67L0.506,-0.67L0.506,-0Z" style="fill-rule:nonzero;"/>
        </g>
        <g transform="matrix(16,0,0,16,260.925,1646.25)">
            <path d="M0.351,-0.518C0.33,-0.557 0.297,-0.577 0.252,-0.578C0.226,-0.578 0.204,-0.57 0.187,-0.554C0.17,-0.538 0.161,-0.519 0.162,-0.497C0.162,-0.481 0.17,-0.467 0.186,-0.454C0.201,-0.441 0.226,-0.432 0.26,-0.427C0.341,-0.413 0.399,-0.386 0.436,-0.345C0.472,-0.305 0.49,-0.259 0.49,-0.207C0.49,-0.15 0.468,-0.099 0.425,-0.055C0.382,-0.01 0.328,0.012 0.263,0.012C0.16,0.011 0.084,-0.041 0.034,-0.144L0.135,-0.195C0.166,-0.13 0.21,-0.098 0.265,-0.098C0.297,-0.097 0.325,-0.109 0.348,-0.132C0.371,-0.155 0.383,-0.181 0.383,-0.212C0.384,-0.233 0.375,-0.253 0.356,-0.274C0.337,-0.294 0.304,-0.308 0.257,-0.317C0.193,-0.326 0.144,-0.346 0.11,-0.376C0.076,-0.405 0.059,-0.441 0.059,-0.482C0.058,-0.531 0.075,-0.577 0.111,-0.619C0.147,-0.66 0.195,-0.681 0.254,-0.681C0.337,-0.679 0.399,-0.64 0.44,-0.563L0.351,-0.518Z" style="fill-rule:nonzero;"/>
        </g>
    </g>
    <g>
        <g>
            <path d="M644.583,566.146L730.955,566.146L786.422,674.315L620.854,1032.22L466.599,959.645"/>
            <path d="M488.948,1092.38L496.674,1078.03C516.271,1087.13 522.888,1092.1 537.24,1110.59C550.208,1127.42 578.634,1139.84 599.329,1146.46C653.14,1163.57 659.206,1119.42 642.378,1110.04C609.54,1091.82 577.804,1056.51 575.598,1026.43C530.064,1026.43 494.748,1002.97 475.148,979.237C445.074,989.727 439.281,1012.63 437.9,1045.19L430.173,1064.78"/>
            <path d="M1098.68,1128.43L1092.9,1113.19C1112.61,1104.34 1120.7,1102.59 1144.07,1103.85C1165.28,1105.07 1193.28,1091.72 1211.83,1080.41C1259.99,1050.94 1230.6,1017.44 1212.48,1024.02C1177.22,1036.92 1129.75,1037.78 1105.57,1019.76C1075.76,1054.17 1034.91,1065.51 1004.14,1064.78C992.378,1094.38 1005.89,1113.76 1029.6,1136.12L1039.35,1154.78"/>
            <path d="M764.897,566.146L946.749,566.146L1144.33,976.753L990.07,1050.99"/>
        </g>
        <path d="M240.907,1259.25C193.017,1258.95 154.229,1219.97 154.229,1172.01C154.229,1155.99 158.557,1140.97 166.104,1128.07L736.552,140.024C751.577,113.686 779.921,95.918 812.385,95.918C844.848,95.918 873.192,113.686 888.217,140.024L1458.66,1128.07C1466.21,1140.97 1470.54,1155.99 1470.54,1172.01C1470.54,1220.16 1431.45,1259.25 1383.3,1259.25L241.471,1259.25L240.907,1259.25ZM266.097,1192.37C255.707,1192.37 246.107,1186.83 240.912,1177.83C235.717,1168.83 235.717,1157.74 240.912,1148.75C338.321,980.029 689.791,371.265 787.2,202.547C792.395,193.55 801.995,188.007 812.385,188.007C822.774,188.007 832.374,193.55 837.569,202.547C934.978,371.265 1286.45,980.029 1383.86,1148.75C1389.05,1157.74 1389.05,1168.83 1383.86,1177.83C1378.66,1186.83 1369.06,1192.37 1358.67,1192.37C1163.86,1192.37 460.915,1192.37 266.097,1192.37Z"/>
    </g>
</svg>
