<?xml version="1.0" encoding="UTF-8" standalone="no"?>
<!-- Generator: Adobe Illustrator 13.0.0, SVG Export Plug-In  -->
<svg xmlns:dc="http://purl.org/dc/elements/1.1/" xmlns:cc="http://creativecommons.org/ns#" xmlns:rdf="http://www.w3.org/1999/02/22-rdf-syntax-ns#" xmlns:svg="http://www.w3.org/2000/svg" xmlns="http://www.w3.org/2000/svg" xmlns:sodipodi="http://sodipodi.sourceforge.net/DTD/sodipodi-0.dtd" xmlns:inkscape="http://www.inkscape.org/namespaces/inkscape" version="1.1" x="0px" y="0px" width="123.33875" height="82.243752" viewBox="-0.451 -0.943 123.33875 82.243754" enable-background="new -0.451 -0.943 370 828" xml:space="preserve" id="svg2" inkscape:version="0.92.4 (5da689c313, 2019-01-14)" sodipodi:docname="Australia_W8-22_(fluorescent).svg"><metadata id="metadata48"><rdf:RDF><cc:Work rdf:about=""><dc:format>image/svg+xml</dc:format><dc:type rdf:resource="http://purl.org/dc/dcmitype/StillImage"/><dc:title/></cc:Work></rdf:RDF></metadata><sodipodi:namedview pagecolor="#ffffff" bordercolor="#666666" borderopacity="1" objecttolerance="10" gridtolerance="10" guidetolerance="10" inkscape:pageopacity="0" inkscape:pageshadow="2" inkscape:window-width="1920" inkscape:window-height="1057" id="namedview46" showgrid="false" fit-margin-top="0" fit-margin-left="0" fit-margin-right="0" fit-margin-bottom="0" inkscape:zoom="4.5603865" inkscape:cx="64.212276" inkscape:cy="37.412009" inkscape:window-x="-8" inkscape:window-y="-8" inkscape:window-maximized="1" inkscape:current-layer="svg2" showguides="true" inkscape:guide-bbox="true"/>
<defs id="defs4">
</defs>




















<path d="m 7.7989978,-0.943 106.8375022,0 c 4.53875,0 8.25125,3.7125 8.25125,8.25 l 0,65.742501 c 0,4.538751 -3.7125,8.251251 -8.25125,8.251251 l -106.8375022,0 c -4.537501,0 -8.25000103,-3.7125 -8.25000103,-8.251251 l 0,-65.742501 c 0,-4.5375 3.71250003,-8.25 8.25000103,-8.25" style="fill:#cdff00;fill-opacity:1;fill-rule:evenodd;stroke:none" id="path3733" inkscape:connector-curvature="0"/><path d="m 7.7989978,0.727 106.8375022,0 c 3.6475,0 6.6325,2.98375 6.6325,6.63125 l 0,65.691251 c 0,3.647501 -2.985,6.631251 -6.6325,6.631251 l -106.8375022,0 c -3.647501,0 -6.631251,-2.98375 -6.631251,-6.631251 l 0,-65.691251 c 0,-3.6475 2.98375,-6.63125 6.631251,-6.63125" style="fill:#000000;fill-opacity:1;fill-rule:evenodd;stroke:none" id="path3737" inkscape:connector-curvature="0"/><path d="m 7.7464978,4.017 106.9425022,0 c 1.81,0 3.29,1.48 3.29,3.29 l 0,65.795001 c 0,1.808751 -1.48,3.288751 -3.29,3.288751 l -106.9425022,0 c -1.810001,0 -3.290001,-1.48 -3.290001,-3.288751 l 0,-65.795001 c 0,-1.81 1.48,-3.29 3.290001,-3.29" style="fill:#cdff00;fill-opacity:1;fill-rule:evenodd;stroke:none" id="path3741" inkscape:connector-curvature="0"/><path d="m 17.926498,29.552001 2.8625,0 c 0,3.6875 -2.1625,5.87375 -5.2725,5.87375 -5.5812502,0 -5.9937502,-6.6975 -5.9937502,-11.105 0,-4.24375 0.7212502,-10.298751 5.9525002,-10.298751 3.04875,0 5.29375,2.1625 5.29375,5.396251 l -2.8425,0 c 0,-1.1125 -1.09125,-2.451251 -2.45125,-2.451251 -2.8425,0 -3.09,5.252501 -3.09,7.353751 0,2.30625 0,8.23875 3.1725,8.23875 1.31875,0 2.36875,-1.21625 2.36875,-3.0075" style="fill:#000000;fill-opacity:1;fill-rule:nonzero;stroke:none" id="path3745" inkscape:connector-curvature="0"/><path d="m 32.528999,25.000751 2.945,10.03125 -3.0475,0 -2.71875,-9.5575 -2.6775,0 0,9.5575 -2.822501,0 0,-20.597501 6.880001,0 c 2.5325,0 4.38625,3.027501 4.38625,5.581251 0,1.9775 -1.05,4.32625 -2.945,4.985 z m -1.915,-2.4925 c 1.2975,0 1.87375,-1.35875 1.87375,-2.595 0,-1.2775 -0.33,-2.53375 -1.8325,-2.53375 l -3.625,0 0,5.12875 3.58375,0" style="fill:#000000;fill-opacity:1;fill-rule:nonzero;stroke:none" id="path3749" inkscape:connector-curvature="0"/><path d="m 43.816499,35.425751 c -4.5725,0 -5.97375,-4.8025 -5.97375,-10.71375 0,-5.91125 1.36,-10.690001 6.015,-10.690001 4.675,0 5.89,4.778751 5.89,10.690001 0,6.57 -1.79125,10.71375 -5.93125,10.71375 z m 0,-2.97 c 2.3475,0 3.06875,-3.41875 3.06875,-7.74375 0,-4.34625 -0.65875,-7.827501 -3.06875,-7.827501 -2.41,0 -3.04875,3.481251 -3.04875,7.827501 0,4.325 0.53625,7.74375 3.04875,7.74375" style="fill:#000000;fill-opacity:1;fill-rule:nonzero;stroke:none" id="path3753" inkscape:connector-curvature="0"/><path d="m 52.117749,29.037001 2.90375,0 c 0.02125,2.36875 0.7625,3.50125 2.74,3.56375 1.6475,0 2.65625,-1.38 2.65625,-3.06875 0,-0.45375 -0.08125,-0.9475 -0.22625,-1.42125 -0.865,-2.80125 -2.945,-3.1725 -4.84,-4.5525 -1.38,-0.9675 -2.225,-2.71875 -2.225,-4.5725 0,-2.842501 2.59625,-4.963751 5.27375,-4.963751 2.8425,0 4.983751,2.245 4.983751,5.211251 l -2.842501,0 c 0,-1.01 -1.1325,-2.368751 -2.14125,-2.368751 -1.0925,0 -2.36875,0.926251 -2.36875,2.162501 0,0.88625 0.28875,1.85375 1.4,2.38875 2.96625,1.48375 5.891251,4.01625 5.891251,8.11625 0,3.665 -2.512501,5.89375 -5.561251,5.89375 -3.06875,0 -5.64375,-2.105 -5.64375,-6.38875" style="fill:#000000;fill-opacity:1;fill-rule:nonzero;stroke:none" id="path3757" inkscape:connector-curvature="0"/><path d="m 65.56775,29.037001 2.90375,0 c 0.02125,2.36875 0.7625,3.50125 2.74,3.56375 1.6475,0 2.6575,-1.38 2.6575,-3.06875 0,-0.45375 -0.0825,-0.9475 -0.2275,-1.42125 -0.865,-2.80125 -2.945,-3.1725 -4.84,-4.5525 -1.38,-0.9675 -2.225,-2.71875 -2.225,-4.5725 0,-2.842501 2.59625,-4.963751 5.27375,-4.963751 2.8425,0 4.98375,2.245 4.98375,5.211251 l -2.8425,0 c 0,-1.01 -1.1325,-2.368751 -2.14125,-2.368751 -1.0925,0 -2.36875,0.926251 -2.36875,2.162501 0,0.88625 0.28875,1.85375 1.4,2.38875 2.96625,1.48375 5.89125,4.01625 5.89125,8.11625 0,3.665 -2.5125,5.89375 -5.56125,5.89375 -3.06875,0 -5.64375,-2.105 -5.64375,-6.38875" style="fill:#000000;fill-opacity:1;fill-rule:nonzero;stroke:none" id="path3761" inkscape:connector-curvature="0"/><path d="m 79.98525,35.030751 2.8835,0 0,-20.597501 -2.8835,0 0,20.597501 z" style="fill:#000000;fill-opacity:1;fill-rule:nonzero;stroke:none" id="path3763" inkscape:connector-curvature="0"/><path d="m 87.152749,14.4345 2.82125,0 5.45875,11.905001 0,-11.905001 2.986251,0 0,20.597501 -2.327501,0 -6.1175,-13.5325 0,13.5325 -2.82125,0 0,-20.597501" style="fill:#000000;fill-opacity:1;fill-rule:nonzero;stroke:none" id="path3767" inkscape:connector-curvature="0"/><path d="m 109.99525,19.357001 c 0,-1.52375 -0.9675,-2.388751 -2.45125,-2.388751 -2.78,0 -2.90375,4.840001 -2.90375,7.332501 0,0.2675 0,0.515 0,0.72 0,0.165 0,0.33 0,0.53625 0,2.3475 0.1025,7.02375 2.90375,7.02375 1.15375,0 2.595,-1.07125 2.595,-2.26625 l 0,-2.3275 -2.47125,0 0,-2.96625 5.2525,0 0,4.07875 c 0,0.865 -0.18625,2.74 -0.55625,3.5225 -0.7,1.4825 -2.43,2.80375 -4.82,2.80375 -5.14875,0 -5.84875,-6.47 -5.84875,-10.405 0,-4.46875 0.555,-10.998751 5.84875,-10.998751 2.90375,0 5.4175,2.3275 5.4175,5.335001 l -2.96625,0" style="fill:#000000;fill-opacity:1;fill-rule:nonzero;stroke:none" id="path3771" inkscape:connector-curvature="0"/><path d="m 20.003998,45.294501 -6.96125,20.57625 3.43875,0 1.875,-5.8075 6.59125,0 1.997501,5.8075 3.33625,0 -7.043751,-20.57625 -3.23375,0 z m 3.7275,11.555 -4.20125,0 2.06,-6.1375 2.14125,6.1375" style="fill:#000000;fill-opacity:1;fill-rule:nonzero;stroke:none" id="path3775" inkscape:connector-curvature="0"/><path d="m 35.656499,45.294501 3.1725,0 0,8.156251 7.435,0 0,-8.156251 3.23375,0 0,20.5975 -3.23375,0 0,-9.02125 -7.435,0 0,9.02125 -3.1725,0 0,-20.5975" style="fill:#000000;fill-opacity:1;fill-rule:nonzero;stroke:none" id="path3779" inkscape:connector-curvature="0"/><path d="m 56.625249,45.294501 11.802501,0 0,3.29625 -8.610001,0 0,5.066251 6.013751,0 0,3.213749 -6.013751,0 0,5.8075 9.371251,0 0,3.21375 -12.563751,0 0,-20.5975" style="fill:#000000;fill-opacity:1;fill-rule:nonzero;stroke:none" id="path3783" inkscape:connector-curvature="0"/><path d="m 80.10525,45.294501 -6.96125,20.57625 3.43875,0 1.875,-5.8075 6.59125,0 1.997499,5.8075 3.33625,0 -7.043749,-20.57625 -3.23375,0 z m 3.7275,11.555 -4.20125,0 2.06,-6.1375 2.14125,6.1375" style="fill:#000000;fill-opacity:1;fill-rule:nonzero;stroke:none" id="path3787" inkscape:connector-curvature="0"/><path d="m 95.758999,45.294501 5.767501,0 c 5.0875,0 8.07375,4.44875 8.07375,10.69 0,4.49 -2.78125,9.9075 -8.07375,9.9075 l -5.767501,0 0,-20.5975 z m 3.275001,17.26 2.36875,0 c 3.85125,0 5.005,-4.44875 5.005,-6.57 0,-2.903749 -0.9675,-7.47625 -5.005,-7.47625 l -2.36875,0 0,14.04625" style="fill:#000000;fill-opacity:1;fill-rule:nonzero;stroke:none" id="path3791" inkscape:connector-curvature="0"/></svg>