<?xml version="1.0" encoding="UTF-8" standalone="no"?>
<!DOCTYPE svg PUBLIC "-//W3C//DTD SVG 1.1//EN" "http://www.w3.org/Graphics/SVG/1.1/DTD/svg11.dtd">
<!-- GeoHints -->
<svg width="100%" height="100%" viewBox="0 0 601 601" version="1.1" xmlns="http://www.w3.org/2000/svg" xmlns:xlink="http://www.w3.org/1999/xlink" xml:space="preserve" xmlns:serif="http://www.serif.com/" style="fill-rule:evenodd;clip-rule:evenodd;stroke-linejoin:round;stroke-miterlimit:2;">
    <circle cx="300.4" cy="300.4" r="300" style="fill:rgb(254,224,17);"/>
    <circle cx="300.4" cy="300.4" r="288"/>
    <circle cx="300.4" cy="300.4" r="276" style="fill:rgb(254,224,17);"/>
    <g transform="matrix(0.906783,0,0,0.906783,35.2897,62.1454)">
        <path d="M201.172,124.4L249.259,124.4L280.14,184.622L187.961,383.883L102.08,343.478"/>
        <path d="M114.523,417.375L118.824,409.386C129.735,414.457 133.419,417.223 141.409,427.517C148.629,436.889 164.455,443.802 175.977,447.486C205.936,457.014 209.313,432.432 199.944,427.21C181.662,417.068 163.993,397.405 162.765,380.658C137.414,380.658 117.752,367.601 106.84,354.386C90.096,360.226 86.871,372.976 86.102,391.107L81.8,402.014"/>
        <path d="M453.99,437.447L450.771,428.964C461.742,424.037 466.245,423.063 479.256,423.762C491.067,424.443 506.653,417.008 516.982,410.713C543.798,394.307 527.431,375.657 517.346,379.32C497.715,386.501 471.284,386.981 457.822,376.946C441.226,396.103 418.483,402.42 401.354,402.014C394.805,418.494 402.328,429.278 415.529,441.727L420.957,452.12"/>
        <path d="M268.156,124.4L369.401,124.4L479.401,353.003L393.52,394.332"/>
    </g>
    <g transform="matrix(1.10271,-1.17515,1.17515,1.10271,150.013,208.399)">
        <g transform="matrix(69.877,0,0,69.877,0,0)">
            <path d="M0.04,-0.334C0.04,-0.464 0.059,-0.554 0.099,-0.605C0.138,-0.656 0.185,-0.681 0.24,-0.681C0.288,-0.681 0.328,-0.665 0.361,-0.633C0.394,-0.602 0.411,-0.561 0.414,-0.512L0.317,-0.512C0.316,-0.535 0.309,-0.553 0.294,-0.567C0.279,-0.58 0.26,-0.587 0.237,-0.587C0.21,-0.587 0.187,-0.571 0.167,-0.539C0.147,-0.506 0.137,-0.438 0.137,-0.334C0.137,-0.225 0.147,-0.156 0.168,-0.125C0.188,-0.094 0.211,-0.08 0.237,-0.081C0.26,-0.081 0.279,-0.088 0.294,-0.102C0.309,-0.115 0.316,-0.133 0.317,-0.156L0.414,-0.156C0.411,-0.107 0.394,-0.066 0.361,-0.035C0.328,-0.003 0.288,0.013 0.24,0.013C0.185,0.013 0.138,-0.012 0.099,-0.063C0.059,-0.114 0.04,-0.204 0.04,-0.334Z" style="fill-rule:nonzero;"/>
        </g>
    </g>
    <g transform="matrix(1.30842,-0.940725,0.940725,1.30842,188.276,168.75)">
        <g transform="matrix(69.877,0,0,69.877,0,0)">
            <path d="M0.426,-0L0.327,-0L0.238,-0.315L0.146,-0.315L0.146,-0L0.05,-0L0.05,-0.67L0.25,-0.67C0.303,-0.67 0.345,-0.654 0.378,-0.621C0.41,-0.588 0.426,-0.545 0.426,-0.491C0.426,-0.456 0.417,-0.423 0.4,-0.392C0.382,-0.361 0.358,-0.34 0.329,-0.329L0.426,-0ZM0.332,-0.494C0.332,-0.519 0.324,-0.539 0.308,-0.554C0.292,-0.569 0.271,-0.576 0.245,-0.576L0.146,-0.576L0.146,-0.411L0.245,-0.411C0.269,-0.411 0.29,-0.419 0.307,-0.435C0.324,-0.451 0.332,-0.471 0.332,-0.494Z" style="fill-rule:nonzero;"/>
        </g>
    </g>
    <g transform="matrix(1.54815,-0.447381,0.447381,1.54815,229.138,137.957)">
        <g transform="matrix(69.877,0,0,69.877,0,0)">
            <path d="M0.232,0.012C0.163,0.012 0.113,-0.017 0.081,-0.075C0.049,-0.132 0.033,-0.219 0.033,-0.335C0.033,-0.45 0.049,-0.536 0.081,-0.594C0.113,-0.652 0.163,-0.681 0.232,-0.681C0.301,-0.681 0.351,-0.652 0.383,-0.594C0.415,-0.536 0.431,-0.45 0.431,-0.335C0.431,-0.219 0.415,-0.132 0.383,-0.075C0.351,-0.017 0.301,0.012 0.232,0.012ZM0.232,-0.082C0.269,-0.081 0.295,-0.102 0.311,-0.143C0.327,-0.184 0.335,-0.249 0.335,-0.337C0.335,-0.424 0.327,-0.487 0.311,-0.527C0.295,-0.567 0.269,-0.587 0.232,-0.587C0.195,-0.587 0.169,-0.567 0.153,-0.527C0.137,-0.487 0.129,-0.424 0.129,-0.337C0.129,-0.249 0.137,-0.184 0.153,-0.143C0.169,-0.102 0.195,-0.081 0.232,-0.082Z" style="fill-rule:nonzero;"/>
        </g>
    </g>
    <g transform="matrix(1.6115,0,0,1.6115,274.837,124.352)">
        <g transform="matrix(69.877,0,0,69.877,0,0)">
            <path d="M0.413,-0.188C0.413,-0.135 0.397,-0.089 0.364,-0.049C0.331,-0.008 0.286,0.012 0.229,0.012C0.176,0.012 0.132,-0.009 0.096,-0.05C0.059,-0.091 0.041,-0.14 0.041,-0.197L0.133,-0.197C0.133,-0.162 0.142,-0.134 0.16,-0.113C0.177,-0.092 0.2,-0.082 0.227,-0.082C0.252,-0.082 0.274,-0.092 0.293,-0.113C0.312,-0.133 0.321,-0.157 0.32,-0.184C0.319,-0.206 0.311,-0.229 0.296,-0.254C0.28,-0.278 0.251,-0.303 0.209,-0.33C0.161,-0.361 0.126,-0.391 0.104,-0.422C0.082,-0.452 0.071,-0.48 0.071,-0.507C0.07,-0.555 0.086,-0.596 0.117,-0.629C0.148,-0.663 0.188,-0.68 0.237,-0.681C0.288,-0.681 0.331,-0.664 0.364,-0.63C0.397,-0.597 0.413,-0.556 0.413,-0.508L0.315,-0.508C0.316,-0.534 0.308,-0.554 0.291,-0.569C0.274,-0.584 0.256,-0.59 0.237,-0.589C0.215,-0.588 0.198,-0.58 0.186,-0.565C0.174,-0.55 0.168,-0.531 0.169,-0.51C0.17,-0.496 0.176,-0.482 0.187,-0.469C0.198,-0.456 0.223,-0.436 0.261,-0.409C0.314,-0.373 0.353,-0.338 0.377,-0.303C0.4,-0.268 0.412,-0.23 0.413,-0.188Z" style="fill-rule:nonzero;"/>
        </g>
    </g>
    <g transform="matrix(1.53399,0.493763,-0.493763,1.53399,323.274,120.974)">
        <g transform="matrix(69.877,0,0,69.877,0,0)">
            <path d="M0.413,-0.188C0.413,-0.135 0.397,-0.089 0.364,-0.049C0.331,-0.008 0.286,0.012 0.229,0.012C0.176,0.012 0.132,-0.009 0.096,-0.05C0.059,-0.091 0.041,-0.14 0.041,-0.197L0.133,-0.197C0.133,-0.162 0.142,-0.134 0.16,-0.113C0.177,-0.092 0.2,-0.082 0.227,-0.082C0.252,-0.082 0.274,-0.092 0.293,-0.113C0.312,-0.133 0.321,-0.157 0.32,-0.184C0.319,-0.206 0.311,-0.229 0.296,-0.254C0.28,-0.278 0.251,-0.303 0.209,-0.33C0.161,-0.361 0.126,-0.391 0.104,-0.422C0.082,-0.452 0.071,-0.48 0.071,-0.507C0.07,-0.555 0.086,-0.596 0.117,-0.629C0.148,-0.663 0.188,-0.68 0.237,-0.681C0.288,-0.681 0.331,-0.664 0.364,-0.63C0.397,-0.597 0.413,-0.556 0.413,-0.508L0.315,-0.508C0.316,-0.534 0.308,-0.554 0.291,-0.569C0.274,-0.584 0.256,-0.59 0.237,-0.589C0.215,-0.588 0.198,-0.58 0.186,-0.565C0.174,-0.55 0.168,-0.531 0.169,-0.51C0.17,-0.496 0.176,-0.482 0.187,-0.469C0.198,-0.456 0.223,-0.436 0.261,-0.409C0.314,-0.373 0.353,-0.338 0.377,-0.303C0.4,-0.268 0.412,-0.23 0.413,-0.188Z" style="fill-rule:nonzero;"/>
        </g>
    </g>
    <g transform="matrix(1.4334,0.736409,-0.736409,1.4334,367.751,135)">
        <g transform="matrix(69.877,0,0,69.877,0,0)">
            <rect x="0.075" y="-0.67" width="0.094" height="0.67" style="fill-rule:nonzero;"/>
        </g>
    </g>
    <g transform="matrix(1.22516,1.04686,-1.04686,1.22516,395.976,148.591)">
        <g transform="matrix(69.877,0,0,69.877,0,0)">
            <path d="M0.42,-0L0.327,-0L0.14,-0.426L0.14,-0L0.044,-0L0.044,-0.67L0.14,-0.67L0.323,-0.25L0.323,-0.67L0.42,-0.67L0.42,-0Z" style="fill-rule:nonzero;"/>
        </g>
    </g>
    <g transform="matrix(0.639128,1.47934,-1.47934,0.639128,432.802,175.002)">
        <g transform="matrix(69.877,0,0,69.877,0,0)">
            <path d="M0.415,-0.237C0.415,-0.16 0.401,-0.099 0.373,-0.055C0.344,-0.01 0.303,0.012 0.248,0.012C0.179,0.012 0.128,-0.015 0.093,-0.068C0.058,-0.121 0.041,-0.209 0.041,-0.334C0.042,-0.463 0.062,-0.554 0.101,-0.605C0.139,-0.656 0.186,-0.681 0.241,-0.681C0.289,-0.681 0.329,-0.665 0.362,-0.633C0.395,-0.602 0.412,-0.561 0.415,-0.512L0.318,-0.512C0.317,-0.535 0.31,-0.553 0.295,-0.567C0.28,-0.58 0.261,-0.587 0.238,-0.587C0.211,-0.588 0.189,-0.575 0.17,-0.55C0.151,-0.524 0.141,-0.452 0.138,-0.334C0.139,-0.222 0.149,-0.152 0.17,-0.123C0.191,-0.094 0.215,-0.08 0.244,-0.082C0.269,-0.081 0.289,-0.092 0.302,-0.117C0.315,-0.141 0.32,-0.179 0.318,-0.23L0.243,-0.23L0.243,-0.324L0.415,-0.324L0.415,-0.237Z" style="fill-rule:nonzero;"/>
        </g>
    </g>
</svg>
