<?xml version="1.0" encoding="UTF-8" standalone="no"?>
<!DOCTYPE svg PUBLIC "-//W3C//DTD SVG 1.1//EN" "http://www.w3.org/Graphics/SVG/1.1/DTD/svg11.dtd">
<!-- GeoHints -->
<svg width="100%" height="100%" viewBox="0 0 960 960" version="1.1" xmlns="http://www.w3.org/2000/svg" xmlns:xlink="http://www.w3.org/1999/xlink" xml:space="preserve" xmlns:serif="http://www.serif.com/" style="fill-rule:evenodd;clip-rule:evenodd;stroke-linejoin:round;stroke-miterlimit:2;">
    <g id="layer1" transform="matrix(1,0,0,1,738.155,886.534)">
        <path id="path2579" d="M-701.52,73.466C-721.746,73.466 -738.155,57.059 -738.155,36.831L-738.155,-849.913C-738.155,-870.142 -721.746,-886.534 -701.52,-886.534L185.21,-886.534C205.436,-886.534 221.845,-870.142 221.845,-849.913L221.845,36.831C221.845,57.059 205.436,73.466 185.21,73.466L-701.52,73.466Z" style="fill:rgb(23,111,193);fill-rule:nonzero;"/>
        <path id="path143" d="M-701.032,-36.337L184.751,-36.381L-258.155,-803.422L-701.032,-36.337" style="fill:white;fill-rule:nonzero;"/>
        <g transform="matrix(0.96051,0,0,0.96051,3.02971,-29.2378)">
            <g transform="matrix(1.15005,0,0,1,-27.4245,1.13687e-13)">
                <g transform="matrix(1.36846,0,0,1,75.7518,0)">
                    <rect x="-27.617" y="-72.043" width="33.291" height="15.374"/>
                </g>
                <g transform="matrix(1.36846,0,0,1,75.7518,0)">
                    <rect x="-94.2" y="-72.043" width="33.291" height="15.374"/>
                </g>
                <g transform="matrix(1.36846,0,0,1,75.7518,0)">
                    <rect x="-160.782" y="-72.043" width="33.291" height="15.374"/>
                </g>
                <g transform="matrix(1.36846,0,0,1,75.7518,0)">
                    <rect x="-227.365" y="-72.043" width="33.291" height="15.374"/>
                </g>
                <g transform="matrix(1.36846,0,0,1,75.7518,0)">
                    <rect x="-293.932" y="-72.043" width="33.291" height="15.374"/>
                </g>
                <g transform="matrix(1.36846,0,0,1,75.7518,0)">
                    <rect x="-360.515" y="-72.043" width="33.291" height="15.374"/>
                </g>
                <g transform="matrix(1.36846,0,0,1,75.7518,0)">
                    <rect x="-427.097" y="-72.043" width="33.291" height="15.374"/>
                </g>
            </g>
            <g transform="matrix(1.22083,0,0,1,89.1056,14.5756)">
                <g transform="matrix(1.36846,0,0,1,75.7518,0)">
                    <rect x="-124.28" y="-219.927" width="30.879" height="12.659"/>
                </g>
                <g transform="matrix(1.36846,0,0,1,75.7518,0)">
                    <rect x="-186.039" y="-219.927" width="30.879" height="12.659"/>
                </g>
                <g transform="matrix(1.36846,0,0,1,75.7518,0)">
                    <rect x="-247.783" y="-219.927" width="30.879" height="12.659"/>
                </g>
                <g transform="matrix(1.36846,0,0,1,75.7518,0)">
                    <rect x="-309.527" y="-219.927" width="30.879" height="12.659"/>
                </g>
                <g transform="matrix(1.36846,0,0,1,75.7518,0)">
                    <rect x="-371.286" y="-219.927" width="30.879" height="12.659"/>
                </g>
                <g transform="matrix(1.36846,0,0,1,75.7518,0)">
                    <rect x="-433.03" y="-219.927" width="30.879" height="12.659"/>
                </g>
            </g>
            <g id="path145" transform="matrix(0.908611,0,0,0.908611,-46.3974,6.25492)">
                <path d="M-113.745,-217.227C-149.922,-265.164 -165.295,-314.001 -165.295,-314.001C-168.713,-334.51 -175.756,-355.019 -178.981,-363.812C-174.365,-363.768 -178.734,-374.548 -178.734,-374.548C-178.734,-374.548 -274.022,-395.403 -291.938,-390.97C-293.952,-390.471 -295.496,-386.753 -295.306,-385.611C-293.826,-376.817 -292.186,-373.093 -291.713,-369.758C-300.531,-355.653 -321.246,-320.464 -337.018,-277.499C-357.6,-221.417 -385.469,-158.785 -391.802,-143.411C-391.802,-143.411 -389.789,-142.23 -386.505,-140.371C-390.233,-138.674 -395.93,-137.155 -404.452,-137.037C-424.353,-136.756 -440.643,-136.505 -440.643,-136.505C-440.643,-136.505 -445.171,-136.181 -446.518,-132.551C-447.879,-128.936 -445.171,-125.823 -445.171,-125.823L-409.72,-106.288L-387.274,-105.418L-387.274,-96.373L-361.262,-90.855C-361.262,-90.855 -357.933,-89.645 -357.031,-94.175C-356.38,-97.406 -351.793,-113.016 -349.218,-121.707C-343.744,-119.479 -338.698,-117.797 -334.807,-117.177C-334.807,-117.177 -316.94,-167.725 -311.022,-184.722C-305.118,-201.72 -287.496,-246.942 -279.965,-262.788C-272.419,-278.635 -248.523,-310.475 -242.19,-319.519C-242.102,-319.667 -242.013,-319.814 -241.939,-319.962C-221.254,-297.653 -219.005,-282.338 -207.405,-258.834C-195.42,-234.593 -190.789,-229.576 -169.971,-199.728C-149.167,-169.879 -130.924,-140.341 -130.924,-140.341C-129.163,-141.153 -127.461,-141.964 -125.789,-142.79C-128.941,-132.374 -136.014,-110.847 -142.124,-106.096C-150.277,-99.751 -154.42,-97.848 -154.435,-95.237C-154.435,-92.625 -153.088,-91.474 -149.922,-91.755C-146.756,-92.035 -114.189,-91.046 -114.189,-91.046C-114.189,-91.046 -100.621,-104.606 -97.914,-115.922C-97.914,-115.922 -92.987,-119.98 -90.723,-118.622C-88.474,-117.265 -89.14,-118.593 -89.14,-118.593L-83.428,-125.409C-83.428,-125.409 -83.014,-134.233 -86.18,-138.748C-86.18,-138.748 -88.548,-151.687 -96.301,-161.145C-86.565,-168.714 -81.86,-174.306 -81.86,-174.306C-81.86,-174.306 -77.554,-169.289 -113.745,-217.227" style="fill-rule:nonzero;"/>
                <g transform="matrix(0.991942,0.126692,-0.126692,0.991942,-52.9249,17.9006)">
                    <path d="M-178.981,-363.812C-174.365,-363.768 -171.628,-363.753 -171.628,-363.753C-171.628,-363.753 -174.631,-378.227 -186.394,-411.691C-191.54,-426.337 -198.148,-439.095 -200.774,-450.052C-204.15,-464.14 -202.615,-475.038 -200.584,-480.889C-196.959,-491.291 -198.453,-513.467 -198.453,-513.467C-177.191,-512.567 -163.046,-486.319 -163.046,-486.319C-163.949,-479.989 -162.395,-433.409 -163.046,-428.88C-163.682,-424.35 -158.518,-423.45 -158.518,-423.45C-158.518,-423.45 -157.142,-423.347 -154.982,-423.199C-154.568,-417.445 -154.109,-407.072 -155.352,-399.031C-157.157,-387.272 -159.421,-380.042 -151.727,-382.757C-149.715,-383.465 -148.472,-383.952 -147.747,-384.306C-147.954,-382.757 -148.62,-378.921 -150.381,-375.07C-152.63,-370.083 -153.088,-367.117 -149.478,-365.111C-145.853,-363.119 -132.536,-367.604 -128.66,-386.372C-124.783,-405.125 -124.709,-410.289 -127.876,-415.261C-129.992,-418.581 -132.241,-420.115 -132.699,-421.709C-129.858,-421.547 -127.506,-421.458 -126.189,-421.458C-120.315,-421.458 -123.526,-427.861 -124.428,-437.363C-125.331,-446.865 -125.494,-495.363 -125.494,-495.363C-125.494,-495.363 -121.425,-495.363 -134.993,-513.452C-148.561,-531.541 -194.251,-572.249 -213.249,-583.551C-219.922,-587.534 -225.042,-582.665 -229.984,-586.295C-238.58,-592.595 -248.479,-592.639 -248.479,-592.639L-251.038,-596.122C-251.038,-597.022 -250.121,-597.022 -249.218,-597.022C-250.121,-602.451 -253.746,-607.881 -252.843,-613.311C-251.941,-618.74 -249.218,-624.17 -249.218,-630.499C-249.218,-632.3 -246.511,-630.499 -245.608,-631.399C-243.788,-635.914 -242.886,-643.159 -246.511,-646.774C-248.316,-647.688 -252.015,-643.852 -253.347,-645.372C-257.563,-650.197 -255.551,-663.963 -263.689,-664.863C-279.077,-665.777 -308.536,-666.928 -310.741,-665.777C-312.945,-664.612 -311.643,-633.214 -326.114,-624.17C-327.016,-623.255 -329.739,-621.455 -327.919,-620.54C-324.309,-618.74 -318.878,-620.54 -316.171,-617.825C-315.253,-616.025 -317.976,-613.311 -314.351,-611.496C-313.448,-610.596 -315.253,-607.881 -316.171,-606.981C-317.073,-603.351 -317.976,-597.936 -315.253,-595.222C-313.448,-592.507 -307.116,-596.122 -305.31,-592.507C-303.505,-588.892 -302.588,-584.362 -300.783,-580.747C-299.88,-578.933 -295.353,-578.933 -291.742,-578.033C-289.937,-577.133 -290.84,-575.318 -290.84,-574.418C-292.645,-571.703 -296.255,-574.418 -297.173,-573.503C-297.173,-573.518 -317.858,-558.07 -331.426,-528.664C-344.994,-499.273 -351.785,-485.271 -357.659,-479.384C-363.548,-473.512 -400.287,-447.839 -400.287,-447.839C-400.287,-447.839 -408.617,-439.739 -405.998,-432.73C-417.036,-428.983 -441.997,-418.935 -436.685,-405.818C-429.894,-389.087 -418.101,-392.038 -409.993,-397.231C-403.556,-401.348 -396.484,-414.361 -393.865,-419.51C-390.551,-417.622 -386.807,-416.589 -382.857,-417.12C-372.914,-418.478 -334.459,-455.57 -334.459,-455.57C-334.459,-455.57 -320.447,-468.687 -306.879,-475.917C-306.879,-475.917 -297.584,-457.026 -294.136,-432.276C-292.156,-418.066 -295.609,-394.507 -294.924,-390.385C-293.444,-381.591 -292.186,-373.093 -291.713,-369.758" style="fill-rule:nonzero;"/>
                </g>
            </g>
        </g>
    </g>
</svg>
