<?xml version="1.0" encoding="UTF-8" standalone="no"?>
<!DOCTYPE svg PUBLIC "-//W3C//DTD SVG 1.1//EN" "http://www.w3.org/Graphics/SVG/1.1/DTD/svg11.dtd">
<svg width="100%" height="100%" viewBox="0 0 751 751" version="1.1" xmlns="http://www.w3.org/2000/svg" xmlns:xlink="http://www.w3.org/1999/xlink" xml:space="preserve" xmlns:serif="http://www.serif.com/" style="fill-rule:evenodd;clip-rule:evenodd;stroke-linejoin:round;stroke-miterlimit:2;">
    <path d="M375.2,750.2C582.307,750.2 750.2,582.307 750.2,375.2C750.2,168.093 582.307,0.2 375.2,0.2C168.093,0.2 0.2,168.093 0.2,375.2C0.2,582.307 168.093,750.2 375.2,750.2Z" style="fill:rgb(233,110,19);"/>
    <path d="M375.2,663.2C534.258,663.2 663.2,534.258 663.2,375.2C663.2,216.142 534.258,87.2 375.2,87.2C216.142,87.2 87.2,216.142 87.2,375.2C87.2,534.258 216.142,663.2 375.2,663.2Z"/>
    <path d="M382.324,99.29L375.2,99.2C222.769,99.2 99.2,222.77 99.2,375.2C99.2,527.631 222.769,651.2 375.2,651.2L382.324,651.11C531.456,647.338 651.2,525.253 651.2,375.2C651.2,225.147 531.456,103.062 382.324,99.29Z" style="fill:rgb(205,255,0);"/>
    <path d="M354.878,259.563L262.925,458.714L177.065,418.325L276.132,199.357L324.14,199.357L354.878,259.563Z"/>
    <path d="M183.795,431.717L181.644,429.246C164.879,435.09 161.826,447.787 161.066,466.078L156.749,477.005L189.263,492.243L193.58,484.368L197.364,486.102C205.518,490.013 209.298,493.29 216.188,502.404C223.558,511.805 239.307,518.658 250.733,522.215C255.419,523.724 259.459,524.396 262.902,524.435L264.898,524.385C281.59,523.319 282.506,506.279 274.868,502.149C256.577,491.988 238.797,472.177 237.526,455.412C213.948,455.412 195.062,444.023 183.795,431.717Z"/>
    <path d="M535.37,453.591L532.699,451.855C515.928,470.906 493.326,477.254 476.05,476.999C469.702,493.258 477.066,504.18 490.273,516.627L495.862,527.043L528.886,512.309L525.584,503.924C533.775,500.116 538.395,498.593 545.66,498.39L549.541,498.394C550.928,498.429 552.416,498.496 554.036,498.591C554.782,498.639 555.542,498.655 556.314,498.642L558.662,498.515C569.767,497.531 582.768,491.194 591.883,485.639C615.219,471.188 605.692,455.187 596.138,453.796L594.103,453.727C593.432,453.783 592.773,453.919 592.138,454.141C583.58,457.251 573.71,459.098 564.187,459.363L560.131,459.378C550.742,459.184 541.935,457.362 535.37,453.591Z"/>
    <path d="M444.297,199.357L554.285,427.976L468.431,469.124L342.943,199.357L444.297,199.357Z"/>
</svg>
