<?xml version="1.0" encoding="UTF-8" standalone="no"?>
<!DOCTYPE svg PUBLIC "-//W3C//DTD SVG 1.1//EN" "http://www.w3.org/Graphics/SVG/1.1/DTD/svg11.dtd">
<!-- GeoHints -->
<svg width="100%" height="100%" viewBox="0 0 2896 2896" version="1.1" xmlns="http://www.w3.org/2000/svg" xmlns:xlink="http://www.w3.org/1999/xlink" xml:space="preserve" xmlns:serif="http://www.serif.com/" style="fill-rule:evenodd;clip-rule:evenodd;stroke-linejoin:round;stroke-miterlimit:2;">
    <g transform="matrix(1,0,0,1,0,2053.22)">
        <g transform="matrix(0.707107,-0.707107,0.707107,0.707107,0,0)">
            <path d="M2514.84,-325.954C2514.84,-404.178 2451.33,-467.686 2373.1,-467.686L530.585,-467.686C452.36,-467.686 388.852,-404.178 388.852,-325.954L388.852,1516.57C388.852,1594.79 452.36,1658.3 530.585,1658.3L2373.1,1658.3C2451.33,1658.3 2514.84,1594.79 2514.84,1516.57L2514.84,-325.954Z" style="fill:rgb(255,225,18);"/>
        </g>
        <g transform="matrix(0.707107,-0.707107,0.707107,0.707107,0,0)">
            <path d="M2486.49,-325.954C2486.49,-388.533 2435.68,-439.34 2373.1,-439.34L530.585,-439.34C468.005,-439.34 417.199,-388.533 417.199,-325.954L417.199,1516.57C417.199,1579.14 468.005,1629.95 530.585,1629.95L2373.1,1629.95C2435.68,1629.95 2486.49,1579.14 2486.49,1516.57L2486.49,-325.954Z"/>
        </g>
        <g transform="matrix(0.707107,-0.707107,0.707107,0.707107,0,0)">
            <path d="M2429.8,-325.954C2429.8,-357.244 2404.39,-382.647 2373.1,-382.647L530.585,-382.647C499.295,-382.647 473.892,-357.244 473.892,-325.954L473.892,1516.57C473.892,1547.86 499.295,1573.26 530.585,1573.26L2373.1,1573.26C2404.39,1573.26 2429.8,1547.86 2429.8,1516.57L2429.8,-325.954Z" style="fill:rgb(255,225,18);"/>
        </g>
        <g transform="matrix(2.58585,0,0,2.58585,457.697,-1382.45)">
            <circle cx="300.4" cy="300.4" r="288"/>
            <circle cx="300.4" cy="300.4" r="276" style="fill:rgb(254,224,17);"/>
            <path d="M201.172,124.4L249.259,124.4L280.14,184.622L187.961,383.883L102.08,343.478"/>
            <path d="M114.523,417.375L118.824,409.386C129.735,414.457 133.419,417.223 141.409,427.517C148.629,436.889 164.455,443.802 175.977,447.486C205.936,457.014 209.313,432.432 199.944,427.21C181.662,417.068 163.993,397.405 162.765,380.658C137.414,380.658 117.752,367.601 106.84,354.386C90.096,360.226 86.871,372.976 86.102,391.107L81.8,402.014"/>
            <path d="M453.99,437.447L450.771,428.964C461.742,424.037 466.245,423.063 479.256,423.762C491.067,424.443 506.653,417.008 516.982,410.713C543.798,394.307 527.431,375.657 517.346,379.32C497.715,386.501 471.284,386.981 457.822,376.946C441.226,396.103 418.483,402.42 401.354,402.014C394.805,418.494 402.328,429.278 415.529,441.727L420.957,452.12"/>
            <path d="M268.156,124.4L369.401,124.4L479.401,353.003L393.52,394.332"/>
        </g>
        <g transform="matrix(-0.545155,-0.545155,0.545155,-0.545155,2714.61,556.8)">
            <path d="M1417.13,363.081C1421.25,358.848 1427.01,356.216 1433.38,356.216C1445.9,356.216 1456.06,366.378 1456.06,378.894C1456.06,380.904 1455.8,382.853 1455.31,384.708L1405.03,595.744L1698.83,595.743L1698.83,825.349L1405.03,825.35L1455.31,1036.4C1455.8,1038.26 1456.06,1040.2 1456.06,1042.2C1456.06,1054.72 1445.9,1064.88 1433.38,1064.88C1427.01,1064.88 1421.25,1062.25 1417.13,1058.01L1417.13,1058.01L1079.05,710.547L1417.13,363.077L1417.13,363.081Z" style="fill-rule:nonzero;"/>
        </g>
    </g>
</svg>
