<?xml version="1.0" encoding="UTF-8" standalone="no"?>
<!-- Generator: Adobe Illustrator 12.0.1, SVG Export Plug-In  -->
<svg xmlns:dc="http://purl.org/dc/elements/1.1/" xmlns:cc="http://creativecommons.org/ns#" xmlns:rdf="http://www.w3.org/1999/02/22-rdf-syntax-ns#" xmlns:svg="http://www.w3.org/2000/svg" xmlns="http://www.w3.org/2000/svg" xmlns:sodipodi="http://sodipodi.sourceforge.net/DTD/sodipodi-0.dtd" xmlns:inkscape="http://www.inkscape.org/namespaces/inkscape" version="1.1" width="123.01313" height="123.01312" viewBox="-1 0 123.01311 123.01311" enable-background="new -1 0 292 291" xml:space="preserve" id="svg2" inkscape:version="0.48.2 r9819" sodipodi:docname="AJAX1.svg"><metadata id="metadata24"><rdf:RDF><cc:Work rdf:about=""><dc:format>image/svg+xml</dc:format><dc:type rdf:resource="http://purl.org/dc/dcmitype/StillImage"/><dc:title/></cc:Work></rdf:RDF></metadata><sodipodi:namedview pagecolor="#ffffff" bordercolor="#666666" borderopacity="1" objecttolerance="10" gridtolerance="10" guidetolerance="10" inkscape:pageopacity="0" inkscape:pageshadow="2" inkscape:window-width="1280" inkscape:window-height="1004" id="namedview22" showgrid="false" fit-margin-top="0" fit-margin-left="0" fit-margin-right="0" fit-margin-bottom="0" inkscape:zoom="4.5876893" inkscape:cx="52.66398" inkscape:cy="71.790134" inkscape:window-x="-8" inkscape:window-y="-8" inkscape:window-maximized="1" inkscape:current-layer="svg2"/>
<defs id="defs4">
</defs>





<polygon points="168.102,127.982 200.801,160.661 200.801,206.885 168.102,239.552 121.914,239.552 89.25,206.885 89.25,160.661 121.914,127.982 " id="polygon16" style="fill:none;stroke:none" transform="matrix(1.1719259,0,0,1.1719259,637.75749,850.51477)"/>


<path inkscape:connector-curvature="0" d="M 0.75405866,65.759058 56.254055,121.25905 c 2.338749,2.33875 6.166249,2.33875 8.504999,0 L 120.25905,65.759058 c 2.33875,-2.338749 2.33875,-6.166249 0,-8.504999 L 64.759054,1.7540625 c -2.33875,-2.33875 -6.16625,-2.33875 -8.504999,0 L 0.75405866,57.254059 c -2.33874996,2.33875 -2.33874996,6.16625 0,8.504999 z" style="fill:#fee011;fill-opacity:1;fill-rule:evenodd;stroke:none" id="path3290"/><path inkscape:connector-curvature="0" d="m 57.075304,120.34905 c 1.99375,1.61 4.395,2.01875 6.465,0.3575 l 0.40875,-0.3325 55.422496,-55.447492 c 1.91625,-2.274999 1.91625,-4.624999 0,-6.899999 L 63.949054,2.5790625 c -1.84,-1.4825 -3.96125,-1.9425 -6.08125,-0.61375 l -0.38375,0.30625 -0.40875,0.3325 L 1.6528087,58.052809 c -1.91625004,2.27375 -1.91625004,4.57375 0,6.847499 L 57.075304,120.34905" style="fill:#000000;fill-opacity:1;fill-rule:evenodd;stroke:none" id="path3294"/><path inkscape:connector-curvature="0" d="m 61.155304,119.38655 c 0.435,-0.1275 0.61375,-0.255 0.99625,-0.53625 L 117.57405,63.426559 c 1.07375,-1.32875 1.07375,-2.35 0,-3.67875 L 62.151554,4.3253115 c -1.0725,-0.818749 -2.1975,-0.7675 -3.245,0.025 L 3.4840587,59.772809 c -1.07375,1.32875 -1.07375,2.3 0,3.62875 L 58.906554,118.82405 c 0.76625,0.58875 1.32875,0.665 2.24875,0.5625" style="fill:#fee011;fill-opacity:1;fill-rule:evenodd;stroke:none" id="path3298"/><path inkscape:connector-curvature="0" d="m 76.086553,86.521557 -0.27,-0.8075 c 1.04,-0.4625 1.425,-0.54 2.695,-0.4625 1.115,0.0775 2.5775,-0.65375 3.57875,-1.23125 2.54,-1.5775 1,-3.31 0.03875,-3.0025 -1.88625,0.69375 -4.3875,0.73125 -5.6575,-0.19125 -1.5775,1.80875 -3.7325,2.385 -5.349999,2.385 -0.615,1.54 0.11625,2.54 1.347499,3.73375 l 0.5,0.96125 3.1175,-1.385 z m -32.133748,-1.88625 0.4225,-0.76875 c 1.04,0.5 1.38625,0.73125 2.155,1.73125 0.655,0.885 2.19375,1.54 3.27125,1.88625 2.81,0.92375 3.15625,-1.42375 2.2325,-1.925 -1.73125,-0.96125 -3.38625,-2.80875 -3.5025,-4.425 -2.385,0 -4.2325,-1.19375 -5.27125,-2.463749 -1.617499,0.538749 -1.924999,1.771249 -2.001249,3.463749 l -0.385,1.0775 3.078749,1.42375 z m 14.584999,-27.746248 9.54375,0 10.429999,21.666249 -8.121249,3.887499 -11.8525,-25.553748 z m -6.349999,0 4.54125,0 2.924999,5.73375 -8.736249,18.857498 -8.12,-3.848749 9.39,-20.742499 z m 9.389999,41.832497 c 13.892499,0 25.207498,-11.276249 25.207498,-25.168748 0,-13.854999 -11.314999,-25.168748 -25.207498,-25.168748 -13.853749,0 -25.168748,11.313749 -25.168748,25.168748 0,13.892499 11.314999,25.168748 25.168748,25.168748 z m 0,2.116244 c 15.047499,0 27.284998,-12.237493 27.284998,-27.284992 0,-15.047499 -12.237499,-27.284998 -27.284998,-27.284998 -15.047499,0 -27.284998,12.237499 -27.284998,27.284998 0,15.047499 12.237499,27.284992 27.284998,27.284992" style="fill:#000000;fill-opacity:1;fill-rule:evenodd;stroke:none" id="path3302"/><path inkscape:connector-curvature="0" d="m 60.539054,42.65031 4.92625,0 0,-13.314999 8.966249,1.92375 c 0.11625,0 0.23125,0.03875 0.385,0.03875 0.5,0 0.885,-0.385 0.885,-0.885 0,-0.27 -0.1925,-0.5775 -0.385,-0.73125 L 60.539054,16.135312 45.761555,29.681561 c -0.1925,0.15375 -0.385,0.46125 -0.385,0.73125 0,0.5 0.385,0.885 0.885,0.885 0.15375,0 0.26875,-0.03875 0.385,-0.03875 l 8.96625,-1.92375 0,13.314999 4.926249,0" style="fill:#000000;fill-opacity:1;fill-rule:evenodd;stroke:none" id="path3306"/></svg>