<?xml version="1.0" encoding="UTF-8" standalone="no"?>
<svg xmlns:dc="http://purl.org/dc/elements/1.1/" xmlns:cc="http://creativecommons.org/ns#" xmlns:rdf="http://www.w3.org/1999/02/22-rdf-syntax-ns#" xmlns:svg="http://www.w3.org/2000/svg" xmlns="http://www.w3.org/2000/svg" xmlns:sodipodi="http://sodipodi.sourceforge.net/DTD/sodipodi-0.dtd" xmlns:inkscape="http://www.inkscape.org/namespaces/inkscape" width="191.60791" height="191.77785" viewBox="0 0 153.28633 153.42227" version="1.1" id="svg2" inkscape:version="0.92.4 (5da689c313, 2019-01-14)" sodipodi:docname="Victoria_W6-V2-2_(L).svg">
  <metadata id="metadata27">
    <rdf:RDF>
      <cc:Work rdf:about="">
        <dc:format>image/svg+xml</dc:format>
        <dc:type rdf:resource="http://purl.org/dc/dcmitype/StillImage"/>
        <dc:title/>
      </cc:Work>
    </rdf:RDF>
  </metadata>
  <defs id="defs25"/>
  <sodipodi:namedview pagecolor="#ffffff" bordercolor="#666666" borderopacity="1" objecttolerance="10" gridtolerance="10" guidetolerance="10" inkscape:pageopacity="0" inkscape:pageshadow="2" inkscape:window-width="1920" inkscape:window-height="1057" id="namedview23" showgrid="false" inkscape:zoom="3.091213" inkscape:cx="202.18942" inkscape:cy="69.720272" inkscape:window-x="-8" inkscape:window-y="-8" inkscape:window-maximized="1" inkscape:current-layer="svg2" fit-margin-top="0" fit-margin-left="0" fit-margin-right="0" fit-margin-bottom="0"/>
  <path d="M 81.96029,2.2055251 C 81.3306,1.5740451 80.54982,1.0181651 79.62973,0.61907515 78.70717,0.22060515 77.69235,-4.8543471e-6 76.64285,-4.8543471e-6 75.59398,-4.8543471e-6 74.57915,0.22060515 73.65659,0.61907515 72.73588,1.0181651 71.95573,1.5740451 71.32603,2.2055251 L 2.20239,71.38941 c -0.0378,0.03718 -0.0799,0.08118 -0.11702,0.118983 -0.039,0.0409 -0.0762,0.08118 -0.11517,0.123322 C 1.894,71.714755 1.81974,71.800894 1.74606,71.888893 1.5987,72.065509 1.45753,72.250801 1.32317,72.446628 1.05506,72.837661 0.81606,73.263399 0.61855,73.721361 0.21918,74.645341 0,75.660418 0,76.711438 c 0,1.050401 0.21918,2.066098 0.61855,2.989459 0.39813,0.920262 0.95352,1.70171 1.58384,2.33195 l 69.12364,69.184523 c 0.6297,0.63085 1.40985,1.18611 2.33056,1.58582 0.92256,0.39909 1.93739,0.61908 2.98626,0.61908 1.0495,0 2.06432,-0.21999 2.98688,-0.61908 0.92009,-0.39971 1.70087,-0.95497 2.33056,-1.58582 l 69.12364,-69.184523 c 0.62971,-0.629624 1.18572,-1.411688 1.58384,-2.33195 0.39937,-0.923361 0.61856,-1.939058 0.61856,-2.989459 0,-1.05102 -0.21919,-2.066097 -0.61856,-2.990077 -0.39812,-0.920262 -0.95413,-1.70233 -1.58384,-2.331951 L 81.96029,2.2055251" style="fill:#cdff00;fill-opacity:1;fill-rule:evenodd;stroke:none" id="path14687" inkscape:connector-curvature="0"/>
  <path d="m 62.82915,101.93996 10.96118,-23.731617 -3.21659,-7.155116 -5.83879,0 -12.03359,25.997252 10.12779,4.889481 z" style="fill:#000000;fill-opacity:1;fill-rule:evenodd;stroke:none" id="path14727" inkscape:connector-curvature="0"/>
  <path d="M 97.501492,98.719783 84.63326,71.053047 l -12.51097,0 15.132538,32.556843 10.246664,-4.890107 z" style="fill:#000000;fill-opacity:1;fill-rule:evenodd;stroke:none" id="path14735" inkscape:connector-curvature="0"/>
  <path d="m 89.367932,108.73974 0,0 0.03096,-0.002 0.715144,1.66949 3.574472,-1.43028 -0.357264,-0.95434 c -0.0136,-0.0155 -0.02288,-0.0366 -0.02288,-0.0601 0,-0.0235 0.0093,-0.0446 0.02288,-0.0595 l 1.906432,-0.95436 -0.03096,-0.0254 c 0.02784,-0.0155 0.05576,-0.0285 0.08606,-0.0397 0.03032,-0.0106 0.06072,-0.0186 0.09226,-0.0248 0.06376,-0.0124 0.127552,-0.0136 0.190088,-0.006 1.322552,0.17724 2.723112,0.0235 4.049376,-0.51931 1.32689,-0.54224 2.43396,-1.41355 3.25437,-2.46642 0.16842,-0.20575 0.28048,-0.47594 0.28791,-0.77526 0.007,-0.30055 -0.0904,-0.57509 -0.2489,-0.7895 -0.34674,-0.4685 -0.96777,-0.64078 -1.50583,-0.41768 -1.09036,0.41582 -2.285982,0.60607 -3.507606,0.51931 -1.22224,-0.0861 -2.378856,-0.44247 -3.399248,-1.00888 -0.406792,0.4747 -0.86932,0.91406 -1.384464,1.3051 -0.515152,0.39228 -1.074264,0.7294 -1.668672,1.0033 -0.593784,0.27515 -1.212952,0.48214 -1.845128,0.62094 -0.315776,0.0688 -0.630936,0.12023 -0.947952,0.15493 -0.157888,0.0174 -0.315776,0.031 -0.473048,0.039 -0.07928,0.004 -0.156024,0.007 -0.23528,0.01 -0.04088,0.002 -0.07616,0.002 -0.117024,0.003 -0.0248,0 -0.03344,0 -0.0588,6.3e-4 l -0.01424,0 -0.01488,0 -0.01424,0 -0.01488,0 -0.004,0.009 -0.0032,0.008 -0.004,0.008 -0.004,0.009 c -0.004,0.008 -0.0099,0.0235 -0.0136,0.0322 -0.0093,0.023 -0.01792,0.0446 -0.02664,0.0663 -0.01672,0.044 -0.03408,0.0905 -0.04888,0.13696 -0.0316,0.093 -0.05816,0.18652 -0.08174,0.28568 -0.04584,0.19706 -0.07432,0.40219 -0.08173,0.61475 -0.01552,0.42635 0.05512,0.86262 0.218568,1.27845 0.336208,0.85643 0.990056,1.4532 1.699624,1.75996" style="fill:#000000;fill-opacity:1;fill-rule:evenodd;stroke:none" id="path14743" inkscape:connector-curvature="0"/>
  <path d="m 53.20841,98.445623 0,0 c -0.36346,0.105976 -0.72939,0.283208 -1.06622,0.545344 -0.33683,0.262752 -0.62536,0.597392 -0.83897,0.989672 -0.21362,0.391651 -0.33745,0.816161 -0.37584,1.241891 -0.0378,0.42512 0.0124,0.82916 0.12012,1.19232 l -0.0142,0.002 -0.83402,1.66948 3.45497,1.78785 0.47676,-0.83413 c 0.002,-0.0285 0.013,-0.0589 0.0365,-0.0824 0.0235,-0.0235 0.0539,-0.0347 0.0824,-0.0372 l 1.90643,0.83536 0.0334,-0.0298 c 0.0588,0.0217 0.11393,0.0546 0.16408,0.0948 0.0495,0.0415 0.0923,0.0899 0.12569,0.14316 0.71391,1.12786 1.7312,2.10265 2.99865,2.77193 1.26744,0.66929 2.64572,0.95869 3.97941,0.91159 0.58264,-0.006 1.08665,-0.40715 1.22286,-0.97417 0.13622,-0.56703 -0.13064,-1.1539 -0.64703,-1.42409 -1.01916,-0.56889 -1.93243,-1.36397 -2.65067,-2.35735 -0.71886,-0.99215 -1.18881,-2.10887 -1.41109,-3.25531 -1.2594,-0.0142 -2.53489,-0.29436 -3.72927,-0.8583 -1.19438,-0.56455 -2.22159,-1.370175 -3.03394,-2.333199" style="fill:#000000;fill-opacity:1;fill-rule:evenodd;stroke:none" id="path14747" inkscape:connector-curvature="0"/>
  <path d="m 3.26539,72.453698 c -0.50401,0.50444 -0.94857,1.128483 -1.26683,1.865932 -0.31949,0.738689 -0.49533,1.551123 -0.49533,2.391443 0,0.84094 0.17584,1.652753 0.49533,2.391442 0.31826,0.73683 0.76282,1.361492 1.26683,1.865932 l 69.12364,69.184523 c 0.504,0.50444 1.12813,0.94938 1.86432,1.26791 0.73805,0.31915 1.54979,0.49514 2.38938,0.49514 0.8396,0 1.65133,-0.17599 2.38938,-0.49514 0.7362,-0.31853 1.36033,-0.76347 1.86433,-1.26791 l 69.12364,-69.184523 c 0.50401,-0.50444 0.94857,-1.129102 1.26745,-1.865932 0.31948,-0.738689 0.49472,-1.550502 0.49472,-2.391442 0,-0.84032 -0.17524,-1.652754 -0.49472,-2.391443 -0.31888,-0.736829 -0.76344,-1.361492 -1.26745,-1.865932 L 80.89644,3.2691951 c -0.504,-0.50444 -1.12751,-0.94939 -1.86433,-1.26792 -0.73805,-0.31977 -1.54978,-0.49577 -2.38938,-0.49577 -0.83897,0 -1.65133,0.176 -2.38938,0.49577 -0.73619,0.31853 -1.36032,0.76348 -1.86432,1.26792 L 3.26539,72.453698 M 5.39224,74.583005 74.51588,5.3978751 c 0.51515,-0.51559 1.26187,-0.88184 2.12685,-0.88184 0.86498,0 1.61232,0.36687 2.12686,0.88184 l 69.12364,69.1851299 c 0.51453,0.514355 0.88108,1.26234 0.88108,2.128068 0,0.42016 -0.0879,0.826067 -0.24767,1.195411 -0.15912,0.369344 -0.38141,0.681056 -0.63341,0.933276 l -69.12364,69.18452 c -0.51454,0.51435 -1.26188,0.88121 -2.12686,0.88121 -0.86498,0 -1.6117,-0.36686 -2.12685,-0.88121 L 5.39224,78.83976 C 4.82817,78.275828 4.51116,77.509253 4.51116,76.711073 c 0,-0.7988 0.31701,-1.564136 0.88108,-2.128068" style="fill:#000000;fill-opacity:1;fill-rule:evenodd;stroke:none" id="path15015" inkscape:connector-curvature="0"/>
  <path d="m 93.123204,28.041285 0,12.29247 -16.668704,0 2.47854,11.28793 -6.2e-4,0 c 0.0526,0.228671 0.0359,0.48461 -0.0743,0.724435 -0.11021,0.239207 -0.29348,0.418921 -0.50091,0.527989 -0.20804,0.109068 -0.45942,0.157405 -0.71885,0.112166 -0.25944,-0.04586 -0.47924,-0.177235 -0.63775,-0.350133 l -16.83836,-18.448627 16.83836,-18.448 c 0.15727,-0.17228 0.37522,-0.30304 0.63217,-0.34951 0.25758,-0.0465 0.50772,0 0.71515,0.10597 0.20742,0.10659 0.39069,0.28258 0.50338,0.51869 0.11269,0.23611 0.13374,0.48957 0.0861,0.71824 l -2.48287,11.30838 16.668699,0" style="fill:#000000;fill-opacity:1;fill-rule:evenodd;stroke:none" id="path15019" inkscape:connector-curvature="0"/>
  <path d="m 110.48117,92.014383 0,0.09296 0,0.09482 -0.002,0.09295 -6.1e-4,0.0942 c -0.002,0.1258 -0.004,0.250976 -0.006,0.376776 -0.006,0.250984 -0.0142,0.50444 -0.0254,0.75852 -0.0229,0.507536 -0.057,1.018176 -0.1034,1.532528 -0.0929,1.029336 -0.23405,2.07168 -0.42785,3.1196 -0.38822,2.101423 -0.98449,4.215863 -1.81108,6.303643 -0.82598,2.08965 -1.87175,4.12538 -3.13982,6.0663 -1.26806,1.94215 -2.7392,3.75851 -4.39549,5.41622 -1.656284,1.65709 -3.471076,3.12951 -5.410316,4.39867 -1.939248,1.26916 -3.97384,2.31522 -6.061072,3.14252 -2.086608,0.82669 -4.200456,1.42408 -6.298208,1.81264 -2.098364,0.38856 -4.160824,0.56517 -6.157654,0.56517 -1.99621,0 -4.05929,-0.17661 -6.15704,-0.56517 -2.09837,-0.38856 -4.2116,-0.98595 -6.29882,-1.81264 -2.08723,-0.8273 -4.12183,-1.87336 -6.06107,-3.14252 -1.93924,-1.26916 -3.75403,-2.74158 -5.41032,-4.39867 -1.65628,-1.65771 -3.12743,-3.47407 -4.39549,-5.41622 -1.26745,-1.94092 -2.31323,-3.97665 -3.13982,-6.0663 -0.82597,-2.08778 -1.42285,-4.20284 -1.81107,-6.303643 -0.38823,-2.098944 -0.56469,-4.164416 -0.56469,-6.162352 0,-1.998544 0.17646,-4.063408 0.56469,-6.162344 0.38822,-2.100184 0.9851,-4.21524 1.81107,-6.304262 0.82659,-2.089027 1.87237,-4.125378 3.13982,-6.066295 1.26806,-1.940917 2.73921,-3.757892 4.39549,-5.415604 1.65567,-1.657091 3.47108,-3.129511 5.41032,-4.398667 1.93986,-1.269157 3.97384,-2.315218 6.06107,-3.142525 2.08722,-0.827307 4.19983,-1.424083 6.29882,-1.812638 2.09775,-0.388555 4.16083,-0.565171 6.15704,-0.565171 1.99621,0 4.0599,0.176616 6.157654,0.565171 2.098376,0.388555 4.2116,0.985331 6.298208,1.812638 2.087232,0.826687 4.121824,1.873368 6.061072,3.142525 1.939856,1.269156 3.754032,2.740956 5.410316,4.398667 1.65629,1.657092 3.12743,3.474687 4.39549,5.415604 1.26807,1.941536 2.31323,3.977268 3.13982,6.066295 0.82659,2.089022 1.42286,4.203462 1.81108,6.304262 0.1938,1.048536 0.33497,2.089648 0.42785,3.119592 0.0464,0.513736 0.0811,1.026232 0.1034,1.532536 0.0111,0.253456 0.0198,0.507536 0.0254,0.75852 0.002,0.1258 0.005,0.250976 0.006,0.376776 6.1e-4,0.05952 0.002,0.127664 0.002,0.187152 l 0,0.187768 m -2.75717,0 0,-0.08614 -6.2e-4,-0.08552 c 0,-0.0576 -6.2e-4,-0.115264 -0.002,-0.172896 -0.002,-0.115264 -0.003,-0.230528 -0.006,-0.3458 -0.005,-0.229288 -0.013,-0.465392 -0.0235,-0.695928 -0.0204,-0.466632 -0.052,-0.935752 -0.0947,-1.409208 -0.0848,-0.945672 -0.21486,-1.901256 -0.39318,-2.86552 -0.35664,-1.92852 -0.90399,-3.871296 -1.6631,-5.789904 -0.7591,-1.918605 -1.72005,-3.789495 -2.88409,-5.572387 -1.16467,-1.782892 -2.5157,-3.450519 -4.037004,-4.973134 -1.521304,-1.522616 -3.188728,-2.876052 -4.97008,-4.041717 -1.78136,-1.165046 -3.6494,-2.126209 -5.566968,-2.886587 -1.91696,-0.75852 -3.85744,-1.306959 -5.785536,-1.663908 -1.927482,-0.357571 -3.821522,-0.519314 -5.655512,-0.519314 -1.83398,0 -3.72803,0.161743 -5.65551,0.519314 -1.9281,0.356949 -3.86796,0.904769 -5.78553,1.663908 -1.91757,0.760378 -3.78561,1.721541 -5.56697,2.886587 -1.78135,1.166285 -3.44816,2.518481 -4.96947,4.041717 -1.5213,1.522615 -2.87233,3.190242 -4.03761,4.973134 -1.16404,1.782892 -2.125,3.653782 -2.8841,5.572387 -0.75848,1.917992 -1.30645,3.861384 -1.66309,5.789904 -0.35665,1.929144 -0.51887,3.826064 -0.51887,5.661008 0,1.835568 0.16222,3.731248 0.51887,5.661008 0.35664,1.929144 0.90461,3.871311 1.66309,5.789901 0.7591,1.91862 1.72006,3.78952 2.8841,5.57239 1.16528,1.7829 2.51631,3.45114 4.03761,4.97376 1.52131,1.52201 3.18812,2.87481 4.96947,4.04048 1.78136,1.16566 3.6494,2.1262 5.56697,2.8872 1.91757,0.75852 3.85743,1.30696 5.78553,1.66391 1.92686,0.35757 3.82215,0.51933 5.65551,0.51933 1.83399,0 3.72865,-0.16176 5.655512,-0.51933 1.928096,-0.35695 3.868576,-0.90539 5.785536,-1.66391 1.917568,-0.761 3.785608,-1.72154 5.566968,-2.8872 1.781352,-1.16567 3.448776,-2.51847 4.97008,-4.04048 1.521304,-1.52262 2.872334,-3.19086 4.037004,-4.97376 1.16465,-1.78287 2.12499,-3.65377 2.88409,-5.57239 0.75849,-1.91798 1.30646,-3.860757 1.6631,-5.789901 0.17832,-0.96364 0.30834,-1.919848 0.39318,-2.865512 0.0427,-0.47284 0.0743,-0.942576 0.0947,-1.409216 0.0106,-0.231144 0.0186,-0.467256 0.0235,-0.695928 0.002,-0.11588 0.004,-0.230528 0.006,-0.345792 l 0.002,-0.08614 0,-0.08675 6.2e-4,-0.08552 0,-0.08614" style="fill:#000000;fill-opacity:1;fill-rule:evenodd;stroke:none" id="path15023" inkscape:connector-curvature="0"/>
</svg>