<?xml version="1.0" encoding="UTF-8" standalone="no"?>
<!DOCTYPE svg PUBLIC "-//W3C//DTD SVG 1.1//EN" "http://www.w3.org/Graphics/SVG/1.1/DTD/svg11.dtd">
<!-- GeoHints -->
<svg width="100%" height="100%" viewBox="0 0 700 700" version="1.1" xmlns="http://www.w3.org/2000/svg" xmlns:xlink="http://www.w3.org/1999/xlink" xml:space="preserve" xmlns:serif="http://www.serif.com/" style="fill-rule:evenodd;clip-rule:evenodd;stroke-linejoin:round;stroke-miterlimit:2;">
    <path d="M700,45C700,20.164 679.836,0 655,0L45,0C20.164,0 0,20.164 0,45L0,655C0,679.836 20.164,700 45,700L655,700C679.836,700 700,679.836 700,655L700,45Z" style="fill:white;"/>
    <path d="M20,655C20,668.807 31.193,680 45,680L655,680C668.807,680 680,668.807 680,655L680,45C680,31.193 668.807,20 655,20L45,20C31.193,20 20,31.193 20,45L20,655ZM51.325,558.75C51.325,556.995 51.787,555.27 52.665,553.75L341.34,53.75C343.126,50.656 346.428,48.75 350,48.75C353.573,48.75 356.874,50.656 358.66,53.75L647.335,553.75C648.213,555.27 648.675,556.995 648.675,558.75C648.675,564.273 644.198,568.75 638.675,568.75L61.325,568.75C55.802,568.75 51.325,564.273 51.325,558.75Z" style="fill:rgb(13,105,225);fill-rule:nonzero;"/>
    <g transform="matrix(1.37544,0,0,1.37544,-70.9454,-48.6307)">
        <g transform="matrix(-0.758659,0,0.0116234,0.765355,574.392,25.0051)">
            <path d="M285.007,515.413C282.883,523.929 275.234,529.905 266.458,529.905C255.9,529.905 247.34,521.345 247.34,510.787C247.34,509.228 247.531,507.675 247.909,506.163L270,410.646C270.353,409.228 271.086,407.935 272.119,406.902L332.122,345.573L328.638,232.564C328.638,228.966 330.555,225.651 333.668,223.847L359.642,208.852C365.868,205.264 373.539,205.264 379.765,208.852L460.979,256.103C467.206,259.691 471.04,266.341 471.04,273.525L471.04,343.956C471.04,352.29 464.284,359.048 455.948,359.048C447.613,359.048 440.855,352.291 440.855,343.956L440.855,283.989C440.855,281.114 439.32,278.456 436.831,277.019L392.526,251.082L394.111,339.244C394.111,341.913 393.051,344.472 391.164,346.359L305.003,427.168C303.97,428.201 303.238,429.494 302.884,430.912L285.007,515.413Z" style="fill-rule:nonzero;"/>
        </g>
        <g transform="matrix(0.510534,0,0,0.510534,99.9334,45.8167)">
            <path d="M392.879,229.692C392.879,206.5 411.679,187.675 434.879,187.675C458.096,187.675 476.913,206.5 476.913,229.692C476.913,252.908 458.096,271.708 434.879,271.708C411.675,271.708 392.879,252.912 392.879,229.692Z" style="fill-rule:nonzero;"/>
        </g>
        <path d="M339.087,241.508L376.4,273.77C376.4,273.77 389.56,283.77 385.79,291.2C380.95,298.72 370.62,294.53 365.48,289.56C356.579,280.954 338.694,264.568 338.694,264.568L339.087,241.508Z" style="fill-rule:nonzero;"/>
        <path d="M213.95,400.01C237.01,371.48 283.83,315.01 283.83,315.01L305.003,333.059C305.003,333.059 255.65,394.92 231.04,424.03C224.39,431.92 211.1,428.55 206.67,419.99C205.05,412.52 209.4,405.52 213.95,400.01Z" style="fill-rule:nonzero;"/>
        <g transform="matrix(1,0,-0.0421364,1,18.5695,-1.42109e-14)">
            <path d="M159.901,380.311L189.357,380.46L171.008,440.701L125.741,440.619L159.901,380.311Z" style="fill-rule:nonzero;"/>
        </g>
        <g transform="matrix(1,0,-0.0421867,1,18.5914,-1.42109e-14)">
            <path d="M288.142,380.494L318.308,380.374L328.607,440.692L278.737,440.636L288.142,380.494Z" style="fill-rule:nonzero;"/>
        </g>
        <g transform="matrix(1,0,-0.0450507,1,19.8545,-1.42109e-14)">
            <path d="M416.785,380.336L448.096,380.195L488.155,440.714L431.735,440.704L416.785,380.336Z" style="fill-rule:nonzero;"/>
        </g>
    </g>
</svg>
