<?xml version="1.0" encoding="UTF-8" standalone="no"?><!DOCTYPE svg PUBLIC "-//W3C//DTD SVG 1.1//EN" "http://www.w3.org/Graphics/SVG/1.1/DTD/svg11.dtd"><svg width="100%" height="100%" viewBox="0 0 426 428" version="1.1" xmlns="http://www.w3.org/2000/svg" xmlns:xlink="http://www.w3.org/1999/xlink" xml:space="preserve" xmlns:serif="http://www.serif.com/" style="fill-rule:evenodd;clip-rule:evenodd;stroke-linejoin:round;stroke-miterlimit:2;"><path d="M31.892,0.417l362.066,-0c17.317,0.166 31.309,14.196 31.309,31.566l-0,363.963c-0,17.037 -13.988,31.067 -30.975,31.067l-362.567,-0c-17.321,-0 -31.308,-14.03 -31.308,-30.9l-0,-364.13c-0,-17.371 13.987,-31.4 31.308,-31.4l0.167,-0.166Z" style="fill:#0071b3;fill-rule:nonzero;"/><path d="M31.725,8.096l362.233,0.333c12.821,0 23.65,10.521 23.65,23.55l0,364.129c0,12.859 -10.829,23.55 -23.65,23.55l-364.062,-0.671c-12.154,0 -21.483,-9.854 -21.483,-21.879l-0.505,-365.291c0,-12.863 10.663,-23.721 23.817,-23.721Zm-0,7.187l362.233,0.167c8.992,-0 16.488,7.517 16.488,16.533l-0,364.13c-0,9.02 -7.496,16.537 -16.488,16.537l-362.233,0c-8.992,0 -16.488,-7.517 -16.488,-16.537l0,-364.296c0,-9.017 7.5,-16.534 16.488,-16.534Z" style="fill:#fff;"/><path d="M41.554,353.688l165.213,-287.126l165.375,287.126l-330.588,-0Z" style="fill:#fff;"/><path d="M102.508,338.983l-16.654,0l4.334,-7.345l16.65,-0l-4.33,7.345Zm-28.312,0l-16.654,0l4.333,-7.345l16.65,-0l-4.329,7.345Zm56.458,0l-16.654,0l4.325,-7.345l16.658,-0l-4.329,7.345Zm28.313,-0.166l-16.654,-0l4.325,-7.346l16.658,-0l-4.329,7.346Zm28.146,-0l-16.655,-0l4.329,-7.346l16.655,-0l-4.329,7.346Zm56.62,-0l-16.65,-0l4.33,-7.346l16.654,-0l-4.334,7.346Zm-28.304,-0l-16.658,-0l4.329,-7.346l16.654,-0l-4.325,7.346Zm56.45,-0l-16.654,-0l4.329,-7.346l16.659,-0l-4.334,7.346Zm28.313,-0.167l-16.654,0l4.329,-7.346l16.654,0l-4.329,7.346Zm28.146,0l-16.655,0l4.33,-7.346l16.658,0l-4.333,7.346Zm11.825,-0.167l4.162,-7.179l14.992,0l0.833,1.333l-3.5,5.846l-16.487,0Zm-31.475,-61.304l-16.655,0l4.33,-7.342l16.658,0l-4.333,7.342Zm15.325,-6.842l4.325,6.675l-7.825,0l3.5,-6.675Zm-43.634,6.675l-16.662,0l4.337,-7.345l16.654,-0l-4.329,7.345Zm-57.791,-0.166l-15.325,-0l4.166,-7.179l6.992,-0l4.167,7.179Zm-55.63,-0l-16.654,-0l4.334,-7.346l16.654,-0l-4.334,7.346Zm85.109,-0l-6.829,-0l-3.667,-7.179l14.658,-0l-4.162,7.179Zm-141.734,-0.167l-16.654,0l4.334,-7.346l16.654,0l-4.334,7.346Zm28.313,0l-16.654,0l4.333,-7.346l16.654,0l-4.333,7.346Z" style="fill:#120c0e;"/><path d="M204.561,133.483c2.484,0.035 4.784,0.574 6.206,1.725c2.662,0.167 1.662,2.675 2.829,3.175l-0,29.063l17.487,5.512l21.817,25.725l6.496,39.421l-9.992,2l-6.496,-30.4l-14.158,-15.533l-2.338,41.087l36.142,82.013l-19.654,8.687l-2.829,-3.675l4.496,-8.016l-34.142,-58.459l-37.471,70.484l-23.15,-10.021l3.5,-5.846l7.658,0.329l33.642,-73.325l-3.829,-36.079l-7.825,11.863l-29.975,16.204l-8.663,-6.85l27.646,-17.704l14.154,-30.071l12.996,-3.504l0.334,-5.513c-0.996,-0.167 -2,-1.333 -3,-1.5c-3.163,-2.675 -4.334,-21.717 -3.496,-25.558c0.656,-3.181 6.26,-5.209 11.259,-5.235l0.356,0.001Z" style="fill:#120c0e;fill-rule:nonzero;"/></svg>