<?xml version="1.0" encoding="UTF-8" standalone="no"?>
<!DOCTYPE svg PUBLIC "-//W3C//DTD SVG 1.1//EN" "http://www.w3.org/Graphics/SVG/1.1/DTD/svg11.dtd">
<!-- GeoHints -->
<svg width="100%" height="100%" viewBox="0 0 2259 1923" version="1.1" xmlns="http://www.w3.org/2000/svg" xmlns:xlink="http://www.w3.org/1999/xlink" xml:space="preserve" xmlns:serif="http://www.serif.com/" style="fill-rule:evenodd;clip-rule:evenodd;stroke-linejoin:round;">
    <g transform="matrix(1,0,0,1,-114.768,-82.8838)">
        <g transform="matrix(0.228404,0,0,0.222065,113.867,83.7983)">
            <path d="M286.538,8360.33L4947.96,286.54L9609.38,8360.33L286.588,8360.34L286.547,8360.33L286.538,8360.33Z" style="fill:rgb(226,10,22);stroke:rgb(226,10,22);stroke-width:573.08px;"/>
        </g>
        <g transform="matrix(0.261681,0,0,0.261681,-50.7909,-138.12)">
            <path d="M4947.96,1432.69L1279.16,7787.23L8616.78,7787.24L4947.98,1432.69L4947.96,1432.69Z" style="fill:white;"/>
        </g>
        <g transform="matrix(1.0229,0,0,1.0229,-28.3387,-39.577)">
            <g>
                <path d="M1198.71,686.72C1213.22,680.31 1229.43,679.71 1245.08,680.5C1256.91,679.2 1265.97,688.34 1276.02,693C1290.14,706.96 1301.9,723.28 1311.17,740.83C1313.07,744.28 1316.98,747.4 1315.2,751.76C1312.42,752.2 1309.76,753.16 1307.44,754.75C1311.99,777.05 1297.81,799.62 1279.57,811.56C1277.57,813.79 1275.45,811.4 1273.7,810.24C1274.7,816.36 1268.63,818.65 1264.63,821.67C1258.67,826.48 1249.96,822.96 1243.94,827.85C1237.7,830.13 1238.28,837.49 1234.47,841.9C1251.58,857.44 1278.29,859.3 1290.7,880.33C1303.26,909.9 1313.3,940.52 1325.84,970.06C1334.09,985.54 1344.26,1000.31 1359.05,1010.14C1371.83,1013.46 1384.71,1016.45 1397.58,1019.46C1397.76,1022.9 1398.26,1026.32 1398.65,1029.75C1406.99,1026.49 1414.74,1021.86 1423.04,1018.51C1425.57,1018.5 1427.55,1020.54 1428.12,1022.92C1431.55,1032.97 1435.92,1042.74 1438.71,1052.99C1438.01,1063.14 1429.4,1070.13 1424.2,1078.22C1423.19,1080.43 1420.75,1079.38 1419.12,1078.72C1421.3,1073.85 1424.35,1069.42 1426.2,1064.4C1420.14,1067.16 1419.62,1077.88 1411.89,1077.92C1415.17,1069.1 1421.34,1061.58 1424.53,1052.7C1418.49,1058.31 1411.32,1056.55 1406.69,1050.36C1396.72,1052.11 1403.27,1064.5 1401.49,1071.27C1372.94,1080.95 1342.65,1079.28 1312.96,1080.47C1302.9,1078.9 1293.51,1074.31 1283.49,1072.44C1283.99,1087.88 1286.86,1103.16 1287.53,1118.58C1263.8,1139.57 1234.38,1152.89 1204.96,1163.92C1192.66,1167.89 1181.08,1174.61 1167.91,1175.17C1138.69,1180.29 1109.09,1182.01 1079.48,1181.38C1069.02,1178.57 1057.86,1177.11 1047.92,1173.13C1043.13,1161.24 1029.44,1149.71 1036.27,1136.25C1040.99,1120.04 1045.22,1103.64 1048.31,1087.05C1052.28,1037.84 1071.89,991.87 1081.74,943.86C1070.89,976.21 1060.35,1008.75 1049.33,1041.09C1042.23,1070.07 1040.79,1100.44 1030.54,1128.67C1020.53,1151.25 1026.05,1175.89 1028.5,1199.36C1023.89,1201.05 1019.12,1202.27 1014.51,1203.94C1016.48,1212.91 1024.45,1216.92 1031.53,1221.55C1031.51,1224.57 1031.5,1227.59 1031.57,1230.62C1029.72,1231.37 1027.72,1231.42 1025.78,1231.4C1026.4,1226.23 1023.32,1222.42 1018.16,1221.96C1017.04,1230.66 1025.06,1235.85 1028.8,1242.75C1027.83,1243.39 1026.88,1244.06 1025.93,1244.74C1024.47,1243.22 1022.95,1241.73 1021.01,1240.88C1022.37,1244.38 1025.05,1247.14 1026.62,1250.55C1025.58,1252.18 1024.88,1253.98 1024.35,1255.85C1020.34,1253.63 1015.96,1254.89 1011.9,1256.19C1005.95,1249.64 1001.17,1242.12 996.73,1234.5C993.16,1226.81 997.36,1218.01 994.38,1210.22C991.01,1211.12 987.73,1212.33 984.29,1212.93C977.38,1178.37 973.76,1143.25 972.47,1108.04C969.61,1084.78 974.28,1061.47 976.58,1038.4C993.36,1008.12 1008.56,976.85 1028.24,948.24C1048.1,917.99 1064.5,884.43 1092.58,860.68C1110.31,851.93 1128.17,843.42 1146.06,835.02C1152.82,825.81 1158.98,816.08 1166.78,807.69C1171.12,806.71 1175.64,806.88 1180.08,806.55C1177.77,800.15 1170.19,797.01 1168.81,790.09C1165.72,774.64 1157.86,759.41 1161.47,743.34C1163.21,729.4 1170.1,716.86 1176.78,704.75C1183.98,698.65 1191.62,693.01 1198.71,686.72M1178.35,827.08C1180.15,822.18 1182.56,817.11 1181.11,811.77C1173.77,814.09 1174.87,821.85 1178.35,827.08Z" style="fill-rule:nonzero;"/>
                <path d="M1241.91,1161.92C1250.37,1157.23 1259.73,1154.11 1269.4,1153.46C1278.04,1233.92 1301.38,1311.71 1320.3,1390.1C1313.06,1391.94 1305.36,1391.77 1297.95,1392.89C1291.63,1393.2 1289.1,1400.33 1283.57,1402.42C1278.37,1404.54 1273.34,1407.12 1268.02,1408.87C1250.11,1408.44 1232.27,1406.24 1214.36,1405.56C1214.27,1400.76 1214.55,1395.95 1214.11,1391.17C1200.42,1392.02 1186.73,1393.24 1173.11,1394.86C1166.26,1400.16 1160.72,1406.95 1154.09,1412.53C1137.94,1411.24 1122.39,1405.06 1106.01,1406.83C1094.81,1408.2 1084.28,1404.12 1073.75,1400.95C1077.2,1395.84 1081.97,1391.73 1085.72,1386.82C1072.74,1382.6 1059.17,1380.52 1046.11,1376.52C1048.93,1369.95 1052.49,1363.74 1055.68,1357.35C1047.5,1359.23 1040.58,1364.81 1032.52,1367.22C1047.89,1329.9 1064.47,1293.1 1079.88,1255.8C1089.49,1234.93 1094.18,1212.1 1104.4,1191.54C1129.35,1187.12 1154.98,1187.05 1179.84,1181.73C1201.4,1178.23 1221.74,1169.93 1241.91,1161.92Z" style="fill-rule:nonzero;"/>
                <g id="rect5050" transform="matrix(0.977613,0,0,0.977613,27.7043,38.691)">
                    <path d="M798.542,1899.65C853.396,1804.08 908.469,1708.41 960.795,1611.32C966.769,1600.96 971.362,1589.75 978.819,1580.3C984.373,1574.86 991.84,1572.66 998.98,1570.22C1002.88,1559.57 1009.01,1549.77 1013.69,1539.43C1030.32,1518.87 1035.91,1492.48 1040.69,1467.13C1049.8,1444.04 1047.41,1414.21 1067.6,1396.96C1077.28,1400.75 1087.24,1404.52 1096.89,1408.58C1114.48,1407.49 1132.94,1404.2 1150.07,1409.55C1121.6,1452.95 1095.93,1498.18 1069.05,1542.6C1070.55,1542.42 1072.07,1542.24 1073.59,1542.09C1065.53,1557.82 1056.38,1573.05 1048.49,1588.86C1048.63,1612.24 1074.43,1620.06 1093.06,1624.45C1101.93,1630.84 1091.71,1640.39 1085.48,1644.08C1064.33,1648.55 1043.21,1642.04 1022.99,1636.38C973.868,1724.22 925.786,1812.7 875.126,1899.65L798.542,1899.65Z" style="fill-rule:nonzero;"/>
                </g>
                <g id="rect50501" serif:id="rect5050" transform="matrix(0.977613,0,0,0.977613,27.7043,38.691)">
                    <path d="M1029.83,1899.65C1049.94,1864.77 1066.51,1827.89 1085.42,1792.34C1122.79,1717.82 1159.53,1642.95 1197.39,1568.69C1209.63,1562.35 1223.29,1558.43 1235.49,1551.83C1233.29,1523.37 1226.32,1495.66 1218.52,1468.28C1211.58,1448.62 1212.38,1427.61 1213.48,1407.14C1227.81,1407.52 1242.1,1408.71 1256.39,1409.7C1269.56,1412.26 1281.11,1403.6 1293.61,1401.13C1292.61,1464.38 1292.72,1527.69 1292.84,1590.98C1295.6,1598.36 1301.67,1604.24 1306.36,1610.57C1315.31,1617 1327.02,1613.83 1337.19,1613.14C1345.19,1610.3 1352.58,1604.92 1361.59,1606.41C1360.98,1611.71 1363.15,1618.36 1358.18,1622.12C1350.37,1629.28 1344.07,1638.8 1333.76,1642.57C1313.55,1654.24 1289.46,1648.22 1267.56,1646.54C1261.85,1645.58 1263.86,1655.35 1258.49,1655.56C1248.64,1655.6 1235.53,1661.09 1232.21,1648.18C1190.66,1732.05 1149.72,1816.22 1107.33,1899.65L1029.83,1899.65Z" style="fill-rule:nonzero;"/>
                </g>
            </g>
            <g>
                <g transform="matrix(0.977613,0,0,0.977613,27.7043,38.691)">
                    <path d="M1731.7,1899.65C1777.13,1786.24 1825.96,1662.77 1871.21,1549.96C1872.31,1547.1 1935.74,1513.41 1965.1,1498.69C1917.82,1615.77 1821.11,1862.89 1806.33,1899.65L1731.7,1899.65Z"/>
                </g>
                <g transform="matrix(0.977613,0,0,0.977613,27.7043,38.691)">
                    <path d="M1489.94,1899.65C1509.52,1861.97 1604.04,1652.3 1643.38,1560.55C1644.27,1557.46 1708.89,1527.2 1738.32,1513.31C1696.46,1614.01 1587.48,1860.12 1568.91,1899.65L1489.94,1899.65Z"/>
                </g>
                <g transform="matrix(0.977613,0,0,0.977613,27.7043,38.691)">
                    <path d="M1248.1,1899.65C1272.86,1849.81 1381.76,1631.71 1410.3,1572.9C1411.62,1569.98 1477.49,1540.45 1508.18,1528.45C1469.02,1609.9 1350.22,1847.79 1325.64,1899.65L1248.1,1899.65Z"/>
                </g>
                <g transform="matrix(0.977613,0,0,0.977613,27.7043,38.691)">
                    <path d="M368.03,1899.65C391.933,1860.97 508.987,1671.34 566.682,1575.24C598.187,1564.08 630.01,1553.1 661.965,1543.22C596.017,1658.39 519.188,1785.66 449.475,1899.65L368.03,1899.65Z"/>
                </g>
                <g transform="matrix(0.977613,0,0,0.977613,27.7043,38.691)">
                    <path d="M590.976,1899.65C635.131,1824.61 759.167,1601.38 769.902,1582.22C770.996,1580.04 866.257,1541.88 866.175,1544.8C860.145,1556.97 729.684,1790.18 668.522,1899.65L590.976,1899.65Z"/>
                </g>
                <g id="rect50502" serif:id="rect5050" transform="matrix(0.977613,0,0,0.977613,27.7043,38.691)">
                    <path d="M2055.41,1642.19L2104.88,1727.87C2091.11,1775.06 2065.27,1869.81 2055.77,1899.65L1975.05,1899.65C1982.12,1875.16 2033.6,1713.14 2055.41,1642.19Z" style="fill-rule:nonzero;"/>
                </g>
            </g>
        </g>
    </g>
</svg>
