<?xml version="1.0" encoding="UTF-8" standalone="no"?>
<!DOCTYPE svg PUBLIC "-//W3C//DTD SVG 1.1//EN" "http://www.w3.org/Graphics/SVG/1.1/DTD/svg11.dtd">
<!-- Geohints -->
<svg width="100%" height="100%" viewBox="0 0 102 101" version="1.1" xmlns="http://www.w3.org/2000/svg" xmlns:xlink="http://www.w3.org/1999/xlink" xml:space="preserve" xmlns:serif="http://www.serif.com/" style="fill-rule:evenodd;clip-rule:evenodd;stroke-linejoin:round;stroke-miterlimit:2;">
    <g transform="matrix(3.52778,0,0,-3.52778,787.928,158.457)">
        <path d="M-222.971,31.608L-223.212,31.264L-223.35,30.852L-223.35,30.404L-223.212,29.992L-222.971,29.614L-210.029,16.683L-209.65,16.442L-209.237,16.305L-208.789,16.305L-208.376,16.442L-208.032,16.683L-195.089,29.614L-194.814,29.992L-194.676,30.404L-194.676,30.852L-194.814,31.264L-195.089,31.608L-208.032,44.539L-208.376,44.78L-208.789,44.917L-209.237,44.917L-209.65,44.78L-210.029,44.539L-222.971,31.608Z" style="fill:rgb(253,224,18);"/>
    </g>
    <path d="M47.965,98.634L48.815,99.361L50.03,99.725L51.123,99.725L52.215,99.361L53.188,98.634L98.846,53.139L99.575,52.168L99.939,51.076L99.939,49.863L99.575,48.771L98.846,47.8L53.188,2.184L52.215,1.578L51.123,1.214L50.03,1.214L48.815,1.578L47.965,2.184L2.306,47.8L1.578,48.771L1.214,49.863L1.214,51.076L1.578,52.168L2.306,53.139L47.965,98.634ZM4.006,49.62L3.764,50.105L3.764,50.834L4.006,51.319L49.665,96.935L50.273,97.177L50.88,97.177L51.488,96.935L97.024,51.319L97.389,50.834L97.389,50.105L97.024,49.62L51.488,4.004L50.88,3.64L50.273,3.64L49.665,4.004L4.006,49.62Z"/>
    <g transform="matrix(1.25432,0,0,1.25432,-12.8472,-5.2454)">
        <g transform="matrix(0.93956,0,0,1,3.11599,6.21725e-15)">
            <g transform="matrix(0.76658,0,0,0.782419,11.7214,4.96487)">
                <rect x="48.507" y="65.74" width="4.16" height="19.36"/>
            </g>
            <g transform="matrix(0.76658,0,0,0.782419,2.15453,4.96487)">
                <rect x="48.507" y="65.74" width="4.16" height="19.36"/>
            </g>
            <g transform="matrix(0.76658,0,0,0.782419,-7.41239,4.96487)">
                <path d="M52.667,77.656L52.667,65.74L48.507,65.74L48.507,73.83L52.667,77.656Z"/>
            </g>
            <g transform="matrix(0.76658,0,0,0.782419,21.2884,4.96487)">
                <rect x="48.507" y="65.74" width="4.16" height="19.36"/>
            </g>
            <g transform="matrix(0.76658,0,0,0.782419,30.8553,4.96487)">
                <path d="M52.667,73.766L52.667,65.74L48.507,65.74L48.507,77.602L52.667,73.766Z"/>
            </g>
        </g>
        <g transform="matrix(0.999291,-0.0376572,0.0376572,0.999291,-6.12449,1.34837)">
            <g transform="matrix(3.52778,0,0,-3.52778,787.928,158.457)">
                <path d="M-207.791,31.058L-207.55,29.201L-206.07,26.037L-205.898,25.899L-205.691,25.899L-205.175,26.14L-205.003,26.312L-205.037,26.518L-206.345,29.338L-206.345,29.614L-206.586,32.296L-206.586,34.738L-206.208,34.153L-206.173,34.015L-206.173,32.055L-206.104,31.849L-205.898,31.78L-205.588,31.78L-205.381,31.849L-205.313,32.055L-205.313,34.359L-205.347,34.497L-206.517,36.595L-206.621,36.698L-206.724,36.732L-207.309,36.835L-207.929,36.835L-208.514,36.732L-208.72,36.595L-209.271,35.391L-209.581,34.738L-209.718,34.634L-210.82,34.05L-211.44,33.74L-211.577,33.603L-211.577,33.396L-211.44,33.087L-211.302,32.915L-211.061,32.95L-210.166,33.396L-209.237,33.844L-209.133,33.947L-208.789,34.531L-208.789,32.502L-208.961,32.227L-210.201,30.233L-210.614,26.931L-210.579,26.725L-210.407,26.622L-209.925,26.518L-209.718,26.587L-209.615,26.759L-209.237,29.648L-208.101,31.367L-207.894,31.711L-207.791,31.058Z"/>
            </g>
            <g transform="matrix(3.52778,0,0,-3.52778,787.928,158.457)">
                <path d="M-207.757,37.11L-207.447,37.11L-207.275,37.179L-206.999,37.386L-206.896,37.523L-206.793,37.695L-206.758,37.867L-206.724,38.074L-206.724,38.245L-206.758,38.417L-206.896,38.761L-206.999,38.864L-207.137,38.968L-207.309,39.036L-207.447,39.071L-207.619,39.071L-207.791,39.036L-207.929,38.968L-208.066,38.864L-208.204,38.727L-208.307,38.555L-208.376,38.383L-208.411,38.211L-208.445,38.004L-208.376,37.661L-208.273,37.489L-208.204,37.351L-208.066,37.248L-207.929,37.179L-207.757,37.11Z"/>
            </g>
        </g>
    </g>
</svg>
