<?xml version="1.0" encoding="UTF-8" standalone="no"?>
<!DOCTYPE svg PUBLIC "-//W3C//DTD SVG 1.1//EN" "http://www.w3.org/Graphics/SVG/1.1/DTD/svg11.dtd">
<!-- GeoHints -->
<svg width="100%" height="100%" viewBox="0 0 218 193" version="1.1" xmlns="http://www.w3.org/2000/svg" xmlns:xlink="http://www.w3.org/1999/xlink" xml:space="preserve" xmlns:serif="http://www.serif.com/" style="fill-rule:evenodd;clip-rule:evenodd;stroke-linejoin:round;stroke-miterlimit:2;">
    <g>
        <path d="M14.125,192.414C6.32,192.414 0,186.086 0,178.297C0,175.754 0.672,173.371 1.84,171.313L96.668,7.09C99.104,2.855 103.676,0 108.916,0C114.154,0 118.729,2.855 121.17,7.09L215.99,171.313C217.162,173.372 217.834,175.754 217.834,178.297C217.834,186.086 211.514,192.414 203.709,192.414L14.125,192.414" style="fill:rgb(228,20,8);fill-rule:nonzero;"/>
        <g transform="matrix(0.854736,0,0,0.854736,15.8216,17.9612)">
            <path d="M21.881,173.879L108.916,23.176L195.951,173.879L21.881,173.879" style="fill:white;fill-rule:nonzero;"/>
        </g>
        <g transform="matrix(0.287498,0,0,0.258091,0.292652,-0.715282)">
            <g transform="matrix(0.561927,0,0,0.625953,145.203,116.369)">
                <path d="M392.879,229.692C392.879,206.5 411.679,187.675 434.879,187.675C458.096,187.675 476.913,206.5 476.913,229.692C476.913,252.908 458.096,271.708 434.879,271.708C411.675,271.708 392.879,252.912 392.879,229.692Z" style="fill:rgb(28,29,32);"/>
            </g>
            <path d="M517.951,517.899L542.124,517.629L593.483,633.043L559.768,632.541L517.951,517.899Z" style="fill-rule:nonzero;"/>
            <path d="M469.125,517.629L493.747,517.233L519.595,631.942L489.946,632.12L469.125,517.629Z" style="fill-rule:nonzero;"/>
            <path d="M417.776,546.147L453.684,577.211L460.779,632.317L422.834,632.625L417.776,546.147Z" style="fill-rule:nonzero;"/>
            <path d="M366.489,518.207L392.856,518.104L395.056,632.148L356.4,631.947L366.489,518.207Z" style="fill-rule:nonzero;"/>
            <path d="M304.764,553.281L337.57,552.46L327.767,632.36L292.046,632.409L304.764,553.281Z" style="fill-rule:nonzero;"/>
            <path d="M273.751,517.49L296.256,518.268L257.771,632.073L225.161,632.495L273.751,517.49Z" style="fill-rule:nonzero;"/>
            <path d="M223.331,517.288L249.845,517.604L194.004,632.912L160.645,632.541L223.331,517.288Z" style="fill-rule:nonzero;"/>
            <path d="M361.55,302.45C377.36,302.31 411.33,302.2 412.43,302.69C417.79,304.86 420.04,310.35 423.08,314.8C434.5,328.25 444.13,343.25 455.52,356.71C456.13,371.17 452.83,425.1 452.1,429.04C447.94,435.06 443.06,443.23 434.49,441.68C432.9,435.7 434.033,430.152 434.36,422.94C434.67,416.096 436.083,383.908 436.59,374.85C436.37,372.82 435.64,370.91 434.85,369.05C430.39,359.49 423.58,349.93 414.84,343.96C406.91,351.99 406.57,426.28 407.69,443.95C409.06,448.18 416.73,491.85 417.62,495.23C418.24,496.01 419.53,499.43 419.55,500.04C434.74,522.79 457.09,540.18 471.23,563.7C472.04,566.8 472.72,569.96 473.91,572.95C474.68,575.34 474.54,577.86 474.47,580.34C473.67,581.38 472.87,582.44 472.09,583.51C470.31,583.5 468.54,583.5 466.77,583.52C451.36,569.4 435.72,554.89 420.03,540.93C410.61,535.09 404.12,526.23 397.7,517.43C396.88,513.86 382.43,464.57 382.21,460.09C381.92,458.91 379.95,453.9 379.24,452.57C378.36,452.53 376.6,452.43 375.72,452.38C374.34,454.22 351.48,501.52 342.75,517.88C340.43,527.6 314.503,576.797 309.564,583.133C296.928,599.344 296.42,601.85 279.52,600.45C279.5,597.86 279.48,595.27 279.51,592.68C284.18,584.35 312.14,524.17 315.27,517.18C325.42,492.02 339.02,468.25 349.37,443.16C349.46,441.37 353.51,371.3 353.65,367.48C352.31,366.02 350.75,364.78 348.94,363.98C337.97,379.95 329.11,397.37 318.67,413.67C312.66,421.74 310.53,433.05 301.36,438.51C299.04,438.5 296.73,438.52 294.42,438.58C292.44,436.19 290.45,433.81 288.53,431.37C285.6,418.85 290.146,419.311 295.166,409.131C301.205,396.884 361.117,302.857 361.55,302.45Z" style="fill-rule:nonzero;"/>
            <path d="M377.282,456.872C377.91,458.396 378.583,460.169 378.808,460.94C379.971,468.312 393.529,514.904 394.33,518.39C394.455,518.933 394.684,519.439 395.001,519.874C401.638,528.971 408.399,538.069 418.087,544.159C433.683,558.042 449.236,572.47 464.56,586.512C465.192,587.091 465.987,587.404 466.805,587.394C468.558,587.375 470.31,587.375 472.072,587.385C473.126,587.39 474.126,586.864 474.79,585.952C475.551,584.909 476.331,583.875 477.111,582.861C477.627,582.191 477.922,581.344 477.947,580.462C478.03,577.499 478.104,574.497 477.184,571.641C477.155,571.553 477.124,571.466 477.09,571.38C475.963,568.549 475.336,565.552 474.57,562.617C474.47,562.236 474.318,561.874 474.12,561.544C460.073,538.179 437.957,520.834 422.743,498.326C422.675,498.078 422.595,497.805 422.499,497.52C422.093,496.315 421.414,494.748 420.845,493.675C419.614,488.138 412.816,449.706 411.131,443.23C410.382,430.497 410.349,391.389 413.041,366.218C413.717,359.89 414.556,354.471 415.623,350.653C415.74,350.237 415.851,349.843 415.962,349.476C422.718,355.049 428.04,362.89 431.708,370.718C432.312,372.134 432.88,373.516 433.095,374.987C432.571,384.567 431.192,415.99 430.886,422.745C430.537,430.456 429.455,436.386 431.155,442.78C431.534,444.207 432.614,445.266 433.933,445.505C439.348,446.484 443.618,444.467 447.171,441.179C450.181,438.395 452.63,434.626 454.856,431.403C455.178,430.938 455.4,430.398 455.506,429.823C456.246,425.831 459.613,371.181 458.994,356.528C458.955,355.604 458.621,354.726 458.051,354.052C446.701,340.639 437.098,325.697 425.73,312.282C424.241,310.077 422.919,307.622 421.319,305.44C419.323,302.716 416.936,300.392 413.618,299.048L413.722,299.092C413.437,298.966 411.463,298.66 408.304,298.59C398.518,298.371 374.197,298.463 361.522,298.576C360.711,298.583 359.928,298.905 359.308,299.488C359.252,299.54 358.356,300.723 356.923,302.946C346.81,318.643 297.573,396.203 292.118,407.265C290.2,411.154 288.34,413.406 286.995,415.487C284.375,419.54 282.984,423.031 285.164,432.347C285.301,432.931 285.558,433.471 285.914,433.924C287.854,436.389 289.864,438.793 291.864,441.208C292.541,442.026 293.502,442.479 294.501,442.454C296.78,442.394 299.058,442.375 301.347,442.385C301.923,442.387 302.491,442.23 303,441.927C308.182,438.841 311.437,434.168 314.184,429.06C316.523,424.71 318.455,420.028 321.347,416.144C321.401,416.071 321.452,415.997 321.501,415.92C331.342,400.556 339.773,384.191 349.904,368.993C349.965,369.043 350.025,369.094 350.085,369.146C349.501,380.313 346.343,435.006 345.938,442.197C335.625,467.04 322.18,490.612 312.116,515.545C308.872,522.774 281.195,582.359 276.56,590.628C276.223,591.229 276.04,591.921 276.032,592.63C276.002,595.248 276.022,597.866 276.042,600.483C276.057,602.499 277.458,604.164 279.262,604.314C286.699,604.93 291.244,604.729 294.918,603.28C300.333,601.145 303.995,596.187 312.19,585.674C317.157,579.302 342.822,530.562 345.966,519.431C353.839,504.614 372.432,466.198 377.282,456.872ZM361.55,302.45C377.36,302.31 411.33,302.2 412.43,302.69C417.79,304.86 420.04,310.35 423.08,314.8C434.5,328.25 444.13,343.25 455.52,356.71C456.13,371.17 452.83,425.1 452.1,429.04C447.94,435.06 443.06,443.23 434.49,441.68C432.9,435.7 434.033,430.152 434.36,422.94C434.67,416.096 436.083,383.908 436.59,374.85C436.37,372.82 435.64,370.91 434.85,369.05C430.39,359.49 423.58,349.93 414.84,343.96C406.91,351.99 406.57,426.28 407.69,443.95C409.06,448.18 416.73,491.85 417.62,495.23C418.24,496.01 419.53,499.43 419.55,500.04C434.74,522.79 457.09,540.18 471.23,563.7C472.04,566.8 472.72,569.96 473.91,572.95C474.68,575.34 474.54,577.86 474.47,580.34C473.67,581.38 472.87,582.44 472.09,583.51C470.31,583.5 468.54,583.5 466.77,583.52C451.36,569.4 435.72,554.89 420.03,540.93C410.61,535.09 404.12,526.23 397.7,517.43C396.88,513.86 382.43,464.57 382.21,460.09C381.92,458.91 379.95,453.9 379.24,452.57C378.36,452.53 376.6,452.43 375.72,452.38C374.34,454.22 351.48,501.52 342.75,517.88C340.43,527.6 314.503,576.797 309.564,583.133C296.928,599.344 296.42,601.85 279.52,600.45C279.5,597.86 279.48,595.27 279.51,592.68C284.18,584.35 312.14,524.17 315.27,517.18C325.42,492.02 339.02,468.25 349.37,443.16C349.46,441.37 353.51,371.3 353.65,367.48C352.31,366.02 350.75,364.78 348.94,363.98C337.97,379.95 329.11,397.37 318.67,413.67C312.66,421.74 310.53,433.05 301.36,438.51C299.04,438.5 296.73,438.52 294.42,438.58C292.44,436.19 290.45,433.81 288.53,431.37C285.6,418.85 290.146,419.311 295.166,409.131C301.205,396.884 361.117,302.857 361.55,302.45Z" style="fill:white;"/>
        </g>
    </g>
</svg>
