<?xml version="1.0" encoding="UTF-8" standalone="no"?><!DOCTYPE svg PUBLIC "-//W3C//DTD SVG 1.1//EN" "http://www.w3.org/Graphics/SVG/1.1/DTD/svg11.dtd"><svg width="100%" height="100%" viewBox="0 0 2376 2076" version="1.1" xmlns="http://www.w3.org/2000/svg" xmlns:xlink="http://www.w3.org/1999/xlink" xml:space="preserve" xmlns:serif="http://www.serif.com/" style="fill-rule:evenodd;clip-rule:evenodd;stroke-linejoin:round;"><g id="Layer-1" serif:id="Layer 1"><path id="path4488" d="M68.769,2006.48l1118.74,-1937.71l1118.74,1937.71l-2237.47,0.001Z" style="fill:#e20a16;fill-rule:nonzero;stroke:#e20a16;stroke-width:137.54px;"/><path id="rect5050" d="M1187.51,343.846l-880.513,1525.09l1761.03,0.001l-880.513,-1525.09Z" style="fill:#00559b;fill-rule:nonzero;"/><path id="path31410-6" d="M1137.62,1322.05l-128.362,395.5c-40.531,1.969 -74.553,-25.082 -74.553,-67.261c0,-3.641 1.476,-8.758 1.967,-12.424l87.992,-448.359l183.231,0l134.604,252.647l55.893,261.932c-3.198,2.854 -26.036,5.216 -31.069,5.216c-33.764,0 -65.702,-25.861 -76.549,-56.934l-60.06,-187.376l-93.094,-142.941Zm-103.541,-182.73l30.029,-156.328l-74.551,21.773l-16.483,214.283c-2.78,2.461 -11.194,3.125 -14.589,3.125c-6.692,-0 -16.483,-1.476 -22.732,-4.158c-15.548,-7.036 -28.902,-28.469 -27.948,-45.565l0,-214.283l239.107,-142.943c11.809,-7.726 30.462,-14.491 44.522,-14.491l16.581,0c29.51,0 72.037,31.938 80.802,60.058l76.634,180.175l95.209,62.142c9.89,3.813 21.699,21.526 21.699,32.112l0,10.333c0,3.198 -6.077,18.821 -9.299,20.666l-172.887,-42.441l-45.562,-56.847l-23.793,72.389l-196.739,-0Zm195.241,-521.971c45.546,0 82.523,36.977 82.523,82.523c-0,45.545 -36.977,82.522 -82.523,82.522c-45.545,0 -82.522,-36.977 -82.522,-82.522c-0,-45.546 36.977,-82.523 82.522,-82.523Z" style="fill:#fff;fill-rule:nonzero;"/><path id="path6382-9" d="M396.664,1786.42l170.547,0l192.552,-247.567l-107.829,-0l-255.27,247.567Zm738.577,-247.567l-30.259,247.567l165.046,0c-4.092,-55.849 -16.96,-196.59 -42.362,-247.567l-92.425,-0Zm334.491,247.567l164,0l-142.269,-247.567l-92.975,-0l71.244,247.567Zm508.615,0l-170.547,0l-192.553,-247.567l107.83,-0l255.27,247.567Zm-1047.22,-73.259l-25.849,73.259l-164,0l142.269,-247.567l48.413,-0l-19.432,101.05c-0.245,5.016 -0.982,10.378 -0.982,15.482c0,23.699 6.841,38.576 19.639,57.777l-0.058,-0.001Z" style="fill:#fff;fill-rule:nonzero;"/></g></svg>