<?xml version="1.0" encoding="UTF-8" standalone="no"?>
<!DOCTYPE svg PUBLIC "-//W3C//DTD SVG 1.1//EN" "http://www.w3.org/Graphics/SVG/1.1/DTD/svg11.dtd">
<!-- GeoHints -->
<svg width="100%" height="100%" viewBox="0 0 532 532" version="1.1" xmlns="http://www.w3.org/2000/svg" xmlns:xlink="http://www.w3.org/1999/xlink" xml:space="preserve" xmlns:serif="http://www.serif.com/" style="fill-rule:evenodd;clip-rule:evenodd;stroke-miterlimit:2.613;">
    <g transform="matrix(1.00019,0,0,1.00019,-34.4588,-186.034)">
        <g transform="matrix(10.4891,0,0,10.4891,33.4033,184.951)">
            <path d="M1.118,22.733L22.874,1.102C24.306,-0.322 26.743,-0.216 28.287,1.338L49.587,22.761C51.134,24.315 51.226,26.751 49.792,28.176L28.036,49.807C26.604,51.231 24.167,51.125 22.622,49.571L1.322,28.148C-0.223,26.594 -0.315,24.157 1.118,22.733" style="fill:rgb(255,215,0);"/>
            <path d="M2.521,23.658L23.791,2.512C24.718,1.591 26.294,1.659 27.295,2.665L48.256,23.747C49.256,24.754 49.316,26.33 48.387,27.253L27.119,48.398C26.192,49.319 24.615,49.252 23.615,48.245L2.654,27.163C1.654,26.157 1.594,24.58 2.521,23.658Z" style="fill:none;fill-rule:nonzero;stroke:black;stroke-width:1.65px;"/>
        </g>
        <g transform="matrix(2.57256,0,0,2.57256,-43.473,-302.396)">
            <g transform="matrix(1.24156,0,0,1.24156,9.6616,153.753)">
                <path d="M78.81,131.846L86.379,131.846L83.405,157.745L71.128,157.745L78.81,131.846Z"/>
                <path d="M112.887,131.846L121.323,131.846L129.13,157.745L117.224,157.745L112.887,131.846Z"/>
                <path d="M96.902,131.846L103.851,131.846L105.834,157.745L94.672,157.745L96.902,131.846Z"/>
                <path d="M64.538,151.658L56.65,143.725L63.073,131.846L72.501,131.846L64.538,151.658Z"/>
                <path d="M143.37,143.834L135.703,151.457L127.633,131.846L137.061,131.846L143.37,143.834Z"/>
            </g>
            <g transform="matrix(0.99981,0,0,0.99981,35.1471,185.936)">
                <path d="M74.996,145.16L94.463,105.428L92.553,98.761L81.74,111.058C78.316,114.083 73.154,108.893 76.543,105.504L95.728,83.473C97.852,81.995 98.787,81.459 100.918,80.338C103.331,79.225 103.84,79.403 106.108,81.459L123.273,98.761C123.884,99.414 124.097,99.269 124.352,100.747L124.352,109.36C124.352,113.107 117.251,113.072 117.21,109.285L117.32,103.229L110.975,97.104L108.452,104.349C113.821,118.627 118.186,131.564 123.52,145.848C125.94,152.584 117.684,155.87 114.364,149.34L100.987,113.794C95.007,126.016 89.672,137.585 83.651,149.773C80.227,156.083 71.717,151.216 74.996,145.16" style="stroke:rgb(255,215,0);stroke-width:1px;stroke-linejoin:round;stroke-miterlimit:4;"/>
            </g>
            <g transform="matrix(0.99981,0,0,0.99981,35.1471,185.936)">
                <path d="M96.34,65.339C99.908,65.339 102.795,68.261 102.795,71.828C102.795,75.396 99.908,78.317 96.34,78.317C92.772,78.317 89.851,75.396 89.851,71.828C89.851,68.261 92.772,65.339 96.34,65.339"/>
            </g>
        </g>
    </g>
</svg>
