<?xml version="1.0" encoding="UTF-8" standalone="no"?>
<!DOCTYPE svg PUBLIC "-//W3C//DTD SVG 1.1//EN" "http://www.w3.org/Graphics/SVG/1.1/DTD/svg11.dtd">
<!-- GeoHints -->
<svg width="100%" height="100%" viewBox="0 0 600 730" version="1.1" xmlns="http://www.w3.org/2000/svg" xmlns:xlink="http://www.w3.org/1999/xlink" xml:space="preserve" xmlns:serif="http://www.serif.com/" style="fill-rule:evenodd;clip-rule:evenodd;stroke-miterlimit:2.613;">
    <g transform="matrix(1,0,0,1,-0.4,-151.962)">
        <g transform="matrix(1,0,0,1,0,-170)">
            <g transform="matrix(1,0,0,1,0.4,321.962)">
                <path d="M600,679.998L600,50C600,22.404 577.596,0 550,0L50,0C22.404,0 0,22.404 0,50L0,679.998C0,707.598 22.404,729.998 50,729.998L550,729.998C577.596,729.998 600,707.598 600,679.998Z" style="fill:rgb(255,215,0);"/>
            </g>
            <g transform="matrix(1,0,0,1,0.4,321.962)">
                <path d="M585,680L585,50C585,30.683 569.317,15 550,15L50,15C30.683,15 15,30.683 15,50L15,680C15,699.317 30.683,715 50,715L550,715C569.317,715 585,699.317 585,680ZM30,680C30,691.038 38.962,700 50,700L550,700L552.044,699.897C562.124,698.872 570,690.348 570,680L570,50C570,38.962 561.038,30 550,30L50,30C38.962,30 30,38.962 30,50L30,680Z"/>
            </g>
        </g>
        <path d="M303.491,208.197C309.237,208.991 314.905,211.686 319.435,216.238L536.239,434.294C546.582,444.71 547.203,461.011 537.594,470.558L317.614,689.265C313.419,693.433 307.938,695.644 302.232,695.942L299.776,695.952C293.207,695.667 286.543,692.89 281.372,687.682L64.567,469.627C54.224,459.221 53.603,442.91 63.192,433.374L283.192,214.656C287.986,209.893 294.458,207.687 301.026,207.973L303.491,208.197Z" style="fill:none;stroke:black;stroke-width:12px;"/>
        <g>
            <path d="M318.244,333.132L315.953,332.97C315.165,332.956 314.353,332.982 313.518,333.055C302.958,334.524 292.697,336.871 282.147,338.351C275.341,340.005 270.925,343.005 267.584,346.573C259.558,355.862 251.542,365.15 243.515,374.438C231.279,378.441 219.043,382.454 206.807,386.478C192.65,391.171 196.356,406.127 208.661,405.754L211.234,405.468C227.059,401.672 242.884,397.876 258.72,394.069C261.037,392.373 263.364,390.687 265.681,389.001C268.732,384.698 271.783,380.396 274.835,376.093L279.158,377.365C283.523,394.121 287.888,410.888 292.263,427.644C276.862,470.268 260.84,514.434 245.439,557.068C240.599,572.463 246.463,580.965 254.628,581.626L257.424,581.554C263.139,580.824 269.463,576.563 273.904,568.487C287.195,535.772 300.889,501.07 314.17,468.365C315.137,465.5 316.202,464.264 317.158,464.335L317.85,464.628C318.516,465.157 319.091,466.375 319.486,468.148C326.882,500.232 334.267,532.307 341.662,564.391C343.503,575.671 352.021,582.409 359.697,582.246L361.124,582.134C368.196,581.163 374.112,573.997 372.682,558.692C360.859,497.067 349.047,433.177 337.225,371.552L351.416,379.687C365.697,387.994 380.18,396.686 394.268,404.599C397.999,405.949 401.057,406.526 403.491,406.518L405.719,406.321C413.815,404.808 412.198,394.918 404.052,388.588C391.599,380.354 378.805,373.176 366.341,364.943C353.888,355.862 341.445,346.791 329.002,337.72C326.271,335.547 322.686,333.684 318.244,333.132Z"/>
            <path d="M296.359,283.179C307.426,284.303 316.063,293.65 316.063,305.014C316.063,316.379 307.436,325.725 296.36,326.849L294.114,326.963C281.992,326.963 272.166,317.137 272.166,305.014C272.166,292.892 281.992,283.066 294.114,283.066L296.359,283.179Z"/>
            <g transform="matrix(10.3432,0,0,10.3432,38.192,189.087)">
                <path d="M7.672,29.962L10.439,25.112L12.577,25.112L9.81,31.852L7.672,29.962Z"/>
            </g>
            <g transform="matrix(10.3432,0,0,10.3432,38.192,189.087)">
                <path d="M18.05,25.238L15.094,37.205L12.515,34.748L15.723,25.05L18.05,25.238Z"/>
            </g>
            <path d="M274.979,611.05L276.934,574.569C270.552,582.563 263.914,587.023 257.027,587.946L254.722,588.123C250.864,588.199 246.93,587.183 242.92,585.077L240.505,583.681L239.854,611.05L274.979,611.05Z"/>
            <g transform="matrix(10.3432,0,0,10.3432,38.192,189.087)">
                <path d="M23.145,25.302L21.132,25.238L20.189,33.426L23.145,25.302Z"/>
            </g>
            <path d="M323.758,609.084L360.849,609.084C360.849,609.084 359.161,597.064 357.611,590.187C344.713,585.564 338.197,577.755 338.083,566.739L315.97,480.746L323.758,609.084Z"/>
            <g transform="matrix(10.3432,0,0,10.3432,38.192,189.087)">
                <path d="M34.719,25.553L32.076,25.364L35.41,37.52L37.926,35.316L34.719,25.553Z"/>
            </g>
            <g transform="matrix(10.3432,0,0,10.3432,38.192,189.087)">
                <path d="M40.064,25.553L37.926,25.428L40.945,32.482L42.958,30.718L40.064,25.553Z"/>
            </g>
        </g>
        <g transform="matrix(0.16177,-0.16177,0.16177,0.16177,-165.042,886.513)">
            <path d="M1417.13,363.081C1421.25,358.848 1427.01,356.216 1433.38,356.216C1445.9,356.216 1456.06,366.378 1456.06,378.894C1456.06,380.904 1455.8,382.853 1455.31,384.708L1405.03,595.744L1698.83,595.743L1698.83,825.349L1405.03,825.35L1455.31,1036.4C1455.8,1038.26 1456.06,1040.2 1456.06,1042.2C1456.06,1054.72 1445.9,1064.88 1433.38,1064.88C1427.01,1064.88 1421.25,1062.25 1417.13,1058.01L1079.05,710.547L1417.13,363.077L1417.13,363.081Z" style="fill-rule:nonzero;"/>
        </g>
    </g>
</svg>
