<?xml version="1.0" encoding="UTF-8" standalone="no"?>
<!DOCTYPE svg PUBLIC "-//W3C//DTD SVG 1.1//EN" "http://www.w3.org/Graphics/SVG/1.1/DTD/svg11.dtd">
<!-- GeoHints -->
<svg width="100%" height="100%" viewBox="0 0 532 532" version="1.1" xmlns="http://www.w3.org/2000/svg" xmlns:xlink="http://www.w3.org/1999/xlink" xml:space="preserve" xmlns:serif="http://www.serif.com/" style="fill-rule:evenodd;clip-rule:evenodd;stroke-miterlimit:2.613;">
    <g transform="matrix(1.00019,0,0,1.00019,-34.4588,-186.034)">
        <g transform="matrix(10.4891,0,0,10.4891,33.4033,184.951)">
            <path d="M1.118,22.733L22.874,1.102C24.306,-0.322 26.743,-0.216 28.287,1.338L49.587,22.761C51.134,24.315 51.226,26.751 49.792,28.176L28.036,49.807C26.604,51.231 24.167,51.125 22.622,49.571L1.322,28.148C-0.223,26.594 -0.315,24.157 1.118,22.733" style="fill:rgb(255,215,0);"/>
            <path d="M2.521,23.658L23.791,2.512C24.718,1.591 26.294,1.659 27.295,2.665L48.256,23.747C49.256,24.754 49.316,26.33 48.387,27.253L27.119,48.398C26.192,49.319 24.615,49.252 23.615,48.245L2.654,27.163C1.654,26.157 1.594,24.58 2.521,23.658Z" style="fill:none;fill-rule:nonzero;stroke:black;stroke-width:1.65px;"/>
        </g>
        <g>
            <g transform="matrix(1,0,0,1,1,0)">
                <path d="M318.244,333.132L315.953,332.97C315.165,332.956 314.353,332.982 313.518,333.055C302.958,334.524 292.697,336.871 282.147,338.351C275.341,340.005 271.783,380.396 274.835,376.093L279.158,377.365C283.523,394.121 287.888,410.888 292.263,427.644C276.862,470.268 260.84,514.434 245.439,557.068C240.599,572.463 246.463,580.965 254.628,581.626L257.424,581.554C263.139,580.824 269.463,576.563 273.904,568.487C287.195,535.772 300.889,501.07 314.17,468.365C315.137,465.5 316.202,464.264 317.158,464.335L317.85,464.628C318.516,465.157 319.091,466.375 319.486,468.148C326.882,500.232 334.267,532.307 341.662,564.391C343.503,575.671 352.021,582.409 359.697,582.246L361.124,582.134C368.196,581.163 374.112,573.997 372.682,558.692C360.859,497.067 349.047,433.177 337.225,371.552C337.225,371.552 341.445,346.791 329.002,337.72C326.271,335.547 322.686,333.684 318.244,333.132Z"/>
            </g>
            <g transform="matrix(0.920694,-0.390286,0.390286,0.920694,-120.338,140.85)">
                <path d="M282.448,370.885C285.464,367.184 305.886,350.119 299.98,342.941C296.911,339.21 288.675,336.763 282.147,338.351C275.341,340.005 270.925,343.005 267.584,346.573C259.558,355.862 251.542,365.15 243.515,374.438C231.279,378.441 219.043,382.454 206.807,386.478C192.65,391.171 196.356,406.127 208.661,405.754L211.234,405.468C227.059,401.672 242.884,397.876 258.72,394.069C261.037,392.373 263.364,390.687 265.681,389.001C268.732,384.698 271.783,380.396 274.835,376.093L282.448,370.885Z"/>
            </g>
            <g transform="matrix(0.96619,0.25783,-0.25783,0.96619,101.078,-72.8926)">
                <path d="M313.301,336.909C311.661,343.225 328.785,369.051 337.225,371.552L351.416,379.687C365.697,387.994 380.18,396.686 394.268,404.599C397.999,405.949 401.057,406.526 403.491,406.518L405.719,406.321C413.815,404.808 412.198,394.918 404.052,388.588C391.599,380.354 378.805,373.176 366.341,364.943C353.888,355.862 341.445,346.791 329.002,337.72C326.271,335.547 313.9,334.603 313.301,336.909Z"/>
            </g>
            <g transform="matrix(1,0,0,1,1,0)">
                <path d="M296.359,283.179C307.426,284.303 316.063,293.65 316.063,305.014C316.063,316.379 307.436,325.725 296.36,326.849L294.114,326.963C281.992,326.963 272.166,317.137 272.166,305.014C272.166,292.892 281.992,283.066 294.114,283.066L296.359,283.179Z"/>
            </g>
            <g transform="matrix(10.3432,0,0,10.3432,38.192,189.087)">
                <path d="M7.672,29.962L10.439,25.112L12.577,25.112L9.81,31.852L7.672,29.962Z"/>
            </g>
            <g transform="matrix(10.3432,0,0,10.3432,38.192,189.087)">
                <path d="M18.05,25.238L15.094,37.205L12.515,34.748L15.723,25.05L18.05,25.238Z"/>
            </g>
            <g transform="matrix(1,0,0,1,19.0822,170.644)">
                <path d="M258.449,280.146L237.683,279.486L220.772,440.405L255.897,440.405L258.449,280.146Z"/>
            </g>
            <path d="M323.758,609.084L360.849,609.084C360.849,609.084 339.161,457.464 337.611,450.587C324.713,445.964 313.57,458.746 313.57,458.746L323.758,609.084Z"/>
            <g transform="matrix(10.3432,0,0,10.3432,38.192,189.087)">
                <path d="M34.719,25.553L32.076,25.364L35.41,37.52L37.926,35.316L34.719,25.553Z"/>
            </g>
            <g transform="matrix(10.3432,0,0,10.3432,38.192,189.087)">
                <path d="M40.064,25.553L37.926,25.428L40.945,32.482L42.958,30.718L40.064,25.553Z"/>
            </g>
        </g>
    </g>
</svg>
