<?xml version="1.0" encoding="UTF-8" standalone="no"?>
<!DOCTYPE svg PUBLIC "-//W3C//DTD SVG 1.1//EN" "http://www.w3.org/Graphics/SVG/1.1/DTD/svg11.dtd">
<!-- GeoHints -->
<svg width="100%" height="100%" viewBox="0 0 441 771" version="1.1" xmlns="http://www.w3.org/2000/svg" xmlns:xlink="http://www.w3.org/1999/xlink" xml:space="preserve" xmlns:serif="http://www.serif.com/" style="fill-rule:evenodd;clip-rule:evenodd;stroke-linejoin:round;stroke-miterlimit:2;">
    <g transform="matrix(1,0,0,1,-181.486,-12.5163)">
        <g transform="matrix(1.02427,0,0,1.00271,-11.8834,-0.0339655)">
            <rect x="188.787" y="12.516" width="429.726" height="768.709" style="fill:rgb(23,87,163);"/>
        </g>
        <g transform="matrix(0.995146,0,0,0.986431,-0.126581,6.42798)">
            <path d="M618.514,37.86C618.514,31.139 615.867,24.692 611.156,19.939C606.444,15.186 600.054,12.516 593.392,12.516L213.909,12.516C207.247,12.516 200.857,15.186 196.146,19.939C191.434,24.692 188.787,31.139 188.787,37.86L188.787,755.882C188.787,762.603 191.434,769.05 196.146,773.803C200.857,778.555 207.247,781.226 213.909,781.226L593.392,781.226C600.054,781.226 606.444,778.555 611.156,773.803C615.867,769.05 618.514,762.603 618.514,755.882L618.514,37.86Z" style="fill:white;"/>
        </g>
        <g transform="matrix(0.949029,0,0,0.96176,18.4884,16.2192)">
            <path d="M618.514,33.311C618.514,27.796 616.293,22.507 612.341,18.607C608.389,14.707 603.029,12.516 597.44,12.516L209.862,12.516C204.272,12.516 198.912,14.707 194.96,18.607C191.008,22.507 188.787,27.796 188.787,33.311L188.787,760.43C188.787,765.946 191.008,771.235 194.96,775.135C198.912,779.035 204.272,781.226 209.862,781.226L597.44,781.226C603.029,781.226 608.389,779.035 612.341,775.135C616.293,771.235 618.514,765.946 618.514,760.43L618.514,33.311Z" style="fill:rgb(23,87,163);"/>
        </g>
    </g>
    <g transform="matrix(1,0,0,1,-181.486,-12.5163)">
        <path d="M428.58,597.19C434.4,588.38 443.46,581.7 452.03,575.62C474.3,601.133 493.003,624.943 512.66,647.59C515.4,629.59 518.607,607.867 520.687,582.803C529.71,592.187 543.45,604.88 552.34,614.79C549.54,638.087 545.34,676.29 542.06,697.01C541.75,702.76 537.37,706.77 533.5,710.48C499.434,710.597 483.659,710.657 445.53,710.5C437.255,700.298 412.475,670.285 412.46,670.03C438.947,670.127 452.113,669.03 484.233,670.07C472.63,652.087 448.243,622.017 428.58,597.19Z" style="fill:white;fill-rule:nonzero;"/>
    </g>
    <g transform="matrix(1,0,0,1,-1.42239,-8)">
        <g transform="matrix(1.09718,0,0,1.09718,21.0968,31.0667)">
            <g transform="matrix(0.666375,0.666375,-0.666375,0.666375,219.82,-87.3894)">
                <path d="M316.287,104.873C316.287,100.651 314.61,96.603 311.625,93.618C308.64,90.633 304.591,88.956 300.37,88.956L49.099,88.956C44.877,88.956 40.829,90.633 37.844,93.618C34.859,96.603 33.182,100.651 33.182,104.873L33.182,356.144C33.182,360.365 34.859,364.414 37.844,367.399C40.829,370.384 44.877,372.061 49.099,372.061L295.064,372.061C306.785,372.061 316.287,362.559 316.287,350.838L316.287,104.873Z" style="fill:white;"/>
            </g>
            <g transform="matrix(1,0,0,1,-6,-5.75404)">
                <path d="M359.569,199.015C365.427,193.157 365.427,183.659 359.569,177.802C327.435,145.668 231.394,49.627 199.261,17.494C193.403,11.636 183.905,11.636 178.048,17.494C145.914,49.627 49.873,145.668 17.74,177.802C11.882,183.659 11.882,193.157 17.74,199.015C49.873,231.148 145.914,327.189 178.048,359.323C183.905,365.181 193.403,365.181 199.261,359.323C231.394,327.189 327.435,231.148 359.569,199.015ZM353.758,195.495C357.663,191.59 357.663,185.259 353.758,181.353C325.863,153.459 223.62,51.215 195.725,23.321C191.82,19.416 185.488,19.416 181.583,23.321C153.688,51.215 51.445,153.459 23.551,181.353C19.645,185.259 19.645,191.59 23.551,195.495C51.445,223.39 153.688,325.633 181.583,353.528C185.488,357.433 191.82,357.433 195.725,353.528C223.62,325.633 325.863,223.39 353.758,195.495Z"/>
            </g>
        </g>
        <g transform="matrix(1,0,0,1,-181.486,-12.5163)">
            <path d="M536.17,299.729L526.507,244.166L499.173,244.166L512.886,323.013L536.17,299.729Z"/>
            <path d="M492.725,343.174L475.507,244.166L448.173,244.166L469.441,366.458L492.725,343.174Z"/>
            <path d="M587.334,244.166L550.173,244.166L556.33,279.569L584.136,251.763C586.238,249.661 587.308,246.919 587.334,244.166Z"/>
            <g transform="matrix(-1,0,0,1,803.912,0)">
                <path d="M512.58,321.255L535.864,297.971L526.507,244.166L499.173,244.166L512.58,321.255Z"/>
            </g>
            <g transform="matrix(-1,0,0,1,803.912,0)">
                <path d="M469.136,364.7L492.42,341.416L475.507,244.166L448.173,244.166L469.136,364.7Z"/>
            </g>
            <g transform="matrix(-1,0,0,1,803.912,0)">
                <path d="M556.024,277.811L550.173,244.166L585.271,244.166C585.245,246.919 584.174,249.661 582.072,251.763L556.024,277.811Z"/>
            </g>
            <g transform="matrix(0.940476,0,-0.0469985,1.00803,57.9252,-3.20046)">
                <path d="M376.507,305.082L397.507,367.332L355.507,367.332L376.507,305.082Z"/>
            </g>
        </g>
        <g transform="matrix(1,0,0,1,-181.486,-12.5163)">
            <path d="M409.85,160.6C413.6,159.77 417.17,161.54 419.55,164.39C436.18,181.79 452.79,199.21 469.26,216.75C475.03,222.3 469.88,233.82 462,233.37C447.1,226.46 439.12,207.87 422.63,204.21C421.87,219.68 427.08,234.54 429,249.74C435.53,280.62 441.53,311.6 447.45,342.61C448.74,349.61 452.52,359.16 445.06,364.06C439.04,369.95 429.03,366.48 425.79,359.36C415.733,329.18 410.653,303.423 402.47,272.51C394.18,276.84 397.563,274.323 393.883,281.963C385.133,299.323 371.09,337.613 362.86,355.223C359.75,362.803 359.64,365.75 350.43,367.55C344.3,369.11 338.621,363.455 340.43,357.38C348.565,330.053 355.763,308.293 367.83,270.01C371.953,259.773 370.69,250.44 369.04,240.88C367.7,227.57 366.32,214.24 364.15,201.03C357.31,202.84 355.69,210.16 351.03,214.36C339.93,221.84 328.82,229.95 315.93,234.04C309.88,236.24 303.09,230.04 305.78,223.83C310.47,209.9 329.43,211.59 337.09,200.16C342.32,192.09 347.8,184.2 353.4,176.39C356.99,171.55 360.31,164.86 367.04,164.23C381.3,162.98 395.69,162.91 409.85,160.6Z" style="fill-rule:nonzero;"/>
            <path d="M379.12,117.87C399.64,110.66 411.93,142.44 394.82,153.06C386.64,162.04 373.59,154.73 368.66,146.01C362.54,135.94 368.49,121.96 379.12,117.87Z" style="fill-rule:nonzero;"/>
        </g>
    </g>
</svg>
