<?xml version="1.0" encoding="UTF-8" standalone="no"?><!DOCTYPE svg PUBLIC "-//W3C//DTD SVG 1.1//EN" "http://www.w3.org/Graphics/SVG/1.1/DTD/svg11.dtd"><svg width="100%" height="100%" viewBox="0 0 1182 1182" version="1.1" xmlns="http://www.w3.org/2000/svg" xmlns:xlink="http://www.w3.org/1999/xlink" xml:space="preserve" xmlns:serif="http://www.serif.com/" style="fill-rule:evenodd;clip-rule:evenodd;stroke-linejoin:round;stroke-miterlimit:2;"><g id="Layer-1" serif:id="Layer 1"><g id="g4002"><path id="path4004" d="M77.479,2.674l1026.15,0c37.404,0 74.808,31.98 74.808,74.747l0,1026.27c0,37.405 -37.404,74.747 -74.808,74.747l-1026.15,-0c-42.775,-0 -74.808,-37.342 -74.808,-74.747l-0,-1026.27c-0,-42.767 32.033,-74.747 74.808,-74.747Z" style="fill:#fff;fill-rule:nonzero;"/><path id="path4006" d="M77.483,0c-44.106,0 -77.483,33.32 -77.483,77.42l-0,1026.27c-0,38.929 33.153,77.42 77.483,77.42l1026.14,0c19.59,0 38.869,-9.696 53.316,-24.127c14.447,-14.431 24.158,-33.701 24.158,-53.293l0,-1026.27c0,-44.323 -38.548,-77.42 -77.474,-77.42l-1026.14,0Zm-0,5.349l1026.14,-0c35.881,-0 72.133,30.862 72.133,72.071l0,1026.27c0,17.812 -8.984,35.921 -22.59,49.512c-13.606,13.592 -31.73,22.567 -49.543,22.567l-1026.14,0c-41.221,0 -72.142,-36.2 -72.142,-72.079l-0,-1026.27c-0,-41.432 30.698,-72.071 72.142,-72.071Z" style="fill-rule:nonzero;"/></g><path id="path6369" d="M77.479,23.873l1020.78,-0c32.097,-0 58.823,26.682 58.823,58.725l-0,1015.79c-0,31.98 -26.726,58.725 -58.823,58.725l-1020.78,-0c-32.097,-0 -53.452,-26.745 -53.452,-58.725l-0,-1015.79c-0,-32.043 21.355,-58.725 53.452,-58.725Z" style="fill:#0070fd;"/><path id="path8150" d="M71.652,1015.63l1049.12,0l-524.558,-914.112l-524.558,914.112Z" style="fill:#fff;"/><path d="M556.15,853.963c-6.15,5.421 -15.475,8.777 -18.65,11.671c-2.02,1.84 -2.826,3.447 -3.505,5.217c-0.68,1.77 0.444,7.948 -0.904,10.033c-2.694,4.166 -8.08,7.924 -12.933,9.324c-4.854,1.399 -9.051,-0.023 -13.285,-3.017c-4.235,-2.988 -8.793,-7.36 -13.211,-8.745c-4.418,-1.387 -10.022,-0.048 -18.532,-3.111c-6.115,-2.199 -13.487,-12.625 -21.199,-17.633l-58.798,126.171l138.79,0l22.227,-129.91Zm84.943,-14.467l24.704,144.376l138.79,0l-46.814,-100.469c-9.395,0.12 -18.511,0.29 -24.691,1.636c-6.891,1.474 -10.154,4.311 -14.202,5.838c-4.048,1.526 -8.882,1.735 -15.613,1.996c-6.731,0.232 -15.36,0.58 -21.408,-1.311c-6.048,-1.891 -9.517,-5.995 -10.255,-9.94c-0.738,-3.946 1.259,-7.73 5.993,-11.517c4.734,-3.789 12.204,-7.578 14.781,-13.149c2.245,-4.851 0.751,-11.072 -1.195,-17.461l-50.09,0.001Zm176.588,-0l106.69,144.376l138.79,0l-149.26,-144.376l-96.22,-0Zm-544.47,-0l-149.266,144.376l138.79,0l106.69,-144.376l-96.214,-0Z"/><path d="M580.096,291.892c-4.773,-0.028 -8.315,5.095 -8.315,12.022c0,7.279 -5.275,13.162 -11.806,13.162c-10.46,-0 -9.054,10.706 2.167,16.506c5.7,2.947 5.765,3.156 5.765,19.314l0,16.339l8.493,5.845c8.881,6.107 10.901,9.172 10.901,16.536c0,6.98 -6.672,13.73 -23.379,23.663c-8.514,5.06 -16.674,11.025 -18.131,13.247c-1.457,2.223 -4.07,10.92 -5.808,19.321c-4.046,19.553 -9.016,29.318 -23.607,46.401c-13.303,15.574 -28.963,30.297 -60.006,56.397c-20.97,17.631 -21.547,17.958 -33.332,18.982c-6.595,0.58 -12.921,1.618 -14.061,2.321c-1.139,0.701 -2.066,6.242 -2.063,12.311c0.015,23.621 17.71,36.048 28.497,20.01c3.587,-5.332 5.755,-6.599 11.776,-6.892c4.739,-0.231 16.967,-5.181 34.176,-13.826c23.933,-12.026 29.011,-15.511 47.46,-32.618c23.265,-21.573 31.799,-26.906 35.9,-22.424c1.694,1.851 4.007,18.909 6.818,50.306l4.249,47.497l-15.471,30.56c-8.51,16.807 -18.916,35.564 -23.12,41.683c-5.217,7.595 -8.994,16.363 -11.905,27.611c-2.346,9.064 -7.773,28.694 -12.059,43.623c-4.286,14.929 -10.648,38.482 -14.135,52.344c-4.63,18.408 -7.193,25.372 -9.503,25.83c-1.74,0.349 -7.98,-1.729 -13.87,-4.607c-8.135,-3.98 -12.406,-4.961 -17.774,-4.091c-12.849,2.084 -12.479,4.346 3.134,19.081l14.418,13.605l12.213,-1.312l12.213,-1.305l3.221,6.75c3.215,6.737 8.143,9.06 19.204,9.06c4.969,-0 5.895,-1.683 7.76,-14.11c1.207,-8.043 1.862,-8.898 7.717,-9.996c3.52,-0.661 7.363,-2.356 8.536,-3.771c1.173,-1.41 6.521,-18.622 11.881,-38.241c8.605,-31.501 11.297,-38.506 23.04,-59.907c24.856,-45.3 32.171,-56.237 37.606,-56.219c1.293,0.004 7.337,9.823 13.426,21.815c6.09,11.992 23.493,44.488 38.678,72.213c29.087,53.107 31.802,60.65 23.86,66.3c-2.081,1.48 -7.488,5.274 -12.022,8.438c-10.195,7.106 -10.888,12.551 -1.947,15.299l0.007,-0c11.12,3.412 29.737,1.201 37.988,-4.515c5.523,-3.823 9.707,-5.059 17.103,-5.059c5.384,-0 12.542,-0.964 15.902,-2.13c5.678,-1.979 6.103,-2.762 6.103,-11.197c0,-4.99 -1.293,-10.922 -2.876,-13.18c-1.637,-2.338 -2.74,-7.745 -2.562,-12.552c0.273,-7.387 -3.118,-14.995 -27.093,-60.788c-15.073,-28.791 -30.286,-59.327 -33.806,-67.858c-6.235,-15.113 -6.396,-16.209 -6.245,-42.657c0.092,-14.928 0.856,-38.936 1.713,-53.348c1.74,-29.303 -0.605,-56.637 -6.935,-80.792c-4.677,-17.849 -4.329,-32.253 0.801,-33.227c5.901,-1.12 11.551,4.079 46.967,43.229c30.809,34.054 34.18,38.462 33.788,44.147c-0.768,11.132 0.046,14.956 4.009,18.92c10.324,10.318 34.76,-0.673 38.05,-17.115c1.11,-5.548 0.354,-7.13 -6.627,-13.766c-5.55,-5.274 -9.957,-12.488 -14.867,-24.346c-24.821,-59.93 -62.263,-111.786 -96.288,-133.345c-13.114,-8.31 -21.294,-11.129 -32.285,-11.129c-7.232,-0 -9.706,-1.068 -15.231,-6.59c-5.594,-5.594 -6.596,-7.952 -6.596,-15.534c-0,-13.456 7.391,-44.12 11.751,-48.759c4.839,-5.141 4.812,-10.902 -0.064,-13.944c-2.109,-1.317 -5.617,-5.89 -7.797,-10.162c-3.55,-6.958 -4.717,-7.772 -11.197,-7.791c-3.978,-0.015 -14.655,-2.617 -23.724,-5.791c-9.069,-3.168 -18.424,-5.785 -20.786,-5.796l0.002,0.002Z"/></g></svg>