<?xml version="1.0" encoding="UTF-8" standalone="no"?>
<svg xmlns:dc="http://purl.org/dc/elements/1.1/" xmlns:cc="http://creativecommons.org/ns#" xmlns:rdf="http://www.w3.org/1999/02/22-rdf-syntax-ns#" xmlns:svg="http://www.w3.org/2000/svg" xmlns="http://www.w3.org/2000/svg" xmlns:sodipodi="http://sodipodi.sourceforge.net/DTD/sodipodi-0.dtd" xmlns:inkscape="http://www.inkscape.org/namespaces/inkscape" width="2170" height="2170" id="svg2" version="1.1" inkscape:version="0.92.3 (2405546, 2018-03-11)" sodipodi:docname="Cambodia_road_sign_G4-03.svg.2018_05_18_14_07_37.1.svg">
  <metadata id="metadata16">
    <rdf:RDF>
      <cc:Work rdf:about="">
        <dc:format>image/svg+xml</dc:format>
        <dc:type rdf:resource="http://purl.org/dc/dcmitype/StillImage"/>
        <dc:title/>
      </cc:Work>
    </rdf:RDF>
  </metadata>
  <defs id="defs14">
    <path id="Oct" d="M 500,-207.10678 500,207.10678 207.10678,500 -207.10678,500 -500,207.10678 -500,-207.10678 -207.10678,-500 l 414.21356,0 z" inkscape:connector-curvature="0"/>
    <path inkscape:connector-curvature="0" d="M 500,-207.10678 500,207.10678 207.10678,500 -207.10678,500 -500,207.10678 -500,-207.10678 -207.10678,-500 l 414.21356,0 z" id="Oct-4"/>
  </defs>
  <sodipodi:namedview pagecolor="#ffffff" bordercolor="#666666" borderopacity="1" objecttolerance="10" gridtolerance="10" guidetolerance="10" inkscape:pageopacity="0" inkscape:pageshadow="2" inkscape:window-width="1600" inkscape:window-height="838" id="namedview12" showgrid="false" inkscape:zoom="0.23742271" inkscape:cx="920.87372" inkscape:cy="792.71933" inkscape:window-x="-8" inkscape:window-y="-8" inkscape:window-maximized="1" inkscape:current-layer="svg2" fit-margin-top="0" fit-margin-left="0" fit-margin-right="0" fit-margin-bottom="0"/>
  <path inkscape:connector-curvature="0" style="fill:#ffffff;fill-rule:nonzero;stroke:#000000;stroke-width:10;stroke-linecap:butt;stroke-linejoin:miter;stroke-miterlimit:4;stroke-opacity:1;stroke-dasharray:none" d="m 2165,2030 c 0,74.5625 -60.4375,135 -135,135 l -1890,0 C 65.440625,2165 5,2104.5625 5,2030 L 5,140 C 5,65.4406 65.440625,5 140,5 l 1890,0 c 74.5625,0 135,60.4406 135,135 l 0,1890 z" id="path11"/>
  <path inkscape:connector-curvature="0" style="fill:#000064;fill-rule:nonzero;stroke:none;fill-opacity:1" d="m 140,2120 c -49.6265,0 -90,-40.375 -90,-90 L 50,140 C 50,90.3735 90.3735,50 140,50 l 1890,0 c 49.625,0 90,40.3735 90,90 l 0,1890 c 0,49.625 -40.375,90 -90,90 l -1890,0 z" id="path13"/>
  <rect style="fill:#000064;fill-opacity:1" id="rect3707" width="355.93219" height="372.88135" x="786.55841" y="1225.4178"/>
  <path sodipodi:nodetypes="cccc" inkscape:connector-curvature="0" id="path1968-0-3" d="M 214.68938,1951.0133 1959.1789,1950.0285 1092.4179,207.17818 C 956.96779,457.96105 387.93901,1623.1519 214.68938,1951.0133 Z" style="fill:#ffffff;fill-opacity:1;fill-rule:nonzero;stroke:none;stroke-width:1.70445204"/>
  <g id="g1155" transform="matrix(3.8363374,0,0,3.8363374,178.81851,121.02536)" style="fill:#000000;fill-opacity:1">
    <path sodipodi:nodetypes="ccscccccccccccccccccccccccccccccccccccccccccccccccccccccccccscc" inkscape:connector-curvature="0" id="path15" d="m 233.49414,218.83203 -1.80078,0.31836 c -9.93396,-0.008 -15.48366,8.15588 -16.00586,12.6543 -0.5492,4.731 -0.0791,9.18145 0.80078,11.79687 0.88484,2.65895 6.55136,6.30468 7.14649,6.69336 0.50074,0.36637 2.21142,1.71575 1.95117,1.96094 -0.33137,0.17123 -9.76965,4.66924 -12.29688,5.53906 -2.65817,1.74109 -4.5852,7.44598 -6.39844,10.08985 -1.79845,2.62538 -5.90995,10.30132 -9.05273,14.52343 -4.54382,1.74646 -5.93447,2.38684 -9.88477,3.6211 -3.43056,1.72927 -6.44517,2.51017 -7.5,3.22656 -4.82338,-2.85209 -9.67785,-3.10001 -12.63085,7.02148 0.2204,3.24993 1.57704,3.92633 3.60937,5.79102 2.30931,1.70982 7.57604,0.27451 8.49219,0.38086 0.94148,-0.75045 2.15201,-2.45387 3,-2.35547 0.9476,0.11 1.92265,0.13959 4.10742,-0.20117 2.18493,-0.3761 15.00112,-4.44932 23.0918,-5.85352 5.30965,-5.8285 3.50186,-4.24956 6.82812,-10.03515 0.17546,4.57929 1.13577,16.87303 1.60156,20.49609 -0.39633,3.4141 -0.0492,14.8149 0.12891,19.16602 -1.31095,2.89988 -3.7223,13.33108 -5.39062,14.8125 -1.67142,1.5253 -4.74855,15.65521 -6.55664,18.45507 -1.76107,2.88111 -3.13287,9.94643 -3.74024,12.30079 -0.70551,2.3758 -0.34523,36.88513 -0.34523,36.88513 0,0 -8.26572,3.72763 -13.72577,6.42911 -1.77657,0.53077 -1.28078,4.54012 -0.30791,5.34786 0.98944,0.85387 30.6211,-4.79492 30.6211,-4.79492 0,0 2.06912,-41.44636 3.39258,-44.65429 1.44589,-3.27268 2.83165,-8.1089 4.98632,-10.89063 2.14808,-2.82798 5.24818,-12.21929 7.19727,-14.35156 1.94056,-4.16386 2.41016,-5 2.41016,-5 0,0 0.83207,2.90343 1.52264,5.34212 0.776,2.49219 1.23267,7.63688 2.52228,13.98405 1.23381,3.61174 2.17797,8.27911 3.11502,11.27872 6.85463,13.27775 19.67466,34.85372 19.67466,34.85372 l -4.75843,7.69569 c -1.30341,0.60165 3.1893,3.78152 3.91015,3.86523 0.75167,0.0872 19.82279,-11.10917 20.14063,-11.07227 0.42529,0.0494 -0.95498,-1.27211 -1.44727,-3.40429 -1.22154,-2.70029 -2.6328,-5.98363 -3.09765,-7.12305 -0.98112,-0.731 -4.3118,-7.66022 -7.62305,-13.5957 -3.62335,-6.50866 -8.03124,-20.48385 -9.60937,-28.20508 -0.98265,-6.01072 -4.2638,-21.77044 -5.43165,-27.38672 0.32478,-6.13947 2.21698,-33.2713 2.80274,-41.16797 0,0 3.11526,0.857 4.77539,1.90039 1.87665,1.02054 1.66418,1.05824 7.89453,4.89649 0.93229,2.14714 0.68905,19.83781 0.41992,22.15625 -0.11988,1.03266 -2.12252,3.44508 -3.56445,4.73828 -1.46037,1.30976 0.0942,2.49131 -0.0645,3.85742 -0.303,2.61013 1.79112,5.21681 2.96875,5.35352 1.63086,0.17228 3.58739,0.16009 5.75,0.34179 2.0031,0.16831 4.20519,-0.62389 5.59765,-1.06445 1.88798,-0.69608 3.17019,-4.03519 3.40235,-6.03516 0.23361,-2.01243 -1.43946,-3.23437 -1.43946,-3.23437 0,0 1.05862,-2.34253 1.31641,-4.5625 0.26501,-2.28292 -0.0572,-7.47389 0.73633,-14.10742 0.18443,-6.33782 0.55909,-11.86745 -0.4961,-16.75782 -1.91148,-4.69704 -17.7286,-16.33799 -23.00585,-19.77148 -3.36771,-4.83429 -9.84879,-6.86072 -12.55665,-9.59375 -2.7127,-1.32271 -2.68397,-1.35357 -3.5039,-2.6836 -1.25338,-2.06441 2.34853,-3.12491 3.31055,-11.4121 0.68688,-5.91703 -2.91907,-16.92321 -14.19727,-18.23243 -0.70403,-0.0817 -2.13071,-0.22602 -2.79297,-0.22656 z" style="clip-rule:evenodd;fill:#000000;fill-opacity:1;fill-rule:evenodd;stroke:none;stroke-width:0.64337337"/>
    <path style="fill:#000000;fill-opacity:1;fill-rule:nonzero;stroke:none;stroke-width:0.44467425" d="m 74.44381,448.60661 -5.385736,9.86101 39.244946,0.34233 3.38094,-10.05362 c -37.24015,-0.14972 -31.680692,0.1102 -37.24015,-0.14972 z" id="path1968-0" inkscape:connector-curvature="0" sodipodi:nodetypes="ccccc"/>
    <path sodipodi:nodetypes="ccccc" inkscape:connector-curvature="0" id="path1968-0-6" d="m 165.2168,447.86523 -1.35935,10.07124 36.48991,-0.08 0.62662,-9.63097 c -37.24015,-0.14972 -30.19773,-0.10038 -35.75718,-0.3603 z" style="fill:#000000;fill-opacity:1;fill-rule:nonzero;stroke:none;stroke-width:0.44467425"/>
    <path sodipodi:nodetypes="ccccc" inkscape:connector-curvature="0" id="path1968-0-6-0" d="m 270.30108,448.56609 1.39489,9.64751 35.00685,-0.50373 -1.06829,-9.4191 c -37.24015,-0.14972 -29.774,0.53524 -35.33345,0.27532 z" style="fill:#000000;fill-opacity:1;fill-rule:nonzero;stroke:none;stroke-width:0.44467425"/>
    <path sodipodi:nodetypes="ccccc" inkscape:connector-curvature="0" id="path1968-0-6-0-2" d="m 362.9432,448.5027 5.20845,9.43564 29.49838,0.34373 -5.72931,-9.4191 c -37.24015,-0.14972 -23.41807,-0.10035 -28.97752,-0.36027 z" style="fill:#000000;fill-opacity:1;fill-rule:nonzero;stroke:none;stroke-width:0.44467425"/>
    <path sodipodi:nodetypes="ccccc" inkscape:connector-curvature="0" id="path1968-0-6-0-2-5" d="m 330.52794,367.14421 4.78472,10.2831 29.07465,0.13186 -4.88185,-10.05469 c -37.24015,-0.14972 -23.41807,-0.10035 -28.97752,-0.36027 z" style="fill:#000000;fill-opacity:1;fill-rule:nonzero;stroke:none;stroke-width:0.44467425"/>
    <path sodipodi:nodetypes="ccccc" inkscape:connector-curvature="0" id="path1968-0-6-0-2-5-9" d="m 254.04489,367.67387 4.78472,10.2831 30.34584,-0.29187 -1.70389,-9.4191 c -37.24015,-0.14972 -27.86722,-0.31221 -33.42667,-0.57213 z" style="fill:#000000;fill-opacity:1;fill-rule:nonzero;stroke:none;stroke-width:0.44467425"/>
    <path sodipodi:nodetypes="ccccc" inkscape:connector-curvature="0" id="path1968-0-6-0-2-5-9-0" d="m 183.49405,367.7398 -2.20681,9.85937 33.52381,-0.50373 -1.70389,-9.4191 c -37.24015,-0.14972 -24.05366,0.32338 -29.61311,0.0635 z" style="fill:#000000;fill-opacity:1;fill-rule:nonzero;stroke:none;stroke-width:0.44467425"/>
    <path sodipodi:nodetypes="cccccc" inkscape:connector-curvature="0" id="path1968-0-6-0-2-5-9-0-5" d="m 112.13982,367.15098 -5.17291,10.91865 29.28652,0.13186 4.86391,-10.47842 c -37.24015,-0.14972 -23.41807,-0.31221 -28.97752,-0.57209 z" style="fill:#000000;fill-opacity:1;fill-rule:nonzero;stroke:none;stroke-width:0.44467425"/>
  </g>
</svg>