<?xml version="1.0" encoding="UTF-8" standalone="no"?>
<!-- Created with Inkscape (http://www.inkscape.org/) -->
<svg xmlns:dc="http://purl.org/dc/elements/1.1/" xmlns:cc="http://creativecommons.org/ns#" xmlns:rdf="http://www.w3.org/1999/02/22-rdf-syntax-ns#" xmlns:svg="http://www.w3.org/2000/svg" xmlns="http://www.w3.org/2000/svg" xmlns:sodipodi="http://sodipodi.sourceforge.net/DTD/sodipodi-0.dtd" xmlns:inkscape="http://www.inkscape.org/namespaces/inkscape" width="606mm" height="756mm" viewBox="0 0 606 756" version="1.1" id="svg8" inkscape:version="0.92.4 (5da689c313, 2019-01-14)" sodipodi:docname="drawing.svg">
  <defs id="defs2"/>
  <sodipodi:namedview id="base" pagecolor="#ffffff" bordercolor="#666666" borderopacity="1.0" inkscape:pageopacity="0.0" inkscape:pageshadow="2" inkscape:zoom="0.24748737" inkscape:cx="2194.5808" inkscape:cy="1262.71" inkscape:document-units="mm" inkscape:current-layer="layer1" showgrid="false" showguides="false" inkscape:window-width="1920" inkscape:window-height="1057" inkscape:window-x="-8" inkscape:window-y="-8" inkscape:window-maximized="1"/>
  <metadata id="metadata5">
    <rdf:RDF>
      <cc:Work rdf:about="">
        <dc:format>image/svg+xml</dc:format>
        <dc:type rdf:resource="http://purl.org/dc/dcmitype/StillImage"/>
        <dc:title/>
      </cc:Work>
    </rdf:RDF>
  </metadata>
  <g inkscape:label="Layer 1" inkscape:groupmode="layer" id="layer1" transform="translate(0,459)">
    <rect style="fill:#000000;fill-opacity:1;stroke:none;stroke-width:270.85928345;stroke-linecap:round;stroke-linejoin:round;stroke-miterlimit:1.41400003;stroke-dasharray:none;stroke-opacity:1" id="rect18" width="604" height="754" x="1" y="-458" rx="42" ry="42"/>
    <rect ry="40" rx="40" y="-456" x="3" height="750" width="600" id="rect20" style="fill:#ffffff;fill-opacity:1;stroke:none;stroke-width:269.24389648;stroke-linecap:round;stroke-linejoin:round;stroke-miterlimit:1.41400003;stroke-dasharray:none;stroke-opacity:1"/>
    <rect style="fill:#000000;fill-opacity:1;stroke:none;stroke-width:259.14483643;stroke-linecap:round;stroke-linejoin:round;stroke-miterlimit:1.41400003;stroke-dasharray:none;stroke-opacity:1" id="rect1284" width="575" height="725" x="15.5" y="-443.5" rx="27.5" ry="27.5"/>
    <rect ry="15" rx="15" y="-431" x="28" height="700" width="550" id="rect1286" style="fill:#ffffff;fill-opacity:1;stroke:none;stroke-width:249.04049683;stroke-linecap:round;stroke-linejoin:round;stroke-miterlimit:1.41400003;stroke-dasharray:none;stroke-opacity:1"/>
    <path inkscape:connector-curvature="0" id="path1831" style="fill:#000000;fill-opacity:1;fill-rule:nonzero;stroke:none;stroke-width:1.96229136" d="M 437,-206 H 541 L 169,194 H 65 Z" sodipodi:nodetypes="ccccc"/>
    <path sodipodi:nodetypes="ccccc" d="M 169,-206 H 65 l 372,400 h 104 z" style="fill:#000000;fill-opacity:1;fill-rule:nonzero;stroke:none;stroke-width:1.96229136" id="path1833" inkscape:connector-curvature="0"/>
    <path inkscape:connector-curvature="0" id="path1835" style="fill:#000000;fill-opacity:1;fill-rule:nonzero;stroke:none;stroke-width:1.90314674" d="m 99.198549,-319.0496 c -0.9954,6.77628 -4.816459,13.45677 -10.053969,16.73617 -2.14744,1.31669 -4.54219,1.94389 -7.06695,2.15119 l -14.34505,0.03 v 42.34123 H 56.57 v -96.95063 h 22.06757 c 3.96136,0.14 8.05196,0.22 11.18168,2.82579 4.62314,3.3936 7.936199,9.31879 9.251999,15.33398 1.042591,4.72629 1.115981,9.76948 0.61149,14.79947 z"/>
    <path inkscape:connector-curvature="0" id="path1837" style="fill:#ffffff;fill-opacity:1;fill-rule:nonzero;stroke:none;stroke-width:1.90314674" d="m 81.38909,-340.78337 c 2.29519,0.193 4.41587,1.7971 5.59506,4.3388 1.09185,2.39469 1.5734,5.10349 1.72008,7.97588 0.032,3.4401 -0.4079,6.64329 -1.32976,9.58919 -1.26189,3.35369 -4.08148,5.22989 -7.0142,5.24369 H 67.73258 v -27.14756 h 13.65389 z"/>
    <path inkscape:connector-curvature="0" id="path1839" style="fill:#000000;fill-opacity:1;fill-rule:nonzero;stroke:none;stroke-width:1.90314674" d="m 119.61914,-303.17853 v 31.70014 h 29.1987 v 13.69088 h -40.57477 v -96.63673 h 38.511 v 13.51357 h -27.13493 v 24.22876 h 16.9909 v 13.50338 z"/>
    <path inkscape:connector-curvature="0" id="path1841" style="fill:#000000;fill-opacity:1;fill-rule:nonzero;stroke:none;stroke-width:1.90314674" d="m 162.90276,-257.78751 v -96.51963 l 20.08341,-0.004 c 7.36167,0.281 13.91498,5.16399 17.84192,12.95948 2.78604,5.20679 3.77861,11.31308 4.65019,17.49186 0.8346,7.83919 1.22563,16.17198 0.90799,24.19166 l -0.46779,7.58839 c -0.8948,7.12098 -1.48314,14.40927 -4.14809,20.64836 -4.402,8.36339 -11.45624,13.55348 -19.42918,13.64348 h -19.43859 z"/>
    <path inkscape:connector-curvature="0" id="path1843" style="fill:#ffffff;fill-opacity:1;fill-rule:nonzero;stroke:none;stroke-width:1.90314674" d="m 181.9872,-340.73317 c 2.41889,0.331 4.6594,1.1792 6.6203,2.8222 4.31813,4.18809 4.84593,10.48768 5.68144,16.51947 1.75352,13.49408 0.85869,27.93575 -1.61974,40.75513 -0.578,3.21999 -2.84906,6.01509 -5.21414,7.58848 -1.43573,0.912 -2.95978,1.5695 -4.71592,1.5695 h -8.67767 l -0.01,-69.25858 7.93223,0.004 z"/>
    <path inkscape:connector-curvature="0" id="path1845" style="fill:#000000;fill-opacity:1;fill-rule:nonzero;stroke:none;stroke-width:1.90314674" d="m 230.91902,-303.17853 v 31.70014 h 29.20122 v 13.69088 h -40.57467 v -96.63673 h 38.5109 v 13.51357 h -27.13745 v 24.22876 h 16.9907 v 13.50338 z"/>
    <path inkscape:connector-curvature="0" id="path1847" style="fill:#000000;fill-opacity:1;fill-rule:nonzero;stroke:none;stroke-width:1.90314674" d="m 293.78123,-320.0551 c 4.24882,2.37149 8.3969,5.47709 12.10096,9.44228 2.8827,3.0359 4.71243,6.79289 6.56359,10.45708 1.85289,4.38519 3.0191,9.11149 3.59333,14.14168 0.431,7.13488 -0.8213,13.95857 -4.26801,19.39206 -3.84163,6.08579 -9.27226,9.66349 -15.28478,10.53128 -2.68831,0.284 -5.17973,-0.134 -7.63478,-0.76499 -2.43838,-0.808 -4.72251,-2.1513 -6.88032,-3.7979 -2.4189,-2.24419 -5.14356,-4.99949 -6.39334,-8.30688 -2.35762,-4.7253 -3.53304,-10.09629 -3.3593,-15.93138 h 11.29521 c 0.048,4.1279 0.2611,7.58479 2.51845,10.59099 2.80902,4.01169 7.20084,5.35719 11.24964,3.98199 2.34454,-0.886 4.68917,-2.9636 5.89163,-5.77549 3.06555,-6.17869 1.04173,-14.14168 -1.74334,-19.67647 -2.11137,-3.89079 -5.11758,-7.16748 -8.35686,-9.30848 l -7.46212,-4.48549 c -2.69859,-1.8567 -5.63045,-4.04139 -7.44456,-7.51139 -2.39466,-3.98189 -3.82758,-8.51388 -3.89079,-13.64727 -0.171,-3.6344 0.3674,-7.19449 1.47577,-10.33709 1.95053,-5.05729 5.54494,-10.48788 9.95992,-12.64287 5.0571,-3.0052 12.44193,-3.219 17.3755,0.301 2.19398,1.40319 4.28111,3.21349 6.1183,5.59429 3.00622,4.23179 4.80996,9.79628 4.87317,15.51497 h -11.13932 c -0.1468,-4.05539 -2.56469,-7.88569 -5.6573,-9.33548 -2.87241,-1.4236 -6.25964,-0.779 -8.60049,1.61619 -2.36867,2.5721 -3.92529,6.11919 -3.08979,10.12988 0.5612,3.247 2.51178,6.56719 5.15007,7.92949 0.95519,0.658 2.04447,1.3464 3.03956,1.8976 z"/>
    <path inkscape:connector-curvature="0" id="path1849" style="fill:#000000;fill-opacity:1;fill-rule:nonzero;stroke:none;stroke-width:1.90314674" d="m 361.69064,-342.16986 -14.48922,-0.002 v 84.38515 h -11.1652 v -84.38525 l -14.13146,0.002 v -12.20798 h 39.78588 z"/>
    <path inkscape:connector-curvature="0" id="path1851" style="fill:#000000;fill-opacity:1;fill-rule:nonzero;stroke:none;stroke-width:1.90314674" d="m 412.50484,-317.74771 c -1.60947,5.16759 -5.51605,9.90969 -9.36688,12.30538 l 11.41882,47.65482 h -11.64374 l -10.82782,-44.87622 h -10.26096 v 44.87622 c -3.61408,0.01 -7.88975,-0.02 -11.2257,0 v -96.53633 l 27.09015,0.004 c 9.44696,0 15.28827,11.78678 15.93881,20.07596 0.3269,5.41769 0.4348,11.48298 -1.12268,16.49647 z"/>
    <path inkscape:connector-curvature="0" id="path1853" style="fill:#ffffff;fill-opacity:1;fill-rule:nonzero;stroke:none;stroke-width:1.90314674" d="m 396.00663,-340.81307 c 2.20977,0.107 4.28207,1.4523 5.42327,3.8779 1.86405,3.75319 1.78969,9.15408 0.9683,13.46317 -0.5131,2.9021 -2.60388,5.70109 -4.98641,6.46309 l -1.33819,0.394 -14.24937,-0.004 v -24.16466 z"/>
    <path inkscape:connector-curvature="0" id="path1855" style="fill:#000000;fill-opacity:1;fill-rule:nonzero;stroke:none;stroke-width:1.90314674" d="m 439.74748,-257.78751 v -96.95073 h -11.50986 v 96.95073 z"/>
    <path inkscape:connector-curvature="0" id="path1857" style="fill:#000000;fill-opacity:1;fill-rule:nonzero;stroke:none;stroke-width:1.90314674" d="m 467.27836,-354.53094 h 11.04168 l 19.83237,96.74343 h -11.36308 l -5.73169,-27.18386 h -15.98717 l -5.52919,27.18386 H 448.113 Z"/>
    <path inkscape:connector-curvature="0" id="path1859" style="fill:#ffffff;fill-opacity:1;fill-rule:nonzero;stroke:none;stroke-width:1.90314674" d="m 478.13234,-298.71904 -10.38738,-0.006 5.10349,-25.71855 5.28389,25.72505 z"/>
    <path inkscape:connector-curvature="0" id="path1861" style="fill:#000000;fill-opacity:1;fill-rule:nonzero;stroke:none;stroke-width:1.90314674" d="m 505.75379,-354.35364 h 8.67209 l 23.77626,62.40159 v -62.40159 h 11.22758 v 96.56613 h -11.10298 l -21.32687,-56.8331 v 56.8331 h -11.24978 z"/>
  </g>
</svg>