<?xml version="1.0" encoding="UTF-8" standalone="no"?>
<!DOCTYPE svg PUBLIC "-//W3C//DTD SVG 1.1//EN" "http://www.w3.org/Graphics/SVG/1.1/DTD/svg11.dtd">
<!-- GeoHints -->
<svg width="100%" height="100%" viewBox="0 0 556 758" version="1.1" xmlns="http://www.w3.org/2000/svg" xmlns:xlink="http://www.w3.org/1999/xlink" xml:space="preserve" xmlns:serif="http://www.serif.com/" style="fill-rule:evenodd;clip-rule:evenodd;stroke-linejoin:round;stroke-miterlimit:2;">
    <g transform="matrix(1.05349,0,0,1.04566,-148.34,-40.354)">
        <path d="M668.579,67.282C668.579,59.673 665.579,52.375 660.238,46.995C654.898,41.615 647.655,38.592 640.102,38.592L169.285,38.592C161.733,38.592 154.489,41.615 149.149,46.995C143.809,52.375 140.808,59.673 140.808,67.282L140.808,734.804C140.808,742.413 143.809,749.711 149.149,755.091C154.489,760.471 161.733,763.494 169.285,763.494L640.102,763.494C647.655,763.494 654.898,760.471 660.238,755.091C665.579,749.711 668.579,742.413 668.579,734.804L668.579,67.282Z" style="fill:white;"/>
    </g>
    <g transform="matrix(1.00043,0,0,0.993237,-126.87,-19.3309)">
        <path d="M668.579,63.762C668.579,49.861 657.391,38.592 643.59,38.592C554.734,38.592 254.653,38.592 165.797,38.592C151.996,38.592 140.808,49.861 140.808,63.762C140.808,175.557 140.808,626.529 140.808,738.324C140.808,752.225 151.996,763.494 165.797,763.494C254.653,763.494 554.734,763.494 643.59,763.494C657.391,763.494 668.579,752.225 668.579,738.324C668.579,626.529 668.579,175.557 668.579,63.762Z"/>
    </g>
    <g transform="matrix(0.958498,0,0,0.968345,-109.898,-9.34814)">
        <path d="M668.579,59.295C668.579,47.861 659.214,38.592 647.663,38.592C563.018,38.592 246.369,38.592 161.725,38.592C150.173,38.592 140.808,47.861 140.808,59.295C140.808,164.367 140.808,637.719 140.808,742.791C140.808,754.225 150.173,763.494 161.725,763.494C246.369,763.494 563.018,763.494 647.663,763.494C659.214,763.494 668.579,754.225 668.579,742.791C668.579,637.719 668.579,164.367 668.579,59.295Z" style="fill:white;"/>
    </g>
    <g transform="matrix(1,0,0,1,-125.419,-20.7216)">
        <g transform="matrix(1,0,0,1,125.419,20.7216)">
            <rect x="408.278" y="553.118" width="81" height="17.5"/>
        </g>
        <g transform="matrix(1,0,0,1,9.41869,20.7216)">
            <rect x="408.278" y="553.118" width="81" height="17.5"/>
        </g>
        <g transform="matrix(1,0,0,1,-106.581,20.7216)">
            <rect x="408.278" y="553.118" width="81" height="17.5"/>
        </g>
        <g transform="matrix(1,0,0,1,-222.581,20.7216)">
            <rect x="408.278" y="553.118" width="81" height="17.5"/>
        </g>
    </g>
    <g transform="matrix(1,0,0,1,-125.419,-20.7216)">
        <g transform="matrix(0.880725,0,0,0.958648,-103545,27873.6)">
            <path d="M118120,-28704.2C118114,-28731.5 118114,-28753.9 118110,-28765.2C118106,-28774.2 118098,-28774.2 118090,-28778L118078,-28772.4C118078,-28772.4 118096,-28732.1 118099,-28715.9C118101,-28698.4 118099,-28696.8 118094,-28681.8L118148,-28513.8L118124,-28503.8L118059,-28651L118023,-28613.6L117994,-28503L117962,-28507.3L117987,-28627.7L118036,-28705.2L118009,-28753.7C117999,-28746.9 117998,-28734 117988,-28727.1L117913,-28702.5L117902,-28718.4L117971,-28751.9L117995,-28823.9L118025,-28838.8L118129,-28786.7L118133,-28709.1L118120,-28704.2Z"/>
        </g>
        <g transform="matrix(0.414735,0,0,0.414735,215.43,119.197)">
            <path d="M401.108,259.744C436.2,259.744 464.667,231.295 464.667,196.184C464.667,161.072 436.2,132.644 401.108,132.644C366.016,132.644 337.548,161.072 337.548,196.184C337.548,231.295 366.016,259.744 401.108,259.744Z"/>
        </g>
    </g>
</svg>
