<?xml version="1.0" encoding="UTF-8" standalone="no"?>
<!DOCTYPE svg PUBLIC "-//W3C//DTD SVG 1.1//EN" "http://www.w3.org/Graphics/SVG/1.1/DTD/svg11.dtd">
<!-- GeoHints -->
<svg width="100%" height="100%" viewBox="0 0 181 219" version="1.1" xmlns="http://www.w3.org/2000/svg" xmlns:xlink="http://www.w3.org/1999/xlink" xml:space="preserve" xmlns:serif="http://www.serif.com/" style="fill-rule:evenodd;clip-rule:evenodd;stroke-linejoin:round;stroke-miterlimit:2;">
    <g>
        <g>
            <path d="M180.419,15.001C180.419,6.716 173.704,0 165.42,0L15,0C6.715,0 -0,6.716 -0,15.001L-0,203.468C-0,211.751 6.715,218.468 15,218.468L165.42,218.468C173.704,218.468 180.419,211.751 180.419,203.468L180.419,15.001Z" style="fill:white;"/>
        </g>
        <g>
            <path d="M177.021,17.999C177.021,9.714 170.306,2.999 162.022,2.999L18.398,2.999C10.114,2.999 3.398,9.714 3.398,17.999L3.398,200.468C3.398,208.753 10.114,215.469 18.398,215.469L162.022,215.469C170.306,215.469 177.021,208.753 177.021,200.468L177.021,17.999Z"/>
        </g>
        <g>
            <path d="M172.542,18.424C172.542,15.772 171.489,13.229 169.613,11.354C167.738,9.478 165.195,8.425 162.543,8.425L17.878,8.425C15.226,8.425 12.682,9.478 10.807,11.354C8.932,13.229 7.877,15.772 7.877,18.424L7.877,200.042C7.877,202.694 8.932,205.237 10.807,207.113C12.682,208.988 15.226,210.042 17.878,210.042L162.543,210.042C165.195,210.042 167.738,208.988 169.613,207.113C171.489,205.237 172.542,202.694 172.542,200.042L172.542,18.424Z" style="fill:white;"/>
        </g>
    </g>
    <g>
        <g>
            <rect x="141.97" y="139.276" width="21.886" height="7.023"/>
        </g>
        <g>
            <rect x="110.626" y="139.276" width="21.886" height="7.023"/>
        </g>
        <g>
            <rect x="79.283" y="139.276" width="21.886" height="7.023"/>
        </g>
        <g>
            <rect x="47.94" y="139.276" width="21.886" height="7.023"/>
        </g>
        <g>
            <rect x="16.564" y="139.276" width="21.886" height="7.023"/>
        </g>
        <path d="M18.161,204.959L59.002,202.744C60.692,202.678 62.101,201.429 62.341,199.749C62.554,198.257 61.79,196.79 60.432,196.111L51.555,189.654L78.907,167.505L67.427,153.329L40.074,175.478L35.605,165.452C35.223,163.982 33.946,162.93 32.443,162.828C30.751,162.714 29.235,163.832 28.82,165.472L18.161,204.959Z"/>
    </g>
    <g>
        <path d="M68.418,129.286C67.787,131.816 65.514,133.592 62.906,133.592C59.769,133.592 57.226,131.049 57.226,127.912C57.226,127.448 57.283,126.987 57.395,126.538L65.713,93.173C65.818,92.752 66.036,92.368 66.343,92.061L81.382,77.022L81.382,45.243C81.382,44.174 81.952,43.189 82.877,42.653L90.594,38.197C92.444,37.131 94.723,37.131 96.573,38.197L115.612,49.192C117.463,50.258 118.602,52.234 118.602,54.368L118.602,75.296C118.602,77.772 116.594,79.78 114.117,79.78C111.641,79.78 109.633,77.772 109.633,75.296L109.633,57.478C109.633,56.623 109.177,55.834 108.437,55.407L100.365,50.745L100.365,75.833C100.365,76.626 100.05,77.387 99.489,77.947L75.617,101.82C75.31,102.127 75.093,102.511 74.987,102.932L68.418,129.286Z" style="fill-rule:nonzero;"/>
        <path d="M98.702,82.963L90.385,91.28L113.175,130.752C114.189,132.509 116.065,133.592 118.094,133.592C121.231,133.592 123.774,131.049 123.774,127.912C123.774,126.914 123.512,125.935 123.013,125.072L98.702,82.963Z" style="fill-rule:nonzero;"/>
        <path d="M78.393,70.576L78.393,57.892L61.32,74.965C60.479,75.805 60.006,76.946 60.006,78.136C60.006,80.612 62.014,82.62 64.491,82.62C65.68,82.62 66.821,82.148 67.662,81.307L78.393,70.576Z" style="fill-rule:nonzero;"/>
        <path d="M86.254,20.569C81.63,20.569 77.854,24.356 77.854,28.981C77.854,33.605 81.63,37.381 86.254,37.381C90.868,37.381 94.666,33.605 94.666,28.981C94.666,24.356 90.868,20.569 86.254,20.569Z"/>
    </g>
</svg>
