<?xml version="1.0" encoding="UTF-8" standalone="no"?>
<svg xmlns:dc="http://purl.org/dc/elements/1.1/" xmlns:cc="http://creativecommons.org/ns#" xmlns:rdf="http://www.w3.org/1999/02/22-rdf-syntax-ns#" xmlns:svg="http://www.w3.org/2000/svg" xmlns="http://www.w3.org/2000/svg" xml:space="preserve" style="overflow:visible;enable-background:new 0 0 800.0004883 1000;" viewBox="0 0 800.0004883 1000" height="1000" width="800.0004883" id="Layer_1" version="1.1"><metadata id="metadata4635"><rdf:RDF><cc:Work rdf:about=""><dc:format>image/svg+xml</dc:format><dc:type rdf:resource="http://purl.org/dc/dcmitype/StillImage"/><dc:title/></cc:Work></rdf:RDF></metadata><defs id="defs4633"/>
<path id="path4622" d="M800.0004883,949.1992188  c0,28.0771484-22.7246094,50.8007813-50.7998047,50.8007813H50.7998047C22.7583008,1000,0,977.2763672,0,949.1992188V50.8017578  C0,22.7587891,22.7583008,0,50.7998047,0h698.4008789c28.0751953,0,50.7998047,22.7587891,50.7998047,50.8017578V949.1992188z" style="fill-rule:evenodd;clip-rule:evenodd;fill:#FFFFFF;stroke:#000000;stroke-width:5;stroke-miterlimit:4;stroke-dasharray:none"/>
<path id="path4624" d="M786.6899414,949.1992188  c0,20.7275391-16.7636719,37.4912109-37.4892578,37.4912109H50.7998047c-20.6923828,0-37.4907227-16.7636719-37.4907227-37.4912109  V50.8017578c0-20.6938477,16.7983398-37.4921875,37.4907227-37.4921875h698.4008789  c20.7255859,0,37.4892578,16.7983398,37.4892578,37.4921875V949.1992188 M766.6762695,50.8017578  c0-9.6533203-7.8242188-17.4760742-17.4755859-17.4760742H50.7998047c-9.6518555,0-17.4755859,7.8227539-17.4755859,17.4760742  v898.3974609c0,9.6523438,7.8237305,17.4755859,17.4755859,17.4755859h698.4008789  c9.6855469,0,17.4755859-7.7910156,17.4755859-17.4755859" style="fill-rule:evenodd;clip-rule:evenodd;"/>
<polyline id="polyline4626" points="724.2739258,880.1777344 75.7250977,880.1777344   75.7250977,900.4990234 724.2739258,900.4990234 " style="fill-rule:evenodd;clip-rule:evenodd;"/>
<polyline id="polyline4628" points="384.2524414,230.6025391 316.9248047,255.8676758   250.8847656,365.9360352 145.2207031,440.7832031 172.9228516,484.9443359 293.828125,422.9682617 313.4707031,396.2138672   358.5131836,486.6396484 283.3295898,628.2050781 269.4433594,826.328125 342.5966797,832.4238281 363.5932617,664.4433594   434.5092773,568.5986328 572.2124023,824.6357422 631.4790039,799.5732422 459.0981445,356.5893555 499.7368164,367.0878906   529.5415039,474.4487305 582.0327148,475.1235352 553.5854492,313.9160156 " style="fill-rule:evenodd;clip-rule:evenodd;"/>
<path id="path4630" d="M323.4946289,129.4750977  c-29.6665039,0-53.7456055,24.0800781-53.7456055,53.746582c0,29.668457,24.0791016,53.7485352,53.7456055,53.7485352  c29.6669922,0,53.7460938-24.0800781,53.7460938-53.7485352  C377.2407227,153.5551758,353.1616211,129.4750977,323.4946289,129.4750977" style="fill-rule:evenodd;clip-rule:evenodd;"/>
</svg>