<?xml version="1.0" encoding="UTF-8" standalone="no"?>
<!DOCTYPE svg PUBLIC "-//W3C//DTD SVG 1.1//EN" "http://www.w3.org/Graphics/SVG/1.1/DTD/svg11.dtd">
<!-- GeoHints -->
<svg width="100%" height="100%" viewBox="0 0 2120 2516" version="1.1" xmlns="http://www.w3.org/2000/svg" xmlns:xlink="http://www.w3.org/1999/xlink" xml:space="preserve" xmlns:serif="http://www.serif.com/" style="fill-rule:evenodd;clip-rule:evenodd;stroke-linejoin:round;stroke-miterlimit:2;">
    <path d="M2120,120C2120,88.174 2107.36,57.652 2084.85,35.147C2062.35,12.643 2031.83,-0 2000,0L120,-0C88.174,-0 57.652,12.643 35.147,35.147C12.643,57.652 -0,88.174 -0,120L0,2395.18C-0,2427.01 12.643,2457.53 35.147,2480.04C57.652,2502.54 88.174,2515.18 120,2515.18L2000,2515.18C2031.83,2515.18 2062.35,2502.54 2084.85,2480.04C2107.36,2457.53 2120,2427.01 2120,2395.18L2120,120Z" style="fill:rgb(255,213,32);"/>
    <path d="M2082.04,129.519C2082.04,74.29 2037.27,29.519 1982.04,29.519L137.959,29.519C82.73,29.519 37.959,74.29 37.959,129.519L37.959,2385.66C37.959,2440.89 82.73,2485.66 137.959,2485.66C484.985,2485.66 1635.02,2485.66 1982.04,2485.66C2037.27,2485.66 2082.04,2440.89 2082.04,2385.66L2082.04,129.519ZM2041.5,119.056C2041.5,91.441 2019.11,69.056 1991.5,69.056L128.5,69.056C100.886,69.056 78.5,91.441 78.5,119.056L78.5,2396.13C78.5,2423.74 100.886,2446.13 128.5,2446.13L1991.5,2446.13C2019.11,2446.13 2041.5,2423.74 2041.5,2396.13L2041.5,119.056Z"/>
    <g>
        <g>
            <path d="M812.812,1934.26L788.648,2003.18L803.007,2222.63L744.497,2226.97L724.147,1970.57L741.219,1933.17L702.343,1932.99L766.296,1700.95L781.2,1586.48L738.678,1653.13L617.317,1724.5L592.972,1674.87L708.892,1587.93L781.2,1415.84L824.802,1368.02L881.495,1357.52L915.648,1384.7L986.14,1519.45L1061.37,1486.49L1119.5,1339.41L1173.64,1279.27L1221.61,1264.78L1230.33,1268.04L1349.15,1348.1L1427.64,1496.63L1399.67,1563.65L1446.53,1550.61L1487.6,1671.61L1330.62,1725.58L1312.46,1945.49L1424.01,2228.78L1360.42,2258.48L1234.69,1962.88L1212.16,1810.72L1152.93,1946.21L1125.68,2254.86L1052.64,2254.86L1070.81,1937.52L1151.12,1661.83L1122.4,1529.97L1006.13,1587.93L1001.04,1615.1L1032.29,1612.56L1048.28,1711.46L947.997,1726.31L987.228,1937.52L927.638,1937.52L927.638,1942.95L1005.4,2209.57L941.814,2228.78L854.965,1934.35L812.812,1934.26Z" style="fill-rule:nonzero;"/>
            <path d="M1325.17,1593.72L1303.37,1436.5L1363.33,1508.58L1325.17,1593.72Z" style="fill:rgb(255,213,32);fill-rule:nonzero;"/>
            <circle cx="840.512" cy="1282.35" r="64.444"/>
            <circle cx="1154.01" cy="1180" r="81.502"/>
        </g>
        <path d="M704.043,1989.33L131.7,1989.33L131.7,1951.42L714.278,1951.42L704.043,1989.33Z" style="fill-rule:nonzero;"/>
        <path d="M1059.05,1989.33L957.459,1989.33L947.223,1951.42L1059.05,1951.42L1059.05,1989.33Z" style="fill-rule:nonzero;"/>
        <path d="M1346.59,1989.33L1988.7,1989.33L1988.7,1951.42L1336.16,1951.42L1346.59,1989.33Z" style="fill-rule:nonzero;"/>
        <rect x="131.101" y="2387.37" width="1857.8" height="37.908"/>
    </g>
    <g>
        <path d="M2007.03,135.943C2007.03,127.987 2003.87,120.356 1998.24,114.73C1992.62,109.104 1984.99,105.943 1977.03,105.943C1754.68,105.943 365.323,105.943 142.969,105.943C135.012,105.943 127.382,109.104 121.756,114.73C116.13,120.356 112.969,127.987 112.969,135.943C112.969,275.704 112.969,862.044 112.969,1001.81C112.969,1009.76 116.13,1017.39 121.756,1023.02C127.382,1028.64 135.012,1031.81 142.969,1031.81C365.323,1031.81 1754.68,1031.81 1977.03,1031.81C1984.99,1031.81 1992.62,1028.64 1998.24,1023.02C2003.87,1017.39 2007.03,1009.76 2007.03,1001.81C2007.03,862.044 2007.03,275.704 2007.03,135.943Z"/>
        <g transform="matrix(2.30611,0,0,2.30611,-184.52,-251.81)">
            <g transform="matrix(122.402,0,0,122.402,137.511,279.893)">
                <path d="M0.267,-0.375L0.43,-0.375C0.547,-0.375 0.642,-0.471 0.642,-0.588L0.642,-0.622C0.642,-0.739 0.547,-0.834 0.43,-0.834L0.142,-0.834L0.142,-0L0.267,-0L0.267,-0.375ZM0.267,-0.5L0.267,-0.709L0.43,-0.709C0.478,-0.709 0.517,-0.669 0.517,-0.622L0.517,-0.588C0.517,-0.54 0.478,-0.5 0.43,-0.5L0.267,-0.5Z" style="fill:rgb(255,213,32);fill-rule:nonzero;"/>
            </g>
            <g transform="matrix(122.402,0,0,122.402,220.132,279.893)">
                <path d="M0.142,-0L0.6,-0L0.6,-0.125L0.267,-0.125L0.267,-0.376L0.492,-0.376L0.492,-0.501L0.267,-0.501L0.267,-0.709L0.6,-0.709L0.6,-0.834L0.142,-0.834L0.142,-0Z" style="fill:rgb(255,213,32);fill-rule:nonzero;"/>
            </g>
            <g transform="matrix(122.402,0,0,122.402,303.732,279.893)">
                <path d="M0.058,-0L0.35,-0C0.489,-0 0.601,-0.112 0.601,-0.25L0.601,-0.584C0.601,-0.722 0.489,-0.834 0.35,-0.834L0.058,-0.834L0.058,-0ZM0.184,-0.125L0.184,-0.709L0.35,-0.709C0.419,-0.709 0.475,-0.653 0.475,-0.584L0.475,-0.25C0.475,-0.181 0.419,-0.125 0.35,-0.125L0.184,-0.125Z" style="fill:rgb(255,213,32);fill-rule:nonzero;"/>
            </g>
            <g transform="matrix(122.402,0,0,122.402,385.496,279.893)">
                <path d="M0.142,-0L0.6,-0L0.6,-0.125L0.267,-0.125L0.267,-0.376L0.492,-0.376L0.492,-0.501L0.267,-0.501L0.267,-0.709L0.6,-0.709L0.6,-0.834L0.142,-0.834L0.142,-0Z" style="fill:rgb(255,213,32);fill-rule:nonzero;"/>
            </g>
            <g transform="matrix(122.402,0,0,122.402,469.097,279.893)">
                <path d="M0.367,-0.834L0.309,-0.834C0.187,-0.834 0.089,-0.735 0.089,-0.612C0.089,-0.519 0.148,-0.435 0.236,-0.404L0.409,-0.344C0.434,-0.335 0.456,-0.317 0.47,-0.294C0.482,-0.272 0.484,-0.245 0.476,-0.222C0.456,-0.163 0.4,-0.125 0.339,-0.125C0.258,-0.125 0.192,-0.191 0.192,-0.27L0.067,-0.27C0.067,-0.122 0.189,-0 0.339,-0L0.372,-0C0.503,-0 0.609,-0.106 0.609,-0.237C0.609,-0.338 0.546,-0.429 0.451,-0.462L0.278,-0.522C0.24,-0.536 0.214,-0.572 0.214,-0.612C0.214,-0.666 0.257,-0.709 0.309,-0.709L0.367,-0.709C0.421,-0.709 0.464,-0.666 0.464,-0.612L0.589,-0.612C0.589,-0.735 0.49,-0.834 0.367,-0.834Z" style="fill:rgb(255,213,32);fill-rule:nonzero;"/>
            </g>
            <g transform="matrix(122.402,0,0,122.402,551.84,279.893)">
                <path d="M0.017,-0.834L0.557,-0.834L0.557,-0.709L0.349,-0.709L0.349,-0L0.225,-0L0.225,-0.709L0.017,-0.709L0.017,-0.834Z" style="fill:rgb(255,213,32);fill-rule:nonzero;"/>
            </g>
            <g transform="matrix(122.402,0,0,122.402,622.099,279.893)">
                <path d="M0.267,-0.375L0.267,-0L0.142,-0L0.142,-0.834L0.43,-0.834C0.547,-0.834 0.642,-0.738 0.642,-0.62L0.642,-0.587C0.642,-0.498 0.586,-0.418 0.502,-0.388L0.642,-0L0.509,-0L0.373,-0.375L0.267,-0.375ZM0.267,-0.5L0.43,-0.5C0.478,-0.5 0.517,-0.539 0.517,-0.587L0.517,-0.62C0.517,-0.669 0.478,-0.709 0.43,-0.709L0.267,-0.709L0.267,-0.5Z" style="fill:rgb(255,213,32);fill-rule:nonzero;"/>
            </g>
            <g transform="matrix(122.402,0,0,122.402,708.881,279.893)">
                <rect x="0.142" y="-0.834" width="0.125" height="0.834" style="fill:rgb(255,213,32);fill-rule:nonzero;"/>
            </g>
            <g transform="matrix(122.402,0,0,122.402,758.944,279.893)">
                <path d="M0.405,-0.834L0.265,-0.834L0.042,-0L0.167,-0L0.209,-0.142L0.462,-0.142L0.501,-0L0.626,-0L0.405,-0.834ZM0.334,-0.586L0.425,-0.267L0.243,-0.267L0.334,-0.586Z" style="fill:rgb(255,213,32);fill-rule:nonzero;"/>
            </g>
            <g transform="matrix(122.402,0,0,122.402,840.708,279.893)">
                <path d="M0.142,-0L0.142,-0.834L0.267,-0.834L0.559,-0.272L0.559,-0.834L0.684,-0.834L0.684,-0L0.559,-0L0.267,-0.563L0.267,-0L0.142,-0Z" style="fill:rgb(255,213,32);fill-rule:nonzero;"/>
            </g>
            <g transform="matrix(122.402,0,0,122.402,210.34,402.295)">
                <path d="M0.075,-0.565L0.075,-0.272C0.075,-0.12 0.198,-0 0.348,-0C0.497,-0 0.618,-0.12 0.618,-0.272L0.618,-0.291L0.492,-0.291L0.492,-0.272C0.492,-0.191 0.429,-0.125 0.348,-0.125C0.267,-0.125 0.2,-0.191 0.2,-0.272L0.2,-0.565C0.2,-0.643 0.267,-0.709 0.348,-0.709C0.429,-0.709 0.492,-0.643 0.492,-0.565L0.618,-0.565C0.618,-0.714 0.497,-0.834 0.348,-0.834C0.198,-0.834 0.075,-0.714 0.075,-0.565Z" style="fill:rgb(255,213,32);fill-rule:nonzero;"/>
            </g>
            <g transform="matrix(122.402,0,0,122.402,292.104,402.295)">
                <path d="M0.267,-0.375L0.267,-0L0.142,-0L0.142,-0.834L0.43,-0.834C0.547,-0.834 0.642,-0.738 0.642,-0.62L0.642,-0.587C0.642,-0.498 0.586,-0.418 0.502,-0.388L0.642,-0L0.509,-0L0.373,-0.375L0.267,-0.375ZM0.267,-0.5L0.43,-0.5C0.478,-0.5 0.517,-0.539 0.517,-0.587L0.517,-0.62C0.517,-0.669 0.478,-0.709 0.43,-0.709L0.267,-0.709L0.267,-0.5Z" style="fill:rgb(255,213,32);fill-rule:nonzero;"/>
            </g>
            <g transform="matrix(122.402,0,0,122.402,378.887,402.295)">
                <path d="M0.617,-0.272L0.617,-0.564C0.617,-0.713 0.496,-0.834 0.347,-0.834C0.197,-0.834 0.075,-0.713 0.075,-0.564L0.075,-0.272C0.075,-0.122 0.197,-0 0.347,-0C0.496,-0 0.617,-0.122 0.617,-0.272ZM0.492,-0.272C0.492,-0.191 0.427,-0.125 0.347,-0.125C0.266,-0.125 0.2,-0.191 0.2,-0.272L0.2,-0.564C0.2,-0.643 0.266,-0.709 0.347,-0.709C0.427,-0.709 0.492,-0.643 0.492,-0.564L0.492,-0.272Z" style="fill:rgb(255,213,32);fill-rule:nonzero;"/>
            </g>
            <g transform="matrix(122.402,0,0,122.402,463.589,402.295)">
                <path d="M0.367,-0.834L0.309,-0.834C0.187,-0.834 0.089,-0.735 0.089,-0.612C0.089,-0.519 0.148,-0.435 0.236,-0.404L0.409,-0.344C0.434,-0.335 0.456,-0.317 0.47,-0.294C0.482,-0.272 0.484,-0.245 0.476,-0.222C0.456,-0.163 0.4,-0.125 0.339,-0.125C0.258,-0.125 0.192,-0.191 0.192,-0.27L0.067,-0.27C0.067,-0.122 0.189,-0 0.339,-0L0.372,-0C0.503,-0 0.609,-0.106 0.609,-0.237C0.609,-0.338 0.546,-0.429 0.451,-0.462L0.278,-0.522C0.24,-0.536 0.214,-0.572 0.214,-0.612C0.214,-0.666 0.257,-0.709 0.309,-0.709L0.367,-0.709C0.421,-0.709 0.464,-0.666 0.464,-0.612L0.589,-0.612C0.589,-0.735 0.49,-0.834 0.367,-0.834Z" style="fill:rgb(255,213,32);fill-rule:nonzero;"/>
            </g>
            <g transform="matrix(122.402,0,0,122.402,546.332,402.295)">
                <path d="M0.367,-0.834L0.309,-0.834C0.187,-0.834 0.089,-0.735 0.089,-0.612C0.089,-0.519 0.148,-0.435 0.236,-0.404L0.409,-0.344C0.434,-0.335 0.456,-0.317 0.47,-0.294C0.482,-0.272 0.484,-0.245 0.476,-0.222C0.456,-0.163 0.4,-0.125 0.339,-0.125C0.258,-0.125 0.192,-0.191 0.192,-0.27L0.067,-0.27C0.067,-0.122 0.189,-0 0.339,-0L0.372,-0C0.503,-0 0.609,-0.106 0.609,-0.237C0.609,-0.338 0.546,-0.429 0.451,-0.462L0.278,-0.522C0.24,-0.536 0.214,-0.572 0.214,-0.612C0.214,-0.666 0.257,-0.709 0.309,-0.709L0.367,-0.709C0.421,-0.709 0.464,-0.666 0.464,-0.612L0.589,-0.612C0.589,-0.735 0.49,-0.834 0.367,-0.834Z" style="fill:rgb(255,213,32);fill-rule:nonzero;"/>
            </g>
            <g transform="matrix(122.402,0,0,122.402,629.076,402.295)">
                <rect x="0.142" y="-0.834" width="0.125" height="0.834" style="fill:rgb(255,213,32);fill-rule:nonzero;"/>
            </g>
            <g transform="matrix(122.402,0,0,122.402,679.138,402.295)">
                <path d="M0.142,-0L0.142,-0.834L0.267,-0.834L0.559,-0.272L0.559,-0.834L0.684,-0.834L0.684,-0L0.559,-0L0.267,-0.563L0.267,-0L0.142,-0Z" style="fill:rgb(255,213,32);fill-rule:nonzero;"/>
            </g>
            <g transform="matrix(122.402,0,0,122.402,780.242,402.295)">
                <path d="M0.075,-0.564L0.075,-0.272C0.075,-0.122 0.197,-0 0.347,-0C0.402,-0 0.455,-0.017 0.501,-0.048L0.534,-0L0.617,-0L0.617,-0.459L0.347,-0.459L0.347,-0.334L0.492,-0.334L0.492,-0.272C0.492,-0.191 0.427,-0.125 0.347,-0.125C0.266,-0.125 0.2,-0.191 0.2,-0.272L0.2,-0.564C0.2,-0.643 0.266,-0.709 0.347,-0.709C0.427,-0.709 0.492,-0.643 0.492,-0.564L0.617,-0.564C0.617,-0.713 0.496,-0.834 0.347,-0.834C0.197,-0.834 0.075,-0.713 0.075,-0.564Z" style="fill:rgb(255,213,32);fill-rule:nonzero;"/>
            </g>
            <g transform="matrix(122.402,0,0,122.402,324.54,524.696)">
                <path d="M0.405,-0.834L0.265,-0.834L0.042,-0L0.167,-0L0.209,-0.142L0.462,-0.142L0.501,-0L0.626,-0L0.405,-0.834ZM0.334,-0.586L0.425,-0.267L0.243,-0.267L0.334,-0.586Z" style="fill:rgb(255,213,32);fill-rule:nonzero;"/>
            </g>
            <g transform="matrix(122.402,0,0,122.402,406.305,524.696)">
                <path d="M0.562,-0L0.562,-0.375L0.269,-0.375L0.269,-0L0.142,-0L0.142,-0.834L0.269,-0.834L0.269,-0.502L0.562,-0.502L0.562,-0.834L0.686,-0.834L0.686,-0L0.562,-0Z" style="fill:rgb(255,213,32);fill-rule:nonzero;"/>
            </g>
            <g transform="matrix(122.402,0,0,122.402,507.653,524.696)">
                <path d="M0.142,-0L0.6,-0L0.6,-0.125L0.267,-0.125L0.267,-0.376L0.492,-0.376L0.492,-0.501L0.267,-0.501L0.267,-0.709L0.6,-0.709L0.6,-0.834L0.142,-0.834L0.142,-0Z" style="fill:rgb(255,213,32);fill-rule:nonzero;"/>
            </g>
            <g transform="matrix(122.402,0,0,122.402,591.254,524.696)">
                <path d="M0.405,-0.834L0.265,-0.834L0.042,-0L0.167,-0L0.209,-0.142L0.462,-0.142L0.501,-0L0.626,-0L0.405,-0.834ZM0.334,-0.586L0.425,-0.267L0.243,-0.267L0.334,-0.586Z" style="fill:rgb(255,213,32);fill-rule:nonzero;"/>
            </g>
            <g transform="matrix(122.402,0,0,122.402,673.018,524.696)">
                <path d="M0.058,-0L0.35,-0C0.489,-0 0.601,-0.112 0.601,-0.25L0.601,-0.584C0.601,-0.722 0.489,-0.834 0.35,-0.834L0.058,-0.834L0.058,-0ZM0.184,-0.125L0.184,-0.709L0.35,-0.709C0.419,-0.709 0.475,-0.653 0.475,-0.584L0.475,-0.25C0.475,-0.181 0.419,-0.125 0.35,-0.125L0.184,-0.125Z" style="fill:rgb(255,213,32);fill-rule:nonzero;"/>
            </g>
        </g>
    </g>
</svg>
