<?xml version="1.0" encoding="UTF-8" standalone="no"?>
<!DOCTYPE svg PUBLIC "-//W3C//DTD SVG 1.1//EN" "http://www.w3.org/Graphics/SVG/1.1/DTD/svg11.dtd">
<!-- GeoHints -->
<svg width="100%" height="100%" viewBox="0 0 3473 3473" version="1.1" xmlns="http://www.w3.org/2000/svg" xmlns:xlink="http://www.w3.org/1999/xlink" xml:space="preserve" xmlns:serif="http://www.serif.com/" style="fill-rule:evenodd;clip-rule:evenodd;stroke-linejoin:round;stroke-miterlimit:2;">
    <path d="M1616.24,52.81C1682.62,-13.565 1790.39,-13.565 1856.77,52.811L3420.2,1616.24C3486.57,1682.61 3486.57,1790.39 3420.2,1856.77L1856.76,3420.2C1790.39,3486.57 1682.61,3486.57 1616.24,3420.2L52.808,1856.77C-13.568,1790.39 -13.568,1682.62 52.808,1616.24L1616.24,52.81Z" style="fill:rgb(250,230,0);"/>
    <path d="M1656.33,92.896C1700.58,48.646 1772.43,48.648 1816.68,92.899L3380.11,1656.33C3424.36,1700.58 3424.36,1772.43 3380.11,1816.68L1816.68,3380.11C1772.42,3424.36 1700.58,3424.36 1656.33,3380.11L92.901,1816.68C48.651,1772.43 48.643,1700.58 92.894,1656.33L1656.33,92.896Z"/>
    <path d="M1706.44,143.009C1723.03,126.415 1749.98,126.413 1766.57,143.009L3330,1706.44C3346.59,1723.03 3346.59,1749.97 3330,1766.57L1766.57,3330C1749.97,3346.6 1723.03,3346.59 1706.43,3330L143.007,1766.57C126.411,1749.98 126.411,1723.04 143.007,1706.44L1706.44,143.009Z" style="fill:rgb(250,230,0);"/>
    <g>
        <g>
            <path d="M2238.36,2779.54L1234.7,2779.54L1292.77,2844.73L2180.3,2844.73L2238.36,2779.54Z" style="fill-rule:nonzero;"/>
            <ellipse cx="1565.19" cy="910.142" rx="176.357" ry="167.431"/>
            <path d="M1997.65,1792.26C2086.37,1664.47 1999.18,1546.11 1942.98,1429.8L1930.82,1389.5L1945.73,1382.67L2055.64,1399.42L2070.55,1707.62L2189.29,1751.65L2186.53,1318.18L2144.01,1290.9L1851.66,1148.96C1769.95,1112.82 1736.07,1105.17 1670.7,1104.86C1611.11,1105.34 1489.84,1221.38 1474.64,1413.06L1465.25,1446.55L1209.55,1626.38L1239.92,1738.01L1565.76,1622.66L1604.98,1504.21L1632.59,1568.71C1660.75,1622.49 1723.69,1720.36 1681.19,1785.43L1513.85,2032.56L1389.04,2652.05L1556.38,2689.26L1702.45,2130.53L1830.3,2032.56L2125.78,2696.08L2253.36,2550.35L1997.65,1792.26Z" style="fill-rule:nonzero;"/>
            <path d="M2747.76,2263.63L2185.12,2263.63L2207.11,2328.83L2689.7,2328.83L2747.76,2263.63Z" style="fill-rule:nonzero;"/>
            <path d="M725.241,2263.63L1429.81,2263.63L1416.68,2328.83L783.3,2328.83L725.241,2263.63Z" style="fill-rule:nonzero;"/>
            <path d="M1716.9,2263.63L1873.58,2263.63L1902.61,2328.83L1699.86,2328.83L1716.9,2263.63Z" style="fill-rule:nonzero;"/>
        </g>
    </g>
</svg>
