<?xml version="1.0" encoding="UTF-8" standalone="no"?>
<!-- Created with Inkscape (http://www.inkscape.org/) -->
<svg xmlns:dc="http://purl.org/dc/elements/1.1/" xmlns:cc="http://creativecommons.org/ns#" xmlns:rdf="http://www.w3.org/1999/02/22-rdf-syntax-ns#" xmlns:svg="http://www.w3.org/2000/svg" xmlns="http://www.w3.org/2000/svg" xmlns:sodipodi="http://sodipodi.sourceforge.net/DTD/sodipodi-0.dtd" xmlns:inkscape="http://www.inkscape.org/namespaces/inkscape" version="1.0" width="168.63251" height="224.60876" viewBox="0 0 62.604817 90.707386" id="svg2" xml:space="preserve" inkscape:version="0.48.4 r9939" sodipodi:docname="AJAX1.svg"><metadata id="metadata107"><rdf:RDF><cc:Work rdf:about=""><dc:format>image/svg+xml</dc:format><dc:type rdf:resource="http://purl.org/dc/dcmitype/StillImage"/><dc:title/></cc:Work></rdf:RDF></metadata><defs id="defs105"><inkscape:perspective sodipodi:type="inkscape:persp3d" inkscape:vp_x="0 : 260 : 1" inkscape:vp_y="0 : 1000 : 0" inkscape:vp_z="800 : 260 : 1" inkscape:persp3d-origin="400 : 173.33333 : 1" id="perspective85"/></defs><sodipodi:namedview pagecolor="#ffffff" bordercolor="#666666" borderopacity="1" objecttolerance="10" gridtolerance="10" guidetolerance="10" inkscape:pageopacity="0" inkscape:pageshadow="2" inkscape:window-width="1280" inkscape:window-height="1004" id="namedview103" showgrid="false" inkscape:zoom="2.1652879" inkscape:cx="135.18877" inkscape:cy="83.208624" inkscape:window-x="-8" inkscape:window-y="-8" inkscape:window-maximized="1" inkscape:current-layer="svg2" fit-margin-top="0.7" fit-margin-right="0.7" fit-margin-bottom="0.7" fit-margin-left="0.7"/>
 




<path inkscape:connector-curvature="0" style="fill:#ffffff;fill-rule:evenodd;stroke:#000000;stroke-opacity:1;stroke-width:0.32307692;stroke-miterlimit:4;stroke-dasharray:none" d="m -2.465694,86.793613 0,-82.8717607 c 0,-2.00445 1.62386608,-3.63915999 3.6317592,-3.63915999 l 60.2693248,0 c 2.00358,0 3.63512,1.63470999 3.63512,3.63915999 l 0,82.8717607 c 0,2.00812 -1.62801,3.63108 -3.63512,3.63108 l -60.2693248,0 c -2.00789312,0 -3.6317592,-1.62296 -3.6317592,-3.63108 z" id="path11"/><path inkscape:connector-curvature="0" style="fill:#000000;fill-rule:evenodd;stroke:none" d="m -1.71193,86.729023 c 0,1.59014 1.28518508,2.87538 2.8755262,2.87538 l 60.2738938,0 c 1.58712,0 2.87842,-1.28524 2.87842,-2.87538 l 0,-82.8776707 c 0,-1.5859 -1.2913,-2.87552999 -2.87842,-2.87552999 l -60.2738938,0 c -1.59034112,0 -2.8755262,1.28962999 -2.8755262,2.87552999 l 0,82.8776707 z" id="path15"/><path inkscape:connector-curvature="0" style="fill:#ffffff;fill-rule:evenodd;stroke:none" d="m -0.37842992,86.727323 0,-82.8769507 c 0,-0.84891 0.690163,-1.54154 1.54252112,-1.54154 l 60.2737088,0 c 0.84858,0 1.54218,0.69263 1.54218,1.54154 l 0,82.8769507 c 0,0.85262 -0.6936,1.54218 -1.54218,1.54218 l -60.2737088,0 c -0.85235812,0 -1.54252112,-0.68956 -1.54252112,-1.54218 z" id="path17"/><path inkscape:connector-curvature="0" style="fill:#000000;fill-rule:evenodd;stroke:none" d="m 49.14494,60.437593 0,3.70781 9.04717,0 0,-3.70781 -9.04717,0 z" id="path25"/><path inkscape:connector-curvature="0" style="fill:#000000;fill-rule:evenodd;stroke:none" d="m 37.99334,60.437593 0,3.70781 9.04711,0 0,-3.70781 -9.04711,0 z" id="path27"/><path inkscape:connector-curvature="0" style="fill:#000000;fill-rule:evenodd;stroke:none" d="m 26.841734,60.437593 0,3.70781 9.047116,0 0,-3.70781 -9.047116,0 z" id="path29"/><path inkscape:connector-curvature="0" style="fill:#000000;fill-rule:evenodd;stroke:none" d="m 15.622082,60.437593 0,3.70781 9.047112,0 0,-3.70781 -9.047112,0 z" id="path31"/><path inkscape:connector-curvature="0" style="fill:#000000;fill-rule:evenodd;stroke:none" d="m 4.4704752,60.437593 0,3.70781 9.0471138,0 0,-3.70781 -9.0471138,0 z" id="path33"/><path inkscape:connector-curvature="0" style="fill:#000000;fill-rule:evenodd;stroke:none" d="m 21.070532,52.262721 c -0.495587,0.986781 -0.09483,2.187796 0.891379,2.670976 0.958038,0.474897 2.122254,0.09902 2.629825,-0.838437 l 11.690453,-21.22998 0.02888,-10.634046 3.261273,5.287855 -1.77089,4.058173 c -0.342927,0.771778 0.0038,1.675949 0.776016,2.018759 0.784108,0.354834 1.713094,-0.02069 2.035213,-0.821406 l 2.633604,-6.039326 -6.712121,-9.432568 c -0.144492,-0.190035 -0.317881,-0.351096 -0.520555,-0.470735 -0.255846,-0.152775 -0.549067,-0.235194 -0.845758,-0.243478 l -5.188906,0.218626 c -0.314183,0.01657 -0.606942,0.1238 -0.854929,0.309328 -0.185488,0.140716 -0.337881,0.322081 -0.445496,0.532807 l -5.02371,7.975246 -4.44198,3.694322 c -0.623511,0.553501 -0.697645,1.507377 -0.16106,2.150806 0.532422,0.635918 1.473891,0.743537 2.130114,0.239704 l 4.636179,-3.872299 2.856311,-4.136084 -0.04551,14.241288 -7.558338,14.320469 z" id="path17-1"/><path inkscape:connector-curvature="0" style="fill:#000000;fill-rule:evenodd;stroke:none" d="m 31.806919,42.857664 8.47056,11.669915 c 0.70589,0.933224 2.051779,1.077716 2.934912,0.310176 0.79644,-0.69356 0.928984,-1.88263 0.297077,-2.728773 l -7.244233,-10.01038 0.0034,-7.517418 -4.461785,8.27648 z" id="path19-7"/><path inkscape:connector-curvature="0" style="fill:#000000;fill-rule:evenodd;stroke:none" d="m 31.75124,7.5216767 c -2.055249,0 -3.727807,1.682731 -3.732699,3.7379803 0.0049,2.055249 1.67745,3.727807 3.732699,3.7327 2.050318,0 3.737979,-1.677451 3.737979,-3.7327 0,-2.0552493 -1.687661,-3.7379803 -3.737979,-3.7379803 z" id="path21-4"/></svg>