<?xml version="1.0" encoding="UTF-8" standalone="no"?>
<!DOCTYPE svg PUBLIC "-//W3C//DTD SVG 1.1//EN" "http://www.w3.org/Graphics/SVG/1.1/DTD/svg11.dtd">
<!-- GeoHints -->
<svg width="100%" height="100%" viewBox="0 0 942 1186" version="1.1" xmlns="http://www.w3.org/2000/svg" xmlns:xlink="http://www.w3.org/1999/xlink" xml:space="preserve" xmlns:serif="http://www.serif.com/" style="fill-rule:evenodd;clip-rule:evenodd;stroke-linejoin:round;stroke-miterlimit:2;">
    <g id="layer1" transform="matrix(1,0,0,1,-117760,29639.5)">
        <g transform="matrix(1.10756,0,0,0.929596,-12705.2,-2035.72)">
            <path id="path10668" d="M118537,-28418.8C118597,-28418.8 118645,-28467.1 118645,-28526.8L118645,-29586.3C118645,-29646 118597,-29694.3 118537,-29694.3L117903,-29694.3C117843,-29694.3 117795,-29646 117795,-29586.3L117795,-28526.8C117795,-28467.1 117843,-28418.8 117903,-28418.8L118537,-28418.8Z"/>
            <path id="path10676" d="M118589,-28526.8C118589,-28498.4 118566,-28475.4 118537,-28475.4L117903,-28475.4C117874,-28475.4 117852,-28498.4 117852,-28526.8L117852,-29586.3C117852,-29614.7 117874,-29637.6 117903,-29637.6L118537,-29637.6C118566,-29637.6 118589,-29614.7 118589,-29586.3L118589,-28526.8ZM118537,-29666L117903,-29666C117859,-29666 117823,-29630.3 117823,-29586.3L117823,-28526.8C117823,-28482.8 117859,-28447.1 117903,-28447.1L118537,-28447.1C118581,-28447.1 118617,-28482.8 118617,-28526.8L118617,-29586.3C118617,-29630.3 118581,-29666 118537,-29666" style="fill:white;"/>
        </g>
        <g transform="matrix(2.31829,0,0,2.31829,-155395,37471.9)">
            <g transform="matrix(0.431353,0,0,0.431353,117823,-28951.3)">
                <path d="M638.097,569.874C618.264,519.463 607.066,469.053 588.12,411.743L549.439,399.397L774.817,1014.1L752.423,1022.13L679.94,1049.45L508.024,694.282L426.244,835.291L407.712,1045.13L387.759,1044.11L387.712,1045.13L298.789,1041.03L313.437,793.713L419.423,589.47L367.846,464.095C353.899,476.803 339.852,490.627 324.773,501.149L191.603,572.401L164.672,587.039L128.376,530.247L272.549,427.081L381.644,286.96L440.755,265.127L463.938,255.564L687.777,366.932L723.106,569.874L638.097,569.874Z" style="fill:white;"/>
            </g>
            <g transform="matrix(0.431353,0,0,0.431353,117823,-28951.3)">
                <path d="M401.108,259.744C436.2,259.744 464.667,231.295 464.667,196.184C464.667,161.072 436.2,132.644 401.108,132.644C366.016,132.644 337.548,161.072 337.548,196.184C337.548,231.295 366.016,259.744 401.108,259.744Z" style="fill:white;"/>
            </g>
        </g>
    </g>
</svg>
