<?xml version="1.0" encoding="UTF-8" standalone="no"?>
<!DOCTYPE svg PUBLIC "-//W3C//DTD SVG 1.1//EN" "http://www.w3.org/Graphics/SVG/1.1/DTD/svg11.dtd">
<!-- GeoHints -->
<svg width="100%" height="100%" viewBox="0 0 181 219" version="1.1" xmlns="http://www.w3.org/2000/svg" xmlns:xlink="http://www.w3.org/1999/xlink" xml:space="preserve" xmlns:serif="http://www.serif.com/" style="fill-rule:evenodd;clip-rule:evenodd;stroke-linejoin:round;stroke-miterlimit:2;">
    <g transform="matrix(1,0,0,0.924381,0.795675,-0.285575)">
        <g transform="matrix(1.0855,0,0,1.06695,-7.47742,-6.94271)">
            <path d="M172.364,22.006C172.364,13.606 166.178,6.797 158.546,6.797C127.253,6.797 51.267,6.797 19.974,6.797C12.342,6.797 6.155,13.606 6.155,22.006C6.155,62.499 6.155,172.603 6.155,213.097C6.155,221.496 12.342,228.306 19.974,228.306C51.267,228.306 127.253,228.306 158.546,228.306C166.178,228.306 172.364,221.496 172.364,213.097C172.364,172.603 172.364,62.499 172.364,22.006Z" style="fill:white;"/>
        </g>
        <g transform="matrix(1.04461,0,0,1.03766,-3.82739,-3.4998)">
            <path d="M172.364,22.435C172.364,13.798 165.935,6.797 158.005,6.797C126.567,6.797 51.953,6.797 20.515,6.797C12.584,6.797 6.155,13.798 6.155,22.435C6.155,63.128 6.155,171.974 6.155,212.667C6.155,221.304 12.584,228.306 20.515,228.306C51.953,228.306 126.567,228.306 158.005,228.306C165.935,228.306 172.364,221.304 172.364,212.667C172.364,171.974 172.364,63.128 172.364,22.435Z"/>
        </g>
        <g transform="matrix(0.990706,0,0,0.984658,0.984022,2.73025)">
            <path d="M172.364,17.783C172.364,14.869 171.301,12.075 169.408,10.015C167.515,7.954 164.948,6.797 162.271,6.797C132.604,6.797 45.915,6.797 16.249,6.797C13.572,6.797 11.005,7.954 9.112,10.015C7.219,12.075 6.155,14.869 6.155,17.783C6.155,55.519 6.155,179.583 6.155,217.319C6.155,220.233 7.219,223.027 9.112,225.088C11.005,227.148 13.572,228.306 16.249,228.306C45.915,228.306 132.604,228.306 162.271,228.306C164.948,228.306 167.515,227.148 169.408,225.088C171.301,223.027 172.364,220.233 172.364,217.319C172.364,179.583 172.364,55.519 172.364,17.783Z" style="fill:white;"/>
        </g>
    </g>
    <g transform="matrix(0.2702,0,0,0.401342,-2.23533,-91.0298)">
        <g transform="matrix(1,0,0,1,125.419,20.7216)">
            <rect x="408.278" y="553.118" width="81" height="17.5"/>
        </g>
        <g transform="matrix(1,0,0,1,9.41869,20.7216)">
            <rect x="408.278" y="553.118" width="81" height="17.5"/>
        </g>
        <g transform="matrix(1,0,0,1,-106.581,20.7216)">
            <rect x="408.278" y="553.118" width="81" height="17.5"/>
        </g>
        <g transform="matrix(1,0,0,1,-222.581,20.7216)">
            <rect x="408.278" y="553.118" width="81" height="17.5"/>
        </g>
        <g transform="matrix(1,0,0,1,-338.701,20.7216)">
            <rect x="408.278" y="553.118" width="81" height="17.5"/>
        </g>
    </g>
    <g transform="matrix(1,0,0,1,0.195675,-15.9089)">
        <path id="path29" d="M101.181,94.5L91.141,114.039L110.206,140.301C111.793,142.397 114.818,142.727 116.81,140.997C118.599,139.439 118.9,136.758 117.476,134.857L101.181,112.333L101.181,94.5Z"/>
        <path id="path25" d="M72.854,75.281L62.747,83.631C61.34,84.882 61.175,87.023 62.38,88.469C63.579,89.914 65.698,90.146 67.172,89.007L79.153,79.076L84.05,70.958L83.931,103.032L66.924,135.261C65.81,137.476 66.708,140.179 68.933,141.273C71.088,142.337 73.718,141.491 74.847,139.387L95.184,102.455L101.169,91.524L101.235,67.65L108.572,79.55L104.588,88.69C103.817,90.418 104.596,92.452 106.324,93.223C108.099,94.022 110.179,93.177 110.912,91.374L116.84,77.785L101.727,56.558C101.411,56.131 101.02,55.768 100.566,55.5C99.99,55.156 99.329,54.97 98.66,54.951L86.984,55.444C86.288,55.48 85.62,55.722 85.062,56.141C84.643,56.456 84.3,56.865 84.058,57.338L72.854,75.281Z"/>
        <path id="path31" d="M91.058,34.478C86.434,34.478 82.658,38.265 82.658,42.89C82.658,47.514 86.434,51.29 91.058,51.29C95.672,51.29 99.47,47.514 99.47,42.89C99.47,38.265 95.672,34.478 91.058,34.478Z"/>
    </g>
</svg>
