<?xml version="1.0" encoding="UTF-8" standalone="no"?>
<!-- Created with Inkscape (http://www.inkscape.org/) -->
<svg xmlns:dc="http://purl.org/dc/elements/1.1/" xmlns:cc="http://creativecommons.org/ns#" xmlns:rdf="http://www.w3.org/1999/02/22-rdf-syntax-ns#" xmlns:svg="http://www.w3.org/2000/svg" xmlns="http://www.w3.org/2000/svg" xmlns:sodipodi="http://sodipodi.sourceforge.net/DTD/sodipodi-0.dtd" xmlns:inkscape="http://www.inkscape.org/namespaces/inkscape" width="606mm" height="906mm" viewBox="0 0 606 906" version="1.1" id="svg8" inkscape:version="0.92.4 (5da689c313, 2019-01-14)" sodipodi:docname="drawing2.svg">
  <defs id="defs2"/>
  <sodipodi:namedview id="base" pagecolor="#ffffff" bordercolor="#666666" borderopacity="1.0" inkscape:pageopacity="0.0" inkscape:pageshadow="2" inkscape:zoom="0.175" inkscape:cx="2429.9225" inkscape:cy="1048.8465" inkscape:document-units="mm" inkscape:current-layer="layer1" showgrid="false" showguides="false" inkscape:window-width="1920" inkscape:window-height="1057" inkscape:window-x="-8" inkscape:window-y="-8" inkscape:window-maximized="1" inkscape:snap-global="false" showborder="true"/>
  <metadata id="metadata5">
    <rdf:RDF>
      <cc:Work rdf:about="">
        <dc:format>image/svg+xml</dc:format>
        <dc:type rdf:resource="http://purl.org/dc/dcmitype/StillImage"/>
        <dc:title/>
      </cc:Work>
    </rdf:RDF>
  </metadata>
  <g inkscape:label="Layer 1" inkscape:groupmode="layer" id="layer1" transform="translate(0,609)">
    <rect style="fill:#000000;fill-opacity:1;stroke:none;stroke-width:296.58029175;stroke-linecap:round;stroke-linejoin:round;stroke-miterlimit:1.41400003;stroke-dasharray:none;stroke-opacity:1" id="rect18" width="604" height="904" x="1" y="-608" rx="42" ry="42"/>
    <rect ry="40" rx="40" y="-606" x="3" height="900" width="600" id="rect20" style="fill:#ffffff;fill-opacity:1;stroke:none;stroke-width:294.94192505;stroke-linecap:round;stroke-linejoin:round;stroke-miterlimit:1.41400003;stroke-dasharray:none;stroke-opacity:1"/>
    <rect style="fill:#000000;fill-opacity:1;stroke:none;stroke-width:284.69351196;stroke-linecap:round;stroke-linejoin:round;stroke-miterlimit:1.41400003;stroke-dasharray:none;stroke-opacity:1" id="rect1284" width="575" height="875" x="15.5" y="-593.5" rx="27.5" ry="27.5"/>
    <rect ry="15" rx="15" y="-580.99994" x="28" height="850" width="550" id="rect1286" style="fill:#ffffff;fill-opacity:1;stroke:none;stroke-width:274.42926025;stroke-linecap:round;stroke-linejoin:round;stroke-miterlimit:1.41400003;stroke-dasharray:none;stroke-opacity:1"/>
    <path inkscape:connector-curvature="0" id="path1831" style="fill:#000000;fill-opacity:1;fill-rule:nonzero;stroke:none;stroke-width:1.96229136" d="M 437,-356 H 541 L 169,44 H 65 Z" sodipodi:nodetypes="ccccc"/>
    <path sodipodi:nodetypes="ccccc" d="M 169,-356 H 65 L 437,44 h 104 z" style="fill:#000000;fill-opacity:1;fill-rule:nonzero;stroke:none;stroke-width:1.96229136" id="path1833" inkscape:connector-curvature="0"/>
    <path inkscape:connector-curvature="0" id="path1835" style="fill:#000000;fill-opacity:1;fill-rule:nonzero;stroke:none;stroke-width:1.90314674" d="m 99.1985,-469.0496 c -0.9954,6.77628 -4.8164,13.45677 -10.0539,16.73617 -2.1475,1.31669 -4.5422,1.94389 -7.067,2.15119 l -14.345,0.03 v 42.34123 H 56.57 v -96.95063 h 22.0676 c 3.9613,0.14 8.0519,0.22 11.1816,2.82579 4.6232,3.3936 7.9362,9.31879 9.252,15.33398 1.0426,4.72629 1.116,9.76948 0.6115,14.79947 z"/>
    <path inkscape:connector-curvature="0" id="path1837" style="fill:#ffffff;fill-opacity:1;fill-rule:nonzero;stroke:none;stroke-width:1.90314674" d="m 81.3891,-490.78337 c 2.2952,0.193 4.4159,1.7971 5.595,4.3388 1.0919,2.39469 1.5734,5.10349 1.7201,7.97588 0.032,3.4401 -0.4079,6.64329 -1.3297,9.58919 -1.2619,3.35369 -4.0815,5.22989 -7.0142,5.24369 H 67.7326 v -27.14756 h 13.6539 z"/>
    <path inkscape:connector-curvature="0" id="path1839" style="fill:#000000;fill-opacity:1;fill-rule:nonzero;stroke:none;stroke-width:1.90314674" d="m 119.6191,-453.17853 v 31.70014 h 29.1987 v 13.69088 h -40.5747 v -96.63673 h 38.511 v 13.51357 h -27.135 v 24.22876 H 136.61 v 13.50338 z"/>
    <path inkscape:connector-curvature="0" id="path1841" style="fill:#000000;fill-opacity:1;fill-rule:nonzero;stroke:none;stroke-width:1.90314674" d="m 162.9028,-407.78751 v -96.51963 l 20.0834,-0.004 c 7.3616,0.281 13.9149,5.16399 17.8419,12.95948 2.786,5.20679 3.7786,11.31308 4.6502,17.49186 0.8346,7.83919 1.2256,16.17198 0.908,24.19166 l -0.4678,7.58839 c -0.8948,7.12098 -1.4832,14.40927 -4.1481,20.64836 -4.402,8.36339 -11.4563,13.55348 -19.4292,13.64348 h -19.4386 z"/>
    <path inkscape:connector-curvature="0" id="path1843" style="fill:#ffffff;fill-opacity:1;fill-rule:nonzero;stroke:none;stroke-width:1.90314674" d="m 181.9872,-490.73317 c 2.4189,0.331 4.6594,1.1792 6.6203,2.8222 4.3181,4.18809 4.8459,10.48768 5.6814,16.51947 1.7536,13.49408 0.8587,27.93575 -1.6197,40.75513 -0.578,3.21999 -2.8491,6.01509 -5.2141,7.58848 -1.4358,0.912 -2.9598,1.5695 -4.716,1.5695 h -8.6776 l -0.01,-69.25858 7.9322,0.004 z"/>
    <path inkscape:connector-curvature="0" id="path1845" style="fill:#000000;fill-opacity:1;fill-rule:nonzero;stroke:none;stroke-width:1.90314674" d="m 230.919,-453.17853 v 31.70014 h 29.2012 v 13.69088 h -40.5746 v -96.63673 h 38.5109 v 13.51357 H 230.919 v 24.22876 h 16.9907 v 13.50338 z"/>
    <path inkscape:connector-curvature="0" id="path1847" style="fill:#000000;fill-opacity:1;fill-rule:nonzero;stroke:none;stroke-width:1.90314674" d="m 293.7812,-470.0551 c 4.2488,2.37149 8.3969,5.47709 12.101,9.44228 2.8827,3.0359 4.7124,6.79289 6.5636,10.45708 1.8529,4.38519 3.0191,9.11149 3.5933,14.14168 0.431,7.13488 -0.8213,13.95857 -4.268,19.39206 -3.8416,6.08579 -9.2723,9.66349 -15.2848,10.53128 -2.6883,0.284 -5.1797,-0.134 -7.6348,-0.76499 -2.4383,-0.808 -4.7225,-2.1513 -6.8803,-3.7979 -2.4189,-2.24419 -5.1435,-4.99949 -6.3933,-8.30688 -2.3576,-4.7253 -3.5331,-10.09629 -3.3593,-15.93138 h 11.2952 c 0.048,4.1279 0.2611,7.58479 2.5184,10.59099 2.8091,4.01169 7.2009,5.35719 11.2497,3.98199 2.3445,-0.886 4.6891,-2.9636 5.8916,-5.77549 3.0656,-6.17869 1.0417,-14.14168 -1.7433,-19.67647 -2.1114,-3.89079 -5.1176,-7.16748 -8.3569,-9.30848 l -7.4621,-4.48549 c -2.6986,-1.8567 -5.6305,-4.04139 -7.4446,-7.51139 -2.3946,-3.98189 -3.8276,-8.51388 -3.8908,-13.64727 -0.171,-3.6344 0.3674,-7.19449 1.4758,-10.33709 1.9505,-5.05729 5.5449,-10.48788 9.9599,-12.64287 5.0571,-3.0052 12.442,-3.219 17.3755,0.301 2.194,1.40319 4.2811,3.21349 6.1183,5.59429 3.0062,4.23179 4.81,9.79628 4.8732,15.51497 h -11.1393 c -0.1468,-4.05539 -2.5647,-7.88569 -5.6573,-9.33548 -2.8724,-1.4236 -6.2597,-0.779 -8.6005,1.61619 -2.3687,2.5721 -3.9253,6.11919 -3.0898,10.12988 0.5612,3.247 2.5118,6.56719 5.1501,7.92949 0.9552,0.658 2.0444,1.3464 3.0395,1.8976 z"/>
    <path inkscape:connector-curvature="0" id="path1849" style="fill:#000000;fill-opacity:1;fill-rule:nonzero;stroke:none;stroke-width:1.90314674" d="m 361.6906,-492.16986 -14.4892,-0.002 v 84.38515 h -11.1652 v -84.38525 l -14.1314,0.002 v -12.20798 h 39.7858 z"/>
    <path inkscape:connector-curvature="0" id="path1851" style="fill:#000000;fill-opacity:1;fill-rule:nonzero;stroke:none;stroke-width:1.90314674" d="m 412.5048,-467.74771 c -1.6094,5.16759 -5.516,9.90969 -9.3668,12.30538 l 11.4188,47.65482 H 402.913 l -10.8278,-44.87622 h -10.2609 v 44.87622 c -3.6141,0.01 -7.8898,-0.02 -11.2257,0 v -96.53633 l 27.0901,0.004 c 9.447,0 15.2883,11.78678 15.9388,20.07596 0.3269,5.41769 0.4348,11.48298 -1.1227,16.49647 z"/>
    <path inkscape:connector-curvature="0" id="path1853" style="fill:#ffffff;fill-opacity:1;fill-rule:nonzero;stroke:none;stroke-width:1.90314674" d="m 396.0066,-490.81307 c 2.2098,0.107 4.2821,1.4523 5.4233,3.8779 1.864,3.75319 1.7897,9.15408 0.9683,13.46317 -0.5131,2.9021 -2.6039,5.70109 -4.9864,6.46309 l -1.3382,0.394 -14.2494,-0.004 v -24.16466 z"/>
    <path inkscape:connector-curvature="0" id="path1855" style="fill:#000000;fill-opacity:1;fill-rule:nonzero;stroke:none;stroke-width:1.90314674" d="m 439.7475,-407.78751 v -96.95073 h -11.5099 v 96.95073 z"/>
    <path inkscape:connector-curvature="0" id="path1857" style="fill:#000000;fill-opacity:1;fill-rule:nonzero;stroke:none;stroke-width:1.90314674" d="M 467.2784,-504.53094 H 478.32 l 19.8324,96.74343 h -11.3631 l -5.7317,-27.18386 h -15.9871 l -5.5292,27.18386 H 448.113 Z"/>
    <path inkscape:connector-curvature="0" id="path1859" style="fill:#ffffff;fill-opacity:1;fill-rule:nonzero;stroke:none;stroke-width:1.90314674" d="m 478.1323,-448.71904 -10.3873,-0.006 5.1034,-25.71855 5.2839,25.72505 z"/>
    <path inkscape:connector-curvature="0" id="path1861" style="fill:#000000;fill-opacity:1;fill-rule:nonzero;stroke:none;stroke-width:1.90314674" d="m 505.7538,-504.35364 h 8.6721 l 23.7762,62.40159 v -62.40159 h 11.2276 v 96.56613 h -11.103 l -21.3268,-56.8331 v 56.8331 h -11.2498 z"/>
    <path inkscape:connector-curvature="0" id="path1434" style="fill:#000000;fill-opacity:1;fill-rule:nonzero;stroke:none;stroke-width:2.06580544" d="m 180.4821,131.22495 c -0.98331,6.70375 -4.76085,13.30667 -9.94168,16.54441 -2.12016,1.29941 -4.48651,1.92059 -6.98407,2.13251 l -14.18428,0.0234 v 41.86688 H 138.337 V 95.93197 h 21.81694 c 3.91678,0.14698 7.96164,0.21959 11.05433,2.79398 4.57435,3.36295 7.84757,9.22153 9.14576,15.16466 1.03185,4.6743 1.10458,9.66136 0.60736,14.63003 z"/>
    <path inkscape:connector-curvature="0" id="path1436" style="fill:#ffffff;fill-opacity:1;fill-rule:nonzero;stroke:none;stroke-width:2.06580544" d="m 162.87438,109.73974 c 2.26954,0.19149 4.36774,1.76916 5.53264,4.28488 1.07836,2.3643 1.55145,5.04738 1.69668,7.88599 0.0352,3.40323 -0.39938,6.56456 -1.30826,9.48375 -1.25168,3.31041 -4.03783,5.16449 -6.93576,5.18662 h -12.48761 l 0.002,-26.84124 z"/>
    <path inkscape:connector-curvature="0" id="path1438" style="fill:#000000;fill-opacity:1;fill-rule:nonzero;stroke:none;stroke-width:2.06580544" d="M 200.80524,191.79499 V 95.9348 h -11.37902 v 95.86019 z"/>
    <path inkscape:connector-curvature="0" id="path1440" style="fill:#000000;fill-opacity:1;fill-rule:nonzero;stroke:none;stroke-width:2.06580544" d="m 227.19987,146.91616 v 31.33805 h 28.86888 v 13.54078 H 215.95586 V 95.9348 h 38.07331 v 13.67167 h -26.8293 v 23.95448 h 16.79979 v 13.35521 z"/>
    <path inkscape:connector-curvature="0" id="path1442" style="fill:#000000;fill-opacity:1;fill-rule:nonzero;stroke:none;stroke-width:2.06580544" d="m 236.37992,86.6566 h -4.9364 l 7.89896,-19.67553 h 9.06829 z"/>
    <path inkscape:connector-curvature="0" id="path1444" style="fill:#000000;fill-opacity:1;fill-rule:nonzero;stroke:none;stroke-width:2.06580544" d="m 302.45144,108.36579 -14.32426,-0.006 v 83.43728 H 277.0889 v -83.43728 l -13.97247,0.006 V 96.29383 h 39.33501 z"/>
    <path inkscape:connector-curvature="0" id="path1446" style="fill:#000000;fill-opacity:1;fill-rule:nonzero;stroke:none;stroke-width:2.06580544" d="m 330.93604,194 c 22.56953,0 22.81655,-33.70257 22.81655,-49.99699 0,-16.29841 -0.55164,-50.00309 -22.81655,-50.00309 -22.26491,0 -22.81464,33.70468 -22.81464,50.00309 0,16.29442 0.24481,49.99699 22.81464,49.99699 z"/>
    <path inkscape:connector-curvature="0" id="path1448" style="fill:#ffffff;fill-opacity:1;fill-rule:nonzero;stroke:none;stroke-width:2.06580544" d="m 330.93604,180.61258 c 9.50787,0 11.83703,-16.39344 11.83703,-36.60957 0,-20.2224 -2.36539,-36.60754 -11.83703,-36.60754 -9.4726,0 -11.83713,16.38514 -11.83713,36.60754 0,20.21613 2.3282,36.60957 11.83713,36.60957 z"/>
    <path inkscape:connector-curvature="0" id="path1450" style="fill:#000000;fill-opacity:1;fill-rule:nonzero;stroke:none;stroke-width:2.06580544" d="m 367.26506,96.31801 h 8.57291 l 23.50967,61.69384 V 96.31801 h 11.10269 v 95.47698 h -10.98162 l -21.08466,-56.1924 v 56.1924 H 367.26103 V 96.31801 Z"/>
    <path inkscape:connector-curvature="0" id="path1452" style="fill:#000000;fill-opacity:1;fill-rule:nonzero;stroke:none;stroke-width:2.06580544" d="m 445.569,130.23437 c 4.20637,2.33602 8.30558,5.40664 11.96721,9.33226 2.85453,3.00392 4.66023,6.71599 6.49201,10.34122 1.82966,4.33138 2.98365,9.0096 3.55465,13.97646 0.42397,7.05884 -0.81313,13.80305 -4.22256,19.17332 -3.79468,6.02184 -9.17296,9.55641 -15.11611,10.41377 -2.65497,0.27874 -5.11823,-0.13351 -7.54104,-0.7526 -2.41486,-0.8009 -4.6703,-2.13438 -6.8068,-3.75832 -2.3906,-2.21907 -5.08161,-4.94057 -6.32033,-8.20871 -2.33022,-4.67634 -3.49408,-9.98606 -3.32471,-15.75978 h 11.17018 c 0.047,4.08099 0.25832,7.50261 2.48952,10.47631 2.77795,3.96199 7.11938,5.29754 11.12196,3.93576 2.31795,-0.87135 4.63196,-2.93324 5.82209,-5.71318 3.03628,-6.10863 1.03494,-13.97434 -1.72087,-19.45165 -2.08588,-3.84318 -5.05957,-7.08713 -8.25698,-9.19921 l -7.3777,-4.43632 c -2.66896,-1.83773 -5.56999,-3.99648 -7.36563,-7.43216 -2.36424,-3.92979 -3.78451,-8.41441 -3.84298,-13.4862 -0.17158,-3.59905 0.36309,-7.1194 1.45248,-10.2241 1.92858,-4.99901 5.48535,-10.36927 9.85093,-12.50184 5.0011,-2.97142 12.30212,-3.1772 17.17803,0.29864 2.1687,1.392 4.23455,3.18135 6.05223,5.5337 2.97167,4.18616 4.75695,9.68947 4.81533,15.33407 l -11.01278,0.006 c -0.14934,-4.01264 -2.53573,-7.79926 -5.59415,-9.23171 -2.83661,-1.40598 -6.18336,-0.77256 -8.50121,1.59794 -2.3422,2.54178 -3.88171,6.05012 -3.05842,10.01212 0.56094,3.20964 2.48943,6.492 5.09801,7.83972 0.94608,0.65363 2.01715,1.33349 2.99764,1.88423 z"/>
  </g>
</svg>