<?xml version="1.0" encoding="UTF-8" standalone="no"?>
<!DOCTYPE svg PUBLIC "-//W3C//DTD SVG 1.1//EN" "http://www.w3.org/Graphics/SVG/1.1/DTD/svg11.dtd">
<svg width="100%" height="100%" viewBox="0 0 169 225" version="1.1" xmlns="http://www.w3.org/2000/svg" xmlns:xlink="http://www.w3.org/1999/xlink" xml:space="preserve" xmlns:serif="http://www.serif.com/" style="fill-rule:evenodd;clip-rule:evenodd;">
    <g>
        <path d="M0.7,214.918L0.7,9.711C0.7,4.748 4.721,0.7 9.693,0.7L158.931,0.7C163.893,0.7 167.933,4.748 167.933,9.711L167.933,214.918C167.933,219.89 163.901,223.909 158.931,223.909L9.693,223.909C4.721,223.909 0.7,219.89 0.7,214.918Z" style="fill:white;stroke:black;stroke-width:0.8px;"/>
        <path d="M2.566,214.758C2.566,218.695 5.749,221.878 9.687,221.878L158.936,221.878C162.866,221.878 166.064,218.695 166.064,214.758L166.064,9.537C166.064,5.61 162.866,2.416 158.936,2.416L9.687,2.416C5.749,2.416 2.566,5.61 2.566,9.537L2.566,214.758Z"/>
        <path d="M9.688,218.572C7.577,218.572 5.868,216.865 5.868,214.753L5.868,9.534C5.868,7.432 7.577,5.717 9.688,5.717L158.937,5.717C161.038,5.717 162.756,7.432 162.756,9.534L162.756,214.753C162.756,216.601 161.441,218.139 159.705,218.495L158.937,218.572L9.688,218.572Z" style="fill:white;"/>
    </g>
    <path d="M15.481,208.959L47.525,207.221C48.851,207.169 49.956,206.189 50.145,204.871C50.312,203.701 49.712,202.55 48.647,202.017L41.682,196.951L63.142,179.573L54.135,168.45L32.674,185.828L29.168,177.962C28.868,176.809 27.866,175.983 26.687,175.903C25.359,175.814 24.17,176.691 23.844,177.978L15.481,208.959Z"/>
    <g>
        <rect id="path25" x="128.498" y="149.655" width="22.403" height="9.181"/>
        <rect id="path27" x="100.884" y="149.655" width="22.402" height="9.181"/>
        <rect id="path29" x="73.271" y="149.655" width="22.402" height="9.181"/>
        <rect id="path31" x="45.489" y="149.655" width="22.402" height="9.181"/>
        <rect id="path33" x="17.875" y="149.655" width="22.402" height="9.181"/>
    </g>
    <g>
        <path id="path23" d="M134.895,135.006C136.493,137.191 139.563,137.659 141.749,136.074C143.843,134.549 144.403,131.652 143.009,129.466L125.289,104.546L125.289,85.655L113.859,106.335L134.895,135.006Z"/>
        <path id="path19" d="M87.245,129.45C85.944,132.042 87.103,135.185 89.777,136.312C92.187,137.33 94.963,136.322 96.163,134.005L125.3,81.227L128.799,81.227C129.288,82.721 130.679,83.729 132.257,83.729C133.863,83.729 135.277,82.681 135.744,81.147L146.887,81.147L146.887,66.393L141.874,66.393L126.369,44.208C125.413,42.836 124.315,41.159 122.475,41.23L109.634,41.728C108.83,41.819 108.049,42.083 107.357,42.511C106.725,42.897 106.187,43.415 105.76,44.025L93.519,63.323L82.731,72.646C81.044,74.04 80.871,76.55 82.336,78.167C83.666,79.632 85.894,79.834 87.469,78.646L98.969,69.057L105.882,58.941L105.882,93.947L87.245,129.45ZM124.793,66.478L124.793,55.274L131.982,66.447L124.793,66.478Z"/>
        <path id="path35" d="M114.354,18.625C109.317,18.625 105.228,22.714 105.228,27.752C105.228,32.789 109.317,36.878 114.354,36.878C119.391,36.878 123.481,32.789 123.481,27.752C123.481,22.714 119.391,18.625 114.354,18.625Z"/>
    </g>
    <g>
        <path id="path37" d="M53.571,18.625C48.535,18.625 44.445,22.714 44.445,27.752C44.445,32.789 48.535,36.878 53.571,36.878C58.608,36.878 62.697,32.789 62.697,27.752C62.697,22.714 58.608,18.625 53.571,18.625Z"/>
        <path id="path21" d="M22.253,129.281C21.155,131.732 22.162,134.62 24.55,135.86C27.062,137.161 30.153,136.155 31.424,133.624L44.651,105.887L54.015,105.887L66.205,133.481C67.283,136.022 70.233,137.202 72.774,136.104C75.295,135.005 76.454,132.077 75.367,129.556L64.782,105.898L70.435,105.898L61.681,74.135L64.274,74.177C64.883,75.356 66.114,76.077 67.436,76.057C68.748,76.037 69.937,75.284 70.517,74.114L78.692,74.114L78.692,60.197L73.394,60.197L63.725,42.261C63.298,41.682 62.769,41.193 62.149,40.827C61.489,40.432 60.745,40.187 59.974,40.106L48.504,40.38C47.813,40.432 47.153,40.655 46.563,41.011C45.962,41.378 45.455,41.884 45.09,42.495L33.091,62.352L24.317,69.672C22.802,70.79 22.457,72.914 23.544,74.461C24.693,76.087 26.971,76.413 28.526,75.183L38.5,67.304L43.777,59.312L43.777,69.907L28.242,105.827L33.355,105.827L22.253,129.281ZM61.148,60.247L61.159,54.524L64.512,60.228L61.148,60.247L61.148,60.248L61.148,60.247Z"/>
    </g>
</svg>
