<?xml version="1.0" encoding="UTF-8" standalone="no"?>
<!DOCTYPE svg PUBLIC "-//W3C//DTD SVG 1.1//EN" "http://www.w3.org/Graphics/SVG/1.1/DTD/svg11.dtd">
<!-- GeoHints -->
<svg width="100%" height="100%" viewBox="0 0 572 755" version="1.1" xmlns="http://www.w3.org/2000/svg" xmlns:xlink="http://www.w3.org/1999/xlink" xml:space="preserve" xmlns:serif="http://www.serif.com/" style="fill-rule:evenodd;clip-rule:evenodd;stroke-linejoin:round;stroke-miterlimit:2;">
    <g transform="matrix(0.983842,0,0,0.994498,-103.643,-15.5593)">
        <path d="M686.31,50.839C686.31,41.505 682.562,32.553 675.891,25.953C669.219,19.353 660.171,15.645 650.735,15.645C546.862,15.645 244.794,15.645 140.92,15.645C131.485,15.645 122.437,19.353 115.765,25.953C109.094,32.553 105.345,41.505 105.346,50.839C105.346,177.842 105.346,611.728 105.346,738.731C105.345,748.065 109.094,757.016 115.765,763.616C122.437,770.216 131.485,773.924 140.92,773.924C244.794,773.924 546.862,773.924 650.735,773.924C660.171,773.924 669.219,770.216 675.891,763.616C682.562,757.016 686.31,748.065 686.31,738.731C686.31,611.728 686.31,177.842 686.31,50.839Z" style="fill:rgb(235,235,235);"/>
    </g>
    <g transform="matrix(0.938959,0,0,0.958735,-84.3127,-0.397411)">
        <path d="M686.31,41.721C686.31,34.806 683.505,28.173 678.512,23.283C673.519,18.393 666.747,15.645 659.685,15.645C562.703,15.645 228.953,15.645 131.971,15.645C124.909,15.645 118.137,18.393 113.144,23.283C108.151,28.173 105.346,34.806 105.346,41.721C105.346,158.318 105.346,631.251 105.346,747.848C105.346,754.764 108.151,761.397 113.144,766.287C118.137,771.177 124.909,773.924 131.971,773.924C228.953,773.924 562.703,773.924 659.685,773.924C666.747,773.924 673.519,771.177 678.512,766.287C683.505,761.397 686.31,754.764 686.31,747.848C686.31,631.251 686.31,158.318 686.31,41.721Z"/>
    </g>
    <g transform="matrix(0.888689,0,0,0.92022,-65.4578,13.7645)">
        <path d="M686.31,37.379C686.31,31.615 683.939,26.087 679.719,22.011C675.498,17.935 669.774,15.645 663.805,15.645C571.241,15.645 220.415,15.645 127.851,15.645C121.882,15.645 116.158,17.935 111.937,22.011C107.717,26.087 105.345,31.615 105.346,37.379C105.346,147.417 105.346,642.153 105.346,752.19C105.345,757.955 107.717,763.483 111.937,767.559C116.158,771.635 121.882,773.924 127.851,773.924C220.415,773.924 571.241,773.924 663.805,773.924C669.774,773.924 675.498,771.635 679.719,767.559C683.939,763.483 686.31,757.955 686.31,752.19C686.31,642.153 686.31,147.417 686.31,37.379Z" style="fill:rgb(235,235,235);"/>
    </g>
    <g transform="matrix(1,0,0,1,-114.733,-18.8605)">
        <rect x="217.4" y="639.031" width="378" height="13.5"/>
    </g>
    <g transform="matrix(1,0,0,1,-114.733,-20.8605)">
        <path d="M362.19,173.33C367.3,146.02 404,134.29 425.59,150.4C441.31,162.11 445.67,184.64 439.64,202.63C436.64,208.82 429.04,214.89 432.54,222.4C438.88,236.69 441.28,231.84 452.47,240.5C457.09,244.48 536.95,282.57 542.05,284.71C554.907,290.105 555.15,285.68 559.79,300.13C562.74,336.17 569.77,371.94 571.34,408.11C567.34,417.15 553,414.4 550.62,405.34C544.32,384.78 533.837,320.66 533.837,320.66C533.837,320.66 532.849,319.836 497.33,301.65C493.02,297.96 484.22,294.21 480.77,300.7C476.01,312.92 474.09,376.43 480.88,394.13C500.29,463.65 535.25,587.8 546.17,625.14C536.72,629.67 528.22,633.74 516.47,637.6C501.05,595.74 445.86,434.94 440.7,424.16C438.27,419.63 434.34,413.79 428.45,414.69C421.75,417.8 369.04,483.09 363.26,503.89C356.24,516.56 343.21,621.23 338.37,643.35C306.7,642.33 321.19,642.89 299.12,641.66C307.325,589.426 319.01,510.96 319.01,510.96C319.01,510.96 319.83,487.68 332.12,474.07C337.15,460.37 374.24,396.07 383.59,385.57C392.88,373.87 369.91,321.51 356.62,323.66C346.59,330.56 336.65,338.02 325.96,343.94C289.95,348.14 254.06,353.8 218,357.62C206.34,360.34 205.09,340.53 215.1,338.12C236.66,332.02 280.119,316.941 301.62,310.63C309.765,308.239 303.999,312.206 316.61,299.6C336.18,283.67 352.28,263.12 374.57,250.66C379.69,247.18 384.37,241.79 384.61,235.34C384.06,227.29 376.69,222.67 371.74,217.25C362.36,205.13 354.42,188.27 362.19,173.33Z" style="fill:rgb(11,12,14);fill-rule:nonzero;"/>
    </g>
</svg>
