<?xml version="1.0" encoding="UTF-8" standalone="no"?>
<!DOCTYPE svg PUBLIC "-//W3C//DTD SVG 1.1//EN" "http://www.w3.org/Graphics/SVG/1.1/DTD/svg11.dtd">
<!-- GeoHints -->
<svg width="100%" height="100%" viewBox="0 0 1149 1387" version="1.1" xmlns="http://www.w3.org/2000/svg" xmlns:xlink="http://www.w3.org/1999/xlink" xml:space="preserve" xmlns:serif="http://www.serif.com/" style="fill-rule:evenodd;clip-rule:evenodd;stroke-linejoin:round;stroke-miterlimit:2;">
    <g id="layer1" transform="matrix(1,0,0,1,-117639,29797.9)">
        <g transform="matrix(1.35133,0,0,1.08701,-41540.4,2480.26)">
            <path id="path10668" d="M118537,-28418.8C118597,-28418.8 118645,-28467.1 118645,-28526.8L118645,-29586.3C118645,-29646 118597,-29694.3 118537,-29694.3L117903,-29694.3C117843,-29694.3 117795,-29646 117795,-29586.3L117795,-28526.8C117795,-28467.1 117843,-28418.8 117903,-28418.8L118537,-28418.8Z" style="fill:rgb(255,213,32);"/>
            <path id="path10676" d="M118589,-28526.8C118589,-28498.4 118566,-28475.4 118537,-28475.4L117903,-28475.4C117874,-28475.4 117852,-28498.4 117852,-28526.8L117852,-29586.3C117852,-29614.7 117874,-29637.6 117903,-29637.6L118537,-29637.6C118566,-29637.6 118589,-29614.7 118589,-29586.3L118589,-28526.8ZM118537,-29666L117903,-29666C117859,-29666 117823,-29630.3 117823,-29586.3L117823,-28526.8C117823,-28482.8 117859,-28447.1 117903,-28447.1L118537,-28447.1C118581,-28447.1 118617,-28482.8 118617,-28526.8L118617,-29586.3C118617,-29630.3 118581,-29666 118537,-29666"/>
        </g>
        <g transform="matrix(2.19653,0,0,2.19653,-141025,33953.8)">
            <g transform="matrix(0.997061,0,0,0.997061,346.658,-83.7261)">
                <path d="M118111,-28705.4C118103,-28727.2 118098,-28748.9 118090,-28773.7L118059,-28783.5L118158,-28513.8L118128,-28503.3L118049,-28663.5L118007,-28591L117999,-28500.4L117965,-28502.2L117971,-28608.9L118017,-28697L117991,-28758.9C117982,-28752.1 117973,-28742 117963,-28735.1L117904,-28703.2L117891,-28722.5L117953,-28767L118000,-28831.4L118023,-28841L118120,-28793L118135,-28705.4L118111,-28705.4Z"/>
            </g>
            <g transform="matrix(0.431353,0,0,0.431353,117823,-28951.3)">
                <path d="M401.108,259.744C436.2,259.744 464.667,231.295 464.667,196.184C464.667,161.072 436.2,132.644 401.108,132.644C366.016,132.644 337.548,161.072 337.548,196.184C337.548,231.295 366.016,259.744 401.108,259.744Z"/>
            </g>
        </g>
        <g transform="matrix(0.970721,0,0,1,117736,-29685.8)">
            <rect x="134.676" y="1066.74" width="686.425" height="23.19"/>
        </g>
    </g>
</svg>
