<?xml version="1.0" encoding="UTF-8" standalone="no"?>
<!DOCTYPE svg PUBLIC "-//W3C//DTD SVG 1.1//EN" "http://www.w3.org/Graphics/SVG/1.1/DTD/svg11.dtd">
<!-- GeoHints -->
<svg width="100%" height="100%" viewBox="0 0 3473 3473" version="1.1" xmlns="http://www.w3.org/2000/svg" xmlns:xlink="http://www.w3.org/1999/xlink" xml:space="preserve" xmlns:serif="http://www.serif.com/" style="fill-rule:evenodd;clip-rule:evenodd;stroke-linejoin:round;stroke-miterlimit:2;">
    <g>
        <path d="M1616.24,52.81C1682.62,-13.565 1790.39,-13.565 1856.77,52.811L3420.2,1616.24C3486.57,1682.61 3486.57,1790.39 3420.2,1856.77L1856.76,3420.2C1790.39,3486.57 1682.61,3486.57 1616.24,3420.2L52.808,1856.77C-13.568,1790.39 -13.568,1682.62 52.808,1616.24L1616.24,52.81Z" style="fill:white;"/>
    </g>
    <g>
        <path d="M1656.33,92.896C1700.58,48.646 1772.43,48.648 1816.68,92.899L3380.11,1656.33C3424.36,1700.58 3424.36,1772.43 3380.11,1816.68L1816.68,3380.11C1772.42,3424.36 1700.58,3424.36 1656.33,3380.11L92.901,1816.68C48.651,1772.43 48.643,1700.58 92.894,1656.33L1656.33,92.896Z"/>
    </g>
    <g>
        <path d="M1706.44,143.009C1723.03,126.415 1749.98,126.413 1766.57,143.009L3330,1706.44C3346.59,1723.03 3346.59,1749.97 3330,1766.57L1766.57,3330C1749.97,3346.6 1723.03,3346.59 1706.43,3330L143.007,1766.57C126.411,1749.98 126.411,1723.04 143.007,1706.44L1706.44,143.009Z" style="fill:white;"/>
    </g>
    <g>
        <g>
            <g>
                <path d="M2567.31,2538.45L905.695,2538.45L974.434,2607.18L2498.58,2607.18L2567.31,2538.45Z"/>
            </g>
            <g>
                <path d="M2111.47,1394.73C2070.87,1291.12 2047.98,1187.5 2009.17,1069.72L1862.37,1022.93L2331.69,2307.83L2192.3,2358.03L1817.12,1594.8L1616.37,1940.93L1577.89,2372.39L1413.8,2364.16L1444.4,1855.63L1662.46,1435.5L1541.56,1140.64C1497.74,1173.02 1455.67,1221.34 1408.75,1254.16L1125.06,1406.39L1065,1314.33L1361.23,1101.94L1583.51,795.111L1695.02,748.925L2154.36,977.434L2226.47,1394.61L2111.47,1394.61L2111.47,1394.73Z"/>
                <circle cx="1566.07" cy="626.674" r="130.278"/>
            </g>
        </g>
    </g>
</svg>
