<?xml version="1.0" encoding="UTF-8" standalone="no"?>
<!DOCTYPE svg PUBLIC "-//W3C//DTD SVG 1.1//EN" "http://www.w3.org/Graphics/SVG/1.1/DTD/svg11.dtd">
<!-- GeoHints -->
<svg width="100%" height="100%" viewBox="0 0 101 102" version="1.1" xmlns="http://www.w3.org/2000/svg" xmlns:xlink="http://www.w3.org/1999/xlink" xml:space="preserve" xmlns:serif="http://www.serif.com/" style="fill-rule:evenodd;clip-rule:evenodd;stroke-linejoin:round;stroke-miterlimit:2;">
    <g id="path12243" transform="matrix(3.52778,0,0,-3.52778,779.852,161.253)">
        <path d="M-192.842,30.396L-192.634,30.694L-192.485,31.021L-192.455,31.378L-192.485,31.734L-192.634,32.091L-192.842,32.388L-205.777,45.293L-206.044,45.502L-206.401,45.65L-206.758,45.71L-207.115,45.65L-207.472,45.502L-207.739,45.293L-220.644,32.388L-220.882,32.091L-221.03,31.734L-221.06,31.378L-221.03,31.021L-220.882,30.694L-220.644,30.396L-207.739,17.492L-207.472,17.254L-207.115,17.105L-206.758,17.075L-206.401,17.105L-206.044,17.254L-205.777,17.492L-192.842,30.396" style="fill:rgb(253,224,18);fill-rule:nonzero;"/>
    </g>
    <g id="path12245" transform="matrix(3.52778,0,0,-3.52778,779.852,161.253)">
        <path d="M-206.996,18.235L-219.901,31.14L-219.99,31.288L-219.99,31.467L-219.901,31.645L-206.996,44.55L-206.847,44.639L-206.669,44.639L-206.52,44.55L-193.585,31.645L-193.496,31.467L-193.496,31.288L-193.585,31.14L-206.52,18.235L-206.669,18.146L-206.847,18.146L-206.996,18.235ZM-207.501,17.729L-207.234,17.521L-206.907,17.432L-206.579,17.432L-206.282,17.521L-206.015,17.729L-193.11,30.634L-192.902,30.902L-192.812,31.229L-192.812,31.556L-192.902,31.853L-193.11,32.121L-206.015,45.055L-206.282,45.234L-206.579,45.323L-206.907,45.323L-207.234,45.234L-207.501,45.055L-220.406,32.121L-220.614,31.853L-220.703,31.556L-220.703,31.229L-220.614,30.902L-220.406,30.634L-207.501,17.729"/>
    </g>
    <path d="M49.287,28.662C49.429,27.956 49.217,27.207 48.758,27.056C45.45,24.142 45.617,17.903 49.905,16.006C50.556,15.744 51.209,15.64 51.841,15.668C52.452,15.684 53.046,15.834 53.594,16.09C55.968,17.148 57.634,19.997 57.066,22.653C56.997,23.903 55.808,25.764 56.074,27.105C56.226,27.314 56.43,27.511 56.694,27.694C62.713,32.801 67.213,40.103 67.462,48.146C67.984,49.455 68.875,51.12 67.281,52.089C65.845,53.3 64.207,51.846 64.192,50.255C63.867,46.505 62.631,42.877 60.905,39.552C59.926,38.245 58.898,36.396 57.014,36.531C56.844,42.4 58.825,48.198 58.646,54.117C58.121,54.718 57.16,55.304 57.535,56.241C59.194,64.358 59.83,72.609 61.497,80.71C62.118,82.808 59.493,82.954 58.118,83.4C56.639,83.412 54.494,84.528 53.577,82.814C53.961,81.255 56.117,81.05 56.753,79.535C56.108,75.219 55.224,70.95 54.198,66.707C53.838,64.627 53.718,62.292 52.241,60.633C51.907,60.645 51.57,60.657 51.239,60.666C49.803,62.805 49.381,65.412 47.995,67.572C46.873,69.476 46.902,72.137 44.986,73.493C44.18,75.84 43.767,78.425 42.381,80.517C40.116,80.839 38.367,78.814 36.53,77.768C35.648,77.39 36.014,76.415 36.688,76.031C39.284,78.302 39.832,74.085 41.256,72.922C41.974,67.419 44.752,62.397 45.938,57.053C44.268,53.179 46.372,48.989 46.302,44.969C46.307,43.317 47.43,40.753 45.458,39.862C42.938,39.912 41.039,42.075 38.534,42.403C36.504,42.192 34.385,44.621 32.759,42.409C32.604,41.099 32.961,39.593 34.467,39.338C40.254,37.65 45.54,34.067 48.988,29.086C49.119,28.947 49.217,28.806 49.287,28.662Z" style="fill-rule:nonzero;"/>
</svg>
