<?xml version="1.0" encoding="UTF-8" standalone="no"?>
<!DOCTYPE svg PUBLIC "-//W3C//DTD SVG 1.1//EN" "http://www.w3.org/Graphics/SVG/1.1/DTD/svg11.dtd">
<!-- GeoHints -->
<svg width="100%" height="100%" viewBox="0 0 3473 3473" version="1.1" xmlns="http://www.w3.org/2000/svg" xmlns:xlink="http://www.w3.org/1999/xlink" xml:space="preserve" xmlns:serif="http://www.serif.com/" style="fill-rule:evenodd;clip-rule:evenodd;stroke-linejoin:round;stroke-miterlimit:2;">
    <g id="Layer-1" serif:id="Layer 1" transform="matrix(-1,0,0,1,3473,2631.11)">
        <g id="rect12525" transform="matrix(0.707107,-0.707107,0.707107,0.707107,0,0)">
            <path d="M3136.06,-510.205C3136.06,-604.074 3059.85,-680.284 2965.98,-680.284L754.961,-680.284C661.092,-680.284 584.882,-604.074 584.882,-510.205L584.882,1700.82C584.882,1794.69 661.092,1870.9 754.961,1870.9L2965.98,1870.9C3059.85,1870.9 3136.06,1794.69 3136.06,1700.82L3136.06,-510.205Z" style="fill:rgb(250,230,0);"/>
        </g>
        <g id="rect12527" transform="matrix(0.707107,-0.707107,0.707107,0.707107,0,0)">
            <path d="M3079.37,-510.205C3079.37,-572.785 3028.56,-623.591 2965.98,-623.591L754.961,-623.591C692.381,-623.591 641.575,-572.785 641.575,-510.205L641.575,1700.82C641.575,1763.4 692.381,1814.2 754.961,1814.2L2965.98,1814.2C3028.56,1814.2 3079.37,1763.4 3079.37,1700.82L3079.37,-510.205Z"/>
        </g>
        <g id="rect12529" transform="matrix(0.707107,-0.707107,0.707107,0.707107,0,0)">
            <path d="M3008.5,-510.205C3008.5,-533.673 2989.45,-552.725 2965.98,-552.725L754.961,-552.725C731.493,-552.725 712.441,-533.673 712.441,-510.205L712.441,1700.82C712.441,1724.29 731.493,1743.34 754.961,1743.34L2965.98,1743.34C2989.45,1743.34 3008.5,1724.29 3008.5,1700.82L3008.5,-510.205Z" style="fill:rgb(250,230,0);"/>
        </g>
        <g transform="matrix(0.914791,0,0,0.914791,148.434,61.7878)">
            <g id="rect12585" transform="matrix(0.883476,0,0,1,201.833,72.1476)">
                <path d="M948.467,-161.574L2524.53,-161.574L2459.33,-96.377L1013.66,-96.377L948.467,-161.574Z" style="fill-rule:nonzero;"/>
            </g>
            <g id="path13146" transform="matrix(0.912572,0,0,1,177.083,-4.54747e-13)">
                <path d="M432.561,-677.48L1232.78,-677.48L1208.09,-612.283L497.758,-612.283L432.561,-677.48Z" style="fill-rule:nonzero;"/>
            </g>
            <g id="path13148" transform="matrix(0.895194,0,0,1,152.129,-4.54747e-13)">
                <path d="M3040.43,-677.48L2080.85,-677.48L2095.6,-612.283L2975.24,-612.283L3040.43,-677.48Z" style="fill-rule:nonzero;"/>
            </g>
            <g id="path13150" transform="matrix(1,0,0,1,-6,0)">
                <path d="M1758.5,-677.48L1582.58,-677.48L1549.98,-612.283L1777.64,-612.283L1758.5,-677.48Z" style="fill-rule:nonzero;"/>
            </g>
            <g transform="matrix(8.81019,0,0,10.0447,131.231,-2980.66)">
                <path d="M189.38,73.56C199.91,70.95 211.58,80.73 208.64,91.76C206.21,103.73 189.29,107.85 181.29,98.84C172.77,91.16 177.74,74.61 189.38,73.56Z" style="fill-rule:nonzero;"/>
                <path d="M173.86,106.64C179.57,105.34 186.5,104.22 191.09,108.87C201.29,118.46 204.06,132.88 208.18,145.69C218.95,152.36 229.65,159.14 240.28,166.04C238.82,169.21 236.72,172.06 234.45,174.69C220.52,168.03 201.2,169.49 192.29,155.33C190.07,162.41 187.88,169.51 185.95,176.68C192.19,187.29 198.58,197.86 204.4,208.7C209.2,227.38 215.89,245.85 219.3,264.73C213.36,266.59 207.5,268.72 201.62,270.76C194.07,253.56 189.2,235.03 182.44,217.43C178.72,212.94 174.26,209.14 170.27,204.9C160.47,228.16 151.78,252.03 141.2,274.89C136.63,271.63 131.45,269.03 127.43,265.11C133.36,239.64 140.51,214.42 146.58,188.98C142.24,171.93 146.65,154.2 152.84,138.19C149.84,138.74 146.84,139.32 143.85,139.92C142.3,152.22 141.17,164.57 139.83,176.9C136.07,177.51 132.31,178.12 128.52,178.52C128.51,162.71 128.49,146.89 128.53,131.07C143.03,121.92 157.27,111.72 173.86,106.64Z" style="fill-rule:nonzero;"/>
            </g>
        </g>
    </g>
</svg>
