<?xml version="1.0" encoding="UTF-8" standalone="no"?><!DOCTYPE svg PUBLIC "-//W3C//DTD SVG 1.1//EN" "http://www.w3.org/Graphics/SVG/1.1/DTD/svg11.dtd"><svg width="100%" height="100%" viewBox="0 0 641 642" version="1.1" xmlns="http://www.w3.org/2000/svg" xmlns:xlink="http://www.w3.org/1999/xlink" xml:space="preserve" xmlns:serif="http://www.serif.com/" style="fill-rule:evenodd;clip-rule:evenodd;stroke-miterlimit:2.61313;"><path id="path7551" d="M609.496,638.561c15.374,-0 27.951,-12.579 27.951,-27.953l0,-580.05c0,-15.373 -12.577,-27.952 -27.951,-27.952l-578.937,-0c-15.375,-0 -27.953,12.579 -27.953,27.952l-0,580.05c-0,15.374 12.578,27.953 27.953,27.953l578.937,-0Z" style="fill:#fff;fill-rule:nonzero;stroke:#000;stroke-width:5.21px;"/><path id="path7553" d="M605.996,621.09c7.686,0 13.977,-6.289 13.977,-13.976l-0,-573.062c-0,-7.688 -6.291,-13.977 -13.977,-13.977l-571.95,0c-7.687,0 -13.977,6.289 -13.977,13.977l0,573.062c0,7.687 6.29,13.976 13.977,13.976l571.95,0Z" style="fill:#00c;fill-rule:nonzero;"/><path id="path7555" d="M320.871,61.873l287.042,501.042l-575.763,0l288.721,-501.042l0,0Z" style="fill:#fff;"/><path id="path7567" d="M220.22,433.532l20.172,0l-17.581,37.934c-9.251,25.356 6.661,36.64 22.575,39.974l-3.331,31.085l-56.623,-0l34.788,-108.993Zm200.403,0c-0,0 -18.137,0 -18.137,0l13.881,39.974c9.249,25.347 -10.36,33.489 -21.465,37.009l3.885,32.01l56.621,-0l-34.785,-108.993Zm-283.487,1.106l38.86,-0l-45.522,107.881l-54.403,0l61.065,-107.881Zm365.829,-0l-38.857,-0l45.522,107.881l54.404,0l-61.069,-107.881Zm-200.77,-1.645l37.56,-0l5.738,109.358l-48.851,-0l5.553,-109.358Z" style="stroke:#000;stroke-width:2.4px;stroke-miterlimit:2.6131;"/><path id="path5845" d="M238.255,501.239c-6.317,-3.623 -9.538,-8.533 -9.585,-14.611c-0.021,-2.958 13.381,-37.809 29.785,-77.447l29.827,-72.068l29.129,-1.912c16.02,-1.051 30.505,-1.383 32.188,-0.737c1.683,0.645 16.798,34.617 33.589,75.492c22.499,54.767 30.179,75.717 29.194,79.639c-1.95,7.769 -8.748,12.952 -16.989,12.952c-8.788,0 -13.754,-3.832 -17.841,-13.768c-27.117,-65.929 -55.272,-129.121 -57.242,-128.473c-1.351,0.445 -13.59,26.968 -27.197,58.941c-35.474,83.354 -33.576,79.573 -41.29,82.262c-8.087,2.819 -8.185,2.817 -13.568,-0.269l0,-0.001Zm50.556,-198.362c-0,-15.588 -0.903,-27.379 -2.155,-28.153c-2.293,-1.417 -6.253,2.537 -30.762,30.716c-17.265,19.85 -23.688,23.214 -29.834,15.625c-7.032,-8.685 -9.072,-5.476 40.606,-63.91c22.547,-26.521 37.483,-42.252 42.275,-44.526c9.176,-4.354 24.151,-4.518 32.139,-0.352c8.016,4.181 44.749,31.866 54.568,41.126l7.81,7.366l-1.484,24.835c-1.846,30.872 -3.36,35.375 -11.893,35.375c-9.115,-0 -10.609,-4.405 -9.437,-27.834l1.028,-20.57l-10.909,-6.992c-17.638,-11.303 -17.223,-11.951 -17.898,27.967l-0.592,34.958l-63.462,1.191l-0,-26.822Zm5.928,-106.145c-6.441,-3.994 -12.382,-14.569 -12.382,-22.041c-0,-21.056 26.794,-33.764 42.797,-20.298c18.521,15.584 8.193,46.208 -15.533,46.057c-4.938,-0.03 -11.635,-1.705 -14.882,-3.718Z" style="fill-rule:nonzero;"/></svg>