<?xml version="1.0" encoding="UTF-8" standalone="no"?>
<!DOCTYPE svg PUBLIC "-//W3C//DTD SVG 1.1//EN" "http://www.w3.org/Graphics/SVG/1.1/DTD/svg11.dtd">
<svg width="100%" height="100%" viewBox="0 0 800 703" version="1.1" xmlns="http://www.w3.org/2000/svg" xmlns:xlink="http://www.w3.org/1999/xlink" xml:space="preserve" xmlns:serif="http://www.serif.com/" style="fill-rule:evenodd;clip-rule:evenodd;stroke-linejoin:round;stroke-miterlimit:2;">
    <path d="M394.84,0L404.52,0C420.86,1.83 436.16,11.3 444.31,25.68C559.43,223.9 674.5,422.15 789.62,620.36C794.67,628.48 798.57,637.35 800,646.87L800,656.48C797.81,680.34 777.86,700.3 754.13,703L46.51,703C22.69,700.75 2.64,680.9 0,657.15L0,647.55C1.4,633.67 9.49,622.05 16.24,610.3C128.76,416.46 241.33,222.66 353.84,28.82C361.69,13.11 377.45,2.18 394.84,0M392.26,3.39C377.79,5.55 364.74,14.89 357.68,27.65C241.7,227.35 125.73,427.05 9.78,626.77C1.36,640.65 0.35,658.74 7.7,673.29C15.33,689.24 32.36,699.93 49.99,700.27C282.66,700.26 515.33,700.28 748.01,700.26C764.83,700.56 781.51,691.65 790.16,677.16C799.64,662.09 799.46,641.91 790.22,626.77C675.12,428.52 559.99,230.29 444.88,32.05C435.94,12.4 413.85,-0.68 392.26,3.39Z" style="fill-rule:nonzero;"/>
    <path d="M392.26,3.39C413.85,-0.68 435.94,12.4 444.88,32.05C559.99,230.29 675.12,428.52 790.22,626.77C799.46,641.91 799.64,662.09 790.16,677.16C781.51,691.65 764.83,700.56 748.01,700.26C515.33,700.28 282.66,700.26 49.99,700.27C32.36,699.93 15.33,689.24 7.7,673.29C0.35,658.74 1.36,640.65 9.78,626.77C125.73,427.05 241.7,227.35 357.68,27.65C364.74,14.89 377.79,5.55 392.26,3.39Z" style="fill:white;"/>
    <path d="M399.37,13.49C413.39,13.03 426.86,21.3 433.4,33.6C549.68,233.98 666.16,434.24 782.3,634.69C795.37,657.46 777.26,689.06 751.07,689.45C517.03,689.59 282.97,689.59 48.93,689.45C22.74,689.06 4.63,657.46 17.69,634.69C133.23,435.29 249.1,236.09 364.76,36.76C371.03,23.49 384.33,13.37 399.37,13.49M116.3,614.38C305.42,614.41 494.55,614.41 683.68,614.38C589.13,451.52 494.58,288.65 400,125.8C305.41,288.65 210.88,451.53 116.3,614.38Z" style="fill:rgb(204,0,0);fill-rule:nonzero;"/>
    <g>
        <path d="M588.29,594C575.79,563.39 546.591,493 546.591,493C546.591,493 558.05,493.34 582.79,493C602.04,526.94 621.9,559.65 640.42,594C619.59,594.95 605.66,593.78 588.29,594Z" style="fill-rule:nonzero;"/>
        <path d="M482.94,493C489.65,492.99 496.37,493 503.08,493C513.86,526.96 524.8,560.06 535.66,594C508.4,594.26 503.57,594.37 480.2,594C480.39,585.51 479.96,578.42 478.32,570.09C479.12,563.83 486.44,562.19 490.53,558.49C496.91,553.61 503.28,545.93 500.54,537.34C495.95,521.54 488.83,508.34 482.94,493Z" style="fill-rule:nonzero;"/>
        <path d="M387.39,493C399.46,492.98 411.52,492.98 423.59,493C426.72,527.64 428.28,559.27 430.01,594C415.11,593.67 385.29,594 385.29,594C385.29,594 386.06,524.59 387.39,493Z" style="fill-rule:nonzero;"/>
        <path d="M307.6,493C314.42,493.02 321.28,492.11 328.05,493C322.55,507.68 315.41,520.68 310.51,535.6C306.98,544.42 312.96,553.84 319.69,559.3C324,563.21 331.64,564.41 332.82,570.98C333.41,579.2 331.05,585.89 329.98,594L275.11,594C286.11,559.34 297.05,527.79 307.6,493Z" style="fill-rule:nonzero;"/>
        <path d="M227.83,493C239.86,493.32 251.21,493.46 263.97,493C251.41,527.15 236.17,560.4 222.21,594C205.09,593.88 193.73,593.88 170.77,594C188.97,559.49 208.88,527.11 227.83,493Z" style="fill-rule:nonzero;"/>
    </g>
    <g>
        <path d="M321.45,537.38C338.37,491.2 358.11,446.11 376.73,400.6C396.53,400.56 416.33,400.71 436.13,400.67C454.05,446.28 474.48,491.01 489.34,537.75C495.28,549.77 476.13,564.75 467.09,553.93C463.42,549.69 460.8,544.68 458.23,539.73C439.76,502.08 426.13,462.14 406.35,425.14C383.18,465.96 369.81,511.73 346.68,552.62C337.1,565.51 315.23,551.02 321.45,537.38Z" style="fill-rule:nonzero;"/>
        <path d="M400.03,284.88C408.82,283.3 418.76,282.1 426.59,287.44C442.84,297.84 458.43,309.36 472.97,322.05C476.79,326.07 482.64,329.77 482.31,336.02C482.55,349.74 481.79,363.56 479.18,377.04C478.09,381.07 477.1,386.18 472.92,388.11C468.34,389.27 462.73,385.93 462.1,381.08C460.37,368.77 462.86,356.07 461.16,343.87C455.03,337.11 446.57,330.4 437.23,329.78C433.12,351.28 435.46,373.43 434.81,395.2C415.23,395.19 395.65,395.2 376.07,395.2C375.6,378.27 377.3,361.08 374.25,344.34C357.57,357.86 344.72,375.53 328.25,389.29C321.72,395.3 310.47,384.11 316.69,377.64C335.04,351.12 356.25,326.7 377.6,302.57C384.18,295.77 390.16,286.87 400.03,284.88Z" style="fill-rule:nonzero;"/>
        <path d="M391.33,227.45C398.99,226.35 407.56,228.19 412.93,234.08C423.27,245.86 419.65,267.5 404.66,273.67C390.78,280.23 373.22,269.82 370.86,255.02C368.31,242.18 378.38,228.83 391.33,227.45Z" style="fill-rule:nonzero;"/>
    </g>
</svg>
