<?xml version="1.0" encoding="UTF-8" standalone="no"?><!DOCTYPE svg PUBLIC "-//W3C//DTD SVG 1.1//EN" "http://www.w3.org/Graphics/SVG/1.1/DTD/svg11.dtd"><svg width="100%" height="100%" viewBox="0 0 1236 1236" version="1.1" xmlns="http://www.w3.org/2000/svg" xmlns:xlink="http://www.w3.org/1999/xlink" xml:space="preserve" xmlns:serif="http://www.serif.com/" style="fill-rule:evenodd;clip-rule:evenodd;"><g><rect id="blauw_vlak" x="23.908" y="23.908" width="1187.5" height="1187.5" style="fill:#0e518d;"/><path id="witte_bies" d="M1117.74,1180.23c34.473,0 62.499,-28.059 62.499,-62.499l0,-1000.15c0,-34.606 -28.026,-62.499 -62.499,-62.499l-1000.15,0c-34.573,0 -62.499,27.893 -62.499,62.499l0,1000.15c0,34.44 27.926,62.499 62.499,62.499l1000.15,0" style="fill:none;fill-rule:nonzero;stroke:#f7fbf5;stroke-width:26.72px;"/><path id="witte_driehoek" d="M620.279,140.277l480.103,838.159l-966.783,0l486.68,-838.159" style="fill:#f7fbf5;fill-rule:nonzero;"/><path id="zwarte_persoon" d="M622.75,407.275c-13.056,0 -24.776,5.844 -32.623,15.26l-120.91,123.782l15.527,16.028l96.267,-73.962c1.937,41.239 10.285,84.147 10.285,84.147l-75.766,273.008l28.183,0l89.322,-205.591l32.089,88.053l72.794,108.522l23.073,-19.3l-57.367,-113.598l-27.648,-138.808l-0.534,-74.463l21.137,15.394l14.726,74.463l21.27,1.302l-6.511,-92.461l-69.288,-71.858c-15.393,-14.092 -34.026,-9.918 -34.026,-9.918Zm0,-6.277c23.475,-0 42.374,-19.033 42.374,-42.508c0,-23.374 -18.899,-42.407 -42.374,-42.407c-23.474,0 -42.407,19.033 -42.407,42.407c0,23.475 18.933,42.508 42.407,42.508" style="fill:#2a2d2f;fill-rule:nonzero;"/><path id="zwart_zebrapad" d="M310.474,940.871l-103.948,-0l103.948,-190.832l79.304,-0l-79.304,190.832Zm179.078,-0l-107.187,-0l62.075,-190.832l78.27,-0l-33.158,190.832Zm106.318,-190.832l61.975,-0l16.028,190.832l-107.22,-0l12.922,-153l16.295,-37.832Zm143.35,-0l56.865,-0l62.108,190.832l-107.086,-0l-15.527,-88.688l39.235,-29.752l-35.595,-72.392Zm190.832,190.832l103.947,-0l-103.947,-190.832l-79.305,-0l79.305,190.832" style="fill:#2a2d2f;fill-rule:nonzero;"/></g></svg>