<?xml version="1.0" encoding="UTF-8" standalone="no"?>
<svg xmlns:dc="http://purl.org/dc/elements/1.1/" xmlns:cc="http://creativecommons.org/ns#" xmlns:rdf="http://www.w3.org/1999/02/22-rdf-syntax-ns#" xmlns:svg="http://www.w3.org/2000/svg" xmlns="http://www.w3.org/2000/svg" xmlns:sodipodi="http://sodipodi.sourceforge.net/DTD/sodipodi-0.dtd" xmlns:inkscape="http://www.inkscape.org/namespaces/inkscape" version="1.1" width="502.60031" height="441.06461" id="svg2" inkscape:version="0.48.4 r9939" sodipodi:docname="Ajax.svg">
  <metadata id="metadata16">
    <rdf:RDF>
      <cc:Work rdf:about="">
        <dc:format>image/svg+xml</dc:format>
        <dc:type rdf:resource="http://purl.org/dc/dcmitype/StillImage"/>
        <dc:title/>
      </cc:Work>
    </rdf:RDF>
  </metadata>
  <defs id="defs14"/>
  <sodipodi:namedview pagecolor="#ffffff" bordercolor="#666666" borderopacity="1" objecttolerance="10" gridtolerance="10" guidetolerance="10" inkscape:pageopacity="0" inkscape:pageshadow="2" inkscape:window-width="1280" inkscape:window-height="1001" id="namedview12" showgrid="false" fit-margin-top="1.3" fit-margin-left="1.3" fit-margin-right="1.3" fit-margin-bottom="1.3" inkscape:zoom="1.2421589" inkscape:cx="152.52464" inkscape:cy="193.29683" inkscape:window-x="-8" inkscape:window-y="-8" inkscape:window-maximized="1" inkscape:current-layer="svg2"/>
  <path d="m 233.68007,11.472896 a 20.345787,20.345787 0 0 1 35.23994,0 L 498.57467,409.24569 a 20.345787,20.345787 0 0 1 -17.6198,30.51837 l -459.309104,5.5e-4 A 20.345787,20.345787 0 0 1 4.0258068,409.24595 z" style="fill:#ffffff;stroke:#000000;stroke-opacity:1;stroke-width:2;stroke-miterlimit:4;stroke-dasharray:none" id="path6" inkscape:connector-curvature="0"/>
  <path d="M 251.30004,94.896826 85.068726,382.78971 l 332.463174,0 z M 491.52879,413.32018 c 2.12496,3.69002 2.1214,8.51259 -0.009,12.19948 -2.13039,3.68689 -6.30681,6.09825 -10.56494,6.09994 l -459.309114,0 c -4.25813,-0.002 -8.43455,-2.41305 -10.56494,-6.09994 -2.1303892,-3.68689 -2.1339392,-8.50945 -0.009,-12.19947 L 240.72797,15.548206 c 2.13058,-3.6904 6.3108,-6.1038894 10.57207,-6.1038894 4.26127,0 8.44149,2.4134894 10.57207,6.1038894 z" style="fill:#cf181f;fill-opacity:1;stroke:none" id="path8" inkscape:connector-curvature="0" sodipodi:nodetypes="cccccsccsccscc"/>
  <path inkscape:connector-curvature="0" d="m 242.56095,346.40456 -1.07589,24.38479 -29.44214,0 1.53331,-9.35448 24.68759,-3.53048 2.45458,-11.49983 1.84255,0 z m 16.25438,-32.66338 23.3089,37.41793 -4.90917,4.75455 c -0.61204,0.76666 -1.06945,1.53331 -1.22407,2.45459 -0.30924,1.8361 0.61203,4.13607 2.14534,4.75455 0.92128,0.45767 1.84255,0.45767 2.75739,0.45767 l 8.13041,-0.30924 1.53331,7.51838 -29.59676,0 -2.14535,-57.04817 z m 48.4539,44.78169 5.83045,-3.6851 c 0,-3.22124 -0.15462,-6.59066 -1.06945,-9.50911 -0.46386,-1.53331 -1.23052,-2.912 -1.99717,-4.29069 l -10.43038,-14.10903 -4.29069,-17.63307 21.9302,0 22.38763,61.49348 -29.44214,0 -2.91845,-12.26648 z m -193.52569,12.26648 34.80873,-61.49348 22.08482,0 -27.45141,61.49348 -29.44214,0 z m 49.07238,0 22.38762,-61.49348 22.08483,0 -14.87569,61.49348 -29.59676,0 z m 196.44414,0 -27.2968,-61.49348 22.08483,0 34.80873,61.49348 -29.59676,0" style="fill:#000000;fill-opacity:1;fill-rule:evenodd;stroke:none" id="path4013"/>
  <path inkscape:connector-curvature="0" d="m 306.3544,344.87125 c 0.45742,1.68793 1.06945,3.22124 1.68149,4.75455 0.30924,0.92127 0.61848,1.84255 1.07589,2.75738 l -8.12397,3.53048 -0.61847,-1.68793 -5.66939,4.14252 -11.96369,2.14534 c -1.22407,0 -2.45458,0 -3.06662,-0.92127 -0.15462,-0.30254 -0.15462,-0.92128 -0.15462,-1.37869 0.15462,-1.22408 1.84255,-1.84255 3.06663,-2.60921 2.6092,-1.37869 4.29713,-3.52404 5.83044,-5.52121 l -1.53331,0.46386 -20.3969,-31.89672 -9.19986,-35.27259 -16.09976,30.06062 -3.6851,33.1208 -1.37869,0.30924 c -0.15462,1.99072 -0.15462,3.83327 -0.15462,5.66938 0,0.76666 0,1.53331 0,2.29997 l -8.74245,1.07589 0,-1.68793 -5.5212,2.45459 -14.10259,1.99072 c -1.23052,0 -2.45459,0 -2.91845,-0.76665 -0.30279,-0.45768 -0.45741,-1.22407 -0.30279,-1.83611 0.30279,-1.38513 1.68793,-2.15179 2.912,-2.76382 1.99072,-1.06946 3.52403,-1.99073 5.21196,-3.06663 1.99717,-1.22407 3.83328,-2.912 5.67583,-4.44531 l -2.29997,-0.30924 6.59711,-37.41793 18.70896,-40.48455 -1.84255,-39.7179 -13.497,17.63952 -21.16355,16.86641 -1.68793,-2.75738 c -0.30279,0.91483 -0.61203,1.83611 -1.22407,2.44814 -1.07589,0.76666 -3.06662,0.61848 -4.44531,-0.30254 -1.68793,-0.92127 -2.29997,-2.76382 -2.29997,-4.75455 -0.15462,-1.68793 0.3028,-3.37586 1.37869,-4.75455 0.45742,-0.76665 1.22407,-1.37869 1.84255,-1.99072 l -0.61848,-1.68793 19.78486,-14.26366 c 5.52121,-9.65728 10.8878,-19.47562 16.86642,-29.44214 0.30924,-0.46386 0.61204,-1.07589 1.0759,-1.53331 0.61203,-0.46386 1.22407,-0.76665 1.8361,-1.07589 2.30641,-1.06945 4.45176,-2.45459 6.75172,-3.22124 2.14535,-0.76666 4.44531,-1.06945 6.74528,-2.45459 0.92128,-0.61203 1.99717,-1.37869 2.29997,-2.44814 0.30924,-0.92128 0,-1.84255 -0.15462,-2.76383 -1.22407,-0.30253 -2.29997,-0.45767 -3.52404,-0.76665 -0.92128,-0.15462 -1.99717,-0.45767 -2.60921,-1.22407 -0.30279,-0.46386 -0.61203,-1.23052 -0.76665,-1.99717 l -0.3028,-4.29069 c -1.23051,-0.15462 -2.29996,-0.30924 -2.6092,-1.0759 -0.30924,-0.61203 0.15462,-1.53331 0.45741,-2.45458 0.46386,-1.06946 0.92128,-1.83611 1.23052,-2.91201 0.45741,-0.92127 0.45741,-2.14534 0.61203,-3.22124 0,0 0,0 -0.15462,0 -0.92127,-0.15462 -1.8361,-0.30305 -2.75738,-0.45767 -0.61203,-0.15462 -1.22407,-0.30924 -1.84255,-0.76666 -0.30279,-0.15461 -0.61203,-0.61203 -0.76665,-0.92127 0,-0.45767 0.15462,-0.92127 0.46386,-1.23051 0.45741,-0.61204 0.92127,-1.06946 1.53331,-1.37869 0.91483,-0.45768 1.68148,-0.92128 2.60276,-1.3787 0.30924,-0.15462 0.76665,-0.30924 1.23051,-0.45767 l 1.68149,-5.36659 c 0.30924,-0.61847 0.46386,-1.07589 0.7731,-1.38513 0.45741,-0.45767 1.06945,-0.61204 1.68149,-0.76666 l 11.35165,-2.75738 c 1.06945,-0.15462 2.14534,-0.30924 2.912,0.15462 0.30924,0.14844 0.61203,0.61204 0.92127,0.91483 l 3.52404,5.37303 c 0.76666,0.15462 1.53331,0.15462 2.45459,0.30254 0.61203,0.15462 1.37869,0.30924 1.84255,0.76666 0.30279,0.30924 0.45741,0.61203 0.61203,0.92127 l 0,0.15462 c 0.15462,0.45768 -0.15462,0.76666 -0.30924,1.22407 -0.45741,0.61204 -1.06945,0.92128 -1.53331,1.23052 -0.61203,0.45767 -1.06945,0.61203 -1.68149,0.91483 l 0.14818,0.46386 c 0.30924,3.52404 0.76666,7.20914 0.46386,10.88779 -0.15462,2.14535 -0.61204,4.44531 -1.53331,6.44248 -0.76666,1.68793 -1.84255,3.06662 -3.06662,4.59993 -0.15462,1.22408 -0.30924,2.45459 0.15462,3.36942 0.61203,1.23052 2.14534,1.84255 3.52404,2.45459 2.29996,0.92127 4.29069,1.68793 6.44248,2.29996 3.06662,0.92128 6.43604,1.84255 9.04524,3.83328 0.46386,0.30924 0.76666,0.61848 1.07589,0.92127 0.45742,0.30924 0.92128,0.92128 1.22408,1.3787 6.44248,8.43965 12.26648,17.17565 18.09693,25.9181 l -3.06662,34.66055 -2.14535,-0.46386 c -0.15462,0.76665 -0.15462,1.53331 0,2.15179 0.14818,0.45767 0.45742,0.91483 0.45742,1.53331 0.15461,1.06945 -0.76666,2.14534 -1.84255,2.75738 -1.83611,1.07589 -3.98146,0.92127 -5.66939,0 -2.29996,-1.07589 -3.98789,-3.06662 -4.45175,-5.36659 -0.3028,-1.23051 -0.3028,-2.45458 -0.14818,-3.67865 l -2.15179,-0.46386 3.53048,-25.91166 -12.4211,-14.72751 -2.14535,42.48172 10.12114,50.60569 21.92376,29.89955 -1.06945,0.30924" style="fill:#000000;fill-opacity:1;fill-rule:evenodd;stroke:none" id="path4015"/>
</svg>