<?xml version="1.0" encoding="UTF-8" standalone="no"?><!DOCTYPE svg PUBLIC "-//W3C//DTD SVG 1.1//EN" "http://www.w3.org/Graphics/SVG/1.1/DTD/svg11.dtd"><svg width="100%" height="100%" viewBox="0 0 1663 1667" version="1.1" xmlns="http://www.w3.org/2000/svg" xmlns:xlink="http://www.w3.org/1999/xlink" xml:space="preserve" xmlns:serif="http://www.serif.com/" style="fill-rule:evenodd;clip-rule:evenodd;stroke-linejoin:round;stroke-miterlimit:2;"><path d="M135.625,16.917c21.458,-0.292 42.917,-2.042 64.375,-1.667c415.292,0.083 830.542,0 1245.83,0.042c26.459,-0.167 52.959,-0.125 79.375,1.916c33.084,7.084 64.292,24.625 86.375,50.417c16.292,20.417 28.209,44.5 33.75,70.083c1.125,15.167 1.625,30.375 1.875,45.584c0,429.208 -0.041,858.375 0.042,1287.54c0.375,20.042 -1.208,40.042 -1.75,60.084c-8.583,26.041 -18.833,52.416 -37.917,72.708c-22.166,22.875 -51.166,39.333 -82.375,45.833c-25.041,1.917 -50.125,2.125 -75.208,1.917c-422.208,-0.042 -844.458,0.042 -1266.71,-0.042c-17.584,-0.916 -35.417,0.042 -52.75,-3.416c-33.709,-10.042 -66.167,-28.792 -86.292,-58.334c-13,-17.458 -20.583,-38.125 -27.25,-58.625c-0.625,-21.458 -2.167,-42.833 -1.75,-64.291c0.083,-418.042 0.042,-836.084 0.042,-1254.17c-0.25,-24.958 0.083,-49.958 1.791,-74.917c7.834,-33.958 26,-66.291 53.125,-88.625c19,-15.625 42.334,-24.416 65.417,-32.041Z" style="fill:#014a8f;"/><path d="M142.958,51.625c14.75,-1.917 29.709,-0.833 44.542,-1.042l1287.5,0c14.833,0.209 29.792,-0.875 44.542,1.084c52.416,10.083 96.125,60.708 92.458,115c-0.25,437.5 -0.042,875 -0.083,1312.5c-0.542,19.25 2.333,39.208 -4.417,57.75c-11.958,34.333 -39.958,63.333 -74.792,74.666c-17.166,6.125 -35.708,4.167 -53.583,4.542c-431.917,-0.083 -863.875,-0.042 -1295.79,-0.042c-18.958,-0.25 -38.791,2 -56.708,-5.666c-43.042,-16.125 -77.833,-59.167 -76.083,-106.334c0.083,-440.25 0.041,-880.5 0.041,-1320.75c0.375,-17.833 -2,-36.416 4.459,-53.5c13.041,-38.958 47.583,-70.041 87.916,-78.208m8.625,50.75c-23.875,5.583 -43.583,25.292 -49.291,49.125c-2.084,14.667 -0.792,29.542 -1.042,44.333c-0,425 -0,850 -0.042,1275c0.25,14.75 -0.875,29.625 1.125,44.334c6,24.75 27.167,45.041 52.25,49.666c13.709,1.292 27.5,0.459 41.209,0.584l1266.75,-0c16.125,-0.25 32.416,1 48.5,-1c24.666,-6.167 45.25,-27.167 49.666,-52.375c1.25,-13.709 0.417,-27.5 0.542,-41.209c0,-426.416 0,-852.791 0.042,-1279.17c-0.25,-13.375 0.875,-26.875 -0.959,-40.209c-5.583,-23.875 -25.583,-43.583 -49.375,-49.208c-13.291,-1.958 -26.75,-0.833 -40.125,-1.042c-425,0.042 -850,0.042 -1275,0.042c-14.75,0.25 -29.625,-1.083 -44.25,1.125Z" style="fill:#fff;fill-rule:nonzero;"/><path d="M177.875,1399.54c146.542,-253.875 581.583,-1010.71 654.833,-1133.88c54.125,96.083 637.042,1107.54 651.292,1135c-196.083,0.166 -1093.21,-1.084 -1306.12,-1.125Z" style="fill:#fff;"/><path d="M620.75,1165.5c21.458,-0.458 42.917,-0.25 64.375,-0.167c-7.25,38.5 -11.625,77.709 -20.792,115.75c-14.875,12.042 -34.25,17.959 -46.25,33.584c0.209,6.416 -0.041,13 1.417,19.375c4.167,5.916 10.917,10.375 18.333,10.333c19.334,1.042 38,-5.208 57.209,-6c-2.209,14.792 -4.459,29.625 -6.667,44.5c-41.583,1.708 -83.333,1.75 -124.917,-0.042c18.959,-72.5 39.417,-144.583 57.292,-217.333Zm401.083,172.75c20.5,-6.25 40.125,-14.958 59.375,-24.333c6.917,22.958 13.125,46.125 18.292,69.541c-41.917,0.334 -83.917,1.667 -125.75,-0.916c-1.292,-10.834 -2.458,-21.75 -2.583,-32.667c17.333,-1.458 34.666,-4.583 50.666,-11.625Zm-240.875,-48.792c4.209,-41.416 9.292,-82.75 13.125,-124.208l79.5,0c7.959,72.333 13,145.042 20.25,217.5c-41.625,2.458 -83.416,0.667 -125.083,1.125c1.292,-21.042 1.625,-42.292 6.125,-62.917c1.542,-8.375 1.083,-16.875 1.125,-25.291c1.25,-1.542 3.708,-4.667 4.958,-6.209Zm-322.458,-124.208c32.75,0 65.542,-0.042 98.333,0.042c-24.708,71.291 -48.625,142.833 -73.666,214c-1.875,7.125 -11.209,3.625 -16.417,4.75c-36.292,-0.25 -72.583,-0.042 -108.875,-0.125c3,-8.209 6.375,-16.25 10.167,-24.125c30.5,-64.667 60.25,-129.709 90.458,-194.542Zm647.167,0l98.375,0c29.166,63 58.291,125.958 87.75,188.833c4.708,9.709 9.125,19.625 12.75,29.834c-36.25,0.041 -72.542,-0.084 -108.792,0.083c-5.208,-1.208 -14.792,2.25 -16.625,-4.667c-24.625,-71.291 -48.875,-142.75 -73.458,-214.083Zm-107.625,0.167c14.666,-0.167 29.333,-0.167 44,-0.084c7.291,30.125 16.083,59.875 23.041,90.125c-23.416,-29.208 -44.875,-59.916 -67.041,-90.041Z" style="fill:#242021;fill-rule:nonzero;"/><path d="M811.875,497.917c16.75,-5.417 33.875,-9.584 50.917,-13.875c6.166,-1.084 13.583,-3.959 19,0.791c7.166,7 11.791,16.042 17.458,24.167c8.792,2.375 19.292,3.75 23.042,13.458c-5.209,4 -10.417,8 -15.709,11.917c0.5,19.625 2.75,39.5 -0.208,59.042c-2.542,18.208 -21.292,30.833 -17.583,50.375c20.375,13.041 44.291,17.75 66.541,26.333c14.292,5.375 24.625,17.083 32.625,29.667c21.625,32.208 45.042,63.5 64.625,96.958c1.209,27.583 -4.708,54.792 -5.541,82.292c-2.417,19.875 -4.417,39.833 -4.334,59.916c-3.875,1.542 -7.708,3.125 -11.583,4.667c1,3.833 3,11.458 4.042,15.25c-8.459,15.25 -31.584,14.708 -42.375,2.5c-9.334,-7.875 -11.292,-20.375 -11.542,-31.875c-2,-0.5 -6,-1.542 -8,-2.042c4.208,-30.833 8.042,-61.708 12.333,-92.541c0.459,-7.292 3.417,-16.084 -2.75,-21.792c-15.041,-18 -30.5,-35.708 -45.25,-53.958c-2.916,46.875 -4.958,93.791 -7.541,140.708c-0.584,15.167 -2.834,30.542 0.333,45.583c11.667,58.542 23.833,117 35.417,175.625c2.458,10.917 3,23.042 10.083,32.334c27.958,38.583 55.958,77.125 84.042,115.625c-1.084,13.291 5.25,25.125 10.25,37c-13.5,5.25 -26.709,15.375 -41.917,11.958c-9.042,5.75 -17.458,13.5 -28.5,14.958c-17.208,2.917 -34.458,8.625 -52.125,6.834l-2.208,-2.459c-0.25,-2.166 -0.75,-6.458 -1.042,-8.625c11.167,-9.583 24.625,-16.375 34.292,-27.75c-28.75,-40.125 -53.542,-82.916 -80.709,-124.083c-10.291,-14.5 -12.875,-32.417 -17.541,-49.125c-9.625,-36.458 -18.75,-73.042 -29.084,-109.292c-21,37.5 -40.125,76 -60.625,113.75c-7.541,12.459 -7.375,27.417 -9.083,41.417c-2.792,35.333 -8.917,70.375 -10.292,105.833c-1.958,1.417 -5.833,4.25 -7.75,5.667c-0.25,10.792 -0.291,21.625 -0.375,32.458c-14.041,0.959 -28.333,3.042 -42.25,-0.166c-9.458,3.625 -19,7.25 -29.041,8.708c-20.459,2.458 -40.75,7.375 -61.459,5.625c0.792,-5.875 -2.041,-14.083 4.375,-17.625c16,-10.667 33.084,-19.708 48,-32c-1.5,-3.458 -3,-6.917 -4.5,-10.333c9.792,-48.75 17.25,-97.959 26.292,-146.875c2.417,-11.375 8.458,-21.5 13.167,-32c20.541,-44.709 41.375,-89.25 62.125,-133.834c8.875,-17.125 1.333,-36.375 1.833,-54.5c-0.875,-39.791 -3.458,-79.458 -5.458,-119.208c-15.834,21.333 -32.25,42.167 -48.25,63.375c-10.084,13.667 -24.875,22.583 -37.75,33.25c-19.125,15.542 -38.959,30.292 -57.667,46.333c-1.542,-2.375 -4.625,-7.083 -6.167,-9.458c-2.875,3.625 -6.083,6.917 -9.625,9.917c-14.375,3.583 -27.291,-10.542 -26.791,-24.334c-1.917,-10.916 6.458,-19.041 12.25,-27.125c0.125,-2.333 0.375,-6.958 0.5,-9.291c25.25,-17.209 49.916,-35.25 74.666,-53.125c7.584,-5.084 11.959,-13.209 16.292,-20.959c18.125,-33.208 36.917,-66.083 55.542,-99c3.583,-5.75 6.666,-12.291 12.375,-16.291c17,-11.25 36.458,-17.584 55.583,-24.167c8.542,-2.375 13.583,-10.042 18.958,-16.5c-1.583,-2.208 -4.791,-6.625 -6.416,-8.833c-8,-1.5 -15.834,-3.625 -23.5,-6.375c-1.875,-9.25 -3.542,-18.5 -5.042,-27.792c-2.625,-0.667 -7.833,-1.958 -10.417,-2.583c3.25,-12.209 7.75,-23.959 11.667,-35.917c-7.542,-2.375 -15.292,-4.167 -22.542,-7.333c-4.166,-15.167 15.375,-16.875 22.792,-25.667c4.375,-8 6.417,-17 9.125,-25.583Z" style="fill:#242021;fill-rule:nonzero;"/></svg>