<?xml version="1.0" encoding="UTF-8" standalone="no"?>
<!DOCTYPE svg PUBLIC "-//W3C//DTD SVG 1.1//EN" "http://www.w3.org/Graphics/SVG/1.1/DTD/svg11.dtd">
<!-- GeoHints -->
<svg width="100%" height="100%" viewBox="0 0 6929 6929" version="1.1" xmlns="http://www.w3.org/2000/svg" xmlns:xlink="http://www.w3.org/1999/xlink" xml:space="preserve" xmlns:serif="http://www.serif.com/" style="fill-rule:evenodd;clip-rule:evenodd;stroke-linejoin:round;stroke-miterlimit:2;">
    <g transform="matrix(1,0,0,1,-11.283,-11.31)">
        <path d="M316.525,6939.58C146.325,6939.58 11.283,6798.6 11.283,6634.34L11.283,316.719C11.283,152.294 146.325,11.31 316.525,11.31L6628.24,11.31C6798.6,11.31 6939.42,152.294 6939.42,316.719L6939.42,6634.34C6939.42,6798.6 6798.6,6939.58 6628.24,6939.58L316.525,6939.58Z" style="fill:white;"/>
    </g>
    <g transform="matrix(1,0,0,1,-11.283,-11.31)">
        <path d="M387,6710.6C304.788,6710.6 240.242,6646.05 240.242,6563.84L240.242,387.008C240.242,304.796 304.788,240.25 387,240.25L6563.67,240.25C6645.88,240.25 6710.43,304.796 6710.43,387.008L6710.43,6563.84C6710.43,6646.05 6645.88,6710.6 6563.67,6710.6L387,6710.6ZM475.13,5759.38L6499.08,5759.38L3486.94,539.71L475.13,5759.38Z" style="fill:rgb(0,122,194);"/>
    </g>
    <g transform="matrix(9.91595,0,0,9.91595,-666.576,-458.647)">
        <path d="M277.156,534.361L317.975,534.481L298.967,606.429C298.967,606.429 266.041,606.484 252.915,606.284C258.564,590.247 277.156,534.361 277.156,534.361Z" style="fill-rule:nonzero;"/>
        <path d="M596.238,534.573C605.727,534.477 620.941,534.459 634.447,534.279C640.167,545.509 661.63,587.946 671.208,606.459C652.271,606.479 626.043,606.576 626.043,606.576C626.043,606.576 604.569,555.075 596.238,534.573Z" style="fill-rule:nonzero;"/>
        <path d="M434.413,534.596C454.867,534.817 469.191,534.505 478.22,534.532C479.041,544.771 481.144,577.228 483.226,606.162C467.654,606.469 457.349,606.45 440.103,606.451C438.32,583.438 435.968,553.461 434.413,534.596Z" style="fill-rule:nonzero;"/>
        <path d="M516.951,534.576C536.189,534.717 542.956,534.692 554.195,534.661C561.394,555.079 572.468,588.861 578.349,606.236C566.872,606.403 546.055,606.405 535.142,606.581C530.406,588.748 521.525,552.873 516.951,534.576Z" style="fill-rule:nonzero;"/>
        <path d="M359.675,534.683C384.529,534.44 388.339,534.405 398.244,534.483C396.364,552.037 391.276,592.961 388.841,606.61C375.936,606.437 360.865,606.416 345.165,606.334C350.043,584.197 357.872,545.523 359.675,534.683Z" style="fill-rule:nonzero;"/>
        <path d="M197.952,534.329C197.952,534.329 213.785,534.316 237.521,534.666C233.696,543.609 205.104,606.391 205.104,606.391L157.736,606.18L197.952,534.329Z" style="fill-rule:nonzero;"/>
        <g transform="matrix(1,0,0,1,-3.22712,0)">
            <path d="M392.91,220.92C397.27,209.54 411.2,209.5 421.37,208.55C442.64,211.57 443.67,242.71 429.5,254.59C429.44,257.55 429.45,260.51 429.49,263.47C437.81,273.03 451.25,275.77 459.61,285.41C471.6,298.59 482.6,312.63 492.67,327.34C499.98,339.1 497.79,353.65 503.04,366.08C505.63,375.54 506.88,385.32 507.91,395.05C509.2,400.61 509.22,407.57 504.38,411.46C498.4,412.89 493.37,407.95 490.96,403C481.84,386.43 483.45,366.59 476.69,349.29C471.38,342.97 465.16,337.37 459.36,331.46C458.43,331.44 457.5,331.45 456.58,331.49C449,335.73 450.58,344.73 449.46,352C450.41,368.11 452.57,384.17 455.4,400.08C451.96,404.82 446.86,408.74 445.67,414.8C444.44,429.78 447.23,444.83 452.04,458.99C454.18,463.73 459.51,465.72 463.73,468.21C477.31,473.98 487.72,485.4 495.19,497.87C502.88,508.68 512.99,519.58 514.59,533.09C510.17,539.14 504.39,544.08 500.76,550.7C496.29,558.29 486.43,558.89 478.57,558.63C471.08,554.64 476.72,547.8 480.5,543.34C480.5,541.42 480.5,539.51 480.52,537.6C463.56,516.18 447.3,493.05 423.93,478.09C417.47,471.84 418.87,461.8 414.72,454.35C399.23,452.34 399.29,470.91 394.83,480.97C396,494.76 386.64,506.01 385.28,519.38C379.93,531.15 377.52,543.97 371.53,555.59C370.53,563.24 364.07,573.46 355.13,569.8C343.66,563.2 329.65,563.4 319.36,554.63C319.39,554.1 319.45,553.04 319.49,552.51C320.49,551.51 321.49,550.51 322.5,549.51C327.02,549.58 332.14,549.98 335.82,546.82C341.24,541.16 335.85,532.19 341.51,526.42C350.76,502.72 361.94,479.48 366.75,454.39C373.73,437.34 387.01,423.48 393.33,406.07C393.67,394.2 391.12,382.37 390.58,370.52C386.5,363.89 379.34,369.74 375.19,373.15C366.02,377.86 357.53,384.23 347.63,387.34C339.3,386.63 331.8,391.45 323.51,390.51C322.18,389.16 320.84,387.82 319.49,386.49C317.67,378.91 323.59,373.17 329.42,369.51C347.62,357.96 366.54,347.16 382.52,332.5C389.72,324.74 387.29,313.32 389.87,303.82C392.2,296.07 389.95,287.47 394.49,280.41C396.4,273.78 404.16,270.05 403.8,262.65C400.79,259.59 397.6,256.7 394.63,253.6C392.23,242.89 391.9,231.79 392.91,220.92Z" style="fill-rule:nonzero;"/>
            <path d="M391.307,265.463L390.346,266.643C388.039,269.483 385.95,272.473 384.676,275.859C382.461,279.758 381.394,283.91 380.89,288.216C380.405,292.346 380.785,296.676 379.568,300.723C379.541,300.815 379.514,300.908 379.489,301.001C378.296,305.393 377.951,310.129 377.528,314.819C377.204,318.412 377.262,322.113 374.87,324.919C359.443,338.967 341.193,349.299 323.677,360.414C314.16,366.397 306.058,376.625 309.03,389.001C309.5,390.957 310.508,392.742 311.941,394.153C313.252,395.445 314.555,396.748 315.847,398.059C317.575,399.813 319.852,400.921 322.298,401.199C326.87,401.717 331.279,401.094 335.645,400.067C339.3,399.208 342.87,397.73 346.716,398.058C348.112,398.177 349.518,398.022 350.854,397.603C361.336,394.31 370.396,387.705 380.105,382.719C380.351,382.592 380.592,382.456 380.826,382.308C381.648,389.542 382.641,396.773 382.606,404.02C376.121,420.541 363.502,433.93 356.795,450.315C356.524,450.976 356.32,451.663 356.185,452.365C351.613,476.216 341.033,498.316 332.151,520.824C329.828,523.869 328.658,527.234 328.157,530.806C327.884,532.75 327.837,534.763 327.816,536.772C327.81,537.36 327.759,538.23 327.71,538.927C327.309,538.893 326.887,538.795 326.487,538.802C325.198,538.824 323.907,538.773 322.667,538.754C319.775,538.709 316.987,539.831 314.932,541.866C313.909,542.878 312.896,543.891 311.884,544.904C310.064,546.723 308.957,549.135 308.763,551.7C308.72,552.281 308.653,553.442 308.62,554.022C308.43,557.381 309.822,560.635 312.382,562.817C318.7,568.202 326.063,571.032 333.705,573.33C339.142,574.965 344.754,576.24 349.765,579.124C350.18,579.363 350.611,579.574 351.054,579.755C360.254,583.521 368.281,580.571 374.162,574.286C378.036,570.147 380.761,564.327 381.859,558.986C387.383,547.621 389.884,535.247 395.073,523.831C395.557,522.767 395.864,521.631 395.982,520.469C396.566,514.728 399.027,509.491 401.057,504.161C403.683,497.262 405.787,490.271 405.681,482.742C406.807,479.546 407.722,475.874 408.801,472.309C410.242,477.357 412.494,481.993 416.45,485.821C416.965,486.319 417.528,486.764 418.13,487.15C439.112,500.581 453.934,521.056 469.092,540.462C467.583,542.552 466.214,544.803 465.377,546.997C463.481,551.973 463.664,556.89 466.213,561.31C467.609,563.73 469.829,566.162 473.512,568.124C474.963,568.897 476.572,569.327 478.214,569.381C489.706,569.761 503.494,567.256 510.029,556.159C510.085,556.064 510.139,555.968 510.192,555.872C513.598,549.661 519.129,545.112 523.276,539.436C524.879,537.242 525.592,534.523 525.272,531.825C523.479,516.678 512.851,504.095 504.192,491.966C495.703,477.92 483.798,465.257 468.566,458.581C467.052,457.723 465.428,456.906 463.878,455.991C463.221,455.603 462.403,455.401 461.98,454.802C457.869,442.481 455.398,429.444 456.333,416.438C456.793,414.891 457.985,413.756 459.025,412.534C460.756,410.499 462.57,408.514 464.106,406.398C465.822,404.034 466.503,401.073 465.991,398.196C463.294,383.035 461.215,367.736 460.26,352.387C460.434,350.91 460.533,349.382 460.639,347.849C462.926,350.12 465.167,352.429 467.279,354.841C469.938,362.349 470.979,370.342 472.339,378.244C474.11,388.535 476.356,398.681 481.417,407.969C485.926,416.988 495.95,424.536 506.882,421.922C508.431,421.552 509.878,420.842 511.119,419.845C519.043,413.476 520.485,402.513 518.543,393.317C517.463,383.21 516.105,373.064 513.415,363.239C513.29,362.781 513.134,362.332 512.949,361.895C510.67,356.498 510.148,350.61 509.26,344.827C508.017,336.732 506.248,328.807 501.806,321.661C501.722,321.527 501.636,321.394 501.546,321.263C491.219,306.178 479.938,291.779 467.647,278.259C462.665,272.555 456.308,268.717 449.838,265.051C446.527,263.175 443.151,261.399 440.254,258.984C447.353,250.591 450.748,238.281 449.407,226.98C447.69,212.515 438.827,200.164 422.882,197.9C422.05,197.782 421.207,197.761 420.37,197.84C413.231,198.506 404.555,199.052 397.618,202.048C391.067,204.877 385.755,209.528 382.865,217.071C382.514,217.988 382.29,218.948 382.199,219.925C381.086,231.909 381.487,244.145 384.133,255.952C384.562,257.866 385.506,259.626 386.862,261.042C388.308,262.55 389.804,264.01 391.307,265.463ZM392.91,220.92C397.27,209.54 411.2,209.5 421.37,208.55C442.64,211.57 443.67,242.71 429.5,254.59C429.44,257.55 429.45,260.51 429.49,263.47C437.81,273.03 451.25,275.77 459.61,285.41C471.6,298.59 482.6,312.63 492.67,327.34C499.98,339.1 497.79,353.65 503.04,366.08C505.63,375.54 506.88,385.32 507.91,395.05C509.2,400.61 509.22,407.57 504.38,411.46C498.4,412.89 493.37,407.95 490.96,403C481.84,386.43 483.45,366.59 476.69,349.29C471.38,342.97 465.16,337.37 459.36,331.46C458.43,331.44 457.5,331.45 456.58,331.49C449,335.73 450.58,344.73 449.46,352C450.41,368.11 452.57,384.17 455.4,400.08C451.96,404.82 446.86,408.74 445.67,414.8C444.44,429.78 447.23,444.83 452.04,458.99C454.18,463.73 459.51,465.72 463.73,468.21C477.31,473.98 487.72,485.4 495.19,497.87C502.88,508.68 512.99,519.58 514.59,533.09C510.17,539.14 504.39,544.08 500.76,550.7C496.29,558.29 486.43,558.89 478.57,558.63C471.08,554.64 476.72,547.8 480.5,543.34C480.5,541.42 480.5,539.51 480.52,537.6C463.56,516.18 447.3,493.05 423.93,478.09C417.47,471.84 418.87,461.8 414.72,454.35C399.23,452.34 399.29,470.91 394.83,480.97C396,494.76 386.64,506.01 385.28,519.38C379.93,531.15 377.52,543.97 371.53,555.59C370.53,563.24 364.07,573.46 355.13,569.8C343.66,563.2 329.65,563.4 319.36,554.63C319.39,554.1 319.45,553.04 319.49,552.51C320.49,551.51 321.49,550.51 322.5,549.51C327.02,549.58 332.14,549.98 335.82,546.82C341.24,541.16 335.85,532.19 341.51,526.42C350.76,502.72 361.94,479.48 366.75,454.39C373.73,437.34 387.01,423.48 393.33,406.07C393.67,394.2 391.12,382.37 390.58,370.52C386.5,363.89 379.34,369.74 375.19,373.15C366.02,377.86 357.53,384.23 347.63,387.34C339.3,386.63 331.8,391.45 323.51,390.51C322.18,389.16 320.84,387.82 319.49,386.49C317.67,378.91 323.59,373.17 329.42,369.51C347.62,357.96 366.54,347.16 382.52,332.5C389.72,324.74 387.29,313.32 389.87,303.82C392.2,296.07 389.95,287.47 394.49,280.41C396.4,273.78 404.16,270.05 403.8,262.65C400.79,259.59 397.6,256.7 394.63,253.6C392.23,242.89 391.9,231.79 392.91,220.92Z" style="fill:white;"/>
        </g>
    </g>
</svg>
