<?xml version="1.0" encoding="UTF-8" standalone="no"?>
<!DOCTYPE svg PUBLIC "-//W3C//DTD SVG 1.1//EN" "http://www.w3.org/Graphics/SVG/1.1/DTD/svg11.dtd">
<!-- GeoHints -->
<svg width="100%" height="100%" viewBox="0 0 3007 3007" version="1.1" xmlns="http://www.w3.org/2000/svg" xmlns:xlink="http://www.w3.org/1999/xlink" xml:space="preserve" xmlns:serif="http://www.serif.com/" style="fill-rule:evenodd;clip-rule:evenodd;stroke-linejoin:round;stroke-miterlimit:2;">
    <g id="Layer-1" serif:id="Layer 1" transform="matrix(1,0,0,1,55.7438,2108.96)">
        <g transform="matrix(0.707107,-0.707107,0.707107,0.707107,0,0)">
            <rect x="388.852" y="-467.686" width="2125.98" height="2125.98" style="fill:rgb(253,220,4);"/>
        </g>
        <g transform="matrix(1,0,0,1,0,-2053.22)">
            <path d="M1447.55,-15.655L-15.656,1447.56L1447.55,2910.76L2910.76,1447.56L1447.55,-15.655ZM1447.55,64.521L64.52,1447.56L1447.55,2830.59L2830.59,1447.56L1447.55,64.521Z"/>
        </g>
        <path d="M1479.05,-1209.3L1472.48,-1209.54C1442.04,-1209.54 1410.04,-1192.7 1410.04,-1192.7L1036.06,-1005.09L1027.4,-613.768L1122.44,-618.72L1159.07,-940.488L1255.35,-954.848L1199.41,-826.882C1199.41,-826.882 1178.38,-786.539 1178.38,-713.763C1178.38,-625.655 1201.88,-580.849 1201.88,-580.849L981.354,127.294L1094.47,221.102L1349.15,-383.335L1478.35,-245.47L1605.07,177.052L1742.44,137.943L1613.73,-336.05L1467.22,-635.555L1558.55,-834.307L1619.43,-724.415L1890.2,-610.054L1937.48,-688.268L1678.33,-862.278C1678.33,-862.278 1677.08,-987.776 1640.46,-1056.08C1604.98,-1122.26 1546.58,-1204.23 1479.05,-1209.3Z"/>
        <path d="M1594.16,-1465.35C1659.77,-1462.01 1712.01,-1407.69 1712.01,-1341.27C1712.01,-1274.84 1659.77,-1220.52 1594.16,-1217.19L1587.77,-1217.03C1519.2,-1217.03 1463.53,-1272.7 1463.53,-1341.27C1463.53,-1409.84 1519.2,-1465.51 1587.77,-1465.51L1594.16,-1465.35Z"/>
    </g>
</svg>
