<?xml version="1.0" encoding="UTF-8" standalone="no"?>
<!DOCTYPE svg PUBLIC "-//W3C//DTD SVG 1.1//EN" "http://www.w3.org/Graphics/SVG/1.1/DTD/svg11.dtd">
<!-- GeoHints -->
<svg width="100%" height="100%" viewBox="0 0 763 763" version="1.1" xmlns="http://www.w3.org/2000/svg" xmlns:xlink="http://www.w3.org/1999/xlink" xml:space="preserve" xmlns:serif="http://www.serif.com/" style="fill-rule:evenodd;clip-rule:evenodd;stroke-linejoin:round;stroke-miterlimit:2;">
    <g transform="matrix(1,0,0,1,-40.7807,-27.2813)">
        <g>
            <g transform="matrix(0.738418,0.738418,-0.738418,0.738418,651.537,61.4927)">
                <path d="M351.698,166.116C351.698,139.673 330.261,118.236 303.818,118.236L-144.734,118.236C-171.178,118.236 -192.614,139.673 -192.614,166.116L-192.614,614.668C-192.614,641.111 -171.178,662.548 -144.734,662.548L303.818,662.548C330.261,662.548 351.698,641.111 351.698,614.668L351.698,166.116Z" style="fill:rgb(197,137,16);"/>
            </g>
            <g transform="matrix(0.691451,0.691451,-0.691451,0.691451,636.938,83.5639)">
                <path d="M351.698,154.028C351.698,134.261 335.673,118.236 315.905,118.236L-156.822,118.236C-176.589,118.236 -192.614,134.261 -192.614,154.028L-192.614,626.755C-192.614,646.523 -176.589,662.548 -156.822,662.548L315.905,662.548C335.673,662.548 351.698,646.523 351.698,626.755L351.698,154.028Z"/>
            </g>
            <g transform="matrix(0.652312,0.652312,-0.652312,0.652312,624.771,101.957)">
                <path d="M351.698,139.916C351.698,127.942 341.991,118.236 330.018,118.236L-170.934,118.236C-182.908,118.236 -192.614,127.942 -192.614,139.916L-192.614,640.868C-192.614,652.841 -182.908,662.548 -170.934,662.548L330.018,662.548C341.991,662.548 351.698,652.841 351.698,640.868L351.698,139.916Z" style="fill:rgb(197,137,16);"/>
            </g>
        </g>
        <g transform="matrix(1.08887,0,0,1.08887,-28.1704,-128.402)">
            <path d="M405.29,232.23C421.31,230.85 436.4,242.43 442.11,257.06C453.37,282.22 434.56,316.14 406.34,317.32C387.95,318.02 371.41,301.59 369.31,283.68C364.47,260.74 381.13,234.19 405.29,232.23Z" style="fill:rgb(30,26,28);fill-rule:nonzero;"/>
            <path d="M400.17,339.18C408.21,328.47 422.21,327.63 434.21,325.85C444.35,329.48 451.17,338.37 460.45,343.47C473.2,353.62 487.81,361.24 500.02,371.99C512.81,391.82 519.77,414.64 530.69,435.47C535.79,444.08 533.86,456.73 524.91,461.98C517.94,467.75 506.9,462.71 504.12,454.78C496.32,437.01 488.76,419.11 480.12,401.72C478.07,397.63 474.65,393.54 469.56,394.33C469.13,396.51 468.51,398.78 469.33,400.96C479.57,457.75 489.42,514.62 499.81,571.34C506.02,584.03 518.03,593.15 526.7,604.3C541.1,609.46 557.03,604.31 571.99,606.21C586.27,607.51 600.93,604.85 614.95,607.73C610.63,611.77 606.76,617.94 600,617.28C580.06,617.4 560.1,615.66 540.18,617.57C540.81,626.09 550.89,629.53 553.71,637.33C561.83,652.12 546.87,673.48 529.97,670.12C521.19,667.51 516.18,659.02 510.39,652.56C499.43,641.23 490.43,627.84 478.35,617.71C452.43,616.16 426.41,618.02 400.4,617.45C396.14,617.51 390.39,616.33 388.09,621.03C379.42,634.78 371.73,649.16 362.71,662.7C357.36,669.77 347.63,675.41 338.8,671.33C329.88,668.79 325.78,658.54 326.65,649.99C328.43,638.9 336.66,630.42 340.74,620.28C337.1,616.7 331.55,618.41 327.03,618.24C296.39,617.96 258.303,620.149 227.753,619.409C224.053,617.869 213.103,609.439 221.563,608.209C260.193,607.029 306.2,606.62 344.86,606.49C351.76,606.67 354.05,598.99 357.37,594.35C365.82,579.09 375.32,564.44 383.44,549.02C391.18,534.8 400.1,521.25 408.5,507.42C412.24,502.13 410.45,495.25 408.78,489.54C407.03,473.48 401.76,458.1 400.09,442.02C397.1,433.52 399.05,423.35 393.18,415.9C387.77,418.85 386.69,425.8 381.81,429.43C377.77,432.66 372.93,434.73 367.93,435.97C347.1,440.81 327.05,448.52 306.01,452.45C297.86,453.31 291.03,445.56 290.01,437.98C289.65,428.48 296.03,418.34 305.84,416.71C323.64,412.47 341.06,406.8 358.87,402.59C363.69,401.01 365.52,395.8 367.91,391.83C378.94,374.46 387.77,355.63 400.17,339.18M440.78,533.71C427.91,557.7 411.86,579.69 399.29,603.81C401.2,606.75 404.97,606.74 408.02,606.05C427.66,606.57 447.43,606.01 467,605.79C455.79,582.11 456.17,554.88 449.03,529.95C446.05,527.3 442.16,530.95 440.78,533.71Z" style="fill:rgb(30,26,28);fill-rule:nonzero;"/>
            <path d="M338.1,730.55C388.27,728.56 438.6,728.42 488.81,727.39C486.58,734.65 477.82,740.11 469.99,737.84C434.04,739.07 397.97,739.95 361.99,740.68C352.89,742.29 341.49,740.47 338.1,730.55Z" style="fill:rgb(30,26,28);fill-rule:nonzero;"/>
        </g>
    </g>
</svg>
