<?xml version="1.0" encoding="UTF-8" standalone="no"?>
<!DOCTYPE svg PUBLIC "-//W3C//DTD SVG 1.1//EN" "http://www.w3.org/Graphics/SVG/1.1/DTD/svg11.dtd">
<!-- GeoHints -->
<svg width="100%" height="100%" viewBox="0 0 3473 3473" version="1.1" xmlns="http://www.w3.org/2000/svg" xmlns:xlink="http://www.w3.org/1999/xlink" xml:space="preserve" xmlns:serif="http://www.serif.com/" style="fill-rule:evenodd;clip-rule:evenodd;stroke-linejoin:round;stroke-miterlimit:2;">
    <path d="M1616.24,52.81C1682.62,-13.565 1790.39,-13.565 1856.77,52.811L3420.2,1616.24C3486.57,1682.61 3486.57,1790.39 3420.2,1856.77L1856.76,3420.2C1790.39,3486.57 1682.61,3486.57 1616.24,3420.2L52.808,1856.77C-13.568,1790.39 -13.568,1682.62 52.808,1616.24L1616.24,52.81Z" style="fill:rgb(250,230,0);"/>
    <path d="M1656.33,92.896C1700.58,48.646 1772.43,48.648 1816.68,92.899L3380.11,1656.33C3424.36,1700.58 3424.36,1772.43 3380.11,1816.68L1816.68,3380.11C1772.42,3424.36 1700.58,3424.36 1656.33,3380.11L92.901,1816.68C48.651,1772.43 48.643,1700.58 92.894,1656.33L1656.33,92.896Z"/>
    <path d="M1706.44,143.009C1723.03,126.415 1749.98,126.413 1766.57,143.009L3330,1706.44C3346.59,1723.03 3346.59,1749.97 3330,1766.57L1766.57,3330C1749.97,3346.6 1723.03,3346.59 1706.43,3330L143.007,1766.57C126.411,1749.98 126.411,1723.04 143.007,1706.44L1706.44,143.009Z" style="fill:rgb(250,230,0);"/>
    <path d="M1562.66,2181.71L1614.89,1720.17L1618.3,1717.02L1868.16,1715.97L1913.85,2181.71L1562.66,2181.71ZM2040.96,2181.71L2337.16,2181.71L2197.71,1720.17L2193.71,1717.02L1948.66,1715.97L2040.96,2181.71ZM1147.66,2181.71L1287.1,1720.17L1291.11,1717.02L1536.16,1715.97L1443.85,2181.71L1147.66,2181.71ZM2296.66,1715.97L2498.87,1715.97L2766.49,2181.71L2454.96,2181.71L2296.66,1715.97ZM957.022,1715.97L1188.16,1715.97L1029.85,2181.71L706.511,2181.71L957.022,1715.97Z"/>
    <path d="M1962.42,1937.9L1763.2,1375.6C1721.51,1462.08 1679.78,1548.4 1640.17,1634.88C1588.74,1743.23 1540.62,1852.77 1491.38,1962.15C1484.88,1972.6 1477.38,1981.76 1468.89,1989.85C1462.48,1995.66 1454.87,2001.32 1447.46,2003.58C1433.58,2009.46 1417.47,2009.46 1402.45,2004.77C1389.66,2001.32 1376.73,1995.66 1367.13,1985.21C1357.53,1976.05 1351.02,1964.52 1347.83,1951.86C1342.51,1933.38 1343.51,1913.82 1344.6,1894.21L1651.96,1221.18L1639.03,1155.44L1632.66,1135.89L1468.89,1308.73C1465.67,1312.13 1461.38,1314.56 1457.06,1317.95C1449.55,1322.59 1441.08,1326.03 1432.44,1327.11C1423.84,1328.3 1414.24,1327.11 1405.63,1323.66C1396.03,1320.21 1387.43,1314.56 1381.01,1306.47C1374.64,1299.58 1370.32,1292.57 1368.21,1283.41C1365.04,1276.52 1363.94,1268.43 1363.94,1260.35C1362.81,1253.35 1363.94,1246.45 1366.04,1240.74C1369.22,1231.53 1373.54,1223.44 1378.92,1215.36L1673.35,847.839L1757.92,790.187C1760.01,789.003 1762.2,787.814 1765.43,786.63C1773.9,782.103 1783.63,779.734 1794.33,779.734C1802.84,779.734 1812.53,782.103 1820.04,787.814C1821.04,789.003 1822.16,790.187 1823.23,790.187L1973.12,949.134L2106.98,1093.21L2126.19,1126.73L2128.41,1262.61C2128.41,1270.69 2127.28,1278.78 2126.19,1285.62C2123.1,1295.97 2117.68,1306.47 2110.17,1313.32C2108.08,1316.82 2104.79,1319.03 2102.7,1321.4C2099.47,1322.59 2097.38,1324.84 2094.06,1326.03C2085.59,1330.66 2075.85,1332.93 2067.37,1331.74C2056.65,1331.74 2047.07,1329.48 2038.44,1323.66C2029.82,1317.95 2023.45,1311.05 2018.03,1301.78C2012.72,1294.89 2009.52,1285.62 2009.52,1276.52C2008.43,1274.14 2008.43,1271.88 2008.43,1269.46L2007.43,1184.22L1940.99,1116.28L1927.1,1107.12L1912.09,1107.12L1889.56,1173.87L1906.67,1270.69L2115.59,1889.57C2117.68,1894.21 2118.68,1898.84 2119.77,1903.37C2124.09,1921.9 2120.91,1941.46 2113.39,1958.7C2108.08,1970.23 2100.61,1979.5 2091.97,1987.58C2080.17,1997.92 2065.16,2003.58 2050.26,2006.01C2035.24,2007.14 2018.03,2003.58 2004.24,1995.66C1993.41,1989.85 1984.9,1981.76 1977.44,1971.42C1973.12,1965.6 1969.93,1957.52 1966.7,1950.62C1965.61,1947.17 1963.52,1942.54 1962.42,1937.9ZM1796.42,654.191C1796.42,665.723 1794.33,678.331 1791.14,688.729C1787.92,700.261 1782.52,711.789 1776.13,720.948C1769.71,730.162 1761.11,739.485 1752.5,746.326C1742.9,753.277 1733.3,759.097 1722.59,762.491C1711.91,765.938 1701.17,768.202 1690.46,768.202C1678.67,768.202 1667.97,765.938 1657.25,762.491C1646.54,759.097 1636.94,753.277 1627.34,746.326C1618.74,739.485 1611.23,730.162 1603.72,720.948C1597.34,711.789 1593.02,700.261 1588.74,688.729C1585.51,678.331 1583.42,665.723 1584.54,654.191C1583.42,641.474 1585.51,629.942 1588.74,618.415C1593.02,606.937 1597.34,596.593 1603.72,587.325C1611.23,576.981 1618.74,568.897 1627.34,562.001C1636.94,554.996 1646.54,549.285 1657.25,545.837C1667.97,541.205 1678.67,540.016 1690.46,540.016C1701.17,540.016 1711.91,541.205 1722.59,545.837C1733.3,549.285 1742.9,554.996 1752.5,562.001C1761.11,568.897 1769.71,576.981 1776.13,587.325C1782.52,596.593 1787.92,606.937 1791.14,618.415C1794.33,629.942 1796.42,641.474 1796.42,654.191Z"/>
</svg>
