<?xml version="1.0" encoding="UTF-8" standalone="no"?>
<!DOCTYPE svg PUBLIC "-//W3C//DTD SVG 1.1//EN" "http://www.w3.org/Graphics/SVG/1.1/DTD/svg11.dtd">
<!-- GeoHints -->
<svg width="100%" height="100%" viewBox="0 0 3473 3473" version="1.1" xmlns="http://www.w3.org/2000/svg" xmlns:xlink="http://www.w3.org/1999/xlink" xml:space="preserve" xmlns:serif="http://www.serif.com/" style="fill-rule:evenodd;clip-rule:evenodd;stroke-linejoin:round;stroke-miterlimit:2;">
    <path d="M1616.24,52.81C1682.62,-13.565 1790.39,-13.565 1856.77,52.811L3420.2,1616.24C3486.57,1682.61 3486.57,1790.39 3420.2,1856.77L1856.76,3420.2C1790.39,3486.57 1682.61,3486.57 1616.24,3420.2L52.808,1856.77C-13.568,1790.39 -13.568,1682.62 52.808,1616.24L1616.24,52.81Z" style="fill:rgb(250,230,0);"/>
    <path d="M1656.33,92.896C1700.58,48.646 1772.43,48.648 1816.68,92.899L3380.11,1656.33C3424.36,1700.58 3424.36,1772.43 3380.11,1816.68L1816.68,3380.11C1772.42,3424.36 1700.58,3424.36 1656.33,3380.11L92.901,1816.68C48.651,1772.43 48.643,1700.58 92.894,1656.33L1656.33,92.896Z"/>
    <path d="M1706.44,143.009C1723.03,126.415 1749.98,126.413 1766.57,143.009L3330,1706.44C3346.59,1723.03 3346.59,1749.97 3330,1766.57L1766.57,3330C1749.97,3346.6 1723.03,3346.59 1706.43,3330L143.007,1766.57C126.411,1749.98 126.411,1723.04 143.007,1706.44L1706.44,143.009Z" style="fill:rgb(250,230,0);"/>
    <g>
        <g>
            <path d="M2290.57,2583.63L1191.76,2578.3L1244.17,2642.71L2228.83,2642.71L2290.57,2583.63Z"/>
            <path d="M892.776,2131.32L833.708,2069.57L2644.62,2068.23L2580.22,2131.32L892.776,2131.32Z"/>
        </g>
        <g>
            <path d="M2160.13,1538.25C2133.32,1428.3 2124.34,1320.75 2101.27,1196.75L1959.68,1129.6L2257.77,2488.54L2110.45,2520.16L1836.22,1699.83L1586.76,2021.36L1477.23,2512.99L1318.96,2496.35L1425.05,1911.98L1702.02,1518.22L1620.32,1204.57C1571.74,1231.24 1528.09,1312.87 1476.33,1339.57L1169.68,1454.37L1121.67,1353.4L1449.16,1179.67L1709.63,862.018L1828.32,830.651L2260.17,1123.5L2276.05,1553.79L2160.14,1538.13L2160.13,1538.25Z"/>
            <path d="M1732.73,558.572C1805.2,568.361 1856.09,635.145 1846.3,707.615C1836.51,780.085 1769.72,830.974 1697.25,821.185C1624.78,811.396 1573.89,744.611 1583.68,672.141C1593.47,599.671 1660.26,548.783 1732.73,558.572Z"/>
        </g>
    </g>
</svg>
