<?xml version="1.0" encoding="UTF-8" standalone="no"?>
<!DOCTYPE svg PUBLIC "-//W3C//DTD SVG 1.1//EN" "http://www.w3.org/Graphics/SVG/1.1/DTD/svg11.dtd">
<!-- GeoHints -->
<svg width="100%" height="100%" viewBox="0 0 767 767" version="1.1" xmlns="http://www.w3.org/2000/svg" xmlns:xlink="http://www.w3.org/1999/xlink" xml:space="preserve" xmlns:serif="http://www.serif.com/" style="fill-rule:evenodd;clip-rule:evenodd;stroke-linejoin:round;stroke-miterlimit:2;">
    <g transform="matrix(1,0,0,1,-5.7438,-13.0541)">
        <rect x="5.744" y="13.054" width="766.015" height="766.015" style="fill:rgb(8,47,101);"/>
    </g>
    <g transform="matrix(0.93047,0,0,0.93047,21.2859,14.4839)">
        <path d="M771.759,77.538C771.759,41.924 742.889,13.054 707.275,13.054L70.227,13.054C34.614,13.054 5.744,41.924 5.744,77.538L5.744,714.586C5.744,750.199 34.614,779.069 70.227,779.069L707.275,779.069C742.889,779.069 771.759,750.199 771.759,714.586L771.759,77.538Z" style="fill:white;"/>
    </g>
    <g transform="matrix(0.903204,0,0,0.903204,31.8858,25.2832)">
        <path d="M771.759,79.484C771.759,61.866 764.76,44.969 752.302,32.511C739.844,20.053 722.947,13.054 705.329,13.054L72.174,13.054C54.556,13.054 37.659,20.053 25.201,32.511C12.743,44.969 5.744,61.866 5.744,79.484L5.744,712.639C5.744,730.257 12.743,747.154 25.201,759.612C37.659,772.07 54.556,779.069 72.174,779.069L705.329,779.069C722.947,779.069 739.844,772.07 752.302,759.612C764.76,747.154 771.759,730.257 771.759,712.639L771.759,79.484Z" style="fill:rgb(8,47,101);"/>
    </g>
    <g transform="matrix(1,0,0,1,-15.0525,-17.4925)">
        <path d="M455.37,553.72C464.27,548.5 475.42,548.95 485.16,551.25C494.35,552.16 488.53,568.76 481.04,565.59C475.13,563.71 468.57,564.3 462.86,566.58C449.01,575.7 449.69,599.96 463.61,608.68C471.47,614.1 482.36,606.32 489.4,613.4C489.37,616.6 489.36,619.79 489.32,622.99C475.38,627.16 458.67,628.02 446.92,617.99C428,601.33 430.72,563.63 455.37,553.72Z" style="fill:white;fill-rule:nonzero;"/>
        <path d="M255.82,564.2C264.57,549.93 283.18,548.37 298.09,551.24C304.53,552.48 301.5,561.08 298.78,564.78C289.83,564.94 279.26,562.09 272.07,569.1C262.51,580.23 262.69,600.61 276.32,608.53C283.62,614.14 293.15,607.7 300.73,612.16C300.64,615.36 300.63,618.56 300.7,621.77C292.67,626.2 283.06,624.68 274.29,624.32C249.53,617.74 242.35,583.77 255.82,564.2Z" style="fill:white;fill-rule:nonzero;"/>
        <path d="M496.98,550.86C517.32,551.04 523.63,550.59 539.52,550.08C539.25,560.32 538.91,555.19 538.57,565.38C530.91,565.37 523.16,565.05 515.65,566.81C515.24,570.46 515.27,574.13 515.3,577.79C522.71,582.16 532.02,577.04 539.4,581.71C539.39,585.53 539.41,589.34 539.36,593.16C531.51,595.66 523.21,593.21 515.29,595.05C515.67,599.95 514.29,605.38 517.13,609.76C525.8,610.41 533.31,611.43 541.94,609.8C542,613.53 542.62,617.26 542.13,624.37C527.74,625.5 513.44,625.21 499.06,624.56C498.52,597.38 497.58,576.86 496.98,550.86Z" style="fill:white;fill-rule:nonzero;"/>
        <path d="M313.69,551.59C324.26,550.22 335.05,551.15 345.6,552.07C362.46,555.66 364.97,580.93 350.22,588.82C353.47,595.3 358.29,601.07 358.85,608.67C359.56,613.68 365.44,623.43 357.14,624.6C336.95,627.91 349.71,594.05 329.52,595.38C328.58,596.42 327.62,597.45 326.67,598.49C326.06,605.17 327.41,611.78 327.37,618.42C327.35,626.62 310.7,627.15 312.35,618.02C312.96,596.46 311.03,575.02 311.31,553.46C312.09,552.82 312.88,552.19 313.69,551.59M327.52,564.38C327.68,570 327.08,575.66 327.74,581.25C330.5,583.89 335.17,582.03 338.7,582.52C341.95,579.41 345.77,575.55 344.39,570.59C342.12,563.69 333.71,561.9 327.52,564.38Z" style="fill:white;fill-rule:nonzero;"/>
        <path d="M369.38,551.59C370.16,550.86 381.39,551.29 385.64,552.12C385.6,566.41 385.7,580.71 385.61,595.01C385.92,601.93 388.99,610.34 396.59,611.97C404.17,614.14 409.8,605.7 410.34,599.05C410.47,583.77 410.46,568.48 410.27,553.2C420.46,553.12 416.76,553.04 425.05,552.93C424.79,568 426.29,587.17 425.11,602.19C423.47,616.93 408.97,627.89 394.34,625.26C383.2,625.22 374.73,615.86 372.01,605.69C369.4,588.49 369.77,568.95 369.38,551.59Z" style="fill:white;fill-rule:nonzero;"/>
        <path d="M161.57,647.99C171.48,644.35 182.62,643.74 193,645.62C205.4,647.47 215.91,659.74 214.03,672.34C212.85,686.84 197.24,696.06 183.54,694.39C177.35,701.42 181.88,711.85 180.4,720.38C174.86,720.47 169.19,721 163.82,719.28C161.45,695.62 161.74,671.79 161.57,647.99M183.94,658.43C175.83,662.25 180.36,673.45 180.82,680.46C185.47,680.99 190.04,679.98 194.26,678.04C195.7,674.08 196.59,669.92 196.53,665.69C193.49,661.54 188.82,659.52 183.94,658.43Z" style="fill:white;fill-rule:nonzero;"/>
        <path d="M220.62,646.83C234.96,645.01 245.22,646.72 263.97,646.51C263.89,649.95 264.39,657.39 264.47,660.83C255.11,661.05 248.16,660.44 240.19,661.27C237.85,665.03 237.44,670.45 239.73,674.28C246.11,675.45 255.74,674.09 262.05,675.63C263.42,683.13 263.23,682.91 261.97,689.41C254.12,690.93 245.71,688.83 238.32,691.19C238.59,696.04 237.48,701.36 240.39,705.65C248.06,705.13 265.32,704.99 266.33,705.89C266.36,708.83 266.99,718.78 267.56,721.68C249.08,721.84 236.41,721.48 222.43,720.28C221.49,719.35 219.86,670.44 220.62,646.83Z" style="fill:white;fill-rule:nonzero;"/>
        <path d="M288.67,647.53C302.5,647.11 299.12,647.34 310.97,647.08C314.84,663.48 324.32,695.49 331.55,720.39C326.67,720.34 321.69,721.06 316.89,720.06C310.93,716.37 313.12,707.16 308.37,702.59C303.44,701.07 297.51,700.83 292.63,702.51C289.57,707.62 289,714.04 286.54,719.52C282.63,721.51 272.6,720.67 271.91,720.08M294.46,688.37C298.52,688.55 302.57,688.55 306.63,688.4C306.25,680.3 302.65,672.91 300.79,665.13C296.8,672.21 295.53,680.42 294.46,688.37Z" style="fill:white;fill-rule:nonzero;"/>
        <path d="M406.56,645.99C415.65,644.51 425.71,646.33 433.18,651.9C453.79,669.11 451.75,707.26 427.07,719.81C416.58,722.2 404.3,723.56 395.1,716.71C370.48,699.53 376.17,653.45 406.56,645.99M403.32,665.58C393.43,678.39 396.69,708.33 417.27,706.75C429.96,700.27 428.49,683.82 426.72,671.99C425,661.66 409.16,655.06 403.32,665.58Z" style="fill:white;fill-rule:nonzero;"/>
        <path d="M540,647.82C546.88,646.62 553.85,646.18 560.73,647.66C568.73,670.77 585.01,719.65 584.21,720.39C579.88,720.49 570.56,720.45 566.24,720.46C561.88,715.88 562.03,709.23 559.25,703.9C554.92,700.38 548.44,701.33 543.27,701.93C537.84,713.91 538.41,711.07 535.43,720.43C530.08,720.25 527.93,719.86 519.41,718.99C526.47,695.28 532.12,671.28 540,647.82M543.46,687.53C547.75,688.72 552.21,688.57 556.61,688.38C555.53,680.48 553.73,675.84 550.14,665.2C545.59,680.78 546.77,677.07 543.46,687.53Z" style="fill:white;fill-rule:nonzero;"/>
        <path d="M589.56,647.53C596.41,648.21 599.64,648.19 606.47,648.49C606.77,666.95 608.08,683.26 608.08,703.93C620.35,704.27 620.22,705.05 633.53,705.41C634.23,714.37 634.16,713.96 634.55,718.01C619.6,718.12 605.14,719.55 590.63,719.38C588.79,698.99 588.24,657.08 589.56,647.53Z" style="fill:white;fill-rule:nonzero;"/>
        <path d="M326.42,659.55C326.28,654.27 328.47,648.02 328.47,648.02C328.47,648.02 359.95,647.65 379.14,647.44C378.57,651.3 380.92,658.67 376.98,661.17C371.84,661.99 366.51,660.92 361.45,662.53C360.7,680.01 359.29,699.63 360.55,719.57C355.92,718.41 355.39,721.02 344.97,720.49C345.6,704.04 345.02,679.05 344.52,662.54C338.64,660.21 331.78,663.37 326.42,659.55Z" style="fill:white;fill-rule:nonzero;"/>
        <path d="M454.49,649C460.29,645.85 467.21,648.08 473.5,647.55C481.36,658.5 495.9,687.58 497.3,687.57C497.5,671.67 496.97,658.47 496.59,647.43C497.19,646.79 507.82,647.02 511.78,647.08C512.49,647.77 511.99,696.62 511.46,720.47C505.45,720.02 503.12,720.34 493.26,719.24C487.08,706.61 481.13,692.14 472.74,680.79C468,693.06 474.3,707.36 470.28,720.23C465.79,721.12 459.24,721.63 454.76,720.72C454.03,718.95 455.38,670.91 454.49,649Z" style="fill:white;fill-rule:nonzero;"/>
    </g>
    <g transform="matrix(1,0,0,1,-12.899,-13.4925)">
        <path d="M391.48,80.39C392.36,80.5 609.8,467.21 628.81,507C628.05,507.65 250.87,508.26 163.03,507C160.17,501.58 386.12,86.08 391.48,80.39Z" style="fill:white;"/>
        <g>
            <g>
                <path d="M367.51,246.54C377.9,238.43 388.8,228.24 402.87,228.43C417,230.85 426.28,242.73 435.15,252.9C443.39,263.47 455.84,272.13 457.67,286.37C458.3,299.65 457.58,313.88 450.26,325.54C444.68,326.33 438.91,325.22 435.41,320.43C434.98,310 437.5,299.71 437.46,289.33C434.82,282.94 428.91,278.49 424.39,273.39C422.11,273.76 417.49,272.09 417.55,275.75C416.72,295.71 421.28,315.38 422.52,335.23C422.39,347.93 421.65,361.2 426.86,373.12C434.21,393.04 455.09,404.44 461.64,424.6C464.73,433.26 456.47,439.69 450.03,443.7C442.84,443.78 439.21,436.63 435.1,431.9C415.43,408.52 402.11,380.45 394.54,351.01C384.33,354.39 377.32,363.69 368.13,369.13C351.45,381.31 353.82,403.69 348.41,421.41C344.89,429.76 345.07,440.42 337.66,446.62C329.97,449.44 318.1,446.42 316.54,437.2C316.04,429.56 319.74,422.5 321.38,415.19C326.98,400.19 326.17,382.85 335.22,369.22C348,354.75 363.7,342.57 374.12,326.15C378.07,316.08 376.06,303.9 369.58,295.21C355.92,297.48 351.3,314.29 339.4,320.42C330.76,325.16 319.82,325.63 310.55,322.51C301.46,319.03 305.61,304.96 312.97,301.92C321.79,298.92 330.21,294.84 338.36,290.37C350.22,277.33 355.93,259.79 367.51,246.54Z" style="fill-rule:nonzero;"/>
                <path d="M381.16,181.86C387.58,180.38 395.11,180.78 399.6,186.25C412.11,195.57 407.79,217.82 392.95,222.26C377.29,229.24 361.04,208.79 368.14,194.41C370.94,189.04 374.8,183.18 381.16,181.86Z" style="fill-rule:nonzero;"/>
            </g>
            <g>
                <path d="M527.31,421.24C539.47,419.97 555.32,418.93 567.51,419.37C578.31,441.04 597.12,475.53 607.47,494.15C606.59,494.92 579.55,494.51 566.64,494.56C561.79,484.8 527.39,422.85 527.31,421.24Z" style="fill-rule:nonzero;"/>
                <path d="M216.88,422.74C229.907,422.88 240.563,422.904 256.052,422.122C257.029,422.073 257.992,422.402 258.96,422.58C250.34,445.08 233.1,479.2 226.09,494.9C213.48,495.07 196.86,495.5 184.25,495.53C185.35,483.82 209.67,435.9 216.88,422.74Z" style="fill-rule:nonzero;"/>
                <path d="M373.56,422.37C387.66,421 402.24,420.99 416.33,422.63C418.11,446.14 416.83,472.3 417,495.91C393.09,496.48 396.02,496.17 371.41,495.9C372.02,472.06 372.69,446.11 373.56,422.37Z" style="fill-rule:nonzero;"/>
                <path d="M472.5,430C469.51,418.97 486.37,419.07 491.44,424.56C499.24,446 505.55,472.44 512.9,494.04C499.12,494.91 481.53,495.07 469.89,495.09C466.76,483.48 460.99,463.74 459.04,451.87C466.04,446.59 474.29,439.93 472.5,430Z" style="fill-rule:nonzero;"/>
                <path d="M296.76,423.88C299.9,420.87 305.17,422.58 309,423.37C306.19,431.13 304.85,440.21 309.58,447.55C312.79,454.04 320.48,455.34 325.89,459.2C329.17,465.28 324.2,470.37 317.55,495.16C301.78,496.2 294.82,495.86 274.15,495.47C281.96,472.98 289.61,446.53 296.76,423.88Z" style="fill-rule:nonzero;"/>
            </g>
        </g>
    </g>
</svg>
