<?xml version="1.0" encoding="UTF-8" standalone="no"?>
<svg
   xmlns:dc="http://purl.org/dc/elements/1.1/"
   xmlns:cc="http://creativecommons.org/ns#"
   xmlns:rdf="http://www.w3.org/1999/02/22-rdf-syntax-ns#"
   xmlns:svg="http://www.w3.org/2000/svg"
   xmlns="http://www.w3.org/2000/svg"
   version="1.1"
   id="svg4203"
   viewBox="0 0 856.30999 859.99174"
   height="242.70879mm"
   width="241.66971mm">
  <defs
     id="defs4205" />
  <metadata
     id="metadata4208">
    <rdf:RDF>
      <cc:Work
         rdf:about="">
        <dc:format>image/svg+xml</dc:format>
        <dc:type
           rdf:resource="http://purl.org/dc/dcmitype/StillImage" />
        <dc:title></dc:title>
      </cc:Work>
    </rdf:RDF>
  </metadata>
  <g
     transform="translate(699.66162,303.19162)"
     id="layer1">
    <rect
       transform="scale(-1,1)"
       ry="0"
       rx="0"
       y="-300.69165"
       x="-154.14838"
       height="854.99176"
       width="851.31"
       id="rect6167"
       style="opacity:1;fill:#00a7d1;fill-opacity:1;fill-rule:nonzero;stroke:#000000;stroke-width:5;stroke-linecap:round;stroke-linejoin:round;stroke-miterlimit:4;stroke-dasharray:none;stroke-dashoffset:0;stroke-opacity:1" />
    <rect
       transform="scale(-1,1)"
       rx="36.571434"
       ry="43.885719"
       y="-290.6329"
       x="-146.13873"
       height="834.87433"
       width="836.43494"
       id="rect6169"
       style="opacity:1;fill:none;fill-opacity:1;fill-rule:nonzero;stroke:#ffffff;stroke-width:15.00000095;stroke-linecap:round;stroke-linejoin:round;stroke-miterlimit:4;stroke-dasharray:none;stroke-dashoffset:0;stroke-opacity:1" />
    <title
       id="title3002">5.19.1 Пешеходный переход</title>
    <g
       id="layer1-6"
       transform="translate(443.32109,-94.708301)">
      <path
         id="rect9536"
         style="color:#000000;display:inline;overflow:visible;visibility:visible;opacity:1;fill:#ffffff;fill-opacity:1;fill-rule:nonzero;stroke:none;stroke-width:3.54299998;marker-start:none;marker-mid:none;marker-end:none;enable-background:accumulate"
         d="m -717.64068,-181.22297 -402.00452,704.46586 808.89858,0 z" />
      <path
         id="path5922"
         d="m -428.66862,464.07144 -25.48274,-49.25533 -23.27179,-37.70602 -31.17996,0 -28.5264,3.5e-4 17.83769,50.72708 15.18412,36.23388 38.82505,0 z m -252.2283,-43.48069 -8.4322,-43.48066 -30.06589,0 -35.94681,3.5e-4 -2.43004,43.20559 -0.4561,43.75541 40.98887,-4e-5 44.77441,0 z m -236.9177,0 18.85524,-43.48066 -31.72891,0 -31.72891,0 -25.81655,41.39612 c -14.19915,22.76787 -25.81655,42.33417 -25.81655,43.48065 0,1.14653 17.41059,2.08454 38.69018,2.08454 l 38.69025,0 z m 328.30171,-12.72427 c 9.65797,-9.86782 17.55994,-20.03613 17.55994,-22.59631 0,-2.56014 -19.34126,-24.7646 -42.98059,-49.34318 l -42.9806,-44.68838 -7.24534,-32.63779 c -6.90671,-31.11244 -8.07476,-43.02887 -6.04049,-61.62489 0.49833,-4.55512 -0.49407,-31.10938 -2.20532,-59.00947 -2.0662,-33.68775 -1.69894,-50.727428 1.09342,-50.727428 2.31263,0 9.38395,7.490292 15.71405,16.645098 11.30062,16.34336 11.46452,17.4369 9.04124,60.32461 -2.53751,44.90956 0.59287,61.10383 12.7125,65.765 9.5328,3.66629 11.35403,-0.97373 5.98146,-15.23915 -3.42336,-9.08989 -3.59311,-14.54846 -0.5661,-18.20399 2.37788,-2.87157 7.03097,-22.07918 10.34021,-42.68355 l 6.01679,-37.4625 L -626.11566,90.424 C -646.2767,50.298659 -660.94428,31.220778 -681.54527,18.327483 -697.76875,8.1739048 -700.11795,5.0159874 -698.05299,-3.863306 c 7.63301,-32.821788 7.30366,-44.52445 -1.50135,-53.349198 -4.81052,-4.821318 -13.11967,-8.766028 -18.46479,-8.766028 -13.99511,0 -37.55212,17.210365 -39.18705,28.629437 -2.25239,15.731448 11.10784,45.9088347 20.3249,45.9088347 10.05573,0 10.17526,9.9693033 0.29005,24.2068413 -10.05147,14.477246 -17.15896,36.042205 -17.15896,52.062322 0,10.851872 -6.60853,19.516547 -41.3175,54.172817 -39.89284,39.83226 -48.83313,54.90063 -36.94315,62.2655 5.47234,3.38968 28.71696,-12.60107 61.37856,-42.22444 18.93157,-17.17046 25.15683,-20.92976 25.19109,-15.21223 0.0247,4.1768 1.14189,14.23619 2.48198,22.35416 2.26049,13.69351 0.2946,17.28394 -27.20906,49.69218 -41.83667,49.29729 -49.64444,64.18362 -58.1223,110.81659 -11.27178,62.00086 -14.71667,67.8767 -42.76945,72.95039 -14.41527,2.60723 -15.42866,3.56339 -9.77828,9.22644 8.90157,8.92153 59.43561,19.05178 69.12159,13.85638 11.89346,-6.37944 23.93928,-35.82603 32.88229,-80.38216 5.63774,-28.08842 11.16387,-44.34029 17.59601,-51.7484 20.97298,-24.15512 38.24349,-41.85751 40.83645,-41.85751 1.51182,0 5.99368,11.64661 9.95971,25.88135 9.04743,32.47268 15.81825,45.96671 34.67709,69.11043 8.23875,10.11067 20.64616,26.88177 27.57203,37.26913 7.38499,11.07595 15.50107,18.64828 19.62582,18.31099 9.66592,-0.79039 8.85976,9.71433 -1.23017,16.02972 -12.45407,7.79512 -9.99928,11.51773 7.23056,10.96486 12.48516,-0.40043 18.90415,-3.98134 33.05401,-18.43862 z"
         style="fill:#000000" />
    </g>
  </g>
</svg>
