<?xml version="1.0" encoding="UTF-8" standalone="no"?>
<!DOCTYPE svg PUBLIC "-//W3C//DTD SVG 1.1//EN" "http://www.w3.org/Graphics/SVG/1.1/DTD/svg11.dtd">
<svg width="100%" height="100%" viewBox="0 0 9900 8650" version="1.1" xmlns="http://www.w3.org/2000/svg" xmlns:xlink="http://www.w3.org/1999/xlink" xml:space="preserve" xmlns:serif="http://www.serif.com/" style="fill-rule:evenodd;clip-rule:evenodd;stroke-linejoin:round;">
    <g id="Layer-1" serif:id="Layer 1">
        <path id="path4488" d="M286.538,8360.33L4947.96,286.54L9609.38,8360.33L286.588,8360.34L286.547,8360.33L286.538,8360.33Z" style="fill:rgb(226,10,22);fill-rule:nonzero;stroke:rgb(226,10,22);stroke-width:573.08px;"/>
        <path id="rect5050" d="M4947.96,1432.69L1279.16,7787.23L8616.78,7787.24L4947.98,1432.69L4947.96,1432.69L4947.96,1432.69Z" style="fill:rgb(36,87,129);fill-rule:nonzero;"/>
        <g transform="matrix(28.1328,-0.224713,0.224713,28.1328,-24.6133,-112.234)">
            <path d="M160.41,118.26C157.81,107.88 171.85,103.88 179.47,101.21C180.66,102.57 181.86,103.92 183.03,105.3C185.59,103.61 188.61,103.23 191.62,103.46C191.82,105.48 190.97,107.22 189.69,108.71C189.62,109.4 189.48,110.78 189.4,111.47C188.8,111.48 187.59,111.49 186.98,111.49C187.08,115.9 193.01,118.35 190.21,123.02C195.39,130.05 181.73,132.99 188.47,138.55C193.54,144.46 195.26,152.39 197.26,159.72C200.85,169.47 209.63,175.89 214.89,184.49C215.48,184.5 216.67,184.53 217.26,184.55C222.3,190.85 211.63,197.28 207.54,191.39C202.15,187.44 197.64,182.5 192.84,177.89C191.85,183.66 188.73,188.99 189.4,195.04C203.8,213.51 212.92,235.21 221.91,256.66C223.03,256.36 224.17,256.1 225.18,255.51C227.29,255.38 229.41,255.37 231.53,255.42C232.55,262.78 222.43,264.38 216.93,264.65C216.28,265.8 215.65,266.96 215.04,268.14C212.16,268.69 209.38,269.62 206.66,270.7C199.71,259 196.54,246.894 189.54,235.114C189.63,237.194 167.958,236.244 167.918,235.204C162.048,243.064 159.26,252.6 154.22,260.95L154.22,264.12C157.77,265.14 162.36,268.53 159.42,272.51C153.95,271.92 148.29,271.55 144.18,267.4C142.68,267.43 141.18,267.48 139.68,267.5C137.73,266.06 135.58,264.9 133.3,264.1C136.8,241.6 154.68,224 158.59,201.71C157.85,201.65 156.37,201.52 155.63,201.46C157.35,188.4 160.89,175.48 159.48,162.13C150.05,167.52 149.45,179.52 147.09,188.95C146.66,189.39 145.82,190.27 145.4,190.71C145.93,192.93 146.53,195.13 146.92,197.39C145.91,197.36 143.9,197.29 142.89,197.26C142.45,197.6 141.57,198.28 141.13,198.61C137.58,198.22 131.67,199.07 130.2,195.18C136.48,174.4 138.64,146.08 162.15,136.29C168.34,136.57 166.79,130.78 163.95,127.53C156.3,129.7 154.13,121.8 160.41,118.26M176.81,218.92C173.89,224.15 171.189,229.674 168.099,234.804C175.199,234.694 182.441,235.091 189.541,234.991C186.471,229.081 181.98,223.01 176.81,218.92Z" style="fill:white;fill-rule:nonzero;"/>
        </g>
        <g transform="matrix(28.1328,-0.224713,0.224713,28.1328,-24.6133,-112.234)">
            <g transform="matrix(1,-6.93889e-18,6.93889e-18,1,-46.2064,-0.369077)">
                <path d="M114.67,266.34C121.65,266.43 128.64,266.51 135.62,266.62C135.64,268.3 135.66,269.99 135.67,271.68C128.71,271.65 121.75,271.55 114.79,271.39C114.73,269.7 114.7,268.02 114.67,266.34Z" style="fill:white;fill-rule:nonzero;"/>
            </g>
            <path d="M114.67,266.34C121.65,266.43 128.64,266.51 135.62,266.62C135.64,268.3 135.66,269.99 135.67,271.68C128.71,271.65 121.75,271.55 114.79,271.39C114.73,269.7 114.7,268.02 114.67,266.34Z" style="fill:white;fill-rule:nonzero;"/>
            <g transform="matrix(1,-3.46945e-18,3.46945e-18,1,53.3151,0.425859)">
                <path d="M114.67,266.34C121.65,266.43 128.64,266.51 135.62,266.62C135.64,268.3 135.66,269.99 135.67,271.68C128.71,271.65 121.75,271.55 114.79,271.39C114.73,269.7 114.7,268.02 114.67,266.34Z" style="fill:white;fill-rule:nonzero;"/>
            </g>
            <g transform="matrix(1,-6.93889e-18,6.93889e-18,1,105.208,0.840361)">
                <path d="M114.67,266.34C121.65,266.43 128.64,266.51 135.62,266.62C135.64,268.3 135.66,269.99 135.67,271.68C128.71,271.65 121.75,271.55 114.79,271.39C114.73,269.7 114.7,268.02 114.67,266.34Z" style="fill:white;fill-rule:nonzero;"/>
            </g>
            <g transform="matrix(1,-1.04083e-17,1.04083e-17,1,146.794,1.17253)">
                <path d="M114.67,266.34C121.65,266.43 128.64,266.51 135.62,266.62C135.64,268.3 135.66,269.99 135.67,271.68C128.71,271.65 121.75,271.55 114.79,271.39C114.73,269.7 114.7,268.02 114.67,266.34Z" style="fill:white;fill-rule:nonzero;"/>
            </g>
        </g>
        <g transform="matrix(28.1328,-0.224713,0.224713,28.1328,-24.6133,-1012.23)">
            <g transform="matrix(1,-8.67362e-18,8.67362e-18,1,-33.7662,-0.26971)">
                <path d="M114.67,266.34C121.65,266.43 128.64,266.51 135.62,266.62C135.64,268.3 135.66,269.99 135.67,271.68C128.71,271.65 121.75,271.55 114.79,271.39C114.73,269.7 114.7,268.02 114.67,266.34Z" style="fill:white;fill-rule:nonzero;"/>
            </g>
            <g transform="matrix(1,-6.93889e-18,6.93889e-18,1,-0.355434,-0.00283906)">
                <path d="M114.67,266.34C121.65,266.43 128.64,266.51 135.62,266.62C135.64,268.3 135.66,269.99 135.67,271.68C128.71,271.65 121.75,271.55 114.79,271.39C114.73,269.7 114.7,268.02 114.67,266.34Z" style="fill:white;fill-rule:nonzero;"/>
            </g>
            <g transform="matrix(1.00224,-1.03611e-17,6.97454e-18,1,53.3443,0.425859)">
                <path d="M114.67,266.34C121.65,266.43 128.64,266.51 135.62,266.62C135.64,268.3 135.66,269.99 135.67,271.68C128.71,271.65 121.75,271.55 114.79,271.39C114.73,269.7 114.7,268.02 114.67,266.34Z" style="fill:white;fill-rule:nonzero;"/>
            </g>
            <g transform="matrix(1,-6.93889e-18,6.93889e-18,1,105.208,0.840361)">
                <path d="M114.67,266.34C121.65,266.43 128.64,266.51 135.62,266.62C135.64,268.3 135.66,269.99 135.67,271.68C128.71,271.65 121.75,271.55 114.79,271.39C114.73,269.7 114.7,268.02 114.67,266.34Z" style="fill:white;fill-rule:nonzero;"/>
            </g>
            <g transform="matrix(1,-1.21431e-17,1.21431e-17,1,139.686,1.11575)">
                <path d="M114.67,266.34C121.65,266.43 128.64,266.51 135.62,266.62C135.64,268.3 135.66,269.99 135.67,271.68C128.71,271.65 121.75,271.55 114.79,271.39C114.73,269.7 114.7,268.02 114.67,266.34Z" style="fill:white;fill-rule:nonzero;"/>
            </g>
        </g>
    </g>
</svg>
