<?xml version="1.0" encoding="UTF-8" standalone="no"?><!DOCTYPE svg PUBLIC "-//W3C//DTD SVG 1.1//EN" "http://www.w3.org/Graphics/SVG/1.1/DTD/svg11.dtd"><svg width="100%" height="100%" viewBox="0 0 6955 6955" version="1.1" xmlns="http://www.w3.org/2000/svg" xmlns:xlink="http://www.w3.org/1999/xlink" xml:space="preserve" xmlns:serif="http://www.serif.com/" style="fill-rule:evenodd;clip-rule:evenodd;stroke-miterlimit:10;"><path id="path6748" d="M316.525,6939.58c-170.2,0 -305.242,-140.983 -305.242,-305.241l0,-6317.62c0,-164.425 135.042,-305.409 305.242,-305.409l6311.71,0c170.367,0 311.184,140.984 311.184,305.409l-0,6317.62c-0,164.258 -140.817,305.241 -311.184,305.241l-6311.71,0Z" style="fill:#fff;fill-rule:nonzero;"/><path id="path6784" d="M6499.08,5759.38l-3012.14,-5219.67l-3011.81,5219.67l6023.96,0l-0.013,0Zm-6112.08,951.217c-82.212,-0 -146.758,-64.546 -146.758,-146.759l-0,-6176.83c-0,-82.212 64.546,-146.758 146.758,-146.758l6176.67,-0c82.212,-0 146.762,64.546 146.762,146.758l0,6176.83c0,82.213 -64.55,146.759 -146.762,146.759l-6176.67,-0Z" style="fill:#007ac2;fill-rule:nonzero;"/><g id="Livello-1" serif:id="Livello 1"><path id="path6752" d="M316.525,6939.58c-170.2,0 -305.242,-140.983 -305.242,-305.241l0,-6317.62c0,-164.425 135.042,-305.409 305.242,-305.409l6311.71,0c170.367,0 311.184,140.984 311.184,305.409l-0,6317.62c-0,164.258 -140.817,305.241 -311.184,305.241l-6311.71,0Z" style="fill:none;fill-rule:nonzero;stroke:#000;stroke-width:22.58px;"/><path id="path6756" d="M2805.99,3381.53c-23.445,64.546 5.942,123.317 64.546,146.925c64.55,23.442 129.263,-5.942 152.704,-58.933l246.638,-645.813l-5.946,499.05l-493.108,1321.01c-29.384,94.1 17.5,193.809 105.654,229.138c93.933,35.162 199.587,-11.883 234.754,-105.817l440.446,-1191.75l-5.946,457.946c0,35.329 17.667,87.992 29.388,117.375l299.462,640.033c35.329,82.213 123.321,123.321 211.308,87.992c82.213,-35.162 129.263,-129.096 88.155,-217.25l-270.075,-598.762l5.941,-1244.74l134.875,217.25l-5.779,369.792c0,58.77 46.883,99.875 111.434,99.875c58.933,-0 105.816,-41.105 105.816,-99.875l0,-393.396c0,-35.163 -11.883,-87.992 -64.546,-170.204l-322.908,-516.717c-93.933,-152.7 -176.142,-228.971 -346.512,-228.971c-176.146,-5.779 -281.8,105.821 -346.346,276.021l-369.954,1009.83Zm710.441,-2013.85c181.921,5.779 322.904,152.537 322.904,328.683c0,182.088 -146.758,328.85 -328.683,328.85c-176.146,0 -317.129,-146.758 -317.129,-328.85c-0,-181.921 146.762,-328.683 322.908,-328.683Z" style="fill-rule:nonzero;"/><path id="path6764" d="M3211.09,4802.42l540.159,-0l52.825,728.025l-0,5.945l-651.754,0.001l58.77,-733.971Zm-1097.91,-0l546.1,-0l-129.263,728.025l5.946,5.946l-657.7,-0l234.917,-733.971Zm2184.15,-0l545.934,-0l234.916,728.025l5.946,5.946l-657.7,-0l-129.096,-733.971Zm2090.17,733.904l-422.783,-733.971l-569.542,-0l311.35,733.971l680.975,-0Zm-5131.54,-0l305.242,-733.971l-557.658,-0l-422.779,733.971l675.195,-0Z" style="fill-rule:nonzero;"/></g></svg>