<?xml version="1.0" encoding="UTF-8" standalone="no"?>
<!DOCTYPE svg PUBLIC "-//W3C//DTD SVG 1.1//EN" "http://www.w3.org/Graphics/SVG/1.1/DTD/svg11.dtd">
<svg width="100%" height="100%" viewBox="0 0 6929 6929" version="1.1" xmlns="http://www.w3.org/2000/svg" xmlns:xlink="http://www.w3.org/1999/xlink" xml:space="preserve" xmlns:serif="http://www.serif.com/" style="fill-rule:evenodd;clip-rule:evenodd;stroke-linejoin:round;stroke-miterlimit:2;">
    <g transform="matrix(1,0,0,1,-11.283,-11.31)">
        <path d="M316.525,6939.58C146.325,6939.58 11.283,6798.6 11.283,6634.34L11.283,316.719C11.283,152.294 146.325,11.31 316.525,11.31L6628.24,11.31C6798.6,11.31 6939.42,152.294 6939.42,316.719L6939.42,6634.34C6939.42,6798.6 6798.6,6939.58 6628.24,6939.58L316.525,6939.58Z" style="fill:white;"/>
    </g>
    <g transform="matrix(1,0,0,1,-11.283,-11.31)">
        <path d="M387,6710.6C304.788,6710.6 240.242,6646.05 240.242,6563.84L240.242,387.008C240.242,304.796 304.788,240.25 387,240.25L6563.67,240.25C6645.88,240.25 6710.43,304.796 6710.43,387.008L6710.43,6563.84C6710.43,6646.05 6645.88,6710.6 6563.67,6710.6L387,6710.6ZM475.13,5759.38L6499.08,5759.38L3486.94,539.71L475.13,5759.38Z" style="fill:rgb(0,122,194);"/>
    </g>
    <g transform="matrix(9.91595,0,0,9.91595,-666.576,-458.647)">
        <path d="M277.156,534.361L317.975,534.481L298.967,606.429C298.967,606.429 266.041,606.484 252.915,606.284C258.564,590.247 277.156,534.361 277.156,534.361Z" style="fill-rule:nonzero;"/>
        <path d="M596.238,534.573C605.727,534.477 620.941,534.459 634.447,534.279C640.167,545.509 661.63,587.946 671.208,606.459C652.271,606.479 626.043,606.576 626.043,606.576C626.043,606.576 604.569,555.075 596.238,534.573Z" style="fill-rule:nonzero;"/>
        <path d="M434.413,534.596C454.867,534.817 469.191,534.505 478.22,534.532C479.041,544.771 481.144,577.228 483.226,606.162C467.654,606.469 457.349,606.45 440.103,606.451C438.32,583.438 435.968,553.461 434.413,534.596Z" style="fill-rule:nonzero;"/>
        <path d="M516.951,534.576C536.189,534.717 542.956,534.692 554.195,534.661C561.394,555.079 572.468,588.861 578.349,606.236C566.872,606.403 546.055,606.405 535.142,606.581C530.406,588.748 521.525,552.873 516.951,534.576Z" style="fill-rule:nonzero;"/>
        <path d="M359.675,534.683C384.529,534.44 388.339,534.405 398.244,534.483C396.364,552.037 391.276,592.961 388.841,606.61C375.936,606.437 360.865,606.416 345.165,606.334C350.043,584.197 357.872,545.523 359.675,534.683Z" style="fill-rule:nonzero;"/>
        <path d="M197.952,534.329C197.952,534.329 213.785,534.316 237.521,534.666C233.696,543.609 205.104,606.391 205.104,606.391L157.736,606.18L197.952,534.329Z" style="fill-rule:nonzero;"/>
        <g transform="matrix(1.04529,0,0,1.04529,-22.1089,-25.8431)">
            <path d="M392.91,220.92C397.27,209.54 411.2,209.5 421.37,208.55C442.64,211.57 443.67,242.71 429.5,254.59C429.44,257.55 429.45,260.51 429.49,263.47C437.81,273.03 451.25,275.77 459.61,285.41C471.6,298.59 482.6,312.63 492.67,327.34C499.98,339.1 497.79,353.65 503.04,366.08C505.63,375.54 506.88,385.32 507.91,395.05C509.2,400.61 509.22,407.57 504.38,411.46C498.4,412.89 493.37,407.95 490.96,403C481.84,386.43 483.45,366.59 476.69,349.29C471.38,342.97 465.16,337.37 459.36,331.46C458.43,331.44 457.5,331.45 456.58,331.49C449,335.73 450.58,344.73 449.46,352C450.41,368.11 452.57,384.17 455.4,400.08C451.96,404.82 446.86,408.74 445.67,414.8C444.44,429.78 447.23,444.83 452.04,458.99C454.18,463.73 459.51,465.72 463.73,468.21C477.31,473.98 487.72,485.4 495.19,497.87C502.88,508.68 512.99,519.58 514.59,533.09C510.17,539.14 504.39,544.08 500.76,550.7C496.29,558.29 486.43,558.89 478.57,558.63C471.08,554.64 476.72,547.8 480.5,543.34C480.5,541.42 480.5,539.51 480.52,537.6C463.56,516.18 447.3,493.05 423.93,478.09C417.47,471.84 418.87,461.8 414.72,454.35C399.23,452.34 399.29,470.91 394.83,480.97C396,494.76 386.64,506.01 385.28,519.38C379.93,531.15 377.52,543.97 371.53,555.59C370.53,563.24 364.07,573.46 355.13,569.8C343.66,563.2 329.65,563.4 319.36,554.63C319.39,554.1 319.45,553.04 319.49,552.51C320.49,551.51 321.49,550.51 322.5,549.51C327.02,549.58 332.14,549.98 335.82,546.82C341.24,541.16 335.85,532.19 341.51,526.42C350.76,502.72 361.94,479.48 366.75,454.39C373.73,437.34 387.01,423.48 393.33,406.07C393.67,394.2 391.12,382.37 390.58,370.52C386.5,363.89 379.34,369.74 375.19,373.15C366.02,377.86 357.53,384.23 347.63,387.34C339.3,386.63 331.8,391.45 323.51,390.51C322.18,389.16 320.84,387.82 319.49,386.49C317.67,378.91 323.59,373.17 329.42,369.51C347.62,357.96 366.54,347.16 382.52,332.5C389.72,324.74 387.29,313.32 389.87,303.82C392.2,296.07 389.95,287.47 394.49,280.41C396.4,273.78 404.16,270.05 403.8,262.65C400.79,259.59 397.6,256.7 394.63,253.6C392.23,242.89 391.9,231.79 392.91,220.92Z" style="fill-rule:nonzero;"/>
            <path d="M383.298,376.865C384.151,386.106 385.747,395.341 385.64,404.601C379.197,421.37 366.392,434.893 359.607,451.466C359.413,451.94 359.266,452.433 359.17,452.937C354.534,477.12 343.797,499.527 334.814,522.354C332.021,525.856 331.097,529.881 330.912,534.127C330.838,535.821 330.898,537.548 330.789,539.221C330.744,539.906 330.817,540.625 330.456,541.21C329.62,541.729 328.596,541.739 327.606,541.8C325.936,541.903 324.235,541.818 322.62,541.793C320.545,541.761 318.544,542.565 317.07,544.025C316.05,545.034 315.041,546.043 314.032,547.052C312.727,548.358 311.933,550.088 311.794,551.929C311.751,552.495 311.686,553.628 311.654,554.194C311.518,556.604 312.517,558.939 314.354,560.504C320.34,565.607 327.339,568.243 334.58,570.42C340.239,572.122 346.065,573.489 351.281,576.49C351.579,576.661 351.888,576.813 352.206,576.943C360.069,580.162 366.917,577.581 371.943,572.21C375.534,568.372 378.022,562.931 378.956,558.005C384.599,546.572 387.076,534.082 392.306,522.574C392.653,521.81 392.874,520.995 392.959,520.161C393.57,514.154 396.093,508.657 398.217,503.079C400.768,496.379 402.848,489.595 402.631,482.254C404.093,478.312 405.157,473.52 406.622,469.107C407.409,466.738 408.155,464.264 409.807,462.932C410.513,465.671 410.901,468.553 411.661,471.264C412.957,475.881 414.953,480.144 418.563,483.637C418.932,483.994 419.336,484.314 419.769,484.59C441.641,498.592 456.957,520.101 472.785,540.255C472.785,540.367 472.784,540.478 472.784,540.59C470.844,543.076 468.943,545.923 468.006,548.663C466.928,551.815 466.871,554.938 467.932,557.837C468.928,560.559 470.934,563.307 474.941,565.442C475.982,565.996 477.136,566.305 478.315,566.344C488.778,566.69 501.46,564.721 507.411,554.617C507.451,554.549 507.49,554.48 507.528,554.411C510.997,548.084 516.598,543.425 520.822,537.643C521.972,536.069 522.484,534.118 522.255,532.182C520.516,517.499 510.037,505.39 501.651,493.636C493.45,480.035 481.967,467.725 467.205,461.303C465.639,460.406 463.945,459.56 462.333,458.608C461.137,457.902 459.859,457.264 459.196,456.057C454.869,443.182 452.295,429.536 453.323,415.933C453.856,413.811 455.316,412.204 456.711,410.565C458.391,408.59 460.156,406.667 461.647,404.613C462.878,402.917 463.366,400.792 462.999,398.728C460.266,383.364 458.165,367.858 457.21,352.302C457.56,349.537 457.616,346.573 457.937,343.725C458.03,342.898 458.098,342.055 458.274,341.265C462.271,345.18 466.306,349.071 469.945,353.276C472.803,361.106 473.911,369.463 475.334,377.728C477.052,387.708 479.194,397.558 484.111,406.562C488.024,414.434 496.643,421.246 506.175,418.967C507.286,418.701 508.325,418.192 509.215,417.476C516.27,411.806 517.307,401.968 515.538,393.795C514.473,383.799 513.145,373.76 510.484,364.042C510.394,363.713 510.283,363.391 510.15,363.077C507.773,357.449 507.182,351.319 506.256,345.288C505.076,337.598 503.444,330.053 499.225,323.265C499.165,323.169 499.103,323.074 499.039,322.98C488.785,308.001 477.583,293.704 465.377,280.28C460.621,274.826 454.52,271.196 448.34,267.695C444.43,265.48 440.464,263.354 437.179,260.32C437.175,259.512 437.174,258.704 437.178,257.895C444.288,250.128 447.68,238.215 446.389,227.338C444.834,214.235 436.9,202.959 422.455,200.908C421.858,200.824 421.253,200.809 420.652,200.865C415.114,201.383 408.563,201.727 402.793,203.416C395.186,205.643 388.832,209.99 385.703,218.159C385.451,218.816 385.29,219.505 385.225,220.206C384.141,231.875 384.522,243.79 387.099,255.288C387.406,256.661 388.083,257.923 389.057,258.939C391.089,261.061 393.223,263.085 395.333,265.131C395.298,265.185 395.263,265.238 395.228,265.291C394.487,266.422 393.583,267.479 392.705,268.559C390.554,271.207 388.579,273.98 387.435,277.157C384.879,281.565 384.019,286.351 383.654,291.286C383.399,294.731 383.482,298.262 382.479,301.598C382.459,301.664 382.44,301.73 382.422,301.797C381.038,306.893 380.927,312.495 380.267,317.873C379.86,321.184 379.33,324.45 377.044,327.049C361.459,341.276 343.014,351.743 325.299,362.984C316.826,368.309 309.339,377.273 311.985,388.292C312.322,389.695 313.045,390.976 314.073,391.988C315.396,393.291 316.709,394.604 318.012,395.927C319.251,397.185 320.885,397.98 322.64,398.179C326.857,398.657 330.922,398.056 334.949,397.109C338.914,396.177 342.803,394.675 346.975,395.03C347.976,395.116 348.984,395.005 349.943,394.703C360.26,391.462 369.16,384.924 378.716,380.016C379.205,379.765 379.666,379.462 380.09,379.113C380.826,378.509 382.117,377.634 383.298,376.865ZM392.91,220.92C397.27,209.54 411.2,209.5 421.37,208.55C442.64,211.57 443.67,242.71 429.5,254.59C429.44,257.55 429.45,260.51 429.49,263.47C437.81,273.03 451.25,275.77 459.61,285.41C471.6,298.59 482.6,312.63 492.67,327.34C499.98,339.1 497.79,353.65 503.04,366.08C505.63,375.54 506.88,385.32 507.91,395.05C509.2,400.61 509.22,407.57 504.38,411.46C498.4,412.89 493.37,407.95 490.96,403C481.84,386.43 483.45,366.59 476.69,349.29C471.38,342.97 465.16,337.37 459.36,331.46C458.43,331.44 457.5,331.45 456.58,331.49C449,335.73 450.58,344.73 449.46,352C450.41,368.11 452.57,384.17 455.4,400.08C451.96,404.82 446.86,408.74 445.67,414.8C444.44,429.78 447.23,444.83 452.04,458.99C454.18,463.73 459.51,465.72 463.73,468.21C477.31,473.98 487.72,485.4 495.19,497.87C502.88,508.68 512.99,519.58 514.59,533.09C510.17,539.14 504.39,544.08 500.76,550.7C496.29,558.29 486.43,558.89 478.57,558.63C471.08,554.64 476.72,547.8 480.5,543.34C480.5,541.42 480.5,539.51 480.52,537.6C463.56,516.18 447.3,493.05 423.93,478.09C417.47,471.84 418.87,461.8 414.72,454.35C399.23,452.34 399.29,470.91 394.83,480.97C396,494.76 386.64,506.01 385.28,519.38C379.93,531.15 377.52,543.97 371.53,555.59C370.53,563.24 364.07,573.46 355.13,569.8C343.66,563.2 329.65,563.4 319.36,554.63C319.39,554.1 319.45,553.04 319.49,552.51C320.49,551.51 321.49,550.51 322.5,549.51C327.02,549.58 332.14,549.98 335.82,546.82C341.24,541.16 335.85,532.19 341.51,526.42C350.76,502.72 361.94,479.48 366.75,454.39C373.73,437.34 387.01,423.48 393.33,406.07C393.67,394.2 391.12,382.37 390.58,370.52C386.5,363.89 379.34,369.74 375.19,373.15C366.02,377.86 357.53,384.23 347.63,387.34C339.3,386.63 331.8,391.45 323.51,390.51C322.18,389.16 320.84,387.82 319.49,386.49C317.67,378.91 323.59,373.17 329.42,369.51C347.62,357.96 366.54,347.16 382.52,332.5C389.72,324.74 387.29,313.32 389.87,303.82C392.2,296.07 389.95,287.47 394.49,280.41C396.4,273.78 404.16,270.05 403.8,262.65C400.79,259.59 397.6,256.7 394.63,253.6C392.23,242.89 391.9,231.79 392.91,220.92Z" style="fill:white;"/>
        </g>
    </g>
</svg>
