<?xml version="1.0" encoding="UTF-8" standalone="no"?>
<!DOCTYPE svg PUBLIC "-//W3C//DTD SVG 1.1//EN" "http://www.w3.org/Graphics/SVG/1.1/DTD/svg11.dtd">
<!-- GeoHints -->
<svg width="100%" height="100%" viewBox="0 0 800 703" version="1.1" xmlns="http://www.w3.org/2000/svg" xmlns:xlink="http://www.w3.org/1999/xlink" xml:space="preserve" xmlns:serif="http://www.serif.com/" style="fill-rule:evenodd;clip-rule:evenodd;stroke-linejoin:round;stroke-miterlimit:2;">
    <path d="M394.84,0L404.52,0C420.86,1.83 436.16,11.3 444.31,25.68C559.43,223.9 674.5,422.15 789.62,620.36C794.67,628.48 798.57,637.35 800,646.87L800,656.48C797.81,680.34 777.86,700.3 754.13,703L46.51,703C22.69,700.75 2.64,680.9 0,657.15L0,647.55C1.4,633.67 9.49,622.05 16.24,610.3C128.76,416.46 241.33,222.66 353.84,28.82C361.69,13.11 377.45,2.18 394.84,0M392.26,3.39C377.79,5.55 364.74,14.89 357.68,27.65C241.7,227.35 125.73,427.05 9.78,626.77C1.36,640.65 0.35,658.74 7.7,673.29C15.33,689.24 32.36,699.93 49.99,700.27C282.66,700.26 515.33,700.28 748.01,700.26C764.83,700.56 781.51,691.65 790.16,677.16C799.64,662.09 799.46,641.91 790.22,626.77C675.12,428.52 559.99,230.29 444.88,32.05C435.94,12.4 413.85,-0.68 392.26,3.39Z" style="fill-rule:nonzero;"/>
    <path d="M392.26,3.39C413.85,-0.68 435.94,12.4 444.88,32.05C559.99,230.29 675.12,428.52 790.22,626.77C799.46,641.91 799.64,662.09 790.16,677.16C781.51,691.65 764.83,700.56 748.01,700.26C515.33,700.28 282.66,700.26 49.99,700.27C32.36,699.93 15.33,689.24 7.7,673.29C0.35,658.74 1.36,640.65 9.78,626.77C125.73,427.05 241.7,227.35 357.68,27.65C364.74,14.89 377.79,5.55 392.26,3.39Z" style="fill:rgb(254,186,1);"/>
    <path d="M399.37,13.49C413.39,13.03 426.86,21.3 433.4,33.6C549.68,233.98 666.16,434.24 782.3,634.69C795.37,657.46 777.26,689.06 751.07,689.45C517.03,689.59 282.97,689.59 48.93,689.45C22.74,689.06 4.63,657.46 17.69,634.69C133.23,435.29 249.1,236.09 364.76,36.76C371.03,23.49 384.33,13.37 399.37,13.49M116.3,614.38C305.42,614.41 494.55,614.41 683.68,614.38C589.13,451.52 494.58,288.65 400,125.8C305.41,288.65 210.88,451.53 116.3,614.38Z" style="fill:rgb(204,0,0);fill-rule:nonzero;"/>
    <g>
        <path d="M241.013,599.327L195.159,599.327L235.931,527.954L271.505,527.954L241.013,599.327Z" style="fill-rule:nonzero;"/>
        <path d="M325.213,580.271L338.611,561.331L332.143,599.327L286.867,599.327L297.493,565.026L325.213,580.271Z" style="fill-rule:nonzero;"/>
        <path d="M422.811,599.327L377.997,599.327L381.231,527.954L418.191,527.954L422.811,599.327Z" style="fill-rule:nonzero;"/>
        <path d="M468.665,599.327L454.343,527.954L456.653,527.954L487.145,556.249L486.683,558.097L476.057,561.331L470.975,577.037L506.665,577.961L513.595,599.327L468.665,599.327Z" style="fill-rule:nonzero;"/>
        <path d="M604.841,599.327L559.911,599.327L526.993,527.954L563.607,527.954L604.841,599.327Z" style="fill-rule:nonzero;"/>
        <path d="M469.589,420.195L470.051,418.347L469.127,404.949L471.899,404.025L466.355,356.323L441.754,313.241L427.431,304.463L420.501,300.767L415.419,297.071L413.571,291.065L413.109,286.907L414.957,273.971L415.419,266.925L415.419,260.457L413.571,254.451L409.413,249.831L402.483,246.597L395.553,245.673L388.046,246.597L383.079,249.369L378.459,252.141L377.073,256.761L376.611,261.381L376.611,266.001L377.073,268.773L376.611,273.509L377.073,279.977L378.921,288.293L380.769,292.451L390.818,294.299L392.319,301.691L372.915,317.861L366.447,360.019L328.909,391.551L326.137,395.247L325.675,399.867L327.985,403.563L331.681,406.335L336.301,406.335L347.505,398.943L349.353,401.253L377.997,378.499L384.003,369.259L388.046,408.645L307.657,547.477L290.563,543.319L282.131,549.787L323.827,573.811L407.103,453.113L437.596,503.933L492.228,554.869L491.303,562.261L481.139,565.033L477.905,572.425L500.197,573.349L518.677,545.629L466.355,483.951L438.982,426.201L440.368,423.429L441.292,420.195L441.292,413.727L440.368,409.107L436.672,398.019L433.9,386.007L432.976,351.703L447.413,371.569L454.343,417.423L455.729,421.119L458.963,423.891L463.121,424.815L466.817,423.429L469.589,420.195Z" style="fill-rule:nonzero;"/>
    </g>
</svg>
