<?xml version="1.0" encoding="UTF-8" standalone="no"?>
<!DOCTYPE svg PUBLIC "-//W3C//DTD SVG 1.1//EN" "http://www.w3.org/Graphics/SVG/1.1/DTD/svg11.dtd">
<!-- GeoHints -->
<svg width="100%" height="100%" viewBox="0 0 800 703" version="1.1" xmlns="http://www.w3.org/2000/svg" xmlns:xlink="http://www.w3.org/1999/xlink" xml:space="preserve" xmlns:serif="http://www.serif.com/" style="fill-rule:evenodd;clip-rule:evenodd;">
    <path d="M394.84,0L404.52,0C420.86,1.83 436.16,11.3 444.31,25.68C559.43,223.9 674.5,422.15 789.62,620.36C794.67,628.48 798.57,637.35 800,646.87L800,656.48C797.81,680.34 777.86,700.3 754.13,703L46.51,703C22.69,700.75 2.64,680.9 0,657.15L0,647.55C1.4,633.67 9.49,622.05 16.24,610.3C128.76,416.46 241.33,222.66 353.84,28.82C361.69,13.11 377.45,2.18 394.84,0M392.26,3.39C377.79,5.55 364.74,14.89 357.68,27.65C241.7,227.35 125.73,427.05 9.78,626.77C1.36,640.65 0.35,658.74 7.7,673.29C15.33,689.24 32.36,699.93 49.99,700.27C282.66,700.26 515.33,700.28 748.01,700.26C764.83,700.56 781.51,691.65 790.16,677.16C799.64,662.09 799.46,641.91 790.22,626.77C675.12,428.52 559.99,230.29 444.88,32.05C435.94,12.4 413.85,-0.68 392.26,3.39Z" style="fill-rule:nonzero;"/>
    <path d="M392.26,3.39C413.85,-0.68 435.94,12.4 444.88,32.05C559.99,230.29 675.12,428.52 790.22,626.77C799.46,641.91 799.64,662.09 790.16,677.16C781.51,691.65 764.83,700.56 748.01,700.26C515.33,700.28 282.66,700.26 49.99,700.27C32.36,699.93 15.33,689.24 7.7,673.29C0.35,658.74 1.36,640.65 9.78,626.77C125.73,427.05 241.7,227.35 357.68,27.65C364.74,14.89 377.79,5.55 392.26,3.39Z" style="fill:white;"/>
    <path d="M399.37,13.49C413.39,13.03 426.86,21.3 433.4,33.6C549.68,233.98 666.16,434.24 782.3,634.69C795.37,657.46 777.26,689.06 751.07,689.45C517.03,689.59 282.97,689.59 48.93,689.45C22.74,689.06 4.63,657.46 17.69,634.69C133.23,435.29 249.1,236.09 364.76,36.76C371.03,23.49 384.33,13.37 399.37,13.49M116.3,614.38C305.42,614.41 494.55,614.41 683.68,614.38C589.13,451.52 494.58,288.65 400,125.8C305.41,288.65 210.88,451.53 116.3,614.38Z" style="fill:rgb(204,0,0);fill-rule:nonzero;"/>
    <g transform="matrix(1.20722,0,0,1.20722,42.1497,31.8488)">
        <g>
            <path d="M172.888,385.308L139.52,470.113L99.804,470.113L143.171,385.113L172.888,385.308Z"/>
            <path d="M236.322,385.723L226.661,470.113L182.181,470.113L204.741,385.516L236.322,385.723Z"/>
            <path d="M307.726,386.19L314.178,470.113L266.566,470.113L271.396,385.952L307.726,386.19Z"/>
            <path d="M376.2,386.638L397.533,470.113L356.95,470.113L344.684,386.432L376.2,386.638Z"/>
            <path d="M409.529,386.856L448.762,387.113L493.138,470.113L438.207,470.113L409.529,386.856Z"/>
        </g>
        <path d="M276.137,270.113C270.424,275.19 226.853,315.638 220.667,305.332C218.778,302.186 215.706,293.399 219.914,290.595C224.823,287.324 252.715,267.974 257.841,263.245C262.559,258.893 277.78,237.714 285.637,227.613C289.977,222.033 294.273,221.187 300.989,218.669C307.257,216.319 310.131,220.855 315.137,225.113C323.919,232.583 331.321,240.994 338.805,249.724C345.514,257.551 355.516,264.499 358.266,274.584C360.963,284.477 364.19,294.856 365.137,305.111C365.648,310.639 365.658,314.604 360.248,316.407C353.37,318.7 354.095,316.054 350.667,311.486C345.304,304.335 346.699,288.267 341.511,279.673C339.178,275.808 326.181,266.459 323.137,263.111C322.552,276.857 321.967,290.602 321.382,304.347C320.93,314.966 327.117,321.959 328.396,332.185C329.676,342.42 336.342,353.998 342.03,362.273C351.624,376.227 358.968,385.679 368.559,399.632C373.894,407.393 381.808,414.715 375.137,424.111C371.498,429.234 368.358,428.111 362.356,428.111C356.894,428.111 353.865,424.59 350.772,420.153C336.696,399.956 326.166,389.668 315.112,367.56C310.704,358.744 301.546,339.926 297.137,331.111C289.07,341.758 267.554,367.299 261.889,373.579C257.787,378.127 247.751,405.884 241.645,418.095C239.907,421.573 235.246,427.012 231.638,426.861C224.692,426.568 223.638,426.418 219.888,420.398C218.096,417.521 220.175,408.661 221.521,405.849C224.116,400.426 237.245,366.634 244.843,356.505C251.406,347.756 272.688,316.297 277.008,309.473C279.745,305.153 278.853,302.677 278.413,297.41C277.652,288.314 276.895,279.214 276.137,270.113" style="fill-rule:nonzero;stroke:white;stroke-width:2px;"/>
        <ellipse cx="285.637" cy="199.613" rx="20.5" ry="21.5" style="stroke:black;stroke-width:1px;"/>
    </g>
</svg>
