<?xml version="1.0" encoding="UTF-8" standalone="no"?>
<!DOCTYPE svg PUBLIC "-//W3C//DTD SVG 1.1//EN" "http://www.w3.org/Graphics/SVG/1.1/DTD/svg11.dtd">
<!-- GeoHints -->
<svg width="100%" height="100%" viewBox="0 0 1243 1243" version="1.1" xmlns="http://www.w3.org/2000/svg" xmlns:xlink="http://www.w3.org/1999/xlink" xml:space="preserve" xmlns:serif="http://www.serif.com/" style="fill-rule:evenodd;clip-rule:evenodd;">
    <g transform="matrix(1.12997,0,0,1.1334,-83.2483,-82.5219)">
        <path d="M1173.67,159.092C1173.67,111.439 1134.93,72.809 1087.13,72.809L160.219,72.809C112.421,72.809 73.673,111.439 73.673,159.092L73.673,1082.53C73.673,1130.18 112.421,1168.81 160.219,1168.81L1087.13,1168.81C1134.93,1168.81 1173.67,1130.18 1173.67,1082.53L1173.67,159.092Z" style="fill:rgb(254,254,254);"/>
    </g>
    <g transform="matrix(0.99697,0,0,1,0.0374006,0.103015)">
        <path d="M1173.67,100.801C1173.67,85.341 1161.1,72.809 1145.6,72.809L101.75,72.809C86.244,72.809 73.673,85.341 73.673,100.801L73.673,1140.82C73.673,1156.28 86.244,1168.81 101.75,1168.81L1145.6,1168.81C1161.1,1168.81 1173.67,1156.28 1173.67,1140.82L1173.67,100.801Z" style="fill:rgb(0,0,255);"/>
    </g>
    <g transform="matrix(0.968095,0,0,0.997762,5.41238,-1.55517)">
        <path d="M636.372,152.704L1169.21,1046.18L103.532,1046.18L636.372,152.704Z" style="fill:white;"/>
    </g>
    <g transform="matrix(1,0,0,1,-3.51919,-1.89699)">
        <path d="M274.083,815.042L354.75,814.958L274.042,1008.54L173.75,1008.25L274.083,815.042ZM767.042,815.167C783.25,815.542 814.958,814.792 814.958,814.792L868.208,1008.54L766.875,1008.67C766.875,1008.67 758.208,952 750.417,925.125C772.833,931.875 795.875,915.625 802.75,894.625C804.417,889 803.583,882.958 800.917,877.792C790.292,856.542 776.292,837.083 767.042,815.167ZM427.792,814.958C427.792,814.958 468.833,815.333 489.333,814.958C479.625,838.792 466.75,863.333 458.792,887.833C454.333,908.917 474.208,922.042 486.958,935C482.75,958.125 473.917,1008.42 473.917,1008.42L372.333,1008.08L427.792,814.958ZM581.333,814.917L662.167,814.875L672.208,1008.75L566.792,1009.17L581.333,814.917ZM888.208,815.042L968.458,815.458L1069.08,1008.21L963.667,1008.54L888.208,815.042Z" style="fill-rule:nonzero;"/>
        <g transform="matrix(1.76218,0,0,1.76218,-88.8671,-56.7174)">
            <g transform="matrix(1.20722,0,0,1.20722,45.6689,33.7458)">
                <path d="M276.137,270.113C270.424,275.19 226.853,315.638 220.667,305.332C218.778,302.186 215.706,293.399 219.914,290.595C224.823,287.324 252.715,267.974 257.841,263.245C262.559,258.893 277.78,237.714 285.637,227.613C289.977,222.033 294.273,221.187 300.989,218.669C307.257,216.319 310.131,220.855 315.137,225.113C323.919,232.583 331.321,240.994 338.805,249.724C345.514,257.551 355.516,264.499 358.266,274.584C360.963,284.477 364.19,294.856 365.137,305.111C365.648,310.639 365.658,314.604 360.248,316.407C353.37,318.7 354.095,316.054 350.667,311.486C345.304,304.335 346.699,288.267 341.511,279.673C339.178,275.808 326.181,266.459 323.137,263.111C322.552,276.857 321.967,290.602 321.382,304.347C320.93,314.966 327.117,321.959 328.396,332.185C329.676,342.42 336.342,353.998 342.03,362.273C351.624,376.227 358.968,385.679 368.559,399.632C373.894,407.393 381.808,414.715 375.137,424.111C371.498,429.234 368.358,428.111 362.356,428.111C356.894,428.111 353.865,424.59 350.772,420.153C336.696,399.956 326.166,389.668 315.112,367.56C310.704,358.744 301.546,339.926 297.137,331.111C289.07,341.758 267.554,367.299 261.889,373.579C257.787,378.127 247.751,405.884 241.645,418.095C239.907,421.573 235.246,427.012 231.638,426.861C224.692,426.568 223.638,426.418 219.888,420.398C218.096,417.521 220.175,408.661 221.521,405.849C224.116,400.426 237.245,366.634 244.843,356.505C251.406,347.756 272.688,316.297 277.008,309.473C279.745,305.153 278.853,302.677 278.413,297.41C277.652,288.314 276.895,279.214 276.137,270.113" style="fill-rule:nonzero;stroke:white;stroke-width:2px;"/>
            </g>
            <g transform="matrix(1.20722,0,0,1.20722,45.6689,33.7458)">
                <ellipse cx="285.637" cy="199.613" rx="20.5" ry="21.5" style="stroke:black;stroke-width:1px;"/>
            </g>
        </g>
    </g>
</svg>
