<?xml version="1.0" encoding="UTF-8" standalone="no"?>
<!DOCTYPE svg PUBLIC "-//W3C//DTD SVG 1.1//EN" "http://www.w3.org/Graphics/SVG/1.1/DTD/svg11.dtd">
<svg width="100%" height="100%" viewBox="0 0 602 601" version="1.1" xmlns="http://www.w3.org/2000/svg" xmlns:xlink="http://www.w3.org/1999/xlink" xml:space="preserve" xmlns:serif="http://www.serif.com/" style="fill-rule:evenodd;clip-rule:evenodd;stroke-linejoin:round;stroke-miterlimit:2;">
    <g transform="matrix(1.25,0,0,-1.25,0,600.998)">
        <path d="M27.77,480.4C27.77,480.4 0.508,480.533 0.402,453.033C0.371,314.193 0.566,156.716 0.402,27.767C0.508,0.267 27.77,0.4 27.77,0.4L453.035,0.4C453.035,0.4 480.301,0.267 480.402,27.767C480.559,182.771 480.188,301.935 480.402,453.033C480.301,480.533 453.035,480.4 453.035,480.4L27.77,480.4Z" style="fill:white;"/>
    </g>
    <g transform="matrix(1.25,0,0,-1.25,0,600.998)">
        <path d="M27.77,469.209C27.77,469.209 12.449,469.459 12.402,453.841C11.973,309.509 12.398,169.408 12.402,27.767C12.449,12.15 27.77,12.4 27.77,12.4L453.035,12.4C453.035,12.4 468.359,12.15 468.402,27.767L468.402,109.841L468.598,109.841C468.824,238.279 468.402,330.857 468.402,453.841C468.359,469.459 453.035,469.209 453.035,469.209L27.77,469.209Z" style="fill:rgb(21,72,137);"/>
    </g>
    <g id="path6045" transform="matrix(1.25,0,0,-1.25,0,600.998)">
        <path d="M240.746,423.216L41.055,76.564L439.789,76.564L240.746,423.216Z" style="fill:white;"/>
    </g>
    <g>
        <g transform="matrix(1.25,0,0,-1.25,0,600.998)">
            <path d="M109.375,85.67L73.336,85.67C85.98,107.634 98.602,129.615 111.242,151.58L138.992,151.58L109.375,85.67Z"/>
        </g>
        <g transform="matrix(1.25,0,0,-1.25,0,600.998)">
            <path d="M183.832,85.67L141.676,85.67C145.773,98.47 149.848,111.287 153.941,124.088C154.395,123.908 154.832,123.732 155.273,123.556L184.906,112.341C186.238,113.158 187.57,114.213 188.645,115.56L188.645,116.08L189.438,116.08L183.832,85.67Z"/>
        </g>
        <g transform="matrix(1.25,0,0,-1.25,0,600.998)">
            <path d="M326.09,125.423C330.461,112.181 334.816,98.923 339.168,85.67L296.73,85.67C295.145,94.83 293.531,103.994 291.922,113.158L310.605,113.158C315.773,117.256 320.941,121.349 326.09,125.423Z"/>
        </g>
        <g transform="matrix(1.25,0,0,-1.25,0,600.998)">
            <path d="M258.313,151.58C260.18,129.615 262.047,107.634 263.914,85.67L216.668,85.67C218.363,107.634 220.047,129.615 221.734,151.58L258.313,151.58Z"/>
        </g>
        <g transform="matrix(1.25,0,0,-1.25,0,600.998)">
            <path d="M369.602,151.58C382.242,129.615 394.863,107.634 407.504,85.67L370.676,85.67C360.973,107.634 351.273,129.615 341.578,151.58L369.602,151.58Z"/>
        </g>
        <g transform="matrix(1.25,0,0,-1.25,0,600.998)">
            <path d="M288.723,128.103C287.031,135.935 285.344,143.748 283.656,151.58L287.391,151.58C290.332,147.845 294.605,142.236 299.934,134.248C298.598,133.431 297.531,132.634 296.73,131.841C295.938,131.029 294.863,130.228 293.789,129.435L288.723,128.103Z"/>
        </g>
        <g transform="matrix(1.25,0,0,-1.25,0,600.998)">
            <path d="M160.082,141.697C161.156,144.998 162.227,148.298 163.281,151.58L180.637,151.58C178.762,147.306 176.895,143.052 175.027,138.779L173.16,138.779C172.902,138.779 172.086,138.498 170.754,137.963C169.422,137.963 166.762,138.779 162.746,140.646C161.867,141.006 160.973,141.365 160.082,141.697Z"/>
        </g>
    </g>
    <g transform="matrix(1.25,0,0,-1.25,0,600.998)">
        <path d="M214.801,343.209L215.34,346.15C220.129,345.357 223.07,345.888 224.402,347.482C226.012,349.091 227.883,353.345 230.285,360.564C236.945,357.084 244.953,354.42 254.039,351.756C252.707,345.357 252.426,341.623 252.707,341.084C253.227,340.287 256.445,339.474 262.566,338.142C262.305,336.806 262.047,336.013 262.047,335.736C257.5,336.013 254.039,336.275 251.352,336.275C250.559,327.209 251.352,321.068 253.227,317.588C255.371,314.384 260.438,309.857 268.168,303.97C271.906,300.771 275.641,297.314 279.383,294.115C283.117,290.896 287.129,287.697 291.129,284.775C296.73,280.502 300.211,274.615 301.801,266.884C303.133,261.279 304.484,256.072 306.074,251.138C307.684,246.189 309.551,241.263 311.68,236.451C313.012,231.662 313.293,228.72 312.473,227.107C311.961,224.189 311.145,220.709 309.813,216.435C305.816,219.634 301.266,223.373 296.73,227.107C298.066,229.513 298.879,231.381 299.398,232.716C299.672,233.791 299.137,236.197 297.531,239.927C294.863,244.205 292.738,248.459 290.59,252.732C288.465,257.006 286.336,261.537 283.656,266.088C281.25,267.42 278.582,268.752 275.641,270.084C272.723,271.693 270.039,273.025 267.652,274.099C268.449,253.545 272.723,233.791 280.73,215.107C283.93,207.631 287.789,200.298 291.664,192.963C295.539,185.607 299.934,178.013 305,170.541C307.684,163.861 310.746,157.064 314.086,150.244C317.426,143.451 321.02,136.631 324.762,130.228C321.816,128.103 319.152,125.955 316.746,123.83C314.086,121.963 311.68,120.095 309.273,118.228L288.723,118.228C288.723,120.888 289.535,122.502 291.129,123.295C291.664,123.295 292.203,123.295 292.996,123.556C293.789,123.83 294.863,123.83 295.656,123.83C297.27,125.162 298.879,126.494 300.473,128.361C302.078,129.974 303.945,131.302 306.074,132.634C297.805,145.716 288.465,158.795 278.051,171.595C267.914,184.673 257.5,197.216 247.098,209.498C241.75,200.951 236.684,192.685 231.875,184.673C227.082,176.943 222.273,169.209 217.207,161.732C211.602,154.263 205.996,146.509 200.652,138.244C195.043,129.974 189.719,123.295 184.371,118.228C179.305,119.556 174.77,120.888 170.215,122.756C165.43,124.369 161.156,125.955 157.141,127.568C157.141,128.9 158.215,131.564 160.875,135.838C164.891,133.97 167.156,133.037 167.836,132.634C168.488,132.236 169.961,132.377 171.828,133.173C176.102,133.709 178.508,134.763 179.305,136.912C187.313,153.189 195.98,171.334 205.719,191.611C215.453,211.904 222.809,236.197 227.344,264.22C220.129,259.412 212.934,254.599 205.461,250.326C197.984,246.072 190.773,242.849 183.832,240.724C183.297,238.322 183.039,234.861 182.504,230.849C180.375,230.849 178.645,230.986 177.176,231.381C175.703,231.779 174.488,232.181 173.16,232.716C171.57,234.584 171.035,237.267 171.289,239.927C171.289,242.056 172.621,245.256 175.027,249.271C189.438,254.338 203.313,265.552 216.133,282.904C228.137,299.185 234.559,310.65 235.355,317.588C227.082,315.998 223.609,319.994 224.684,329.873C224.141,330.127 221.734,330.67 221.734,330.67C221.734,330.67 223.395,338.416 224.141,341.877C220.406,341.877 217.207,342.416 214.801,343.209Z"/>
    </g>
</svg>
