<?xml version="1.0" encoding="UTF-8" standalone="no"?>
<!DOCTYPE svg PUBLIC "-//W3C//DTD SVG 1.1//EN" "http://www.w3.org/Graphics/SVG/1.1/DTD/svg11.dtd">
<!-- GeoHints -->
<svg width="100%" height="100%" viewBox="0 0 630 1050" version="1.1" xmlns="http://www.w3.org/2000/svg" xmlns:xlink="http://www.w3.org/1999/xlink" xml:space="preserve" xmlns:serif="http://www.serif.com/" style="fill-rule:evenodd;clip-rule:evenodd;stroke-linejoin:round;stroke-miterlimit:2;">
    <g transform="matrix(0.964304,0,0,0.981287,-21.0648,-23.2203)">
        <rect x="47.77" y="49.14" width="601.47" height="1019.07" style="fill:rgb(14,52,111);"/>
    </g>
    <g transform="matrix(1,0,0,1,-29.36,-37.45)">
        <path d="M659.36,37.45L659.36,1087.45L29.36,1087.45L29.36,37.45M54.36,1062.45L634.36,1062.45L634.36,62.45L54.36,62.45" style="fill:white;fill-rule:nonzero;"/>
    </g>
    <g>
        <g transform="matrix(1,0,0,1,-37.585,-37)">
            <path d="M353.585,342.22L615.81,867.45L89.36,867.45L353.585,342.22Z" style="fill:white;"/>
        </g>
        <path d="M114.28,790.414L516.787,789.866L521.334,798.968L111.862,799.04L114.28,790.414ZM485.349,720.76L145.475,720.991L148.031,713.162L482.295,713.297L485.349,720.76Z" style="fill-rule:nonzero;"/>
        <path d="M307.888,659.024C306.009,676.105 293.825,733.922 289.076,741.938C284.223,750.13 286.807,761.833 279.896,769.357C274.927,769.42 269.875,769.283 265.089,767.804C251.275,759.93 233.384,772.18 220.368,761.338C214.533,758.109 213.885,749.806 219.011,745.601C229.414,737.39 245.485,739.2 254.374,728.725C254.369,727.325 267.474,665.473 273.478,645.058C280.536,613.751 306.549,590.334 312.323,558.571C313.755,542.745 312.61,526.256 308.938,510.944C301.933,509.589 297.428,515.737 292.255,519.232C276.669,530.078 261.776,543.116 243.315,548.752C235.585,547.844 228.8,551.176 221.91,554.11C213.159,553.082 211.52,543.749 210.275,536.642C210.666,532.078 211.671,526.877 216.96,525.791C237.262,521.125 252.158,505.616 269.649,495.26C280.157,486.528 287.206,474.143 298.209,465.866C305.62,461.237 314.663,459.541 321.32,453.6C321.354,452.069 321.418,450.549 321.462,449.028C307.142,439.719 308.841,420.71 310.676,406.09C314.629,387.487 344.612,388.589 350.261,405.45C355.181,415.779 347.802,426.297 347.242,436.614C350.859,449.556 367.352,447.861 375.809,456.002C391.954,470.562 402.323,490.223 413.449,508.596C419.842,527.759 420.88,548.319 420.504,568.444C417.069,579.382 429.203,591.894 419.554,601.516C408.778,612.261 388.75,597.463 397.538,584.029C394.177,559.463 402.381,530.595 384.233,510.076C381.256,505.687 374.18,498.552 369.943,505.477C372.356,526.503 377.269,547.522 375.195,568.805C373.972,575.158 374.462,581.733 376.527,587.862C382.586,627.3 420.867,741.29 425.582,749.341C422.785,760.011 414.489,771.71 402.57,771.876C397.178,778.314 384.486,789.519 384.486,789.519L363.337,790.683C363.337,790.683 360.681,783.521 359.054,780.018C363.005,766.935 374.234,758.256 383.819,749.214C383.891,740.942 353.036,660.485 345.448,634.284C343.881,629.92 343.109,624.958 339.405,621.787C337.645,621.806 335.885,621.815 334.135,621.833C324.609,633.605 314.674,645.441 307.888,659.024Z" style="fill-rule:nonzero;"/>
    </g>
</svg>
