<?xml version="1.0" encoding="UTF-8" standalone="no"?>
<!DOCTYPE svg PUBLIC "-//W3C//DTD SVG 1.1//EN" "http://www.w3.org/Graphics/SVG/1.1/DTD/svg11.dtd">
<svg width="100%" height="100%" viewBox="0 0 394 512" version="1.1" xmlns="http://www.w3.org/2000/svg" xmlns:xlink="http://www.w3.org/1999/xlink" xml:space="preserve" xmlns:serif="http://www.serif.com/" style="fill-rule:evenodd;clip-rule:evenodd;stroke-linejoin:round;stroke-miterlimit:2;">
    <g transform="matrix(1,0,0,1,-0.788,-0.812)">
        <g id="path14" transform="matrix(1,0,0,0.928055,0,0.0584193)">
            <rect x="0.788" y="0.812" width="393.7" height="551.178" style="fill:white;"/>
        </g>
        <g id="path18" transform="matrix(1,0,0,0.928055,0,0.0584193)">
            <rect x="8.659" y="8.683" width="377.952" height="535.429" style="fill:rgb(26,103,187);"/>
        </g>
        <g transform="matrix(1,0,0,1,-0.0085,8.54275)">
            <g id="path20" transform="matrix(1,0,0,1,0,72)">
                <path d="M32.287,315.773L363.006,315.773L197.626,32.289L32.287,315.773" style="fill:white;fill-rule:nonzero;"/>
            </g>
            <g transform="matrix(14.2623,0,0,1,-1162.82,72)">
                <rect x="85.793" y="291.496" width="19.201" height="6.688"/>
            </g>
            <g transform="matrix(11.7937,0,0,1,-1261.78,75)">
                <rect x="113.912" y="255.82" width="19.845" height="5.507"/>
            </g>
            <g transform="matrix(1.96602,0,0,1.96602,-65.4908,-42.5285)">
                <path d="M129.616,110.565C138.654,107.312 140.82,120.57 138.56,126.19C147.92,126.17 150.94,135.51 155.36,141.96C155.52,146.39 155.16,150.97 156.64,155.23C160.7,156.6 157.54,159.52 155.12,160.56C153.52,159.97 151.98,159.26 150.53,158.37C151.23,152.61 149.47,146.81 147.27,141.54C146.86,141.5 146.02,141.41 145.61,141.36C149.03,152.72 144.95,166.2 153.06,175.97C158.6,183.53 163.18,191.64 167.2,199.97C166.94,200.28 166.42,200.9 166.16,201.21L165.62,201.73C164.07,202.94 163.42,204.82 162.79,206.61C160.17,206.62 157.57,206.34 155.03,205.72C156.07,204.77 157.13,203.83 158.2,202.92C158.24,202.49 158.34,201.65 158.38,201.23C155.64,198.01 150.53,191.91 150.53,191.91C148.49,183.75 140.22,177.13 136.02,169.29C130.04,169.66 127.47,177.31 122.75,180.52C121.97,189.82 116.38,197.7 114.27,206.72C109.89,204.65 100.09,204.27 101.53,197.52C103.76,197.66 105.98,197.81 108.21,197.94C108.9,196.12 109.6,194.3 110.32,192.49C107.61,192.54 107.94,190.4 110.65,190.49C111.59,186.09 112.03,181.58 113.22,177.22C117,165.33 134.17,157.66 125.22,143.43C124.65,143.41 123.52,143.36 122.95,143.33C119.78,151.33 108.54,151.02 106.16,158.38C104.57,158.52 102.97,158.6 101.38,158.67C101.49,157.05 101.59,155.42 101.68,153.8C113.74,147.48 117.91,130.31 132,128.19C127.16,125.63 125.809,120.333 125.259,115.343C126.057,112.886 126.706,111.612 129.616,110.565Z" style="fill-rule:nonzero;"/>
            </g>
        </g>
    </g>
</svg>
