<svg width="655" height="655" viewBox="0 0 655 655" fill="none" xmlns="http://www.w3.org/2000/svg">
<g clip-path="url(#clip0_0_3)">
<path d="M655 0H0V655H655V0Z" fill="#0C479D"/>
<path d="M328 83L611.19 571.25H44.8097L328 83Z" fill="white"/>
<rect x="78" y="548" width="38" height="10" fill="black"/>
<rect x="474" y="548" width="38" height="10" fill="black"/>
<rect x="540" y="548" width="38" height="10" fill="black"/>
<rect x="210" y="548" width="38" height="10" fill="black"/>
<rect x="276" y="548" width="38" height="10" fill="black"/>
<rect x="342" y="548" width="38" height="10" fill="black"/>
<rect x="408" y="548" width="38" height="10" fill="black"/>
<rect x="144" y="548" width="38" height="10" fill="black"/>
<rect x="474" y="455" width="38" height="10" fill="black"/>
<rect x="200" y="455" width="38" height="10" fill="black"/>
<rect x="307" y="455" width="38" height="10" fill="black"/>
<rect x="420" y="455" width="38" height="10" fill="black"/>
<rect x="144" y="455" width="38" height="10" fill="black"/>
<path fill-rule="evenodd" clip-rule="evenodd" d="M377.812 319.375C377.013 306.804 375.37 284.775 374.159 267.465C380.687 274.766 389.659 284.634 393.745 289.388C397.829 294.128 413.696 321.574 417.351 330.168C421.004 338.759 426.14 351.208 427.246 352.666C428.34 354.141 429.442 356.34 431.453 357.794C433.466 359.251 436.384 359.99 439.685 360.173C442.973 360.357 446.645 359.989 449.562 357.979C452.5 355.97 454.693 352.295 455.799 350.474C456.894 348.645 456.893 348.645 458 342.061C458 342.061 458 342.061 457.446 341.693C456.894 341.325 455.804 340.612 454.698 340.424C453.616 340.24 452.504 340.609 451.946 340.793C451.418 340.977 451.418 340.977 447.021 338.781C447.021 338.781 447.021 338.781 447.365 338.044C447.734 337.307 448.472 335.851 446.652 329.984C444.826 324.14 440.433 313.905 435.115 303.3C429.802 292.673 417.44 270.357 411.488 261.929C405.555 253.477 399.419 244.023 395.948 240.187C392.458 236.349 386.241 230.483 379.28 225.561C372.321 220.618 364.641 216.598 359.14 212.579C353.662 208.538 350.356 204.517 348.714 202.506C347.074 200.497 347.074 200.497 344.873 195.022C344.873 195.022 348.526 190.632 349.82 187.698C351.093 184.765 351.833 181.113 352.182 177.28C352.55 173.424 352.55 169.403 351.653 165.013C350.731 160.627 348.9 155.866 346.89 152.767C344.877 149.652 342.68 148.193 336.462 147.271C330.22 146.374 319.976 146 314.659 146C309.362 146 305.05 146.245 303.862 150.575C303.432 152.153 304.599 154.408 304.599 156.787C304.599 159.167 303.862 161.732 303.665 164.277C303.481 166.841 303.849 169.403 304.034 170.697C304.219 171.968 304.219 171.968 298.737 182.942C298.737 182.942 298.737 182.942 299.278 183.679C299.832 184.391 300.943 185.875 301.474 187.329C302.027 188.788 302.027 190.263 302.027 190.981C302.027 191.718 302.802 197.381 305.331 198.304C307.836 199.225 313.564 198.304 317.691 198.304C318.675 203.43 321.467 209.423 320.666 212.19C319.842 214.979 302.007 214.322 292.871 228.313C287.431 236.638 279.691 250.259 274.583 259.389C269.447 268.535 269.879 271.16 261.753 277.866C253.643 284.577 219.297 310.234 218.373 310.787C217.451 311.339 217.451 311.339 217.451 315.73C217.451 315.73 217.451 315.73 216.726 315.914C215.988 316.098 214.53 316.467 212.866 317.368C211.226 318.289 204.779 322.499 205.006 328.343C205.141 331.828 205.006 336.938 205.559 340.053C206.1 343.172 209.767 346.824 211.595 347.193C213.42 347.562 215.989 347.562 217.815 346.825C219.644 346.088 220.442 333.287 222.497 333.287C224.569 333.287 228.696 333.287 234.422 330.536C246.473 322.439 262.692 311.547 270.532 306.211C278.393 300.88 282.251 297.063 294.016 280.924C294.016 280.924 298 293.044 298.183 299.096C298.368 305.123 297.384 342.412 294.999 348.815C292.621 355.215 264.312 413.036 261.93 420.89C259.548 428.768 245.776 483.882 240.521 504.495L214.161 509.97C209.418 510.338 205.89 515.344 213.055 517.664C213.055 517.664 229.906 520.575 234.113 521.315C238.324 522.051 238.324 522.051 260.288 520.946V526.751H278.969V520.967C278.969 520.967 281.886 519.51 282.992 518.588C284.086 517.692 297.63 450.366 299.086 444.34C300.567 438.286 301.302 433.547 305.326 426.227C309.351 418.904 317.129 407.398 321.07 403.542C325.014 399.687 327.726 398.168 331.214 395.953C333.946 398.291 335.831 401.305 338.319 405.1C340.799 408.873 353.282 449.997 354.373 452.194C355.479 454.386 394.975 505.276 399.367 509.666C399.367 509.666 384.772 523.901 382.207 525.172C379.642 526.463 375.987 527.552 374.158 528.104C372.312 528.657 370.36 529.646 371.592 532.307C371.802 532.786 372.687 533.401 375.247 533.948C377.812 534.501 397.807 530.485 402.572 528.966L415.543 513.543L420.33 516.637L435.233 499.657L430.447 494.875L432.419 491.39C430.159 486.96 390.172 436.132 387.873 430.182C385.596 424.233 382.207 399.15 381.489 386.721C380.912 377.122 379.642 364.036 378.718 350.5C377.808 336.961 378.596 331.995 377.808 319.401" fill="black"/>
</g>
<defs>
<clipPath id="clip0_0_3">
<rect width="655" height="655" fill="white"/>
</clipPath>
</defs>
</svg>
