<?xml version="1.0" encoding="windows-1252"?>
<!-- Generator: Adobe Illustrator 15.0.2, SVG Export Plug-In . SVG Version: 6.00 Build 0)  -->
<!DOCTYPE svg PUBLIC "-//W3C//DTD SVG 1.1//EN" "http://www.w3.org/Graphics/SVG/1.1/DTD/svg11.dtd">
<svg version="1.1" id="_x30_" xmlns="http://www.w3.org/2000/svg" xmlns:xlink="http://www.w3.org/1999/xlink" x="0px" y="0px" width="48.633px" height="48.634px" viewBox="0 0 48.633 48.634" style="enable-background:new 0 0 48.633 48.634;" xml:space="preserve">
<g id="HATCH">
	<path style="fill-rule:evenodd;clip-rule:evenodd;fill:#FFFF00;" d="M0.688,22.655L22.685,0.688c0.916-0.917,2.404-0.917,3.322,0   l21.94,21.968c0.914,0.917,0.914,2.406,0,3.322l-21.94,21.97c-0.918,0.915-2.406,0.915-3.322,0L0.688,25.978   C-0.229,25.062-0.229,23.572,0.688,22.655L0.688,22.655z"/>
</g>
<g id="HATCH_1_">
	<path style="fill-rule:evenodd;clip-rule:evenodd;" d="M1.088,23.084v2.464l21.997,21.996h2.463l21.996-21.996v-2.464L25.548,1.088   h-2.463L1.088,23.084z M23.486,1.518h1.661l21.995,21.969v1.661L25.147,47.114h-1.661L1.489,25.147v-1.661L23.486,1.518z"/>
</g>
<g id="LWPOLYLINE_1_">
	<path style="fill:none;stroke:#000000;stroke-width:1.17;stroke-linecap:round;stroke-linejoin:round;stroke-miterlimit:10;" d="   M1.512,23.487L23.494,1.503c0.458-0.458,1.201-0.458,1.659,0l21.983,21.984c0.459,0.458,0.459,1.201,0,1.659L25.153,47.13   c-0.458,0.457-1.201,0.457-1.659,0L1.512,25.146C1.053,24.688,1.053,23.945,1.512,23.487z"/>
</g>
<g id="HATCH_3_">
	<path style="fill-rule:evenodd;clip-rule:evenodd;" d="M24.814,10.627c0-1.416-1.133-2.549-2.523-2.549   c-1.442,0-2.575,1.134-2.575,2.549c0,1.416,1.133,2.574,2.575,2.574C23.681,13.201,24.814,12.043,24.814,10.627L24.814,10.627z    M20.644,13.768l0.979,4.222l-3.604,4.197l1.596,1.544l2.678-3.089l0.463,2.06l-2.677,5.818V37.4h2.729v-8.211l2.059-4.352   L28.006,37.4h2.625l-4.838-20.492l2.162,2.163v3.656h2.162v-4.737L26,13.743L20.644,13.768L20.644,13.768z"/>
</g>
</svg>