<?xml version="1.0" encoding="UTF-8" standalone="no"?>
<!DOCTYPE svg PUBLIC "-//W3C//DTD SVG 1.1//EN" "http://www.w3.org/Graphics/SVG/1.1/DTD/svg11.dtd">
<!-- GeoHints -->
<svg width="100%" height="100%" viewBox="0 0 200 200" version="1.1" xmlns="http://www.w3.org/2000/svg" xmlns:xlink="http://www.w3.org/1999/xlink" xml:space="preserve" xmlns:serif="http://www.serif.com/" style="fill-rule:evenodd;clip-rule:evenodd;stroke-linejoin:round;stroke-miterlimit:2;">
    <rect x="0" y="0" width="200" height="200" style="fill:white;"/>
    <g transform="matrix(0.954368,0,0,0.954368,4.56323,4.56323)">
        <rect x="0" y="0" width="200" height="200" style="fill:rgb(16,44,117);"/>
    </g>
    <g transform="matrix(1.18825,0,0,1.18825,-320.254,-42.3874)">
        <path d="M353.674,71.599L421.142,188.474L286.205,188.474L353.674,71.599Z" style="fill:white;"/>
    </g>
    <g transform="matrix(0.263283,0,0,0.263283,-6.14635,-3.50455)">
        <g transform="matrix(3.79819,0,0,3.79819,23.345,13.311)">
            <path d="M124.832,169.5C123.543,165.455 119.804,154.088 118.993,151.5C122.993,151.506 126.609,151.484 130.796,151.5C134.848,160.043 138.101,166.671 139.399,169.5C134.542,169.505 129.687,169.532 124.832,169.5Z"/>
        </g>
        <g transform="matrix(3.79819,0,0,3.79819,23.345,13.311)">
            <path d="M121.068,159.314C120.353,160.828 119.174,161.899 117.51,162.058C116.199,164.07 114.216,165.979 111.552,165.423C111.67,163.143 114.748,161.795 114.2,159.386C108.795,153.81 104.477,147.401 99.68,141.309C98.775,140.259 97.782,141.833 97.137,142.428C94.702,145.579 91.395,147.957 89.096,151.203C87.811,155.355 87.027,159.739 86.103,163.959C84.842,164.873 83.093,167.24 81.677,165.402C79.95,164.467 77.07,165.352 76.13,163.038C77.572,162.561 79.063,162.266 80.569,162.09C81.932,161.498 81.561,159.947 81.709,158.77C82.63,155.16 82.77,151.427 83.423,147.778C86.098,143.394 88.475,138.837 91.224,134.501C91.837,133.063 93.075,131.841 93.232,130.246C93.003,128.574 92.611,126.536 91.008,125.673C89.668,126.183 89.086,127.687 88.238,128.75C85.642,131.494 81.851,132.518 78.897,134.78C77.649,135.785 75.922,135.901 74.666,134.835C74.95,132.407 77.796,132.084 79.221,130.551C81.285,128.171 84.344,126.678 85.9,123.909C86.269,120.955 86.85,117.995 87.593,115.097C87.44,112.677 90.689,111.471 89.797,108.891C87.18,108.409 86.337,105.503 86.082,103.246C84.202,98.649 92.224,95.311 94.141,99.76C95.865,102.214 93.643,105.237 95.152,107.701C98.34,110.189 102.698,111.118 105.246,114.423C107.945,116.926 111.404,118.967 112.652,122.64C113.982,125.199 115.117,127.884 116.291,130.491C118.129,133.002 121.151,128.277 122.623,131.099C123.107,133.753 124.961,136.078 124.905,138.818C120.617,140.635 116.375,142.589 112.005,144.195C111.494,147.457 114.419,149.7 115.896,152.251C117.412,154.131 118.387,156.98 120.577,158.017C120.91,157.822 121.373,159.213 121.068,159.314ZM104.346,121.397C104.351,125.088 106.031,128.477 106.728,132.073C107.139,133.153 106.939,134.677 108.15,135.254C110.177,134.656 113.79,133.945 112.547,130.996C110.146,127.547 108.808,122.74 104.346,121.397Z"/>
        </g>
        <path d="M406.26,588.737C415.927,588.689 413.779,588.745 421.93,588.737C433.16,598.617 442.78,608.51 451.88,620.36C455.04,630.73 441.3,636.18 443.62,646.23C450.39,648.32 456.66,644.05 463.23,643.14C466.421,649.12 467.292,651.47 468.887,657.105C452.267,656.845 432.341,657.429 414.175,657.119C411.435,630.865 409.47,611.516 406.26,588.737Z" style="fill-rule:nonzero;"/>
        <path d="M276.519,588.737L319.338,588.737C319.338,588.737 305.827,636.565 298.147,657.105C280.431,657.346 261.395,656.656 243.18,657.105C266.623,608.503 276.519,588.737 276.519,588.737Z" style="fill-rule:nonzero;"/>
        <path d="M366.67,588.737C375.174,588.824 379.283,588.88 385.66,588.74C383.037,612.726 380.471,635.664 377.69,656.956C360.439,657.375 339.518,657.246 323.223,656.91C324.551,652.085 324.697,650.372 325.516,646.491C334.959,648.556 337.052,648.549 342.022,647.909C348.91,647.195 355.037,638.933 355.015,635.089C359.255,616.739 361.827,607.989 366.67,588.737Z" style="fill-rule:nonzero;"/>
    </g>
</svg>
