<?xml version="1.0" encoding="UTF-8" standalone="no"?><!DOCTYPE svg PUBLIC "-//W3C//DTD SVG 1.1//EN" "http://www.w3.org/Graphics/SVG/1.1/DTD/svg11.dtd"><svg width="100%" height="100%" viewBox="0 0 3351 3351" version="1.1" xmlns="http://www.w3.org/2000/svg" xmlns:xlink="http://www.w3.org/1999/xlink" xml:space="preserve" xmlns:serif="http://www.serif.com/" style="fill-rule:evenodd;clip-rule:evenodd;stroke-miterlimit:10;"><rect id="path11687" x="8.333" y="8.333" width="3333.74" height="3333.74" style="fill:#fff;stroke:#000;stroke-width:16.67px;"/><path id="path11689" d="M93.726,92.32l3165.07,-0l0,3166.47l-3165.07,-0l0,-3166.47Zm1581.48,412.824l1338.72,2337.29l-2677.44,1.417l1338.73,-2338.71l-0,0.002Z" style="fill:#00008b;"/><path d="M2618.71,2330.1l219.496,426.232l-257.582,-0l-168.664,-426.232l206.75,0Zm-836.942,0l26.112,426.232l-259.695,-0l19.758,-426.232l213.825,0Zm-636.545,243.455c40.231,40.229 114.326,57.164 172.177,21.89l-26.802,160.887l-257.588,-0l118.548,-426.232l139.748,0l-146.083,243.455Zm1057.13,-243.455l120.68,426.232l-257.581,-0l-39.516,-232.157l69.874,110.786c79.032,-39.516 126.301,-153.838 91.721,-211.002l-56.451,-93.859l71.273,0Zm-1254.02,0l-172.904,426.232l-257.594,-0l220.9,-426.232l209.598,0Z"/><path d="M1867.16,1951.84l287.927,471.408c8.468,14.113 12.689,32.475 12.689,49.41c0,47.271 -28.909,98.79 -70.564,119.968l-393.78,-628.077l-347.909,573.028c-19.049,30.336 -63.521,55.049 -107.967,55.049c-24.713,-0 -50.806,-9.174 -72.696,-25.427l366.977,-615.359l325.323,0Zm0,-35.988l-325.323,0l0,-301.34l-172.201,275.231c-37.403,59.98 -125.617,57.871 -185.6,28.932l390.957,-641.5c13.404,-22.58 134.793,-108.653 246.297,0l299.211,293.594l0,366.244c-74.804,2.133 -129.856,-59.987 -129.856,-121.37l-0,-183.49l-123.485,-118.548l0,402.247Zm-214.534,-712.769c76.918,-0 139.73,-62.81 139.73,-139.019c-0,-76.923 -62.812,-139.733 -139.73,-139.733c-77.633,0 -139.729,62.81 -139.729,139.733c-0,76.209 62.096,139.019 139.729,139.019Z"/></svg>