<?xml version="1.0" encoding="UTF-8" standalone="no"?>
<!DOCTYPE svg PUBLIC "-//W3C//DTD SVG 1.1//EN" "http://www.w3.org/Graphics/SVG/1.1/DTD/svg11.dtd">
<svg width="100%" height="100%" viewBox="0 0 805 805" version="1.1" xmlns="http://www.w3.org/2000/svg" xmlns:xlink="http://www.w3.org/1999/xlink" xml:space="preserve" xmlns:serif="http://www.serif.com/" style="fill-rule:evenodd;clip-rule:evenodd;stroke-miterlimit:10;">
    <g id="path11687" transform="matrix(1,0,0,1,330.849,88.0234)">
        <rect x="-328.849" y="-86.023" width="800.098" height="800.097" style="fill:white;stroke:black;stroke-width:4px;"/>
    </g>
    <g id="path11689" transform="matrix(1,0,0,1,330.849,88.0234)">
        <path d="M-308.355,-65.867L451.262,-65.867L451.262,694.087L-308.355,694.087L-308.355,-65.867ZM71.2,33.211L392.493,594.161L-250.094,594.501L71.2,33.211L71.2,33.211Z" style="fill:rgb(0,0,139);"/>
    </g>
    <g>
        <path d="M177.297,559.225L124.281,661.52L186.104,661.52L227.602,559.225L177.297,559.225Z"/>
        <path d="M376.307,559.225L371.564,661.52L433.893,661.52L427.625,559.225L376.307,559.225Z"/>
        <path d="M578.871,559.225L619.352,661.52L681.17,661.52L628.492,559.225L578.871,559.225Z"/>
        <path d="M267.328,591.75L247.924,661.52L309.744,661.52L316.557,620.623L267.328,591.75Z"/>
        <path d="M540.834,601.496C528.964,616.761 505.674,619.726 488.729,619.629L495.707,661.52L557.527,661.52L540.834,601.496Z"/>
        <path d="M478.666,559.225L483.904,590.666L496.125,585.928L483.486,559.225L478.666,559.225Z"/>
        <path d="M276.375,559.225L274.518,565.902L305.959,573.277L311.525,559.225L276.375,559.225Z"/>
    </g>
    <path d="M416.889,215.299L404.555,215.684L391.271,236.182L378.432,235.49L377.736,238.383L388.264,243.164C389.274,248.027 382.923,254.031 383.645,260.324C388.265,261.182 389.419,264.473 390.43,267.477C390.718,269.765 390.14,273.198 392.018,274.342C392.018,274.342 413.945,286.925 397.195,301.229C397.195,301.229 375.587,315.181 370.33,320.831C368.433,322.871 366.32,327.403 366.32,327.403C347.548,386.045 309.979,383.07 309.979,383.07L290.883,409.668L290.783,427.771L295.684,432.627L305.893,426.256L306.492,420.896C359.341,418.843 380.731,362.426 387.373,366.012C401.055,381.423 372.055,443.08 372.055,443.08C370.646,448.792 373.128,452.972 378.148,455.836L310.184,585.826L283.227,578.047L280.775,590.691L330.012,617.852L338.363,606.906L350.205,605.201L424.947,461.918L496.521,565.342C504.281,577.561 503.229,593.974 499.33,596.854L486.459,603.074L482.236,609.609C520.49,615.261 540.119,582.744 540.119,582.744L534.402,572.668L536.443,560.039C536.443,560.039 485.452,493.392 475.5,439.348C477.565,436.769 478.639,434.029 478.449,431.172C478.284,426.759 465.175,400.971 460.715,372.736C460.413,368.908 463.824,366.145 467.682,369.814L489.633,396.094L492.809,423.994L498.873,425.748L502.541,433.799C502.541,433.799 494.427,446.33 500.604,451.129C491.073,458.996 500.604,463.859 503.492,463.43C520.82,459.425 517.498,432.678 519.664,428.816L527.895,426.672C528.616,414.657 521.111,382.188 505.805,356.156L474.613,320.113L435.916,293.508C435.916,293.508 424.941,285.786 428.984,278.635L430.715,276.344L435.627,252.316L443.928,249.885L445.734,247.311L436.059,243.375L432.449,223.309L416.889,215.299Z"/>
    <g id="Livello-1" serif:id="Livello 1">
    </g>
</svg>
