<?xml version="1.0" encoding="UTF-8" standalone="no"?>
<!-- Generator: Adobe Illustrator 11.0, SVG Export Plug-In  -->

<svg
   xmlns:dc="http://purl.org/dc/elements/1.1/"
   xmlns:cc="http://creativecommons.org/ns#"
   xmlns:rdf="http://www.w3.org/1999/02/22-rdf-syntax-ns#"
   xmlns:svg="http://www.w3.org/2000/svg"
   xmlns="http://www.w3.org/2000/svg"
   xmlns:sodipodi="http://sodipodi.sourceforge.net/DTD/sodipodi-0.dtd"
   xmlns:inkscape="http://www.inkscape.org/namespaces/inkscape"
   width="513.53125"
   height="513.5625"
   viewBox="-0.484 -0.084 513.53125 513.5625"
   xml:space="preserve"
   id="svg2"
   version="1.1"
   inkscape:version="0.48.2 r9819"
   sodipodi:docname="AJAX1.svg"><metadata
   id="metadata28"><rdf:RDF><cc:Work
       rdf:about=""><dc:format>image/svg+xml</dc:format><dc:type
         rdf:resource="http://purl.org/dc/dcmitype/StillImage" /></cc:Work></rdf:RDF></metadata><sodipodi:namedview
   pagecolor="#ffffff"
   bordercolor="#666666"
   borderopacity="1"
   objecttolerance="10"
   gridtolerance="10"
   guidetolerance="10"
   inkscape:pageopacity="0"
   inkscape:pageshadow="2"
   inkscape:window-width="1280"
   inkscape:window-height="1004"
   id="namedview26"
   showgrid="false"
   inkscape:zoom="0.66510405"
   inkscape:cx="599.85379"
   inkscape:cy="82.744411"
   inkscape:window-x="-8"
   inkscape:window-y="-8"
   inkscape:window-maximized="1"
   inkscape:current-layer="g6"
   fit-margin-top="0"
   fit-margin-left="0"
   fit-margin-right="0"
   fit-margin-bottom="0" />
	<defs
   id="defs4"><inkscape:perspective
   sodipodi:type="inkscape:persp3d"
   inkscape:vp_x="0 : 255.5 : 1"
   inkscape:vp_y="0 : 1000 : 0"
   inkscape:vp_z="512 : 255.5 : 1"
   inkscape:persp3d-origin="256 : 170.33333 : 1"
   id="perspective30" />
	</defs>
	<g
   id="g6"
   transform="translate(-637.64025,-29.959)">
		 
		<path
   d="m 668.45859,541.92431 h 451.00801 c 16.416,0 29.736,-13.392 29.736,-29.808 V 61.108307 c 0,-16.416 -13.32,-29.736 -29.736,-29.736 H 668.45859 l 0,0 c -16.416,0 -29.808,13.32 -29.808,29.736 0,0.072 0,0.072 0,0.072 V 512.11631 l 0,0 c 0,16.416 13.392,29.808 29.808,29.808 0,0 0,0 0.072,0 h -0.072 z"
   id="path10"
   style="fill:#ffffff;stroke:#2163ad;stroke-width:3;stroke-miterlimit:4;stroke-opacity:1;stroke-dasharray:none"
   inkscape:connector-curvature="0" />
		<path
   d="m 668.45859,529.10831 h 451.00801 c 9.432,0 16.992,-7.704 16.992,-17.064 V 61.036307 c 0,-9.36 -7.56,-16.992 -16.992,-16.992 H 668.45859 l 0,0 c -9.36,0 -16.992,7.632 -16.992,16.992 v 0.072 450.936003 l 0,0 c 0,9.36 7.632,17.064 16.992,17.064 l 0,0 z"
   id="path12"
   style="fill:#2163ad;fill-opacity:1;stroke:none"
   inkscape:connector-curvature="0" />
		<path
   transform="translate(638.54259,31.120307)"
   style="fill:#fee011;fill-opacity:1;stroke:none"
   d="M 255.42,12.923992 497.916,432.9 l -484.992,0 z"
   id="polygon14"
   inkscape:connector-curvature="0"
   sodipodi:nodetypes="cccc" />
		
		
		
		
		
	<path
   inkscape:connector-curvature="0"
   style="fill:#000000;fill-opacity:1;stroke:none"
   d="m 714.03861,445.43747 46.24439,-0.0935 20.03927,-49.77885 -32.27763,0.35797 -34.00603,49.51439 0,-3e-5 z"
   id="path10815"
   sodipodi:nodetypes="cccccc" /><path
   inkscape:connector-curvature="0"
   style="fill:#000000;fill-opacity:1;stroke:none"
   d="m 818.85925,445.34397 46.42332,0.0934 -0.17893,-49.42086 -35.45406,0 -10.79033,49.32736 z"
   id="path10817"
   sodipodi:nodetypes="ccccc" /><path
   inkscape:connector-curvature="0"
   sodipodi:nodetypes="cccccc"
   id="path11601"
   d="m 1073.8864,445.43747 -46.2444,-0.0935 -20.0393,-49.77885 32.2776,0.35797 34.0061,49.51439 0,-3e-5 z"
   style="fill:#000000;fill-opacity:1;stroke:none" /><path
   inkscape:connector-curvature="0"
   sodipodi:nodetypes="ccccc"
   id="path11603"
   d="m 969.06573,445.34397 -46.42341,0.0934 0.17902,-49.42086 35.45406,0 10.79033,49.32736 z"
   style="fill:#000000;fill-opacity:1;stroke:none" /><path
   inkscape:connector-curvature="0"
   id="path11599"
   style="fill:#000000;fill-opacity:1;fill-rule:nonzero;stroke:#fee011;stroke-width:1.5;stroke-miterlimit:4;stroke-opacity:1;stroke-dasharray:none"
   d="m 875.9145,139.77824 c 3.16563,-1.43891 5.06016,-2.03845 8.46562,-2.68594 5.92349,-1.12811 5.92349,-1.53483 15.46821,0.19184 2.97373,0.52761 4.48456,1.9665 6.42712,4.26876 1.87055,2.20632 2.32624,3.93301 3.1176,6.69092 0.88641,3.04566 1.07821,4.89228 0.91136,8.03387 -0.86334,5.13211 -1.89363,8.0339 -4.48465,12.51849 -1.60768,2.80587 -2.70994,4.3167 -4.89222,6.69091 l 0,3.11763 15.18038,6.71489 9.80859,11.15151 8.48957,14.29313 12.95008,26.78763 2.23029,15.61213 1.79769,22.95052 -1.53479,0.19185 1.07821,7.41036 2.49408,4.46061 0,2.06243 c 0,0 -5.27601,1.00724 -8.46551,0.17268 -2.68598,-0.69452 -6.25927,-3.30949 -6.25927,-3.30949 l -0.2628,-9.90351 -1.34299,-8.39361 -2.68598,-22.75868 -5.34791,-6.25924 -5.80358,-9.37687 0.88631,41.08075 5.348,12.49449 3.1176,18.29807 18.05826,47.43593 27.50702,42.32779 -1.34298,1.77466 3.04571,2.15837 2.75788,4.10087 -6.33117,8.65742 -2.15831,-1.50989 -8.92121,12.92617 -15.4683,1.79765 -0.33568,-4.55653 8.75326,-3.11762 2.39823,-10.0004 -0.71947,-4.1968 -1.77461,1.77465 -29.56949,-38.03506 -3.47743,-5.276 -3.21355,-7.93797 -20.81613,-39.21017 -31.3442,41.34455 -16.23561,29.8333 -15.46823,29.11387 -1.87056,-0.98421 -5.27601,9.01715 -12.2307,-5.276 0.8883,-1.5118 -10.98366,-2.59003 -13.21395,-6.16332 1.60776,-4.10088 14.74876,2.2303 8.92119,-1.34297 -1.3429,-0.88635 24.29348,-55.27797 5.63574,-9.64066 20.98397,-38.22693 8.48957,-20.09672 0.43171,-6.6909 0,-39.28212 -12.06285,23.64602 -23.21436,14.91665 -0.88632,-0.88829 -4.02897,3.11762 -1.51182,2.23031 -1.60777,4.19682 -1.60768,1.17607 c 0,0 -2.87778,-1.87059 -4.19682,-3.57328 -2.25426,-2.87782 -2.85381,-8.92123 -2.85381,-8.92123 l 1.50984,-3.33345 7.60225,-3.81309 19.20936,-15.80399 5.77963,-16.52344 3.83707,-15.01258 2.87778,-10.88771 8.03398,-14.72479 6.23522,-4.48461 c 1.24704,-0.98228 1.79768,-2.32622 1.79768,-4.00494 0,-1.53483 -0.62352,-2.68597 -1.79768,-3.5733 l -4.19681,-0.26474 c -0.71947,0.0383 -1.24704,-0.13429 -1.77462,-0.62353 -0.62361,-0.59858 -0.71947,-2.06242 -0.71947,-2.06242 l 0,-6.42713 -2.66201,-1.15111 1.77461,-6.4511 0.71947,-3.11763 c -1.60768,-3.33347 -1.96642,-5.73163 -1.34299,-9.37687 0.36073,-2.18233 0.81542,-3.45338 1.9666,-5.34791" /></g>
</svg>