<?xml version="1.0" encoding="UTF-8" standalone="no"?>
<!DOCTYPE svg PUBLIC "-//W3C//DTD SVG 1.1//EN" "http://www.w3.org/Graphics/SVG/1.1/DTD/svg11.dtd">
<!-- GeoHints -->
<svg width="100%" height="100%" viewBox="0 0 827 724" version="1.1" xmlns="http://www.w3.org/2000/svg" xmlns:xlink="http://www.w3.org/1999/xlink" xml:space="preserve" xmlns:serif="http://www.serif.com/" style="fill-rule:evenodd;clip-rule:evenodd;stroke-linejoin:round;stroke-miterlimit:2;">
    <g transform="matrix(1,0,0,1,-10.284,-9.69233)">
        <path d="M423.574,9.693C432.48,9.629 442.256,14.18 447.046,22.7L833.662,692.564C835.894,697.124 836.836,701.089 836.865,705.625C836.86,713.745 833.271,721.45 827.056,726.675C821.577,730.918 816.386,733.125 809.404,733.125L37.021,733.125C32.305,733.169 27.583,732.037 23.301,729.209C15.235,724.337 10.298,715.605 10.284,706.177C10.512,701.309 11.714,696.177 13.886,692.564L400.274,22.588L400.508,22.232C401.875,20.039 403.594,18.1 405.556,16.44C410.039,12.554 415.664,10.22 421.587,9.795C422.251,9.737 422.915,9.698 423.574,9.693Z" style="fill:rgb(171,37,36);"/>
        <path d="M423.975,142.457L129.346,653.125L719.014,653.125L423.975,142.457Z" style="fill:white;"/>
        <g transform="matrix(2.27385,0.0215351,0.0287436,2.27432,41.8951,54.2246)">
            <path d="M72.111,254.11L87.512,229.192L106.177,228.704L93.09,253.999L72.111,254.11Z" style="fill-rule:nonzero;"/>
            <path d="M126.981,253.878L135.668,228.663L155.402,228.337L149.915,253.725L126.981,253.878Z" style="fill-rule:nonzero;"/>
            <path d="M237.12,228.303L255.242,227.571L270.63,252.46L250.95,252.36L237.12,228.303Z" style="fill-rule:nonzero;"/>
            <path d="M185.757,228.157L205.95,227.642L214.214,252.985L192.953,253.346L185.757,228.157Z" style="fill-rule:nonzero;"/>
            <path d="M160.52,86.56C164.61,82.28 172.301,84.433 175.321,88.743C177.142,91.342 175.97,98.933 174.247,100.477C172.767,105.397 172.99,105.36 174.78,110.2C176.58,110.96 178.39,111.71 180.11,112.67C192.25,126.38 203.37,144.47 197.32,163.62C195.81,163.59 194.29,163.57 192.78,163.55C189.07,155 194.69,144.59 189.2,136.6L186.65,136.6C179.69,147.58 181.1,162.48 188.26,173.03C188.38,193.57 208.65,203.53 217.47,219.8C217.96,226.43 213.6,232.19 210.2,237.52C207.96,237.59 205.72,237.59 203.49,237.53C203.47,236.57 203.43,234.65 203.41,233.69C206.45,230.64 210.48,227.46 209.62,222.61C201.36,214.38 190.19,209.37 183.97,199.02C178.05,194.1 175.78,178.85 165.6,184.66C155.03,200.46 144.83,216.36 132.1,230.48C126.53,231.53 122.01,227.31 116.57,227.3C116.52,225.78 116.47,224.26 116.44,222.74C119.66,221.43 123.14,221.45 126.56,221.57C138.53,206.03 146.23,187.71 157.1,171.38C162.7,164.17 159.9,154.71 160.37,146.32C159.29,145.4 158.58,143.66 157.01,143.57C150.1,147.58 143.96,154.63 135.46,154.6C135.45,153.62 135.42,151.65 135.4,150.66C141.99,143.14 154.33,138.98 154.51,127.38C154.15,118.39 164.69,112.19 161.06,103C153.987,98.173 155.44,90.94 160.52,86.56Z" style="fill-rule:nonzero;"/>
            <path d="M157.333,83.183C153.05,86.963 150.845,92.252 151.729,97.298C152.255,100.295 153.849,103.315 157.01,105.889C157.315,107.457 156.923,108.888 156.331,110.273C155.602,111.981 154.589,113.634 153.634,115.32C151.48,119.126 149.682,123.08 149.817,127.522C149.708,131.753 147.202,134.529 144.318,137.045C140.225,140.617 135.332,143.698 131.901,147.613C131.111,148.515 130.685,149.674 130.709,150.858C130.729,151.837 130.758,153.783 130.768,154.752C130.794,157.275 132.815,159.282 135.34,159.291C140.555,159.309 145.088,157.284 149.336,154.51C151.489,153.104 153.561,151.494 155.654,150.004C155.734,153.089 156.009,156.248 155.967,159.332C155.923,162.61 155.545,165.816 153.418,168.555C153.346,168.648 153.277,168.743 153.212,168.842C142.849,184.409 135.403,201.808 124.317,216.835C121.061,216.84 117.813,217.156 114.755,218.401C112.912,219.15 111.71,220.964 111.749,222.936C111.779,224.477 111.83,226.017 111.881,227.558C111.962,230.041 113.971,231.986 116.458,231.991C119.23,231.996 121.676,233.438 124.247,234.279C127.003,235.18 129.828,235.663 132.871,235.089C133.902,234.895 134.846,234.363 135.554,233.578C148.161,219.594 158.333,203.898 168.787,188.248C169.196,188.079 169.563,188.002 169.914,188.066C171.06,188.274 171.723,189.42 172.514,190.555C175.138,194.32 177.384,199.269 180.295,202.089C183.67,207.466 188.234,211.558 193.101,215.338C197.076,218.426 201.259,221.295 204.954,224.706C204.74,225.522 204.177,226.211 203.61,226.877C202.537,228.14 201.252,229.283 200.123,230.416C199.2,231.342 198.692,232.599 198.719,233.891C198.739,234.851 198.779,236.771 198.799,237.731C198.85,240.193 200.799,242.153 203.26,242.219C205.581,242.282 207.912,242.281 210.243,242.209C211.82,242.159 213.284,241.322 214.14,239.98C218.069,233.82 222.716,227.014 222.149,219.352C222.101,218.699 221.916,218.066 221.606,217.495C217.04,209.072 209.572,202.232 203.168,194.889C197.702,188.622 193.005,181.975 192.952,172.899C192.947,171.981 192.672,171.09 192.161,170.338C191.593,169.501 191.066,168.633 190.582,167.739C191.197,168.055 191.89,168.231 192.614,168.24C194.114,168.26 195.623,168.28 197.123,168.31C199.238,168.352 201.15,166.972 201.791,164.942C208.351,144.179 196.816,124.382 183.653,109.517C183.314,109.135 182.913,108.812 182.466,108.562C181.163,107.835 179.815,107.215 178.455,106.626C178.183,105.937 178.006,105.426 177.965,104.901C177.914,104.245 178.147,103.605 178.504,102.487C179.321,101.191 180.09,99.342 180.5,97.219C181.285,93.155 180.787,88.284 179.183,85.995C177.044,82.942 173.291,80.591 169.308,79.824C164.989,78.991 160.521,79.977 157.333,83.183ZM160.52,86.56C164.61,82.28 172.301,84.433 175.321,88.743C177.142,91.342 175.97,98.933 174.247,100.477C172.767,105.397 172.99,105.36 174.78,110.2C176.58,110.96 178.39,111.71 180.11,112.67C192.25,126.38 203.37,144.47 197.32,163.62C195.81,163.59 194.29,163.57 192.78,163.55C189.07,155 194.69,144.59 189.2,136.6L186.65,136.6C179.69,147.58 181.1,162.48 188.26,173.03C188.38,193.57 208.65,203.53 217.47,219.8C217.96,226.43 213.6,232.19 210.2,237.52C207.96,237.59 205.72,237.59 203.49,237.53C203.47,236.57 203.43,234.65 203.41,233.69C206.45,230.64 210.48,227.46 209.62,222.61C201.36,214.38 190.19,209.37 183.97,199.02C178.05,194.1 175.78,178.85 165.6,184.66C155.03,200.46 144.83,216.36 132.1,230.48C126.53,231.53 122.01,227.31 116.57,227.3C116.52,225.78 116.47,224.26 116.44,222.74C119.66,221.43 123.14,221.45 126.56,221.57C138.53,206.03 146.23,187.71 157.1,171.38C162.7,164.17 159.9,154.71 160.37,146.32C159.29,145.4 158.58,143.66 157.01,143.57C150.1,147.58 143.96,154.63 135.46,154.6C135.45,153.62 135.42,151.65 135.4,150.66C141.99,143.14 154.33,138.98 154.51,127.38C154.15,118.39 164.69,112.19 161.06,103C153.987,98.173 155.44,90.94 160.52,86.56ZM187.004,149.139L186.973,149.713C186.898,151.084 186.819,152.459 186.779,153.829C186.727,152.259 186.799,150.688 187.004,149.139Z" style="fill:white;"/>
        </g>
    </g>
</svg>
