<?xml version="1.0" encoding="UTF-8" standalone="no"?>
<!DOCTYPE svg PUBLIC "-//W3C//DTD SVG 1.1//EN" "http://www.w3.org/Graphics/SVG/1.1/DTD/svg11.dtd">
<svg width="100%" height="100%" viewBox="0 0 827 724" version="1.1" xmlns="http://www.w3.org/2000/svg" xmlns:xlink="http://www.w3.org/1999/xlink" xml:space="preserve" xmlns:serif="http://www.serif.com/" style="fill-rule:evenodd;clip-rule:evenodd;stroke-linejoin:round;stroke-miterlimit:2;">
    <g transform="matrix(1,0,0,1,-10.2838,-9.69211)">
        <path d="M423.574,9.693C432.48,9.629 442.256,14.18 447.046,22.7L833.662,692.564C835.894,697.124 836.836,701.089 836.865,705.625C836.86,713.745 833.271,721.45 827.056,726.675C821.577,730.918 816.386,733.125 809.404,733.125L37.021,733.125C32.305,733.169 27.583,732.037 23.301,729.209C15.235,724.337 10.298,715.605 10.284,706.177C10.512,701.309 11.714,696.177 13.886,692.564L400.274,22.588L400.508,22.232C401.875,20.039 403.594,18.1 405.556,16.44C410.039,12.554 415.664,10.22 421.587,9.795C422.251,9.737 422.915,9.698 423.574,9.693Z" style="fill:rgb(171,37,36);"/>
        <path d="M423.975,142.457L129.346,653.125L719.014,653.125L423.975,142.457Z" style="fill:white;"/>
        <g>
            <g>
                <g transform="matrix(0.867895,2.22388e-32,2.22388e-32,-0.867895,129.48,708.162)">
                    <path d="M176.777,92.8L132.203,92.8C147.84,119.968 163.453,147.151 179.086,174.319L213.41,174.319C201.215,147.151 189,119.968 176.777,92.8Z"/>
                </g>
                <g transform="matrix(0.867895,2.22388e-32,2.22388e-32,-0.867895,129.48,708.162)">
                    <path d="M268.867,92.8L216.73,92.8C221.797,108.632 226.836,124.483 231.898,140.315C232.461,140.093 233,139.878 233.547,139.659L270.199,125.788C271.844,126.8 273.492,128.104 274.82,129.768L274.82,130.413L275.805,130.413L268.867,92.8Z"/>
                </g>
                <g transform="matrix(0.867895,2.22388e-32,2.22388e-32,-0.867895,129.48,708.162)">
                    <path d="M360.988,174.319C363.301,147.151 365.609,119.968 367.918,92.8L309.48,92.8C311.578,119.968 313.66,147.151 315.746,174.319L360.988,174.319Z"/>
                </g>
                <g transform="matrix(0.867895,2.22388e-32,2.22388e-32,-0.867895,129.48,708.162)">
                    <path d="M444.82,141.968C450.227,125.589 455.613,109.19 460.996,92.8L408.508,92.8C406.547,104.128 404.551,115.464 402.559,126.8L425.668,126.8C432.059,131.866 438.449,136.928 444.82,141.968Z"/>
                </g>
                <g transform="matrix(0.867895,2.22388e-32,2.22388e-32,-0.867895,129.48,708.162)">
                    <path d="M498.637,174.319C514.27,147.151 529.879,119.968 545.516,92.8L499.965,92.8C487.965,119.968 475.969,147.151 463.977,174.319L498.637,174.319Z"/>
                </g>
                <g transform="matrix(0.867895,2.22388e-32,2.22388e-32,-0.867895,129.48,708.162)">
                    <path d="M398.602,145.284C396.508,154.971 394.422,164.632 392.336,174.319L396.953,174.319C400.594,169.702 405.879,162.764 412.469,152.882C410.816,151.874 409.496,150.885 408.508,149.905C407.527,148.901 406.195,147.913 404.867,146.928C402.781,146.37 400.688,145.823 398.602,145.284Z"/>
                </g>
                <g transform="matrix(0.867895,2.22388e-32,2.22388e-32,-0.867895,129.48,708.162)">
                    <path d="M239.492,162.096C240.824,166.178 242.148,170.26 243.449,174.319L264.918,174.319C262.598,169.034 260.289,163.772 257.98,158.487L255.668,158.487C255.352,158.487 254.34,158.139 252.695,157.479C251.047,157.479 247.758,158.487 242.789,160.796C241.703,161.241 240.598,161.686 239.492,162.096Z"/>
                </g>
            </g>
            <g transform="matrix(0.867895,2.22388e-32,2.22388e-32,-0.867895,129.48,708.162)">
                <path d="M307.172,411.335L307.84,414.971C313.762,413.991 317.398,414.647 319.047,416.62C321.039,418.608 323.352,423.87 326.324,432.8C334.562,428.495 344.465,425.202 355.703,421.905C354.055,413.991 353.707,409.374 354.055,408.706C354.699,407.721 358.68,406.714 366.25,405.069C365.926,403.417 365.609,402.436 365.609,402.093C359.984,402.436 355.703,402.757 352.379,402.757C351.398,391.546 352.379,383.948 354.699,379.647C357.352,375.682 363.617,370.085 373.18,362.803C377.801,358.846 382.422,354.569 387.051,350.612C391.668,346.632 396.633,342.675 401.578,339.061C408.508,333.776 412.812,326.495 414.777,316.932C416.426,309.999 418.098,303.561 420.062,297.456C422.055,291.335 424.363,285.245 426.996,279.292C428.645,273.37 428.992,269.729 427.977,267.733C427.344,264.128 426.336,259.823 424.688,254.534C419.742,258.491 414.117,263.116 408.508,267.733C410.16,270.71 411.164,273.022 411.805,274.671C412.145,276.003 411.484,278.979 409.496,283.593C406.195,288.882 403.57,294.143 400.91,299.428C398.285,304.714 395.648,310.319 392.336,315.948C389.359,317.596 386.059,319.245 382.422,320.889C378.812,322.882 375.492,324.53 372.543,325.858C373.527,300.436 378.812,276.003 388.715,252.893C392.676,243.647 397.445,234.577 402.238,225.503C407.031,216.405 412.469,207.014 418.734,197.772C422.055,189.51 425.84,181.104 429.973,172.667C434.105,164.264 438.547,155.831 443.176,147.913C439.535,145.284 436.238,142.628 433.262,139.999C429.973,137.69 426.996,135.378 424.02,133.069L398.602,133.069C398.602,136.358 399.605,138.354 401.578,139.335C402.238,139.335 402.906,139.335 403.887,139.659C404.867,139.999 406.195,139.999 407.176,139.999C409.172,141.647 411.164,143.292 413.137,145.6C415.121,147.596 417.43,149.241 420.062,150.885C409.836,167.069 398.285,183.245 385.402,199.077C372.863,215.253 359.984,230.764 347.117,245.956C340.504,235.385 334.238,225.159 328.289,215.253C322.363,205.69 316.414,196.124 310.148,186.878C303.215,177.639 296.281,168.05 289.672,157.827C282.734,147.596 276.148,139.335 269.535,133.069C263.27,134.71 257.66,136.358 252.027,138.671C246.109,140.663 240.824,142.628 235.855,144.62C235.855,146.268 237.184,149.565 240.477,154.85C245.441,152.538 248.242,151.385 249.086,150.885C249.891,150.393 251.711,150.569 254.023,151.553C259.309,152.218 262.285,153.518 263.27,156.178C273.176,176.311 283.895,198.753 295.941,223.831C307.98,248.932 317.078,278.979 322.688,313.639C313.762,307.69 304.863,301.737 295.621,296.452C286.371,291.19 277.453,287.206 268.867,284.577C268.207,281.604 267.887,277.327 267.227,272.362C264.594,272.362 262.453,272.534 260.637,273.022C258.816,273.514 257.312,274.01 255.668,274.671C253.703,276.983 253.043,280.3 253.355,283.593C253.355,286.225 255.004,290.182 257.98,295.147C275.805,301.417 292.965,315.284 308.82,336.749C323.668,356.885 331.609,371.065 332.594,379.647C322.363,377.678 318.066,382.62 319.395,394.839C318.727,395.155 315.746,395.827 315.746,395.827C315.746,395.827 317.801,405.405 318.727,409.686C314.105,409.686 310.148,410.354 307.172,411.335Z"/>
            </g>
        </g>
    </g>
</svg>
