<?xml version="1.0" encoding="UTF-8" standalone="no"?>
<!DOCTYPE svg PUBLIC "-//W3C//DTD SVG 1.1//EN" "http://www.w3.org/Graphics/SVG/1.1/DTD/svg11.dtd">
<!-- GeoHints -->
<svg width="100%" height="100%" viewBox="0 0 9600 8442" version="1.1" xmlns="http://www.w3.org/2000/svg" xmlns:xlink="http://www.w3.org/1999/xlink" xml:space="preserve" xmlns:serif="http://www.serif.com/" style="fill-rule:evenodd;clip-rule:evenodd;stroke-linejoin:round;stroke-miterlimit:2;">
    <g id="Layer-1" serif:id="Layer 1" transform="matrix(1,0,0,1,-139,-197)">
        <g transform="matrix(0.92145,0,0,0.998739,387.936,-79.2141)">
            <path d="M4477.35,522.623C4572.54,370.579 4748.41,276.925 4938.72,276.925C5129.04,276.925 5304.9,370.579 5400.1,522.623C6453.01,2204.31 9023.11,6309.23 10076.4,7991.47C10171.6,8143.56 10171.6,8330.98 10076.5,8483.1C9981.29,8635.23 9805.37,8728.94 9614.99,8728.94L262.453,8728.94C72.073,8728.94 -103.841,8635.23 -199.013,8483.1C-294.184,8330.98 -294.149,8143.56 -198.922,7991.47C854.333,6309.23 3424.44,2204.31 4477.35,522.623Z" style="fill:rgb(226,10,22);"/>
        </g>
        <g transform="matrix(1.06485,0,0,1.06013,295.188,321.566)">
            <path d="M4238.25,1291.34C4264.85,1245.09 4313.85,1216.62 4366.85,1216.62C4419.86,1216.62 4468.86,1245.09 4495.46,1291.34C5036.44,2231.89 7124.32,5861.93 7667.14,6805.68C7693.83,6852.08 7693.92,6909.33 7667.38,6955.82C7640.84,7002.31 7591.71,7030.96 7538.53,7030.96L1195.18,7030.96C1142,7030.96 1092.87,7002.31 1066.33,6955.82C1039.79,6909.33 1039.88,6852.08 1066.57,6805.68C1609.38,5861.93 3697.27,2231.89 4238.25,1291.34Z" style="fill:white;"/>
        </g>
        <g>
            <path d="M3631.8,5809.23L4105.31,5809.23L3919.24,7429.49L3151.15,7429.49L3631.8,5809.23Z"/>
            <path d="M4763.65,5809.23L5198.4,5809.23L5322.44,7429.49L4624.11,7429.49L4763.65,5809.23Z"/>
            <path d="M5763.72,5809.23L6291.49,5809.23L6779.9,7429.49L6035.05,7429.49L5763.72,5809.23Z"/>
            <path d="M2647.22,5809.23L3237.02,5809.23L2585.82,7429.49L1771.19,7429.49L2647.22,5809.23Z"/>
            <path d="M6686.24,5809.23L7276.05,5809.23L8128.8,7429.49L7352.94,7429.49L6686.24,5809.23Z"/>
        </g>
        <g>
            <g transform="matrix(7.66868,0,0,7.66868,194.305,218.469)">
                <path d="M622.75,407.275C609.694,407.275 597.974,413.119 590.127,422.535L469.217,546.317L484.744,562.345L581.011,488.383C582.948,529.622 591.296,572.53 591.296,572.53L515.53,845.538L543.713,845.538L633.035,639.947L665.124,728L737.918,836.522L760.991,817.222L703.624,703.624L675.976,564.816L675.442,490.353L696.579,505.747L711.305,580.21L732.575,581.512L726.064,489.051L656.776,417.193C641.383,403.101 622.75,407.275 622.75,407.275Z" style="stroke:white;stroke-width:3.91px;"/>
            </g>
            <g transform="matrix(7.66868,0,0,7.66868,194.305,218.469)">
                <path d="M622.75,400.998C646.225,400.998 665.124,381.965 665.124,358.49C665.124,335.116 646.225,316.083 622.75,316.083C599.276,316.083 580.343,335.116 580.343,358.49C580.343,381.965 599.276,400.998 622.75,400.998Z" style="stroke:white;stroke-width:3.91px;"/>
            </g>
        </g>
    </g>
</svg>
