<?xml version="1.0" encoding="UTF-8" standalone="no"?>
<!DOCTYPE svg PUBLIC "-//W3C//DTD SVG 1.1//EN" "http://www.w3.org/Graphics/SVG/1.1/DTD/svg11.dtd">
<svg width="100%" height="100%" viewBox="0 0 804 804" version="1.1" xmlns="http://www.w3.org/2000/svg" xmlns:xlink="http://www.w3.org/1999/xlink" xml:space="preserve" xmlns:serif="http://www.serif.com/" style="fill-rule:evenodd;clip-rule:evenodd;stroke-linejoin:round;stroke-miterlimit:2;">
    <g transform="matrix(1,0,0,1,-20.0705,-6.57055)">
        <g>
            <g transform="matrix(0.738418,0.738418,-0.738418,0.738418,651.537,61.4927)">
                <path d="M351.698,166.116C351.698,139.673 330.261,118.236 303.818,118.236L-144.734,118.236C-171.178,118.236 -192.614,139.673 -192.614,166.116L-192.614,614.668C-192.614,641.111 -171.178,662.548 -144.734,662.548L303.818,662.548C330.261,662.548 351.698,641.111 351.698,614.668L351.698,166.116Z" style="fill:rgb(197,137,16);"/>
            </g>
            <g transform="matrix(0.691451,0.691451,-0.691451,0.691451,636.938,83.5639)">
                <path d="M351.698,154.028C351.698,134.261 335.673,118.236 315.905,118.236L-156.822,118.236C-176.589,118.236 -192.614,134.261 -192.614,154.028L-192.614,626.755C-192.614,646.523 -176.589,662.548 -156.822,662.548L315.905,662.548C335.673,662.548 351.698,646.523 351.698,626.755L351.698,154.028Z"/>
            </g>
            <g transform="matrix(0.652312,0.652312,-0.652312,0.652312,624.771,101.957)">
                <path d="M351.698,139.916C351.698,127.942 341.991,118.236 330.018,118.236L-170.934,118.236C-182.908,118.236 -192.614,127.942 -192.614,139.916L-192.614,640.868C-192.614,652.841 -182.908,662.548 -170.934,662.548L330.018,662.548C341.991,662.548 351.698,652.841 351.698,640.868L351.698,139.916Z" style="fill:rgb(197,137,16);"/>
            </g>
        </g>
        <g transform="matrix(0.943543,0,0,0.943543,38.0199,55.0755)">
            <path d="M384.06,143.05C397.15,129.49 422.51,129.21 433.76,145.25C448.93,164.16 438.72,196.01 414.94,201.83C409.4,202.52 414.47,205.77 416.6,207.39C423.83,213.12 425.48,222.86 431.53,229.48C447.88,241.62 468.79,247.84 489.09,245.38C504.42,240.95 519.47,235.11 535,231.64C547.69,232.23 547.77,249.22 542,257C524.21,265.67 506.16,273.89 488.23,282.29C466.15,284.34 441.43,285.47 423.01,270.91C420.62,289.18 418.75,307.63 417,325.92C428.22,351.63 440.03,377.4 445.63,405.06C447.82,420.67 455.37,434.98 457.45,450.62C519.67,451.34 581.88,449.9 644.07,451.27C644.55,456.71 644.32,462.17 644.32,467.63C582.63,465.91 520.89,466.88 459.17,466.27C460.04,484.42 461.23,503.43 468.95,520.12C479.68,525.59 491.02,529.92 501.92,535.06C507.72,540.16 505.94,549.37 501.04,554.47C484.61,553.15 468.32,550.62 451.95,548.79C446.15,548.68 444.04,542.38 442.25,537.9C434.03,514.6 431.75,489.53 422.3,466.63C395.74,465.04 368.6,466.09 341.82,465.64C337.9,479.05 334.93,492.97 334.39,506.96C336.33,520.83 350.04,527.88 357.6,538.39C360.76,543.16 357.5,548.87 353.08,551.42C347.25,551.52 342.33,547 336.47,547.41C322.03,540.29 305.61,536.45 290.36,530.71C290.03,508.15 307.02,488.51 306.63,465.49C260.94,465.92 215.27,465.72 169.54,467.45C169.49,462.41 169.96,457.4 170.42,452.39C215.61,451.6 260.78,450.13 305.99,450.54C307.39,450.21 310.25,451.39 310.28,449.08C314.48,423.88 320.43,399 325.1,373.9C318.53,356.77 321.58,337.62 327.75,320.8C336.97,293.98 351.91,269.3 358.59,241.59C338.1,240.84 328.29,263.74 319.64,278.93C319.06,293.53 319.28,308.39 320.49,323C320.67,330.13 315.55,341.8 306.94,339.08C292.45,314.26 291.17,283.06 299.98,256.04C307.36,244.41 316.68,234.1 326.41,224.4C341.76,209.67 359.69,192.67 382.44,193.2C370.62,178.94 370.56,156.24 384.06,143.05M347.5,450.28C369.35,450.71 391.22,450.53 413.08,450.59C401.39,425.24 390.41,399.4 378.85,373.94C366.84,398.31 357.75,424.85 347.5,450.28Z" style="fill-rule:nonzero;"/>
            <g transform="matrix(1,0,0,1,-10.8543,0)">
                <path d="M269.54,570.49C368.44,569.51 467.39,568.11 566.24,567.61C566.06,572.52 566.32,577.44 566.38,582.35C467.32,583.49 368.3,584.54 269.24,585.85C269.55,580.73 269.45,575.61 269.54,570.49Z" style="fill-rule:nonzero;"/>
            </g>
        </g>
    </g>
</svg>
