<?xml version="1.0" encoding="UTF-8" standalone="no"?>
<!DOCTYPE svg PUBLIC "-//W3C//DTD SVG 1.1//EN" "http://www.w3.org/Graphics/SVG/1.1/DTD/svg11.dtd">
<svg width="100%" height="100%" viewBox="0 0 888 1180" version="1.1" xmlns="http://www.w3.org/2000/svg" xmlns:xlink="http://www.w3.org/1999/xlink" xml:space="preserve" xmlns:serif="http://www.serif.com/" style="fill-rule:evenodd;clip-rule:evenodd;stroke-linejoin:round;stroke-miterlimit:2;">
    <path d="M23.56,0L865.26,0C876.39,1.95 885.55,10.43 888,21.51L888,1158.39C885.8,1169.17 877.12,1177.59 866.46,1180L22.64,1180C10.49,1177.64 0.26,1166.79 0.89,1154.02C0.86,778.01 0.85,401.99 0.89,25.97C0.32,12.91 11.13,2.09 23.56,0Z" style="fill:rgb(0,0,144);"/>
    <path d="M441.5,243.81C445.81,242.57 449.25,246.05 451.49,249.26C559.1,461.8 665.83,674.76 773.63,887.17C779.26,893.09 775.21,903.64 767.07,903.64C551.02,903.66 334.97,903.64 118.93,903.65C111.73,903.9 111.65,894.46 112.92,889.42C219.94,677.55 326.71,465.49 433.78,253.59C435.64,249.9 437.35,245.46 441.5,243.81Z" style="fill:white;"/>
    <g>
        <path d="M228.25,748.18C246.88,747.75 265.53,748.05 284.16,748.06C265.98,789.96 247.75,831.96 228.6,873.43C203.68,873.44 178.76,873.48 153.83,873.41C177.68,831.22 203.67,790.03 228.25,748.18Z" style="fill:rgb(4,4,4);fill-rule:nonzero;"/>
        <path d="M321.48,748.24C330.64,747.78 339.86,747.88 349.02,748.22C345.94,758.33 344.09,768.79 341.26,778.95C349.22,786.38 360.11,791.46 368.2,799.03C364.05,823.87 359.19,848.63 354.69,873.41C329.45,873.46 304.2,873.48 278.96,873.4C293.01,831.67 307.01,789.87 321.48,748.24Z" style="fill:rgb(4,4,4);fill-rule:nonzero;"/>
        <path d="M414.44,748.23C433.04,747.76 451.7,747.94 470.3,748.17C473.63,780.24 476.11,812.6 477.4,844.8C477.93,843.86 478.16,842.78 478.49,841.78C478.78,852.31 479.82,862.8 480.49,873.3C455.43,873.62 430.35,873.38 405.28,873.42C407.37,831.59 411.76,790.02 414.44,748.23Z" style="fill:rgb(4,4,4);fill-rule:nonzero;"/>
        <path d="M530.35,748.11C540.47,747.96 550.64,747.76 560.75,748.25C574.95,789.9 589.41,831.59 603.04,873.42C577.9,873.42 552.75,873.55 527.62,873.35C522.42,844.5 516.03,815.6 512.33,786.5C520.67,782.86 529.59,780.78 537.78,776.78C536.18,766.99 532.35,757.79 530.35,748.11Z" style="fill:rgb(4,4,4);fill-rule:nonzero;"/>
        <path d="M601.17,748.13C619.95,748.11 638.8,747.58 657.57,748.35C681.81,790.36 707.69,831.47 732.11,873.37C706.86,873.53 681.6,873.42 656.35,873.43C638.09,831.61 618.96,790.15 601.17,748.13Z" style="fill:rgb(4,4,4);fill-rule:nonzero;"/>
    </g>
    <path d="M358.31,513.36C389.51,493.08 421.46,466.43 460,464.74C489.02,477.98 493.27,514.59 502.5,541.48C521.71,554.73 541.39,567.38 560.72,580.5C558.43,585.74 554.61,590.07 551.61,594.9C530.18,587.94 508.66,581.14 487.36,573.71C482.38,568.5 478.54,562.07 473.43,556.89C469.21,571.4 463.98,585.8 461.34,600.65C471.81,621.74 484.86,641.6 495.23,662.75C504.39,698 513.85,733.16 523.7,768.22C512.75,772.03 501.86,775.92 491.03,780.05C479.29,745.85 468.63,711.35 456.86,677.19C448.87,668.98 440.96,660.63 433.05,652.35C415.08,697.35 398.47,743 380.18,787.83C372.13,782.1 364.01,776.5 356.04,770.66C367.39,721.66 380.4,673.04 391.55,623.99C382.97,590.83 391.98,556.59 403,525.11C396.39,525.12 390.18,527.72 383.74,528.91C381.26,552.39 379.5,576.11 376.39,599.42C370.63,601.56 364.32,601.61 358.31,602.77C358.21,572.96 358.21,543.16 358.31,513.36ZM468.34,404.35C494.37,395.8 515.67,431.57 496.55,450.56C480.47,470.8 443.92,455.6 447.11,429.94C447.26,418.01 456.78,406.91 468.34,404.35Z" style="fill:rgb(4,4,4);fill-rule:nonzero;"/>
</svg>
