<?xml version="1.0" encoding="UTF-8" standalone="no"?>
<!-- Created with Inkscape (http://www.inkscape.org/) -->
<svg width="825.75mm" height="825.75mm" viewBox="0 0 825.75 825.75" version="1.1" id="svg5" inkscape:version="1.1.1 (3bf5ae0d25, 2021-09-20)" sodipodi:docname="111.svg" xmlns:inkscape="http://www.inkscape.org/namespaces/inkscape" xmlns:sodipodi="http://sodipodi.sourceforge.net/DTD/sodipodi-0.dtd" xmlns="http://www.w3.org/2000/svg" xmlns:svg="http://www.w3.org/2000/svg">
  <sodipodi:namedview id="namedview7" pagecolor="#ffffff" bordercolor="#111111" borderopacity="1" inkscape:pageshadow="0" inkscape:pageopacity="0" inkscape:pagecheckerboard="1" inkscape:document-units="mm" showgrid="false" width="825.73mm" inkscape:zoom="0.19420595" inkscape:cx="368.16586" inkscape:cy="1145.691" inkscape:window-width="1920" inkscape:window-height="1057" inkscape:window-x="-8" inkscape:window-y="-8" inkscape:window-maximized="1" inkscape:current-layer="layer1"/>
  <defs id="defs2"/>
  <g inkscape:label="Layer 1" inkscape:groupmode="layer" id="layer1" transform="translate(0,528.75002)">
    <rect style="fill:#000000;fill-opacity:1;fill-rule:evenodd;stroke:none;stroke-width:0.12381" id="rect31" width="600" height="600" x="73.88266" y="-89.989311" rx="30" ry="30" transform="rotate(-45)"/>
    <rect style="fill:#fff000;fill-opacity:1;fill-rule:evenodd;stroke:none;stroke-width:0.117619" id="rect1300" width="570" height="570" x="88.88266" y="-74.989311" rx="15" ry="15" transform="rotate(-45)"/>
    <path id="rect1040" style="fill:#000000;fill-opacity:1;fill-rule:evenodd;stroke:none;stroke-width:0.181637" d="m 187.875,-22.875064 v 12.5 h 25.00002 v -12.5 z m 50.00005,0 v 12.5 h 25.00002 v -12.5 z m 50.00005,0 v 12.5 h 25.00002 v -12.5 z m 50.00005,0 v 12.5 h 25.00002 v -12.5 z m 50.00004,0 v 12.5 h 25.00003 v -12.5 z m 50.00005,0 v 12.5 h 24.9995 v -12.5 z m 49.99953,0 v 12.5 h 25.00003 v -12.5 z m 50.00005,0 v 12.5 h 25.00003 v -12.5 z m 50.00004,0 v 12.5 h 25.00003 v -12.5 z"/>
    <path id="rect1518" style="fill:#000000;fill-opacity:1;fill-rule:evenodd;stroke:none;stroke-width:0.181637" d="m 212.87502,-167.875 v 12.50001 h 25.00003 V -167.875 Z m 50.00005,0 v 12.50001 H 287.8751 V -167.875 Z m 50.00005,0 v 12.50001 h 25.00003 V -167.875 Z m 50.00005,0 v 12.50001 h 25.00002 V -167.875 Z m 50.00005,0 v 12.50001 h 25.00002 V -167.875 Z m 49.99952,0 v 12.50001 h 25.00003 V -167.875 Z m 50.00006,0 v 12.50001 h 25.00002 V -167.875 Z m 50.00005,0 v 12.50001 h 25.00001 V -167.875 Z"/>
    <path id="path18" style="fill:#000000;fill-opacity:1;fill-rule:evenodd;stroke:none;stroke-width:0.220264" d="m 435.67204,-385.3745 c -15.13875,-0.0624 -27.43136,12.23327 -27.53267,27.31252 0.10134,6.38326 2.20696,12.19601 5.72678,16.74005 0.62112,0.80176 3.88523,6.1874 -3.30419,7.04866 -7.16959,0.7709 -27.88972,1.83053 -40.08794,14.5376 -24.88544,25.859 -41.68259,56.49515 -45.81474,99.99948 -1.54185,0.61001 -6.43771,2.40346 -6.38771,7.7096 -0.0499,5.46256 10.06654,17.04828 24.44912,16.96019 3.45594,0.088 8.29734,-2.15639 8.37003,-7.48894 -0.0727,-2.86567 -0.0727,-4.82404 -0.88109,-7.04866 -0.82378,-2.34364 -1.31255,-8.54398 -1.32135,-18.72236 0.009,-10.38103 10.12314,-33.5485 24.44912,-43.39214 0,0 11.66746,93.2027 -85.4624,180.616716 0,0 15.17341,27.63197 15.63882,28.63439 3.23261,6.39444 9.8274,8.61107 13.21572,9.25111 1.57379,0.35217 12.25989,1.49464 12.99558,1.54203 0.73348,0.11552 4.32391,0.7683 4.40541,-1.76215 -0.0815,-2.69137 -1.07702,-3.28232 -1.98231,-3.74449 -2.61894,-1.55304 -6.04726,-2.93435 -7.7096,-9.47176 0,0 -4.25864,-16.15202 -4.40489,-18.28155 0,0 46.48419,-29.605946 80.39605,-100.660956 0,0 48.07695,55.31057 67.84127,150.220146 l 52.42311,-22.90761 c 0,0 1.9713,-1.14936 1.9823,-3.08352 -0.0112,-1.73634 -2.09261,-2.5931 -3.52434,-2.8634 -1.2599,-0.21915 -30.3853,-3.15576 -30.83683,-3.08353 -0.28197,-0.0724 -1.75116,-0.31724 -1.76217,-1.76216 0.0112,-20.71075 -8.26424,-54.982526 -14.97789,-74.229006 -1.53084,-4.11235 -3,-8.27315 -4.62554,-11.01326 -22.94712,-35.87661 -30.94692,-62.29302 -19.82358,-105.50664 0,0 20.83897,48.28424 76.43143,53.52432 0,0 1.79944,2.46885 4.8457,2.42259 7.11011,0.0437 9.43652,-18.98193 9.47176,-21.14494 -0.035,-5.4251 -4.80876,-5.6678 -4.84621,-5.7273 -0.94273,0.0624 -2.90088,-0.12546 -4.62555,2.64325 0,0 -42.06374,-12.09899 -53.96461,-53.9646 -4.95155,-17.11675 -15.27314,-32.50197 -26.87225,-42.07026 -1.91629,-1.69379 -6.39646,-6.08163 0,-9.03097 9.32599,-4.39201 15.59037,-13.92516 15.63883,-24.88993 -0.0487,-15.07925 -12.34154,-27.37421 -27.53317,-27.31252 z"/>
  </g>
</svg>