<?xml version="1.0" encoding="UTF-8" standalone="no"?>
<!DOCTYPE svg PUBLIC "-//W3C//DTD SVG 1.1//EN" "http://www.w3.org/Graphics/SVG/1.1/DTD/svg11.dtd">
<!-- GeoHints -->
<svg width="100%" height="100%" viewBox="0 0 1371 1371" version="1.1" xmlns="http://www.w3.org/2000/svg" xmlns:xlink="http://www.w3.org/1999/xlink" xml:space="preserve" xmlns:serif="http://www.serif.com/" style="fill-rule:evenodd;clip-rule:evenodd;stroke-linejoin:round;stroke-miterlimit:2;">
    <path d="M20.19,734.368C-6.73,707.448 -6.73,663.176 20.19,636.256L636.257,20.19C663.176,-6.73 707.448,-6.73 734.368,20.19L1350.43,636.256C1377.35,663.176 1377.35,707.448 1350.43,734.368L734.368,1350.43C707.448,1377.35 663.176,1377.35 636.257,1350.43L20.19,734.368Z"/>
    <path d="M689.574,25.112L685.312,24.909C673.932,24.909 662.551,29.25 653.868,37.934L37.934,653.868C20.567,671.235 20.567,699.39 37.934,716.756L653.868,1332.69C655.782,1334.6 657.827,1336.31 659.996,1337.77C667.568,1343.08 676.44,1345.71 685.312,1345.71L689.574,1345.51C689.574,1345.51 693.56,1344.94 693.56,1344.94L694.843,1344.65L697.496,1344L698.985,1343.53L701.361,1342.7L702.885,1342.07L705.139,1341.02L706.617,1340.26L708.824,1338.95L710.185,1338.09L712.469,1336.41L713.571,1335.57L716.756,1332.69L1332.69,716.756C1350.06,699.39 1350.06,671.235 1332.69,653.868L716.756,37.934L713.571,35.055L712.469,34.213L710.184,32.533L708.824,31.67L706.617,30.366L705.139,29.601L702.885,28.555L701.361,27.926L698.985,27.095L697.496,26.624L694.843,25.976L693.56,25.687L689.574,25.112Z" style="fill:rgb(255,235,0);"/>
    <g transform="matrix(-1,0,0.0654158,1.32491,1343.99,-141.447)">
        <g transform="matrix(-1,0,0.0493736,0.754766,1350.97,106.759)">
            <path d="M222.226,901.049L153.255,550.605L1209.19,552.228L1247.58,801.866L1000.97,1048.47L368.658,1047.48L222.226,901.049Z"/>
        </g>
        <g transform="matrix(1.24926,0,0,1,63.6649,0)">
            <path d="M370.507,522.811L511.684,522.811L423.448,897.812L282.271,897.812L370.507,522.811Z" style="fill:white;"/>
        </g>
        <g transform="matrix(-1,0,0.0493736,0.754766,1350.97,106.759)">
            <path d="M1230.06,551.233L1053.15,551.233L1135.48,913.965L1332.69,716.756C1350.06,699.39 1350.06,671.235 1332.69,653.868L1230.06,551.233Z" style="fill:white;"/>
        </g>
        <g transform="matrix(1.24926,0,0,1,-277.303,2.84217e-14)">
            <path d="M935.214,522.811L1076.39,522.811L988.155,897.812L846.978,897.812L935.214,522.811Z" style="fill:white;"/>
        </g>
        <g transform="matrix(-1,0,0.0493736,0.754766,1350.97,106.759)">
            <path d="M242.697,921.52L37.934,716.756C20.567,699.39 20.567,671.235 37.934,653.868L143.428,548.374L152.232,548.362L152.232,548.362L242.697,921.52Z" style="fill:white;"/>
        </g>
    </g>
    <g id="path18" transform="matrix(0.575222,0,0,0.575222,-7.55544,728.987)">
        <path d="M1214.27,-975.145C1162.77,-975.357 1120.96,-933.532 1120.61,-882.239C1120.96,-860.526 1128.12,-840.754 1140.09,-825.297C1142.21,-822.57 1153.31,-804.25 1128.85,-801.32C1104.46,-798.698 1033.98,-795.094 992.491,-751.869C907.841,-663.908 850.705,-559.697 836.649,-411.714C831.404,-409.639 814.751,-403.538 814.921,-385.489C814.751,-366.908 849.163,-327.498 898.086,-327.798C909.842,-327.498 926.31,-335.133 926.557,-353.272C926.31,-363.02 926.31,-369.681 923.56,-377.248C920.758,-385.22 919.096,-406.311 919.066,-440.934C919.095,-476.246 953.5,-555.052 1002.23,-588.535C1002.23,-588.535 1041.92,-271.5 711.524,25.846C711.524,25.846 763.138,119.838 764.721,123.248C775.717,144.999 798.15,152.539 809.675,154.716C815.029,155.914 851.378,159.8 853.881,159.961C856.376,160.354 868.589,162.575 868.866,153.967C868.589,144.812 865.202,142.802 862.123,141.23C853.215,135.947 841.553,131.249 835.898,109.011C835.898,109.011 821.412,54.069 820.915,46.825C820.915,46.825 979.034,-53.882 1094.39,-295.58C1094.39,-295.58 1257.92,-107.437 1325.15,215.405L1503.48,137.483C1503.48,137.483 1510.18,133.573 1510.22,126.994C1510.18,121.087 1503.1,118.173 1498.23,117.254C1493.94,116.508 1394.87,106.519 1393.34,106.765C1392.38,106.519 1387.38,105.686 1387.34,100.771C1387.38,30.322 1359.23,-86.256 1336.39,-151.725C1331.19,-165.713 1326.19,-179.867 1320.66,-189.187C1242.6,-311.224 1215.39,-401.082 1253.23,-548.076C1253.23,-548.076 1324.11,-383.833 1513.22,-366.009C1513.22,-366.009 1519.34,-357.611 1529.7,-357.768C1553.88,-357.62 1561.8,-422.337 1561.92,-429.694C1561.8,-448.148 1545.56,-448.974 1545.43,-449.176C1542.23,-448.964 1535.57,-449.603 1529.7,-440.185C1529.7,-440.185 1386.62,-481.341 1346.13,-623.75C1329.29,-681.974 1294.18,-734.308 1254.73,-766.855C1248.21,-772.616 1232.97,-787.542 1254.73,-797.574C1286.45,-812.514 1307.76,-844.942 1307.92,-882.239C1307.76,-933.532 1265.94,-975.355 1214.27,-975.145Z"/>
    </g>
</svg>
