<?xml version="1.0" encoding="UTF-8" standalone="no"?>
<!DOCTYPE svg PUBLIC "-//W3C//DTD SVG 1.1//EN" "http://www.w3.org/Graphics/SVG/1.1/DTD/svg11.dtd">
<svg width="100%" height="100%" viewBox="0 0 548 523" version="1.1" xmlns="http://www.w3.org/2000/svg" xmlns:xlink="http://www.w3.org/1999/xlink" xml:space="preserve" xmlns:serif="http://www.serif.com/" style="fill-rule:evenodd;clip-rule:evenodd;stroke-linejoin:round;stroke-miterlimit:2;">
    <path d="M543.47,6.86C544.64,40.26 542.58,391.42 543.32,519.67C504.49,520.17 33.72,518.89 6.45,518.86C4.67,468.62 3.25,51.5 4.61,7.69L543.47,6.86Z" style="fill:white;"/>
    <path d="M21.99,14.45C521.001,12.081 21.829,16.601 521.98,14.6C526.09,13.4 533.301,17.001 535.616,20C535.806,33.74 535.4,360.06 536.71,503.03C536.76,506.52 536.56,512.3 531.93,512.49C443.58,513.12 89.67,512.16 23.01,512.54C17.67,513.14 11.8,508.77 12.77,503.01C14.5,361.78 7.76,31.65 9.15,20.05C11.11,14.95 17.15,13.93 21.99,14.45Z" style="fill:rgb(7,15,219);"/>
    <path d="M269.45,81.43C273.861,76.023 271.135,76.506 275.98,81.94C341.58,184.88 496.03,426.26 504.2,436.93C505.79,439.97 502.59,441.06 500.04,440.59C367.04,440.94 66.32,442.02 49.06,440.62C44.62,440.83 46.73,435.46 48.39,433.41C98.48,352.85 250.55,107.3 269.45,81.43Z" style="fill:white;"/>
    <g>
        <path d="M254.51,145.52C263.36,133 286.58,144.31 283.82,158.98C289.6,162.49 289.68,166.47 282,165.42C280.09,169.18 277.95,172.83 275.37,176.17C276.68,178.32 278.27,180.51 280.91,181.06C293.42,184.88 306.48,190.89 313.6,202.42C319.34,210.84 327.02,217.81 332.44,226.4C335.29,238.48 333.28,251.25 335.49,263.49C334.36,263.95 333.22,264.4 332.09,264.86C332.18,270.76 337.98,275.66 335.71,281.65C335.02,286.01 330.67,287.89 327.46,290.16C325.83,285.41 328.07,280.31 325.99,275.6C323.52,276.86 322.05,279.28 320.29,281.31C319.38,275.45 322.97,270.68 324.04,265.22C322.59,264.55 321.14,263.88 319.7,263.21C318.75,254.46 320.01,245.61 318.47,236.9C318.03,227.65 309.92,220.97 301.96,217.7C298.69,240.4 301.2,263.38 306.76,285.51C305.93,286.03 305.11,286.56 304.3,287.09C304.65,306.54 309.14,326.06 317.23,343.73C324.87,358.22 327.1,374.86 335.27,389.09C335.32,390.18 335.38,391.28 335.45,392.39C336.69,394.66 337.76,397.02 338.77,399.41C335.43,402.3 331.48,405.31 326.78,404.54C320.26,409.86 311.09,410.42 303.09,409.08C303.23,407.99 303.37,406.91 303.51,405.83C307.61,403.52 312.66,402.11 315.15,397.78C313.35,397.7 311.57,397.66 309.77,397.61C301.14,366.37 284.04,338.37 275.12,307.28C273.17,307.73 272.72,310.05 271.7,311.49C272.72,311.47 274.76,311.44 275.78,311.42C276.34,314.73 276.46,318.08 276.47,321.44C272.86,321.57 269.26,321.52 265.66,321.32C252.85,346.68 239.64,371.8 225.23,396.33L222.53,396.33C221.82,398.12 221.09,399.91 220.35,401.7C216.24,401.09 211.83,400.92 208.33,398.44C200.56,400.29 193.19,396.56 186.33,393.42C186.36,392.43 186.4,391.44 186.43,390.46C191.13,386.6 206.04,392.23 202.55,383.66C214.6,363.82 229.87,344.93 234.75,321.7C237.89,309.63 244.65,298.77 247.05,286.49C246.38,286.17 245.05,285.52 244.38,285.19C252.27,268.69 255.65,249.57 249.91,231.84C240.5,243.44 231.33,255.87 217.24,262.22C213.43,264.86 208.85,267.09 204.93,263.34C201.5,265.89 199.09,269.68 195.13,271.56C192,269.54 188.99,267.34 185.97,265.16C186.66,263.16 187.66,261.29 188.78,259.5C187.31,259.56 185.83,259.59 184.36,259.61C187.53,254.2 193.73,255.52 198.9,254.67C208.94,247.38 219.78,240.36 226.86,229.93C235.73,213.87 241.98,194.82 259.68,186.18C259.58,185.05 259.48,183.93 259.39,182.81C256.75,182.02 254.12,181.24 251.51,180.38C251.11,176.01 250.99,171.1 246.92,168.41C247.92,164.04 252.83,161.14 251.42,156.18C248.24,154.62 245.14,152.9 242.11,151.06C244.13,145.66 250.49,147.65 254.51,145.52Z" style="fill:rgb(5,5,13);fill-rule:nonzero;"/>
        <g>
            <path d="M315.44,312.21C324.06,307.58 334.84,312.76 344.35,311.49C344.4,314.56 344.49,317.62 344.56,320.69C334.94,320.98 325.22,321.33 315.71,320.36C315.67,317.64 315.63,314.92 315.44,312.21Z" style="fill:rgb(5,5,13);fill-rule:nonzero;"/>
            <path d="M372.42,311.29C382.04,310.04 391.79,311.08 401.46,310.65C402.07,313.88 402.4,317.16 402.43,320.45C392.76,320.99 383.05,320.72 373.36,320.7C372.85,317.58 372.56,314.44 372.42,311.29Z" style="fill:rgb(5,5,13);fill-rule:nonzero;"/>
            <path d="M199.47,312.61C208.81,312.45 218.15,312.29 227.49,312.46C227.8,315.51 228.19,318.55 228.51,321.61C219.13,321.98 209.75,321.57 200.37,321.71C199.91,318.69 199.6,315.66 199.47,312.61Z" style="fill:rgb(5,5,13);fill-rule:nonzero;"/>
            <path d="M143.4,313.37C152.74,313.42 162.09,313.26 171.43,313.38C171.49,316.18 171.54,318.99 171.59,321.8C162.62,322.54 153.59,322.44 144.61,322.24C142.51,320.15 143.81,316.19 143.4,313.37Z" style="fill:rgb(5,5,13);fill-rule:nonzero;"/>
            <path d="M207.5,423.55C217.05,423.62 226.62,423.07 236.14,423.78C235.99,427.14 237.5,431.47 235.22,434.22C226.05,434.53 216.87,434.47 207.7,434.4C207.52,430.78 207.44,427.17 207.5,423.55Z" style="fill:rgb(5,5,13);fill-rule:nonzero;"/>
            <path d="M264.34,423.33C273.76,423.09 283.18,423.37 292.61,423.35C292.66,426.81 292.66,430.26 292.64,433.72C283.22,433.52 273.78,434.12 264.41,433.72C264.39,430.26 264.37,426.79 264.34,423.33Z" style="fill:rgb(5,5,13);fill-rule:nonzero;"/>
            <path d="M320.65,423.44C329.88,422.28 339.25,422.66 348.52,423.03C348.52,426.51 348.53,430 348.51,433.5C339.41,433.8 330.3,433.48 321.2,433.57C320.83,430.2 320.7,426.82 320.65,423.44Z" style="fill:rgb(5,5,13);fill-rule:nonzero;"/>
            <path d="M377.3,433.54C376.57,429.93 376.52,426.22 377.38,422.64C386.47,422.66 395.56,422.78 404.65,422.8C404.36,426.2 406.26,430.31 404.37,433.27C395.35,433.61 386.32,433.39 377.3,433.54Z" style="fill:rgb(5,5,13);fill-rule:nonzero;"/>
            <path d="M432.47,432.37C432.39,429.04 432.71,425.72 433.37,422.47C440.03,424.07 446.84,421.92 453.5,423.7C453.63,426.6 453.68,429.5 453.68,432.41C446.61,432.26 439.53,433.06 432.47,432.37Z" style="fill:rgb(5,5,13);fill-rule:nonzero;"/>
            <path d="M95.3,424.42C104.66,424.36 114.02,424.28 123.37,424.52C123.47,428.17 123.56,431.81 123.6,435.46C114.21,435.54 104.83,435.68 95.44,435.66C95.33,431.91 95.25,428.17 95.3,424.42Z" style="fill:rgb(5,5,13);fill-rule:nonzero;"/>
            <path d="M151.56,424.37C162.12,423.31 172.94,423.22 183.52,424.23C183.49,427.63 183.5,431.03 183.5,434.44C173.25,435.84 162.76,434.13 152.41,435.11C152.11,431.52 151.78,427.95 151.56,424.37Z" style="fill:rgb(5,5,13);fill-rule:nonzero;"/>
        </g>
    </g>
</svg>
