<?xml version="1.0" encoding="UTF-8" standalone="no"?>
<!DOCTYPE svg PUBLIC "-//W3C//DTD SVG 1.1//EN" "http://www.w3.org/Graphics/SVG/1.1/DTD/svg11.dtd">
<svg width="100%" height="100%" viewBox="0 0 215 215" version="1.1" xmlns="http://www.w3.org/2000/svg" xmlns:xlink="http://www.w3.org/1999/xlink" xml:space="preserve" xmlns:serif="http://www.serif.com/" style="fill-rule:evenodd;clip-rule:evenodd;stroke-linejoin:round;stroke-miterlimit:2;">
    <g id="Layer-1" serif:id="Layer 1" transform="matrix(1,0,0,1,-350.453,166.899)">
        <g id="path3323" transform="matrix(0.911343,0,0,0.911343,40.575,-5.29185)">
            <rect x="345.161" y="-172.189" width="225" height="225.001" style="fill:rgb(7,15,219);fill-rule:nonzero;"/>
        </g>
        <path id="path3325" d="M564.87,-166.899L564.87,47.518L350.453,47.518L350.453,-166.899L564.87,-166.899ZM558.661,-160.69L356.658,-160.69L356.658,41.313L558.661,41.313L558.661,-160.69Z" style="fill:white;fill-rule:nonzero;"/>
        <path id="rect11337" d="M457.661,-151.784L360.127,19.208L555.195,19.208L457.661,-151.784Z" style="fill:white;fill-rule:nonzero;"/>
        <g id="g1086" transform="matrix(0.850255,0,0,0.850255,-584.703,-224.29)">
            <path id="rect1078" d="M1158.71,228.377L1134.05,283.249L1152.62,283.249L1175.58,228.377L1158.71,228.377ZM1186.78,228.377L1177.08,255.987C1179.17,256.353 1181.54,257.064 1182.52,257.36L1194.42,228.377L1186.78,228.377ZM1210.91,228.377L1205.04,242.274L1202.08,283.249L1220.65,283.249L1222.92,228.377L1210.91,228.377ZM1231.08,228.377L1233.35,283.249L1251.92,283.249L1249.16,245.036L1234.54,228.377L1231.08,228.377ZM1256.98,228.377L1278.28,253.629L1269.41,228.377L1256.98,228.377ZM1278.61,228.377L1301.58,283.249L1320.15,283.249L1295.49,228.377L1278.61,228.377ZM1280.1,258.833C1280.02,258.996 1279.93,259.167 1279.85,259.309C1279.6,259.745 1279.36,260.068 1279.35,260.079L1279.34,260.09L1269.58,273.571L1273.23,283.249L1288.68,283.249L1280.1,258.833ZM1173.77,265.394L1167.5,283.249L1184.37,283.249L1188.5,271.495L1173.77,265.394Z" style="fill-rule:nonzero;"/>
        </g>
        <g id="g1099" transform="matrix(2.26598,0,0,2.26598,-2132.98,-311.04)">
            <path id="path1103" d="M1153.5,111.714L1153.5,103.351L1152.2,101.146C1152.12,100.905 1151.88,100.735 1151.65,100.787C1151.46,100.83 1151.29,101.021 1151.27,101.267L1151,115.247L1150.91,119.957L1162.62,133.846C1162.62,133.846 1163.22,134.505 1163.24,134.916C1163.25,135.163 1162.93,135.589 1162.93,135.589L1158.19,142.144C1158.19,142.144 1157.95,142.567 1157.74,142.651C1157.55,142.728 1157.3,142.717 1157.13,142.602C1156.9,142.451 1156.7,142.141 1156.76,141.877C1157.11,140.378 1157.98,137.1 1157.98,137.1L1158.13,136.496L1145.65,122.282L1145.53,116.666C1145.46,116.327 1145.42,115.984 1145.15,115.832C1144.94,115.709 1144.41,115.911 1144.41,115.911L1138.44,120.863L1131.1,138.224C1131.1,138.224 1130.73,139.557 1130.18,139.831C1129.96,139.936 1129.47,139.737 1129.47,139.737L1122.31,136.775C1122.31,136.775 1121.55,136.257 1121.52,135.852C1121.48,135.473 1121.79,135.098 1122.09,134.861C1122.36,134.641 1122.89,134.56 1123.1,134.552C1123.61,134.531 1124.15,134.692 1124.65,134.763C1125.54,134.889 1127.27,135.417 1127.27,135.417L1133.61,119.987L1137.05,113.465L1141.09,108.333L1141.23,101.358C1141.23,101.358 1141.08,101.091 1140.95,101.071C1140.81,101.05 1140.57,101.273 1140.57,101.273C1140.57,101.273 1138.82,102.824 1137.8,103.381C1134.5,105.184 1127.28,107.385 1127.28,107.385C1127.28,107.385 1127.06,107.832 1126.63,108.099C1126.32,108.288 1126.01,108.555 1125.66,108.479C1125.17,108.371 1124.74,107.938 1124.52,107.482C1124.17,106.776 1123.98,105.796 1124.39,105.127C1124.72,104.594 1124.99,104.654 1125.6,104.558C1125.97,104.501 1126.72,104.679 1126.72,104.679L1135.6,101.237C1135.6,101.237 1136.68,97.901 1137.49,96.349C1138.25,94.878 1139.05,93.368 1140.23,92.209C1141.01,91.446 1143,90.458 1143,90.458L1143,89.733L1141.65,89.732C1141.65,89.732 1141.34,89.706 1141.24,89.607C1141.13,89.505 1141.09,89.19 1141.09,89.19L1141.36,88.384L1141.08,87.469L1140.49,87.137C1140.49,87.137 1140.29,86.943 1140.29,86.819C1140.31,86.185 1141.37,85.253 1141.37,85.253L1141.41,84.926C1141.41,84.926 1141.42,83.981 1141.63,83.577C1141.86,83.141 1142.24,82.745 1142.69,82.547C1143.39,82.241 1144.23,82.324 1144.99,82.427C1145.74,82.529 1146.54,82.707 1147.15,83.151C1147.79,83.608 1148.37,84.268 1148.57,85.023C1148.79,85.816 1148.61,86.716 1148.3,87.476C1148.01,88.187 1146.86,89.281 1146.86,89.281L1146.86,90.156C1146.86,90.156 1149.37,90.876 1150.37,91.672C1151.7,92.735 1153.38,95.802 1153.38,95.802L1156.52,102.324L1156.55,110.839L1156.34,112.59C1156.34,112.59 1156.45,113.088 1156.37,113.314C1156.25,113.627 1155.98,113.904 1155.67,114.039C1155.33,114.194 1154.91,114.13 1154.53,114.069C1154.25,114.024 1153.97,113.936 1153.73,113.782C1153.49,113.626 1153.2,113.442 1153.14,113.163C1153.09,112.955 1153.35,112.56 1153.35,112.56L1153.5,111.714Z" style="fill-rule:nonzero;"/>
        </g>
    </g>
</svg>
