<?xml version="1.0" encoding="UTF-8" standalone="no"?>
<!DOCTYPE svg PUBLIC "-//W3C//DTD SVG 1.1//EN" "http://www.w3.org/Graphics/SVG/1.1/DTD/svg11.dtd">
<svg width="100%" height="100%" viewBox="0 0 7432 7432" version="1.1" xmlns="http://www.w3.org/2000/svg" xmlns:xlink="http://www.w3.org/1999/xlink" xml:space="preserve" xmlns:serif="http://www.serif.com/" style="fill-rule:evenodd;clip-rule:evenodd;stroke-linejoin:round;stroke-miterlimit:2;">
    <g id="Layer-1" serif:id="Layer 1" transform="matrix(1,0,0,1,137.002,137.005)">
        <g transform="matrix(1.04172,0,0,1.04172,-149.309,-149.309)">
            <path d="M7145.67,625.984C7145.67,287.013 6870.47,11.811 6531.5,11.811L625.987,11.811C287.016,11.811 11.814,287.013 11.814,625.984L11.814,6531.49C11.814,6870.47 287.016,7145.67 625.987,7145.67L6531.5,7145.67C6870.47,7145.67 7145.67,6870.47 7145.67,6531.49L7145.67,625.984Z" style="fill:rgb(90,134,181);"/>
        </g>
        <path d="M7122.05,625.984C7122.05,300.05 6857.43,35.433 6531.5,35.433L625.989,35.433C300.055,35.433 35.438,300.05 35.438,625.984L35.438,6531.49C35.438,6857.43 300.055,7122.05 625.989,7122.05L6531.5,7122.05C6857.43,7122.05 7122.05,6857.43 7122.05,6531.49L7122.05,625.984Z" style="fill:white;"/>
        <path id="rect826" d="M6944.88,625.984C6944.88,397.831 6759.65,212.599 6531.49,212.599L625.984,212.599C397.83,212.599 212.598,397.831 212.598,625.984L212.598,6531.49C212.598,6759.65 397.83,6944.88 625.984,6944.88L6531.49,6944.88C6759.65,6944.88 6944.88,6759.65 6944.88,6531.49L6944.88,625.984ZM3578.74,649.606L6649.61,5964.57L507.88,5964.57L3578.75,649.606L3578.74,649.606Z" style="fill:rgb(90,134,181);"/>
        <g transform="matrix(0.93121,0,0,0.93121,241.366,275.627)">
            <g>
                <g transform="matrix(0.957135,0,0,0.957135,604.701,252.784)">
                    <rect x="940.161" y="5534" width="416.619" height="83.324"/>
                    <rect x="5106.34" y="5534" width="416.619" height="83.324"/>
                    <rect x="2328.89" y="5534" width="416.618" height="83.324"/>
                    <rect x="3023.26" y="5534" width="416.619" height="83.324"/>
                    <rect x="1634.53" y="5534" width="416.618" height="83.324"/>
                    <rect x="3717.62" y="5534" width="416.618" height="83.324"/>
                    <rect x="4411.98" y="5534" width="416.618" height="83.324"/>
                </g>
                <g transform="matrix(1.09282,0,0,1.09282,-766.984,-437.591)">
                    <g transform="matrix(1,0,0,1,220,0)">
                        <rect x="4411.98" y="4714.65" width="416.619" height="83.324"/>
                    </g>
                    <g transform="matrix(1,0,0,1,220,0)">
                        <rect x="3023.25" y="4714.65" width="416.619" height="83.324"/>
                    </g>
                    <g transform="matrix(1,0,0,1,220,0)">
                        <rect x="2328.88" y="4714.65" width="416.618" height="83.324"/>
                    </g>
                    <g transform="matrix(1,0,0,1,220,0)">
                        <rect x="3717.61" y="4714.65" width="416.618" height="83.324"/>
                    </g>
                    <g transform="matrix(1,0,0,1,220,0)">
                        <rect x="5106.34" y="4714.65" width="416.618" height="83.324"/>
                    </g>
                </g>
            </g>
            <g transform="matrix(20.7516,0,0,20.7516,-611.509,-593.112)">
                <path d="M203.453,123.951C205.075,123.817 207.371,124.365 210.573,126.248C211.822,126.366 217.216,127.133 218.468,131.623C218.713,132.858 218.377,136.091 217.705,139.215L221.454,141.217C222.412,141.795 222.09,143.819 220.28,143.295L217.085,141.676C216.785,142.718 216.455,143.69 216.094,144.461L215.737,150.256C215.737,150.256 229.517,149.75 240.349,164.592L246.363,174.031C251.542,181.605 251.416,187.873 251.416,187.873L251.245,201.846C251.245,201.846 249.849,204.158 250.492,206.679C251.151,209.103 253.061,209.853 252.261,212.813L251.693,214.465C251.319,215.349 250.706,215.618 250.328,215.701C249.8,217.063 247.929,217.526 247.481,217.728C246.699,218.056 245.208,220.009 244.411,219.387C243.013,218.008 244.493,215.72 244.507,215.144C244.507,215.144 244.518,213.712 244.317,213.588C243.794,213.333 241.732,217.483 240.426,215.236C240.426,215.236 240.414,214.805 240.807,214.538L241.441,213.262C241.535,212.662 241.248,212.254 241.523,210.219C241.726,208.855 242.684,207.265 242.924,205.669C243.154,205.264 243.294,203.778 243.069,203.587C243.069,203.587 241.972,203.178 241.79,201.794L241.012,186.223C241.012,186.223 234.424,179.817 231.554,172.821C231.554,172.821 226.219,183.107 228.946,197.118L233.269,210.642C235.358,216.133 230.619,217.63 230.619,217.63L252.861,280.505L251.366,281.837L253.589,285.63L249.728,290.376C249.728,290.376 243.782,287.202 240.595,294.055L222.039,294.34C222.391,288.501 237.836,291.032 238.789,284.297L237.262,284.482L213.536,226.386C210.344,228.431 181.575,275.374 176.618,286.375L174.158,285.337L172.84,290.178L168.478,289.693C165.59,284.254 159.353,287.715 159.353,287.715L147.946,279.739C150.18,275.436 161.493,282.043 166.188,278.894L164.275,277.348C165.135,276.695 182.442,245.179 196.423,217.913L194.87,216.354C196.394,211.248 201.666,200.011 203.393,196.378C203.393,196.378 199.584,190.119 198.557,181.606C187.511,196.266 171.87,200.704 171.87,200.704C171.87,200.704 170.553,201.479 169.764,199.998C168.584,197.902 160.616,207.274 157.704,205.248C157.704,205.248 157.275,204.064 156.35,204.378L155.437,203.946L153.769,202.942L153.309,201.584C153.309,201.584 151.492,199.992 151.679,198.361L153.368,196.313C154.053,194.916 150.601,193.843 151.53,192.567C152.589,191.168 153.748,194.615 161.171,193.064C163.544,192.436 165.029,193.822 165.029,193.822L166.271,193.81C166.894,193.494 166.083,192.965 166.09,192.438C166.095,192.237 166.104,191.761 166.688,191.482C171.668,189.658 177.772,184.878 178.368,184.547C181.443,182.456 186.057,180.726 188.853,172.435C191.841,165.112 193.605,157.514 202.993,154.935L202.905,153.229C202.905,153.229 202.912,152.834 202.374,152.749C201.743,152.662 199.121,152.564 198.636,151.325L197.873,148.439C197.798,148.106 198.004,148.073 197.969,147.829C197.969,147.829 197.473,147.875 197.381,147.355C197.327,147.099 197.523,146.756 197.523,146.756C197.49,146.402 197.154,146.725 197.092,145.92L197.041,145.033C196.981,144.576 196.645,144.615 196.645,144.615L195.916,144.666C195.916,144.666 195.382,144.744 195.359,143.953C195.385,143.198 197.028,139.871 196.958,139.349C196.74,138.107 196.377,137.128 196.614,134.362L193.062,132.699C191.479,131.983 192.261,129.245 194.045,129.895L197.984,131.739L199.593,127.21C199.593,127.21 200.17,124.223 203.453,123.951Z"/>
            </g>
        </g>
    </g>
</svg>
