<?xml version="1.0" encoding="UTF-8" standalone="no"?>
<!-- Created with Inkscape (http://www.inkscape.org/) -->
<svg xmlns:dc="http://purl.org/dc/elements/1.1/" xmlns:cc="http://creativecommons.org/ns#" xmlns:rdf="http://www.w3.org/1999/02/22-rdf-syntax-ns#" xmlns:svg="http://www.w3.org/2000/svg" xmlns="http://www.w3.org/2000/svg" xmlns:sodipodi="http://sodipodi.sourceforge.net/DTD/sodipodi-0.dtd" xmlns:inkscape="http://www.inkscape.org/namespaces/inkscape" version="1.0" width="859.06531" height="752.44757" id="svg2" sodipodi:version="0.32" inkscape:version="0.47 r22583" sodipodi:docname="ZZ.svg" inkscape:output_extension="org.inkscape.output.svg.inkscape">
  <metadata id="metadata12">
    <rdf:RDF>
      <cc:Work rdf:about="">
        <dc:format>image/svg+xml</dc:format>
        <dc:type rdf:resource="http://purl.org/dc/dcmitype/StillImage"/>
        <dc:title/>
      </cc:Work>
    </rdf:RDF>
  </metadata>
  <sodipodi:namedview inkscape:window-height="1003" inkscape:window-width="1280" inkscape:pageshadow="2" inkscape:pageopacity="0.0" guidetolerance="10.0" gridtolerance="10.0" objecttolerance="10.0" borderopacity="1.0" bordercolor="#666666" pagecolor="#ffffff" id="base" inkscape:zoom="0.62225397" inkscape:cx="405.44956" inkscape:cy="270.47526" inkscape:window-x="-4" inkscape:window-y="-4" inkscape:current-layer="svg2" width="200px" height="200px" showgrid="false" inkscape:showpageshadow="false" inkscape:window-maximized="0"/>
  <defs id="defs4">
    <inkscape:perspective sodipodi:type="inkscape:persp3d" inkscape:vp_x="0 : 450 : 1" inkscape:vp_y="0 : 1000 : 0" inkscape:vp_z="900 : 450 : 1" inkscape:persp3d-origin="450 : 300 : 1" id="perspective22"/>
  </defs>
  <path style="font-size:medium;font-style:normal;font-variant:normal;font-weight:normal;font-stretch:normal;text-indent:0;text-align:start;text-decoration:none;line-height:normal;letter-spacing:normal;word-spacing:normal;text-transform:none;direction:ltr;block-progression:tb;writing-mode:lr-tb;text-anchor:start;color:#000000;fill:#ffffff;fill-opacity:1;stroke:#000000;stroke-width:3;stroke-miterlimit:4;stroke-dasharray:none;marker:none;visibility:visible;display:inline;overflow:visible;enable-background:accumulate;font-family:Bitstream Vera Sans;-inkscape-font-specification:Bitstream Vera Sans" d="m 427.95445,1.5413307 a 30.003,30.003 0 0 0 -24.375,14.9687503 L 5.5170451,705.94758 a 30.003,30.003 0 0 0 25.9686999,45 l 796.093705,0 a 30.003,30.003 0 0 0 25.9688,-45 L 455.51705,16.510081 A 30.003,30.003 0 0 0 427.95445,1.5413307 z" id="path3661"/>
  <path style="font-size:medium;font-style:normal;font-variant:normal;font-weight:normal;font-stretch:normal;text-indent:0;text-align:start;text-decoration:none;line-height:normal;letter-spacing:normal;word-spacing:normal;text-transform:none;direction:ltr;block-progression:tb;writing-mode:lr-tb;text-anchor:start;color:#000000;fill:#d40000;fill-opacity:1;fill-rule:nonzero;stroke:none;stroke-width:10;marker:none;visibility:visible;display:inline;overflow:visible;enable-background:accumulate;font-family:Bitstream Vera Sans;-inkscape-font-specification:Bitstream Vera Sans" d="m 428.22015,6.5466287 c 4.55528,-0.23935 9.24143,0.82302 13.25,3 4.00857,2.1769803 7.43927,5.5175683 9.71875,9.4687503 L 849.22015,708.45288 c 4.2898,7.43311 4.2896,17.56677 0,25 -4.2896,7.43323 -13.07409,12.49509 -21.65625,12.5 l -796.062503,0 c -0.01026,-1e-5 -0.02099,2e-5 -0.03125,0 -8.572328,-0.017 -17.340548,-5.07567 -21.6249999,-12.5 -4.28958,-7.43322 -4.289789,-17.5669 0,-25 L 407.90765,19.015379 c 4.07668,-7.067743 12.16514,-12.0296813 20.3125,-12.4687503 z" id="path3663"/>
  <path style="font-size:medium;font-style:normal;font-variant:normal;font-weight:normal;font-stretch:normal;text-indent:0;text-align:start;text-decoration:none;line-height:normal;letter-spacing:normal;word-spacing:normal;text-transform:none;direction:ltr;block-progression:tb;writing-mode:lr-tb;text-anchor:start;color:#000000;fill:#ffffff;fill-opacity:1;fill-rule:nonzero;stroke:none;stroke-width:150;marker:none;visibility:visible;display:inline;overflow:visible;enable-background:accumulate;font-family:Bitstream Vera Sans;-inkscape-font-specification:Bitstream Vera Sans" d="m 429.50145,124.17163 318.625,551.78125 -637.1875,0 318.5625,-551.78125 z" id="path3602"/>
  <path style="fill:#000000" d="m -389.94549,520.69925 c 0,0 0,0 0,0 z" id="path2835"/>
  <path style="fill:#000000" d="m -392.91424,520.76175 0,0 z" id="path2833"/>
  <path style="fill:#000000" d="m 529.82884,627.30334 c -0.90794,-1.41416 -0.98636,-1.84782 -0.70418,-3.89769 0.31698,-2.30257 1.87888,-6.91518 3.55006,-10.48396 2.76948,-5.91405 3.59418,-8.54242 3.38694,-11.11816 -0.2244,-2.78901 -9.21233,-17.02159 -12.9153,-22.55038 -19.64274,-29.32796 -39.42148,-58.56658 -58.80415,-88.06774 -1.32928,-2.02321 -2.76916,-4.38668 -3.21542,-5.24198 -0.84463,-1.61866 -2.16117,-2.19913 -2.85972,-1.26081 -0.22291,0.29945 -1.0287,1.95978 -1.79067,3.68963 -0.76195,1.72985 -1.73332,3.90004 -2.15851,4.82262 -0.42529,0.9226 -1.28802,2.80971 -1.91728,4.19359 -1.23387,2.71346 -3.07614,6.67184 -5.25317,11.28664 -0.75227,1.59471 -2.03284,4.33103 -2.84577,6.0807 -1.90558,4.1019 -3.05133,6.52088 -10.04718,21.21364 -3.18488,6.68878 -6.39602,13.48776 -7.1613,15.09691 -8.4562,17.78067 -16.71651,35.65566 -25.20803,53.41914 -5.60459,11.72428 -6.38647,13.37661 -7.74227,16.26646 -2.2614,4.82015 -4.82712,7.26668 -7.62075,7.26668 -1.68448,0 -6.60119,-2.40049 -10.63092,-5.19032 -1.79355,-1.24168 -5.16506,-3.24805 -7.49211,-4.45858 -2.32715,-1.21052 -5.5895,-3.0008 -7.24972,-3.97841 -1.66032,-0.9776 -4.89383,-2.76722 -7.18578,-3.9769 -5.30369,-2.79934 -6.90283,-4.22236 -6.87017,-6.11323 0.0798,-4.62663 2.30279,-5.44673 18.10653,-6.67997 7.99912,-0.62421 9.03486,-0.92657 10.07624,-2.9416 0.23834,-0.46129 2.37408,-5.93392 4.74603,-12.16139 2.37185,-6.22747 5.89723,-15.47432 7.8341,-20.54856 6.24229,-16.35381 10.52132,-27.7118 11.37542,-30.19381 0.23814,-0.69194 0.60235,-1.6355 0.80931,-2.0968 0.20706,-0.46129 1.55967,-3.95245 3.00591,-7.75812 1.44613,-3.80568 2.99229,-7.86299 3.43568,-9.01622 0.44349,-1.15322 1.20023,-3.22906 1.68171,-4.61294 0.48137,-1.38389 1.7116,-4.68633 2.73373,-7.33877 5.08769,-13.20236 7.5868,-19.73216 10.19136,-26.62926 1.56786,-4.15166 3.71423,-9.71132 4.76987,-12.3548 2.82842,-7.08321 2.84524,-6.62612 -0.43786,-11.87776 -1.54423,-2.4701 -2.80682,-4.54156 -2.80575,-4.60323 10e-4,-0.0617 -2.35643,-3.9234 -5.23901,-8.58161 -2.88248,-4.6582 -7.19758,-11.70308 -9.58912,-15.65531 -2.39154,-3.95221 -5.99468,-9.84242 -8.00711,-13.08935 -2.01241,-3.24693 -3.65508,-6.12583 -3.6504,-6.39756 0.0107,-0.59475 -2.23533,-3.13459 -2.77139,-3.13459 -0.20855,0 -0.47552,0.15651 -0.59352,0.34779 -0.34432,0.5585 -1.16863,5.75297 -1.46549,9.23439 -0.15057,1.76453 -1.15374,8.11475 -2.22948,14.11158 -1.07564,5.99683 -2.10149,12.22429 -2.27961,13.83882 -0.43008,3.90009 -1.32546,7.23299 -2.2083,8.21973 -1.91378,2.13898 -6.932,3.61897 -14.0617,4.14716 -9.21564,0.68272 -19.83836,2.47975 -30.17539,5.10471 -3.70594,0.94111 -8.58531,1.6873 -10.16838,2.00838 -1.29845,0.26336 -2.41207,-0.0266 -3.26,-0.78051 -0.34965,-0.3108 -0.68354,-0.6448 -1.01243,-0.97974 -1.6582,-1.68912 -1.98795,-2.0739 -4.32989,-2.18195 -4.53569,-0.20924 -9.05966,0.45621 -13.5931,0.45621 -7.73982,0 -12.41989,-1.83434 -11.68495,-4.65427 0.57723,-2.21486 3.59145,-4.02804 9.69871,-5.83422 1.90899,-0.56459 9.35205,-2.54874 16.54005,-4.40921 13.86411,-3.58844 19.30156,-5.22726 26.56628,-8.00695 2.47613,-0.94747 5.91244,-2.15971 7.63618,-2.69387 3.95121,-1.22445 5.71017,-2.26643 6.47574,-3.8361 0.84688,-1.73628 1.31441,-8.42841 1.85888,-26.60811 0.25909,-8.64925 0.68907,-17.14127 0.95561,-18.87112 0.72664,-4.71523 2.26066,-10.92032 3.11731,-12.60936 1.95816,-3.86072 7.81708,-7.18298 20.30356,-11.51294 5.68357,-1.97088 5.93192,-2.11073 5.9534,-3.35195 0.0245,-1.40824 -1.09446,-4.40826 -2.06976,-5.55024 -1.02988,-1.20582 -1.96805,-1.18732 -5.31881,0.10481 -1.54743,0.59675 -3.57697,1.04839 -4.71103,1.04839 -2.87568,0 -4.01451,-1.16425 -5.62099,-5.7466 -1.89762,-5.41268 -2.64733,-6.8702 -4.42545,-8.60362 l -1.59988,-1.5598 0.96582,-2.54278 c 0.81165,-2.13653 0.92891,-2.99282 0.73429,-5.35962 -0.12747,-1.54927 -0.34007,-6.02493 -0.47243,-9.94593 -0.13247,-3.921 -0.34815,-7.71564 -0.47935,-8.43254 -0.45381,-2.47837 2.7017,-6.82993 6.65896,-9.1831 2.62499,-1.56096 8.63883,-3.91212 13.11035,-5.12561 5.46086,-1.48201 10.7105,-1.52741 14.24385,-0.12317 2.80269,1.11385 5.53854,3.08081 7.56054,5.43568 3.36033,3.91346 3.8367,6.92208 3.58304,22.62487 -0.17291,10.71205 -0.11748,12.12072 0.55383,14.04851 0.82197,2.36034 3.15424,5.81664 4.76477,7.06104 1.01796,0.78655 1.0835,0.78641 4.06601,-0.008 1.66724,-0.44456 4.78274,-1.57815 6.92348,-2.5191 9.93909,-4.36882 16.1105,-5.01995 24.91851,-2.62907 4.99769,1.35661 22.69691,7.8373 28.31057,10.36614 1.8313,0.82493 6.27473,2.58923 9.87427,3.92063 6.82815,2.52556 11.3153,4.83668 12.91488,6.65167 2.03518,2.30948 5.51959,11.48056 10.21892,26.89737 5.07206,16.63916 6.16961,19.61458 13.38156,36.27451 3.10625,7.1758 4.7953,11.82903 5.03056,13.85881 0.22409,1.93462 0.14897,2.21428 -0.87315,3.25002 -0.61501,0.6233 -1.48891,1.13327 -1.94197,1.13327 -1.78355,0 -4.23285,-2.09772 -7.08001,-6.06398 -3.72872,-5.1942 -7.84069,-9.43701 -11.15538,-11.51025 -4.46897,-2.79515 -6.67813,-5.14205 -8.25801,-8.77286 -1.89218,-4.34834 -1.99465,-4.61228 -2.64797,-6.81793 -2.30481,-7.78125 -8.34525,-21.30296 -11.16665,-24.99686 -3.14924,-4.1231 -6.98265,-5.67874 -20.88102,-9.00761 -8.38419,-2.00813 -15.92536,-3.46614 -16.35726,-3.0228 4.69976,19.24102 9.76778,38.70279 15.07456,57.86447 0.21803,0.78749 1.10703,1.09433 1.70938,1.61009 0.72897,0.62426 1.51679,1.61741 2.18862,2.86335 29.25788,54.25621 58.58491,108.56339 87.73893,162.82 1.92782,3.58793 2.73958,5.3641 2.70372,7.65409 -0.049,3.13378 -1.84302,5.39048 -10.07655,12.67486 -2.21427,1.95899 -5.36871,5.26022 -7.00978,7.33604 -1.64117,2.07584 -4.64698,5.49628 -6.67961,7.60105 -1.54542,1.41822 -3.04129,3.15242 -4.4468,4.79926 -1.55765,1.82512 -4.27131,2.36463 -5.96251,1.10616 -1.47311,-1.09619 -2.29985,-2.06092 -3.56838,-3.94829 z" id="path3722" sodipodi:nodetypes="csssssssssssssssssssssssssssssssssssssssssssssssssssssssssssssssssssscccssssssssssssssssssssssssssscssssssscssc"/>
  <rect style="fill:#000000;fill-opacity:1;stroke:none" id="rect3694" width="58.700748" height="17.241814" x="435.39615" y="678.6261" rx="4" ry="4" transform="matrix(1,0,-0.37263833,0.92797666,0,0)"/>
  <rect transform="matrix(1,0,-0.2084058,0.97804244,0,0)" ry="4" rx="4" y="643.88739" x="424.51688" height="16.359207" width="57.104649" id="rect3700" style="fill:#000000;fill-opacity:1;stroke:none"/>
  <rect style="fill:#000000;fill-opacity:1;stroke:none" id="rect3704" width="58.179943" height="16.048277" x="446.18793" y="631.64929" rx="4" ry="4" transform="matrix(1,0,-0.07750902,0.99699165,0,0)"/>
  <rect transform="matrix(1,0,0.16450272,0.98637663,0,0)" ry="4" rx="4" y="638.44696" x="402.16022" height="16.220982" width="56.796619" id="rect3708" style="fill:#000000;fill-opacity:1;stroke:none"/>
  <rect style="fill:#000000;fill-opacity:1;stroke:none" id="rect3710" width="62.811661" height="17.051447" x="382.75534" y="671.13342" rx="4" ry="4" transform="matrix(1,0,0.34572283,0.93833668,0,0)"/>
  <rect transform="matrix(1,0,-0.37538102,0.92687059,0,0)" ry="4" rx="4" y="631.16736" x="440.75247" height="16.183489" width="55.503151" id="rect3696" style="fill:#000000;fill-opacity:1;stroke:none"/>
  <rect style="fill:#000000;fill-opacity:1;stroke:none" id="rect3698" width="50.969906" height="15.644016" x="476.6861" y="610.12756" rx="4" ry="4" transform="matrix(1,0,-0.28397024,0.95883309,0,0)"/>
  <rect transform="matrix(1,0,-0.14697676,0.98913995,0,0)" ry="4" rx="4" y="591.43347" x="488.41147" height="15.164689" width="52.359417" id="rect3702" style="fill:#000000;fill-opacity:1;stroke:none"/>
  <rect style="fill:#000000;fill-opacity:1;stroke:none" id="rect3706" width="52.359417" height="15.8619" x="296.36081" y="618.62518" rx="4" ry="4" transform="matrix(1,0,0.32515063,0.94566224,0,0)"/>
  <rect transform="matrix(1,0,0.37570217,0.92674046,0,0)" ry="4" rx="4" y="631.25598" x="358.57385" height="16.185762" width="55.826355" id="rect3712" style="fill:#000000;fill-opacity:1;stroke:none"/>
</svg>