<?xml version="1.0" encoding="UTF-8" standalone="no"?>
<!-- Created with Inkscape (http://www.inkscape.org/) -->

<svg
   xmlns:dc="http://purl.org/dc/elements/1.1/"
   xmlns:cc="http://creativecommons.org/ns#"
   xmlns:rdf="http://www.w3.org/1999/02/22-rdf-syntax-ns#"
   xmlns:svg="http://www.w3.org/2000/svg"
   xmlns="http://www.w3.org/2000/svg"
   xmlns:sodipodi="http://sodipodi.sourceforge.net/DTD/sodipodi-0.dtd"
   xmlns:inkscape="http://www.inkscape.org/namespaces/inkscape"
   width="60.400002cm"
   height="68.861cm"
   viewBox="0 0 604.00003 688.60998"
   version="1.1"
   id="svg825"
   inkscape:version="0.92.2 (5c3e80d, 2017-08-06)"
   sodipodi:docname="88.svg">
  <defs
     id="defs819" />
  <sodipodi:namedview
     id="base"
     pagecolor="#ffffff"
     bordercolor="#666666"
     borderopacity="1.0"
     inkscape:pageopacity="0.0"
     inkscape:pageshadow="2"
     inkscape:zoom="0.16"
     inkscape:cx="934.81367"
     inkscape:cy="1377.1582"
     inkscape:document-units="cm"
     inkscape:current-layer="layer1"
     showgrid="false"
     units="cm"
     fit-margin-top="0"
     fit-margin-left="0"
     fit-margin-right="0"
     fit-margin-bottom="0"
     inkscape:snap-global="true"
     inkscape:window-width="1920"
     inkscape:window-height="1057"
     inkscape:window-x="-8"
     inkscape:window-y="-8"
     inkscape:window-maximized="1" />
  <metadata
     id="metadata822">
    <rdf:RDF>
      <cc:Work
         rdf:about="">
        <dc:format>image/svg+xml</dc:format>
        <dc:type
           rdf:resource="http://purl.org/dc/dcmitype/StillImage" />
        <dc:title></dc:title>
      </cc:Work>
    </rdf:RDF>
  </metadata>
  <g
     inkscape:label="Layer 1"
     inkscape:groupmode="layer"
     id="layer1"
     transform="translate(-81.55898,1470.5322)">
    <path
       style="opacity:1;fill:none;fill-opacity:1;fill-rule:nonzero;stroke:#0064b4;stroke-width:70;stroke-linecap:butt;stroke-linejoin:round;stroke-miterlimit:4;stroke-dasharray:none;stroke-opacity:1;paint-order:fill markers stroke"
       d="M 118.55898,-983.92213 383.559,-1433.5316 648.55902,-983.92213 v 164.99998 H 118.55898 Z"
       id="rect1474"
       inkscape:connector-curvature="0"
       sodipodi:nodetypes="cccccc" />
    <path
       sodipodi:nodetypes="cccccc"
       inkscape:connector-curvature="0"
       id="path872"
       d="M 118.55898,-983.92213 383.559,-1433.5316 648.55902,-983.92213 v 164.99998 H 118.55898 Z"
       style="opacity:1;fill:none;fill-opacity:1;fill-rule:nonzero;stroke:#ffffff;stroke-width:42;stroke-linecap:butt;stroke-linejoin:round;stroke-miterlimit:4;stroke-dasharray:none;stroke-opacity:1;paint-order:fill markers stroke" />
    <path
       style="opacity:1;fill:#0064b4;fill-opacity:1;fill-rule:nonzero;stroke:#0064b4;stroke-width:14;stroke-linecap:butt;stroke-linejoin:round;stroke-miterlimit:4;stroke-dasharray:none;stroke-opacity:1;paint-order:fill markers stroke"
       d="M 118.55898,-983.92213 383.559,-1433.5316 648.55902,-983.92213 v 164.99998 H 118.55898 Z"
       id="path885"
       inkscape:connector-curvature="0"
       sodipodi:nodetypes="cccccc" />
    <path
       id="path1543"
       d="m 452.0035,-1025.8473 c -1.1483,-2.9789 -51.83059,-84.7023 -52.82431,-91.6588 -0.99289,-6.804 7.26229,-63.9858 8.56211,-65.2091 1.37578,-1.3758 61.0805,44.0332 63.52699,44.1858 2.5241,0 5.1203,-3.0566 6.4977,-2.979 1.07071,0.055 7.95069,6.8034 11.39059,8.4088 1.1484,0.6102 2.4465,0.993 3.89992,1.0707 5.35338,0.2219 9.93769,-4.6655 10.1674,-10.7789 0.16629,-3.5946 -1.3757,-7.2626 -2.75151,-8.7915 -1.45349,-1.531 -3.66688,-3.517 -5.42539,-3.9775 -1.7586,-0.5548 -4.04971,-0.6103 -5.35342,-1.3759 -1.14829,-0.6102 -1.07058,-5.9629 -1.07058,-5.9629 0,0 -52.05981,-37.3057 -54.43029,-39.6755 -2.44643,-2.3689 -22.01633,-54.736 -25.68592,-58.5582 -3.59477,-3.7446 -18.8055,-18.5763 -18.8055,-18.5763 l -0.22189,-6.4217 c 0,0 13.60748,-4.3605 14.60099,-6.5744 0.91541,-2.2911 8.71512,-29.3555 8.71512,-29.3555 l 15.28947,-4.7377 0.6101,-4.5878 -18.88188,-8.5619 -0.3883,-10.9314 c 0,0 -14.90722,-7.7213 -25.07462,-6.8038 -10.0909,0.9929 -20.10519,5.8098 -20.2583,8.4854 -0.056,2.7516 -0.38839,12.155 -0.38839,12.155 l -20.86961,8.6386 0.22201,4.5101 19.6469,11.3906 -2.14131,30.5783 c 0,0 -37.84099,17.3536 -40.05779,19.9525 -2.14132,2.674 -38.52892,54.8126 -39.98182,57.5641 -1.29811,2.6016 -13.91307,71.8598 -12.53675,71.8598 1.14833,0.055 6.03898,4.4325 6.03898,4.4325 0,0 -1.83621,14.4485 1.68089,19.5704 0.16631,0.2772 0.38834,0.4438 0.55476,0.6103 1.75855,3.2119 4.89288,5.4253 8.71508,5.5807 5.80989,0.2219 10.85533,-4.7376 11.08498,-11.1615 0,-1.4535 -0.1663,-2.8293 -0.55472,-4.1274 l -0.68791,-5.5808 4.28266,-3.8998 c 0,0 7.79754,-55.7295 9.55552,-57.0287 1.75858,-1.2203 25.53343,-31.3433 25.53343,-31.3433 l -12.38421,100.8333 c -0.22198,5.4253 3.0566,10.0903 7.64442,11.5432 l -75.29929,183.93003 c -1.45347,3.74457 -0.1663,8.10322 3.21199,9.93777 l 49.002,24.76896 c 2.75156,1.45342 6.03954,0.0553 7.41539,-2.97902 1.2981,-2.97899 -3.89996,-9.86119 -2.82925,-8.48541 -0.68789,-0.993 -2.97903,-4.04966 -5.88645,-8.48544 -4.04969,-6.19211 -2.67388,-11.23754 0.8432,-19.11162 0,0 59.32199,-133.16947 61.0805,-133.16947 1.75861,0 44.41549,57.25836 46.17341,59.16936 l 0.16629,0.1663 34.5542,96.55173 c 1.45339,3.82219 4.28259,6.65086 7.95011,6.03954 l 53.0538,-10.85533 c 3.1344,-0.6102 5.12041,-3.74453 4.5878,-7.10962 -0.5547,-3.28966 -3.05671,-3.97755 -6.4983,-4.97056 -3.43941,-0.99301 -4.58771,-1.37576 -12.68992,-3.36178 -7.72089,-1.07065 -11.6962,-6.19209 -13.53137,-13.30175 0,0 -27.52042,-88.52449 -28.74373,-91.42979"
       style="fill:#ffffff;fill-opacity:1;fill-rule:nonzero;stroke:none;stroke-width:0.35277787"
       inkscape:connector-curvature="0" />
    <path
       style="fill:#ffffff;fill-opacity:1;fill-rule:nonzero;stroke:none;stroke-width:0.35277787"
       d="m 622.25732,-873.92229 c 2.35382,0 4.94382,1.81065 5.69992,3.99976 l 10.1141,28.10114 c 1.5976,4.37202 -0.89231,7.89924 -5.5144,7.89924 H 134.55739 c -4.62209,0 -7.11197,-3.52719 -5.51439,-7.89924 l 10.11412,-28.10114 c 0.75612,-2.18911 3.34616,-3.99976 5.69992,-3.99976 z"
       id="path1545"
       inkscape:connector-curvature="0"
       sodipodi:nodetypes="sccssccss" />
    <path
       sodipodi:nodetypes="sccssccss"
       inkscape:connector-curvature="0"
       id="path1613"
       d="m 253.26197,-983.92215 c 2.35376,0 4.94379,-1.81065 5.69991,-3.99976 l 10.11411,-28.10109 c 1.59758,-4.3721 -0.89231,-7.8993 -5.51439,-7.8993 h -63.70457 c -2.35376,0 -4.94379,1.8106 -5.69991,3.9998 l -10.11411,28.10108 c -1.59758,4.37208 0.8923,7.89927 5.51439,7.89927 z"
       style="fill:#ffffff;fill-opacity:1;fill-rule:nonzero;stroke:none;stroke-width:0.35277787" />
    <path
       style="fill:#ffffff;fill-opacity:1;fill-rule:nonzero;stroke:none;stroke-width:0.35277787"
       d="m 493.85701,-983.92215 c -2.35376,0 -4.94379,-1.81065 -5.69989,-3.99976 L 478.043,-1016.023 c -1.59758,-4.3721 0.89231,-7.8993 5.51439,-7.8993 h 83.70457 c 2.35376,0 4.94379,1.8106 5.69991,3.9998 l 10.1141,28.10108 c 1.59758,4.37208 -0.89228,7.89927 -5.51437,7.89927 z"
       id="path1744"
       inkscape:connector-curvature="0"
       sodipodi:nodetypes="sccssccss" />
  </g>
</svg>
