<?xml version="1.0" encoding="UTF-8" standalone="no"?>
<!DOCTYPE svg PUBLIC "-//W3C//DTD SVG 1.1//EN" "http://www.w3.org/Graphics/SVG/1.1/DTD/svg11.dtd">
<svg width="100%" height="100%" viewBox="0 0 394 525" version="1.1" xmlns="http://www.w3.org/2000/svg" xmlns:xlink="http://www.w3.org/1999/xlink" xml:space="preserve" xmlns:serif="http://www.serif.com/" style="fill-rule:evenodd;clip-rule:evenodd;stroke-linejoin:round;stroke-miterlimit:2;">
    <g transform="matrix(1,0,0,1,-0.788,71.3771)">
        <g transform="matrix(1,0,0,1.127,0,-44.7698)">
            <g transform="matrix(1,0,0,0.844686,0,-24.2948)">
                <rect x="0.788" y="0.812" width="393.7" height="551.178" style="fill:white;"/>
            </g>
            <g transform="matrix(1,0,0,0.844686,0,-24.2948)">
                <rect x="8.659" y="8.683" width="377.952" height="535.429" style="fill:rgb(26,103,187);"/>
            </g>
        </g>
        <path d="M32.287,315.773L363.006,315.773L197.626,32.289L32.287,315.773Z" style="fill:white;"/>
        <g transform="matrix(0.0281906,0,0,0.0281906,101.717,115.981)">
            <g transform="matrix(16.4673,0,0,18.7907,-708.926,-2106.24)">
                <path d="M172.941,378.886L166.25,405.718L220,405.718L223.526,355.298L193.791,355.298L172.941,378.886ZM45.834,405.718L99.584,405.718L120.984,355.298L74.942,355.298L45.834,405.718ZM454.166,405.718L400.416,405.718L379.015,355.298L425.057,355.298L454.166,405.718ZM317.72,370.11L311.325,381.044L330.522,381.32L336.25,405.718L282.5,405.718L278.975,355.298L311.599,355.298L325.684,367.091L317.72,370.11Z" style="fill-rule:nonzero;"/>
            </g>
            <g transform="matrix(16.4673,0,0,16.4673,-708.926,-1163.57)">
                <path d="M286.582,138.05C284.464,136.267 282.073,134.833 279.5,133.801C275.296,131.971 271.154,129.999 267.084,127.884C264.786,127.021 262.925,125.285 261.907,123.052C260.917,120.016 260.526,116.82 260.75,113.634C261.35,110.004 262.271,106.436 263.499,102.968C264.523,98.337 264.607,93.548 263.75,88.884C262.58,83.178 258.344,78.589 252.751,76.967C245.78,74.012 237.777,74.863 231.583,79.218C226.88,83.263 224.878,89.625 226.417,95.634C226.789,97.275 226.873,98.966 226.667,100.635C224.958,107.194 226.717,114.17 231.333,119.135C232.983,120.103 234.86,120.611 236.773,120.607C238.869,120.384 240.824,121.695 241.418,123.719C241.626,124.936 241.291,126.185 240.5,127.135C236.889,130.238 233.188,133.234 229.403,136.121C227.255,137.759 225.303,139.636 223.583,141.718C222.191,143.924 221.277,146.397 220.901,148.978L215.584,181.801L181.25,209.216L180.847,209.537C177.563,212.134 176.955,216.878 179.476,220.222C181.995,223.563 186.722,224.284 190.124,221.844L198.082,216.134L200.584,218.384L226.917,198.718L232.917,188.635L235.417,224.8L155,352.801L139.75,349.469L132.25,356.301L168.75,376.133L253.083,265.718L281.249,317.3L328.166,360.217L326.752,365.967L318.084,368.051L314.75,375.217L336.918,375.217L356,346.301L322.917,312.718L307.251,291.802L283.252,240.968C286.757,231.238 285.461,220.423 279.75,211.8C278.897,210.07 278.524,208.142 278.668,206.216L277.751,170.718L291.085,190.718L297.712,233.373C298.346,237.458 302.093,240.317 306.201,239.846C310.311,239.379 313.318,235.75 313.017,231.627L312.334,222.3L314.502,221.802L309.749,177.8L290.917,143.634C289.812,141.534 288.345,139.643 286.582,138.05Z" style="fill-rule:nonzero;"/>
            </g>
        </g>
    </g>
</svg>
