<?xml version="1.0" encoding="UTF-8" standalone="no"?>
<!DOCTYPE svg PUBLIC "-//W3C//DTD SVG 1.1//EN" "http://www.w3.org/Graphics/SVG/1.1/DTD/svg11.dtd">
<svg width="100%" height="100%" viewBox="0 0 9900 8650" version="1.1" xmlns="http://www.w3.org/2000/svg" xmlns:xlink="http://www.w3.org/1999/xlink" xml:space="preserve" xmlns:serif="http://www.serif.com/" style="fill-rule:evenodd;clip-rule:evenodd;stroke-linejoin:round;">
    <g id="Layer-1" serif:id="Layer 1">
        <path id="path4488" d="M286.538,8360.33L4947.96,286.54L9609.38,8360.33L286.588,8360.34L286.547,8360.33L286.538,8360.33Z" style="fill:rgb(226,10,22);fill-rule:nonzero;stroke:rgb(226,10,22);stroke-width:573.08px;"/>
        <g id="rect5050" transform="matrix(1.11358,0,0,1.11358,-562.009,-568.728)">
            <path d="M4947.96,1432.69L1279.16,7787.23L8616.78,7787.24L4947.98,1432.69L4947.96,1432.69Z" style="fill:white;fill-rule:nonzero;"/>
        </g>
        <g transform="matrix(-1.08421,0,0,1.08421,10316.8,-276.014)">
            <path id="path2803" d="M3754.45,5809.23L4105.31,5809.23L3919.24,7429.49L3273.8,7429.49L3754.45,5809.23ZM4824.97,5809.23L5137.09,5809.23L5261.12,7429.49L4685.43,7429.49L4824.98,5809.23L4824.97,5809.23ZM5763.72,5809.23L6168.9,5809.23L6657.3,7429.49L6035.05,7429.49L5763.72,5809.23ZM2647.22,5809.23L3114.42,5809.23L2463.22,7429.49L1771.19,7429.49L2647.22,5809.23ZM6808.88,5809.23L7276.05,5809.23L8128.8,7429.49L7475.58,7429.49L6808.88,5809.23Z"/>
            <g>
                <path id="path13005" d="M3763.81,6495.58L4744.58,4493.88L4648.3,4157.95L4103.55,4777.52C3931.08,4929.89 3671,4668.42 3841.74,4497.69L4808.3,3387.75C4915.31,3313.29 4962.4,3286.28 5069.76,3229.82C5191.33,3173.72 5216.95,3182.73 5331.24,3286.28L6195.99,4157.95C6226.81,4190.85 6237.55,4183.58 6250.35,4258.04L6250.35,4691.97C6250.35,4880.72 5892.61,4878.99 5890.53,4688.16L5896.08,4383.07L5576.43,4074.49L5449.33,4439.51C5719.8,5158.8 5939.72,5810.57 6208.46,6530.23C6330.36,6869.62 5914.43,7035.15 5747.16,6706.15L5073.23,4915.35C4771.93,5531.1 4503.19,6113.95 4199.82,6727.96C4027.36,7045.88 3598.62,6800.69 3763.81,6495.58" style="stroke:white;stroke-width:50.44px;"/>
                <path id="path13013" d="M4839.11,2474.16C5018.85,2474.16 5164.3,2621.35 5164.3,2801.09C5164.3,2980.82 5018.85,3128.01 4839.11,3128.01C4659.37,3128.01 4512.18,2980.82 4512.18,2801.09C4512.18,2621.35 4659.37,2474.16 4839.11,2474.16" style="stroke:white;stroke-width:50.44px;"/>
            </g>
        </g>
    </g>
</svg>
