<?xml version="1.0" encoding="UTF-8" standalone="no"?>
<!DOCTYPE svg PUBLIC "-//W3C//DTD SVG 1.1//EN" "http://www.w3.org/Graphics/SVG/1.1/DTD/svg11.dtd">
<!-- GeoHints -->
<svg width="100%" height="100%" viewBox="0 0 3101 3101" version="1.1" xmlns="http://www.w3.org/2000/svg" xmlns:xlink="http://www.w3.org/1999/xlink" xml:space="preserve" xmlns:serif="http://www.serif.com/" style="fill-rule:evenodd;clip-rule:evenodd;stroke-linecap:round;stroke-linejoin:round;stroke-miterlimit:500;">
    <path d="M2.098,118.208C2.098,87.406 14.333,57.875 36.108,36.094C57.89,14.318 87.421,2.083 118.223,2.083L2982.68,2.083C3046.81,2.083 3098.81,54.073 3098.81,118.208L3098.81,2982.66C3098.81,3013.46 3086.57,3043 3064.8,3064.77C3043.02,3086.55 3013.48,3098.78 2982.68,3098.78L118.223,3098.78C87.421,3098.78 57.89,3086.55 36.108,3064.77C14.333,3043 2.098,3013.46 2.098,2982.66L2.098,118.208Z" style="fill:none;fill-rule:nonzero;stroke:black;stroke-width:3.69px;"/>
    <path d="M2.098,118.208C2.098,87.406 14.333,57.875 36.108,36.094C57.89,14.318 87.421,2.083 118.223,2.083L2982.68,2.083C3046.81,2.083 3098.81,54.073 3098.81,118.208L3098.81,2982.66C3098.81,3013.46 3086.57,3043 3064.8,3064.77C3043.02,3086.55 3013.48,3098.78 2982.68,3098.78L118.223,3098.78C87.421,3098.78 57.89,3086.55 36.108,3064.77C14.333,3043 2.098,3013.46 2.098,2982.66L2.098,118.208" style="fill:white;fill-rule:nonzero;"/>
    <path d="M64.03,118.208C64.03,88.281 88.295,64.016 118.223,64.016L2982.68,64.016C2997.05,64.016 3010.83,69.729 3021,79.891C3031.16,90.052 3036.87,103.839 3036.87,118.208L3036.87,2982.66C3036.87,3012.59 3012.61,3036.85 2982.68,3036.85L118.223,3036.85C103.847,3036.85 90.068,3031.14 79.905,3020.98C69.739,3010.81 64.03,2997.03 64.03,2982.66L64.03,118.208" style="fill:rgb(0,70,172);fill-rule:nonzero;"/>
    <path d="M166.608,2738.45L1550.46,341.56L2934.3,2738.45L166.618,2738.45" style="fill:white;fill-rule:nonzero;"/>
    <path d="M2763.22,2650.64L2463.8,2108.71L2211.57,2108.71L2411.72,2650.63L2763.22,2650.64Z"/>
    <path d="M689.191,2650.63L337.695,2650.63L637.103,2108.71L889.337,2108.71L689.191,2650.63Z"/>
    <path d="M2075.22,2650.64L1950.77,2108.71L1690.93,2108.71L1713.12,2650.63L2075.22,2650.64Z"/>
    <path d="M1387.84,2650.63L1025.69,2650.63L1149.18,2108.71L1409.05,2108.71L1387.84,2650.63Z"/>
    <path d="M1602.41,746.435C1526.77,746.125 1465.34,807.561 1464.84,882.913C1465.34,914.807 1475.86,943.854 1493.45,966.559C1496.55,970.567 1512.87,997.475 1476.95,1001.78C1441.12,1005.63 1337.59,1010.93 1276.63,1074.42C1152.28,1203.63 1068.34,1356.72 1047.7,1574.1C1039.99,1577.15 1015.53,1586.11 1015.78,1612.62C1015.53,1639.91 1066.08,1697.81 1137.95,1697.37C1155.22,1697.81 1179.42,1686.6 1179.78,1659.95C1179.42,1645.64 1179.41,1635.85 1175.37,1624.73C1171.25,1613.02 1168.81,1582.04 1168.77,1531.18C1168.81,1479.31 1219.36,1363.54 1290.94,1314.35C1290.94,1314.35 1349.24,1780.07 863.898,2216.86C863.898,2216.86 939.715,2354.94 942.043,2359.95C958.193,2391.9 991.152,2402.97 1008.08,2406.17C1015.95,2407.93 1069.34,2413.64 1073.02,2413.88C1076.68,2414.45 1094.62,2417.71 1095.03,2405.07C1094.62,2391.62 1089.65,2388.66 1085.12,2386.36C1072.04,2378.6 1054.91,2371.7 1046.6,2339.03C1046.6,2339.03 1025.32,2258.33 1024.59,2247.68C1024.59,2247.68 1256.86,2099.74 1426.32,1744.69C1426.32,1744.69 1666.55,2021.07 1765.3,2495.32L2027.26,2380.85C2027.26,2380.85 2037.11,2375.12 2037.16,2365.45C2037.11,2356.77 2026.7,2352.49 2019.55,2351.14C2013.25,2350.04 1867.72,2335.37 1865.47,2335.74C1864.06,2335.37 1856.71,2334.14 1856.65,2326.92C1856.71,2223.43 1815.37,2052.19 1781.82,1956.01C1774.17,1935.47 1766.82,1914.67 1758.7,1900.98C1644.04,1721.71 1604.07,1589.72 1659.65,1373.79C1659.65,1373.79 1763.78,1615.05 2041.57,1641.23C2041.57,1641.23 2050.56,1653.58 2065.78,1653.35C2101.3,1653.58 2112.93,1558.49 2113.1,1547.68C2112.93,1520.57 2089.08,1519.36 2088.89,1519.07C2084.18,1519.37 2074.4,1518.45 2065.78,1532.28C2065.78,1532.28 1855.59,1471.82 1796.12,1262.63C1771.38,1177.1 1719.81,1100.22 1661.85,1052.41C1652.27,1043.95 1629.89,1022.02 1661.85,1007.28C1708.45,985.337 1739.75,937.698 1739.99,882.913C1739.75,807.561 1678.32,746.125 1602.41,746.435Z"/>
</svg>
