<?xml version="1.0" encoding="UTF-8" standalone="no"?>
<!DOCTYPE svg PUBLIC "-//W3C//DTD SVG 1.1//EN" "http://www.w3.org/Graphics/SVG/1.1/DTD/svg11.dtd">
<svg width="100%" height="100%" viewBox="0 0 1250 1246" version="1.1" xmlns="http://www.w3.org/2000/svg" xmlns:xlink="http://www.w3.org/1999/xlink" xml:space="preserve" xmlns:serif="http://www.serif.com/" style="fill-rule:evenodd;clip-rule:evenodd;stroke-linejoin:round;stroke-miterlimit:2;">
    <path d="M69.958,4.208C78.542,5.458 87.125,6.542 95.75,6.542C436.042,6.5 776.333,6.542 1116.63,6.5C1128.42,6.583 1140.26,5.917 1151.92,7.5C1161.38,6.458 1170.8,5.5 1180.17,3.958C1179.01,6.25 1176.63,10.833 1175.46,13.125C1178.88,11.583 1182.3,10 1185.71,8.458C1186.8,10.458 1188.96,14.458 1190.01,16.5C1192.09,15.333 1196.21,13 1198.3,11.875C1202.01,17.25 1205.76,22.625 1209.21,28.208C1210.71,27.167 1213.67,25.125 1215.17,24.083C1218.01,27.875 1220.96,31.833 1218.42,36.542C1223.3,40.417 1228.21,44.292 1233.21,48.042C1232.13,50 1229.96,54 1228.88,55.958C1231.13,55.583 1235.67,54.75 1237.92,54.375C1236.67,57.083 1234.17,62.542 1232.96,65.292C1235.21,64.458 1239.67,62.792 1241.92,61.958C1240.46,67.375 1239.09,72.833 1237.67,78.292L1246.21,74.292C1245.26,80.833 1244.26,87.375 1242.71,93.833C1243.09,96.5 1243.84,101.875 1244.21,104.583L1244.21,1120.83C1244.26,1137.79 1243.51,1154.88 1245.88,1171.75L1237.63,1167.38C1238.71,1171.5 1240.84,1179.75 1241.92,1183.88L1233.46,1180.58C1234.59,1184 1236.76,1190.88 1237.84,1194.33C1232.88,1197.67 1228.01,1201.12 1223.01,1204.42C1224.84,1209.29 1222.8,1213.54 1219.71,1217.54L1211.59,1210.46L1215.42,1218.96C1214.26,1220.62 1211.88,1223.96 1210.67,1225.67C1209.17,1224.58 1206.09,1222.46 1204.55,1221.42C1202.71,1225.58 1200.84,1229.79 1199.01,1234C1196.17,1232.58 1190.46,1229.79 1187.63,1228.38L1192.88,1238.33C1187.09,1236.75 1181.34,1235.08 1175.59,1233.38C1176.76,1235.5 1179.09,1239.79 1180.21,1241.96C1172.21,1240.5 1164.13,1239.38 1156.09,1238.21C1151.34,1238.83 1146.55,1239.21 1141.8,1239.29C800.088,1239.17 458.338,1239.29 116.627,1239.25C101.044,1239.21 85.294,1238.5 69.877,1241.71L74.21,1233.58C70.085,1234.71 61.877,1237 57.794,1238.12L61.419,1228.71C58.96,1230 54.085,1232.67 51.627,1234C47.919,1228.62 44.252,1223.25 40.919,1217.67C39.585,1218.54 36.919,1220.33 35.585,1221.21C30.919,1215.75 25.752,1210.83 20.377,1206.17C21.794,1204.12 24.585,1200.12 26.002,1198.08L18.752,1199.17C17.21,1197.88 14.169,1195.38 12.627,1194.12C13.752,1190.21 16.044,1182.33 17.21,1178.42C14.96,1181.04 10.419,1186.29 8.169,1188.88C9.335,1180 11.752,1162.17 12.919,1153.29L8.335,1172.25L3.96,1177.29C4.627,1168.21 5.835,1159.21 5.96,1150.08C5.96,811.167 5.919,472.25 5.96,133.333C6.127,121.5 4.96,109.5 7.294,97.833C5.46,88.125 4.669,78.25 3.877,68.417L8.335,73.625L12.919,92.333C11.71,83.542 9.294,65.958 8.085,57.167L11.752,59.708L16.627,70.042C15.71,65.458 13.877,56.333 12.96,51.75C17.419,47.958 22.127,44.5 26.835,41.042C25.752,36.458 27.335,32.208 30.085,28.458L38.544,35.333L34.335,26.917C35.627,25.167 38.252,21.75 39.544,20.042C41.294,21.333 44.752,23.917 46.502,25.208C46.46,23.292 46.419,19.542 46.377,17.667C48.335,18.125 52.169,19.083 54.127,19.542C55.794,15.708 57.502,11.917 59.21,8.125C62.919,9.167 70.377,11.333 74.085,12.375L69.96,4.208M89.294,76.458C82.752,80.042 75.919,86.667 77.252,94.833C77.294,107.667 76.252,120.5 76.71,133.333C76.794,472.208 76.669,811.083 76.752,1149.95C75.419,1162.62 87.544,1171.87 99.46,1170.66C445.46,1171.12 791.46,1170.58 1137.42,1170.91C1147.63,1170.16 1160.84,1173.04 1168,1163.7C1176.42,1155.87 1172.42,1143.37 1173.34,1133.29C1173.17,801.37 1173.34,469.453 1173.3,137.495C1173.09,120.995 1174.13,104.37 1171.75,87.995C1169.55,78.745 1159.09,74.287 1150.38,74.953C807.17,75.037 464.003,74.995 120.798,74.953C110.339,75.453 99.464,73.495 89.298,76.453L89.294,76.458Z" style="fill:rgb(254,254,254);fill-rule:nonzero;"/>
    <path d="M89.292,76.458C99.458,73.5 110.333,75.458 120.792,74.958C464,75 807.167,75.042 1150.37,74.958C1159.08,74.292 1169.54,78.75 1171.75,88C1174.12,104.375 1173.08,121 1173.29,137.5C1173.33,469.458 1173.16,801.375 1173.33,1133.29C1172.41,1143.38 1176.41,1155.88 1168,1163.71C1160.83,1173.04 1147.62,1170.17 1137.41,1170.92C791.455,1170.58 445.455,1171.12 99.454,1170.67C87.538,1171.88 75.413,1162.62 76.746,1149.96C76.663,811.083 76.788,472.208 76.704,133.338C76.246,120.505 77.288,107.672 77.246,94.838C75.913,86.672 82.746,80.047 89.288,76.463L89.292,76.458Z" style="fill:rgb(21,72,137);"/>
    <path d="M120.208,1028.83C288.083,738.58 456.25,448.455 623.917,158.08C626.917,161.122 629.75,164.33 632.375,167.747C798.083,455.789 963.917,743.789 1129.62,1031.87C1132.04,1035.62 1136.83,1043.08 1139.25,1046.83C1131.46,1040.54 1121.58,1044.25 1112.71,1043.58C777.542,1043.91 442.375,1043.37 107.248,1044C112.498,1039.79 117.123,1034.87 120.206,1028.83L120.208,1028.83Z" style="fill:rgb(254,254,254);"/>
    <g transform="matrix(1.3541,0,0,1.3541,-47.3665,74.6884)">
        <path d="M485.89,225.93C486.42,225.67 487.48,225.16 488.02,224.91C502.68,226.26 517.66,228.11 532.36,226.67L533.36,226.44L533.62,226.74C534.19,227.4 534.77,228.07 535.36,228.75C533.48,233.35 536.73,233.96 540.68,233.49C540.76,235.43 540.86,237.38 540.97,239.33C541.45,239.85 541.93,240.37 542.42,240.9C548.62,246.78 545.02,255.8 545.89,263.1C551.13,263.46 556.34,264.17 561.59,264.54C562.54,266.72 562.26,269.05 561.58,271.27C556.63,271.14 551.68,271.99 546.75,271.27C545.64,272.32 544.58,273.42 543.57,274.55C543.86,292.07 537.57,310.36 524.07,322.09C521.74,323.48 522.69,325.26 524.8,326.13C540.87,331.17 559.16,334.7 570.72,348.03C590.26,366.98 602.29,392.5 623.29,409.95C640.8,423.55 663.2,427.13 683.96,433.03C691.18,435.05 699.05,441.68 697.02,449.97C692.99,460.7 679.07,464.88 669.19,459.51C640.61,450.63 610.51,445.65 583.9,431.33C572.93,424.29 567.65,411.19 556.35,404.44C555.93,404.5 555.08,404.64 554.65,404.71C553.33,425.61 547.49,446.13 546.31,467.01C554.93,510.63 584.1,546.95 596.36,589.49C604.56,605.59 606.7,623.94 613.4,640.59C623.62,645.88 636.06,641.9 647.04,644.39C653.91,649.58 644.37,654.47 639.34,655.09C624.38,657.96 610.6,670 594.81,665.27C589.72,664.49 588.75,658.93 587.3,654.92C580.71,641.11 576.77,626.23 571.43,611.93C553.75,580.33 523.48,558.53 503.33,528.82C499.35,525.31 497.76,519.6 492.88,517.15C474.95,540.92 461.11,569.13 436.38,587.15C427.48,594.58 417.25,600.62 409.98,609.81C401.79,617.77 390.71,623.54 386.48,634.81C386.71,637.11 387.03,639.41 387.36,641.71C388.51,650.33 402.91,656.76 396.32,665.25C383.84,669 373.52,658.48 364.38,651.63C358.53,646.11 351.18,638.73 352.28,630.23C357.91,622.57 364.11,615.16 370.21,607.78C369.83,606.97 369.45,606.16 369.08,605.37C371.31,605.67 373.55,605.85 375.78,606.14C375.86,605.98 376.01,605.66 376.08,605.5C374.69,605.37 373.31,605.26 371.92,605.17C390.66,582.83 403.54,556.37 421.78,533.62C440,502.91 433.52,466.57 440.03,432.98C439.72,417.93 447.09,404.28 448.53,389.48C435.64,401.4 421.8,414.13 412.08,429.09C407.55,452.55 424.92,476.3 416.36,499.36C410.89,514.17 386.67,512.33 385.61,495.92C390.19,471.94 377.41,449.49 374.83,426.04C374.82,415.3 381.43,405.97 388.29,398.25C400.19,382.51 412.1,366.78 424.26,351.25C436.73,335.62 456.9,331.11 475.61,328.17C476.22,327.47 476.84,326.77 477.47,326.07C462.73,312.1 460.76,289.49 469.54,271.7C462.83,267.14 453.97,270.74 446.32,269.73C444.01,259.02 457.07,264.31 462.54,260.4C464.98,251.46 461.78,238.56 471.55,233.51C476.27,230.84 485.04,233.24 485.89,225.93Z" style="fill-rule:nonzero;"/>
        <path d="M660.83,616.65C676.69,615.92 692.57,616.62 708.38,617.93C708.23,622.48 708.66,627.01 708.73,631.56C692.56,631.88 676.47,630.02 660.31,630.14C660.39,625.63 660.59,621.14 660.83,616.65Z" style="fill-rule:nonzero;"/>
        <path d="M735.37,620.24C751.35,620.36 767.49,619.22 783.36,621.56C783.67,625.17 783.64,628.81 783.54,632.44C767.47,632.34 751.27,632.49 735.33,630.57C735.26,627.12 735.32,623.68 735.37,620.24Z" style="fill-rule:nonzero;"/>
        <path d="M497.31,624.16C497.51,623.1 497.73,622.08 497.95,621.05C498.73,622.25 499.54,623.47 500.41,624.64C500.59,628.16 500.43,631.7 500.63,635.23C499.98,635.49 498.67,636.01 498.02,636.27C485.65,637.24 473.23,637.92 460.81,637.28C460.77,633.39 460.42,629.51 460.49,625.62C472.74,624.51 485.03,624.63 497.31,624.16Z" style="fill-rule:nonzero;"/>
        <path d="M514.49,622.74C527.09,622.61 539.66,620.92 552.27,621.33C552.59,625.63 552.71,629.95 552.4,634.26C540.41,635.99 526.52,634.07 515.8,638.89C515.15,637.34 514.42,635.82 513.62,634.36C515.2,630.68 514.31,626.61 514.49,622.74Z" style="fill-rule:nonzero;"/>
        <path d="M221.07,626.59C235.49,627.09 249.92,626.06 264.34,626.55C264.28,630.81 264.68,635.14 263.53,639.3C248.86,639.13 234.2,638.09 219.52,638.61C220.13,634.61 220.29,630.55 221.07,626.59Z" style="fill-rule:nonzero;"/>
        <path d="M285.64,626.41C300,626.75 314.36,625.72 328.71,626.32C329.02,630.44 329.26,634.56 329.45,638.68C314.67,638.82 299.9,639.6 285.12,639.57C285.15,635.18 285.33,630.79 285.64,626.41Z" style="fill-rule:nonzero;"/>
        <path d="M404.57,627.5C417.74,626.03 431.14,626.67 444.41,626.57C444.39,630.75 444.73,634.95 444.21,639.13C430.94,639.42 417.66,639.77 404.4,639.62C404.45,635.58 404.8,631.54 404.57,627.5Z" style="fill-rule:nonzero;"/>
        <path d="M623.75,669.66C641.19,669.68 658.8,668.58 676.27,669.22C676.56,669.89 677.13,671.24 677.42,671.91C677.18,675.86 677.36,679.82 677.44,683.78C659.5,683.8 641.55,682.41 623.61,683.43C623.46,679.56 623.72,675.63 622.74,671.86C623.07,671.11 623.41,670.38 623.75,669.66Z" style="fill-rule:nonzero;"/>
        <path d="M463.5,674.38C496.09,673.53 528.29,669.83 560.95,670.31C568.77,671.29 581.07,665.13 585.39,673.82C585.44,675.89 585.53,677.96 585.59,680.03C569.22,686.14 550.47,684.2 533.03,685.34C510.1,689.2 486.62,687.16 463.41,688.66C463.48,683.9 463.53,679.14 463.5,674.38Z" style="fill-rule:nonzero;"/>
        <path d="M698.38,670.18C714.42,670.87 730.76,669.21 746.77,671.14C746.73,675.53 746.3,679.91 746.4,684.32C730.08,685.44 713.74,684.17 697.41,684.13C697.82,679.49 698.33,674.85 698.38,670.18Z" style="fill-rule:nonzero;"/>
        <path d="M769.7,671.05C783.65,671.46 797.61,670.98 811.57,671.23C810.95,675.6 813.62,682.44 808.99,685C795.76,685.7 782.47,685.28 769.25,684.36C769.49,679.92 769.9,675.49 769.7,671.05Z" style="fill-rule:nonzero;"/>
        <path d="M325.62,677.56C343.24,677.21 360.77,675.8 378.38,675.71C378.35,680.28 377.47,684.79 377.54,689.37C360.47,691.38 343.01,690.12 325.79,690.39C325.89,686.11 325.35,681.84 325.62,677.56Z" style="fill-rule:nonzero;"/>
        <path d="M396.63,676.31C413.93,676.82 431.21,674.73 448.54,675.24C448.42,679.99 448.35,684.74 448.49,689.5C431.18,690.46 413.85,689.32 396.54,690.26C394.74,685.72 396.4,680.95 396.63,676.31Z" style="fill-rule:nonzero;"/>
        <path d="M182.63,679.27C199.2,680.15 215.79,678.27 232.36,679.41C233.71,682.94 233.18,686.75 233.25,690.44C215.95,691.9 198.54,689.85 181.3,691.4C181.44,687.32 181.66,683.23 182.63,679.27Z" style="fill-rule:nonzero;"/>
        <path d="M257.57,679.1C275.18,678.34 292.87,678.94 310.51,678.37C310.27,682.74 310.57,687.14 309.84,691.48C292.42,693.83 274.77,691.06 257.29,692.86C257.63,688.28 257.65,683.68 257.57,679.1Z" style="fill-rule:nonzero;"/>
    </g>
</svg>
