<?xml version="1.0" encoding="UTF-8" standalone="no"?>
<!DOCTYPE svg PUBLIC "-//W3C//DTD SVG 1.1//EN" "http://www.w3.org/Graphics/SVG/1.1/DTD/svg11.dtd">
<svg width="100%" height="100%" viewBox="0 0 9900 8650" version="1.1" xmlns="http://www.w3.org/2000/svg" xmlns:xlink="http://www.w3.org/1999/xlink" xml:space="preserve" xmlns:serif="http://www.serif.com/" style="fill-rule:evenodd;clip-rule:evenodd;stroke-linejoin:round;">
    <g id="Layer-1" serif:id="Layer 1">
        <path id="path4488" d="M286.538,8360.33L4947.96,286.54L9609.38,8360.33L286.588,8360.34L286.547,8360.33L286.538,8360.33Z" style="fill:rgb(226,10,22);fill-rule:nonzero;stroke:rgb(226,10,22);stroke-width:573.08px;"/>
        <path id="rect5050" d="M4947.96,1432.69L1279.16,7787.23L8616.78,7787.24L4947.98,1432.69L4947.96,1432.69L4947.96,1432.69Z" style="fill:white;fill-rule:nonzero;"/>
        <g>
            <path id="path2803" d="M3631.8,5809.23L4105.31,5809.23L3919.24,7429.49L3151.15,7429.49L3631.8,5809.23L3631.8,5809.23ZM4763.65,5809.23L5198.4,5809.23L5322.44,7429.49L4624.11,7429.49L4763.65,5809.23L4763.65,5809.23ZM5763.72,5809.23L6291.49,5809.23L6779.9,7429.49L6035.05,7429.49L5763.72,5809.23ZM2647.22,5809.23L3237.02,5809.23L2585.82,7429.49L1771.19,7429.49L2647.22,5809.23ZM6686.24,5809.23L7276.05,5809.23L8128.8,7429.49L7352.94,7429.49L6686.24,5809.23Z"/>
        </g>
        <g transform="matrix(7.66868,0,0,7.66868,194.305,218.469)">
            <path id="zwarte_persoon" d="M622.75,407.275C609.694,407.275 597.974,413.119 590.127,422.535L469.217,546.317L484.744,562.345L581.011,488.383C582.948,529.622 591.296,572.53 591.296,572.53L515.53,845.538L543.713,845.538L633.035,639.947L665.124,728L737.918,836.522L760.991,817.222L703.624,703.624L675.976,564.816L675.442,490.353L696.579,505.747L711.305,580.21L732.575,581.512L726.064,489.051L656.776,417.193C641.383,403.101 622.75,407.275 622.75,407.275ZM622.75,400.998C646.225,400.998 665.124,381.965 665.124,358.49C665.124,335.116 646.225,316.083 622.75,316.083C599.276,316.083 580.343,335.116 580.343,358.49C580.343,381.965 599.276,400.998 622.75,400.998" style="fill-rule:nonzero;stroke:white;stroke-width:3.91px;stroke-miterlimit:2;"/>
        </g>
    </g>
</svg>
