<?xml version="1.0" encoding="UTF-8" standalone="no"?><!DOCTYPE svg PUBLIC "-//W3C//DTD SVG 1.1//EN" "http://www.w3.org/Graphics/SVG/1.1/DTD/svg11.dtd"><svg width="100%" height="100%" viewBox="0 0 2500 2496" version="1.1" xmlns="http://www.w3.org/2000/svg" xmlns:xlink="http://www.w3.org/1999/xlink" xml:space="preserve" xmlns:serif="http://www.serif.com/" style="fill-rule:evenodd;clip-rule:evenodd;stroke-linejoin:round;stroke-miterlimit:2;"><path d="M150.625,0l17.458,0c-6.833,1.625 -12.916,5.333 -18.208,9.917c13.958,-1.167 27.833,-3.417 41.833,-3.459c706.917,-0.041 1413.83,0 2120.75,0c50.417,-0.041 100.334,22.292 134.209,59.625c31.25,33.709 49.375,79.5 48.708,125.584l0,2112.5c0.708,22.375 -4.625,44.291 -10.792,65.666l6.584,-1.541c0.166,2.666 0.458,8 0.583,10.666l-5.292,-0.333c0.292,2.25 0.875,6.708 1.167,8.917l-6.083,-1.375c0.541,2.416 1.541,7.291 2.083,9.75l-4.583,-0.959c0.291,6.375 -2.25,12.209 -9.125,13.209c1.5,8.958 -4.875,13.5 -12.417,16.375c0.25,12.833 -13.208,20.375 -21.708,28.166c-1.709,0.209 -5.125,0.625 -6.834,0.834c-2.833,7.75 -8.625,13.916 -17.5,12.666l1.084,5.042c-2.084,-0.667 -6.25,-2 -8.334,-2.667c-1.875,7.459 -8.541,11.125 -14.5,14.875c-3,-0.541 -9,-1.583 -12,-2.083l1.25,4.542c-2.625,1.375 -7.875,4.166 -10.5,5.541c-5.125,-0.333 -10.166,-0.708 -15.208,-1.041l0.375,5.416l-24.917,0l-2.958,-5.958c-15.542,-1.125 -31.083,-0.167 -46.583,-0.375c-701.167,-0.083 -1402.33,0.125 -2103.5,-0.083l3.291,6.416l-28.958,0l1.083,-5.458c-5.125,0.375 -10.208,0.75 -15.333,1.083c-2.667,-1.375 -7.917,-4.166 -10.542,-5.541l1.375,-4.667c-3,0.542 -9,1.583 -12,2.083c-7.375,-6.458 -18.333,-7.791 -23.916,-16.5c-7.959,-0.416 -12.625,-6.416 -15.417,-13.291c-9.167,1.041 -14.208,-7.542 -20.167,-12.792c-5.333,-5.958 -13.583,-11 -13.083,-20c-7.667,-0.5 -7.875,-6.583 -7.583,-12.708c-7,-0.875 -9.709,-6.625 -9.167,-13.125l-4.667,1c0.542,-2.459 1.667,-7.417 2.209,-9.875l-6.25,1.541c0.375,-2.333 1.083,-6.916 1.458,-9.25l-5.958,0.709c0.708,-3.542 2.125,-10.584 2.833,-14.125l-6.875,1.708c0.583,-3.458 1.75,-10.375 2.333,-13.833l-6.5,1.25c0.709,-7.25 1.5,-14.459 2.334,-21.625l-6.167,0.25l0,-2169.62l6.167,0.375c-0.834,-7.209 -1.625,-14.417 -2.334,-21.667l6.542,1.333c-0.583,-3.458 -1.792,-10.416 -2.375,-13.916l6.875,1.75c-0.708,-3.5 -2.125,-10.584 -2.833,-14.125l5.958,0.708c-0.375,-2.292 -1.125,-6.917 -1.458,-9.208l6.208,1.458c-0.542,-2.458 -1.625,-7.375 -2.167,-9.833l4.667,1.041c-0.542,-7.333 2.625,-13.25 10.708,-13c-0.791,-1.958 -2.458,-5.916 -3.25,-7.916c2.292,-1.209 6.959,-3.625 9.25,-4.834c0.292,-1.75 0.875,-5.208 1.167,-6.916c7.333,-9.334 15.958,-17.792 25.167,-25.25c1.791,-0.167 5.333,-0.459 7.083,-0.584c2.042,-7.416 7.708,-12.5 15.292,-13.583c5.708,-8.542 16.5,-10 23.958,-16.375c3,0.5 8.958,1.542 11.958,2.083l-1.416,-4.666c2.625,-1.375 7.875,-4.084 10.541,-5.459c4.834,0.167 9.709,0.375 14.584,0.625l0.333,-5.083m13.25,64.417c-56.333,11.875 -100.292,65.375 -100.417,123.041c-0.041,698.625 0,1397.25 0,2095.88c0.084,13.375 -0.625,26.875 1.084,40.209c5.583,37.708 28.166,72.958 61.125,92.416c19.875,11.875 42.833,18.834 66.041,18.709c695.792,-0.084 1391.62,-0 2087.46,-0.042c23.583,-0.208 47.916,1.958 70.666,-5.792c51.834,-15.416 90.5,-66.291 90.75,-120.458l0,-2120.92c-0.583,-46.208 -28.541,-91.083 -69.833,-111.916c-17.958,-9.209 -38.083,-14.334 -58.292,-14.375c-697.208,0.083 -1394.42,-0 -2091.62,0.041c-19,0.209 -38.291,-1.416 -56.958,3.209m-158.625,103.208c-4,13.125 -1.542,27.208 -2.042,40.708c-0.083,701.292 0.209,1402.54 -0.125,2103.83c0.959,6.541 -1.708,16.541 6.5,19.416c-2.75,-92.416 0.459,-184.958 -1.333,-277.416c0.833,-70.792 0.625,-141.667 -0.167,-212.459c1.209,-83.375 0.209,-166.708 0.584,-250.041c-0.709,-173.584 0.625,-347.209 -0.334,-520.792c0,-177.75 0.792,-355.583 0.042,-533.375c1.083,-124.333 -1.292,-248.708 1.125,-373.042l-4.25,3.167Z" style="fill:#fff;fill-rule:nonzero;"/><path d="M163.875,64.417c18.667,-4.625 37.958,-3 56.958,-3.209c697.209,-0.041 1394.42,0.042 2091.62,-0.041c20.209,0.041 40.334,5.166 58.292,14.375c41.292,20.833 69.25,65.708 69.833,111.916l0,2120.92c-0.25,54.167 -38.916,105.042 -90.75,120.458c-22.75,7.75 -47.083,5.584 -70.666,5.792c-695.834,0.042 -1391.67,-0.042 -2087.46,0.042c-23.208,0.125 -46.166,-6.834 -66.041,-18.709c-32.959,-19.458 -55.542,-54.708 -61.125,-92.416c-1.709,-13.334 -1,-26.834 -1.084,-40.209c0,-698.625 -0.041,-1397.25 0,-2095.88c0.125,-57.666 44.084,-111.166 100.417,-123.041Z" style="fill:#005ca1;"/><path d="M1243.29,152.042c14.958,-7.417 35.125,-4.542 46.125,8.458c7.041,8.5 12.208,18.333 18,27.667c347.416,563.666 694.75,1127.38 1042.21,1691.04c6.708,11.459 16.583,22.917 15.375,37.125c-1.667,19.334 -20.833,34.125 -39.875,32.542c-701.458,-0.083 -1402.88,0 -2104.29,-0.042c-11.958,-0.208 -24.041,0.834 -35.958,-0.875c-14.375,-3.666 -26.875,-16.208 -28.042,-31.416c-1.208,-8.5 2.792,-16.459 6.917,-23.542c351.125,-569.917 702.417,-1139.75 1053.54,-1709.67c7.416,-11.25 13,-25.291 26,-31.291Z" style="fill:#fff;"/><path d="M1163.83,1613.54c43.792,-0 87.584,0.208 131.375,-0.084c14.292,82.125 26.084,164.667 40.292,246.792c-47.875,1.958 -95.917,0.25 -143.833,0.833c-24.375,-0.5 -48.792,1.084 -73.084,-0.833c15.75,-82.083 29.875,-164.5 45.25,-246.708Zm-555.208,6.5c44.417,-0.667 88.917,-0.875 133.333,0.083c-22.083,79.667 -44.625,159.208 -66.625,238.917c-72.375,0.125 -144.791,1.041 -217.125,-0.459c49.584,-79.875 100.875,-158.666 150.417,-238.541Zm1100.08,-1.917c44.917,1.125 89.875,-0.25 134.792,0.667c4.458,3.875 6.958,9.5 10.083,14.5c42.834,74.833 87.5,148.625 129.792,223.75c-70.542,-0 -141.083,-0.167 -211.625,0.083c-18.875,-68.917 -37,-138.083 -55.583,-207.083c-3,-10.5 -6.084,-21.042 -7.459,-31.917Z" style="fill:#1f1a17;fill-rule:nonzero;"/><path d="M1280.04,726.042c14.875,-7.709 32.625,-8.792 48.541,-4c11.292,6.291 21.209,14.75 31.667,22.333c66.333,51.542 132.708,103.083 199.125,154.583c16.875,13.459 28.75,33.417 29.458,55.334c0.25,73.583 0.5,147.208 1.042,220.791c0.708,12.292 -6.042,25.292 -17.167,30.959c-9.375,5.458 -20.625,5.333 -31.083,6.041c-15.958,-0.25 -29.792,-10.541 -39.167,-22.75c-7,-22.041 -7.416,-45.583 -7.041,-68.5c-0.042,-38.916 0.083,-77.833 -0,-116.75c0.5,-9.916 -4.292,-19.083 -10.584,-26.416c-9.625,-11.209 -19.5,-22.5 -31.916,-30.709c-38.625,-27 -75.625,-56.333 -114.917,-82.333c2.917,97.917 7.25,195.75 10.542,293.667c0.416,13.291 -1.709,27.5 -10.125,38.25c-7.625,11.791 -19.834,19.208 -30.542,27.833c-72.75,56.625 -145.375,113.333 -218.167,169.958c-18.75,15.542 -37.625,32.792 -47.041,55.792c-33.542,97.208 -67.209,194.375 -100.834,291.583c-7,22.834 -27.333,39.209 -49.083,47.292c-21.208,4.875 -44,-3.208 -59.75,-17.708c-9.083,-7.375 -17.708,-17.334 -17.833,-29.667c-0.375,-18.125 -0,-36.75 6.125,-54c36.375,-101.667 75.916,-202.25 111.041,-304.375c12.917,-25 35.125,-43.125 55.417,-62c47.792,-39.75 95.958,-79.083 143.542,-119.125c12.708,-10.792 27.166,-20.583 35.458,-35.542c1.917,-44.375 -0.792,-88.875 -0.542,-133.291c-0.375,-68.042 -0.833,-136.084 -1.208,-204.125c0.333,-11.334 2.708,-23.917 11.667,-31.709c28.875,-30.833 65.208,-53.791 103.375,-71.416Zm26.5,564.208c14.541,-10 28.083,-21.458 43.375,-30.333c73.166,113.625 147.291,226.666 220.791,340.083c18.209,27.625 35.417,55.875 55.292,82.292c14.333,23.791 9.542,53.666 0.917,78.541c-14.167,18.209 -37.167,29.292 -60.25,28.875c-18.042,1.084 -35.292,-9.416 -44.417,-24.666c-91.292,-144 -182.417,-288.125 -273.917,-432c18.667,-15.209 38.875,-28.417 58.209,-42.792Zm-375.167,-154.5c65.292,-55.875 130.292,-112.083 195.5,-168.125c2.583,42.667 0.167,85.5 1.167,128.25c-0.917,7.542 2.666,17.792 -5.084,22.667c-38,31.541 -75.708,63.416 -113.708,94.916c-20,16.75 -50.292,23.042 -73.375,8.875c-11.208,-11.458 -20.917,-26.375 -19.958,-43.125c0.75,-15.333 2.958,-32.958 15.458,-43.458Zm274.333,-641.958c35.209,-5.917 72.334,-1.292 105.334,12.25c18.666,13.541 28.541,36.125 32.541,58.25c0.792,24.208 -7.625,47.708 -18.208,69.125c-8,16.208 -22.458,27.708 -36.167,38.916c-17.041,14.25 -36.166,25.917 -56.208,35.417c-28.083,8.792 -61.5,8.458 -86.667,-8.25c-11.083,-10.292 -17.916,-24.458 -23.833,-38.208c-6.042,-23.084 -4.833,-47.334 -3.708,-71c3.375,-23.334 13.458,-45.75 28.083,-64.25c14.917,-17.5 37,-26.709 58.833,-32.25Z" style="fill:#1f1a17;fill-rule:nonzero;"/></svg>