<?xml version="1.0" encoding="UTF-8" standalone="no"?>
<!DOCTYPE svg PUBLIC "-//W3C//DTD SVG 1.1//EN" "http://www.w3.org/Graphics/SVG/1.1/DTD/svg11.dtd">
<!-- GeoHints -->
<svg width="100%" height="100%" viewBox="0 0 681 899" version="1.1" xmlns="http://www.w3.org/2000/svg" xmlns:xlink="http://www.w3.org/1999/xlink" xml:space="preserve" xmlns:serif="http://www.serif.com/" style="fill-rule:evenodd;clip-rule:evenodd;stroke-linejoin:round;stroke-miterlimit:2;">
    <g transform="matrix(1,0,0,1.00475,-58.8427,-58.7791)">
        <path d="M738.843,78.407C738.843,67.413 729.888,58.501 718.843,58.501L78.843,58.501C67.797,58.501 58.843,67.413 58.843,78.407L58.843,933.196C58.843,944.189 67.797,953.101 78.843,953.101L718.843,953.101C729.888,953.101 738.843,944.189 738.843,933.196L738.843,78.407Z" style="fill:white;"/>
    </g>
    <g transform="matrix(1,0,0,1,-58.8427,-58.2511)">
        <path d="M84.41,80.4C170.55,78.17 706.78,80.49 716.35,82.81C716.97,187.88 720.9,880.6 719.33,936.33C611.54,936.77 503.74,936.95 395.99,935C290.85,933.76 185.69,935.05 80.55,935.54C80.3,837.69 82.29,147.54 84.41,80.4" style="fill:rgb(10,103,180);fill-rule:nonzero;"/>
    </g>
    <g transform="matrix(1,0,0,1,-58.8427,-58.2511)">
        <rect x="117.843" y="685.435" width="558" height="205" style="fill:white;"/>
    </g>
    <g transform="matrix(1,0,0,1,-58.8427,-58.2511)">
        <path d="M410.31,742.75C406.67,728.19 434.42,730.05 428.53,744.61C434.8,746.21 441.94,743.41 442.61,736.31C445.37,736.32 448.13,736.37 450.89,736.44C450.35,742.88 445.86,749.04 439.38,750.41C432.04,750.89 424.68,750.29 417.34,750.53C417.41,748.94 417.48,747.35 417.55,745.78C414.68,746 412.22,744.82 410.31,742.75Z" style="fill-rule:nonzero;"/>
        <path d="M245.71,743.88C247.73,733.23 267.67,735.62 263.22,747.59C270.28,746.43 285.19,750.37 283.76,739.25C289.99,739.46 298.13,745.37 292.9,751.88C283.38,757.81 271.54,753.62 260.99,754.84C254.19,755.92 243.9,752.52 245.71,743.88Z" style="fill-rule:nonzero;"/>
        <path d="M314.24,750.25C319.99,738.47 335.7,744.84 346,743.35C353.98,741.61 365.94,746.25 361.27,756.27C358.43,757.06 355.55,757.7 352.62,757.97C351.09,747.4 338.28,752.34 331.07,751.2C331.58,752.53 332.09,753.84 332.62,755.19C329.33,764.77 310.02,761.43 314.24,750.25Z" style="fill-rule:nonzero;"/>
        <path d="M167.6,784.68C162.58,767.14 187.28,761.65 199.58,767.28C213.26,772.34 207.22,788.99 208.49,800C209.66,807.74 207.88,821.07 196.88,818.31C188.92,814.1 187.99,803.43 181.61,797.46C181.09,797.49 180.05,797.53 179.52,797.55C179.47,799.13 179.43,800.72 179.4,802.32C182.51,802.47 184.88,804.39 186.74,806.72C190.22,818.64 172.93,822.55 168.15,812.78C164.78,804.61 165.1,789.3 177.03,789.16C188.25,787.52 190.68,800.62 196.25,807.31C196.23,797.51 196.91,787.6 196.01,777.86C192.08,767.53 174.14,774 178.52,784.9C174.88,784.77 171.24,784.69 167.6,784.68Z" style="fill-rule:nonzero;"/>
        <path d="M249.12,781.22C252.24,763.18 280.96,760.81 288.81,776.19C290.1,786.36 289.36,796.83 289.22,807.08C285.1,821.95 264.08,822.18 253.46,814.56C244.86,809.33 247.85,793.08 259.01,794.27C267.5,792.46 271.1,806.94 261.88,807.89C264.46,814.42 277.14,812.92 277.27,805.27C277.21,796.14 278.01,786.86 277.09,777.81C272.3,768.98 257.01,775.73 259.37,785.45C255.75,785.04 246.58,787.8 249.12,781.22Z" style="fill-rule:nonzero;"/>
        <path d="M297.17,771.39C301.99,762.84 317.34,767.28 317.44,776.97C317.53,791.31 317.33,805.66 317.42,820C317.74,828.62 309.02,835.52 300.74,834.72C297.96,831.95 295.13,829.24 292.23,826.61C297.25,826.52 303.76,824.8 304.49,818.9C305.13,807.07 304.37,795.19 305.26,783.36C298.34,785.29 292.67,777.05 297.17,771.39Z" style="fill-rule:nonzero;"/>
        <path d="M322.78,777.02C330.17,762.47 360.95,764.09 360.38,783C360.32,795.13 360.23,807.27 360.38,819.4C356.16,820.43 351.82,820.41 347.59,819.43C347.58,806.93 347.69,794.43 348.3,781.95C348.69,774.56 338.06,773.23 334.57,778.73C334.6,781.34 334.59,783.96 334.49,786.58C336.35,788.53 338.89,789.4 341.51,789.78C341.64,792.56 341.69,795.35 341.52,798.14C339.01,798.24 336.47,798.64 334.5,800.33C334.51,801.69 334.51,803.06 334.5,804.45C339.19,804.4 343.88,807.9 342.48,813.06C340.89,823.35 324.2,822.42 322.34,812.72C321.77,806.61 319.66,797.45 326.7,794.34C320.17,791.17 322.55,782.8 322.78,777.02Z" style="fill-rule:nonzero;"/>
        <path d="M363.99,772.16C367.58,764.71 381.49,766.18 381.95,775.05C382.67,785.58 380.49,796.43 382.27,806.91C383.47,812.16 391.63,813.91 393.14,807.94C393.94,794.8 393.2,781.58 393.92,768.43C397.82,768.48 401.72,768.59 405.63,768.56C405.65,782.56 405.78,796.6 405.35,810.59C402.96,822.08 386.56,823.47 379.27,815.82C374.15,823.02 366.03,818.92 363.91,811.66C366.1,811.6 369.45,811.72 369.43,808.66C369.78,800.01 369.47,791.34 369.7,782.69C364.4,782.47 361.88,776.61 363.99,772.16Z" style="fill-rule:nonzero;"/>
        <path d="M413.89,773.9C420.97,767.14 432.08,767.32 440.93,769.81C450.75,772.7 453.49,786 447.73,793.67C441.13,801.15 429.8,800.11 422.3,806.27C423.47,816.4 435.08,805.29 440.98,805.61C449.98,803.98 450.18,814.61 449.72,820.73C446.29,820.71 442.85,820.72 439.43,820.73C439.08,818.87 438.73,817.02 438.4,815.18C431.05,814.8 425.65,822.72 417.96,820.27C408.38,819.21 407.16,805.06 414.47,800.38C421.26,796.33 429.53,795.42 436.18,791.17C443.45,785.56 437.29,772.05 427.99,775.94C422.51,776.61 422.79,780.94 427.64,782.53C427.62,784.84 427.6,787.17 427.63,789.5C424.05,793.22 417.85,794.42 413.43,791.56C407.9,787.25 409,778.28 413.89,773.9Z" style="fill-rule:nonzero;"/>
        <path d="M459.82,768.51C467.38,766.24 475.47,771.69 474.38,779.99C474.06,793.59 475.05,807.25 473.44,820.78C469.99,822.06 465.26,821.56 461.51,820.5C461.8,808.48 461.54,796.44 461.79,784.42C450.75,786.8 449.79,769.79 459.82,768.51Z" style="fill-rule:nonzero;"/>
        <path d="M532.08,769.82C536.89,769.03 543.98,768.26 546.37,773.69C550.63,785.94 535.2,795.34 540.4,807.66C541.07,813.21 549.19,814.96 551.33,809.48C552.26,799.09 551.14,788.48 552.91,778.16C558.93,765.86 582.22,766.25 586.17,780.01C586.61,793.69 586.33,807.42 586.21,821.11C583.05,823.91 577.6,821.67 573.53,822.38C573.41,808.7 573.93,795 573.54,781.34C573.08,776.34 565.93,776.19 564.82,780.88C563.55,791.58 565.97,802.69 563.34,813.19C555.7,828.3 525.82,823.65 526.49,805C524.82,796.71 531.43,790.92 534.24,783.97C525.17,785.85 524.67,771.99 532.08,769.82Z" style="fill-rule:nonzero;"/>
        <path d="M590.35,777.3C591.44,766.88 609.9,766.47 611.33,777C611.93,792.12 611.27,807.3 611.38,822.45C607.37,822.53 603.36,822.52 599.36,822.4C599.32,810.41 599.38,798.42 599.51,786.43C594.59,786.37 588.94,782.95 590.35,777.3Z" style="fill-rule:nonzero;"/>
        <path d="M624.32,770.35C630.76,769.21 637.17,774.38 637.23,780.96C637.69,795.32 636.82,809.67 636.71,824.03C636.99,832.35 627.76,839.51 619.77,837.4C616.76,835.17 614.46,832.16 611.72,829.65C616.97,830.24 623.72,828.27 624.16,822.05C625,810.19 624.27,798.25 624.72,786.36C623.08,786.43 621.45,786.48 619.83,786.55C611.84,782.68 615.81,769.94 624.32,770.35Z" style="fill-rule:nonzero;"/>
        <path d="M486.51,772.47C490.48,771.62 495.58,770.78 499.02,773.04C499.74,784.62 497.69,796.34 498.97,807.94C500.19,813.64 509.98,813.12 510.12,807C510.86,795.53 510.37,783.98 510.63,772.48C514.86,772.26 519.1,772.26 523.33,772.47C523.33,786.01 523.61,799.6 522.32,813.07C517.58,822.69 502.93,824.76 495.96,816.44C492.37,821.4 484.72,823.65 479.92,819.08C476.06,815.59 477.22,809.72 480.74,806.47C482.62,806.45 484.49,806.39 486.38,806.34C486.47,795.05 486.64,783.76 486.51,772.47Z" style="fill-rule:nonzero;"/>
        <path d="M211.48,782C210.57,770.29 234.28,770 229.32,783C230.47,782.86 231.63,782.74 232.8,782.63C234.9,780.53 235.64,777.73 235.56,774.82C238.58,775.76 241.6,776.71 244.54,777.89C247.7,788.5 234.7,790.92 227,790.15C221.22,789.93 211.91,789.57 211.48,782Z" style="fill-rule:nonzero;"/>
        <path d="M211.42,805.25C207.33,791.62 234.55,789.28 229.35,804.18C231.16,803.67 232.89,802.93 234.39,801.78C234.71,799.56 235.11,797.35 235.51,795.16C238.52,796.42 241.54,797.65 244.64,798.69C246.62,805.12 241.22,810.27 235.03,810.44C227.08,810.33 216.98,812.57 211.42,805.25Z" style="fill-rule:nonzero;"/>
    </g>
    <g transform="matrix(1,0,0,1,-58.8427,-58.2511)">
        <path d="M390.25,121.46C390.87,121.45 392.1,121.45 392.72,121.45C395.77,125.06 677.27,609.09 677.73,611.4C596.17,611.91 219.09,611.62 112.15,610.37C113.8,604.04 301.97,279.47 390.25,121.46" style="fill:white;fill-rule:nonzero;"/>
    </g>
    <g transform="matrix(1,0,0,1,-58.8427,-58.2511)">
        <path d="M389.52,251.52C396.58,245.29 408.72,244.83 415.94,251.05C423.43,259.44 422.42,272.32 417.87,281.93C415.36,286.38 416.37,292.44 420.06,295.9C427,300.18 435.64,302.45 440.42,309.59C446.28,318.73 449.35,329.29 453.76,339.16C460.47,352.96 456.71,368.66 457.5,383.39C456.71,383.94 455.93,384.49 455.15,385.05C456.73,388.73 458.65,392.52 458.62,396.61C454.48,403.49 443.45,399.81 442.66,392.36C442.9,388.13 436.21,387.53 437.89,383.01C439.54,369.6 439.39,353.86 428.77,344.02C424.24,354 426.85,365.5 427.87,375.99C428.96,384.25 436.41,394.23 429.17,401.44C433.77,419.12 441.79,435.82 448.03,452.99C457.39,466.42 466.49,480.14 476.97,492.76C480.92,489.1 485.18,496.25 488.87,492.33C495.396,491.53 484.79,510.958 488.42,514.3C481.07,520.2 473.95,522.42 467.03,528.82C453.8,535.24 443.23,526.94 458.91,510.97C453.4,505.14 448.05,499.15 442.41,493.44C441.86,493.39 427.67,480.92 429.39,480.7C417.92,467.07 410.31,450.81 402.22,435.07C388.73,445.72 382.72,464.23 375.1,479.53C369.969,489.833 380.57,486.43 354.25,513.14C356.294,507.228 320.642,530.724 325.07,521.17C319.34,517.58 313.06,514.57 308.31,509.65C308.56,502.45 318.45,507.7 323.02,506.73C331.13,507.93 333.3,498.83 336.35,493.34C353.06,461.3 361.36,425.7 377.66,393.49C384.28,383.31 382.74,370.56 383.46,358.97C374,367.32 362.74,374.39 350.57,377.79C349.32,377.14 348.04,376.56 346.72,376.09C345.75,378.88 345.53,382.26 343.24,384.36C331.97,386.85 329.52,365.1 341.69,365.27C341.57,364.31 341.46,363.35 341.35,362.39C351.48,357.39 361.11,351.1 369.07,343.02C377.43,334.18 371.28,320.47 377.54,310.6C380.94,303.31 389.72,301.51 394.35,295.41C396.4,293.02 395.28,288.51 391.87,288.33C383.88,287.27 382.63,277.37 383.95,270.93C385.92,264.44 383.86,256.49 389.52,251.52Z" style="fill-rule:nonzero;"/>
        <g>
            <g transform="matrix(1,0,0,1,0,-1)">
                <path d="M546.957,483.587C575.991,483.562 546.959,483.715 576.043,483.571C549.603,511.411 523.39,537.62 496.14,564.69C470.04,564.44 495.85,564.74 469.73,564.49C493.08,538.45 522.847,509.027 546.957,483.587Z" style="fill-rule:nonzero;"/>
            </g>
            <g transform="matrix(1,0,0,1,-60,-1)">
                <path d="M546.957,483.587C575.991,483.562 546.959,483.715 576.043,483.571C549.603,511.411 523.39,537.62 496.14,564.69C470.04,564.44 495.85,564.74 469.73,564.49C493.08,538.45 522.847,509.027 546.957,483.587Z" style="fill-rule:nonzero;"/>
            </g>
            <g transform="matrix(1,0,0,1,-125,-1)">
                <path d="M546.957,483.587C575.991,483.562 546.959,483.715 576.043,483.571C549.603,511.411 523.39,537.62 496.14,564.69C470.04,564.44 495.85,564.74 469.73,564.49C493.08,538.45 522.847,509.027 546.957,483.587Z" style="fill-rule:nonzero;"/>
            </g>
            <g transform="matrix(1,0,0,1,-185,-1)">
                <path d="M546.957,483.587C575.991,483.562 546.959,483.715 576.043,483.571C549.603,511.411 523.39,537.62 496.14,564.69C470.04,564.44 495.85,564.74 469.73,564.49C493.08,538.45 522.847,509.027 546.957,483.587Z" style="fill-rule:nonzero;"/>
            </g>
            <g transform="matrix(1,0,0,1,-254,-1)">
                <path d="M546.957,483.587C575.991,483.562 546.959,483.715 576.043,483.571C549.603,511.411 523.39,537.62 496.14,564.69C470.04,564.44 495.85,564.74 469.73,564.49C493.08,538.45 522.847,509.027 546.957,483.587Z" style="fill-rule:nonzero;"/>
            </g>
        </g>
    </g>
</svg>
