<?xml version="1.0" encoding="UTF-8" standalone="no"?>
<!DOCTYPE svg PUBLIC "-//W3C//DTD SVG 1.1//EN" "http://www.w3.org/Graphics/SVG/1.1/DTD/svg11.dtd">
<!-- GeoHints -->
<svg width="100%" height="100%" viewBox="0 0 680 701" version="1.1" xmlns="http://www.w3.org/2000/svg" xmlns:xlink="http://www.w3.org/1999/xlink" xml:space="preserve" xmlns:serif="http://www.serif.com/" style="fill-rule:evenodd;clip-rule:evenodd;stroke-linejoin:round;stroke-miterlimit:2;">
    <g transform="matrix(1,0,0,0.783327,-58.843,-45.8254)">
        <path d="M738.843,78.407C738.843,67.413 729.888,58.501 718.843,58.501L78.843,58.501C67.797,58.501 58.843,67.413 58.843,78.407L58.843,933.196C58.843,944.189 67.797,953.101 78.843,953.101L718.843,953.101C729.888,953.101 738.843,944.189 738.843,933.196L738.843,78.407Z" style="fill:white;"/>
    </g>
    <g transform="matrix(1,0,0,0.779624,-58.843,-45.4138)">
        <path d="M84.41,80.4C170.55,78.17 706.78,80.49 716.35,82.81C716.97,187.88 720.9,880.6 719.33,936.33C611.54,936.77 503.74,936.95 395.99,935C290.85,933.76 185.69,935.05 80.55,935.54C80.3,837.69 82.29,147.54 84.41,80.4" style="fill:rgb(10,103,180);fill-rule:nonzero;"/>
    </g>
    <g transform="matrix(1,0,0,1,-58.843,-9.25088)">
        <path d="M390.25,121.46C390.87,121.45 392.1,121.45 392.72,121.45C395.77,125.06 677.27,609.09 677.73,611.4C596.17,611.91 219.09,611.62 112.15,610.37C113.8,604.04 301.97,279.47 390.25,121.46" style="fill:white;fill-rule:nonzero;"/>
    </g>
    <g transform="matrix(1.11842,0,0,1.11842,-124.722,-88.5295)">
        <g transform="matrix(0.80088,0,0,0.80088,87.6307,122.992)">
            <path d="M389.52,251.52C396.58,245.29 408.72,244.83 415.94,251.05C423.43,259.44 422.42,272.32 417.87,281.93C415.36,286.38 416.37,292.44 420.06,295.9C427,300.18 435.64,302.45 440.42,309.59C446.28,318.73 449.35,329.29 453.76,339.16C460.47,352.96 456.71,368.66 457.5,383.39C456.71,383.94 455.93,384.49 455.15,385.05C456.73,388.73 458.65,392.52 458.62,396.61C454.48,403.49 443.45,399.81 442.66,392.36C442.9,388.13 436.21,387.53 437.89,383.01C439.54,369.6 439.39,353.86 428.77,344.02C424.24,354 426.85,365.5 427.87,375.99C428.96,384.25 436.41,394.23 429.17,401.44C433.77,419.12 441.79,435.82 448.03,452.99C457.39,466.42 466.49,480.14 476.97,492.76C480.92,489.1 485.18,496.25 488.87,492.33C495.396,491.53 484.79,510.958 488.42,514.3C481.07,520.2 473.95,522.42 467.03,528.82C453.8,535.24 443.23,526.94 458.91,510.97C453.4,505.14 448.05,499.15 442.41,493.44C441.86,493.39 427.67,480.92 429.39,480.7C417.92,467.07 410.31,450.81 402.22,435.07C388.73,445.72 381.641,465.117 371.379,478.786C362.526,490.577 364.568,486.43 349.04,509.791C355.17,501.836 328.592,526.749 325.07,521.17C319.34,517.58 313.06,514.57 308.31,509.65C308.56,502.45 318.45,507.7 323.02,506.73C331.13,507.93 333.3,498.83 336.35,493.34C353.06,461.3 361.36,425.7 377.66,393.49C384.28,383.31 382.74,370.56 383.46,358.97C374,367.32 362.74,374.39 350.57,377.79C349.32,377.14 348.04,376.56 346.72,376.09C345.75,378.88 345.53,382.26 343.24,384.36C331.97,386.85 329.52,365.1 341.69,365.27C341.57,364.31 341.46,363.35 341.35,362.39C351.48,357.39 361.11,351.1 369.07,343.02C377.43,334.18 371.28,320.47 377.54,310.6C380.94,303.31 389.72,301.51 394.35,295.41C396.4,293.02 395.28,288.51 391.87,288.33C383.88,287.27 382.63,277.37 383.95,270.93C385.92,264.44 383.86,256.49 389.52,251.52Z" style="fill-rule:nonzero;"/>
        </g>
        <g transform="matrix(1,0,0,1,0,11)">
            <g transform="matrix(1,0,0,1,0,-1)">
                <path d="M546.957,483.587C575.991,483.562 546.959,483.715 576.043,483.571C549.603,511.411 523.39,537.62 496.14,564.69C470.04,564.44 495.85,564.74 469.73,564.49C493.08,538.45 522.847,509.027 546.957,483.587Z" style="fill-rule:nonzero;"/>
            </g>
            <g transform="matrix(1,0,0,1,-60,-1)">
                <path d="M546.957,483.587C575.991,483.562 546.959,483.715 576.043,483.571C549.603,511.411 523.39,537.62 496.14,564.69C470.04,564.44 495.85,564.74 469.73,564.49C493.08,538.45 522.847,509.027 546.957,483.587Z" style="fill-rule:nonzero;"/>
            </g>
            <g transform="matrix(1,0,0,1,-125,-1)">
                <path d="M546.957,483.587C575.991,483.562 546.959,483.715 576.043,483.571C549.603,511.411 523.39,537.62 496.14,564.69C470.04,564.44 495.85,564.74 469.73,564.49C493.08,538.45 522.847,509.027 546.957,483.587Z" style="fill-rule:nonzero;"/>
            </g>
            <g transform="matrix(1,0,0,1,-185,-1)">
                <path d="M546.957,483.587C575.991,483.562 546.959,483.715 576.043,483.571C549.603,511.411 523.39,537.62 496.14,564.69C470.04,564.44 495.85,564.74 469.73,564.49C493.08,538.45 522.847,509.027 546.957,483.587Z" style="fill-rule:nonzero;"/>
            </g>
            <g transform="matrix(1,0,0,1,-254,-1)">
                <path d="M546.957,483.587C575.991,483.562 546.959,483.715 576.043,483.571C549.603,511.411 523.39,537.62 496.14,564.69C470.04,564.44 495.85,564.74 469.73,564.49C493.08,538.45 522.847,509.027 546.957,483.587Z" style="fill-rule:nonzero;"/>
            </g>
        </g>
    </g>
</svg>
