<?xml version="1.0" encoding="UTF-8" standalone="no"?>
<!DOCTYPE svg PUBLIC "-//W3C//DTD SVG 1.1//EN" "http://www.w3.org/Graphics/SVG/1.1/DTD/svg11.dtd">
<!-- GeoHints -->
<svg width="100%" height="100%" viewBox="0 0 185 186" version="1.1" xmlns="http://www.w3.org/2000/svg" xmlns:xlink="http://www.w3.org/1999/xlink" xml:space="preserve" xmlns:serif="http://www.serif.com/" style="fill-rule:evenodd;clip-rule:evenodd;stroke-linejoin:round;stroke-miterlimit:2;">
    <g transform="matrix(1,0,0,1,-12.931,-10)">
        <path d="M13.11,11.26C13.61,10.95 14.61,10.32 15.11,10C74.1,10.14 133.08,9.9 192.07,10.08C195.38,9.58 197.42,13.03 196.95,15.96C196.93,74.68 197.01,133.4 196.95,192.11C197.26,194.84 194.38,196.09 192.09,195.87C133.69,195.72 75.29,196.11 16.89,195.91C14.26,196.19 12.59,193.39 12.99,191.03C13.07,131.11 12.89,71.18 13.11,11.26" style="fill:white;fill-rule:nonzero;"/>
    </g>
    <g transform="matrix(1,0,0,1,-12.931,-10)">
        <path d="M17.37,187.011C19.815,160.644 18.488,47.575 17.728,17.635C17.908,16.798 19.268,16.141 20.908,16.32C76.588,16.33 132.278,16.288 187.958,16.356C190.848,16.088 190.688,18.04 191.558,18.988C189.109,45.707 190.44,158.767 191.2,188.347C191.02,189.174 189.66,189.824 188.02,189.647C132.34,189.637 76.65,189.678 20.97,189.611C18.08,189.876 18.24,187.947 17.37,187.011Z" style="fill:rgb(10,47,94);"/>
    </g>
    <g transform="matrix(1,0,0,1,-12.931,-10)">
        <path d="M31.16,167.36C80.1,167.37 129.03,167.56 177.97,167.44C154.94,124.25 129.25,82.19 105,39.58C80.38,82.1 54.58,124.22 31.16,167.36Z" style="fill:white;"/>
    </g>
    <g transform="matrix(1,0,0,1,-12.931,-10)">
        <g transform="matrix(0.247663,0,0,0.228836,41.5133,66.507)">
            <path d="M286.582,138.05C284.464,136.267 282.073,134.833 279.5,133.801C275.296,131.971 271.154,129.999 267.084,127.884C264.786,127.021 262.925,125.285 261.907,123.052C260.917,120.016 260.526,116.82 260.75,113.634C261.35,110.004 262.271,106.436 263.499,102.968C264.523,98.337 264.607,93.548 263.75,88.884C262.58,83.178 258.344,78.589 252.751,76.967C245.78,74.012 237.777,74.863 231.583,79.218C226.88,83.263 224.878,89.625 226.417,95.634C226.789,97.275 226.873,98.966 226.667,100.635C224.958,107.194 226.717,114.17 231.333,119.135C232.983,120.103 234.86,120.611 236.773,120.607C238.869,120.384 240.824,121.695 241.418,123.719C241.626,124.936 241.291,126.185 240.5,127.135C236.889,130.238 233.188,133.234 229.403,136.121C227.255,137.759 225.303,139.636 223.583,141.718C222.191,143.924 221.277,146.397 220.901,148.978L215.584,181.801L181.25,209.216L180.847,209.537C177.563,212.134 176.955,216.878 179.476,220.222C181.995,223.563 186.722,224.284 190.124,221.844L198.082,216.134L200.584,218.384L226.917,198.718L232.917,188.635L235.417,224.8L182.479,353.711L167.229,350.379L159.729,357.211L196.229,377.043L253.083,265.718L281.249,317.3L328.166,360.217L326.752,365.967L318.084,368.051L314.75,375.217L336.918,375.217L356,346.301L322.917,312.718L307.251,291.802L283.252,240.968C286.757,231.238 285.461,220.423 279.75,211.8C278.897,210.07 278.524,208.142 278.668,206.216L277.751,170.718L291.085,190.718L297.712,233.373C298.346,237.458 302.093,240.317 306.201,239.846C310.311,239.379 313.318,235.75 313.017,231.627L312.334,222.3L314.502,221.802L309.749,177.8L290.917,143.634C289.812,141.534 288.345,139.643 286.582,138.05Z" style="fill-rule:nonzero;"/>
        </g>
        <path d="M149.66,141.46C152.61,141.32 155.56,141.28 158.52,141.39C151.82,147.52 144.18,152.55 137.33,158.51C134.44,158.6 131.55,158.61 128.66,158.49C135.28,152.37 142.82,147.32 149.66,141.46Z" style="fill-rule:nonzero;"/>
        <g transform="matrix(1,0,0,1,-20,0)">
            <path d="M149.66,141.46C152.61,141.32 155.56,141.28 158.52,141.39C151.82,147.52 144.18,152.55 137.33,158.51C134.44,158.6 131.55,158.61 128.66,158.49C135.28,152.37 142.82,147.32 149.66,141.46Z" style="fill-rule:nonzero;"/>
        </g>
        <g transform="matrix(1,0,0,1,-40,0)">
            <path d="M149.66,141.46C152.61,141.32 155.56,141.28 158.52,141.39C151.82,147.52 144.18,152.55 137.33,158.51C134.44,158.6 131.55,158.61 128.66,158.49C135.28,152.37 142.82,147.32 149.66,141.46Z" style="fill-rule:nonzero;"/>
        </g>
        <g transform="matrix(1,0,0,1,-60,0)">
            <path d="M149.66,141.46C152.61,141.32 155.56,141.28 158.52,141.39C151.82,147.52 144.18,152.55 137.33,158.51C134.44,158.6 131.55,158.61 128.66,158.49C135.28,152.37 142.82,147.32 149.66,141.46Z" style="fill-rule:nonzero;"/>
        </g>
        <g transform="matrix(1,0,0,1,-80,0)">
            <path d="M149.66,141.46C152.61,141.32 155.56,141.28 158.52,141.39C151.82,147.52 144.18,152.55 137.33,158.51C134.44,158.6 131.55,158.61 128.66,158.49C135.28,152.37 142.82,147.32 149.66,141.46Z" style="fill-rule:nonzero;"/>
        </g>
    </g>
</svg>
