<?xml version="1.0" encoding="UTF-8" standalone="no"?>
<!DOCTYPE svg PUBLIC "-//W3C//DTD SVG 1.1//EN" "http://www.w3.org/Graphics/SVG/1.1/DTD/svg11.dtd">
<!-- GeoHints -->
<svg width="100%" height="100%" viewBox="0 0 3327 3327" version="1.1" xmlns="http://www.w3.org/2000/svg" xmlns:xlink="http://www.w3.org/1999/xlink" xml:space="preserve" xmlns:serif="http://www.serif.com/" style="fill-rule:evenodd;clip-rule:evenodd;stroke-linejoin:round;stroke-miterlimit:2;">
    <g transform="matrix(1,0,0,1,-69.2906,-75.1346)">
        <path d="M182.444,77.672C191.191,76.111 2240.6,75.173 3256.41,75.138C3299.7,74.826 3342.6,95.825 3368.32,130.743C3386.44,154.796 3396.09,184.82 3396.12,214.843L3396.12,3262.29C3396.09,3292.28 3386.44,3322.31 3368.35,3346.29C3342.63,3381.24 3299.73,3402.21 3256.45,3401.96L208.999,3401.96C178.941,3401.96 148.987,3392.24 124.934,3374.16C90.016,3348.44 68.982,3305.58 69.294,3262.29C69.294,2246.45 69.329,1230.64 69.294,214.813C69.294,185.657 78.388,156.466 95.57,132.864C116.013,104.194 147.842,84.028 182.447,77.676L182.449,77.675L182.444,77.672Z" style="fill:rgb(21,72,137);"/>
        <path id="path4558" d="M1736.11,476.258L281.55,2995.97L3190.67,2995.97L1736.11,476.258Z" style="fill:white;"/>
        <g transform="matrix(5.23469,0,0,5.23469,-334.325,-665.629)">
            <path d="M217.288,570L277,570L238.538,684L167.038,684L217.288,570Z"/>
            <g transform="matrix(1,0,0.216374,1,-18,0)">
                <path d="M217.288,570L277,570L238.538,684L167.038,684L217.288,570Z"/>
            </g>
            <g transform="matrix(1,0,0.584795,1,-137,0)">
                <path d="M217.288,570L277,570L238.538,684L167.038,684L217.288,570Z"/>
            </g>
            <g transform="matrix(1,0,0.783626,1,-150,0)">
                <path d="M217.288,570L277,570L238.538,684L167.038,684L217.288,570Z"/>
            </g>
            <g transform="matrix(0.873773,0,0,0.873773,48.3284,86.776)">
                <path d="M360.63,264.56C367.3,256.2 379.98,258.92 387.59,264.49C402.95,277.66 401.34,299.59 403.19,317.74C411.44,337.2 438.68,325.24 448.68,342.34C460.67,358.29 474.14,373.6 482.09,392.1C486.16,410.26 489.39,429.22 485.92,447.78C485.06,458.21 486.21,468.73 485.43,479.16C483.18,485.79 473.23,482.41 473.45,476.04C474.04,463.48 476.7,450.03 471.48,438.06C468.35,427.53 467.97,415.21 459.49,407.23C455.22,402.23 451.37,391.52 443.15,395.17C439.23,404.95 441.6,416.33 442.83,426.54C452.98,453.05 460.35,480.66 462.6,509.04C465.81,531.83 475.69,552.99 487.46,572.59C495.87,588.47 503.34,604.85 513.29,619.82C516.58,623.56 520.7,627.96 519.54,633.4C515.94,644.81 505,650.88 496.87,658.66C491.64,666.48 479.21,670.27 474.1,660.14C475.49,648.94 495.31,649 491.58,635.98C484.56,611.87 467.28,592.67 454.26,571.7C446.1,558.28 437.9,544.88 428.59,532.28C422.39,525.13 414.6,535.11 413.55,541.44C397.5,576.62 385.89,613.45 372.71,649.69C371.27,654 372.14,660.31 367.03,662.29C353.37,663.19 339.73,663.85 326.01,663.55C322.28,664.46 316.4,661.53 318.76,657.09C326.62,644.29 346.36,646.6 354.01,634.24C365.09,590.24 374.74,545.62 390.97,503.17C401.46,483.64 395.16,461.02 396.15,440C393.28,430.6 399.32,417.56 390.26,410.83C372.93,409.2 362.63,428.72 345.99,430.6C338.19,431.04 330.81,433.99 322.99,434.39C315.8,434.77 311.45,443.34 303.9,441.65C296.79,440.22 294.5,428.57 302.52,426.5C321.97,420.1 339.1,408.37 357.24,399.39C363.15,386.57 362.08,371.45 366.71,358.01C370.01,349.6 378.84,344.59 381.37,335.84C381.22,328.95 373.65,326.6 369.83,322.06C355.91,307.41 349.94,282.68 360.63,264.56Z" style="fill-rule:nonzero;"/>
                <path d="M423.55,540.214C431.891,551.799 439.352,564.015 446.788,576.244C446.802,576.267 446.816,576.29 446.83,576.313C459.432,596.609 476.372,615.065 483.175,638.395C483.461,639.422 482.446,639.709 481.763,640.209C480.339,641.251 478.732,642.199 477.181,643.202C471.174,647.085 466.308,651.919 465.421,659.063C465.208,660.784 465.511,662.53 466.292,664.079C474.571,680.491 494.506,676.687 503.514,664.414C507.416,660.777 511.897,657.488 515.867,653.788C521.169,648.846 525.608,643.231 527.88,636.031C527.964,635.766 528.035,635.496 528.093,635.224C529.809,627.177 525.122,620.119 520.26,614.506C510.628,599.907 503.374,583.954 495.188,568.497C495.115,568.359 495.038,568.222 494.957,568.088C483.832,549.561 474.381,529.607 471.296,508.078C470.704,500.707 469.778,493.387 468.554,486.121C470.559,488.36 473.185,490.017 476.029,490.86C483.102,492.956 490.808,490.525 493.711,481.97C493.948,481.272 494.096,480.547 494.151,479.812C494.919,469.546 493.808,459.192 494.602,448.923C498.154,429.342 494.916,409.34 490.624,390.187C490.505,389.66 490.338,389.144 490.125,388.647C481.96,369.647 468.28,353.824 455.946,337.451C450.544,328.602 441.922,325.182 432.406,323.316C428.292,322.509 424.023,321.992 420.084,320.923C416.743,320.016 413.605,318.722 411.746,315.365C410.927,306.463 410.752,296.77 409.054,287.648C406.941,276.293 402.562,265.808 393.282,257.851C393.112,257.705 392.936,257.566 392.755,257.433C381.747,249.376 363.442,247.013 353.794,259.106C353.539,259.426 353.306,259.764 353.098,260.116C340.516,281.443 347.012,310.598 363.332,327.917C365.224,330.093 367.732,331.95 370.173,333.824C370.813,334.315 371.444,334.809 372.005,335.352C372.051,335.396 372.104,335.436 372.16,335.475C370.672,338.47 368.125,340.827 365.915,343.416C362.95,346.89 360.247,350.539 358.569,354.816C358.524,354.93 358.482,355.045 358.442,355.162C355.952,362.387 354.934,370.052 353.805,377.646C353.023,382.908 352.208,388.138 350.405,393.044C333.789,401.585 317.918,412.181 300.014,418.118C291.214,420.545 287.85,428.039 288.872,435.501C289.805,442.315 294.865,448.704 302.076,450.203C307.471,451.388 312.033,449.993 316.303,447.437C317.832,446.521 319.319,445.436 320.841,444.438C321.674,443.892 322.431,443.183 323.438,443.124C331.273,442.723 338.668,439.772 346.483,439.331C346.646,439.322 346.809,439.308 346.972,439.29C356.783,438.181 364.933,432.287 372.976,426.496C377.2,423.455 381.31,420.245 386.283,419.593C386.459,420.109 386.55,420.661 386.622,421.216C386.873,423.145 386.788,425.2 386.708,427.27C386.525,431.962 386.4,436.696 387.36,440.944C387.021,451.206 388.242,461.819 388.378,472.258C388.499,481.499 387.786,490.617 383.266,499.032C383.09,499.36 382.934,499.699 382.801,500.047C366.637,542.325 356.92,586.73 345.917,630.565C344.538,632.276 342.656,633.377 340.664,634.352C337.02,636.136 332.946,637.405 329.079,638.971C321.919,641.869 315.467,645.74 311.308,652.514C311.213,652.668 311.123,652.825 311.038,652.985C309.555,655.776 309.261,658.406 309.588,660.759C310.067,664.207 311.99,667.277 315.014,669.44C318.229,671.739 322.781,672.8 326.643,672.31C340.341,672.572 353.963,671.915 367.605,671.016C368.491,670.958 369.362,670.765 370.19,670.444C374.873,668.63 377.502,665.358 379.016,661.296C380.029,658.58 380.109,655.217 380.973,652.558C394.056,616.572 405.571,579.999 421.506,545.07C421.826,544.37 422.051,543.63 422.177,542.871C422.297,542.149 422.918,541.112 423.55,540.214ZM360.63,264.56C367.3,256.2 379.98,258.92 387.59,264.49C402.95,277.66 401.34,299.59 403.19,317.74C411.44,337.2 438.68,325.24 448.68,342.34C460.67,358.29 474.14,373.6 482.09,392.1C486.16,410.26 489.39,429.22 485.92,447.78C485.06,458.21 486.21,468.73 485.43,479.16C483.18,485.79 473.23,482.41 473.45,476.04C474.04,463.48 476.7,450.03 471.48,438.06C468.35,427.53 467.97,415.21 459.49,407.23C455.22,402.23 451.37,391.52 443.15,395.17C439.23,404.95 441.6,416.33 442.83,426.54C452.98,453.05 460.35,480.66 462.6,509.04C465.81,531.83 475.69,552.99 487.46,572.59C495.87,588.47 503.34,604.85 513.29,619.82C516.58,623.56 520.7,627.96 519.54,633.4C515.94,644.81 505,650.88 496.87,658.66C491.64,666.48 479.21,670.27 474.1,660.14C475.49,648.94 495.31,649 491.58,635.98C484.56,611.87 467.28,592.67 454.26,571.7C446.1,558.28 437.9,544.88 428.59,532.28C422.39,525.13 414.6,535.11 413.55,541.44C397.5,576.62 385.89,613.45 372.71,649.69C371.27,654 372.14,660.31 367.03,662.29C353.37,663.19 339.73,663.85 326.01,663.55C322.28,664.46 316.4,661.53 318.76,657.09C326.62,644.29 346.36,646.6 354.01,634.24C365.09,590.24 374.74,545.62 390.97,503.17C401.46,483.64 395.16,461.02 396.15,440C393.28,430.6 399.32,417.56 390.26,410.83C372.93,409.2 362.63,428.72 345.99,430.6C338.19,431.04 330.81,433.99 322.99,434.39C315.8,434.77 311.45,443.34 303.9,441.65C296.79,440.22 294.5,428.57 302.52,426.5C321.97,420.1 339.1,408.37 357.24,399.39C363.15,386.57 362.08,371.45 366.71,358.01C370.01,349.6 378.84,344.59 381.37,335.84C381.22,328.95 373.65,326.6 369.83,322.06C355.91,307.41 349.94,282.68 360.63,264.56ZM449.581,408.417C449.602,413.74 450.692,419.226 451.374,424.402C456.942,439.057 461.669,454.037 465.19,469.294C466.059,459.933 467.276,450.297 463.464,441.556C463.321,441.229 463.199,440.894 463.097,440.552C461.524,435.26 460.639,429.52 459.085,424.099C457.972,420.216 456.549,416.471 453.497,413.599C453.265,413.381 453.046,413.151 452.84,412.909C451.758,411.642 450.683,410.068 449.581,408.417Z" style="fill:white;"/>
            </g>
        </g>
    </g>
</svg>
