<?xml version="1.0" encoding="UTF-8" standalone="no"?><!DOCTYPE svg PUBLIC "-//W3C//DTD SVG 1.1//EN" "http://www.w3.org/Graphics/SVG/1.1/DTD/svg11.dtd"><svg width="100%" height="100%" viewBox="0 0 1875 1875" version="1.1" xmlns="http://www.w3.org/2000/svg" xmlns:xlink="http://www.w3.org/1999/xlink" xml:space="preserve" xmlns:serif="http://www.serif.com/" style="fill-rule:evenodd;clip-rule:evenodd;stroke-linejoin:round;stroke-miterlimit:2;"><path id="path8001" d="M142.15,1875c-78.136,-0 -142.15,-63.891 -142.15,-142.035l0,-1590.82c0,-78.144 64.006,-142.15 142.15,-142.15l1590.82,0c78.144,0 142.035,64.014 142.035,142.15l0,1590.82c0,78.136 -63.898,142.035 -142.035,142.035l-1590.82,-0Zm0,-14.733l1590.82,-0c70.114,-0 127.302,-57.188 127.302,-127.302l0,-1590.82c0,-70.114 -57.196,-127.417 -127.302,-127.417l-1590.82,-0c-70.106,-0 -127.417,57.311 -127.417,127.417l0,1590.82c0,70.106 57.303,127.302 127.417,127.302Z" style="fill-rule:nonzero;"/><path id="path7999" d="M142.15,7.366l1590.82,0c74.125,0 134.669,60.659 134.669,134.784l-0,1590.82c-0,74.125 -60.544,134.668 -134.669,134.668l-1590.82,0c-74.125,0 -134.783,-60.543 -134.783,-134.668l-0,-1590.82c-0,-74.125 60.658,-134.784 134.783,-134.784Z" style="fill:#fff;fill-rule:nonzero;"/><path id="path7209" d="M1742.06,68.371l-1609.46,0.082c-30.732,0.585 -63.651,22.561 -63.651,66.875l0,1607.05c0,27.509 23.251,64.341 68.14,64.341l1604.17,-0.083c40.401,-0 64.918,-36.834 64.803,-66.299l0.082,-1604.97c0.585,-44.889 -33.264,-65.722 -64.111,-66.989" style="fill:#263894;"/><path id="path2094" d="M1711.49,1513.68l-1545.31,0l776.19,-1347.27l769.122,1347.27" style="fill:#fff;"/><path d="M1415.29,1096.46l155.183,379.853l-154.966,0l-118.549,-379.853l118.332,-0Zm-953.739,-0l107.772,0.42l-123.504,379.419l-145.579,-0l161.311,-379.839Zm735.196,-0.672l87.826,380.461l-146.579,0l-10.082,-54.016c55.74,8.342 74.978,-37.402 71.269,-75.875l-62.36,-250.57l59.926,-0Zm-470.633,-0l-70.226,264.345c1.387,36.156 22.843,75.325 80.785,61.187l-10.429,54.929l-161.441,0l93.301,-380.2l68.01,-0.261Zm264.562,0.168l16.949,379.853l-154.358,0.253l22.12,-380.114l115.289,0.008Z"/><path d="M998.934,564.356l182.517,120.852l0.252,148.099c-1.85,18.542 -16.932,31.868 -33.504,32.68c-20.048,0.083 -33.23,-11.705 -36.243,-31.984l-0,-106.947l-63.533,-41.718l-19.339,188.644l-185.645,218.934l-82.611,289.246c-8.225,18.542 -31.173,34.519 -59.797,22.12c-20.859,-11.356 -28.522,-30.478 -21.684,-55.972l93.04,-314.755l149.403,-174.869l-30.506,-166.96l-144.493,169.654c-16.107,16.108 -36.257,14.819 -51.67,2.304c-12.167,-9.271 -15.774,-32.433 -4.995,-47.15l198.379,-233.404l110.429,-18.774Zm39.023,330.747l141.625,453.425c6.139,21.438 -1.623,41.848 -24.683,55.754c-13.443,6.375 -46.571,5.677 -57.928,-25.379l-124.111,-407.925l65.097,-75.875Zm-96.169,-477.109c43.225,2.085 63.982,39.169 62.36,70.573c-0.588,31.404 -28.971,61.086 -62.577,62.708c-36.619,1.623 -67.908,-27.363 -71.268,-63.056c-1.388,-34.765 26.986,-73.934 71.485,-70.225Z"/></svg>