<?xml version="1.0" encoding="UTF-8" standalone="no"?><!DOCTYPE svg PUBLIC "-//W3C//DTD SVG 1.1//EN" "http://www.w3.org/Graphics/SVG/1.1/DTD/svg11.dtd"><svg width="100%" height="100%" viewBox="0 0 14480 14480" version="1.1" xmlns="http://www.w3.org/2000/svg" xmlns:xlink="http://www.w3.org/1999/xlink" xml:space="preserve" xmlns:serif="http://www.serif.com/" style="fill-rule:evenodd;clip-rule:evenodd;stroke-linejoin:round;"><path d="M255.163,250.6c123.508,-128.279 297.633,-200.158 473.062,-217.946c42.663,-2.312 85.183,-6.654 127.987,-6.946c4242.21,0.146 8484.58,0.146 12726.9,0c77.954,0 155.471,11.284 232.554,22.563c158.796,35.437 307.759,119.458 411.888,245.717c115.554,136.812 179.475,311.662 202.762,487.812c2.167,37.746 6.217,75.346 7.375,113.092c0.288,4213.46 0,8426.83 0.142,12640.2c1.592,56.4 -3.179,112.663 -7.517,168.917c-23.862,186.712 -94.441,372.983 -223.441,512.546c-125.971,140.862 -309.784,221.125 -495.913,238.771c-42.808,2.025 -85.329,6.508 -127.85,6.941c-4223.12,-0.146 -8446.12,0 -12669.1,0c-60.454,1.446 -120.908,-2.312 -181.067,-7.087c-180.637,-16.05 -359.825,-91.692 -484.921,-225.175c-117.141,-117.146 -185.554,-273.917 -223.441,-433.146c-12.584,-86.775 -27.046,-173.833 -23.288,-261.767c0.146,-4194.04 0.146,-8388.12 0,-12582.2c-3.904,-88.075 10.704,-175.138 23.288,-261.909c38.471,-162.412 109.479,-322.366 230.525,-440.375m505.025,73.034c-144.188,26.466 -276.809,110.491 -361.988,229.95c-71.591,98.341 -109.483,219.97 -109.483,341.454c0.146,4232.67 -0,8465.21 -0,12697.8c-1.3,180.346 86.342,358.954 231.833,466.121c100.221,75.346 225.029,115.842 350.271,115.842l12697.7,-0c180.346,1.012 359.096,-86.338 466.263,-231.975c75.35,-99.934 115.554,-225.034 115.7,-349.988l-0,-12697.7c-0.146,-125.096 -40.35,-250.196 -115.842,-350.417c-107.166,-145.491 -285.921,-232.987 -466.267,-231.687c-4232.54,0.146 -8465.21,0.146 -12697.7,-0c-37.171,-0.146 -74.046,4.05 -110.492,10.558l0.005,0.004l-0,0.013Z" style="fill:#fff;fill-rule:nonzero;"/><path d="M760.183,323.633c36.446,-6.504 8575.67,-10.412 12808.2,-10.558c180.345,-1.3 359.1,86.196 466.266,231.688c75.492,100.22 115.696,225.32 115.842,350.416l0,12697.7c-0.146,124.955 -40.35,250.055 -115.7,349.988c-107.167,145.637 -285.917,232.987 -466.262,231.975l-12697.7,-0c-125.241,-0 -250.05,-40.496 -350.271,-115.842c-145.491,-107.166 -233.133,-285.775 -231.833,-466.121c0,-4232.67 0.146,-8465.21 0,-12697.8c0,-121.483 37.892,-243.112 109.483,-341.454c85.18,-119.458 217.8,-203.483 361.988,-229.95l0.008,-0.004l-0.021,-0.013Z" style="fill:#154889;"/><path id="path4558" d="M7233.79,1984.41l-6060.67,10498.8l12121.3,0l-6060.67,-10498.8Z" style="fill:#fff;"/><g><path id="path2803" d="M9181.69,9510.62l-679.879,0l267.154,2326.43l1102.86,0l-690.138,-2326.43Zm-1625.16,0l-624.233,0l-178.092,2326.43l1002.69,0l-200.367,-2326.43Zm-1435.94,0l-757.792,0l-701.271,2326.43l1069.48,0l389.584,-2326.43Zm4474.79,0l-846.858,0l935.021,2326.43l1169.67,0l-1257.83,-2326.43Zm-5799.38,0l-846.858,0l-1224.42,2326.43l1114.01,0l957.275,-2326.43Z"/><g><path id="path13005" d="M8992.15,10496.1l-1408.23,-2874.12l138.25,-482.342l782.166,889.6c247.642,218.783 621.079,-156.65 375.921,-401.788l-1387.83,-1593.7c-153.646,-106.908 -221.267,-145.695 -375.417,-226.754c-174.55,-80.554 -211.337,-67.621 -375.433,81.059l-1241.65,1251.58c-44.254,47.237 -59.671,36.804 -78.054,143.712l-0,623.059c-0,271.004 513.662,268.521 516.65,-5.471l-7.971,-438.071l458.975,-443.058l182.483,524.1c-388.35,1032.79 -704.112,1968.62 -1089.98,3001.93c-175.033,487.308 422.171,724.983 662.346,252.604l967.654,-2571.3c432.621,884.112 818.492,1720.99 1254.08,2602.62c247.625,456.475 863.229,104.425 626.042,-333.663" style="stroke:#fff;stroke-width:72.42px;"/><path id="path13013" d="M7448.19,4722c-258.07,0 -466.925,211.338 -466.925,469.413c0,258.07 208.855,469.408 466.925,469.408c258.075,-0 469.413,-211.338 469.413,-469.409c-0,-258.075 -211.338,-469.412 -469.413,-469.412" style="stroke:#fff;stroke-width:72.42px;"/></g></g></svg>