<?xml version="1.0" encoding="UTF-8" standalone="no"?><!DOCTYPE svg PUBLIC "-//W3C//DTD SVG 1.1//EN" "http://www.w3.org/Graphics/SVG/1.1/DTD/svg11.dtd"><svg width="100%" height="100%" viewBox="0 0 4167 4167" version="1.1" xmlns="http://www.w3.org/2000/svg" xmlns:xlink="http://www.w3.org/1999/xlink" xml:space="preserve" xmlns:serif="http://www.serif.com/" style="fill-rule:evenodd;clip-rule:evenodd;stroke-linejoin:round;stroke-miterlimit:2;"><path d="M69.083,69c39.292,-36.292 91.25,-56.792 143.917,-63.458c10.917,-0.75 21.833,-1.667 32.792,-1.834c1225,0 2450.04,0.042 3675.04,0c10.375,0.125 20.75,1 31.167,1.834c52.375,5.666 103.958,26.125 143.458,61.458c30.917,28.333 51.25,66.792 61.042,107.333c3,20.959 6.208,41.959 6.417,63.167c0.166,269.458 -0.959,538.833 -0.709,808.292c-0.375,59.75 1.542,119.458 0.042,179.166c0,102.792 -0.125,205.584 0.042,308.375c1.75,63.875 -1.167,127.792 0.5,191.667c-0,708.333 0.75,1416.71 0.208,2125.04c-0.583,47.416 2.625,95.333 -6.708,142.208c-9.084,39.708 -29.084,77.167 -58.709,105.417c-39.291,36.291 -91.25,56.875 -143.916,63.416c-11,0.709 -21.875,1.667 -32.834,1.834c-1225,0.041 -2450.04,-0 -3675.04,0.041c-10.417,-0.208 -20.792,-1.125 -31.167,-1.916c-53.292,-5.875 -105.75,-26.917 -145.5,-63.375c-36.125,-34.334 -57.667,-82.334 -63.25,-131.542c-0.75,-13.75 -2.125,-27.417 -2.167,-41.167c0.125,-169.416 0.167,-338.833 0.125,-508.291c1.167,-51.375 -1,-102.75 0.584,-154.125c0.083,-401.417 -0,-802.792 0.041,-1204.21c-1.375,-61.083 1.167,-122.208 -0.541,-183.291c-0.209,-540.292 -0.084,-1080.58 -0.209,-1620.88c-0.416,-17.334 0.834,-34.667 2.209,-51.917c4.75,-49.875 26.75,-98.5 63.166,-133.25m149.417,33.417c-35.542,5.791 -70.875,23.291 -90.667,54.333c-18.041,27.417 -21.458,61.25 -20.541,93.25c-3.042,1223.58 -0.125,2447.21 -0,3670.79c-0.459,32.916 6.916,67.583 28.708,93.208c25.875,30.417 66.708,44.125 105.708,45.333c1223.58,0.042 2447.21,-0.083 3670.79,0.042c40.208,1.208 83,-9.875 112.25,-38.792c25,-24.875 34.625,-61.166 34.583,-95.625c0,-227.75 0.084,-455.541 0,-683.291c-0.666,-19.5 2.459,-38.834 1.542,-58.334c1.458,-980.541 -1.417,-1961.08 -1.458,-2941.67c0.583,-32.167 -5.417,-66.125 -25.625,-92.084c-26.334,-34.041 -70.917,-49.583 -112.959,-48.958c-1218.04,0.042 -2436.08,0 -3654.17,0c-16.084,0.125 -32.25,-0.667 -48.167,1.792Z" style="fill:#fff;fill-rule:nonzero;"/><path d="M218.5,102.417c15.917,-2.459 32.083,-1.667 48.167,-1.792c1218.08,0 2436.12,0.042 3654.17,0c42.042,-0.625 86.625,14.917 112.959,48.958c20.208,25.959 26.208,59.917 25.625,92.084c0.041,980.583 2.916,1961.12 1.458,2941.67c0.917,19.5 -2.208,38.834 -1.542,58.334c0.084,227.75 0,455.541 0,683.291c0.042,34.459 -9.583,70.75 -34.583,95.625c-29.25,28.917 -72.042,40 -112.25,38.792c-1223.58,-0.125 -2447.21,0 -3670.79,-0.042c-39,-1.208 -79.833,-14.916 -105.708,-45.333c-21.792,-25.625 -29.167,-60.292 -28.708,-93.208c-0.125,-1223.58 -3.042,-2447.21 -0,-3670.79c-0.917,-32 2.5,-65.833 20.541,-93.25c19.792,-31.042 55.125,-48.542 90.667,-54.333Z" style="fill:#154889;"/><path d="M356.083,3503.17c12.375,-22.584 1693.25,-2940.88 1730.46,-3003.79c570.125,992.875 1720,2995.04 1724.04,3003.75c-1151.5,-0.083 -2303,-0.125 -3454.5,0.042Z" style="fill:#fff;"/><g><path d="M1921.92,2852.92c105.541,0.083 211.125,-0.042 316.666,0.041c15.959,190.375 32.667,380.667 48.292,571.042c-136.375,0.042 -272.75,-0.083 -409.083,0.083c14.583,-190.416 28.791,-380.875 44.125,-571.166Zm770.875,332.166c44.5,-34.958 88.708,-70.208 133.083,-105.333c37.875,114.708 75.542,229.458 113.333,344.208c-122.625,0 -245.291,0.25 -367.916,-0.125c-13.334,-79.416 -28.125,-158.541 -41.167,-237.958c48.292,0.083 96.625,-0.083 144.917,0.083c5.833,-0.291 11.958,0.625 17.75,-0.875Zm-1744.79,-304.083c5.5,-9.542 10.625,-19.25 16.875,-28.292c79.75,0.542 159.583,0 239.375,0.292c-84.875,190.542 -170.958,380.5 -256.167,570.875c-104.166,0.208 -208.291,0.208 -312.416,0c104.25,-180.875 208.166,-361.958 312.333,-542.875Zm385.75,210.833c90.083,32.875 179.333,68.084 269.333,101.167c13.375,-9.458 27.625,-19.417 34.917,-34.625c4.875,4.542 1.542,11.292 1.125,16.833c-15.542,82.875 -30.625,165.792 -45.917,248.709c-121.791,0.166 -243.541,0.083 -365.291,0.041c35.166,-110.75 70.833,-221.333 105.833,-332.125Zm1626.38,-238.791c81.042,-0.167 162.083,-0.167 243.125,-0c109,190.5 218.833,380.541 328.042,570.916c-106.375,0.042 -212.75,0.084 -319.084,0c-84.041,-190.291 -168,-380.625 -252.083,-570.916Zm-501.583,-0.084c10.75,-0.083 21.5,-0.083 32.291,0.084c37.625,48.916 74.375,98.541 108.167,150.25c-19.25,10.666 -33.083,28.333 -51.458,40.25c-14.417,6.208 -30.292,8.291 -45.209,13.041c-14.875,-67.791 -29.833,-135.625 -43.791,-203.625Zm-1071.17,85.209c9.458,-28.375 18.25,-56.959 27.917,-85.25c50,0.083 100.041,-0.084 150.041,0.083c-16.041,37.042 -32.333,74 -48.541,110.958c-13.125,-1.583 -25.375,2.417 -37.542,6.625c-32.75,-2.875 -61.583,-20.958 -91.875,-32.416Z" style="fill-rule:nonzero;"/><path d="M1995.54,1042.12c65.541,33.5 136.208,54.792 206.166,76.75c-5.625,24.5 -9.791,49.333 -12.166,74.375c0.166,6.333 -1.875,13.625 1.708,19.333c26.083,13.375 56,15.917 83.875,23.959c-1.417,6.75 -2.792,13.541 -4.083,20.333c-31.042,-0.792 -61.875,-4.708 -92.917,-4.375c-2.5,40.292 -4.708,81.25 2.875,121.125c3.75,18.625 9.083,37.917 22.208,52.333c35.875,42.125 81.084,74.75 123.959,109.25c61.666,53.75 121.791,109.542 188.083,157.75c34.167,24.292 62.167,57.375 79.333,95.792c16.5,34.75 21.875,73.167 31.917,109.958c18.208,73.334 42.333,145.167 72.625,214.417c9.167,28.875 18,60.792 7.917,90.625c-5.917,29.458 -13.042,58.708 -22.459,87.292c-37.5,-30.959 -75.541,-61.292 -112.833,-92.459c7.125,-14.583 15,-28.833 21,-43.916c4.167,-9.417 1.625,-20.084 -0.708,-29.625c-4.917,-16.417 -10.375,-32.959 -19.584,-47.542c-42.291,-69.583 -72.625,-145.583 -113.875,-215.667c-13.25,-9.583 -28.75,-15.583 -43.125,-23.208c-32.5,-14.583 -63.083,-33.167 -95.916,-47.083c5.583,146.958 32.541,293.333 82.291,431.833c20.5,57.667 45.292,113.792 72.75,168.542c49.792,98.25 100.834,196.25 162.584,287.666c9.625,13.834 14.166,30.292 21.041,45.5c45.625,107.334 97.709,211.917 156.209,312.834c-25.167,18.208 -48.917,38.125 -72.792,57.916c-21.292,14.667 -41.042,31.584 -62.333,46.167c-59.084,0.667 -118.167,0.125 -177.25,0.25c-0.167,-16.083 4,-34.833 19.291,-43.167c13.625,-2.041 27.042,-6.125 41,-5.625c14.292,-11.291 27.459,-23.875 39.875,-37.166c14.542,-15.667 32.5,-27.5 50.25,-39.167c-73.958,-116.583 -154.625,-228.917 -241.666,-336.083c-87.042,-112.167 -177.667,-221.5 -269.375,-329.834c-82.542,131.042 -159.917,265.375 -246,394.167c-13.334,21.042 -28.75,40.625 -43.5,60.667c-37.792,51.458 -74.75,103.583 -109.5,157.166c-42.625,63.375 -88.917,124.75 -143.667,178.25c-43.083,-9.375 -85.125,-23.458 -126.167,-39.458c-36.958,-12.5 -73.458,-26.208 -109.791,-40.333c-0.709,-11.209 4.083,-21.542 8.708,-31.417c6.75,-14.125 14.417,-27.792 22.958,-40.917c20.792,9.959 41.917,19.25 62.875,28.917c11.834,2.958 23.125,-3.375 34.459,-5.875c17.125,-3.292 35.541,-5.583 49.958,-16.292c9.458,-6.666 12.917,-18.166 18,-27.958c72.875,-148.583 144.167,-297.875 215.833,-447c98.709,-202.542 158.667,-422.083 194.292,-643.958c-118.875,78.666 -238.667,161.291 -376.5,203.083c-6.25,28.167 -7.5,57.167 -11.917,85.667c-27.666,0.916 -55.333,-4.792 -80.416,-16.417c-17.792,-18.875 -18.625,-47.417 -15.667,-71.833c5.125,-25.25 17.833,-48.292 31.042,-70.167c7,-4.458 15.25,-6.375 22.791,-9.625c74.959,-30.417 142.209,-77.542 201.125,-132.542c54.959,-50.916 103,-108.833 146.709,-169.583c38.875,-53.792 76.5,-108.625 108.583,-166.75c19.333,-36.083 37.792,-73.625 44.208,-114.458c-21.5,3.5 -45.375,5.625 -64.875,-6.084c-18.625,-11.125 -26.666,-33.291 -28.333,-53.958c-2.375,-15.542 -0.708,-31.25 0.5,-46.792c-8.417,-2.375 -16.833,-4.666 -25.292,-6.666c5.959,-32.542 14.667,-64.584 19.917,-97.292c-27.167,-0.083 -54.417,-3.083 -80.333,-11.333c1.625,-8.375 3.166,-16.75 4.541,-25.125c20.75,1.958 42.5,5.291 62.75,-1.459c14.792,-4.625 23.292,-18.833 30.375,-31.583c15.209,-29.417 25.959,-60.833 36.459,-92.125Z" style="fill-rule:nonzero;"/></g></svg>