<?xml version="1.0" encoding="UTF-8" standalone="no"?>
<!DOCTYPE svg PUBLIC "-//W3C//DTD SVG 1.1//EN" "http://www.w3.org/Graphics/SVG/1.1/DTD/svg11.dtd">
<!-- GeoHints -->
<svg width="100%" height="100%" viewBox="90 130 2520 2200" version="1.1" xmlns="http://www.w3.org/2000/svg" xmlns:xlink="http://www.w3.org/1999/xlink" xml:space="preserve" xmlns:serif="http://www.serif.com/" style="fill-rule:evenodd;clip-rule:evenodd;stroke-linejoin:round;">
    <g transform="matrix(0.997745,0,0,0.997396,6.6162,3.04572)">
        <path d="M1234.84,192.318C1258.12,152.006 1301.13,127.175 1347.66,127.175C1394.2,127.175 1437.21,152.006 1460.49,192.318C1715.5,633.921 2333.94,1704.86 2589.04,2146.62C2612.33,2186.94 2612.34,2236.63 2589.07,2276.97C2565.79,2317.3 2522.78,2342.15 2476.22,2342.15L219.108,2342.15C172.553,2342.15 129.535,2317.3 106.262,2276.97C82.99,2236.63 82.999,2186.94 106.286,2146.62C361.392,1704.86 979.828,633.921 1234.84,192.318Z" style="fill:white;"/>
    </g>
    <g transform="matrix(1,0,0,1,164.769,199.736)">
        <path d="M68.769,2006.48L1187.51,68.77L2306.25,2006.48L68.779,2006.48L68.769,2006.48Z" style="fill:rgb(226,10,22);stroke:rgb(226,10,22);stroke-width:137.54px;"/>
    </g>
    <g transform="matrix(1,0,0,1,164.769,199.736)">
        <path d="M1187.51,343.846L306.997,1868.94L2068.03,1868.94L1187.51,343.847L1187.51,343.846Z" style="fill:white;"/>
    </g>
    <g transform="matrix(0.504386,0,0,0.504386,289.257,290.505)">
        <path d="M2826.58,2766C2913.83,2765.79 3001.08,2766 3088.33,2765.88C3206.5,2962.46 3323.75,3159.58 3441.45,3356.46C3323.2,3356.54 3204.95,3357.08 3086.75,3356.17C3000.54,3159.25 2913,2962.88 2826.58,2766ZM725.37,3356.46C843.037,3159.62 960.328,2962.5 1078.37,2765.88C1165.66,2766 1252.91,2765.79 1340.16,2766C1253.7,2962.88 1166.2,3159.29 1079.87,3356.21C961.703,3357.04 843.537,3356.54 725.37,3356.46ZM1952.41,2765.92C2039.62,2765.83 2126.78,2766.08 2213.99,2765.79C2230.45,2962.62 2244.99,3159.67 2260.53,3356.58C2142.45,3356.62 2024.37,3356.71 1906.24,3356.5C1921.66,3159.67 1936.74,2962.75 1952.41,2765.92ZM1315.91,3356.5C1382.12,3159.54 1448.49,2962.62 1515.41,2765.88C1547.58,2765.96 1579.79,2765.83 1611.95,2766C1561.62,2859.96 1510.41,2953.46 1459.58,3047.17C1458.08,3051.5 1452.91,3055.92 1455.2,3060.83C1480.2,3074.12 1504.58,3089.5 1532.12,3097.25C1597.79,3117.33 1672.79,3100.79 1724.41,3055.62C1706.87,3156.08 1688.24,3256.33 1669.83,3356.62C1551.87,3356.5 1433.87,3356.79 1315.91,3356.5ZM2613.66,2766C2626.16,2765.83 2638.7,2765.92 2651.24,2765.88C2718.2,2962.62 2784.62,3159.54 2850.87,3356.5C2732.91,3356.75 2614.91,3356.5 2496.95,3356.62C2473.87,3232.25 2451.62,3107.67 2428.87,2983.21C2426.28,2967.5 2422.33,2952.04 2421.41,2936.17C2454.78,2997.71 2488.37,3059.17 2521.45,3120.88C2537.37,3114.04 2552.2,3104.88 2567.41,3096.58C2627.62,3061.71 2667.03,2994.46 2668.41,2924.96C2669.49,2889.46 2660.78,2853.75 2644.03,2822.46C2633.95,2803.62 2623.45,2785 2613.66,2766Z" style="fill-rule:nonzero;"/>
        <path d="M1951.62,2193.79C2059.12,2193.71 2166.62,2193.79 2274.12,2193.75C2273.74,2213.79 2273.83,2235.12 2284.58,2252.87C2386.7,2441.08 2488.91,2629.21 2591.04,2817.37C2600.99,2835.91 2612.24,2854.12 2617.79,2874.62C2632.49,2924.5 2621.04,2981.08 2587.99,3021.25C2574.87,3037.62 2558.2,3050.87 2540.2,3061.54C2397.16,2799.75 2255.62,2537.12 2112.79,2275.25C1985.75,2509.33 1858.62,2743.41 1731.54,2977.5C1715.12,3007.21 1689.33,3031.87 1658.41,3046.08C1612.95,3067.75 1557.16,3066.29 1513.12,3041.75C1655.95,2777.96 1799.45,2514.54 1942.37,2250.83C1952,2233.37 1952.12,2213.12 1951.62,2193.79ZM1945.29,1516.54C1986.91,1452.91 2066.62,1417.37 2141.74,1429.12C2178.66,1434.37 2213.87,1450.25 2242.41,1474.16C2324.83,1543.16 2407.08,1612.37 2489.45,1681.37C2501.95,1692.46 2515.79,1702.04 2526.91,1714.66C2546.2,1736.91 2557.33,1766.29 2556.7,1795.83C2556.74,1861.12 2556.74,1926.41 2556.7,1991.71C2557.16,2025.58 2544.2,2059.12 2522.12,2084.71C2495.79,2115.16 2455.87,2133.75 2415.45,2132.96C2415.08,2022.87 2416.16,1912.75 2414.91,1802.71C2367.45,1764.29 2321.49,1724.08 2274.24,1685.41C2274.12,1841.37 2274.29,1997.33 2274.16,2153.29C2166.62,2153.29 2059.08,2153.37 1951.58,2153.25C1951.45,2024.58 1951.83,1895.91 1951.41,1767.21C1879.83,1875.46 1810.12,1984.91 1738.91,2093.37C1714.25,2128.75 1672.62,2151.96 1629.37,2153.16C1600.33,2154.62 1570.54,2146.96 1546.54,2130.37C1679.7,1925.91 1812.2,1721.04 1945.29,1516.54ZM1997.04,1047.58C2050.87,1035.08 2110.58,1052.91 2148.41,1093.29C2191.37,1136.58 2205.45,1205.37 2183.24,1262.12C2161.83,1320.46 2104.16,1363.66 2041.83,1366.08C1996.41,1369.33 1950.08,1351.79 1918.25,1319.25C1884.54,1286.41 1867.08,1238.16 1871.54,1191.37C1875.79,1122.71 1929.87,1061.54 1997.04,1047.58Z" style="fill-rule:nonzero;"/>
    </g>
</svg>
