<?xml version="1.0" encoding="UTF-8" standalone="no"?><!DOCTYPE svg PUBLIC "-//W3C//DTD SVG 1.1//EN" "http://www.w3.org/Graphics/SVG/1.1/DTD/svg11.dtd"><svg width="100%" height="100%" viewBox="0 0 4167 4167" version="1.1" xmlns="http://www.w3.org/2000/svg" xmlns:xlink="http://www.w3.org/1999/xlink" xml:space="preserve" xmlns:serif="http://www.serif.com/" style="fill-rule:evenodd;clip-rule:evenodd;stroke-linejoin:round;stroke-miterlimit:2;"><path d="M76.833,68.5c35.584,-36.958 85.75,-57.667 136.292,-62.792c12.292,-0.666 24.542,-1.916 36.875,-2c1222.21,0.042 2444.46,0.042 3666.71,0c22.459,0 44.792,3.25 67,6.5c45.75,10.209 88.667,34.417 118.667,70.792c33.292,39.417 51.708,89.792 58.417,140.542c0.625,10.875 1.791,21.708 2.125,32.583c0.083,1213.92 -0,2427.83 0.041,3641.71c0.459,16.25 -0.916,32.459 -2.166,48.667c-6.875,53.792 -27.209,107.458 -64.375,147.667c-36.292,40.583 -89.25,63.708 -142.875,68.791c-12.334,0.584 -24.584,1.875 -36.834,2c-1216.71,-0.041 -2433.38,0 -3650.04,0c-17.417,0.417 -34.834,-0.666 -52.167,-2.041c-52.042,-4.625 -103.667,-26.417 -139.708,-64.875c-33.75,-33.75 -53.459,-78.917 -64.375,-124.792c-3.625,-25 -7.792,-50.083 -6.709,-75.417c0.042,-1208.33 0.042,-2416.67 0,-3625c-1.125,-25.375 3.084,-50.458 6.709,-75.458c11.083,-46.792 31.541,-92.875 66.416,-126.875m145.5,21.042c-41.541,7.625 -79.75,31.833 -104.291,66.25c-20.625,28.333 -31.542,63.375 -31.542,98.375c0.042,1219.46 -0,2438.88 -0,3658.33c-0.375,51.958 24.875,103.417 66.792,134.292c28.875,21.708 64.833,33.375 100.916,33.375l3658.29,-0c51.958,0.291 103.458,-24.875 134.333,-66.834c21.709,-28.791 33.292,-64.833 33.334,-100.833l-0,-3658.29c-0.042,-36.041 -11.625,-72.083 -33.375,-100.958c-30.875,-41.917 -82.375,-67.125 -134.334,-66.75c-1219.42,0.042 -2438.88,0.042 -3658.29,0c-10.709,-0.042 -21.334,1.167 -31.834,3.042Z" style="fill:#fff;fill-rule:nonzero;"/><path d="M222.333,89.542c10.5,-1.875 2470.71,-3 3690.12,-3.042c51.959,-0.375 103.459,24.833 134.334,66.75c21.75,28.875 33.333,64.917 33.375,100.958l-0,3658.29c-0.042,36 -11.625,72.042 -33.334,100.833c-30.875,41.959 -82.375,67.125 -134.333,66.834l-3658.29,-0c-36.083,-0 -72.041,-11.667 -100.916,-33.375c-41.917,-30.875 -67.167,-82.334 -66.792,-134.292c-0,-1219.46 0.042,-2438.88 -0,-3658.33c-0,-35 10.917,-70.042 31.542,-98.375c24.541,-34.417 62.75,-58.625 104.291,-66.25Z" style="fill:#154889;"/><path d="M346.917,3504.25c4.541,-8.958 1162.42,-2014.17 1736.42,-3008.04c496.959,859.959 1654.96,2865.12 1736.42,3008.04c-377.417,0.375 -2692.67,0.375 -3472.83,0Z" style="fill:#fff;"/><g><path d="M2826.58,2766c87.25,-0.208 174.5,0 261.75,-0.125c118.167,196.583 235.417,393.708 353.125,590.583c-118.25,0.084 -236.5,0.625 -354.708,-0.291c-86.208,-196.917 -173.75,-393.292 -260.167,-590.167Zm-2101.21,590.458c117.667,-196.833 234.958,-393.958 353,-590.583c87.292,0.125 174.542,-0.083 261.792,0.125c-86.459,196.875 -173.959,393.292 -260.292,590.208c-118.167,0.834 -236.333,0.334 -354.5,0.25Zm1227.04,-590.541c87.208,-0.084 174.375,0.166 261.583,-0.125c16.458,196.833 31,393.875 46.542,590.791c-118.084,0.042 -236.167,0.125 -354.292,-0.083c15.417,-196.833 30.5,-393.75 46.167,-590.583Zm-636.5,590.583c66.208,-196.958 132.583,-393.875 199.5,-590.625c32.166,0.083 64.375,-0.042 96.541,0.125c-50.333,93.958 -101.541,187.458 -152.375,281.167c-1.5,4.333 -6.666,8.75 -4.375,13.666c25,13.292 49.375,28.667 76.917,36.417c65.667,20.083 140.667,3.542 192.292,-41.625c-17.542,100.458 -36.167,200.708 -54.584,301c-117.958,-0.125 -235.958,0.167 -353.916,-0.125Zm1297.75,-590.5c12.5,-0.167 25.041,-0.083 37.583,-0.125c66.958,196.75 133.375,393.667 199.625,590.625c-117.958,0.25 -235.958,0 -353.917,0.125c-23.083,-124.375 -45.333,-248.958 -68.083,-373.417c-2.583,-15.708 -6.542,-31.166 -7.458,-47.041c33.375,61.541 66.958,123 100.041,184.708c15.917,-6.833 30.75,-16 45.959,-24.292c60.208,-34.875 99.625,-102.125 101,-171.625c1.083,-35.5 -7.625,-71.208 -24.375,-102.5c-10.084,-18.833 -20.584,-37.458 -30.375,-56.458Z" style="fill-rule:nonzero;"/><path d="M1951.62,2193.79c107.5,-0.084 215,-0 322.5,-0.042c-0.375,20.042 -0.292,41.375 10.458,59.125c102.125,188.208 204.334,376.333 306.459,564.5c9.958,18.542 21.208,36.75 26.75,57.25c14.708,49.875 3.25,106.458 -29.792,146.625c-13.125,16.375 -29.792,29.625 -47.792,40.292c-143.041,-261.792 -284.583,-524.417 -427.416,-786.292c-127.042,234.083 -254.167,468.167 -381.25,702.25c-16.417,29.708 -42.209,54.375 -73.125,68.583c-45.459,21.667 -101.25,20.209 -145.292,-4.333c142.833,-263.792 286.333,-527.208 429.25,-790.917c9.625,-17.458 9.75,-37.708 9.25,-57.041Zm-6.333,-677.25c41.625,-63.625 121.333,-99.167 196.458,-87.417c36.917,5.25 72.125,21.125 100.667,45.042c82.416,69 164.666,138.208 247.041,207.208c12.5,11.083 26.334,20.667 37.459,33.292c19.291,22.25 30.416,51.625 29.791,81.166c0.042,65.292 0.042,130.584 0,195.875c0.459,33.875 -12.5,67.417 -34.583,93c-26.333,30.459 -66.25,49.042 -106.667,48.25c-0.375,-110.083 0.709,-220.208 -0.541,-330.25c-47.459,-38.416 -93.417,-78.625 -140.667,-117.291c-0.125,155.958 0.042,311.916 -0.083,467.875c-107.542,-0 -215.084,0.083 -322.584,-0.042c-0.125,-128.667 0.25,-257.333 -0.166,-386.042c-71.584,108.25 -141.292,217.709 -212.5,326.167c-24.667,35.375 -66.292,58.583 -109.542,59.792c-29.042,1.458 -58.833,-6.209 -82.833,-22.792c133.166,-204.458 265.666,-409.333 398.75,-613.833Zm51.75,-468.959c53.833,-12.5 113.541,5.334 151.375,45.709c42.958,43.291 57.041,112.083 34.833,168.833c-21.417,58.333 -79.083,101.542 -141.417,103.958c-45.416,3.25 -91.75,-14.291 -123.583,-46.833c-33.708,-32.833 -51.167,-81.083 -46.708,-127.875c4.25,-68.667 58.333,-129.833 125.5,-143.792Z" style="fill-rule:nonzero;"/></g></svg>