<?xml version="1.0" encoding="UTF-8" standalone="no"?><!DOCTYPE svg PUBLIC "-//W3C//DTD SVG 1.1//EN" "http://www.w3.org/Graphics/SVG/1.1/DTD/svg11.dtd"><svg width="100%" height="100%" viewBox="0 0 9900 8650" version="1.1" xmlns="http://www.w3.org/2000/svg" xmlns:xlink="http://www.w3.org/1999/xlink" xml:space="preserve" xmlns:serif="http://www.serif.com/" style="fill-rule:evenodd;clip-rule:evenodd;stroke-linejoin:round;"><g id="Layer-1" serif:id="Layer 1"><path id="path4488" d="M286.538,8360.33l4661.42,-8073.79l4661.42,8073.79l-9322.79,0.005l-0.041,-0.005Z" style="fill:#e20a16;fill-rule:nonzero;stroke:#e20a16;stroke-width:573.08px;"/><path id="rect5050" d="M4947.96,1432.69l-3668.8,6354.54l7337.62,0.005l-3668.8,-6354.54l-0.017,-0.004Z" style="fill:#fff;fill-rule:nonzero;"/><g><path id="path2803" d="M3631.8,5809.23l473.507,0l-186.062,1620.26l-768.094,-0l480.651,-1620.26l-0.002,0Zm1131.85,0l434.752,0l124.033,1620.26l-698.33,-0l139.547,-1620.26l-0.002,0Zm1000.07,0l527.77,0l488.405,1620.26l-744.846,-0l-271.329,-1620.26Zm-3116.5,0l589.802,0l-651.202,1620.26l-814.625,-0l876.025,-1620.26Zm4039.02,0l589.805,0l852.756,1620.26l-775.86,-0l-666.701,-1620.26Z"/><g><path id="path13005" d="M3763.81,6495.58l980.771,-2001.7l-96.285,-335.931l-544.745,619.568c-172.472,152.373 -432.555,-109.1 -261.813,-279.828l966.564,-1109.94c107.008,-74.457 154.103,-101.471 261.462,-157.925c121.567,-56.102 147.187,-47.095 261.473,56.454l864.756,871.672c30.821,32.899 41.558,25.632 54.361,100.089l0,433.934c0,188.743 -357.743,187.013 -359.824,-3.81l5.551,-305.098l-319.656,-308.571l-127.092,365.013c270.469,719.294 490.384,1371.06 759.124,2090.72c121.903,339.389 -294.024,504.919 -461.295,175.927l-673.93,-1790.8c-301.302,615.746 -570.044,1198.6 -873.412,1812.61c-172.461,317.916 -601.202,72.728 -436.012,-232.381" style="stroke:#fff;stroke-width:50.44px;"/><path id="path13013" d="M4839.11,2474.16c179.735,0 325.194,147.188 325.194,326.926c-0,179.735 -145.459,326.923 -325.194,326.923c-179.738,-0 -326.926,-147.188 -326.926,-326.924c0,-179.738 147.188,-326.925 326.926,-326.925" style="stroke:#fff;stroke-width:50.44px;"/></g></g></g></svg>