<?xml version="1.0" encoding="UTF-8" standalone="no"?>
<!DOCTYPE svg PUBLIC "-//W3C//DTD SVG 1.1//EN" "http://www.w3.org/Graphics/SVG/1.1/DTD/svg11.dtd">
<!-- GeoHints -->
<svg width="100%" height="100%" viewBox="0 0 366 364" version="1.1" xmlns="http://www.w3.org/2000/svg" xmlns:xlink="http://www.w3.org/1999/xlink" xml:space="preserve" xmlns:serif="http://www.serif.com/" style="fill-rule:evenodd;clip-rule:evenodd;stroke-linejoin:round;stroke-miterlimit:2;">
    <g transform="matrix(0.666375,0.666375,-0.666375,0.666375,219.82,-87.3894)">
        <path d="M316.287,104.873C316.287,100.651 314.61,96.603 311.625,93.618C308.64,90.633 304.591,88.956 300.37,88.956L49.099,88.956C44.877,88.956 40.829,90.633 37.844,93.618C34.859,96.603 33.182,100.651 33.182,104.873L33.182,356.144C33.182,360.365 34.859,364.414 37.844,367.399C40.829,370.384 44.877,372.061 49.099,372.061L295.064,372.061C306.785,372.061 316.287,362.559 316.287,350.838L316.287,104.873Z" style="fill:rgb(255,219,0);"/>
    </g>
    <g transform="matrix(1,0,0,1,-6,-5.75404)">
        <path d="M359.569,199.015C365.427,193.157 365.427,183.659 359.569,177.802C327.435,145.668 231.394,49.627 199.261,17.494C193.403,11.636 183.905,11.636 178.048,17.494C145.914,49.627 49.873,145.668 17.74,177.802C11.882,183.659 11.882,193.157 17.74,199.015C49.873,231.148 145.914,327.189 178.048,359.323C183.905,365.181 193.403,365.181 199.261,359.323C231.394,327.189 327.435,231.148 359.569,199.015ZM353.758,195.495C357.663,191.59 357.663,185.259 353.758,181.353C325.863,153.459 223.62,51.215 195.725,23.321C191.82,19.416 185.488,19.416 181.583,23.321C153.688,51.215 51.445,153.459 23.551,181.353C19.645,185.259 19.645,191.59 23.551,195.495C51.445,223.39 153.688,325.633 181.583,353.528C185.488,357.433 191.82,357.433 195.725,353.528C223.62,325.633 325.863,223.39 353.758,195.495Z"/>
    </g>
    <g transform="matrix(0.484228,0,0,0.484228,-1.05259,2.75733)">
        <path d="M359.95,156.07C361.65,139.16 386.47,133.84 396.99,146.16C403.53,152.82 402.04,163.32 400.45,171.6C395.29,179.4 386.79,186.57 377.06,184.85C363.18,184.61 355.32,167.54 359.95,156.07Z" style="fill-rule:nonzero;"/>
        <path d="M331.88,192.05C337.5,182.85 349.91,174.95 360.18,181.7C367.7,188.78 379.3,191.76 388.89,187.56C399.41,186.16 403.64,198.04 406.5,205.89C410.52,220.61 417.8,234.23 424.13,248.09C433.1,258.12 444.18,266.05 453.44,275.73C453.48,276.39 453.57,277.72 453.61,278.39C455.16,280.22 457.06,281.75 458.49,283.7C458.96,286.88 458.05,289.87 456.24,292.48C436.8,286.03 418.54,271.36 406.43,253.58C402.68,250.75 401.03,243.98 395.68,244.44C391.83,248.67 394.03,254.8 393.47,260C386.62,295.85 407.87,328.46 415.29,362.9C417.43,378.15 420.37,393.03 422.51,408.23C424.38,415.97 426.37,423.78 424.37,431.58C432.97,428.51 445.99,431.37 446.29,442.12C438.75,444.63 430.6,446.98 422.5,447.58C422.48,448.05 422.45,449 422.44,449.47C458.06,451.32 493.97,449.9 529.76,450.66C545.85,471.91 563.58,491.89 576.88,515.15C577.36,515.41 578.31,515.92 578.79,516.17C576.38,516.16 574.48,517.98 572.02,517.51C517.01,517.46 461.91,517.93 406.96,517.08C331.53,515.12 256.6,517.81 181.4,517.38C194.71,494.79 210.35,473.04 224.3,450.64C257.48,450.6 290.7,450.65 323.72,449.65C323.66,448.69 323.56,446.78 323.5,445.83C318.04,441.59 309.66,442.34 305.61,436.25C309.22,412.93 324,391.87 333.16,369.73C341.29,359.43 334.97,346.65 336.58,334.84C334.18,328.21 337.09,320.44 334.61,313.96C336.22,311.45 335.99,307.61 334.65,305.02C333.71,278.1 341.23,252.83 342.54,226.38C341.49,226.4 340.45,226.46 339.41,226.55C323.04,242.44 316.48,264.78 314.49,286.29C313.87,287.08 313.22,287.85 312.57,288.62C312.41,293.8 314.28,303.1 305.87,300.34C301.66,297.13 305.22,291.42 301.8,287.92C298.96,285.02 301.32,281.22 301.46,277.94C305.48,264.49 305.06,249.44 309.57,236C317.85,221.69 322.04,205.45 331.88,192.05M368.82,320.67C362.92,338.9 366.34,359.66 358.51,377.14C351.63,391.61 346.62,407.81 338.64,422.2C338.22,426.6 335.53,430.74 331.36,432.45C335.87,438.12 342.82,442.55 346.37,449.44C365.73,449.68 385.12,449.66 404.48,449.46C404.7,444.84 404.29,440.22 404.51,435.61C401.73,432.67 397.59,429.79 398.52,425.16C396.02,404.99 391.48,385.24 389.03,365.07C382.69,350.3 378.66,334.46 370.46,320.52C370.05,320.56 369.23,320.63 368.82,320.67Z" style="fill-rule:nonzero;"/>
    </g>
</svg>
