<?xml version="1.0" encoding="UTF-8" standalone="no"?>
<!DOCTYPE svg PUBLIC "-//W3C//DTD SVG 1.1//EN" "http://www.w3.org/Graphics/SVG/1.1/DTD/svg11.dtd">
<!-- GeoHints -->
<svg width="100%" height="100%" viewBox="0 0 366 364" version="1.1" xmlns="http://www.w3.org/2000/svg" xmlns:xlink="http://www.w3.org/1999/xlink" xml:space="preserve" xmlns:serif="http://www.serif.com/" style="fill-rule:evenodd;clip-rule:evenodd;stroke-linejoin:round;stroke-miterlimit:2;">
    <g transform="matrix(0.666375,0.666375,-0.666375,0.666375,219.82,-87.3894)">
        <path d="M316.287,104.873C316.287,100.651 314.61,96.603 311.625,93.618C308.64,90.633 304.591,88.956 300.37,88.956L49.099,88.956C44.877,88.956 40.829,90.633 37.844,93.618C34.859,96.603 33.182,100.651 33.182,104.873L33.182,356.144C33.182,360.365 34.859,364.414 37.844,367.399C40.829,370.384 44.877,372.061 49.099,372.061L295.064,372.061C306.785,372.061 316.287,362.559 316.287,350.838L316.287,104.873Z" style="fill:rgb(255,219,0);"/>
    </g>
    <g transform="matrix(1,0,0,1,-6,-5.75404)">
        <path d="M359.569,199.015C365.427,193.157 365.427,183.659 359.569,177.802C327.435,145.668 231.394,49.627 199.261,17.494C193.403,11.636 183.905,11.636 178.048,17.494C145.914,49.627 49.873,145.668 17.74,177.802C11.882,183.659 11.882,193.157 17.74,199.015C49.873,231.148 145.914,327.189 178.048,359.323C183.905,365.181 193.403,365.181 199.261,359.323C231.394,327.189 327.435,231.148 359.569,199.015ZM353.758,195.495C357.663,191.59 357.663,185.259 353.758,181.353C325.863,153.459 223.62,51.215 195.725,23.321C191.82,19.416 185.488,19.416 181.583,23.321C153.688,51.215 51.445,153.459 23.551,181.353C19.645,185.259 19.645,191.59 23.551,195.495C51.445,223.39 153.688,325.633 181.583,353.528C185.488,357.433 191.82,357.433 195.725,353.528C223.62,325.633 325.863,223.39 353.758,195.495Z"/>
    </g>
    <g transform="matrix(0.756799,0,0,0.882046,37.7203,44.3952)">
        <g transform="matrix(-0.480575,0,0,0.480575,360.167,-7.26001)">
            <path d="M179.103,489.318L136.379,553.404L196.193,553.404L221.827,489.318L179.103,489.318Z" style="fill-rule:nonzero;"/>
        </g>
        <g transform="matrix(-0.480575,0,0,0.480575,360.167,-7.26001)">
            <path d="M330.774,489.318L322.23,553.404L377.771,553.404L369.227,489.318L330.774,489.318Z" style="fill-rule:nonzero;"/>
        </g>
        <g transform="matrix(-0.480575,0,0,0.480575,360.167,-7.26001)">
            <path d="M478.173,489.318L503.807,553.404L563.621,553.404L520.897,489.318L478.173,489.318Z" style="fill-rule:nonzero;"/>
        </g>
        <g transform="matrix(-0.480575,0,0,0.480575,360.167,-7.26001)">
            <path d="M285.007,515.413C282.883,523.929 275.234,529.905 266.458,529.905C255.9,529.905 247.34,521.345 247.34,510.787C247.34,509.228 247.531,507.675 247.909,506.163L275.905,393.875C276.258,392.457 276.991,391.164 278.024,390.131L328.638,339.517L328.638,232.564C328.638,228.966 330.555,225.651 333.668,223.847L359.642,208.852C365.868,205.264 373.539,205.264 379.765,208.852L443.841,245.854C450.068,249.442 453.902,256.092 453.902,263.276L453.902,333.707C453.902,342.041 447.146,348.799 438.81,348.799C430.475,348.799 423.717,342.042 423.717,333.707L423.717,273.74C423.717,270.865 422.182,268.207 419.693,266.77L392.526,251.082L392.526,335.517C392.526,338.186 391.466,340.745 389.579,342.632L309.236,422.975C308.203,424.008 307.471,425.301 307.117,426.719L285.007,515.413Z" style="fill-rule:nonzero;"/>
        </g>
        <g transform="matrix(-0.480575,0,0,0.480575,360.167,-7.26001)">
            <path d="M386.928,359.513L358.939,387.502L435.637,520.347C439.052,526.261 445.363,529.905 452.193,529.905C462.75,529.905 471.31,521.345 471.31,510.787C471.31,507.431 470.426,504.135 468.748,501.229L386.928,359.513Z" style="fill-rule:nonzero;"/>
        </g>
        <g transform="matrix(-0.480575,0,0,0.480575,360.167,-7.26001)">
            <path d="M318.577,317.822L318.577,275.135L261.119,332.593C258.288,335.423 256.698,339.262 256.698,343.265C256.698,351.6 263.455,358.357 271.791,358.357C275.794,358.357 279.632,356.768 282.463,353.937L318.577,317.822Z" style="fill-rule:nonzero;"/>
        </g>
        <g transform="matrix(-0.480575,0,0,0.480575,360.167,-7.26001)">
            <path d="M307.234,179.703C307.234,195.562 318.5,209.672 332.719,209.672C348.359,209.672 375.375,193.812 375.375,171.172C375.375,154.984 361.922,143.172 346.937,143.172C323.094,143.172 307.234,161.437 307.234,179.703Z" style="fill-rule:nonzero;"/>
        </g>
    </g>
</svg>
