<?xml version="1.0" encoding="UTF-8" standalone="no"?>
<!DOCTYPE svg PUBLIC "-//W3C//DTD SVG 1.1//EN" "http://www.w3.org/Graphics/SVG/1.1/DTD/svg11.dtd">
<!-- GeoHints -->
<svg width="100%" height="100%" viewBox="0 0 3007 3007" version="1.1" xmlns="http://www.w3.org/2000/svg" xmlns:xlink="http://www.w3.org/1999/xlink" xml:space="preserve" xmlns:serif="http://www.serif.com/" style="fill-rule:evenodd;clip-rule:evenodd;stroke-linejoin:round;stroke-miterlimit:2;">
    <g transform="matrix(1,0,0,1,55.7438,2108.96)">
        <g transform="matrix(0.707107,-0.707107,0.707107,0.707107,0,0)">
            <rect x="388.852" y="-467.686" width="2125.98" height="2125.98" style="fill:rgb(253,220,4);"/>
        </g>
        <g transform="matrix(1,0,0,1,0,-2053.22)">
            <path d="M1447.55,-15.655L-15.656,1447.56L1447.55,2910.76L2910.76,1447.56L1447.55,-15.655ZM1447.55,64.521L64.52,1447.56L1447.55,2830.59L2830.59,1447.56L1447.55,64.521Z"/>
        </g>
        <g transform="matrix(6.03649,0,0,6.03649,-84.7357,-2146.37)">
            <path d="M245.01,105.22C252.78,93.13 274.98,94.48 281.35,107.81C288.92,119.39 276.39,134.9 263.53,133.67C263.5,134.88 263.48,136.08 263.47,137.28C264.14,138.08 264.8,138.88 265.47,139.69C265.51,140.81 265.55,141.94 265.6,143.06C272.87,149.52 285.14,146.38 290.48,155.58C296.93,167.91 304.21,179.86 311.21,191.93C321.38,212.23 345.83,218.57 359.45,235.9C359.9,239.57 355.21,241.51 352.25,239.87C336.61,234.54 321.35,228.1 305.79,222.57C293.91,220.71 290.9,207.15 287.14,197.66C286,197.59 284.87,197.52 283.74,197.46C280.96,211.42 281.37,225.72 279.82,239.8C277.86,246.09 283.13,250.93 286.56,255.44C296.68,269.03 307.21,282.35 317.05,296.16C323.84,312.43 328.17,329.83 335.4,345.85C335.46,346.46 335.57,347.67 335.62,348.28C336.21,349.06 336.8,349.84 337.39,350.63C345.65,349.94 352.84,344.31 361.56,345.49C362.69,352.84 354.29,355.65 350.48,360.48C345.45,364.63 341.2,372.04 333.75,370.6C330.22,368.12 327.48,364.75 325.89,360.74C322.46,360.34 319.12,359.42 315.89,358.25C306.68,342.77 297.24,327.41 287.37,312.36C276.83,303.03 263.74,296.91 253.19,287.53C251.38,287.5 249.56,287.5 247.76,287.51C244.43,297.74 237.53,306.9 234.28,317.17C225.18,335.05 216.66,353.37 208.59,371.62C206.9,371.59 205.21,371.58 203.53,371.57C203.48,372.6 203.43,373.64 203.39,374.68C205.22,375.3 206.99,376.12 208.62,377.19C214.09,379.61 223.63,381.82 222.68,389.51C212.02,389.76 201.58,387.33 190.94,387.45C182.03,387.91 185.77,376.1 187.46,370.99C187.5,370.11 187.59,368.35 187.64,367.47C186.83,367.45 185.22,367.39 184.42,367.37C190.7,331.67 200.92,296.86 208.67,261.45C209.94,257.2 205.84,254.1 206.5,249.99C211.03,232.8 215.55,215.59 219.81,198.34C212,197.32 204.27,202.95 202.12,210.4C199.64,218.56 195.35,226.07 193.15,234.3C189.61,241.8 186.78,249.57 184.15,257.43C182.36,257.49 180.57,257.53 178.78,257.57C177.99,256.44 177.2,255.32 176.39,254.21C179.36,232.99 184.12,212.36 188.94,191.56C199.71,174.43 212,158.21 223.46,141.5C226.39,136.42 232.51,137.34 237.47,137.43C240.73,132.92 241.74,126.95 245.94,123.13C244.98,117.8 241.676,110.407 245.01,105.22Z" style="fill-rule:nonzero;"/>
        </g>
    </g>
</svg>
