<?xml version="1.0" encoding="UTF-8" standalone="no"?>
<!DOCTYPE svg PUBLIC "-//W3C//DTD SVG 1.1//EN" "http://www.w3.org/Graphics/SVG/1.1/DTD/svg11.dtd">
<!-- GeoHints -->
<svg width="100%" height="100%" viewBox="0 0 600 600" version="1.1" xmlns="http://www.w3.org/2000/svg" xmlns:xlink="http://www.w3.org/1999/xlink" xml:space="preserve" xmlns:serif="http://www.serif.com/" style="fill-rule:evenodd;clip-rule:evenodd;stroke-linecap:round;stroke-linejoin:round;stroke-miterlimit:2;">
    <path d="M295.86,0L303.18,0C312.08,0.96 320.74,4.57 327.33,10.69C414.15,97.52 500.99,184.35 587.81,271.19C594.6,277.76 598.56,286.67 600,295.93L600,563.37C598.4,582.12 582.7,597.92 564.06,600L37.29,600C18.07,598.79 1.58,582.51 0,563.34L0,296.63C1.15,287.09 5.27,277.93 12.19,271.19C98.68,184.68 185.21,98.21 271.69,11.69C278.17,5.22 286.87,1.39 295.86,0" style="fill:rgb(255,219,0);fill-rule:nonzero;"/>
    <path d="M292.3,11.44C302.83,8.52 314.49,12.22 321.97,20.03C407.98,106.02 493.93,192.07 579.91,278.09C586.16,283.94 589.75,292.43 589.61,301C589.56,387.69 589.65,474.38 589.53,561.07C589.29,576.48 575.4,589.84 560.01,589.54C386.67,589.53 213.33,589.57 39.98,589.52C24.21,589.92 10.18,575.74 10.42,560.02C10.37,473.68 10.43,387.34 10.4,300.99C10.26,292.43 13.85,283.95 20.08,278.08C106.05,192.04 192.08,106.08 278.07,20.07C281.96,16.01 286.94,13.06 292.3,11.44M299.36,26.47C295.78,26.69 292.34,28.25 289.92,30.92C203.73,117.07 117.54,203.21 31.38,289.39C28.1,292.3 26.22,296.59 26.42,300.99C26.42,387 26.41,473.01 26.42,559.02C25.85,566.54 32.34,573.73 39.96,573.52L560.04,573.52C567.25,573.73 573.65,567.21 573.56,560.05C573.58,473.7 573.59,387.34 573.58,300.98C573.73,296.59 571.91,292.29 568.61,289.4C482.62,203.39 396.65,117.35 310.64,31.36C307.8,28.22 303.65,26.17 299.36,26.47Z" style="fill-rule:nonzero;"/>
    <g transform="matrix(1.08675,0,0,1.08675,-65.2469,-42.9581)">
        <g transform="matrix(0.815608,0,0.142166,0.602296,19.6042,189.182)">
            <path d="M214.54,403.533C214.095,403.62 128.49,538.53 126.97,538.32C105.68,538.49 84.38,538.3 63.09,538.41C94.31,493.27 125.6,448.18 156.77,403.01C176.02,403.001 214.54,403.533 214.54,403.533Z"/>
            <path d="M254.92,404.53C254.63,404.2 323.333,405.037 323.333,405.037C323.873,405.877 258.14,500.82 230.88,538.22C209.3,538.64 187.69,538.23 166.09,538.41C181.79,516.31 234.023,435.093 254.92,404.53Z"/>
            <path d="M271.09,538.41C288.68,513 361.43,408.44 364.76,403.01C386.9,402.98 409.03,403.03 431.16,402.98C399.94,447.22 367.313,494.327 336.203,538.647C335.433,539.597 292.38,538.3 271.09,538.41Z"/>
            <path d="M377.09,538.41C408.31,493.27 439.6,448.18 470.76,403.01C492.89,402.98 515.03,403.03 537.16,402.98C505.94,447.21 442.49,538.52 440.97,538.32C419.68,538.49 398.38,538.3 377.09,538.41Z"/>
        </g>
        <g transform="matrix(0.758938,0,0,0.758938,23.4591,28.1167)">
            <g>
                <g transform="matrix(1.01408,0,0,1.01408,8.13908,-24.1313)">
                    <path d="M331.28,237.32C337.04,229.66 348.71,223.09 357.88,228.8C360.83,230.27 370.01,233.18 373.26,233.73C373.6,234.11 387.57,233.75 397.01,234.76C406.1,236.6 410.31,245.68 414.12,253.14C423.28,276.2 432.6,299.04 442.29,321.88C452.94,339.74 471.55,351.05 482.31,368.84C488.58,374.7 494.39,382.69 490.65,391.67C489.74,391.6 488.83,391.54 487.94,391.49C486.36,383 477.43,381.03 470.59,378.44C449.57,364.03 432.81,343.93 421.51,321.2C421.48,320.59 421.4,319.38 421.37,318.77C416.3,311.49 413.26,302.3 405.28,297.53C404.74,297.48 403.64,297.38 403.1,297.34C400.58,303.5 396.91,310.17 399.26,316.98C399.59,341.55 391.06,368.4 405.28,390.97C414.81,427.46 437.81,459.62 443.68,497.24C444.23,498.07 444.78,498.9 445.34,499.74C447.47,512.83 452.8,525.12 454.8,538.26C455.26,539.08 455.73,539.91 456.21,540.75C458,547.86 461.74,554.39 462.79,561.71C466.74,567.35 474.42,565.11 479,561.52C484.28,560.41 488.55,563.59 492.18,566.95C489.27,571.78 484.71,575.19 480.2,578.42C478.79,578.47 477.4,578.53 476.01,578.64C465.03,576.21 459.51,588.69 449.37,587.5C445.41,584.05 445.04,578.27 442.23,574.02C434.34,560.89 433.43,544.75 426.75,531.06C419.01,503.33 405.45,477.41 393.63,451.2C389.32,443.9 388.25,435.03 382.59,428.49C381.52,428.5 380.45,428.52 379.38,428.55C378.44,429.52 377.5,430.5 376.57,431.48C375.22,454.45 370.71,477.05 369.09,500C365.63,507.71 362.14,515.43 357.87,522.74C351.26,535.85 346.88,550.37 338.9,562.86C338.31,567.02 336.28,570.73 333.56,573.88C331.05,583.29 342.46,586.14 346.75,592.74C346.59,595.91 345.7,598.97 344.46,601.88C340.93,602.17 336.735,600.535 334.765,597.875C334.085,597.935 324.235,584.17 323.565,584.23C321.265,582.46 322.135,587.685 320.87,589.605C315.35,586.695 315.31,589.11 312.92,581.92C311.93,573.37 316.33,564.83 315.94,556.05C326.31,529.12 339.13,502.82 347.52,475.01C344.66,443.35 340.5,411.73 336.6,380.15C336.3,364.11 336.53,348.05 336.47,332C336.91,316.83 341.15,301.51 338.29,286.41C337.51,286.49 336.73,286.58 335.96,286.66C326.55,300.62 320.24,316.27 312.03,330.91C309.85,338.94 305.39,346.47 306.31,355.08C303.21,361.36 303.15,368.69 299.71,374.87C299.32,383.49 297.07,391.83 293.32,399.58C292.82,399.6 291.82,399.63 291.32,399.64C281.6,387.51 291.1,371.78 289.82,357.97C291.45,323.39 309.45,293.22 319.84,260.94C324.95,253.56 324.56,243.62 331.28,237.32" style="fill-rule:nonzero;stroke:rgb(255,219,0);stroke-width:11.96px;"/>
                </g>
                <g transform="matrix(1.01408,0,0,1.01408,8.13908,-24.1313)">
                    <path d="M331.28,237.32C337.04,229.66 348.71,223.09 357.88,228.8C360.83,230.27 370.01,233.18 373.26,233.73C373.6,234.11 387.57,233.75 397.01,234.76C406.1,236.6 410.31,245.68 414.12,253.14C423.28,276.2 432.6,299.04 442.29,321.88C452.94,339.74 471.55,351.05 482.31,368.84C488.58,374.7 494.39,382.69 490.65,391.67C489.74,391.6 488.83,391.54 487.94,391.49C486.36,383 477.43,381.03 470.59,378.44C449.57,364.03 432.81,343.93 421.51,321.2C421.48,320.59 421.4,319.38 421.37,318.77C416.3,311.49 413.26,302.3 405.28,297.53C404.74,297.48 403.64,297.38 403.1,297.34C400.58,303.5 396.91,310.17 399.26,316.98C399.59,341.55 391.06,368.4 405.28,390.97C414.81,427.46 437.81,459.62 443.68,497.24C444.23,498.07 444.78,498.9 445.34,499.74C447.47,512.83 452.8,525.12 454.8,538.26C455.26,539.08 455.73,539.91 456.21,540.75C458,547.86 461.74,554.39 462.79,561.71C466.74,567.35 474.42,565.11 479,561.52C484.28,560.41 488.55,563.59 492.18,566.95C489.27,571.78 484.71,575.19 480.2,578.42C478.79,578.47 477.4,578.53 476.01,578.64C465.03,576.21 459.51,588.69 449.37,587.5C445.41,584.05 445.04,578.27 442.23,574.02C434.34,560.89 433.43,544.75 426.75,531.06C419.01,503.33 405.45,477.41 393.63,451.2C389.32,443.9 388.25,435.03 382.59,428.49C381.52,428.5 380.45,428.52 379.38,428.55C378.44,429.52 377.5,430.5 376.57,431.48C375.22,454.45 370.71,477.05 369.09,500C365.63,507.71 362.14,515.43 357.87,522.74C351.26,535.85 346.88,550.37 338.9,562.86C338.31,567.02 336.28,570.73 333.56,573.88C331.05,583.29 342.46,586.14 346.75,592.74C346.59,595.91 345.7,598.97 344.46,601.88C340.93,602.17 336.735,600.535 334.765,597.875C334.085,597.935 324.235,584.17 323.565,584.23C321.265,582.46 322.135,587.685 320.87,589.605C315.35,586.695 315.31,589.11 312.92,581.92C311.93,573.37 316.33,564.83 315.94,556.05C326.31,529.12 339.13,502.82 347.52,475.01C344.66,443.35 340.5,411.73 336.6,380.15C336.3,364.11 336.53,348.05 336.47,332C336.91,316.83 341.15,301.51 338.29,286.41C337.51,286.49 336.73,286.58 335.96,286.66C326.55,300.62 320.24,316.27 312.03,330.91C309.85,338.94 305.39,346.47 306.31,355.08C303.21,361.36 303.15,368.69 299.71,374.87C299.32,383.49 297.07,391.83 293.32,399.58C292.82,399.6 291.82,399.63 291.32,399.64C281.6,387.51 291.1,371.78 289.82,357.97C291.45,323.39 309.45,293.22 319.84,260.94C324.95,253.56 324.56,243.62 331.28,237.32" style="fill-rule:nonzero;"/>
                </g>
                <g transform="matrix(1.24246,0,0,1.24246,4.68487,-14.8551)">
                    <path d="M311.39,121.45C326.63,118.6 343.49,129.98 344.16,146.01C345.65,161.2 332.32,175.99 316.96,175.52C302.15,176.3 288.07,162.97 288.86,148C288.47,135.09 298.19,122.57 311.39,121.45Z" style="fill-rule:nonzero;"/>
                </g>
            </g>
        </g>
    </g>
</svg>
