<?xml version="1.0" encoding="UTF-8" standalone="no"?>
<!DOCTYPE svg PUBLIC "-//W3C//DTD SVG 1.1//EN" "http://www.w3.org/Graphics/SVG/1.1/DTD/svg11.dtd">
<!-- GeoHints -->
<svg width="100%" height="100%" viewBox="0 0 366 364" version="1.1" xmlns="http://www.w3.org/2000/svg" xmlns:xlink="http://www.w3.org/1999/xlink" xml:space="preserve" xmlns:serif="http://www.serif.com/" style="fill-rule:evenodd;clip-rule:evenodd;stroke-linejoin:round;stroke-miterlimit:2;">
    <g transform="matrix(0.666375,0.666375,-0.666375,0.666375,219.82,-87.3894)">
        <path d="M316.287,104.873C316.287,100.651 314.61,96.603 311.625,93.618C308.64,90.633 304.591,88.956 300.37,88.956L49.099,88.956C44.877,88.956 40.829,90.633 37.844,93.618C34.859,96.603 33.182,100.651 33.182,104.873L33.182,356.144C33.182,360.365 34.859,364.414 37.844,367.399C40.829,370.384 44.877,372.061 49.099,372.061L295.064,372.061C306.785,372.061 316.287,362.559 316.287,350.838L316.287,104.873Z" style="fill:rgb(255,219,0);"/>
    </g>
    <g transform="matrix(1,0,0,1,-6,-5.75404)">
        <path d="M359.569,199.015C365.427,193.157 365.427,183.659 359.569,177.802C327.435,145.668 231.394,49.627 199.261,17.494C193.403,11.636 183.905,11.636 178.048,17.494C145.914,49.627 49.873,145.668 17.74,177.802C11.882,183.659 11.882,193.157 17.74,199.015C49.873,231.148 145.914,327.189 178.048,359.323C183.905,365.181 193.403,365.181 199.261,359.323C231.394,327.189 327.435,231.148 359.569,199.015ZM353.758,195.495C357.663,191.59 357.663,185.259 353.758,181.353C325.863,153.459 223.62,51.215 195.725,23.321C191.82,19.416 185.488,19.416 181.583,23.321C153.688,51.215 51.445,153.459 23.551,181.353C19.645,185.259 19.645,191.59 23.551,195.495C51.445,223.39 153.688,325.633 181.583,353.528C185.488,357.433 191.82,357.433 195.725,353.528C223.62,325.633 325.863,223.39 353.758,195.495Z"/>
    </g>
    <g transform="matrix(0.56295,0,0,0.56295,-47.548,-51.0675)">
        <path d="M388.44,272.4C397.09,262.85 415.5,268.3 417.56,280.93C419.27,288.71 412.11,294.42 411.64,301.81C414.76,308.2 420.01,313.18 424.43,318.63C433.06,335.08 434.63,355.71 449.46,368.46C462.51,375.58 474.56,384.41 487.64,391.53C487.77,394.74 487.37,397.97 485.42,400.63C479.06,401.25 474.17,396.67 468.6,394.49C459.71,390.42 449.04,388.42 442.86,380.14C437.25,375.1 431.41,367.77 422.9,369.69C421.32,376.23 418.93,382.6 417.83,389.24C419.06,407.44 428.48,423.38 435.16,439.93C438.42,448.63 448.53,454.66 446.72,465.03C442.61,481.14 447.25,497.87 449.25,514.05C449.83,519.18 446.77,525.04 450.69,529.46C454.13,536.06 464.76,534.05 467.07,541.51C460.24,545.69 452.31,540.79 444.95,543.07C427.877,545.641 423.075,532.674 424.9,529.31C427.509,530.74 426.8,493.44 422.62,483.16C418.9,472.38 417.71,456.51 406.54,451.43C396.79,466.7 390.87,483.91 381.73,499.5C377.47,511.89 367.39,521.37 363.6,533.87C365.5,541.77 381.39,538.21 379.82,548.72C369.55,550.22 359.48,545.78 349.58,543.5C344.33,542.39 342.13,537.27 341.31,532.51C346.195,534.982 372.967,454.957 373.35,449.28C373.43,435.76 370.03,422.22 368.5,408.96C371.57,398.59 370.11,387.55 372.42,376.98C373.98,369.26 377.04,360.34 371.62,353.35C367.43,355.21 361.74,357.63 361.58,362.98C359.42,378.98 356.46,396.6 364.1,411.44C361,412.41 356.67,413.82 354.3,410.71C346.42,402.02 349.39,389.3 345.05,379.06C343.65,360.31 352.69,343.5 361.55,327.62C364.73,316.78 374.77,310.47 383.66,304.58C388.19,301.75 388.72,295.27 386.02,291C382.53,285.08 385.42,277.88 388.44,272.4Z" style="fill-rule:nonzero;"/>
        <path d="M341.241,530.736C340.891,530.749 340.546,530.866 340.254,531.082C339.714,531.481 339.445,532.15 339.559,532.812C340.496,538.251 343.2,543.955 349.192,545.234C359.299,547.563 369.593,552.009 380.077,550.478C380.852,550.365 381.461,549.757 381.577,548.982C381.871,547.011 381.641,545.438 381.085,544.151C379.863,541.317 376.914,539.806 373.6,538.64C371.684,537.967 369.659,537.383 368.005,536.484C366.859,535.862 365.896,535.09 365.457,533.886C367.335,527.998 370.641,522.8 373.983,517.605C377.555,512.051 381.171,506.503 383.354,500.239C392.157,485.182 397.974,468.615 407.173,453.761C411.456,456.298 413.899,460.787 415.704,465.763C417.859,471.704 419.084,478.357 420.941,483.739C420.951,483.77 420.962,483.8 420.974,483.829C424.251,491.886 425.3,516.889 424.301,525.849C424.219,526.578 424.052,527.364 423.948,527.811C423.695,527.971 423.484,528.195 423.339,528.463C422.627,529.774 422.506,532.217 423.543,534.893C425.594,540.188 432.042,546.81 445.214,544.827C445.303,544.813 445.39,544.793 445.476,544.767C448.92,543.7 452.497,544.377 456.013,544.768C460.162,545.229 464.225,545.334 467.997,543.025C468.69,542.601 469.007,541.761 468.767,540.985C467.433,536.675 463.823,534.947 459.923,533.497C456.959,532.396 453.775,531.536 452.265,528.639C452.198,528.51 452.115,528.39 452.019,528.281C450.411,526.468 450.323,524.337 450.489,522.156C450.7,519.386 451.317,516.522 451.015,513.85C451.014,513.844 451.014,513.838 451.013,513.832C449.04,497.868 444.386,481.364 448.441,465.469C448.452,465.425 448.462,465.38 448.47,465.335C449.464,459.641 447.274,455.112 444.299,450.839C441.675,447.068 438.403,443.522 436.823,439.307C436.818,439.293 436.813,439.279 436.807,439.265C430.222,422.951 420.892,407.254 419.617,389.33C420.659,383.185 422.802,377.274 424.345,371.237C427.61,370.827 430.409,372.01 432.96,373.768C436.075,375.915 438.838,378.899 441.55,381.351C444.809,385.652 449.212,388.37 453.986,390.514C458.533,392.556 463.419,394.072 467.861,396.105C467.891,396.119 467.922,396.132 467.953,396.144C470.691,397.216 473.259,398.885 475.927,400.203C478.937,401.689 482.066,402.742 485.592,402.398C486.095,402.349 486.554,402.088 486.853,401.68C489.047,398.688 489.561,395.07 489.415,391.458C489.39,390.834 489.038,390.269 488.489,389.97C475.465,382.88 463.463,374.095 450.477,366.992C443.386,360.833 439.481,352.779 436.282,344.305C432.931,335.43 430.351,326.093 426.003,317.805C425.948,317.701 425.884,317.602 425.81,317.511C421.574,312.288 416.536,307.525 413.452,301.464C413.798,298.188 415.548,295.275 417.011,292.3C418.818,288.627 420.234,284.883 419.303,280.587C418.147,273.622 412.543,268.576 405.972,266.643C399.391,264.707 391.915,265.918 387.123,271.207C387.031,271.31 386.951,271.422 386.884,271.543C383.584,277.532 380.675,285.432 384.49,291.902C384.499,291.918 384.509,291.934 384.519,291.949C386.726,295.44 386.422,300.76 382.719,303.073C382.705,303.082 382.692,303.09 382.679,303.099C373.504,309.178 363.261,315.795 359.901,326.932C350.908,343.054 341.857,360.156 343.279,379.192C343.293,379.385 343.339,379.575 343.414,379.753C345.525,384.733 345.825,390.321 346.589,395.715C347.421,401.594 348.784,407.242 352.94,411.855C354.507,413.868 356.685,414.491 359.012,414.379C360.928,414.287 362.948,413.662 364.63,413.135C365.131,412.979 365.537,412.609 365.739,412.125C365.941,411.642 365.919,411.093 365.679,410.627C358.206,396.111 361.228,378.869 363.34,363.218C363.349,363.156 363.354,363.095 363.356,363.033C363.418,360.935 364.627,359.448 366.169,358.266C367.618,357.156 369.363,356.307 370.999,355.57C372.742,358.411 373.088,361.563 372.865,364.768C372.589,368.756 371.447,372.831 370.682,376.615C368.385,387.138 369.853,398.131 366.797,408.456C366.729,408.685 366.708,408.926 366.735,409.164C368.255,422.331 371.641,435.774 371.574,449.199C371.15,454.037 354.137,505.405 344.882,524.576C343.806,526.803 342.844,528.583 342.025,529.776C341.771,530.146 341.432,530.529 341.241,530.736ZM388.44,272.4C397.09,262.85 415.5,268.3 417.56,280.93C419.27,288.71 412.11,294.42 411.64,301.81C414.76,308.2 420.01,313.18 424.43,318.63C433.06,335.08 434.63,355.71 449.46,368.46C462.51,375.58 474.56,384.41 487.64,391.53C487.77,394.74 487.37,397.97 485.42,400.63C479.06,401.25 474.17,396.67 468.6,394.49C459.71,390.42 449.04,388.42 442.86,380.14C437.25,375.1 431.41,367.77 422.9,369.69C421.32,376.23 418.93,382.6 417.83,389.24C419.06,407.44 428.48,423.38 435.16,439.93C438.42,448.63 448.53,454.66 446.72,465.03C442.61,481.14 447.25,497.87 449.25,514.05C449.83,519.18 446.77,525.04 450.69,529.46C454.13,536.06 464.76,534.05 467.07,541.51C460.24,545.69 452.31,540.79 444.95,543.07C427.877,545.641 423.075,532.674 424.9,529.31C427.509,530.74 426.8,493.44 422.62,483.16C418.9,472.38 417.71,456.51 406.54,451.43C396.79,466.7 390.87,483.91 381.73,499.5C377.47,511.89 367.39,521.37 363.6,533.87C365.5,541.77 381.39,538.21 379.82,548.72C369.55,550.22 359.48,545.78 349.58,543.5C344.33,542.39 342.13,537.27 341.31,532.51C346.195,534.982 372.967,454.957 373.35,449.28C373.43,435.76 370.03,422.22 368.5,408.96C371.57,398.59 370.11,387.55 372.42,376.98C373.98,369.26 377.04,360.34 371.62,353.35C367.43,355.21 361.74,357.63 361.58,362.98C359.42,378.98 356.46,396.6 364.1,411.44C361,412.41 356.67,413.82 354.3,410.71C346.42,402.02 349.39,389.3 345.05,379.06C343.65,360.31 352.69,343.5 361.55,327.62C364.73,316.78 374.77,310.47 383.66,304.58C388.19,301.75 388.72,295.27 386.02,291C382.53,285.08 385.42,277.88 388.44,272.4Z" style="fill:rgb(255,219,0);"/>
    </g>
</svg>
