<?xml version="1.0" encoding="UTF-8" standalone="no"?>
<!DOCTYPE svg PUBLIC "-//W3C//DTD SVG 1.1//EN" "http://www.w3.org/Graphics/SVG/1.1/DTD/svg11.dtd">
<!-- GeoHints -->
<svg width="100%" height="100%" viewBox="0 0 366 364" version="1.1" xmlns="http://www.w3.org/2000/svg" xmlns:xlink="http://www.w3.org/1999/xlink" xml:space="preserve" xmlns:serif="http://www.serif.com/" style="fill-rule:evenodd;clip-rule:evenodd;stroke-linejoin:round;stroke-miterlimit:2;">
    <g transform="matrix(0.666375,0.666375,-0.666375,0.666375,219.82,-87.3894)">
        <path d="M316.287,104.873C316.287,100.651 314.61,96.603 311.625,93.618C308.64,90.633 304.591,88.956 300.37,88.956L49.099,88.956C44.877,88.956 40.829,90.633 37.844,93.618C34.859,96.603 33.182,100.651 33.182,104.873L33.182,356.144C33.182,360.365 34.859,364.414 37.844,367.399C40.829,370.384 44.877,372.061 49.099,372.061L295.064,372.061C306.785,372.061 316.287,362.559 316.287,350.838L316.287,104.873Z" style="fill:rgb(255,219,0);"/>
    </g>
    <g transform="matrix(1,0,0,1,-6,-5.75404)">
        <path d="M359.569,199.015C365.427,193.157 365.427,183.659 359.569,177.802C327.435,145.668 231.394,49.627 199.261,17.494C193.403,11.636 183.905,11.636 178.048,17.494C145.914,49.627 49.873,145.668 17.74,177.802C11.882,183.659 11.882,193.157 17.74,199.015C49.873,231.148 145.914,327.189 178.048,359.323C183.905,365.181 193.403,365.181 199.261,359.323C231.394,327.189 327.435,231.148 359.569,199.015ZM353.758,195.495C357.663,191.59 357.663,185.259 353.758,181.353C325.863,153.459 223.62,51.215 195.725,23.321C191.82,19.416 185.488,19.416 181.583,23.321C153.688,51.215 51.445,153.459 23.551,181.353C19.645,185.259 19.645,191.59 23.551,195.495C51.445,223.39 153.688,325.633 181.583,353.528C185.488,357.433 191.82,357.433 195.725,353.528C223.62,325.633 325.863,223.39 353.758,195.495Z"/>
    </g>
    <g>
        <path d="M213.39,246.837C212.222,246.279 211.199,245.454 210.53,244.314C204.546,232.964 198.489,221.643 192.405,210.377C184.966,202.721 177.373,195.236 169.776,187.766C169.207,187.273 168.201,185.9 167.694,187.202C156.327,207.191 144.907,227.294 133.444,247.122C134.926,253.466 141.609,255.506 146.346,258.027C147.929,258.787 150.125,261.493 147.872,262.899C141.447,263.378 135.307,260.864 129.455,258.232C125.571,258.423 122.173,255.9 118.551,254.644C127.338,226.668 136.431,198.805 145.279,170.863C145.909,168.511 143.8,166.773 142.707,165.078C145.091,154 149.508,143.378 151.642,132.218C143.464,143.548 136.383,155.836 128.563,167.479C127.176,169.06 128.698,171.317 127.88,173.142C125.855,179.144 115.323,177.248 116.491,170.269C118.005,168.467 120.091,167.428 121.525,165.514C121.005,164.854 120.467,164.22 119.916,163.599C125.864,151.89 131.091,139.689 136.943,127.911C143.932,117.893 150.89,107.844 157.809,97.757C160.307,97.588 162.826,97.863 165.319,97.561C166.705,96.004 170.445,93.75 168.013,91.484C165.232,88.388 164.641,83.172 166.657,79.399C173.472,69.039 190.529,72.095 194.26,84.157C195.873,92.516 187.31,98.072 180.784,97.236C180.754,98.136 180.749,99.04 180.78,99.945C185.154,102.945 190.393,103.691 194.92,106.335C200.256,116.336 205.395,126.479 211.05,136.216C217.624,145.394 225.597,153.142 232.647,161.826C234.344,166.131 241.578,164.155 241.198,169.852C239.588,171.556 238.062,173.47 236.212,174.822C232.42,175.155 231.283,170.33 228.925,168.021C220.104,160.812 211.413,153.363 202.508,146.266C198.043,142.781 196.228,135.988 191.867,132.688C189.256,142.574 186.96,152.547 184.432,162.452C183.981,163.875 184.878,165.096 185.504,166.23C200.252,190.529 213.071,216.298 223.747,243.121C223.909,244.089 222.684,244.355 222.181,244.879C222.4,245.318 222.408,245.721 222.249,246.079C224.468,248.089 227.516,248.732 230.14,249.851C235.215,251.678 240.036,247.95 245.086,249.051C246.382,249.128 246.732,250.654 246.691,251.826C241.634,255.266 235.864,257.503 229.821,257.835C229.113,257.696 228.816,258.479 228.419,258.923C226.107,259.457 223.79,260.032 221.414,260.175C217.4,257.233 216.033,251.33 213.39,246.837Z" style="fill-rule:nonzero;"/>
    </g>
</svg>
