<?xml version="1.0" encoding="UTF-8" standalone="no"?>
<!DOCTYPE svg PUBLIC "-//W3C//DTD SVG 1.1//EN" "http://www.w3.org/Graphics/SVG/1.1/DTD/svg11.dtd">
<!-- GeoHints -->
<svg width="100%" height="100%" viewBox="0 0 637 757" version="1.1" xmlns="http://www.w3.org/2000/svg" xmlns:xlink="http://www.w3.org/1999/xlink" xml:space="preserve" xmlns:serif="http://www.serif.com/" style="fill-rule:evenodd;clip-rule:evenodd;stroke-linejoin:round;stroke-miterlimit:2;">
    <g transform="matrix(1,0,0,1,-89.1786,-19.8175)">
        <path d="M725.424,59.817C725.424,49.209 721.209,39.035 713.708,31.533C706.207,24.032 696.032,19.817 685.424,19.817C571.052,19.817 243.55,19.817 129.179,19.817C118.57,19.817 108.396,24.032 100.894,31.533C93.393,39.035 89.179,49.209 89.179,59.817C89.179,190.68 89.179,605.148 89.179,736.01C89.179,746.619 93.393,756.793 100.894,764.295C108.396,771.796 118.57,776.01 129.179,776.01C243.55,776.01 571.052,776.01 685.424,776.01C696.032,776.01 706.207,771.796 713.708,764.295C721.209,756.793 725.424,746.619 725.424,736.01C725.424,605.148 725.424,190.68 725.424,59.817Z"/>
    </g>
    <g transform="matrix(0.955342,0,0,0.958621,-72.0324,-4.39509)">
        <path d="M725.424,45.897C725.424,31.493 713.708,19.817 699.255,19.817L115.347,19.817C100.895,19.817 89.179,31.493 89.179,45.897L89.179,749.931C89.179,764.334 100.895,776.01 115.347,776.01L699.255,776.01C713.708,776.01 725.424,764.334 725.424,749.931L725.424,45.897Z" style="fill:white;"/>
    </g>
    <g transform="matrix(1,0,0,1,-89.1786,-19.8175)">
        <g transform="matrix(1.02174,0,0,1,-14.9499,0)">
            <rect x="626.363" y="670.375" width="61.333" height="37.333"/>
        </g>
        <g transform="matrix(1.02174,0,0,1,-137.95,0)">
            <rect x="626.363" y="670.375" width="61.333" height="37.333"/>
        </g>
        <g transform="matrix(1.02174,0,0,1,-266.95,0)">
            <rect x="626.363" y="670.375" width="61.333" height="37.333"/>
        </g>
        <g transform="matrix(1.02174,0,0,1,-393.95,0)">
            <rect x="626.363" y="670.375" width="61.333" height="37.333"/>
        </g>
        <g transform="matrix(1.02174,0,0,1,-519.95,0)">
            <rect x="626.363" y="670.375" width="61.333" height="37.333"/>
        </g>
    </g>
    <g transform="matrix(1,0,0,1,-89.1786,-145.817)">
        <g transform="matrix(1.02174,0,0,1,-14.9499,0)">
            <rect x="626.363" y="670.375" width="61.333" height="37.333"/>
        </g>
        <g transform="matrix(1.02174,0,0,1,-137.95,0)">
            <rect x="626.363" y="670.375" width="61.333" height="37.333"/>
        </g>
        <g transform="matrix(1.02174,0,0,1,-266.95,0)">
            <rect x="626.363" y="670.375" width="61.333" height="37.333"/>
        </g>
        <g transform="matrix(1.02174,0,0,1,-393.95,0)">
            <rect x="626.363" y="670.375" width="61.333" height="37.333"/>
        </g>
        <g transform="matrix(1.02174,0,0,1,-519.95,0)">
            <rect x="626.363" y="670.375" width="61.333" height="37.333"/>
        </g>
    </g>
    <g transform="matrix(1,0,0,1,-89.1786,-19.8175)">
        <path d="M377.85,188.69C388.56,182.51 403.32,185.49 410.13,195.9C418.76,204.15 451.22,269.89 451.57,283.44C459.25,295.41 468.84,305.97 479.73,315.15C492.98,321.07 503.94,330.84 513.48,341.6C520.82,350.2 522.82,365.63 511.99,372.27C503.3,377.42 465.01,354.973 454.2,337.72C436.19,320.233 435.96,311.57 425.57,299.51C423.2,299.53 420.84,299.52 418.48,299.51C416.85,301.21 415.19,302.89 413.51,304.55C414.87,311.76 401.95,363.31 402.55,382.88C406.17,394.46 414.35,403.85 422.08,412.95C434.71,427.57 468.33,478.29 472.28,488.86C476.56,495.18 472.9,503.03 475.55,509.79C481.27,527.18 480.33,545.65 484.89,563.3C489.95,583.88 486.75,604.86 487.52,626.12C485.53,635.68 474.01,640.64 465.11,638.11C458.68,634.19 454.29,627.89 450.17,621.75C441.6,611.02 445.2,595.15 436.71,584.49C431.829,576.706 433.14,538.916 430.51,539.9C430.26,529.55 426.1,519.55 421.22,510.52C413.26,489.08 397.3,472.11 383.35,454.51C379.69,449.25 374.76,442.46 367.51,443.46C366.53,444.47 365.55,445.48 364.59,446.51C364.76,456.96 351.98,502.04 350.56,515.14C347.72,524.79 339.36,532.7 339.46,543.15C337.12,545.15 305.22,606.01 290.91,623.67C287.09,630.62 282.58,637.74 275.97,642.32C270.62,642.73 265.21,642.54 259.85,642.42C251.03,638.64 247.8,627.9 248.43,619C247.47,610.92 266.407,588.767 265.217,580.657C277.58,570.591 277.543,549.94 282.35,543.46C290.78,533.48 311.6,451.87 314.17,425.46C321.08,410.94 345.6,302.01 335.96,285.53C325.15,283.31 320.87,295.3 314.65,301.52C308.96,319.42 306.7,338.2 305.52,357.01C305.94,365.63 300.62,372.92 297.82,380.68C297.74,388.75 291.73,398.03 282.89,397.54C277.61,395.65 271.86,392.63 269.61,387.12C268.45,370.83 282.84,299.92 286.23,280.47C293.17,262.05 311.26,252.55 323.52,238.52C342.3,222.71 356.14,201.01 377.85,188.69Z" style="fill-rule:nonzero;"/>
    </g>
    <g transform="matrix(1,0,0,1,-89.1786,-19.8175)">
        <path d="M387.06,104.6C407.44,93.26 437.63,109.24 437.44,133.04C432.4,151.51 419.99,169.61 399.97,173.43C391.64,174.33 386.777,169.983 377.57,165.18C371.12,156.12 362.63,145.88 364.69,134C368.535,120.275 371.461,106.521 387.06,104.6Z" style="fill-rule:nonzero;"/>
    </g>
</svg>
