<?xml version="1.0" encoding="UTF-8" standalone="no"?>
<!DOCTYPE svg PUBLIC "-//W3C//DTD SVG 1.1//EN" "http://www.w3.org/Graphics/SVG/1.1/DTD/svg11.dtd">
<!-- GeoHints -->
<svg width="100%" height="100%" viewBox="0 0 8774 7726" version="1.1" xmlns="http://www.w3.org/2000/svg" xmlns:xlink="http://www.w3.org/1999/xlink" xml:space="preserve" xmlns:serif="http://www.serif.com/" style="fill-rule:evenodd;clip-rule:evenodd;stroke-linejoin:round;stroke-miterlimit:2;">
    <g transform="matrix(15.2872,0,0,15.2872,-19.8233,-19.9649)">
        <path d="M5.445,460.201L261.45,16.788C266.982,7.208 277.204,1.306 288.266,1.306C299.329,1.306 309.55,7.208 315.081,16.788L571.086,460.201C576.617,469.781 576.617,481.585 571.086,491.165C565.556,500.745 555.333,506.647 544.271,506.647L32.26,506.647C21.198,506.647 10.976,500.745 5.445,491.165C-0.086,481.585 -0.086,469.781 5.445,460.201Z" style="fill:white;fill-rule:nonzero;"/>
    </g>
    <g transform="matrix(15.4472,0,0,15.4472,-65.9855,-62.7723)">
        <path d="M32.171,494.262L544.362,494.262C550.98,494.262 557.096,490.731 560.406,484.998C563.716,479.267 563.716,472.204 560.406,466.473L304.31,22.902C301,17.17 294.885,13.639 288.266,13.639C281.647,13.639 275.532,17.17 272.223,22.902L16.127,466.473C12.817,472.204 12.817,479.267 16.127,484.998C19.436,490.73 25.552,494.262 32.171,494.262Z" style="fill:rgb(249,26,14);fill-rule:nonzero;"/>
    </g>
    <g transform="matrix(1.00881,0,0,1,-18.3285,0)">
        <path d="M4238.25,1291.34C4264.85,1245.09 4313.85,1216.62 4366.85,1216.62C4419.86,1216.62 4468.86,1245.09 4495.46,1291.34C5036.44,2231.89 7124.32,5861.93 7667.14,6805.68C7693.83,6852.08 7693.92,6909.33 7667.38,6955.82C7640.84,7002.31 7591.71,7030.96 7538.53,7030.96L1195.18,7030.96C1142,7030.96 1092.87,7002.31 1066.33,6955.82C1039.79,6909.33 1039.88,6852.08 1066.57,6805.68C1609.38,5861.93 3697.27,2231.89 4238.25,1291.34Z" style="fill:white;"/>
    </g>
    <g transform="matrix(9.63828,0,0,9.31559,462.114,-185.52)">
        <g transform="matrix(0.120219,0,-0.0416864,0.107347,122.493,19.9151)">
            <rect x="2642.68" y="5169.25" width="320" height="896"/>
        </g>
        <g transform="matrix(0.120219,0,-0.0347387,0.107347,169.581,19.9151)">
            <rect x="2642.68" y="5169.25" width="320" height="896"/>
        </g>
        <g transform="matrix(-0.120219,0,0.0416864,0.107347,688.06,19.9151)">
            <rect x="2642.68" y="5169.25" width="320" height="896"/>
        </g>
        <g transform="matrix(-0.120219,0,0.0347387,0.107347,633.709,19.9151)">
            <rect x="2642.68" y="5169.25" width="320" height="896"/>
        </g>
        <g transform="matrix(0.120219,0,0.00694774,0.107347,26.7203,19.9151)">
            <path d="M2962.68,5169.25L2642.68,5169.25L2483.88,6065.3L2962.68,6065.25L2962.68,5169.25Z"/>
        </g>
    </g>
    <g transform="matrix(9.63828,0,0,9.31559,462.114,-185.52)">
        <path d="M366.69,276.56C373.68,267.46 388.48,261.51 398.35,269.61C408.7,280.95 396.06,297.67 403.98,309.99C413.21,317.27 425.79,315.36 436.31,318.75C451.96,333.85 468.18,348.55 485.94,361.07C497.74,374.71 495.41,394.04 500.55,410C500.7,416.1 493.9,418.56 491.15,423.22C488.19,431.98 497.88,440 494.24,448.44C491.74,448.5 489.25,448.49 486.77,448.4C479.83,434.71 482.73,418.76 477.71,404.61C476.37,387.74 465.05,373.22 451.05,364.51C446.87,363.71 443.35,369.89 445.17,373.51C451.45,390.17 457.75,406.81 464.26,423.39C462.82,430.87 473.58,436.9 467.79,443.91C462.65,449.31 462.55,457.09 465.11,463.73C471.77,516 489.27,566.57 488.49,619.75C483.69,624.05 477.07,624.56 471.09,626C462.56,629.55 453.4,632.47 444.09,632.46C440.43,632.47 441.74,627.9 441.45,625.54C444.5,620.93 451.02,620.37 453.36,615.18C462.23,602.41 458.12,586 455.75,571.85C449.8,552.4 435.49,536.74 430.39,516.81C429.77,513.31 426.74,509.87 422.93,510.51C417.53,513.99 414.48,519.87 412.52,525.8C393.29,552.12 378.66,581.14 364.12,610.15C355.88,609.94 350.43,615.66 344.58,620.32C328.64,620.6 316.62,607.04 303.63,599.2C303.55,598 303.47,596.81 303.4,595.62C308.55,593.01 314.5,592.94 320.01,594.37C335.09,593.5 345.92,579.7 348.98,565.76C356.29,556.7 358.05,544.97 361.47,534.18C363.94,522.74 374.69,515.4 377.25,503.99C384.52,490.39 390.85,476.13 394.41,461.05C394.09,447.66 390.6,434.54 389.01,421.22C387.99,417.53 384.64,411.99 380.15,413.92C367.93,421.53 362.52,437.21 349.32,443.35C344.04,442.31 337.37,439.11 332.69,443.66C327.36,449.08 319.69,453.42 311.89,452.22C309.65,449.94 310.7,446.48 310.56,443.64C315.58,438.88 318.87,432.07 326.03,430.1C353.07,413.47 362.05,381.15 368.46,352C368.61,340.05 383.02,335.77 385.53,325.02C385.51,316.34 373.51,317.57 370.28,310.73C365.48,300.1 364.29,288.05 366.69,276.56Z" style="fill-rule:nonzero;"/>
        <path d="M376.413,325.389C375.637,326.584 374.588,327.626 373.555,328.69C371.65,330.653 369.603,332.539 367.776,334.54C363.603,339.111 360.554,344.264 360.194,350.878C354.356,377.334 346.735,406.8 322.636,422.187C318.094,423.726 314.587,426.533 311.486,429.897C309.269,432.302 307.326,435.058 304.952,437.309C303.128,439.039 302.144,441.52 302.271,444.077C302.363,445.952 302.034,448.072 302.248,450.009C302.591,453.105 303.707,455.938 306.069,458.342C307.321,459.616 308.932,460.447 310.669,460.714C320.99,462.302 331.309,457.05 338.396,449.898C338.594,449.734 338.857,449.868 339.094,449.876C339.704,449.899 340.322,450.003 340.942,450.128C343.296,450.604 345.644,451.368 347.768,451.786C349.44,452.116 351.17,451.905 352.723,451.183C360.504,447.564 366.146,441.323 371.486,434.676C374.508,430.913 377.392,426.977 380.975,423.86C382.557,435.983 385.62,447.944 386.077,460.129C382.645,474.058 376.721,487.235 369.987,499.834C369.615,500.529 369.338,501.274 369.165,502.048C368.141,506.613 365.28,510.25 362.627,514.004C358.716,519.536 355.014,525.179 353.465,531.878C350.452,541.553 349.147,552.153 342.608,560.257C341.767,561.299 341.177,562.534 340.886,563.858C338.661,573.995 331.36,584.454 320.619,585.703C313.629,584.17 306.224,584.626 299.749,587.908C296.739,589.433 294.912,592.681 295.115,596.142C295.186,597.355 295.268,598.568 295.349,599.791C295.539,602.628 297.073,605.185 299.448,606.618C305.86,610.488 312.024,615.782 318.56,620.062C326.563,625.301 335.088,629.076 344.721,628.907C346.504,628.875 348.23,628.25 349.644,627.125C351.888,625.337 354.065,623.378 356.383,621.694C358.587,620.092 360.909,618.659 363.916,618.735C367.088,618.816 370.028,617.018 371.488,614.103C385.814,585.522 400.195,556.91 419.141,530.979C419.673,530.251 420.089,529.441 420.374,528.579C421.108,526.357 421.985,524.09 423.231,522.098C426.106,531.583 430.76,540.244 435.573,548.822C440.136,556.954 444.859,564.999 447.672,573.913C448.785,580.436 450.276,587.436 450.473,594.288C450.634,599.877 449.939,605.389 446.62,610.168C446.318,610.603 446.056,611.065 445.838,611.55C445.58,612.122 444.951,612.262 444.454,612.574C443.693,613.053 442.902,613.5 442.125,613.966C439.21,615.713 436.532,617.769 434.601,620.689C433.489,622.369 432.992,624.401 433.196,626.422C433.192,626.751 433.157,631.235 433.705,633.148C434.37,635.471 435.605,637.358 437.355,638.76C438.953,640.041 441.076,641.052 444.095,641.048C454.234,641.058 464.247,638.055 473.576,634.22C480.669,632.548 488.254,631.321 493.923,626.242C495.711,624.641 496.753,622.327 496.789,619.88C497.575,566.28 480.052,515.291 473.339,462.608C473.249,461.901 473.075,461.21 472.819,460.548C471.457,457.014 470.968,452.81 473.704,449.936C473.841,449.792 473.973,449.643 474.1,449.489C475.194,448.164 476.027,446.858 476.631,445.564C477.375,447.881 478.289,450.16 479.419,452.389C480.804,455.121 483.499,456.874 486.479,456.982C489.12,457.078 491.771,457.089 494.432,457.025C497.638,456.949 500.513,454.969 501.82,451.939C504.205,446.409 503.566,440.978 501.687,435.546C501.011,433.59 500.166,431.634 499.51,429.658C499.197,428.715 498.786,427.784 498.839,426.819C500.321,424.942 502.619,423.554 504.218,421.747C507.129,418.46 508.967,414.646 508.848,409.782C508.827,408.932 508.684,408.091 508.425,407.285C505.972,399.67 505.368,391.236 503.903,383.094C502.091,373.024 499.087,363.391 492.125,355.343C491.676,354.824 491.169,354.365 490.614,353.973C473.203,341.699 457.313,327.273 441.971,312.469C441.059,311.59 439.968,310.934 438.778,310.551C433.117,308.726 426.914,308.254 420.872,307.333C417.146,306.765 413.458,306.08 410.257,304.044C409.205,301.606 409.419,298.907 409.655,296.201C409.955,292.757 410.536,289.261 410.797,285.85C411.411,277.793 410.308,270.204 404.385,263.714C404.112,263.415 403.819,263.137 403.508,262.882C390.072,251.855 369.708,258.829 360.192,271.217C359.399,272.249 358.846,273.457 358.577,274.746C355.794,288.069 357.194,302.039 362.76,314.365C362.78,314.41 362.801,314.455 362.822,314.5C364.571,318.204 367.534,320.83 371.121,322.788C372.627,323.61 374.251,324.313 375.792,325.06C375.975,325.149 376.192,325.265 376.413,325.389ZM366.69,276.56C373.68,267.46 388.48,261.51 398.35,269.61C408.7,280.95 396.06,297.67 403.98,309.99C413.21,317.27 425.79,315.36 436.31,318.75C451.96,333.85 468.18,348.55 485.94,361.07C497.74,374.71 495.41,394.04 500.55,410C500.7,416.1 493.9,418.56 491.15,423.22C488.19,431.98 497.88,440 494.24,448.44C491.74,448.5 489.25,448.49 486.77,448.4C479.83,434.71 482.73,418.76 477.71,404.61C476.37,387.74 465.05,373.22 451.05,364.51C446.87,363.71 443.35,369.89 445.17,373.51C451.45,390.17 457.75,406.81 464.26,423.39C462.82,430.87 473.58,436.9 467.79,443.91C462.65,449.31 462.55,457.09 465.11,463.73C471.77,516 489.27,566.57 488.49,619.75C483.69,624.05 477.07,624.56 471.09,626C462.56,629.55 453.4,632.47 444.09,632.46C440.43,632.47 441.74,627.9 441.45,625.54C444.5,620.93 451.02,620.37 453.36,615.18C462.23,602.41 458.12,586 455.75,571.85C449.8,552.4 435.49,536.74 430.39,516.81C429.77,513.31 426.74,509.87 422.93,510.51C417.53,513.99 414.48,519.87 412.52,525.8C393.29,552.12 378.66,581.14 364.12,610.15C355.88,609.94 350.43,615.66 344.58,620.32C328.64,620.6 316.62,607.04 303.63,599.2C303.55,598 303.47,596.81 303.4,595.62C308.55,593.01 314.5,592.94 320.01,594.37C335.09,593.5 345.92,579.7 348.98,565.76C356.29,556.7 358.05,544.97 361.47,534.18C363.94,522.74 374.69,515.4 377.25,503.99C384.52,490.39 390.85,476.13 394.41,461.05C394.09,447.66 390.6,434.54 389.01,421.22C387.99,417.53 384.64,411.99 380.15,413.92C367.93,421.53 362.52,437.21 349.32,443.35C344.04,442.31 337.37,439.11 332.69,443.66C327.36,449.08 319.69,453.42 311.89,452.22C309.65,449.94 310.7,446.48 310.56,443.64C315.58,438.88 318.87,432.07 326.03,430.1C353.07,413.47 362.05,381.15 368.46,352C368.61,340.05 383.02,335.77 385.53,325.02C385.51,316.34 373.51,317.57 370.28,310.73C365.48,300.1 364.29,288.05 366.69,276.56ZM456.257,379.272C461.416,392.928 466.612,406.563 471.95,420.158C472.525,421.621 472.697,423.218 472.446,424.772L472.75,425.515C472.853,425.75 472.955,425.984 473.057,426.218L473.15,426.41C472.519,420.029 472.061,413.61 469.918,407.569C469.66,406.843 469.499,406.084 469.438,405.313C468.636,395.225 463.434,386.244 456.257,379.272ZM452.853,370.267C452.807,370.139 452.755,370.014 452.7,369.894C452.646,369.773 452.589,369.657 452.534,369.547C452.651,369.781 452.759,370.021 452.853,370.267Z" style="fill:white;"/>
    </g>
</svg>
