<?xml version="1.0" encoding="UTF-8" standalone="no"?><!DOCTYPE svg PUBLIC "-//W3C//DTD SVG 1.1//EN" "http://www.w3.org/Graphics/SVG/1.1/DTD/svg11.dtd"><svg width="100%" height="100%" viewBox="0 0 1250 1246" version="1.1" xmlns="http://www.w3.org/2000/svg" xmlns:xlink="http://www.w3.org/1999/xlink" xml:space="preserve" xmlns:serif="http://www.serif.com/" style="fill-rule:evenodd;clip-rule:evenodd;stroke-linejoin:round;stroke-miterlimit:2;"><path d="M69.958,4.208c8.584,1.25 17.167,2.334 25.792,2.334c340.292,-0.042 680.583,-0 1020.88,-0.042c11.792,0.083 23.625,-0.583 35.292,1c9.458,-1.042 18.875,-2 28.25,-3.542c-1.167,2.292 -3.542,6.875 -4.709,9.167c3.417,-1.542 6.834,-3.125 10.25,-4.667c1.084,2 3.25,6 4.292,8.042c2.083,-1.167 6.208,-3.5 8.292,-4.625c3.708,5.375 7.458,10.75 10.916,16.333c1.5,-1.041 4.459,-3.083 5.959,-4.125c2.833,3.792 5.791,7.75 3.25,12.459c4.875,3.875 9.791,7.75 14.791,11.5c-1.083,1.958 -3.25,5.958 -4.333,7.916c2.25,-0.375 6.792,-1.208 9.042,-1.583c-1.25,2.708 -3.75,8.167 -4.959,10.917c2.25,-0.834 6.709,-2.5 8.959,-3.334c-1.459,5.417 -2.834,10.875 -4.25,16.334l8.541,-4c-0.958,6.541 -1.958,13.083 -3.5,19.541c0.375,2.667 1.125,8.042 1.5,10.75l0,1016.25c0.042,16.959 -0.708,34.042 1.667,50.917l-8.25,-4.375c1.083,4.125 3.208,12.375 4.292,16.5l-8.459,-3.292c1.125,3.417 3.292,10.292 4.375,13.75c-4.958,3.334 -9.833,6.792 -14.833,10.084c1.833,4.875 -0.208,9.125 -3.292,13.125l-8.125,-7.084l3.834,8.5c-1.167,1.667 -3.542,5 -4.75,6.709c-1.5,-1.084 -4.584,-3.209 -6.125,-4.25c-1.834,4.166 -3.709,8.375 -5.542,12.583c-2.833,-1.417 -8.542,-4.208 -11.375,-5.625l5.25,9.958c-5.792,-1.583 -11.542,-3.25 -17.292,-4.958c1.167,2.125 3.5,6.417 4.625,8.583c-8,-1.458 -16.083,-2.583 -24.125,-3.75c-4.75,0.625 -9.541,1 -14.291,1.084c-341.709,-0.125 -683.459,-0 -1025.17,-0.042c-15.583,-0.042 -31.333,-0.75 -46.75,2.458l4.333,-8.125c-4.125,1.125 -12.333,3.417 -16.416,4.542l3.625,-9.417c-2.459,1.292 -7.334,3.959 -9.792,5.292c-3.708,-5.375 -7.375,-10.75 -10.708,-16.333c-1.334,0.875 -4,2.666 -5.334,3.541c-4.666,-5.458 -9.833,-10.375 -15.208,-15.041c1.417,-2.042 4.208,-6.042 5.625,-8.084l-7.25,1.084c-1.542,-1.292 -4.583,-3.792 -6.125,-5.042c1.125,-3.917 3.417,-11.792 4.583,-15.708c-2.25,2.625 -6.791,7.875 -9.041,10.458c1.166,-8.875 3.583,-26.708 4.75,-35.583l-4.584,18.958l-4.375,5.042c0.667,-9.084 1.875,-18.084 2,-27.209c0,-338.916 -0.041,-677.833 0,-1016.75c0.167,-11.833 -1,-23.833 1.334,-35.5c-1.834,-9.708 -2.625,-19.583 -3.417,-29.416l4.458,5.208l4.584,18.708c-1.209,-8.791 -3.625,-26.375 -4.834,-35.166l3.667,2.541l4.875,10.334c-0.917,-4.584 -2.75,-13.709 -3.667,-18.292c4.459,-3.792 9.167,-7.25 13.875,-10.708c-1.083,-4.584 0.5,-8.834 3.25,-12.584l8.459,6.875l-4.209,-8.416c1.292,-1.75 3.917,-5.167 5.209,-6.875c1.75,1.291 5.208,3.875 6.958,5.166c-0.042,-1.916 -0.083,-5.666 -0.125,-7.541c1.958,0.458 5.792,1.416 7.75,1.875c1.667,-3.834 3.375,-7.625 5.083,-11.417c3.709,1.042 11.167,3.208 14.875,4.25l-4.125,-8.167m19.334,72.25c-6.542,3.584 -13.375,10.209 -12.042,18.375c0.042,12.834 -1,25.667 -0.542,38.5c0.084,338.875 -0.041,677.75 0.042,1016.62c-1.333,12.667 10.792,21.917 22.708,20.709c346,0.458 692,-0.084 1037.96,0.25c10.208,-0.75 23.416,2.125 30.583,-7.209c8.417,-7.833 4.417,-20.333 5.333,-30.416c-0.166,-331.917 0,-663.834 -0.041,-995.792c-0.209,-16.5 0.833,-33.125 -1.542,-49.5c-2.208,-9.25 -12.667,-13.708 -21.375,-13.042c-343.208,0.084 -686.375,0.042 -1029.58,0c-10.459,0.5 -21.334,-1.458 -31.5,1.5Z" style="fill:#fefefe;fill-rule:nonzero;"/><path d="M89.292,76.458c10.166,-2.958 21.041,-1 31.5,-1.5c343.208,0.042 686.375,0.084 1029.58,0c8.708,-0.666 19.167,3.792 21.375,13.042c2.375,16.375 1.333,33 1.542,49.5c0.041,331.958 -0.125,663.875 0.041,995.792c-0.916,10.083 3.084,22.583 -5.333,30.416c-7.167,9.334 -20.375,6.459 -30.583,7.209c-345.959,-0.334 -691.959,0.208 -1037.96,-0.25c-11.916,1.208 -24.041,-8.042 -22.708,-20.709c-0.083,-338.875 0.042,-677.75 -0.042,-1016.62c-0.458,-12.833 0.584,-25.666 0.542,-38.5c-1.333,-8.166 5.5,-14.791 12.042,-18.375Z" style="fill:#00f;"/><path d="M120.208,1028.83c167.875,-290.25 336.042,-580.375 503.709,-870.75c3,3.042 5.833,6.25 8.458,9.667c165.708,288.042 331.542,576.042 497.25,864.125c2.417,3.75 7.208,11.208 9.625,14.958c-7.792,-6.291 -17.667,-2.583 -26.542,-3.25c-335.166,0.334 -670.333,-0.208 -1005.46,0.417c5.25,-4.208 9.875,-9.125 12.958,-15.167Z" style="fill:#fefefe;"/><g id="_-000000ff" serif:id="#000000ff"><path d="M546.167,441.208c-7.125,-28.125 16.541,-58.708 45.458,-58.958c32.083,-2.417 59.875,34.708 46.75,64.625c-4.75,14.542 -18.958,21.958 -29.75,31.417c9.458,-4.167 18.875,-8.459 28.167,-13.042c18.666,6.75 34.875,19.625 45.625,36.375c19.833,30.167 39.166,60.792 58.375,91.375c12.791,27 25.458,54.125 36.625,81.875c-0.959,2.792 -2.917,8.417 -3.875,11.208c-10.542,7.75 -27.334,6.375 -32.417,-7.083c-17.542,-38.958 -36.167,-77.625 -61.333,-112.333c-2.209,21.083 -1.667,42.291 -1.625,63.458c-0.292,5.792 2.5,11.042 4.333,16.417c17.208,44.125 33.583,88.625 50.917,132.75c13.916,25.916 29.208,51.125 43.791,76.708c5.709,10.625 15.167,21.167 12.959,34.125c-5,18.292 -26.542,28.583 -44,20.833c-5.5,-6.666 -11.084,-13.416 -15.334,-21c-18,-30.583 -36.75,-60.75 -54.625,-91.375c-14.708,-30.708 -21,-65 -36.625,-95.291c-13.791,15.625 -23.333,34.291 -34.833,51.541c-9.458,15.5 -20.542,30.125 -28.25,46.667c-15.708,34.083 -32.417,67.667 -48.292,101.667c-4.041,9.833 -13.291,17.041 -24.166,16.875c-20.375,2.625 -38.959,-21.542 -29,-40.167c15.125,-35 31.291,-69.542 46.25,-104.625c4.541,-11.292 11.833,-21.125 18.375,-31.292c20.791,-32.125 41.208,-64.458 62.25,-96.416c-5.709,-22.417 -12.334,-44.709 -15.792,-67.625c-1,-1.25 -2.958,-3.792 -3.917,-5.042c-10.916,17.667 -20.5,36.25 -32.541,53.167c-16.292,9.625 -34,16.625 -50.667,25.583c-8.542,3.875 -18.667,10.458 -28.042,5.292c-4.083,-3.292 -7.583,-7.209 -11.208,-10.917c-0.042,-3.875 -0.042,-7.75 -0.083,-11.625c4.291,-4.625 7.958,-10.292 14.25,-12.417c17.916,-8.208 35.25,-17.583 53.125,-25.958c17.958,-36.25 37.666,-71.583 55.541,-107.875c10.709,-4.833 21.375,-9.792 32.042,-14.792c-4.333,0.667 -13.042,2 -17.375,2.667c-23.25,3.042 -44.917,-15.208 -51.083,-36.792Z" style="fill-rule:nonzero;"/><path d="M274.083,815.042c26.625,1.125 53.375,-1.25 79.917,1.416c-26.25,63.084 -51.25,126.75 -78.708,189.334c-25.042,-0.584 -50.125,-0 -75.167,-0.334c-8.833,0.042 -17.958,-0.5 -26.375,2.792c33.958,-64.125 67.542,-128.458 100.333,-193.208Zm492.959,0.125c16.208,0.375 32.625,-1.125 48.666,2.125c16.5,62.875 33.75,125.625 51.25,188.25c-22.333,-0 -44.625,0.041 -66.958,-0.042c-11.208,-0 -22.625,-0.792 -33.625,1.917c-5.292,-27.417 -8.167,-55.417 -15.958,-82.292c22.416,6.75 45.458,-9.5 52.333,-30.5c1.667,-5.625 0.833,-11.667 -1.833,-16.833c-10.625,-21.25 -24.625,-40.709 -33.875,-62.625Zm-339.25,-0.209c20.333,1.125 40.791,-1.125 61.041,1.75c-9.708,23.834 -22.083,46.625 -30.041,71.125c-4.459,21.084 15.416,34.209 28.166,47.167c-4.208,23.125 -9.083,46.125 -12.291,69.417c-34,3.625 -68.459,-1.834 -102.334,2.916c14.167,-44.041 25.792,-88.916 39.25,-133.208c5.375,-19.75 12.125,-39.125 16.209,-59.167Zm153.541,-0.041c27,1.416 54.167,-1.375 81.084,1.958c2.375,62.875 6.458,125.708 9.291,188.625c-34.708,1.083 -69.625,-2 -104.166,1.667c5.791,-64 9.375,-128.167 13.791,-192.25Zm306.875,0.125c27.042,1.458 54.375,-2.042 81.25,2.166c32.542,62.875 64.959,125.75 98.125,188.25c-34.625,0.917 -69.375,-1.5 -103.916,1.334c-5.959,-18.375 -13.875,-36 -20.709,-54.042c-18.416,-45.833 -35.541,-92.208 -54.75,-137.708Z" style="fill-rule:nonzero;"/></g></svg>