<?xml version="1.0" encoding="UTF-8" standalone="no"?>
<!DOCTYPE svg PUBLIC "-//W3C//DTD SVG 1.1//EN" "http://www.w3.org/Graphics/SVG/1.1/DTD/svg11.dtd">
<!-- GeoHints -->
<svg width="100%" height="100%" viewBox="0 0 2520 2200" version="1.1" xmlns="http://www.w3.org/2000/svg" xmlns:xlink="http://www.w3.org/1999/xlink" xml:space="preserve" xmlns:serif="http://www.serif.com/" style="fill-rule:evenodd;clip-rule:evenodd;stroke-linejoin:round;">
    <g transform="matrix(0.997745,0,0,0.997396,-83.3838,-126.954)">
        <path d="M1234.84,192.318C1258.12,152.006 1301.13,127.175 1347.66,127.175C1394.2,127.175 1437.21,152.006 1460.49,192.318C1715.5,633.921 2333.94,1704.86 2589.04,2146.62C2612.33,2186.94 2612.34,2236.63 2589.07,2276.97C2565.79,2317.3 2522.78,2342.15 2476.22,2342.15L219.108,2342.15C172.553,2342.15 129.535,2317.3 106.262,2276.97C82.99,2236.63 82.999,2186.94 106.286,2146.62C361.392,1704.86 979.828,633.921 1234.84,192.318Z" style="fill:white;"/>
    </g>
    <g transform="matrix(1,0,0,1,74.769,69.736)">
        <path d="M68.769,2006.48L1187.51,68.77L2306.25,2006.48L68.769,2006.48Z" style="fill:rgb(226,10,22);stroke:rgb(226,10,22);stroke-width:137.54px;"/>
    </g>
    <g transform="matrix(1,0,0,1,74.769,69.736)">
        <path d="M1187.51,343.846L306.997,1868.94L2068.03,1868.94L1187.51,343.847L1187.51,343.846Z" style="fill:white;"/>
    </g>
    <g transform="matrix(5.50201,0,0,5.50201,139.021,81.6152)">
        <g>
            <path d="M118.949,260.315L121.042,253.557L131.9,253.7L129.76,260.3L118.949,260.315Z" style="fill:rgb(21,23,29);fill-rule:nonzero;"/>
            <g transform="matrix(1,0,-0.169122,1,23.025,1.02141e-14)">
                <path d="M118.949,260.315L121.042,253.557L131.9,253.7L129.76,260.3L118.949,260.315Z" style="fill:rgb(21,23,29);fill-rule:nonzero;"/>
            </g>
            <path d="M140.835,253.656L150.781,253.688L150.62,260.392L140.191,260.415L140.835,253.656Z" style="fill:rgb(21,23,29);fill-rule:nonzero;"/>
            <path d="M159.241,253.638L170.259,253.676L170.309,260.442L159.259,260.386L159.241,253.638Z" style="fill:rgb(21,23,29);fill-rule:nonzero;"/>
            <path d="M198.746,253.576L210.25,253.618L210.339,260.437L198.661,260.323L198.746,253.576Z" style="fill:rgb(21,23,29);fill-rule:nonzero;"/>
            <g transform="matrix(1,0,0,1,19,0)">
                <path d="M198.746,253.576L210.25,253.618L210.339,260.437L198.661,260.323L198.746,253.576Z" style="fill:rgb(21,23,29);fill-rule:nonzero;"/>
            </g>
            <g transform="matrix(1,0,0.205212,1,-13.4447,1.02141e-14)">
                <path d="M198.746,253.576L210.25,253.618L210.339,260.437L198.661,260.323L198.746,253.576Z" style="fill:rgb(21,23,29);fill-rule:nonzero;"/>
            </g>
            <path d="M257.49,260.41L256.28,253.65L269.21,253.75L270.5,260.3L257.49,260.41Z" style="fill:rgb(21,23,29);fill-rule:nonzero;"/>
            <path d="M277.61,253.61L288.2,253.65L290.101,260.425L279.57,260.4L277.61,253.61Z" style="fill:rgb(21,23,29);fill-rule:nonzero;"/>
            <path d="M296.626,253.676L307.4,253.667L310.5,260.45L299.114,260.366L296.626,253.676Z" style="fill:rgb(21,23,29);fill-rule:nonzero;"/>
        </g>
        <g>
            <path d="M67.89,320.49L81.9,320.41L79.13,330.33L62.31,330.31L67.89,320.49Z" style="fill:rgb(21,23,29);fill-rule:nonzero;"/>
            <g transform="matrix(1,0,-0.250752,1,81.3611,1.02141e-14)">
                <path d="M93.36,320.61L108.35,320.48L106.48,330.37L91.35,330.45L93.36,320.61Z" style="fill:rgb(21,23,29);fill-rule:nonzero;"/>
            </g>
            <path d="M248.28,320.48L263.57,320.5L263.79,330.27L249.5,330.51L248.28,320.48Z" style="fill:rgb(21,23,29);fill-rule:nonzero;"/>
            <path d="M300.79,320.51L315.04,320.56L318.01,330.35L303.97,330.36L300.79,320.51Z" style="fill:rgb(21,23,29);fill-rule:nonzero;"/>
            <path d="M326.05,320.34L340.49,320.69L345.17,330.31L329.42,330.37L326.05,320.34Z" style="fill:rgb(21,23,29);fill-rule:nonzero;"/>
            <path d="M120.06,320.47L134.15,320.68L131.69,330.23L118.1,330.31L120.06,320.47Z" style="fill:rgb(21,23,29);fill-rule:nonzero;"/>
            <path d="M144.53,320.6L158.62,320.61L159.22,330.27L144.11,330.36L144.53,320.6Z" style="fill:rgb(21,23,29);fill-rule:nonzero;"/>
            <path d="M170.75,320.51L185.45,320.61L185.5,330.41L170.67,330.27L170.75,320.51Z" style="fill:rgb(21,23,29);fill-rule:nonzero;"/>
            <path d="M196.74,320.73L211.61,320.66L211.59,330.28L196.63,330.22L196.74,320.73Z" style="fill:rgb(21,23,29);fill-rule:nonzero;"/>
            <path d="M222.66,320.52L237.36,320.56L237.66,330.43L222.58,330.33L222.66,320.52Z" style="fill:rgb(21,23,29);fill-rule:nonzero;"/>
            <path d="M276.32,330.32L275.19,320.56L289.42,320.65L292.95,330.33L276.32,330.32Z" style="fill:rgb(21,23,29);fill-rule:nonzero;"/>
        </g>
    </g>
    <g transform="matrix(5.50201,0,0,5.50201,157.81,92.8349)">
        <path d="M191.049,146.44C184.491,144.37 179.72,138.111 179.72,130.72C179.72,121.642 186.918,114.272 195.784,114.272C204.65,114.272 211.848,121.642 211.848,130.72C211.848,136.656 208.77,141.862 204.161,144.754C204.141,146.48 204.015,148.956 204.015,150.611C204.825,150.621 210.123,151.777 212.225,153.631C218.035,158.754 229.775,172.001 238.875,181.351C239.525,182.881 253.072,208.784 252.518,213.837C252.208,216.67 250.076,217.794 247.745,218.471C239.515,220.861 231.445,199.951 230.805,198.431C230.805,198.431 225.775,187.031 220.945,182.961C220.725,182.831 216.515,179.091 215.935,178.971C217.045,188.321 218.385,197.651 219.455,207.001C226.355,221.961 263.005,295.561 263.475,296.991C260.075,298.701 248.455,304.899 246.585,305.781C237.926,309.864 231.627,303.696 236.095,296.741C237.345,295.421 238.595,294.111 239.925,292.871C234.375,281.231 210.935,231.031 206.145,227.991C205.965,228.301 170.435,303.371 170.435,303.371C168.215,309.051 160.595,301.391 156.435,300.491C156.265,300.481 149.845,297.491 148.555,296.351C144.424,293.712 143.862,291.397 144.054,289.39C144.235,287.501 145.607,285.719 147.538,284.958C149.414,284.218 155.115,284.341 157.675,284.721C157.955,284.061 188.405,219.251 191.745,211.141C191.145,203.031 187.995,183.661 187.775,182.031C187.425,182.771 180.885,195.791 179.865,197.661C177.745,198.491 161.555,207.831 158.685,209.261C157.615,209.701 151.548,212.416 149.322,212.987C147.749,213.391 144.755,213.7 142.145,209.631C141.201,208.16 141.093,205.457 142.165,203.524C143.237,201.591 145.955,198.901 148.575,198.031C149.545,197.571 169.235,188.401 169.655,188.451C170.252,186.779 183.495,156.662 183.515,156.631C184.902,154.519 188.265,151.981 190.925,150.841C190.972,149.585 191.019,147.767 191.049,146.44Z"/>
    </g>
</svg>
