<?xml version="1.0" encoding="UTF-8" standalone="no"?>
<!DOCTYPE svg PUBLIC "-//W3C//DTD SVG 1.1//EN" "http://www.w3.org/Graphics/SVG/1.1/DTD/svg11.dtd">
<!-- Geohints -->
<svg width="100%" height="100%" viewBox="0 0 602 602" version="1.1" xmlns="http://www.w3.org/2000/svg" xmlns:xlink="http://www.w3.org/1999/xlink" xml:space="preserve" xmlns:serif="http://www.serif.com/" style="fill-rule:evenodd;clip-rule:evenodd;stroke-linejoin:round;stroke-miterlimit:2;">
    <g id="path5404" transform="matrix(1.33333,0,0,-1.33333,0,601.002)">
        <path d="M27.375,450.376C0.316,450.392 0.375,423.372 0.375,423.372L0.375,27.376C0.375,27.376 0.316,0.353 27.375,0.376L423.375,0.376C450.609,0.349 450.375,27.376 450.375,27.376L450.375,423.372C450.375,423.372 450.598,450.466 423.375,450.376L27.375,450.376Z" style="fill:white;fill-rule:nonzero;"/>
    </g>
    <g id="path5406" transform="matrix(1.33333,0,0,-1.33333,0,601.002)">
        <path d="M27.375,441.376C17.438,441.376 9.375,433.318 9.375,423.376L9.375,27.376C9.375,17.427 17.438,9.376 27.375,9.376L423.375,9.376C433.316,9.376 441.375,17.427 441.375,27.376L441.375,423.376C441.375,433.318 433.316,441.376 423.375,441.376L27.375,441.376Z" style="fill:rgb(21,72,137);fill-rule:nonzero;"/>
    </g>
    <g id="path5410" transform="matrix(1.33333,0,0,-1.33333,0,601.002)">
        <path d="M37.48,71.661L413.27,71.661L225.383,397.095" style="fill:white;fill-rule:nonzero;"/>
    </g>
    <g transform="matrix(1.33333,0,0,-1.33333,0,601.002)">
        <path d="M333.977,87.63L305.773,151.509L334.148,151.509L372.313,87.63L333.977,87.63Z"/>
        <path d="M270.098,87.63L259.023,151.501L286.852,151.509L308.434,87.63L270.098,87.63Z"/>
        <path d="M206.219,87.63L211.195,151.509L239.566,151.509L244.555,87.63L206.219,87.63Z"/>
        <path d="M142.328,87.63L163.898,151.509C163.898,151.509 172.336,151.411 190.344,151.501L180.664,87.63L142.328,87.63Z"/>
        <path d="M78.453,87.63L116.613,151.509L144.988,151.509L116.773,87.63L78.453,87.63Z"/>
    </g>
    <g transform="matrix(1.33333,0,0,-1.33333,0,601.002)">
        <g transform="matrix(0.75,0,0,-0.75,0,450.751)">
            <path d="M281.122,322.183C281.361,321.246 281.484,320.277 281.484,319.302L281.484,316.422L328.057,316.422L328.057,319.302C328.057,320.524 328.242,321.737 328.615,322.891L328.876,322.897C345.919,366.386 356.276,394.792 373.209,438.302C380.891,458.822 354.683,468.831 344.143,448.939L301.678,340.666C282.693,377.895 265.76,413.134 246.644,450.258C235.777,469.48 208.762,454.655 219.171,436.208L281.122,322.183Z"/>
            <path d="M329.87,325.44L332.601,321.437C349.645,364.93 360.002,393.338 376.937,436.852C376.943,436.868 376.949,436.884 376.955,436.9C381.788,449.809 375.602,459.275 366.909,462.522C358.452,465.681 347.059,462.985 340.608,450.812C340.538,450.678 340.474,450.54 340.419,450.4C340.419,450.4 301.208,350.422 301.208,350.422C283.827,384.754 267.955,417.609 250.2,452.089C250.176,452.136 250.152,452.181 250.126,452.227C244.724,461.782 236.034,464.411 228.471,462.846C221.576,461.42 215.595,456.366 213.57,449.589C212.228,445.099 212.555,439.81 215.67,434.273L277.344,320.758L277.345,320.756C277.437,320.278 277.484,319.791 277.484,319.302L277.484,316.422C277.484,314.212 279.275,312.422 281.484,312.422L328.057,312.422C330.266,312.422 332.057,314.212 332.057,316.422C332.057,316.422 332.057,319.302 332.057,319.302C332.057,320.105 332.176,320.902 332.421,321.66L329.801,325.262L328.876,322.897L328.615,322.891C328.242,321.737 328.057,320.524 328.057,319.302L328.057,316.422L281.484,316.422L281.484,319.302C281.484,320.277 281.361,321.246 281.122,322.183L219.171,436.208C208.762,454.655 235.777,469.48 246.644,450.258C265.76,413.134 282.693,377.895 301.678,340.666L344.143,448.939C354.683,468.831 380.891,458.822 373.209,438.302C356.608,395.645 346.328,367.505 329.87,325.44Z" style="fill:white;"/>
        </g>
        <g transform="matrix(0.75,0,0,-0.75,0,450.751)">
            <path d="M348.298,299.48L348.421,260.178L328.057,243.083L328.057,310.61L281.484,310.61L281.484,254.771L270.685,271.402L270.666,271.757L245.894,310.985C237.664,320.974 220.907,308.754 228.878,297.762L267.814,240.182L280.349,219.094C289.104,205.615 307.14,201.782 320.62,210.536C321.609,211.187 322.557,211.902 323.479,212.656L362.552,245.443C366.505,248.76 368.792,253.667 368.792,258.818C368.792,258.818 368.898,274.478 368.952,274.791L368.952,299.699C368.952,310.533 348.417,310.434 348.298,299.48Z"/>
        </g>
        <path d="M237.309,320.38C237.309,310.739 229.48,302.911 219.84,302.911C210.195,302.911 202.379,310.739 202.379,320.38C202.379,330.025 210.195,337.841 219.84,337.841C229.48,337.841 237.309,330.025 237.309,320.38Z"/>
    </g>
</svg>
