<?xml version="1.0" encoding="UTF-8" standalone="no"?><!DOCTYPE svg PUBLIC "-//W3C//DTD SVG 1.1//EN" "http://www.w3.org/Graphics/SVG/1.1/DTD/svg11.dtd"><svg width="100%" height="100%" viewBox="0 0 3475 3475" version="1.1" xmlns="http://www.w3.org/2000/svg" xmlns:xlink="http://www.w3.org/1999/xlink" xml:space="preserve" xmlns:serif="http://www.serif.com/" style="fill-rule:evenodd;clip-rule:evenodd;stroke-linejoin:round;"><path d="M61.239,60.144c29.642,-30.787 71.432,-48.038 113.535,-52.307c10.239,-0.555 20.444,-1.597 30.717,-1.667c1018.13,0.035 2036.3,0.035 3054.46,0c18.709,0 37.313,2.708 55.813,5.415c38.111,8.505 73.862,28.67 98.853,58.972c27.733,32.835 43.074,74.799 48.663,117.075c0.52,9.059 1.492,18.083 1.77,27.142c0.069,1011.23 -0,2022.44 0.034,3033.64c0.382,13.536 -0.763,27.039 -1.804,40.54c-5.727,44.811 -22.666,89.516 -53.626,123.011c-30.233,33.807 -74.348,53.07 -119.019,57.305c-10.274,0.486 -20.479,1.562 -30.684,1.666c-1013.55,-0.035 -2027.07,-0 -3040.58,-0c-14.509,0.347 -29.018,-0.555 -43.456,-1.701c-43.353,-3.852 -86.358,-22.006 -116.381,-54.042c-28.114,-28.115 -44.533,-65.74 -53.626,-103.955c-3.02,-20.826 -6.491,-41.72 -5.589,-62.824c0.035,-1006.57 0.035,-2013.15 0,-3019.72c-0.937,-21.138 2.569,-42.033 5.589,-62.858c9.233,-38.979 26.275,-77.368 55.326,-105.69m121.206,17.528c-34.605,6.352 -66.434,26.518 -86.877,55.188c-17.182,23.602 -26.276,52.793 -26.276,81.949c0.035,1015.84 0,2031.65 0,3047.48c-0.312,43.283 20.722,86.149 55.64,111.869c24.053,18.083 54.007,27.802 84.065,27.802l3047.45,0c43.283,0.243 86.183,-20.721 111.903,-55.674c18.084,-23.984 27.733,-54.008 27.768,-83.997l0,-3047.45c-0.035,-30.023 -9.684,-60.047 -27.802,-84.1c-25.72,-34.918 -68.621,-55.917 -111.904,-55.605c-1015.81,0.035 -2031.65,0.035 -3047.45,0c-8.921,-0.035 -17.771,0.972 -26.518,2.534l0.001,0.001Z" style="fill:#fff;fill-rule:nonzero;"/><path d="M182.444,77.672c8.747,-1.561 2058.16,-2.499 3073.97,-2.534c43.283,-0.312 86.184,20.687 111.904,55.605c18.118,24.053 27.767,54.077 27.802,84.1l0,3047.45c-0.035,29.989 -9.684,60.013 -27.768,83.997c-25.72,34.953 -68.62,55.917 -111.903,55.674l-3047.45,0c-30.058,0 -60.012,-9.719 -84.065,-27.802c-34.918,-25.72 -55.952,-68.586 -55.64,-111.869c0,-1015.84 0.035,-2031.65 0,-3047.48c0,-29.156 9.094,-58.347 26.276,-81.949c20.443,-28.67 52.272,-48.836 86.877,-55.188l0.002,-0.001Z" style="fill:#154889;"/><path id="path4558" d="M1736.11,476.258l-1454.56,2519.71l2909.12,-0l-1454.56,-2519.71Z" style="fill:#fff;"/><g><path id="path2803" d="M1295.1,2282.55l163.171,0l-64.117,558.342l-264.687,-0l165.633,-558.342Zm390.038,0l149.816,0l42.742,558.342l-240.646,-0l48.088,-558.342Zm344.625,0l181.87,0l168.305,558.342l-256.675,-0l-93.5,-558.342Zm-1073.95,0l203.246,0l-224.405,558.342l-280.72,-0l301.879,-558.342Zm1391.85,0l203.246,0l293.862,558.342l-267.362,-0l-229.746,-558.342Z"/><g><path id="path13005" d="M1340.59,2519.06l337.975,-689.788l-33.18,-115.762l-187.72,213.504c-59.434,52.508 -149.059,-37.596 -90.221,-96.429l333.079,-382.488c36.875,-25.658 53.104,-34.967 90.1,-54.421c41.892,-19.333 50.721,-16.229 90.104,19.454l297.996,300.38c10.621,11.337 14.321,8.833 18.733,34.491l0,149.534c0,65.041 -123.279,64.445 -123.996,-1.313l1.913,-105.137l-110.154,-106.334l-43.796,125.784c93.204,247.87 168.987,472.47 261.596,720.462c42.008,116.954 -101.321,173.996 -158.963,60.625l-232.237,-617.112c-103.829,212.187 -196.438,413.037 -300.979,624.629c-59.43,109.554 -207.175,25.062 -150.25,-80.079" style="stroke:#fff;stroke-width:17.38px;"/><path id="path13013" d="M1711.14,1133.28c61.937,0 112.062,50.721 112.062,112.659c0,61.937 -50.125,112.658 -112.062,112.658c-61.938,-0 -112.659,-50.721 -112.659,-112.658c0,-61.938 50.721,-112.659 112.659,-112.659" style="stroke:#fff;stroke-width:17.38px;"/></g></g></svg>