<?xml version="1.0" encoding="UTF-8" standalone="no"?><!DOCTYPE svg PUBLIC "-//W3C//DTD SVG 1.1//EN" "http://www.w3.org/Graphics/SVG/1.1/DTD/svg11.dtd"><svg width="100%" height="100%" viewBox="0 0 2730 2730" version="1.1" xmlns="http://www.w3.org/2000/svg" xmlns:xlink="http://www.w3.org/1999/xlink" xml:space="preserve" xmlns:serif="http://www.serif.com/" style="fill-rule:evenodd;clip-rule:evenodd;stroke-linejoin:round;stroke-miterlimit:2;"><g><rect x="0" y="0" width="2729.17" height="2729.17" style="fill:#0c479d;fill-rule:nonzero;"/><path d="M1366.67,345.833l1179.96,2034.38l-2359.92,0l1179.96,-2034.38Z" style="fill:#fff;fill-rule:nonzero;"/><rect x="270.833" y="2283.33" width="188.542" height="41.667"/><rect x="687.5" y="2283.33" width="188.542" height="41.667"/><rect x="1100" y="2283.33" width="188.542" height="41.667"/><rect x="1500" y="2283.33" width="188.542" height="41.667"/><rect x="1866.67" y="2283.33" width="188.542" height="41.667"/><rect x="2241.67" y="2283.33" width="188.542" height="41.667"/><rect x="2069.44" y="1895.83" width="180.556" height="41.667"/><rect x="870.833" y="1895.83" width="184.722" height="41.667"/><rect x="1304.17" y="1895.83" width="183.333" height="41.667"/><rect x="1729.17" y="1895.83" width="179.167" height="41.667"/><rect x="508.333" y="1895.83" width="176.389" height="41.667"/><g><path id="path13005" d="M985.843,2024.4l324.193,-661.661l-31.827,-111.042l-180.065,204.798c-57.011,50.367 -142.981,-36.063 -86.542,-92.497l319.497,-366.891c35.371,-24.612 50.939,-33.541 86.426,-52.202c40.184,-18.545 48.653,-15.567 86.43,18.661l285.845,288.131c10.188,10.875 13.737,8.473 17.969,33.085l-0,143.436c-0,62.389 -118.252,61.818 -118.94,-1.259l1.835,-100.85l-105.662,-101.998l-42.01,120.655c89.403,237.763 162.096,453.204 250.929,691.084c40.295,112.185 -97.19,166.901 -152.481,58.153l-222.768,-591.948c-99.595,203.534 -188.428,396.194 -288.706,599.159c-57.006,105.086 -198.727,24.04 -144.123,-76.814"/><path id="path13013" d="M1341.28,695.123c59.412,0 107.493,48.653 107.493,108.065c-0,59.412 -48.081,108.064 -107.493,108.064c-59.412,0 -108.065,-48.652 -108.065,-108.064c-0,-59.412 48.653,-108.065 108.065,-108.065"/></g></g></svg>