<?xml version="1.0" encoding="UTF-8" standalone="no"?>
<!DOCTYPE svg PUBLIC "-//W3C//DTD SVG 1.1//EN" "http://www.w3.org/Graphics/SVG/1.1/DTD/svg11.dtd">
<!-- GeoHints -->
<svg width="100%" height="100%" viewBox="0 0 681 603" version="1.1" xmlns="http://www.w3.org/2000/svg" xmlns:xlink="http://www.w3.org/1999/xlink" xml:space="preserve" xmlns:serif="http://www.serif.com/" style="fill-rule:evenodd;clip-rule:evenodd;stroke-linejoin:round;stroke-miterlimit:2;">
    <path d="M45.728,601.087C21.026,600.931 1.019,580.827 1.019,556.088C1.019,547.825 3.251,540.079 7.144,533.422L301.385,23.782C309.135,10.197 323.755,1.032 340.5,1.032C357.245,1.032 371.865,10.197 379.615,23.782L673.856,533.422C677.749,540.079 679.981,547.825 679.981,556.088C679.981,580.924 659.817,601.088 634.981,601.088L46.019,601.088L45.728,601.087Z" style="fill:rgb(227,16,23);"/>
    <path d="M72,541.088L340.5,76.032L609,541.088L72,541.088Z" style="fill:white;"/>
    <g id="_-36322fff" serif:id="#36322fff">
        <path d="M332.239,179.909C335.3,164.31 353.96,158.836 367.283,164.075C381.489,174.945 382.882,197.274 373.797,211.813C371.403,215.894 363.3,219.328 367.165,224.743C400.855,237.419 390.475,289.493 425.558,301.855C436.958,312.097 453.754,312.254 464.526,322.241C464.565,325.361 464.604,328.481 464.663,331.62C459.189,337.389 448.574,344.845 443.845,334.092C420.574,325.302 390.004,319.867 381.214,292.947C379.585,292.613 377.957,292.299 376.309,292.024C361.966,326.931 383.392,358.874 397.264,389.601C402.346,408.574 408.801,427.293 411.882,446.718L412.902,448.229C413.923,453.566 415.139,458.903 416.826,464.102C416.983,465.201 417.317,467.418 417.474,468.537C424.773,481.742 442.138,470.617 452.91,477.072C452.831,478.956 452.773,480.859 452.733,482.762C451.222,483.9 449.692,485.058 448.181,486.215C430.62,489.296 414.57,502.089 396.46,500.127C387.924,477.209 381.273,453.625 373.581,430.432C368.127,404.787 350.958,384.264 337.321,362.641C335.477,362.857 333.633,363.112 331.788,363.367C325.549,376.435 320.918,390.287 314.051,403.061C298.314,423.114 277.594,439.144 263.722,460.728C257.502,473.893 269.334,486.726 271.512,497.89C251.224,503.698 243.571,480.584 234.192,467.732C231.897,462.042 223.381,455.548 228.973,449.504C246.671,432.375 260.799,412.047 277.889,394.369C284.521,381.968 287.15,367.88 290.525,354.322C295.528,330.031 303.475,304.739 299.354,280.036C279.478,287.727 283.402,313.353 278.595,330.247C274.082,337.467 279.753,345.178 278.124,352.929C276.358,355.028 274.651,357.186 273.003,359.384C264.978,358.972 258.13,354.204 252.322,349.044C262.977,322.967 252.205,289.101 272.238,265.163C287.268,247.739 297.176,219.485 324.273,219.328C328.394,217.935 332.514,216.522 336.693,215.286C338.813,203.18 326.746,192.329 332.239,179.909Z" style="fill-rule:nonzero;"/>
        <path d="M159.272,428.441L168.298,428.186L168.095,442.006L149.782,441.738L159.272,428.441Z" style="fill-rule:nonzero;"/>
        <path d="M188.475,428.501L223.675,428.429L223.446,442.092L188.913,441.745L188.475,428.501Z" style="fill-rule:nonzero;"/>
        <path d="M299.485,428.547L334.398,428.403L334.483,441.988L299.073,441.824L299.485,428.547Z" style="fill-rule:nonzero;"/>
        <path d="M354.627,428.096L367.584,428.188L370.913,441.805L354.431,441.968L354.627,428.096Z" style="fill-rule:nonzero;"/>
        <path d="M414.622,428.246L445.029,428.246L444.872,441.878L417.62,441.946L414.622,428.246Z" style="fill-rule:nonzero;"/>
        <path d="M464.728,428.392L500.218,428.326L500.229,441.767L464.722,441.747L464.728,428.392Z" style="fill-rule:nonzero;"/>
        <path d="M521.264,428.424L528.079,428.509L533.847,441.937L520.976,441.793L521.264,428.424Z" style="fill-rule:nonzero;"/>
        <path d="M100.454,528.306L109.421,513.159L135.982,513.585L134.811,528.339L100.454,528.306Z" style="fill-rule:nonzero;"/>
        <path d="M156.002,513.402L191.673,513.434L191.405,528.378L156.008,528.418L156.002,513.402Z" style="fill-rule:nonzero;"/>
        <path d="M211.432,513.441L246.809,513.474L246.73,528.438L211.079,528.222L211.432,513.441Z" style="fill-rule:nonzero;"/>
        <path d="M301.63,528.314L266.498,528.388L266.921,513.062L301.723,513.52L301.63,528.314Z" style="fill-rule:nonzero;"/>
        <path d="M323.063,513.403L358.323,513.253L358.336,528.295L323.037,528.55L323.063,513.403Z" style="fill-rule:nonzero;"/>
        <path d="M378.519,513.338L413.491,513.305L413.471,528.367L378.107,528.38L378.519,513.338Z" style="fill-rule:nonzero;"/>
        <path d="M433.811,528.203L434.043,513.504L468.388,513.312L468.398,528.478L433.811,528.203Z" style="fill-rule:nonzero;"/>
        <path d="M489.85,528.388L489.719,513.272L524.979,513.469L524.946,528.444L489.85,528.388Z" style="fill-rule:nonzero;"/>
        <path d="M544.816,528.388L545.012,513.194L580.082,513.684L580.101,528.558L544.816,528.388Z" style="fill-rule:nonzero;"/>
    </g>
</svg>
