<?xml version="1.0" encoding="UTF-8" standalone="no"?>
<!DOCTYPE svg PUBLIC "-//W3C//DTD SVG 1.1//EN" "http://www.w3.org/Graphics/SVG/1.1/DTD/svg11.dtd">
<svg width="100%" height="100%" viewBox="0 0 200 200" version="1.1" xmlns="http://www.w3.org/2000/svg" xmlns:xlink="http://www.w3.org/1999/xlink" xml:space="preserve" xmlns:serif="http://www.serif.com/" style="fill-rule:evenodd;clip-rule:evenodd;stroke-linecap:round;stroke-linejoin:round;">
    <rect id="rect1873" x="0" y="0" width="200" height="200" style="fill:rgb(0,64,139);"/>
    <path id="rect1907" d="M195,18.622C195,11.104 188.896,5 181.378,5L18.622,5C11.104,5 5,11.104 5,18.622L5,181.378C5,188.896 11.104,195 18.622,195L181.378,195C188.896,195 195,188.896 195,181.378L195,18.622Z" style="fill:none;stroke:white;stroke-width:2px;"/>
    <g id="g1938" transform="matrix(1.2418,0,0,1.2418,-339.191,-61.4794)">
        <path id="path4558" d="M353.674,71.599L421.142,188.474L286.205,188.474L353.674,71.599Z" style="fill:white;"/>
        <g id="g2813" transform="matrix(1,0,0,1,253.178,23.5367)">
            <path id="path2803" d="M78.81,131.846L86.379,131.846L83.405,157.745L71.128,157.745L78.81,131.846Z"/>
            <path id="path2809" d="M112.887,131.846L121.323,131.846L129.13,157.745L117.224,157.745L112.887,131.846Z"/>
            <path id="rect2800" d="M96.902,131.846L103.851,131.846L105.834,157.745L94.672,157.745L96.902,131.846Z"/>
            <path id="path2807" d="M63.073,131.846L72.501,131.846L62.092,157.745L49.071,157.745L63.073,131.846Z"/>
            <path id="path2811" d="M127.633,131.846L137.061,131.846L150.691,157.745L138.29,157.745L127.633,131.846Z"/>
        </g>
    </g>
    <g id="g864" transform="matrix(1,0,0,1,0.694951,-0.0622665)">
        <path id="path13005" d="M74.996,145.16L94.463,105.428L92.553,98.761L81.74,111.058C78.316,114.083 73.154,108.893 76.543,105.504L95.728,83.473C97.852,81.995 98.787,81.459 100.918,80.338C103.331,79.225 103.84,79.403 106.108,81.459L123.273,98.761C123.884,99.414 124.097,99.269 124.352,100.747L124.352,109.36C124.352,113.107 117.251,113.072 117.21,109.285L117.32,103.229L110.975,97.104L108.452,104.349C113.821,118.627 118.186,131.564 123.52,145.848C125.94,152.584 117.684,155.87 114.364,149.34L100.987,113.794C95.007,126.016 89.672,137.585 83.651,149.773C80.227,156.083 71.717,151.216 74.996,145.16" style="stroke:white;stroke-width:1px;stroke-linecap:butt;"/>
        <path id="path13013" d="M96.34,65.339C99.908,65.339 102.795,68.261 102.795,71.828C102.795,75.396 99.908,78.317 96.34,78.317C92.772,78.317 89.851,75.396 89.851,71.828C89.851,68.261 92.772,65.339 96.34,65.339" style="stroke:white;stroke-width:1px;stroke-linecap:butt;"/>
    </g>
</svg>
