<?xml version="1.0" encoding="UTF-8" standalone="no"?>
<!DOCTYPE svg PUBLIC "-//W3C//DTD SVG 1.1//EN" "http://www.w3.org/Graphics/SVG/1.1/DTD/svg11.dtd">
<!-- GeoHints -->
<svg width="100%" height="100%" viewBox="0 0 2376 2076" version="1.1" xmlns="http://www.w3.org/2000/svg" xmlns:xlink="http://www.w3.org/1999/xlink" xml:space="preserve" xmlns:serif="http://www.serif.com/" style="fill-rule:evenodd;clip-rule:evenodd;stroke-linejoin:round;">
    <g>
        <path d="M68.769,2006.48L1187.51,68.77L2306.25,2006.48L68.779,2006.48L68.769,2006.48Z" style="fill:rgb(226,10,22);fill-rule:nonzero;stroke:rgb(226,10,22);stroke-width:137.54px;"/>
        <path d="M1187.51,343.846L306.997,1868.94L2068.03,1868.94L1187.51,343.847L1187.51,343.846Z" style="fill:white;fill-rule:nonzero;"/>
        <path d="M396.664,1786.42L567.211,1786.42L759.763,1538.85L651.934,1538.85L396.664,1786.42Z" style="fill-rule:nonzero;"/>
        <path d="M987.185,1538.9L905.278,1786.42L741.278,1786.42L883.547,1538.85L987.185,1538.9Z" style="fill-rule:nonzero;"/>
        <path d="M1135.24,1538.85L1104.98,1786.42L1270.03,1786.42C1267.21,1748 1242.4,1537.51 1242.4,1537.51L1135.24,1538.85Z"/>
        <path d="M1469.73,1786.42L1633.73,1786.42L1491.46,1538.85L1398.49,1538.85L1469.73,1786.42Z" style="fill-rule:nonzero;"/>
        <path d="M1978.35,1786.42L1807.8,1786.42L1615.25,1538.85L1723.08,1538.85L1978.35,1786.42Z" style="fill-rule:nonzero;"/>
        <path d="M1118.42,1365.84L1005.25,1714.54C969.512,1716.27 924.822,1715.78 924.822,1715.78C924.822,1715.78 940.817,1647.51 941.25,1644.28L1018.83,1248.98L1180.38,1248.98L1299.05,1471.73L1350.86,1718.92C1348.04,1721.44 1256.27,1669.62 1256.27,1669.62C1256.27,1669.62 1258.13,1670.47 1253.45,1657.07L1200.49,1491.87L1118.42,1365.84Z" style="fill-rule:nonzero;"/>
        <path d="M1027.13,1204.74L1053.61,1066.91L987.878,1086.11L973.345,1275.03C970.894,1277.2 963.476,1277.78 960.483,1277.78C954.583,1277.78 945.95,1276.48 940.441,1274.12C926.733,1267.91 914.959,1249.02 915.8,1233.95L915.8,1045.02L1126.61,918.995C1137.02,912.183 1153.47,906.219 1165.86,906.219L1180.48,906.219C1206.5,906.219 1244,934.377 1251.72,959.169L1319.29,1118.02L1403.23,1172.81C1411.95,1176.17 1422.36,1191.79 1422.36,1201.12L1422.36,1210.23C1422.36,1213.05 1417,1226.83 1414.16,1228.45L1261.73,1191.03L1221.56,1140.91L1200.59,1204.74L1027.13,1204.74Z" style="fill-rule:nonzero;"/>
        <circle cx="1199.27" cy="817.292" r="72.757"/>
    </g>
</svg>
