<?xml version="1.0" encoding="UTF-8" standalone="no"?>
<!-- Created with Inkscape (http://www.inkscape.org/) -->
<svg xmlns:dc="http://purl.org/dc/elements/1.1/" xmlns:cc="http://creativecommons.org/ns#" xmlns:rdf="http://www.w3.org/1999/02/22-rdf-syntax-ns#" xmlns:svg="http://www.w3.org/2000/svg" xmlns="http://www.w3.org/2000/svg" xmlns:sodipodi="http://sodipodi.sourceforge.net/DTD/sodipodi-0.dtd" xmlns:inkscape="http://www.inkscape.org/namespaces/inkscape" id="svg17624" version="1.1" inkscape:version="0.92.4 (5da689c313, 2019-01-14)" width="69.597" height="94.797997" xml:space="preserve" sodipodi:docname="MUTCD_Sign_Assembly_-_W11-2_with_W16-7PL_(fluorescent).svg"><metadata id="metadata17630"><rdf:RDF><cc:Work rdf:about=""><dc:format>image/svg+xml</dc:format><dc:type rdf:resource="http://purl.org/dc/dcmitype/StillImage"/><dc:title/></cc:Work></rdf:RDF></metadata><defs id="defs17628"><inkscape:perspective sodipodi:type="inkscape:persp3d" inkscape:vp_x="0 : 0.5 : 1" inkscape:vp_y="0 : 1000 : 0" inkscape:vp_z="1 : 0.5 : 1" inkscape:persp3d-origin="0.5 : 0.33333333 : 1" id="perspective17632"/><clipPath clipPathUnits="userSpaceOnUse" id="clipPath17642"><path d="m -2,710 501,0 0,-711 -501,0 0,711 z" id="path17644" inkscape:connector-curvature="0"/></clipPath><clipPath clipPathUnits="userSpaceOnUse" id="clipPath17648"><path d="m 0,708.06 498,0 0,-708 -498,0 0,708 z" id="path17650" inkscape:connector-curvature="0"/></clipPath><clipPath clipPathUnits="userSpaceOnUse" id="clipPath17798"><path d="m -2,710 501,0 0,-711 -501,0 0,711 z" id="path17800" inkscape:connector-curvature="0"/></clipPath><clipPath clipPathUnits="userSpaceOnUse" id="clipPath17804"><path d="m 0,708.06 498,0 0,-708 -498,0 0,708 z" id="path17806" inkscape:connector-curvature="0"/></clipPath><clipPath id="Clip0"><path inkscape:connector-curvature="0" d="m 0,0 212.597,0 0,269.292 L 0,269.292 0,0 Z" transform="translate(0.923828,0.879883)" id="path7"/></clipPath></defs><sodipodi:namedview pagecolor="#ffffff" bordercolor="#666666" borderopacity="1" objecttolerance="10" gridtolerance="10" guidetolerance="10" inkscape:pageopacity="0" inkscape:pageshadow="2" inkscape:window-width="1920" inkscape:window-height="1057" id="namedview17626" showgrid="false" inkscape:zoom="6.3046875" inkscape:cx="36.730038" inkscape:cy="31.731471" inkscape:window-x="-8" inkscape:window-y="-8" inkscape:window-maximized="1" inkscape:current-layer="g17634" fit-margin-top="0.1" fit-margin-left="0.1" fit-margin-right="0.1" fit-margin-bottom="0.1" showguides="true" inkscape:guide-bbox="true"/><g id="g17634" inkscape:groupmode="layer" inkscape:label="GG1999P002" transform="matrix(1.25,0,0,-1.25,175.19364,-142.31795)"><path inkscape:connector-curvature="0" d="m -139.20591,-139.85942 24.975,24.97499 c 1.053,1.053 2.775,1.053 3.828,0 l 24.977001,-24.97499 c 1.051,-1.052 1.051,-2.775 0,-3.828 l -24.977001,-24.97399 c -1.053,-1.053 -2.775,-1.053 -3.828,0 l -24.975,24.97399 c -1.052,1.053 -1.052,2.776 0,3.828" style="fill:#cdff00;fill-opacity:1;fill-rule:nonzero;stroke:none" id="path3891"/><path inkscape:connector-curvature="0" d="m -138.48091,-140.09342 24.484,24.48399 c 0.924,0.924 2.434,0.924 3.36,0 l 24.484001,-24.48399 c 0.924,-0.924 0.924,-2.436 0,-3.358 l -24.484001,-24.48599 c -0.926,-0.922 -2.436,-0.922 -3.36,0 l -24.484,24.48599 c -0.924,0.922 -0.924,2.434 0,3.358" style="fill:#000000;fill-opacity:1;fill-rule:evenodd;stroke:none" id="path3899"/><path d="m -87.109909,-142.80967 -24.172001,-24.16999 c -0.568,-0.571 -1.5,-0.571 -2.07,0 l -24.172,24.16999 c -0.57,0.57 -0.57,1.502 0,2.072 l 24.172,24.17199 c 0.57,0.57 1.502,0.57 2.07,0 l 24.172001,-24.17199 c 0.57,-0.57 0.57,-1.502 0,-2.072" style="fill:#cdff00;fill-opacity:1;fill-rule:evenodd;stroke:none" id="path3903" inkscape:connector-curvature="0"/><path inkscape:connector-curvature="0" d="m -102.86991,-155.42342 -4.865,14.506 c 0.162,0.605 0.27,1.216 0.336,1.83999 0.045,0.429 -0.006,0.863 -0.057,1.291 -0.056,0.466 -0.117,0.939 -0.279,1.384 l -1.506,4.069 2.213,-0.088 1.149,-7.07599 1.502,-0.27 -0.44,8.58399 -7.785,3.889 c -0.338,0.17 -0.982,0.209 -1.344,0.172 -0.689,-0.071 -1.572,-0.547 -1.929,-1.143 -0.178,-0.293 -0.29,-0.635 -0.426,-0.951 -0.391,-0.914 -0.741,-1.85 -1.053,-2.793 -0.234,-0.723 -0.451,-1.449 -0.645,-2.182 l -5.66,-3.982 0.973,-1.41199 5.746,2.11899 1.684,2.834 2.211,-4.428 -3.096,-6.10299 -2.475,-11.235 2.828,-0.707 2.657,9.998 2.298,2.563 2.389,-5.217 3.361,-7.518 2.213,1.856 z" style="fill:#000000;fill-opacity:1;fill-rule:evenodd;stroke:none" id="path3907"/><path inkscape:connector-curvature="0" d="m -116.22691,-127.38043 c 0.607,-0.016 1.252,0.314 1.658,0.74 0.637,0.666 0.809,1.691 0.486,2.549 -0.332,0.883 -1.205,1.48 -2.144,1.488 -0.807,0.006 -1.578,-0.41 -2.018,-1.086 -0.488,-0.752 -0.502,-1.804 -0.015,-2.562 0.447,-0.692 1.213,-1.108 2.033,-1.129" style="fill:#000000;fill-opacity:1;fill-rule:evenodd;stroke:none" id="path3911"/><path inkscape:connector-curvature="0" d="m -128.60891,-169.85046 32.674001,0.001 0.143,0 0.002,-0.003 c 1.693,-0.075 3.060295,-1.4453 3.130295,-3.1383 l 0.003,-0.004 0,-0.133 -0.0013,-13.123 0,-0.029 c -0.014,-1.656 -1.28504,-3.046 -2.89404,-3.243 l -0.008,-0.01 -33.138996,0.004 -0.084,0 0,0.002 c -1.717,0.045 -3.11316,1.423 -3.19116,3.13 l 0,0.002 0,0.144 -0.002,12.965 0.004,0.004 c -0.004,0.051 -0.004,0.101 -0.004,0.154 0,1.805 1.472,3.277 3.277,3.277 0.03,0 0.059,-0.001 0.09,-0.001 z" style="fill:#cdff00;fill-opacity:1;fill-rule:nonzero;stroke:none" id="path4339" sodipodi:nodetypes="cccccccccccccccccccsscc"/><path inkscape:connector-curvature="0" d="m -128.37191,-170.50646 32.110001,0 c 1.625,0 2.95,-1.326 2.95,-2.949 l 0,-12.467 c 0,-1.625 -1.325,-2.949 -2.95,-2.949 l -32.110001,0 c -1.625,0 -2.948,1.324 -2.948,2.949 l 0,12.467 c 0,1.623 1.323,2.949 2.948,2.949" style="fill:#000000;fill-opacity:1;fill-rule:evenodd;stroke:none" id="path4347"/><path d="m -128.34291,-171.48046 32.052001,0 c 1.108,0 2.011,-0.903 2.011,-2.012 l 0,-12.344 c 0,-1.107 -0.903,-2.012 -2.011,-2.012 l -32.052001,0 c -1.108,0 -2.011,0.905 -2.011,2.012 l 0,12.344 c 0,1.109 0.903,2.012 2.011,2.012" style="fill:#cdff00;fill-opacity:1;fill-rule:evenodd;stroke:none" id="path4351" inkscape:connector-curvature="0"/><path inkscape:connector-curvature="0" d="m -105.17291,-172.67646 -9.559,-5.562 -0.539,2.762 c -0.002,0.164 -0.067,0.328 -0.129,0.482 -0.189,0.471 -0.867,0.627 -1.332,0.357 -0.219,-0.125 -0.381,-0.338 -0.451,-0.576 l -4.631,-9.847 10.955,-1.12 c 0.24,-0.06 0.506,-0.025 0.725,0.102 0.465,0.268 0.667,0.891 0.356,1.332 -0.097,0.137 -0.212,0.268 -0.354,0.354 l -2.161,1.929 9.547,5.582 -2.427,4.205 z" style="fill:#000000;fill-opacity:1;fill-rule:evenodd;stroke:none" id="path4355"/></g></svg>