<?xml version="1.0" encoding="UTF-8" standalone="no"?><!DOCTYPE svg PUBLIC "-//W3C//DTD SVG 1.1//EN" "http://www.w3.org/Graphics/SVG/1.1/DTD/svg11.dtd"><svg width="100%" height="100%" viewBox="0 0 17363 17363" version="1.1" xmlns="http://www.w3.org/2000/svg" xmlns:xlink="http://www.w3.org/1999/xlink" xml:space="preserve" xmlns:serif="http://www.serif.com/" style="fill-rule:evenodd;clip-rule:evenodd;stroke-linejoin:round;stroke-miterlimit:2;"><rect x="-271.643" y="-158.458" width="17928.4" height="17779.9" style="fill:#fff;"/><rect x="339.553" y="361.462" width="16683.4" height="16638.1" style="fill:#154889;"/><path d="M1445.49,14601c18.92,-37.325 4843.42,-8392.38 7235.08,-12533.5c2070.66,3583.16 6895.67,11938 7235.08,12533.5c-1572.57,1.562 -11219.5,1.562 -14470.1,-0l-0.042,-0Z" style="fill:#fff;"/><g><path d="M11777.4,11525c363.541,-0.867 727.083,0 1090.62,-0.521c492.362,819.096 980.904,1640.45 1471.35,2460.76c-492.708,0.35 -985.417,2.604 -1477.95,-1.213c-359.2,-820.487 -723.958,-1638.72 -1084.03,-2459.03Zm-8755.04,2460.24c490.279,-820.138 978.992,-1641.49 1470.83,-2460.76c363.717,0.521 727.259,-0.346 1090.8,0.521c-360.246,820.313 -724.829,1638.72 -1084.55,2459.2c-492.362,3.475 -984.72,1.392 -1477.08,1.042Zm5112.67,-2460.59c363.366,-0.35 726.562,0.692 1089.93,-0.521c68.575,820.138 129.167,1641.15 193.925,2461.63c-492.017,0.175 -984.029,0.52 -1476.22,-0.346c64.238,-820.138 127.084,-1640.62 192.363,-2460.76Zm-2652.08,2460.76c275.867,-820.659 552.43,-1641.15 831.25,-2460.94c134.025,0.346 268.23,-0.175 402.255,0.521c-209.721,391.492 -423.088,781.075 -634.896,1171.53c-6.25,18.054 -27.775,36.459 -18.229,56.942c104.166,55.383 205.729,119.446 320.487,151.737c273.613,83.68 586.113,14.759 801.217,-173.437c-73.092,418.575 -150.696,836.283 -227.434,1254.17c-491.491,-0.521 -983.158,0.695 -1474.65,-0.521Zm5407.29,-2460.42c52.083,-0.696 104.338,-0.346 156.596,-0.521c278.992,819.792 555.729,1640.28 831.771,2460.94c-491.492,1.041 -983.159,-0 -1474.65,0.521c-96.18,-518.23 -188.888,-1037.33 -283.68,-1555.9c-10.762,-65.45 -27.258,-129.858 -31.075,-196.004c139.063,256.421 278.992,512.5 416.838,769.617c66.321,-28.471 128.125,-66.667 191.496,-101.217c250.866,-145.312 415.104,-425.521 420.833,-715.104c4.513,-147.917 -31.771,-296.7 -101.562,-427.083c-42.017,-78.471 -85.767,-156.075 -126.563,-235.242Z" style="fill-rule:nonzero;"/><path d="M8131.75,9140.79c447.917,-0.35 895.833,-0 1343.75,-0.175c-1.563,83.508 -1.217,172.396 43.575,246.354c425.521,784.2 851.392,1568.05 1276.91,2352.08c41.492,77.258 88.367,153.125 111.459,238.542c61.283,207.812 13.541,443.575 -124.134,610.937c-54.687,68.23 -124.133,123.438 -199.133,167.884c-596.004,-1090.8 -1185.76,-2185.07 -1780.9,-3276.22c-529.342,975.346 -1059.03,1950.7 -1588.54,2926.04c-68.404,123.783 -175.87,226.562 -304.687,285.762c-189.413,90.279 -421.875,84.204 -605.383,-18.054c595.137,-1099.13 1193.05,-2196.7 1788.54,-3295.49c40.104,-72.742 40.625,-157.117 38.542,-237.671Zm-26.388,-2821.88c173.438,-265.104 505.555,-413.196 818.575,-364.238c153.821,21.875 300.521,88.021 419.446,187.675c343.4,287.5 686.109,575.867 1029.34,863.367c52.083,46.179 109.725,86.112 156.079,138.717c80.379,92.708 126.733,215.104 124.129,338.191c0.175,272.05 0.175,544.1 0,816.146c1.913,141.146 -52.083,280.904 -144.096,387.5c-109.721,126.913 -276.041,204.342 -444.446,201.042c-1.562,-458.679 2.955,-917.534 -2.254,-1376.04c-197.746,-160.067 -389.237,-327.604 -586.112,-488.712c-0.521,649.825 0.175,1299.65 -0.346,1949.48c-448.092,-0 -896.183,0.346 -1344.1,-0.175c-0.521,-536.113 1.042,-1072.22 -0.692,-1608.51c-298.266,451.042 -588.716,907.121 -885.416,1359.03c-102.78,147.395 -276.217,244.095 -456.425,249.133c-121.009,6.075 -245.138,-25.871 -345.138,-94.967c554.858,-851.908 1106.94,-1705.55 1661.46,-2557.64Zm215.625,-1954c224.305,-52.083 473.088,22.225 630.73,190.454c178.991,180.379 237.67,467.013 145.137,703.471c-89.237,243.054 -329.512,423.092 -589.237,433.158c-189.234,13.542 -382.292,-59.546 -514.93,-195.137c-140.45,-136.805 -213.195,-337.846 -194.616,-532.813c17.708,-286.112 243.054,-540.971 522.916,-599.133Z" style="fill-rule:nonzero;"/></g></svg>