<?xml version="1.0" encoding="UTF-8" standalone="no"?>
<!DOCTYPE svg PUBLIC "-//W3C//DTD SVG 1.1//EN" "http://www.w3.org/Graphics/SVG/1.1/DTD/svg11.dtd">
<!-- GeoHints -->
<svg width="100%" height="100%" viewBox="0 0 622 556" version="1.1" xmlns="http://www.w3.org/2000/svg" xmlns:xlink="http://www.w3.org/1999/xlink" xml:space="preserve" xmlns:serif="http://www.serif.com/" style="fill-rule:evenodd;clip-rule:evenodd;stroke-linejoin:round;stroke-miterlimit:2;">
    <g transform="matrix(1.5164,0,0,1.53239,-193.96,-210.17)">
        <path d="M314.979,148.026C318.236,142.268 324.206,138.522 330.858,138.061C337.51,137.599 343.95,140.485 347.987,145.738C385.286,209.148 476.793,369.348 534.944,470.138C538.454,476.185 538.448,483.624 534.929,489.666C531.409,495.707 524.907,499.44 517.86,499.465C394.469,499.922 271.125,500.693 147.785,499.69C140.764,499.629 134.302,495.889 130.805,489.864C127.308,483.839 127.3,476.432 130.784,470.399C188.18,370.763 278.133,212.794 314.979,148.026Z" style="fill:rgb(167,8,0);"/>
    </g>
    <g transform="matrix(1,0,0,1,-22.1341,-8.88)">
        <path d="M331.55,118.88C338.81,127.4 483.94,382.19 551.83,499.35C405.86,499.8 259.96,500.96 114.06,499.37C182.68,380.81 330.27,121.15 331.55,118.88Z" style="fill:rgb(254,186,1);"/>
    </g>
    <g transform="matrix(1.65257,0,0,1.65257,-5.35655,25.4027)">
        <g transform="matrix(1,0,0,1,37.3435,23.3735)">
            <rect x="243.689" y="243.406" width="25.8" height="5.4"/>
            <g transform="matrix(1,0,0,1,-205,0)">
                <rect x="243.689" y="243.406" width="25.8" height="5.4"/>
            </g>
            <g transform="matrix(1.20155,0,0,1,-99.3157,0)">
                <rect x="243.689" y="243.406" width="25.8" height="5.4"/>
            </g>
            <g transform="matrix(1.20155,0,0,1,-155.316,0)">
                <rect x="243.689" y="243.406" width="25.8" height="5.4"/>
            </g>
            <g transform="matrix(1.20155,0,0,1,-209.316,0)">
                <rect x="243.689" y="243.406" width="25.8" height="5.4"/>
            </g>
        </g>
        <g transform="matrix(1,0,0,1,37.3435,23.3735)">
            <g transform="matrix(0.883721,0,0,1,8.33597,-38)">
                <rect x="243.689" y="243.406" width="25.8" height="5.4"/>
            </g>
            <g transform="matrix(0.748062,0,0,1,1.39461,-38)">
                <rect x="243.689" y="243.406" width="25.8" height="5.4"/>
            </g>
            <g transform="matrix(0.883721,0,0,1,-111.664,-38)">
                <rect x="243.689" y="243.406" width="25.8" height="5.4"/>
            </g>
            <g transform="matrix(0.883721,0,0,1,-154.664,-38)">
                <rect x="243.689" y="243.406" width="25.8" height="5.4"/>
            </g>
            <g transform="matrix(0.813953,0,0,1,-54.6624,-38)">
                <rect x="243.689" y="243.406" width="25.8" height="5.4"/>
            </g>
        </g>
        <g>
            <path d="M159.99,152.98C170.59,142.76 181.42,132.78 191.84,122.37C199.43,124.5 207.28,125.81 214.74,128.28C220.25,132.75 225.06,138.05 230.31,142.83C230.49,152.74 230.34,162.65 230.55,172.56C227.53,172.56 224.52,172.54 221.51,172.51C221.29,164.89 221.38,157.27 221.43,149.65C218.2,147.84 214.86,146.25 211.39,145C212.83,157.57 207.96,171.85 216.24,182.73C228.33,204.54 241.08,226.04 252.71,248.05C249.15,252.89 244.9,257.21 240.77,261.55C234.72,261.94 228.63,261.69 222.58,261.57C227.22,256.8 232.85,253.15 237.97,248.92C235.34,244 206.25,207.36 197.91,196.98C197.34,195.79 195.85,196.45 195.49,197.4C181.04,218.49 166.78,239.7 152.13,260.64C143.33,258.59 134.71,255.85 125.95,253.67C128.68,244.47 138.6,250.04 145.27,249.75C146.83,244.6 171.7,192.87 181,174.92C181.93,167.7 181.26,160.27 181.56,152.96C169.15,160.95 155.91,167.64 141.43,171.06C141.43,167.86 141.44,164.66 141.46,161.46C147.64,158.68 155.33,158.42 159.99,152.98Z" style="fill-rule:nonzero;"/>
            <path d="M188.35,101.51C195.01,98.23 203.91,104.44 202.56,111.91C201.81,119.81 190.78,123.48 185.41,117.6C179.95,113.23 181.95,103.85 188.35,101.51Z" style="fill-rule:nonzero;"/>
        </g>
    </g>
</svg>
