<?xml version="1.0" encoding="UTF-8" standalone="no"?>
<!DOCTYPE svg PUBLIC "-//W3C//DTD SVG 1.1//EN" "http://www.w3.org/Graphics/SVG/1.1/DTD/svg11.dtd">
<!-- GeoHints -->
<svg width="100%" height="100%" viewBox="0 0 602 602" version="1.1" xmlns="http://www.w3.org/2000/svg" xmlns:xlink="http://www.w3.org/1999/xlink" xml:space="preserve" xmlns:serif="http://www.serif.com/" style="fill-rule:evenodd;clip-rule:evenodd;stroke-linejoin:round;stroke-miterlimit:2;">
    <g transform="matrix(1.33333,0,0,-1.33333,0,601.002)">
        <path d="M27.375,450.376C0.316,450.392 0.375,423.372 0.375,423.372L0.375,27.376C0.375,27.376 0.316,0.353 27.375,0.376L423.375,0.376C450.609,0.349 450.375,27.376 450.375,27.376L450.375,423.372C450.375,423.372 450.598,450.466 423.375,450.376L27.375,450.376Z" style="fill:white;fill-rule:nonzero;"/>
    </g>
    <g transform="matrix(1.33333,0,0,-1.33333,0,601.002)">
        <path d="M27.375,441.376C17.438,441.376 9.375,433.318 9.375,423.376L9.375,27.376C9.375,17.427 17.438,9.376 27.375,9.376L423.375,9.376C433.316,9.376 441.375,17.427 441.375,27.376L441.375,423.376C441.375,433.318 433.316,441.376 423.375,441.376L27.375,441.376Z" style="fill:rgb(0,64,164);fill-rule:nonzero;"/>
    </g>
    <g transform="matrix(1.33333,0,0,-1.33333,0,601.002)">
        <path d="M37.48,71.661L413.27,71.661L225.383,397.095" style="fill:white;fill-rule:nonzero;"/>
    </g>
    <g transform="matrix(2.02016,0,0,2.02016,-85.7251,-51.4507)">
        <g transform="matrix(1,0,0,1,37.3435,23.3735)">
            <rect x="243.689" y="243.406" width="25.8" height="5.4"/>
            <g transform="matrix(1,0,0,1,-205,0)">
                <rect x="243.689" y="243.406" width="25.8" height="5.4"/>
            </g>
            <g transform="matrix(1.20155,0,0,1,-99.3157,0)">
                <rect x="243.689" y="243.406" width="25.8" height="5.4"/>
            </g>
            <g transform="matrix(1.20155,0,0,1,-155.316,0)">
                <rect x="243.689" y="243.406" width="25.8" height="5.4"/>
            </g>
            <g transform="matrix(1.20155,0,0,1,-209.316,0)">
                <rect x="243.689" y="243.406" width="25.8" height="5.4"/>
            </g>
        </g>
        <g transform="matrix(1,0,0,1,37.3435,23.3735)">
            <g transform="matrix(0.883721,0,0,1,8.33597,-38)">
                <rect x="243.689" y="243.406" width="25.8" height="5.4"/>
            </g>
            <g transform="matrix(0.748062,0,0,1,1.39461,-38)">
                <rect x="243.689" y="243.406" width="25.8" height="5.4"/>
            </g>
            <g transform="matrix(0.883721,0,0,1,-111.664,-38)">
                <rect x="243.689" y="243.406" width="25.8" height="5.4"/>
            </g>
            <g transform="matrix(0.883721,0,0,1,-154.664,-38)">
                <rect x="243.689" y="243.406" width="25.8" height="5.4"/>
            </g>
            <g transform="matrix(0.813953,0,0,1,-54.6624,-38)">
                <rect x="243.689" y="243.406" width="25.8" height="5.4"/>
            </g>
        </g>
        <g>
            <path d="M159.99,152.98C170.59,142.76 181.42,132.78 191.84,122.37C199.43,124.5 207.28,125.81 214.74,128.28C220.25,132.75 225.06,138.05 230.31,142.83C230.49,152.74 230.34,162.65 230.55,172.56C227.53,172.56 224.52,172.54 221.51,172.51C221.29,164.89 221.38,157.27 221.43,149.65C218.2,147.84 214.86,146.25 211.39,145C212.83,157.57 207.96,171.85 216.24,182.73C228.33,204.54 241.08,226.04 252.71,248.05C249.15,252.89 244.9,257.21 240.77,261.55C234.72,261.94 228.63,261.69 222.58,261.57C227.22,256.8 232.85,253.15 237.97,248.92C235.34,244 206.25,207.36 197.91,196.98C197.34,195.79 195.85,196.45 195.49,197.4C181.04,218.49 166.78,239.7 152.13,260.64C143.33,258.59 134.71,255.85 125.95,253.67C128.68,244.47 138.6,250.04 145.27,249.75C146.83,244.6 171.7,192.87 181,174.92C181.93,167.7 181.26,160.27 181.56,152.96C169.15,160.95 155.91,167.64 141.43,171.06C141.43,167.86 141.44,164.66 141.46,161.46C147.64,158.68 155.33,158.42 159.99,152.98Z" style="fill-rule:nonzero;"/>
            <path d="M188.35,101.51C195.01,98.23 203.91,104.44 202.56,111.91C201.81,119.81 190.78,123.48 185.41,117.6C179.95,113.23 181.95,103.85 188.35,101.51Z" style="fill-rule:nonzero;"/>
        </g>
    </g>
</svg>
