<?xml version="1.0" encoding="UTF-8" standalone="no"?>
<!DOCTYPE svg PUBLIC "-//W3C//DTD SVG 1.1//EN" "http://www.w3.org/Graphics/SVG/1.1/DTD/svg11.dtd">
<svg width="100%" height="100%" viewBox="0 0 1847 1855" version="1.1" xmlns="http://www.w3.org/2000/svg" xmlns:xlink="http://www.w3.org/1999/xlink" xml:space="preserve" xmlns:serif="http://www.serif.com/" style="fill-rule:evenodd;clip-rule:evenodd;stroke-linejoin:round;stroke-miterlimit:2;">
    <g transform="matrix(1,0,0,1,-30.9256,-26.7574)">
        <path d="M84.792,44.083C94,43.208 103.25,43.583 112.5,43.542C677.833,43.5 1243.17,43.542 1808.5,43.542C1831.5,42.5 1854.75,57.792 1860.33,80.583C1862.04,92.5 1861.29,104.625 1861.46,116.625C1861.5,673.583 1861.42,1230.55 1861.5,1787.51C1861.17,1801.8 1862.67,1816.38 1859.75,1830.46C1853.54,1847.3 1838.58,1861.13 1820.58,1863.92C1808.21,1865.38 1795.75,1864.67 1783.33,1864.76C1219.42,1864.67 655.453,1864.84 91.543,1864.67C66.376,1865.13 41.459,1842.71 43.501,1816.76C43.584,1241.71 43.543,666.675 43.543,91.675C41.501,68.05 62.209,47.05 84.793,44.091M85.543,81.55C82.876,84.175 80.209,86.841 77.584,89.466C77.834,656.883 77.751,1224.3 77.626,1791.68C78.543,1803.22 74.168,1818.38 85.001,1826.51C98.251,1828.26 111.668,1827.22 125.001,1827.43L1770.83,1827.43C1787.58,1827.51 1804.37,1827.63 1821.12,1826.34C1829.37,1808.93 1826.33,1789.43 1826.75,1770.84C1826.79,1216.63 1826.62,662.462 1826.83,108.262C1827.33,99.137 1824.12,90.512 1821.29,82.054C1798.96,80.429 1776.54,81.262 1754.16,81.137C1223.62,81.095 693.085,81.095 162.495,81.137C136.828,81.304 111.162,80.72 85.537,81.554L85.543,81.55Z" style="fill:rgb(254,255,254);fill-rule:nonzero;"/>
        <path d="M85.542,81.542C111.167,80.708 136.833,81.292 162.5,81.125C693.083,81.083 1223.62,81.083 1754.17,81.125C1776.55,81.25 1798.96,80.417 1821.3,82.042C1824.13,90.5 1827.34,99.125 1826.84,108.25C1826.63,662.458 1826.8,1216.63 1826.75,1770.83C1826.34,1789.41 1829.38,1808.91 1821.13,1826.33C1804.38,1827.62 1787.59,1827.5 1770.84,1827.41L125.006,1827.41C111.673,1827.2 98.256,1828.25 85.006,1826.5C74.173,1818.37 78.548,1803.2 77.631,1791.66C77.756,1224.29 77.839,656.874 77.589,89.454C80.214,86.829 82.881,84.163 85.548,81.538L85.542,81.542Z" style="fill:rgb(45,95,156);"/>
        <path d="M31.5,56.875C44.958,39.917 64.542,24.833 87.417,26.958L1812.5,26.958C1827.79,26.542 1844.91,28.125 1856.41,39.333C1867.7,49.458 1878.45,62.917 1877.16,79C1877.25,661.042 1877.08,1243.08 1877.25,1825.08C1877.37,1832.12 1876.79,1839.29 1873.58,1845.7C1873.33,1848.2 1872.83,1853.16 1872.58,1855.62C1860.75,1869.54 1844.37,1882.5 1825.12,1881.33C1243.08,1881.33 661.082,1881.29 79.082,1881.33C62.166,1883.62 50.541,1869.16 36.541,1862.41C36.041,1860.33 34.999,1856.08 34.457,1853.95C29.874,1843.5 31.332,1831.87 30.999,1820.79C30.916,1270.83 30.957,720.829 30.957,170.829C30.999,132.829 30.666,94.829 31.499,56.871M84.791,44.079C62.207,47.038 41.499,68.038 43.541,91.663C43.541,666.663 43.582,1241.7 43.499,1816.74C41.457,1842.7 66.374,1865.12 91.541,1864.66C655.457,1864.83 1219.42,1864.66 1783.33,1864.74C1795.75,1864.66 1808.21,1865.37 1820.58,1863.91C1838.58,1861.12 1853.54,1847.29 1859.75,1830.45C1862.66,1816.37 1861.16,1801.79 1861.5,1787.49C1861.41,1230.54 1861.5,673.573 1861.46,116.613C1861.29,104.613 1862.04,92.488 1860.33,80.571C1854.75,57.78 1831.5,42.488 1808.5,43.53C1243.16,43.53 677.828,43.488 112.498,43.53C103.248,43.571 93.998,43.196 84.79,44.071L84.791,44.079Z" style="fill:rgb(45,95,156);fill-rule:nonzero;"/>
        <path d="M922.792,276.625C932.208,260.875 941.417,244.958 950.042,228.75C958.833,237.208 965.25,247.625 970.792,258.375C1223.88,696.833 1477.12,1135.21 1730.25,1573.62C1743.71,1597.38 1757.21,1621.12 1771.42,1644.46C1776.12,1652.04 1779.83,1660.21 1782.92,1668.62C1735.83,1669.21 1688.75,1668.75 1641.67,1668.88C1134.83,1668.75 627.997,1669.21 121.167,1668.67C125.042,1656.29 131.708,1645.17 138.417,1634.17C399.708,1181.54 661.333,729.125 922.792,276.627L922.792,276.625Z" style="fill:rgb(254,255,254);"/>
        <g id="_-333334ff" serif:id="#333334ff">
            <path d="M920.917,620.792C930.958,617.167 941.208,613.917 952.042,613.875C962.667,624.583 970.75,637.542 973.375,652.542C983.667,652.208 993.958,653.125 1003.58,657.083C1002.96,663.292 1002.38,669.5 1001.79,675.75C995.208,678.208 988.667,680.625 981.917,682.542C973.583,698.333 978.333,716.917 977.25,734.042C980.667,739.417 984,744.917 987.25,750.458C998.333,755.458 1008.58,761.958 1019.25,767.75C1035.29,775.208 1053.38,770.208 1070.25,773.167C1077.58,775.542 1084.54,779.375 1090.25,784.625C1108,801.792 1122.29,822.083 1139.42,839.792C1160.75,864.792 1184,889.667 1195.42,921.083C1201.67,941.458 1206.83,962.208 1208,983.583C1213.71,1015.5 1217.79,1047.71 1219.12,1080.08C1213.25,1081.83 1207.42,1083.67 1201.58,1085.46C1200.92,1097.46 1199.42,1109.38 1198.21,1121.33C1203.88,1123.5 1209.58,1125.71 1215.25,1127.88C1215.04,1131.46 1214.83,1135.04 1214.62,1138.62C1206.71,1146.88 1199,1155.38 1192,1164.46C1188.42,1164.5 1181.21,1164.58 1177.62,1164.62C1168.62,1154.79 1160.46,1144.29 1151.42,1134.58C1151.88,1102.12 1154.58,1069.04 1145,1037.46C1144.12,1026 1141.88,1014.71 1136.83,1004.29C1132.83,988.667 1126.21,973.542 1126.33,957.083C1118.96,946.208 1110.67,935.958 1101.17,926.875C1096.04,926.833 1090.92,926.75 1085.79,926.708C1085.75,949.708 1083.17,973.083 1088.88,995.625C1095.58,1038.17 1110.92,1078.67 1122.04,1120.12C1123.58,1130.33 1123.33,1140.71 1123.62,1151.04C1121.04,1152.5 1115.83,1155.5 1113.25,1156.96C1114.29,1176.12 1124.42,1193.17 1127.17,1212.04C1131.54,1236.75 1146.83,1257.62 1152.54,1281.92C1157.92,1300.54 1167.83,1317.54 1179.67,1332.79C1188.21,1343.79 1198.29,1353.83 1204.29,1366.58C1213.38,1385.42 1220.88,1404.96 1230.42,1423.58C1243.12,1447.92 1261.75,1468.38 1276.79,1491.12C1275.62,1497.79 1270.71,1505.08 1275.62,1511.5C1282.58,1523.33 1285.62,1536.96 1285.92,1550.62C1275.29,1554.5 1264.83,1558.88 1254.88,1564.21C1246.54,1565.12 1236.58,1561 1229.42,1566.58C1223.29,1572.21 1215,1573.96 1207.33,1576.62C1214.08,1575.25 1149.02,1465.98 1171.86,1504.23C1170.73,1493.48 1164.38,1479.5 1159.62,1469.62C1140.83,1429.08 1112.62,1394 1084.54,1359.67C1075.88,1350.71 1065.62,1343.04 1059.17,1332.21C1052.17,1321.33 1048.67,1308.83 1044.92,1296.62C1040.42,1281.5 1032.79,1267.62 1025.21,1253.92C1012.29,1266.21 1001.54,1280.5 990.292,1294.25C971.333,1320.21 959.708,1350.67 951.042,1381.42C938,1427 908.833,1466.04 896.25,1511.79C894.917,1513.75 892.167,1517.62 890.833,1519.58C888.333,1532.42 885.25,1545.54 877.75,1556.54C871.917,1565.42 866.375,1574.62 863.167,1584.88C855.875,1589.25 847.417,1589.92 839.125,1590.58C836.75,1587.58 834.417,1584.62 832.042,1581.62C826.208,1581.42 820.375,1581.25 814.583,1581.17C814.417,1575.75 814.25,1570.38 814.083,1565.04C789.958,1563.33 765.542,1567.08 741.583,1563.38C740.542,1561.92 738.5,1559 737.458,1557.5C723.25,1556.54 713.583,1544.75 701.375,1538.75C701.375,1534.88 701.333,1527.12 701.333,1523.25C704.458,1520.25 707.542,1517.21 710.667,1514.21C731.792,1512.83 752.958,1514.58 774.125,1514.17C783,1508.92 783.667,1497.71 787.792,1489.21C794.208,1477.83 806.833,1471.42 812.917,1459.75C815.417,1455.08 818.25,1450.58 821.167,1446.21C822.792,1440.96 825.083,1436.04 830,1433.21C831.208,1426.5 831.75,1418.96 839.375,1416.58C839.375,1411.79 839.333,1407.04 839.25,1402.29C841.417,1401 845.75,1398.33 847.917,1397C848,1391 848.083,1385 848.167,1379C850.625,1376.21 853.125,1373.42 855.583,1370.62C855.917,1362.29 856.333,1354 856.958,1345.71C866.167,1328.17 870.417,1308.58 877.875,1290.25C885.25,1267.04 899.083,1246.71 907.792,1224C914.583,1206.54 924.958,1190.83 935.417,1175.42C925.5,1159.96 939.75,1144.38 943.208,1129.08C943.583,1113.62 944.583,1097.96 950.083,1083.33C954.542,1072.54 953.917,1060.54 950.25,1049.67C945.875,1037.33 949.542,1024.17 947.375,1011.58C942.542,996.667 932.542,983.875 929.25,968.375C926.25,968.583 923.333,969 920.417,969.542C912.75,980.917 910.875,995.375 902.125,1006.08C884.25,1019.71 861.042,1021.71 840.083,1027.71C822,1032.54 804.542,1041.21 785.417,1040.42C782.167,1037 778.875,1033.54 775.542,1030.17C763.833,1040.08 749.25,1045.08 734.667,1049.08C733.833,1057 737.208,1066.88 729.708,1072.38C722.167,1073.96 714.333,1073.71 706.75,1072.46C700.583,1069.29 702.292,1061.58 700.833,1056.04C694.375,1056.21 687.917,1056.38 681.458,1056.5C683,1046.71 684.5,1036.92 685.25,1027.04C694.667,1016.71 704.417,1005.96 717.083,999.583C733.417,997.625 751.833,996.917 763.292,983.292C795.292,974.25 824.125,956.75 856.042,947.5C855.125,926.833 865.667,908.042 865.667,887.417C874.625,870.333 869.292,849.875 878.75,833.125C885.75,817.875 901.75,810.292 914.583,800.708C914.75,798.792 915.042,795 915.208,793.083C905.708,795.208 895.292,799.958 887.042,792.25C885.5,787.917 883.833,783.625 882.125,779.333C881.5,773.375 880.917,767.375 880.333,761.417C877.5,760.958 871.917,760 869.083,759.542C868.583,747.083 869.542,734.125 864.083,722.5C852.75,722.333 841.458,720.875 830.417,718.417C830.667,713.625 830.958,708.833 831.25,704.083C838.5,701.125 845.167,697.042 851.625,692.625C856.208,671.625 858.75,650 867.417,630.125C869.792,624.125 876.125,621.083 881.792,618.917C894.958,616.375 907.917,626.292 920.917,620.792Z"/>
            <path d="M1277.92,1553.58C1264.3,1556.7 1249.92,1564.2 1236.25,1557.25C1220.46,1571.2 1200.17,1577.7 1182.92,1589.37C1191.34,1589.66 1199.84,1590.66 1208.17,1589.16C1217.71,1585.29 1226.67,1580.12 1236.25,1576.41C1240.42,1589.7 1244.21,1603.16 1247.21,1616.79C1213.46,1618.7 1179.59,1617.12 1145.8,1617.62C1112.67,1617.08 1079.5,1618.83 1046.38,1616.83C1044.5,1602.83 1023.71,1384.83 1024.25,1377.25C1045.25,1375.83 1066.34,1375.62 1087.38,1377.5C1109.8,1407.08 1131.3,1437.7 1147.42,1471.29C1152.17,1480.95 1159.13,1489.37 1164.05,1499C1169.09,1509.37 1171.17,1520.87 1173.88,1532.04C1178.34,1532 1182.75,1532 1187.21,1532C1186.09,1523.7 1180.5,1517.7 1175.71,1511.37C1169.75,1498.45 1167.34,1484.12 1160.96,1471.37M1134.17,1573.33C1150.67,1581.04 1168.84,1583.45 1186.88,1581.08C1185.05,1571.2 1173.88,1572.7 1166.71,1570.87C1156.46,1570.54 1148.13,1564.45 1140.42,1558.37C1139.92,1555.29 1138.84,1549.12 1138.3,1546.08C1135.17,1554.79 1134.5,1564.08 1134.17,1573.33Z" style="fill-rule:nonzero;"/>
            <path d="M1346.42,1372.38C1399.13,1372.59 1451.88,1371.76 1504.59,1372.8C1532.8,1422.71 1562.46,1471.76 1590.92,1521.55C1606.67,1547.59 1620.88,1574.55 1637.21,1600.21C1641.13,1605.96 1643.38,1612.51 1645.38,1619.17C1575.96,1619.42 1506.5,1619.92 1437.13,1618.92C1413.17,1552.63 1386.46,1487.38 1362.21,1421.21C1356.46,1405.05 1347.42,1389.84 1346.42,1372.38ZM702.42,1372.26C748.42,1372.46 794.378,1372.34 840.378,1372.3C839.961,1380.51 839.545,1388.8 839.086,1397.09C829.211,1404.3 834.878,1420.34 823.128,1425.05C823.253,1427.8 823.503,1433.21 823.628,1435.96C821.67,1435.96 817.753,1436.01 815.795,1436.01C815.545,1438.71 814.961,1444.21 814.67,1446.96C810.128,1451.92 805.795,1457.3 805.753,1464.42C793.128,1477.3 781.753,1491.42 771.878,1506.51C753.92,1512.26 733.253,1513.63 715.378,1507.09C707.253,1513.55 699.878,1520.88 692.878,1528.51C693.003,1531.26 693.211,1536.71 693.336,1539.46C711.42,1549.26 730.17,1558.42 746.336,1571.3C753.003,1573.42 759.628,1575.8 766.461,1577.42C779.128,1580.84 792.086,1572.92 804.711,1577.3C809.92,1580.55 814.586,1584.67 819.378,1588.55C831.253,1588.13 842.253,1592.42 852.628,1597.76C852.378,1604.84 852.17,1611.96 852.003,1619.09C783.586,1619.71 715.128,1619.51 646.711,1619.21C648.295,1601.42 652.586,1584.09 657.128,1566.92C668.336,1515.42 680.461,1464.09 692.003,1412.63C694.42,1398.92 698.545,1385.59 702.42,1372.26ZM260.461,1601.96C302.503,1525.59 344.961,1449.42 386.628,1372.84C439.378,1371.8 492.211,1372.55 545.003,1372.42C541.378,1390.42 532.878,1406.92 527.503,1424.42C502.878,1489.13 479.836,1554.42 455.128,1619.13C388.253,1619.88 321.336,1619.17 254.461,1619.46C256.045,1613.51 257.42,1607.38 260.461,1601.96Z" style="fill-rule:nonzero;"/>
        </g>
    </g>
</svg>
