<?xml version="1.0" encoding="UTF-8" standalone="no"?>
<!DOCTYPE svg PUBLIC "-//W3C//DTD SVG 1.1//EN" "http://www.w3.org/Graphics/SVG/1.1/DTD/svg11.dtd">
<svg width="100%" height="100%" viewBox="0 0 3225 3226" version="1.1" xmlns="http://www.w3.org/2000/svg" xmlns:xlink="http://www.w3.org/1999/xlink" xml:space="preserve" xmlns:serif="http://www.serif.com/" style="fill-rule:evenodd;clip-rule:evenodd;stroke-linejoin:round;stroke-miterlimit:2;">
    <g transform="matrix(0.872604,0,0,1,-0.00261781,0)">
        <path d="M54.708,0L3613.63,0C3637.05,10.625 3658.63,26.542 3673.84,47.417C3682,57.833 3685,71.042 3685.84,84C3687.3,124 3695.84,3161.38 3695.84,3161.38C3688.63,3173.84 3682.05,3186.84 3672.59,3197.8C3661.55,3208.42 3648,3215.88 3635.8,3225.01L58.545,3225.01C48.378,3220.17 37.961,3215.55 29.045,3208.59C17.961,3200.26 9.836,3188.84 0.003,3179.17L0.003,56.752C12.836,33.294 32.92,15.044 54.711,0.002M3529.33,70.252C3408.37,69.877 156.541,64.419 137.001,66.544C121.126,70.502 104.959,77.46 94.501,90.46C84.043,103.752 77.876,120.46 78.376,137.46C78.543,169.377 70.334,3084.79 70.793,3096.17C72.793,3117.13 80.209,3138.88 97.793,3151.88C118.668,3171 148.709,3169.88 175.126,3170.09C227.876,3163.13 3491.75,3167.96 3545.96,3167.3C3573.71,3167.55 3600.58,3149.63 3610.54,3123.63C3616.04,3105.09 3615.66,3085.67 3615.62,3066.59C3616.75,3037.42 3603.29,248.416 3602.5,203.916C3599.25,173.041 3607.29,141.041 3597.21,111.041C3584.66,86.124 3557.12,69.999 3529.33,70.249L3529.33,70.252Z" style="fill:white;fill-rule:nonzero;"/>
    </g>
    <g transform="matrix(0.872604,0,0,1,4.08851,-5.56721)">
        <path d="M137,66.542C156.542,64.417 3408.38,69.875 3529.33,70.25C3557.12,70 3584.66,86.125 3597.2,111.042C3607.29,141.042 3599.25,173.042 3602.5,203.917C3603.29,248.417 3616.75,3037.42 3615.62,3066.59C3615.66,3085.67 3616.04,3105.09 3610.54,3123.63C3600.58,3149.63 3573.7,3167.55 3545.95,3167.3C3491.75,3167.96 227.875,3163.13 175.125,3170.09C148.708,3169.88 118.667,3171 97.792,3151.88C80.208,3138.88 72.792,3117.13 70.792,3096.17C70.333,3084.8 78.542,169.381 78.375,137.461C77.875,120.461 84.042,103.753 94.5,90.461C104.958,77.461 121.125,70.503 137,66.545L137,66.542Z" style="fill:rgb(12,56,124);"/>
    </g>
    <g transform="matrix(0.872604,0,0,1,2.92628,96.1431)">
        <path d="M1838.21,242.208C1855.88,262.125 3397.5,2619.04 3498.29,2768.67C3501.46,2774.21 3503.21,2780.46 3505.37,2786.5C3449.33,2786.58 226.623,2792.13 183.753,2790.04L1838.21,242.213L1838.21,242.208Z" style="fill:white;"/>
    </g>
    <g transform="matrix(1,0,0,1,4.50255,0)">
        <g transform="matrix(0.846377,0,0,1,51.0352,0)">
            <path d="M761.458,2211.92C785.417,2211.8 971.917,2208.71 993.083,2207.92C947.458,2316.8 793.208,2681.13 785.542,2689.46C772.417,2690.92 515.833,2694.13 496.667,2694.34C523.208,2644.21 748.625,2232.88 761.458,2211.92ZM2680.54,2203.63C2757.91,2203.75 2835.33,2203.59 2912.7,2203.71C2938.58,2251.55 3141.7,2615.21 3182.45,2687.96C3137.2,2688.17 2887.58,2685.8 2882.58,2685.88C2829.08,2558.38 2692.58,2237.63 2680.54,2203.63ZM2463.08,2625.21C2477.12,2619.63 2490.54,2612.55 2503.58,2604.84C2507.87,2609.63 2512.2,2614.42 2516.54,2619.25C2530.45,2618.46 2542.79,2611.63 2554.91,2605.3C2560.75,2631.92 2569.7,2657.75 2577.45,2683.88C2549.83,2684 2310.12,2685.71 2286.16,2681.84C2282.58,2664.67 2279.37,2647.42 2276.08,2630.25C2290.7,2632.25 2305.37,2633.92 2320.08,2635.46C2350.75,2640.17 2381.62,2646.55 2412.83,2645.3C2431.66,2645.05 2446.29,2631.71 2463.08,2625.21ZM1240.79,2204.13C1257.87,2204.55 1454.95,2199.34 1474.08,2199.71C1456.5,2301.25 1437.08,2402.46 1418.12,2503.75C1396.33,2495.05 1373.62,2488.63 1350.33,2485.96C1339.66,2491.8 1327.16,2486.21 1316.25,2491C1299.62,2496.25 1286.54,2508.67 1276.33,2522.34C1270.25,2535.63 1270.91,2550.59 1268.79,2564.75C1287.2,2588.05 1314.87,2601.55 1341.75,2612.75C1359.25,2618.46 1377.08,2623.21 1394.75,2628.55C1391.7,2645.59 1389.29,2662.8 1385.62,2679.8C1361.16,2679.71 1123.29,2682.88 1093.08,2684.13C1143.87,2524.63 1190.25,2363.71 1240.79,2204.13ZM1893.79,2197.34C1914.66,2197.59 1935.54,2197.13 1956.41,2197.71C1956.5,2203.17 1983.87,2655.84 1984.33,2675.46C1961.75,2675.5 1727.04,2673.25 1690.58,2673.46C1690.79,2652.21 1694.75,2631.09 1692.5,2609.88C1699.83,2591.71 1714.54,2578.3 1723.25,2561C1748.95,2515.5 1775.58,2470.46 1798.12,2423.3C1818.16,2387.75 1834.91,2350.46 1850.45,2312.75C1870.25,2276.46 1880.33,2236.17 1893.79,2197.34ZM2268.75,2582.71C2252.58,2495.21 2237.79,2407.42 2222.16,2319.8C2242.62,2341.38 2344.45,2502.5 2354.58,2525.5C2344.66,2526.38 2334.75,2526.63 2324.87,2525.88C2313.83,2524.75 2303.37,2529.96 2294.79,2536.34C2280.37,2547.96 2276.7,2566.92 2268.75,2582.71Z" style="fill:rgb(26,28,33);fill-rule:nonzero;"/>
        </g>
        <g transform="matrix(0.846377,0,0,1,51.0352,0)">
            <path d="M1803.33,738.125C1810.16,741.625 1813.16,749.208 1817.41,755.167C1819.62,755.75 1824,756.875 1826.2,757.458C1828.41,766.083 1830.37,774.75 1832.33,783.417C1834.58,784.5 1839.08,786.667 1841.29,787.792C1844.75,795.333 1848.29,802.833 1852.25,810.167C1865.29,810.333 1878.29,808.667 1891.33,809.292C1899.83,811.292 1911.45,814.292 1912.62,824.667C1900.29,841.25 1877.58,845.083 1858.29,847.125C1857.87,866.333 1863,885.125 1861.75,904.375C1862.75,921.875 1857.41,940.458 1863.62,957.25C1873.2,970.125 1878.33,986.042 1889.62,997.667C1928.38,1005.49 1926.04,1010.72 1963.33,1024.62C1975.68,1028.2 2069.28,1038.39 2083.45,1039.21C2091.83,1039.92 2101.12,1040.54 2107.75,1046.5C2124.25,1060.5 2142.29,1072.96 2156.75,1089.25C2171.95,1107.29 2190.54,1122.17 2205.08,1140.83C2213.25,1151.96 2224.95,1159.5 2235.29,1168.38C2267.37,1194.38 2294.25,1226.12 2327.04,1251.29C2340.01,1275.69 2344.59,1271.42 2358.69,1294.84C2371.17,1315.59 2381.13,1348.11 2387.16,1370.83C2396.12,1412.25 2406.41,1453.5 2411.08,1495.75C2416.66,1525.83 2420.25,1556.25 2426.7,1586.17C2428.91,1595.75 2432.95,1605.17 2432.29,1615.21C2416.91,1624.5 2398.16,1626.79 2383.41,1636.88C2393.62,1678.32 2389.61,1677.97 2390,1720.25C2392.25,1722.08 2396.75,1725.71 2399,1727.5C2408.33,1724.08 2417.7,1720.88 2427.29,1718.08C2425.79,1730.04 2420.62,1741.21 2420.91,1753.46C2413.5,1759.12 2406.12,1766.42 2396.12,1766.5C2380,1766 2363.95,1764.29 2347.87,1763.17C2360.49,1783.82 2387.59,1772.4 2396.12,1792.38C2372.41,1797.96 2348.16,1791.88 2326.79,1781.38C2314.12,1769.83 2307.87,1753.21 2297.29,1740C2293.37,1734.04 2287,1728.79 2287.04,1721.21C2286.54,1695.79 2292.66,1670.88 2293.75,1645.58C2291.04,1644.83 2285.58,1643.38 2282.87,1642.62C2283.79,1614.5 2281.29,1586.42 2277.79,1558.54C2271.58,1524.29 2261.2,1490.92 2250.16,1457.96C2240.7,1430.75 2236.12,1401.96 2224.29,1375.54C2219.16,1367.21 2211.37,1360.92 2204.25,1354.38C2181.7,1336.33 2159.58,1317.21 2134.04,1303.46C2131.41,1302.96 2126.16,1302 2123.54,1301.54C2126.8,1347.77 2132.78,1428.41 2134.41,1466.71C2139.83,1554.15 2194.22,1629.52 2210.95,1713.88C2215.58,1732.71 2220.04,1751.67 2221.95,1771C2213.04,1776.83 2203.75,1782.04 2194,1786.25C2197.2,1813.54 2208.7,1838.75 2219.58,1863.67C2233.33,1904.08 2251.62,1942.67 2268.75,1981.71C2279.83,2009.12 2289.87,2037.08 2303.58,2063.33C2325.2,2097.75 2356.91,2124.25 2380.29,2157.42C2391.64,2176.09 2406.53,2192.43 2418.12,2210.96C2435.08,2242.08 2451.7,2273.58 2472.5,2302.42C2486.7,2324.04 2503.04,2344.21 2518.08,2365.29C2539.29,2392.92 2562.54,2419.04 2581.91,2448.08C2579.83,2452.88 2578.2,2457.79 2577.08,2462.92C2595.29,2487.33 2607.75,2515.33 2620.04,2543.04C2592,2562.25 2558.66,2570.75 2528.08,2584.88C2525.66,2581.08 2523.33,2577.29 2520.95,2573.54C2501.79,2571.54 2485.12,2582.04 2468.37,2589.54C2449.95,2598.5 2433.45,2612.75 2412.62,2615.79C2400.75,2616.12 2388.83,2615.21 2377.04,2614.25C2348.83,2610.04 2320.16,2608.58 2292.41,2601.67C2293.16,2597.79 2293.95,2593.96 2294.75,2590.17C2296.66,2589.62 2300.5,2588.5 2302.45,2587.96C2305.54,2577.62 2305.37,2563.54 2316.58,2558.21C2337.33,2547.54 2361.5,2549.67 2384.12,2549.54C2389.95,2537.79 2395.91,2526.12 2401.2,2514.12C2395,2513.08 2388.87,2512.12 2382.79,2511.08C2364.16,2451.62 2327.16,2400.46 2290.83,2350.75C2254.08,2303.12 2214.04,2258.17 2175.58,2211.96C2150.33,2183.04 2119.62,2158.96 2097.2,2127.62C2065.58,2074.88 2043.83,2016.67 2010.12,1965.12C1992.58,1980.75 1980.21,2001.04 1965.04,2018.75C1940.79,2051.71 1913.91,2082.83 1893.16,2118.25C1875.7,2144.96 1864.83,2175.25 1855.58,2205.58C1841.75,2246.08 1827.33,2286.58 1807.95,2324.79C1788.25,2364.29 1767,2402.96 1746.33,2441.96C1728.79,2477.08 1711.5,2512.38 1692.29,2546.62C1687.41,2554.42 1680.29,2561.04 1678.33,2570.38C1672.08,2595.67 1658.37,2618.12 1645,2640.21C1612.7,2640.67 1581.12,2632.08 1550.25,2623.5C1551.45,2616.12 1552.79,2608.79 1554.04,2601.46C1515.16,2591.46 1476.45,2608.33 1437.37,2607.04C1397.2,2610.01 1313.34,2558.87 1297.58,2549.04C1311.45,2538.88 1319.54,2520.88 1336.58,2515.54C1364.08,2517.96 1388.66,2533.17 1416.29,2534.5C1441.04,2528.79 1463.7,2516.75 1487.54,2508.25C1500.2,2503.33 1486.29,2490.08 1484.08,2482.04C1497.95,2467.25 1510.7,2451.5 1523.7,2436C1552.87,2407 1567.91,2368 1586.62,2332.21C1601.33,2298.54 1620.41,2266.75 1631.95,2231.75C1639.37,2211.79 1645.75,2191.42 1649.62,2170.46C1654.58,2150.67 1656.04,2129.71 1665.54,2111.29C1674.75,2091.79 1686.45,2073.54 1695,2053.71C1718.66,2001.04 1747.62,1951.04 1774.66,1900.08C1788.58,1875.04 1804.75,1851.08 1816.54,1824.88C1815,1816.54 1804.33,1816.75 1798.33,1813.12C1808.05,1787.75 1822.12,1764.06 1830.5,1738.21C1826,1736.67 1821.5,1735.12 1817,1733.62C1823.79,1718.17 1833.66,1704.17 1838.66,1687.96C1842.37,1676.71 1835.95,1665.25 1838.25,1653.83C1842.93,1602.11 1830.81,1549.55 1825.7,1496.92C1814.7,1475.75 1798.66,1457.67 1788.5,1436.04C1781.2,1424.21 1777.25,1409.71 1766.58,1400.42C1757.79,1409.04 1754.83,1421.46 1748.7,1431.79C1738.7,1449.5 1732.5,1470 1717.54,1484.42C1703.87,1497.12 1684.16,1497.04 1667.7,1503.79C1666.25,1502.88 1663.37,1501.04 1661.91,1500.12C1661.33,1501.96 1660.12,1505.62 1659.54,1507.46C1590.75,1526 1521.41,1544.54 1456.79,1575.08C1443.54,1568.92 1431.83,1560.21 1420.29,1551.46C1382.87,1573.88 1377.87,1570.32 1337.91,1585.5C1336.2,1590.25 1333.7,1594.92 1333.58,1600.12C1336.04,1610.21 1343.12,1618.79 1343.62,1629.5C1335.79,1627.17 1328.04,1624.54 1320.25,1622.12C1318.54,1626.62 1316.87,1631.17 1315.2,1635.67C1312.7,1635.79 1307.7,1636.04 1305.2,1636.17C1303.41,1634.38 1299.83,1630.75 1298.04,1628.92C1291.7,1630.33 1285.45,1632.12 1279.12,1633.29C1260.04,1613.38 1267.75,1584.75 1267.79,1560.25C1243.26,1575.37 1251.26,1582.15 1232.5,1603.75C1227.33,1608.79 1219.7,1607.46 1213.25,1607.5C1216.12,1582.33 1230.79,1561.25 1246.16,1542.04C1261.54,1529.12 1280.83,1521.21 1294.45,1506.04C1322.5,1501.04 1352.16,1504.25 1379,1493.46C1380.2,1488.75 1381.75,1484.17 1383.66,1479.75C1391.37,1475.67 1399.83,1473.42 1407.95,1470.33C1445.08,1457.25 1481.04,1441.21 1516.91,1425.04C1529.08,1419.46 1541,1413.12 1554.04,1409.75C1575.33,1404.67 1593.83,1392.5 1613.45,1383.29C1616.41,1344.38 1631.2,1307.79 1641.04,1270.38C1647.29,1244.58 1651.45,1218.17 1651.54,1191.58C1651.08,1159.51 1654.59,1156.58 1676.29,1138.5C1698.5,1121 1721.58,1104.67 1743.62,1086.96C1744.08,1075.25 1743.66,1062.17 1733.04,1054.75C1714.58,1052.88 1700.29,1071.62 1681.62,1068.83C1671.25,1063.92 1671.08,1051.71 1669.45,1041.96C1667.2,1024.92 1657.25,1010.5 1650.62,995C1644.62,994.25 1638.41,994.333 1632.7,992.292C1628.29,978.625 1632.45,963.75 1630.08,949.75C1623.7,941.25 1616.16,933.75 1610.45,924.792C1586.04,928.875 1560.08,940.458 1535.79,930.208C1553.95,914.417 1576.25,904.833 1597.12,893.333C1594.47,856.513 1598.87,825.938 1607.45,791.167C1612.66,766.625 1638.16,748.875 1662.87,750.75C1680.86,751.708 1698.97,753.103 1716.91,751.542C1742.33,749.33 1777.38,722.797 1803.33,738.125Z" style="fill:rgb(26,28,33);fill-rule:nonzero;"/>
        </g>
    </g>
</svg>
