<?xml version="1.0" encoding="UTF-8" standalone="no"?><!DOCTYPE svg PUBLIC "-//W3C//DTD SVG 1.1//EN" "http://www.w3.org/Graphics/SVG/1.1/DTD/svg11.dtd"><svg width="100%" height="100%" viewBox="0 0 3101 3101" version="1.1" xmlns="http://www.w3.org/2000/svg" xmlns:xlink="http://www.w3.org/1999/xlink" xml:space="preserve" xmlns:serif="http://www.serif.com/" style="fill-rule:evenodd;clip-rule:evenodd;stroke-linecap:round;stroke-linejoin:round;stroke-miterlimit:500;"><path id="path25" d="M2.098,118.208c-0,-30.802 12.235,-60.333 34.01,-82.114c21.782,-21.776 51.313,-34.011 82.115,-34.011l2864.46,0c64.131,0 116.125,51.99 116.125,116.125l0,2864.45c0,30.802 -12.239,60.339 -34.01,82.114c-21.781,21.781 -51.318,34.011 -82.115,34.011l-2864.46,-0c-30.802,-0 -60.333,-12.23 -82.115,-34.011c-21.775,-21.775 -34.01,-51.312 -34.01,-82.114l-0,-2864.45Z" style="fill:none;fill-rule:nonzero;stroke:#000;stroke-width:3.69px;"/><path id="path23" d="M2.098,118.208c-0,-30.802 12.235,-60.333 34.01,-82.114c21.782,-21.776 51.313,-34.011 82.115,-34.011l2864.46,0c64.131,0 116.125,51.99 116.125,116.125l0,2864.45c0,30.802 -12.239,60.339 -34.01,82.114c-21.781,21.781 -51.318,34.011 -82.115,34.011l-2864.46,-0c-30.802,-0 -60.333,-12.23 -82.115,-34.011c-21.775,-21.775 -34.01,-51.312 -34.01,-82.114l-0,-2864.45" style="fill:#fff;fill-rule:nonzero;"/><path id="path27" d="M64.03,118.208c0,-29.927 24.265,-54.192 54.193,-54.192l2864.46,-0c14.37,-0 28.151,5.713 38.318,15.875c10.161,10.161 15.87,23.948 15.87,38.317l-0,2864.45c-0,29.931 -24.261,54.192 -54.188,54.192l-2864.46,0c-14.376,0 -28.155,-5.708 -38.318,-15.871c-10.166,-10.166 -15.875,-23.946 -15.875,-38.321l0,-2864.45" style="fill:#0046ac;fill-rule:nonzero;"/><path id="path31" d="M166.608,2738.45l1383.85,-2396.89l1383.84,2396.89l-2767.68,-0" style="fill:#fff;fill-rule:nonzero;"/><path id="path35" d="M2763.22,2650.64l-299.417,-541.933l-252.234,0l200.146,541.923l351.505,0.01Zm-1615.46,-541.943l-122.807,541.933l359.99,0l7.807,-114.251l-231.646,-62.281l98.24,-365.391l-111.584,-0.01Zm553.881,332.417l14.317,209.516l359.995,0l-122.807,-541.933l-136.162,0.01l176.896,299.271l-231.083,136.594l-61.156,-103.458Zm-1012.45,209.516l-351.496,0l299.408,-541.923l252.234,0l-200.146,541.923Z" style="fill-rule:nonzero;"/><path id="path51" d="M1404.23,1598.9l0,143.224l-188.307,700.385l172.818,46.459l165.557,-615.745l0,230.713l224.25,379.36l154.057,-91.068l-204.119,-345.302l-0,-631.333l49.51,80.401l0,306.224l111.854,-0l0,-337.896l-179.635,-291.734c-17.396,-28.261 -41.781,-51.573 -70.787,-67.693c-50.901,-28.287 -114.552,-17.953 -153.885,24.989c-52.302,57.099 -81.313,131.73 -81.313,209.162l0,89.344l-229.281,273.291l85.807,70.891l143.474,-173.672Zm280.438,-682.776c-0,-74.125 -60.094,-134.219 -134.219,-134.219c-74.125,0 -134.219,60.094 -134.219,134.219c0,74.13 60.094,134.219 134.219,134.219c74.125,-0 134.219,-60.089 134.219,-134.219Z" style="fill-rule:nonzero;"/></svg>