<?xml version="1.0" encoding="UTF-8" standalone="no"?>
<!-- Created with Inkscape (http://www.inkscape.org/) -->
<svg xmlns:dc="http://purl.org/dc/elements/1.1/" xmlns:cc="http://creativecommons.org/ns#" xmlns:rdf="http://www.w3.org/1999/02/22-rdf-syntax-ns#" xmlns:svg="http://www.w3.org/2000/svg" xmlns="http://www.w3.org/2000/svg" xmlns:sodipodi="http://sodipodi.sourceforge.net/DTD/sodipodi-0.dtd" xmlns:inkscape="http://www.inkscape.org/namespaces/inkscape" id="svg17624" version="1.1" inkscape:version="0.92.4 (5da689c313, 2019-01-14)" width="600.39996" height="600.40045" xml:space="preserve" sodipodi:docname="Philippines_road_sign_W6-1.svg"><metadata id="metadata17630"><rdf:RDF><cc:Work rdf:about=""><dc:format>image/svg+xml</dc:format><dc:type rdf:resource="http://purl.org/dc/dcmitype/StillImage"/><dc:title/></cc:Work></rdf:RDF></metadata><defs id="defs17628"><inkscape:perspective sodipodi:type="inkscape:persp3d" inkscape:vp_x="0 : 0.5 : 1" inkscape:vp_y="0 : 1000 : 0" inkscape:vp_z="1 : 0.5 : 1" inkscape:persp3d-origin="0.5 : 0.33333333 : 1" id="perspective17632"/><clipPath clipPathUnits="userSpaceOnUse" id="clipPath17642"><path d="m -2,710 501,0 0,-711 -501,0 0,711 z" id="path17644" inkscape:connector-curvature="0"/></clipPath><clipPath clipPathUnits="userSpaceOnUse" id="clipPath17648"><path d="m 0,708.06 498,0 0,-708 -498,0 0,708 z" id="path17650" inkscape:connector-curvature="0"/></clipPath><clipPath clipPathUnits="userSpaceOnUse" id="clipPath17798"><path d="m -2,710 501,0 0,-711 -501,0 0,711 z" id="path17800" inkscape:connector-curvature="0"/></clipPath><clipPath clipPathUnits="userSpaceOnUse" id="clipPath17804"><path d="m 0,708.06 498,0 0,-708 -498,0 0,708 z" id="path17806" inkscape:connector-curvature="0"/></clipPath><clipPath id="Clip0"><path inkscape:connector-curvature="0" d="m 0,0 212.597,0 0,269.292 L 0,269.292 0,0 z" transform="translate(0.923828,0.879883)" id="path7"/></clipPath></defs><sodipodi:namedview pagecolor="#ffffff" bordercolor="#666666" borderopacity="1" objecttolerance="10" gridtolerance="10" guidetolerance="10" inkscape:pageopacity="0" inkscape:pageshadow="2" inkscape:window-width="1920" inkscape:window-height="1057" id="namedview17626" showgrid="false" inkscape:zoom="0.82456683" inkscape:cx="469.07383" inkscape:cy="312.32628" inkscape:window-x="-8" inkscape:window-y="-8" inkscape:window-maximized="1" inkscape:current-layer="g17634" fit-margin-top="0.2" fit-margin-left="0.2" fit-margin-right="0.2" fit-margin-bottom="0.2" showguides="true" inkscape:guide-bbox="true"/><g id="g17634" inkscape:groupmode="layer" inkscape:label="GG1999P002" transform="matrix(1.25,0,0,-1.25,680.85465,599.64899)"><path style="fill:#cdff00;fill-opacity:1;fill-rule:nonzero;stroke:none" d="m -305.04772,479.55919 c -9.102,0 -17.9711,-4.11353 -23.9526,-10.85352 L -534.04452,262.713 c -6.6069,-5.98149 -10.4792,-14.69591 -10.4792,-23.67813 l 0,-207.539243 c 0,-17.5852 14.3516,-31.93679977 31.9367,-31.93679977 l 416.126463,0 c 17.58519,0 31.9368,14.35159977 31.9368,31.93679977 l 0,207.539243 c 0,8.9822 -3.87233,17.69664 -10.47926,23.67813 L -280.04722,468.70567 c -5.9815,6.73999 -14.8506,10.85352 -23.9526,10.85352 -0.1759,0 -0.872,0 -1.0479,0 z" id="path3487" inkscape:connector-curvature="0" sodipodi:nodetypes="sccssssssccss"/><path style="fill:#000000;fill-opacity:1;fill-rule:evenodd;stroke:none" d="m -305.32322,471.07008 c -1.9438,-0.0275 -3.9008,-0.29813 -5.8962,-0.82446 -0.6063,-0.17989 -1.1992,-0.36145 -1.7989,-0.57464 -3.4311,-1.30583 -6.3259,-3.14296 -8.9442,-5.7213 l -207.241,-207.29097 c -1.1859,-1.16591 -2.2269,-2.38179 -3.1729,-3.74758 -2.3452,-3.54438 -3.6793,-7.30527 -4.0724,-11.54254 l -0.075,-1.24919 0,-208.315303 0.1249,-2.52338 c 0.1533,-1.17923 0.3581,-2.30017 0.6246,-3.47275 0.5463,-1.9121 1.1926,-3.57435 2.0987,-5.34654 0.5796,-0.99936 1.2009,-1.95208 1.8738,-2.89812 1.2058,-1.53901 2.4434,-2.81819 3.9224,-4.09736 0.9128,-0.71288 1.8005,-1.37911 2.7732,-1.99871 1.7123,-0.99269 3.3495,-1.7338798 5.2216,-2.3734598 1.1393,-0.32646 2.2503,-0.56797 3.4228,-0.7745 1.2526,-0.17322 2.4568,-0.24817 3.7226,-0.27482 l 416.430773,0 c 1.26586,0.0266 2.47008,0.1016 3.7226,0.27482 1.17258,0.20653 2.28352,0.44804 3.42279,0.7745 1.87212,0.63958 3.5094,1.3807698 5.22162,2.3734598 0.97271,0.6196 1.86047,1.28583 2.77322,1.99871 1.47904,1.27917 2.71657,2.55835 3.92246,4.09736 0.6729,0.94604 1.29415,1.89876 1.87379,2.89812 0.90608,1.77219 1.55232,3.43444 2.09864,5.34654 0.26649,1.17258 0.47136,2.29352 0.6246,3.47275 l 0.12492,2.52338 0,208.315303 -0.075,1.24919 c -0.39308,4.23727 -1.72722,7.99816 -4.07236,11.54254 -0.94605,1.36579 -1.98706,2.58167 -3.17296,3.74758 L -287.08526,463.94968 c -2.6183,2.57834 -5.5131,4.41547 -8.9442,5.7213 -0.5996,0.21319 -1.1926,0.39475 -1.7989,0.57464 -1.9953,0.52633 -3.9524,0.79698 -5.8961,0.82446 -0.2682,0.004 -1.3308,0.004 -1.599,0 z" id="path3495" inkscape:connector-curvature="0" sodipodi:nodetypes="ccccccccccccccccccccccccccccccccccccsc"/><path style="fill:#cdff00;fill-opacity:1;fill-rule:evenodd;stroke:none" d="m -304.84872,458.27026 c -0.4194,0.008 -0.8553,-0.009 -1.275,-0.05 -2.5849,-0.31977 -4.898,-1.49293 -6.75,-3.325 l -207.5,-207.5 c -2.072,-2.04528 -3.2301,-4.72031 -3.35,-7.625 l 0,-207.799993 c 0.027,-1.04596 0.1168,-1.9557 0.35,-2.975 0.4596,-1.59891 1.124,-2.88091 2.15,-4.2 1.8387,-2.10523 3.9668,-3.35035 6.725,-3.85 l 1.075,-0.1 417.799963,0 1.075,0.1 c 2.75811,0.49965 4.88625,1.74477 6.725,3.85 1.02596,1.31909 1.69031,2.60109 2.15,4.2 0.23317,1.0193 0.32335,1.92904 0.35,2.975 l 0,207.799993 c -0.11992,2.90469 -1.27809,5.57972 -3.35,7.625 l -207.499963,207.5 c -1.8521,1.83207 -4.1652,3.00523 -6.75,3.325 -0.4198,0.041 -0.8557,0.058 -1.275,0.05 -0.109,-0.002 -0.541,-0.002 -0.65,0 z" id="path3499" inkscape:connector-curvature="0" sodipodi:nodetypes="ccccccccccccccccccccc"/><path inkscape:connector-curvature="0" style="fill:#000000;fill-opacity:1;stroke:none" d="m -464.52372,79.558857 319.99997,0 0,-16 -319.99997,0 z" id="rect3903"/><path inkscape:connector-curvature="0" style="fill:#000000;fill-opacity:1;stroke:none" d="m -225.15332,175.55886 80.62957,0 0,-16 -80.62957,0 z" id="rect3905" sodipodi:nodetypes="ccccc"/><path id="path3069" d="m -376.04473,225.54467 -7.84939,12.98666 43.02472,28.88641 c 0,0 0.20711,20.83577 6.28682,32.17679 6.08267,11.3385 16.21661,25.47718 27.88841,25.47718 5.05458,0 10.36824,-2.79736 10.36824,-2.79736 l 62.08856,-31.14643 1.43875,-64.96576 -15.77842,0.82127 -6.08267,53.42066 -15.98495,2.38395 9.28784,-21.24643 c 0,0 3.49193,-6.69709 3.49193,-18.77979 0,-14.62634 -3.90254,-22.06485 -3.90254,-22.06485 l 36.61415,-117.56236 -18.77982,-15.575753 -42.28343,100.346333 -21.45039,-22.88638 -21.03986,-70.14761 -22.80625,6.4939 21.36746,78.69099 24.32805,49.72188 -15.16406,32.99837 -10.10907,-18.24501 -44.95408,-18.98667 z" style="fill:#000000;fill-rule:nonzero;stroke:none" inkscape:connector-curvature="0"/><path id="path3071" d="m -346.45845,346.92997 c 0,11.39352 9.23539,20.6289 20.62636,20.6289 11.39353,0 20.62892,-9.23538 20.62892,-20.6289 0,-11.39099 -9.23539,-20.62635 -20.62892,-20.62635 -11.39097,0 -20.62636,9.23536 -20.62636,20.62635 z" style="fill:#000000;fill-rule:nonzero;stroke:none" inkscape:connector-curvature="0"/><path id="path3035" d="m -464.52372,175.55886 113.0104,0 0,-16 -113.0104,0 z" style="fill:#000000;fill-opacity:1;stroke:none" inkscape:connector-curvature="0" sodipodi:nodetypes="ccccc"/></g></svg>