<?xml version="1.0" encoding="UTF-8" standalone="no"?><!DOCTYPE svg PUBLIC "-//W3C//DTD SVG 1.1//EN" "http://www.w3.org/Graphics/SVG/1.1/DTD/svg11.dtd"><svg width="100%" height="100%" viewBox="0 0 2084 2084" version="1.1" xmlns="http://www.w3.org/2000/svg" xmlns:xlink="http://www.w3.org/1999/xlink" xml:space="preserve" xmlns:serif="http://www.serif.com/" style="fill-rule:evenodd;clip-rule:evenodd;stroke-linejoin:round;stroke-miterlimit:2;"><path id="rect3806" d="M2077.16,70.825c0,-35.561 -28.87,-64.431 -64.431,-64.431l-1941.9,-0c-35.561,-0 -64.431,28.87 -64.431,64.431l-0,1942.2c-0,35.561 28.87,64.432 64.431,64.432l1941.9,-0c35.561,-0 64.431,-28.871 64.431,-64.432l0,-1942.2Z" style="fill:#fff;"/><path id="rect4330" d="M77.786,22.285l1929,0c35.695,0 54.744,24.308 54.744,62.525l-0,1912.21c-0,38.217 -17.838,63.735 -53.533,63.735l-1931.83,0c-35.695,0 -53.936,-30.766 -53.936,-68.983l-0,-1911c-0,-38.216 19.856,-58.488 55.55,-58.488Z" style="fill:#039;fill-rule:nonzero;"/><path id="path3725-8" d="M2026.71,1768.13l-1973.78,-0.001l989.133,-1701.45l984.645,1701.46Z" style="fill:#fff;fill-rule:nonzero;"/><path id="path1933-2" d="M1042.14,326.105c-47.791,-0 -86.551,38.853 -86.551,86.644c0,47.792 38.759,86.552 86.551,86.552c47.792,-0 86.551,-38.76 86.551,-86.552c0,-47.791 -38.759,-86.644 -86.551,-86.644Zm0.47,185.167l-132.885,294.182l-189.264,191.407l44.07,84.982l243.74,-241.226l33.027,222.537l-162.236,228.481l-107.8,322.722l-114.466,22.451l0.155,33.714l209.467,37.874l112.651,-348.841l137.934,-164.109l256.622,428.63l-72.895,58.111l0.041,32.94l69.603,0l131,-75.325l-260.884,-537.652l9.517,-30.758l-32.348,-208.676l-1.31,-114.443l85.632,102.933l0,299.42l84.68,-48.746l-0,-300.914l-179.186,-233.712l-164.864,-55.982l-0.001,-0Z"/><path id="path3712-5" d="M305.874,1413.13l-43.884,75.604l518.519,-0l24.99,-75.604l-499.625,-0Zm691.536,-0l-24.196,75.604l277.926,-0l-44.823,-75.604l-208.907,-0Zm436.471,-0l38.31,75.604l352.242,-0l-41.919,-75.604l-348.633,-0Z"/></svg>