<?xml version="1.0" encoding="UTF-8" standalone="no"?><!DOCTYPE svg PUBLIC "-//W3C//DTD SVG 1.1//EN" "http://www.w3.org/Graphics/SVG/1.1/DTD/svg11.dtd"><svg width="100%" height="100%" viewBox="0 0 2511 2511" version="1.1" xmlns="http://www.w3.org/2000/svg" xmlns:xlink="http://www.w3.org/1999/xlink" xml:space="preserve" xmlns:serif="http://www.serif.com/" style="fill-rule:evenodd;clip-rule:evenodd;stroke-miterlimit:10;"><path id="path42" d="M241.903,2505.42l2027.03,-0c130.609,-0 236.487,-105.878 236.487,-236.487l-0,-2027.03c-0,-130.609 -105.878,-236.486 -236.487,-236.486l-2027.03,-0c-130.609,-0 -236.486,105.877 -236.486,236.486l-0,2027.03c-0,130.609 105.877,236.487 236.486,236.487Z" style="fill:#fff;fill-rule:nonzero;stroke:#000;stroke-width:8.33px;"/><path id="path36" d="M2268.95,73c93.29,-0 168.879,75.59 168.879,168.879l0,2027.08c0,93.29 -75.589,168.879 -168.879,168.879l-2027.07,0c-93.29,0 -168.88,-75.589 -168.88,-168.879l-0,-2027.08c-0,-93.289 75.59,-168.879 168.88,-168.879l2027.07,-0Z" style="fill:#00f;"/><path id="path3014" d="M1255.42,418.977l-965.834,1672.88l1931.67,0l-965.833,-1672.88Z" style="fill:#fff;"/><path d="M1459.73,1956.63l-2.547,-16.108c34.734,0.506 63.299,-27.241 63.801,-61.975c0.153,-10.49 -2.321,-20.849 -7.196,-30.138l-97.236,-186.089l145.249,-0l90.451,294.31l-192.522,0Zm-405.332,-20.763l-3.287,20.763l-192.522,0l90.451,-294.31l102.265,-0l-32.489,206.905c-4.346,27.665 10.174,54.858 35.582,66.642Zm-317.457,20.763l-178.571,0l158.878,-294.31l137.872,-0l-118.179,294.31Zm1036.96,0l178.571,0l-158.878,-294.31l-137.872,-0l118.179,294.31Zm-452.489,-205.54l12.495,205.537l-156.967,-0l17.89,-294.311l89.893,0l7.385,32.406l29.304,56.368Z"/><path d="M1162.84,1652.66l95.835,-180.166l49.314,216.394l109.196,210.01c11.75,22.597 39.59,31.387 62.187,19.641c22.597,-11.746 31.387,-39.59 19.641,-62.187c-0.038,-0.056 -0.056,-0.112 -0.087,-0.165l-104.175,-199.375l-44.707,-194.374l-0,-93.548l-183.538,-0l-0,81.192l-92.054,173.059l-39.047,248.678c-3.938,25.07 13.197,48.585 38.266,52.523c25.07,3.938 48.585,-13.196 52.523,-38.266l36.645,-233.417l0.001,0.001Zm187.197,-306.712l0,-190.934l90.875,82.616l0,107.575c0,19.005 15.406,34.414 34.414,34.414c19.005,-0 34.414,-15.409 34.414,-34.414l0,-131.986c0,-8.701 -3.38,-17.064 -9.426,-23.322l-130.034,-134.597c-52.824,-54.676 -139.965,-56.178 -194.641,-3.357c-5.195,5.019 -9.988,10.437 -14.331,16.208l-210.467,279.575c-12.673,15.205 -10.617,37.801 4.588,50.474c15.205,12.672 37.802,10.616 50.474,-4.589l160.596,-206.481l-0,158.815l183.538,-0l0,0.003Zm-32.12,-438.708c0,-50.683 -41.085,-91.767 -91.767,-91.767c-50.682,-0 -91.767,41.084 -91.767,91.767c-0,50.682 41.085,91.767 91.767,91.767c50.682,0 91.767,-41.085 91.767,-91.767Z"/></svg>