<?xml version="1.0" encoding="UTF-8" standalone="no"?>
<svg viewBox="0 0 2098.38 1870.52" version="1.1" id="svg46" sodipodi:docname="Portugal_road_sign_A16a.svg" inkscape:version="1.1.2 (b8e25be833, 2022-02-05)" xmlns:inkscape="http://www.inkscape.org/namespaces/inkscape" xmlns:sodipodi="http://sodipodi.sourceforge.net/DTD/sodipodi-0.dtd" xmlns="http://www.w3.org/2000/svg" xmlns:svg="http://www.w3.org/2000/svg" xmlns:rdf="http://www.w3.org/1999/02/22-rdf-syntax-ns#" xmlns:cc="http://creativecommons.org/ns#" xmlns:dc="http://purl.org/dc/elements/1.1/">
  <sodipodi:namedview id="namedview48" pagecolor="#ffffff" bordercolor="#666666" borderopacity="1.0" inkscape:pageshadow="2" inkscape:pageopacity="0.0" inkscape:pagecheckerboard="0" showgrid="false" inkscape:zoom="0.86393088" inkscape:cx="800.41126" inkscape:cy="1204.3788" inkscape:window-width="1920" inkscape:window-height="1001" inkscape:window-x="-9" inkscape:window-y="-9" inkscape:window-maximized="1" inkscape:current-layer="svg46"/>
  <defs id="defs4">
    <style id="style2">.cls-1{fill:#fff;}.cls-1,.cls-2,.cls-3,.cls-4{stroke:#000;stroke-linecap:round;stroke-linejoin:round;stroke-width:0.71px;}.cls-2{fill:red;}.cls-3{fill:none;}</style>
  </defs>
  <title id="title6">Portugal road sign A16aRecurso 3</title>
  <g id="Capa_2" data-name="Capa 2">
    <g id="Capa_1-2" data-name="Capa 1">
      <g id="LWPOLYLINE">
        <path class="cls-1" d="M 27,1572.53 877.37,99.6 A 198.47,198.47 0 0 1 950,27 c 94.91,-54.79 216.26,-22.28 271.06,72.63 l 850.39,1472.93 a 198.37,198.37 0 0 1 26.59,99.21 c 0,109.58 -88.84,198.42 -198.43,198.42 H 198.81 A 198.46,198.46 0 0 1 99.6,1843.61 C 4.69,1788.79 -27.82,1667.43 27,1572.53 Z" id="path8"/>
      </g>
      <g id="LWPOLYLINE-2" data-name="LWPOLYLINE">
        <path class="cls-2" d="M 926.46,128 76.07,1600.87 a 141.74,141.74 0 0 0 122.74,212.6 H 1899.6 a 141.73,141.73 0 0 0 122.74,-212.6 L 1172,128 a 141.73,141.73 0 0 0 -245.49,0 z" id="path11" style="stroke:none"/>
      </g>
      <g id="LWPOLYLINE-3" data-name="LWPOLYLINE">
        <polygon class="cls-1" points="1858.85,1648.21 239.56,1648.21 1049.21,245.87 " id="polygon14" style="stroke:none"/>
      </g>
      <g id="CIRCLE">
        <path class="cls-3" d="m 947,648.55 a 77.51,77.51 0 1 1 77.5,77.51 77.5,77.5 0 0 1 -77.5,-77.51 z" id="path17"/>
      </g>
      <g id="CIRCLE-2" data-name="CIRCLE">
        <path class="cls-4" d="m 947,648.55 a 77.51,77.51 0 1 1 77.5,77.51 77.5,77.5 0 0 1 -77.5,-77.51 z" id="path20"/>
      </g>
      <g id="LWPOLYLINE-4" data-name="LWPOLYLINE">
        <path class="cls-4" d="m 971,1278.11 81,-152.11 41.65,182.76 92.22,177.36 a 38.95,38.95 0 0 0 69.11,-35.93 l -0.07,-0.14 -88,-168.38 -37.75,-164.16 v -79 h -155 V 1107 l -77.75,146.16 -33,210 a 38.81,38.81 0 0 0 76.68,12 z" id="path23"/>
      </g>
      <g id="LWPOLYLINE-5" data-name="LWPOLYLINE">
        <path class="cls-4" d="M 1129.12,1019.07 V 857.82 l 76.75,69.77 v 90.85 a 29.06,29.06 0 1 0 58.12,0 V 907 a 28.3,28.3 0 0 0 -8,-19.69 L 1146.21,773.6 A 116.29,116.29 0 0 0 969.72,784.46 L 792,1020.58 a 30.264717,30.264717 0 0 0 46.5,38.75 c 0.44,-0.52 0.86,-1.06 1.26,-1.61 L 974.11,884.94 v 134.13 z" id="path26"/>
      </g>
      <g id="LWPOLYLINE-6" data-name="LWPOLYLINE">
        <polygon class="cls-4" points="1080.19,1313.63 1104.94,1361.23 1115.49,1534.82 982.92,1534.82 998.03,1286.26 1073.95,1286.26 " id="polygon29"/>
      </g>
      <g id="LWPOLYLINE-7" data-name="LWPOLYLINE">
        <polygon class="cls-4" points="460.5,1534.82 594.68,1286.26 711.13,1286.26 611.32,1534.82 " id="polygon32"/>
      </g>
      <g id="LWPOLYLINE-8" data-name="LWPOLYLINE">
        <path class="cls-4" d="m 879.43,1517.29 -2.78,17.53 H 714.06 l 76.39,-248.56 h 86.37 L 849.38,1461 a 53,53 0 0 0 30.05,56.29 z" id="path35"/>
      </g>
      <g id="LWPOLYLINE-9" data-name="LWPOLYLINE">
        <polygon class="cls-4" points="1637.91,1534.82 1503.73,1286.26 1387.29,1286.26 1487.1,1534.82 " id="polygon38"/>
      </g>
      <g id="LWPOLYLINE-10" data-name="LWPOLYLINE">
        <path class="cls-4" d="m 1221.76,1534.82 -2.15,-13.6 a 53.12,53.12 0 0 0 47.8,-77.8 l -82.12,-157.16 H 1308 l 76.4,248.56 z" id="path41"/>
      </g>
    </g>
  </g>
  <metadata id="metadata905">
    <rdf:RDF>
      <cc:Work rdf:about="">
        <dc:title>Portugal road sign A16aRecurso 3</dc:title>
      </cc:Work>
    </rdf:RDF>
  </metadata>
</svg>