<?xml version="1.0" encoding="UTF-8" standalone="no"?>
<!DOCTYPE svg PUBLIC "-//W3C//DTD SVG 1.1//EN" "http://www.w3.org/Graphics/SVG/1.1/DTD/svg11.dtd">
<svg width="100%" height="100%" viewBox="0 0 3473 3473" version="1.1" xmlns="http://www.w3.org/2000/svg" xmlns:xlink="http://www.w3.org/1999/xlink" xml:space="preserve" xmlns:serif="http://www.serif.com/" style="fill-rule:evenodd;clip-rule:evenodd;stroke-linejoin:round;stroke-miterlimit:2;">
    <g id="Layer-1" serif:id="Layer 1" transform="matrix(-1,0,0,1,3473,2631.11)">
        <g id="rect12525" transform="matrix(0.707107,-0.707107,0.707107,0.707107,0,0)">
            <path d="M3136.06,-510.205C3136.06,-604.074 3059.85,-680.284 2965.98,-680.284L754.961,-680.284C661.092,-680.284 584.882,-604.074 584.882,-510.205L584.882,1700.82C584.882,1794.69 661.092,1870.9 754.961,1870.9L2965.98,1870.9C3059.85,1870.9 3136.06,1794.69 3136.06,1700.82L3136.06,-510.205Z" style="fill:rgb(250,230,0);"/>
        </g>
        <g id="rect12527" transform="matrix(0.707107,-0.707107,0.707107,0.707107,0,0)">
            <path d="M3079.37,-510.205C3079.37,-572.785 3028.56,-623.591 2965.98,-623.591L754.961,-623.591C692.381,-623.591 641.575,-572.785 641.575,-510.205L641.575,1700.82C641.575,1763.4 692.381,1814.2 754.961,1814.2L2965.98,1814.2C3028.56,1814.2 3079.37,1763.4 3079.37,1700.82L3079.37,-510.205Z"/>
        </g>
        <g id="rect12529" transform="matrix(0.707107,-0.707107,0.707107,0.707107,0,0)">
            <path d="M3008.5,-510.205C3008.5,-533.673 2989.45,-552.725 2965.98,-552.725L754.961,-552.725C731.493,-552.725 712.441,-533.673 712.441,-510.205L712.441,1700.82C712.441,1724.29 731.493,1743.34 754.961,1743.34L2965.98,1743.34C2989.45,1743.34 3008.5,1724.29 3008.5,1700.82L3008.5,-510.205Z" style="fill:rgb(250,230,0);"/>
        </g>
        <path id="rect12585" d="M948.467,-161.574L2524.53,-161.574L2459.33,-96.377L1013.66,-96.377L948.467,-161.574Z" style="fill-rule:nonzero;"/>
        <circle id="path12870" cx="1903.74" cy="-1950.24" r="153.071"/>
        <path id="rect12892" d="M1468.91,-1143.78C1377.83,-1260.61 1467.34,-1368.82 1525.03,-1475.15L1537.51,-1512L1522.2,-1518.24L1409.38,-1502.93L1394.07,-1221.16L1272.18,-1180.91L1275.02,-1577.2L1318.67,-1602.14L1618.77,-1731.9C1702.64,-1764.95 1737.42,-1771.94 1804.53,-1772.22C1865.7,-1771.78 1990.18,-1665.7 2005.79,-1490.46L2015.43,-1459.84L2277.91,-1295.43L2246.73,-1193.38L1912.25,-1298.83L1871.99,-1407.12L1843.65,-1348.16C1814.74,-1298.99 1750.13,-1209.51 1793.76,-1150.02L1965.54,-924.094L2093.66,-357.732L1921.88,-323.716L1771.93,-834.519L1640.69,-924.094L1337.38,-317.48L1206.42,-450.708L1468.91,-1143.78Z" style="fill-rule:nonzero;"/>
        <path id="path13146" d="M432.561,-677.48L1232.78,-677.48L1208.09,-612.283L497.758,-612.283L432.561,-677.48Z" style="fill-rule:nonzero;"/>
        <path id="path13148" d="M3040.43,-677.48L2080.85,-677.48L2095.6,-612.283L2975.24,-612.283L3040.43,-677.48Z" style="fill-rule:nonzero;"/>
        <path id="path13150" d="M1758.5,-677.48L1582.58,-677.48L1549.98,-612.283L1777.64,-612.283L1758.5,-677.48Z" style="fill-rule:nonzero;"/>
    </g>
</svg>
