<?xml version="1.0" encoding="UTF-8" standalone="no"?>
<!DOCTYPE svg PUBLIC "-//W3C//DTD SVG 1.1//EN" "http://www.w3.org/Graphics/SVG/1.1/DTD/svg11.dtd">
<!-- GeoHints -->
<svg width="100%" height="100%" viewBox="0 0 503 438" version="1.1" xmlns="http://www.w3.org/2000/svg" xmlns:xlink="http://www.w3.org/1999/xlink" xml:space="preserve" xmlns:serif="http://www.serif.com/" style="fill-rule:evenodd;clip-rule:evenodd;stroke-linejoin:round;stroke-miterlimit:2;">
    <path d="M500.648,421.775L260.036,5.049C259.853,5.049 259.853,4.843 259.853,4.843C259.433,4.045 258.829,3.444 258.218,2.817C257.407,2.233 256.796,1.606 255.985,1.211C255.193,0.807 254.375,0.395 253.351,0.18C252.539,0 251.744,0 250.721,0C249.903,0 248.904,0 248.084,0.395C247.276,0.601 246.458,0.996 245.663,1.417C244.855,1.821 244.036,2.422 243.432,3.237C243.033,3.65 242.613,4.242 242.217,4.843L242.009,5.049L1.425,421.775C1.425,421.981 1.425,421.981 1.219,422.196C0.816,422.994 0.61,423.802 0.395,424.618C-0,425.433 -0,426.438 -0,427.245C-0,428.267 0.206,429.083 0.395,429.882C0.816,430.904 1.03,431.719 1.632,432.509C2.027,433.119 2.636,433.935 3.237,434.545C3.847,435.163 4.663,435.773 5.47,436.168C6.286,436.588 7.102,436.984 7.9,437.198C8.708,437.198 9.317,437.378 10.133,437.378L491.913,437.378C492.728,437.378 493.755,437.198 494.566,436.983C495.358,436.777 496.381,436.382 496.988,435.773C497.803,435.352 498.615,434.751 499.226,434.141C499.829,433.54 500.225,432.724 500.648,431.934C501.251,431.118 501.44,430.294 501.647,429.487C501.852,428.662 502.044,427.666 502.044,426.85C502.044,425.828 501.852,425.012 501.647,424.016C501.44,423.407 501.044,422.797 500.648,422.196L500.648,421.775" style="fill:white;"/>
    <path d="M500.648,421.775L260.036,5.049C259.853,5.049 259.853,4.843 259.853,4.843C259.433,4.045 258.829,3.444 258.218,2.817C257.407,2.233 256.796,1.606 255.985,1.211C255.193,0.807 254.375,0.395 253.351,0.18C252.539,0 251.744,0 250.721,0C249.903,0 248.904,0 248.084,0.395C247.276,0.601 246.458,0.996 245.663,1.417C244.855,1.821 244.036,2.422 243.432,3.237C243.033,3.65 242.613,4.242 242.217,4.843L242.009,5.049L1.425,421.775C1.425,421.981 1.425,421.981 1.219,422.196C0.816,422.994 0.61,423.802 0.395,424.618C-0,425.433 -0,426.438 -0,427.245C-0,428.267 0.206,429.083 0.395,429.882C0.816,430.904 1.03,431.719 1.632,432.509C2.027,433.119 2.636,433.935 3.237,434.545C3.847,435.163 4.663,435.773 5.47,436.168C6.286,436.588 7.102,436.984 7.9,437.198C8.708,437.198 9.317,437.378 10.133,437.378L491.913,437.378C492.728,437.378 493.755,437.198 494.566,436.983C495.358,436.777 496.381,436.382 496.988,435.773C497.803,435.352 498.615,434.751 499.226,434.141C499.829,433.54 500.225,432.724 500.648,431.934C501.251,431.118 501.44,430.294 501.647,429.487C501.852,428.662 502.044,427.666 502.044,426.85C502.044,425.828 501.852,425.012 501.647,424.016C501.44,423.407 501.044,422.797 500.648,422.196L500.648,421.775ZM434.96,394.218L250.929,75.793L67.086,394.218L434.96,394.218" style="fill:rgb(237,28,36);"/>
    <g>
        <path d="M239.411,310.356L263.752,310.2L267.57,379.416L235.589,379.416L238.934,310.824L239.411,310.356ZM335.836,379.416L299.389,379.416L297.488,360.64C300.339,358.884 303.375,357.143 306.082,354.755C308.15,353.155 310.051,351.407 311.019,349.19C312.445,346.006 311.803,342.018 311.167,338.038L302.733,310.356L312.608,310.356L335.836,379.416ZM204.407,357.783L202.966,379.416L166.852,379.416L187.528,310.199L201.377,310.199L190.876,334.229C190.075,336.297 189.449,338.529 189.287,340.903C188.813,344.094 189.449,347.598 191.19,350.454C192.306,352.367 194.224,354.108 196.288,355.082C197.403,355.551 198.52,356.027 199.618,356.339C201.214,356.815 202.817,357.292 204.407,357.783ZM404.094,379.416L369.57,379.416L341.247,310.199L364.322,310.199L404.094,379.416ZM133.276,379.416L97.949,379.416L135.179,310.199L161.107,310.199L133.276,379.416Z"/>
        <path d="M284.597,343.923L254.99,266.284C248.794,278.224 242.593,290.143 236.705,302.083C229.062,317.044 221.91,332.168 214.593,347.27C213.628,348.714 212.512,349.978 211.251,351.095C210.298,351.898 209.167,352.679 208.066,352.991C206.002,353.802 203.608,353.802 201.377,353.155C199.475,352.679 197.555,351.898 196.128,350.454C194.701,349.19 193.733,347.598 193.259,345.85C192.469,343.298 192.617,340.597 192.78,337.89L238.457,244.963L236.536,235.886L235.589,233.186L211.251,257.052C210.772,257.521 210.135,257.855 209.493,258.324C208.377,258.964 207.118,259.44 205.834,259.588C204.556,259.753 203.129,259.588 201.849,259.112C200.423,258.636 199.145,257.855 198.191,256.739C197.244,255.787 196.602,254.82 196.288,253.555C195.817,252.603 195.654,251.487 195.654,250.371C195.486,249.404 195.654,248.452 195.965,247.663C196.439,246.391 197.081,245.275 197.88,244.159L241.637,193.414L254.205,185.454C254.516,185.291 254.842,185.126 255.321,184.963C256.579,184.338 258.026,184.011 259.616,184.011C260.88,184.011 262.322,184.338 263.437,185.126C263.586,185.291 263.752,185.454 263.911,185.454L286.187,207.4L306.082,227.293L308.935,231.921L309.266,250.684C309.266,251.799 309.098,252.915 308.935,253.86C308.476,255.289 307.671,256.739 306.555,257.684C306.244,258.168 305.756,258.473 305.444,258.8C304.965,258.964 304.655,259.276 304.16,259.44C302.902,260.079 301.455,260.392 300.194,260.229C298.601,260.229 297.177,259.916 295.895,259.112C294.614,258.324 293.666,257.372 292.861,256.092C292.072,255.14 291.597,253.86 291.597,252.603C291.435,252.275 291.435,251.963 291.435,251.628L291.287,239.859L281.412,230.478L279.348,229.213L277.116,229.213L273.769,238.431L276.311,251.799L307.361,337.249C307.671,337.89 307.819,338.529 307.981,339.154C308.624,341.713 308.15,344.414 307.034,346.794C306.244,348.387 305.134,349.666 303.85,350.782C302.097,352.21 299.865,352.991 297.651,353.326C295.419,353.482 292.861,352.991 290.813,351.898C289.203,351.095 287.939,349.978 286.829,348.55C286.187,347.747 285.713,346.631 285.233,345.679C285.071,345.202 284.76,344.563 284.597,343.923ZM259.928,166.677C259.928,168.269 259.616,170.01 259.143,171.445C258.663,173.038 257.861,174.629 256.911,175.894C255.957,177.166 254.679,178.453 253.4,179.398C251.973,180.358 250.546,181.161 248.954,181.63C247.367,182.106 245.772,182.418 244.179,182.418C242.427,182.418 240.838,182.106 239.245,181.63C237.652,181.161 236.225,180.358 234.798,179.398C233.52,178.453 232.404,177.166 231.288,175.894C230.34,174.629 229.698,173.038 229.062,171.445C228.583,170.01 228.271,168.269 228.437,166.677C228.271,164.921 228.583,163.329 229.062,161.737C229.698,160.152 230.34,158.724 231.288,157.444C232.404,156.016 233.52,154.9 234.798,153.948C236.225,152.98 237.652,152.192 239.245,151.716C240.838,151.076 242.427,150.912 244.179,150.912C245.772,150.912 247.367,151.076 248.954,151.716C250.546,152.192 251.973,152.98 253.4,153.948C254.679,154.9 255.957,156.016 256.911,157.444C257.861,158.724 258.663,160.152 259.143,161.737C259.616,163.329 259.928,164.921 259.928,166.677Z"/>
    </g>
</svg>
