<?xml version="1.0" encoding="UTF-8" standalone="no"?><!DOCTYPE svg PUBLIC "-//W3C//DTD SVG 1.1//EN" "http://www.w3.org/Graphics/SVG/1.1/DTD/svg11.dtd"><svg width="100%" height="100%" viewBox="0 0 721 721" version="1.1" xmlns="http://www.w3.org/2000/svg" xmlns:xlink="http://www.w3.org/1999/xlink" xml:space="preserve" xmlns:serif="http://www.serif.com/" style="fill-rule:evenodd;clip-rule:evenodd;stroke-linejoin:round;stroke-miterlimit:2;"><path id="path94576" d="M38.78,720.18l-0.306,0c-3.335,-0.016 -6.699,-0.463 -9.923,-1.377c-3.252,-0.832 -6.361,-2.15 -9.246,-3.872c-2.91,-1.663 -5.59,-3.718 -7.943,-6.105c-2.39,-2.351 -4.454,-5.035 -6.114,-7.945c-1.699,-2.886 -2.998,-5.998 -3.87,-9.24c-0.914,-3.243 -1.396,-6.592 -1.377,-9.929l-0,-643.242c0.027,-3.338 0.458,-6.699 1.377,-9.918c0.84,-3.254 2.157,-6.365 3.87,-9.252c1.67,-2.909 3.724,-5.593 6.114,-7.945c2.353,-2.387 5.033,-4.454 7.943,-6.105c2.885,-1.698 6.002,-3.004 9.246,-3.871c3.229,-0.915 6.588,-1.402 9.923,-1.378l643.239,-0c3.337,0.017 6.698,0.451 9.929,1.378c3.242,0.831 6.354,2.149 9.24,3.871c2.91,1.663 5.594,3.73 7.945,6.105c2.387,2.352 4.454,5.036 6.105,7.945c1.698,2.887 3.005,6.01 3.872,9.252c0.914,3.231 1.401,6.58 1.377,9.918l0,643.242c-0.02,3.337 -0.463,6.698 -1.377,9.929c-0.832,3.242 -2.15,6.354 -3.872,9.24c-1.663,2.91 -3.729,5.594 -6.105,7.945c-2.351,2.387 -5.035,4.442 -7.945,6.105c-2.886,1.71 -6.01,3.005 -9.24,3.872c-3.243,0.914 -6.592,1.401 -9.929,1.377l-642.933,0" style="fill:#2847a3;"/><path id="path96242" d="M83.058,600.024l276.89,-479.843l277.158,479.843l-554.048,-0" style="fill:#fff;"/><path d="M341.414,479.119l38.859,-0.249l6.096,110.5l-51.056,0l5.34,-109.503l0.761,-0.748Zm153.938,110.251l-58.186,0l-3.035,-29.976c4.551,-2.803 9.399,-5.582 13.719,-9.395c3.303,-2.553 6.337,-5.344 7.882,-8.884c2.277,-5.083 1.252,-11.449 0.237,-17.803l-13.464,-44.193l15.764,-0l37.083,110.251Zm-209.819,-34.537l-2.301,34.537l-57.654,0l33.009,-110.501l22.108,0l-16.763,38.362c-1.28,3.302 -2.278,6.865 -2.537,10.654c-0.757,5.095 0.259,10.689 3.038,15.249c1.782,3.053 4.843,5.832 8.138,7.388c1.781,0.748 3.563,1.508 5.316,2.007c2.548,0.76 5.108,1.52 7.646,2.304Zm318.788,34.537l-55.115,0l-45.216,-110.501l36.837,0l63.494,110.501Zm-432.345,0l-56.396,0l59.435,-110.501l41.392,0l-44.431,110.501Z" style="fill:#231f20;"/><path d="M413.551,532.707l-47.266,-123.946c-9.891,19.062 -19.791,38.089 -29.19,57.151c-12.202,23.884 -23.619,48.029 -35.301,72.139c-1.541,2.304 -3.322,4.323 -5.335,6.105c-1.522,1.282 -3.327,2.529 -5.085,3.028c-3.294,1.295 -7.116,1.295 -10.679,0.262c-3.035,-0.76 -6.101,-2.007 -8.379,-4.312c-2.278,-2.019 -3.823,-4.56 -4.58,-7.351c-1.261,-4.074 -1.025,-8.385 -0.765,-12.708l72.921,-148.352l-3.067,-14.49l-1.512,-4.311l-38.854,38.1c-0.765,0.749 -1.782,1.283 -2.807,2.031c-1.781,1.022 -3.791,1.782 -5.841,2.019c-2.041,0.262 -4.319,0 -6.361,-0.76c-2.278,-0.76 -4.318,-2.007 -5.841,-3.789c-1.512,-1.52 -2.537,-3.064 -3.038,-5.083c-0.752,-1.52 -1.012,-3.301 -1.012,-5.083c-0.268,-1.544 0,-3.064 0.497,-4.323c0.756,-2.031 1.781,-3.813 3.057,-5.594l69.855,-81.011l20.064,-12.708c0.497,-0.261 1.017,-0.523 1.782,-0.784c2.009,-0.998 4.319,-1.52 6.857,-1.52c2.018,-0 4.319,0.522 6.1,1.781c0.238,0.262 0.502,0.523 0.757,0.523l35.561,35.036l31.761,31.758l4.556,7.388l0.528,29.953c0,1.781 -0.269,3.563 -0.528,5.071c-0.733,2.281 -2.018,4.596 -3.8,6.105c-0.496,0.772 -1.276,1.259 -1.773,1.781c-0.765,0.262 -1.261,0.76 -2.05,1.022c-2.009,1.021 -4.319,1.52 -6.332,1.259c-2.543,-0 -4.816,-0.499 -6.863,-1.782c-2.045,-1.259 -3.558,-2.779 -4.843,-4.822c-1.261,-1.52 -2.018,-3.563 -2.018,-5.57c-0.26,-0.523 -0.26,-1.021 -0.26,-1.556l-0.236,-18.789l-15.764,-14.976l-3.295,-2.019l-3.563,-0l-5.344,14.715l4.059,21.342l49.568,136.416c0.496,1.022 0.732,2.043 0.991,3.041c1.026,4.085 0.27,8.397 -1.512,12.197c-1.261,2.542 -3.034,4.584 -5.084,6.366c-2.798,2.28 -6.361,3.527 -9.896,4.062c-3.563,0.249 -7.646,-0.535 -10.917,-2.28c-2.57,-1.283 -4.588,-3.065 -6.36,-5.345c-1.025,-1.283 -1.781,-3.064 -2.547,-4.584c-0.259,-0.761 -0.756,-1.782 -1.016,-2.803l0,-0Zm-39.383,-282.963c-0,2.542 -0.497,5.321 -1.253,7.613c-0.765,2.542 -2.046,5.083 -3.563,7.102c-1.522,2.031 -3.563,4.086 -5.605,5.594c-2.278,1.532 -4.556,2.815 -7.097,3.563c-2.534,0.76 -5.081,1.259 -7.623,1.259c-2.798,0 -5.335,-0.499 -7.878,-1.259c-2.542,-0.748 -4.82,-2.031 -7.098,-3.563c-2.041,-1.508 -3.822,-3.563 -5.604,-5.594c-1.513,-2.019 -2.538,-4.56 -3.554,-7.102c-0.765,-2.292 -1.262,-5.071 -0.997,-7.613c-0.265,-2.803 0.232,-5.345 0.997,-7.886c1.016,-2.53 2.041,-4.81 3.554,-6.853c1.782,-2.28 3.563,-4.062 5.604,-5.582c2.278,-1.544 4.556,-2.803 7.098,-3.563c2.543,-1.021 5.08,-1.283 7.878,-1.283c2.542,0 5.089,0.262 7.623,1.283c2.541,0.76 4.819,2.019 7.097,3.563c2.042,1.52 4.083,3.302 5.605,5.582c1.517,2.043 2.798,4.323 3.563,6.853c0.756,2.541 1.253,5.083 1.253,7.886Z" style="fill:#231f20;"/></svg>