<?xml version="1.0" encoding="UTF-8" standalone="no"?>
<!DOCTYPE svg PUBLIC "-//W3C//DTD SVG 1.1//EN" "http://www.w3.org/Graphics/SVG/1.1/DTD/svg11.dtd">
<!-- GeoHints -->
<svg width="100%" height="100%" viewBox="0 0 426 428" version="1.1" xmlns="http://www.w3.org/2000/svg" xmlns:xlink="http://www.w3.org/1999/xlink" xml:space="preserve" xmlns:serif="http://www.serif.com/" style="fill-rule:evenodd;clip-rule:evenodd;stroke-linejoin:round;stroke-miterlimit:2;">
    <path d="M31.892,0.417L393.958,0.417C411.275,0.583 425.267,14.613 425.267,31.983L425.267,395.946C425.267,412.983 411.279,427.013 394.292,427.013L31.725,427.013C14.404,427.013 0.417,412.983 0.417,396.113L0.417,31.983C0.417,14.612 14.404,0.583 31.725,0.583L31.892,0.417Z" style="fill:rgb(0,113,179);fill-rule:nonzero;"/>
    <path d="M31.725,8.096L393.958,8.429C406.779,8.429 417.608,18.95 417.608,31.979L417.608,396.108C417.608,408.967 406.779,419.658 393.958,419.658L29.896,418.987C17.742,418.987 8.413,409.133 8.413,397.108L7.908,31.817C7.908,18.954 18.571,8.096 31.725,8.096ZM31.725,15.283L393.958,15.45C402.95,15.45 410.446,22.967 410.446,31.983L410.446,396.113C410.446,405.133 402.95,412.65 393.958,412.65L31.725,412.65C22.733,412.65 15.237,405.133 15.237,396.113L15.237,31.817C15.237,22.8 22.737,15.283 31.725,15.283Z" style="fill:white;"/>
    <g transform="matrix(1,0,0,1,6.152,0)">
        <path d="M41.554,353.688L206.767,66.562L372.142,353.688L41.554,353.688Z" style="fill:white;"/>
    </g>
    <g transform="matrix(1,0,0,1,6,0)">
        <g transform="matrix(1.18269,0,0.436009,1,-199.753,0)">
            <path d="M102.508,338.983L86.869,338.983L93.401,331.638L106.838,331.638L102.508,338.983Z" style="fill:rgb(18,12,14);"/>
            <path d="M130.654,338.983L114,338.983L118.325,331.638L134.983,331.638L130.654,338.983Z" style="fill:rgb(18,12,14);"/>
            <path d="M158.967,338.817L142.313,338.817L146.638,331.471L163.296,331.471L158.967,338.817Z" style="fill:rgb(18,12,14);"/>
            <path d="M187.113,338.817L170.458,338.817L174.787,331.471L191.442,331.471L187.113,338.817Z" style="fill:rgb(18,12,14);"/>
            <path d="M243.733,338.817L227.083,338.817L231.413,331.471L248.067,331.471L243.733,338.817Z" style="fill:rgb(18,12,14);"/>
            <path d="M215.429,338.817L198.771,338.817L203.1,331.471L219.754,331.471L215.429,338.817Z" style="fill:rgb(18,12,14);"/>
            <path d="M271.879,338.817L255.225,338.817L259.554,331.471L276.213,331.471L271.879,338.817Z" style="fill:rgb(18,12,14);"/>
            <path d="M300.192,338.65L283.538,338.65L287.867,331.304L304.521,331.304L300.192,338.65Z" style="fill:rgb(18,12,14);"/>
            <path d="M328.338,338.65L311.683,338.65L316.013,331.304L332.671,331.304L328.338,338.65Z" style="fill:rgb(18,12,14);"/>
            <path d="M340.163,338.483L344.325,331.304L349.769,331.415L350.525,338.594L340.163,338.483Z" style="fill:rgb(18,12,14);"/>
        </g>
        <g transform="matrix(1.13317,0,0.284485,1,-95.9086,0)">
            <g transform="matrix(1,0,0,1,-24.7095,0)">
                <path d="M308.688,277.179L292.033,277.179L296.363,269.837L313.021,269.837L308.688,277.179Z" style="fill:rgb(18,12,14);"/>
            </g>
            <g transform="matrix(1,0,0,1,-24.7095,0)">
                <path d="M324.013,270.337L326.179,270.285L328.338,277.012L320.513,277.012L324.013,270.337Z" style="fill:rgb(18,12,14);"/>
            </g>
            <g transform="matrix(1,0,0,1,-24.7095,0)">
                <path d="M280.379,277.012L263.717,277.012L268.054,269.667L284.708,269.667L280.379,277.012Z" style="fill:rgb(18,12,14);"/>
            </g>
            <g transform="matrix(1,0,0,1,-24.7095,0)">
                <path d="M222.588,276.846L207.263,276.846L211.429,269.667L226.615,269.667L222.588,276.846Z" style="fill:rgb(18,12,14);"/>
            </g>
            <path d="M166.958,276.846L150.304,276.846L154.638,269.5L171.292,269.5L166.958,276.846Z" style="fill:rgb(18,12,14);"/>
            <path d="M110.333,276.679L93.679,276.679L98.013,269.333L114.667,269.333L110.333,276.679Z" style="fill:rgb(18,12,14);"/>
            <path d="M138.646,276.679L121.992,276.679L126.325,269.333L142.979,269.333L138.646,276.679Z" style="fill:rgb(18,12,14);"/>
        </g>
    </g>
    <g transform="matrix(1,0,0,1,6,0)">
        <path d="M204.561,133.483C207.045,133.518 209.345,134.057 210.767,135.208C213.429,135.375 212.429,137.883 213.596,138.383L213.596,167.446L231.083,172.958L252.9,198.683L259.396,238.104L249.404,240.104L242.908,209.704L228.75,194.171L226.412,235.258L262.554,317.271L242.9,325.958L240.071,322.283L244.567,314.267L210.425,255.808L172.954,326.292L149.804,316.271L153.304,310.425L160.962,310.754L194.604,237.429L190.775,201.35L182.95,213.213L152.975,229.417L144.312,222.567L171.958,204.863L186.112,174.792L199.108,171.288L199.442,165.775C198.446,165.608 197.442,164.442 196.442,164.275C193.279,161.6 192.108,142.558 192.946,138.717C193.602,135.536 199.206,133.508 204.205,133.482L204.561,133.483Z" style="fill:rgb(18,12,14);fill-rule:nonzero;"/>
    </g>
</svg>
