<?xml version="1.0" encoding="UTF-8" standalone="no"?>
<!DOCTYPE svg PUBLIC "-//W3C//DTD SVG 1.1//EN" "http://www.w3.org/Graphics/SVG/1.1/DTD/svg11.dtd">
<!-- GeoHints -->
<svg width="100%" height="100%" viewBox="0 0 426 428" version="1.1" xmlns="http://www.w3.org/2000/svg" xmlns:xlink="http://www.w3.org/1999/xlink" xml:space="preserve" xmlns:serif="http://www.serif.com/" style="fill-rule:evenodd;clip-rule:evenodd;stroke-linejoin:round;stroke-miterlimit:2;">
    <path d="M31.892,0.417L393.958,0.417C411.275,0.583 425.267,14.613 425.267,31.983L425.267,395.946C425.267,412.983 411.279,427.013 394.292,427.013L31.725,427.013C14.404,427.013 0.417,412.983 0.417,396.113L0.417,31.983C0.417,14.612 14.404,0.583 31.725,0.583L31.892,0.417Z" style="fill:rgb(0,113,179);fill-rule:nonzero;"/>
    <path d="M31.892,0.417L393.958,0.417C411.275,0.583 425.267,14.613 425.267,31.983L425.267,395.946C425.267,412.983 411.279,427.013 394.292,427.013L31.725,427.013C14.404,427.013 0.417,412.983 0.417,396.113L0.417,31.983C0.417,17.629 9.967,5.558 23.058,1.798C25.037,6.139 30.429,9.544 31.647,10.27C31.355,9.083 30.256,4.725 28.964,0.705C29.874,0.623 30.795,0.583 31.725,0.583L31.725,10.316L31.892,10.417L31.892,0.417ZM32.115,10.417L393.903,10.417C405.719,10.552 415.267,20.125 415.267,31.983C415.267,31.983 415.267,395.946 415.267,395.946C415.267,407.491 405.803,417.013 394.292,417.013C394.292,417.013 31.725,417.013 31.725,417.013C19.972,417.013 10.417,407.56 10.417,396.113L10.417,31.983C10.417,20.152 19.928,10.583 31.725,10.583L32.115,10.417Z" style="fill:white;"/>
    <g transform="matrix(1.12438,0,0,1.24876,-19.5761,-52.2713)">
        <path d="M41.554,353.688L206.767,66.562L372.142,353.688L41.554,353.688Z" style="fill:white;"/>
    </g>
    <g transform="matrix(0.198012,0,0,0.193717,-22.1411,1.22482)">
        <path d="M396.664,1786.42L567.211,1786.42L759.763,1538.85L651.934,1538.85L396.664,1786.42Z" style="fill-rule:nonzero;"/>
        <path d="M931.127,1713.16L905.278,1786.42L741.278,1786.42L883.547,1538.85L931.96,1538.85L912.528,1639.9C912.283,1644.92 911.546,1650.28 911.546,1655.38C911.546,1679.08 918.387,1693.96 931.185,1713.16L931.127,1713.16Z" style="fill-rule:nonzero;"/>
        <path d="M1978.35,1786.42L1807.8,1786.42L1615.25,1538.85L1723.08,1538.85L1978.35,1786.42Z" style="fill-rule:nonzero;"/>
        <path d="M1469.73,1786.42L1633.73,1786.42L1491.46,1538.85L1398.49,1538.85L1469.73,1786.42Z" style="fill-rule:nonzero;"/>
        <path d="M1034.08,1139.32L1064.11,982.992L989.558,1004.76L973.075,1219.05C970.295,1221.51 961.881,1222.17 958.486,1222.17C951.794,1222.17 942.003,1220.7 935.754,1218.02C920.206,1210.98 906.852,1189.55 907.806,1172.45L907.806,958.167L1146.91,815.224C1158.72,807.498 1177.38,800.733 1191.43,800.733L1208.02,800.733C1237.53,800.733 1280.05,832.671 1288.82,860.791L1365.45,1040.97L1460.66,1103.11C1470.55,1106.92 1482.36,1124.63 1482.36,1135.22L1482.36,1145.55C1482.36,1148.75 1476.28,1164.37 1473.06,1166.22L1300.17,1123.78L1254.61,1066.93L1230.82,1139.32L1034.08,1139.32Z" style="fill-rule:nonzero;"/>
        <path d="M1137.62,1322.05L1009.26,1717.55C968.727,1719.52 934.705,1692.47 934.705,1650.29C934.705,1646.65 936.181,1641.53 936.672,1637.87L1024.66,1189.51L1207.89,1189.51L1342.5,1442.15L1398.39,1704.09C1395.19,1706.94 1372.36,1709.3 1367.32,1709.3C1333.56,1709.3 1301.62,1683.44 1290.77,1652.37L1230.71,1464.99L1137.62,1322.05Z" style="fill-rule:nonzero;"/>
        <circle cx="1229.32" cy="699.87" r="82.523"/>
        <path d="M1135.24,1538.85L1104.98,1786.42L1270.03,1786.42C1265.93,1730.57 1253.07,1589.83 1227.66,1538.85L1135.24,1538.85Z"/>
    </g>
</svg>
