<?xml version="1.0" encoding="UTF-8" standalone="no"?>
<!DOCTYPE svg PUBLIC "-//W3C//DTD SVG 1.1//EN" "http://www.w3.org/Graphics/SVG/1.1/DTD/svg11.dtd">
<svg width="100%" height="100%" viewBox="0 0 577 508" version="1.1" xmlns="http://www.w3.org/2000/svg" xmlns:xlink="http://www.w3.org/1999/xlink" xml:space="preserve" xmlns:serif="http://www.serif.com/" style="fill-rule:evenodd;clip-rule:evenodd;">
    <path id="path6" d="M5.445,460.201L261.45,16.788C266.982,7.208 277.204,1.306 288.266,1.306C299.329,1.306 309.55,7.208 315.081,16.788L571.086,460.201C576.617,469.781 576.617,481.585 571.086,491.165C565.556,500.745 555.333,506.647 544.271,506.647L32.26,506.647C21.198,506.647 10.976,500.745 5.445,491.165C-0.086,481.585 -0.086,469.781 5.445,460.201Z" style="fill:white;fill-rule:nonzero;"/>
    <path id="path8" d="M32.171,494.262L544.362,494.262C550.98,494.262 557.096,490.731 560.406,484.998C563.716,479.267 563.716,472.204 560.406,466.473L304.31,22.902C301,17.17 294.885,13.639 288.266,13.639C281.647,13.639 275.532,17.17 272.223,22.902L16.127,466.473C12.817,472.204 12.817,479.267 16.127,484.998C19.436,490.73 25.552,494.262 32.171,494.262Z" style="fill:rgb(249,26,14);fill-rule:nonzero;"/>
    <g id="polygon10" transform="matrix(1,0,0,1,0.0162489,0.72576)">
        <path d="M512.077,456.379L64.423,456.379L288.25,68.7L512.077,456.379Z" style="fill:white;fill-rule:nonzero;"/>
    </g>
    <g id="ellipse12" transform="matrix(1,0,0,1,0.0162489,0.72576)">
        <ellipse cx="278.75" cy="166.75" rx="20.5" ry="21.5"/>
    </g>
    <g id="polygon14" transform="matrix(1,0,0,1,0.0162489,0.72576)">
        <path d="M133.25,352.25L231.25,352.897L436.25,354.25L480.25,437.25L90.25,437.25L133.25,352.25Z" style="fill-rule:nonzero;"/>
    </g>
    <g id="polygon16" transform="matrix(1,0,0,1,0.0162489,0.72576)">
        <path d="M133.25,438.25L168.25,349.297L200.25,348.25L176.25,438.25L133.25,438.25Z" style="fill:white;fill-rule:nonzero;"/>
    </g>
    <g id="polygon18" transform="matrix(1,0,0,1,0.0162489,0.72576)">
        <path d="M338.999,350.73L302.48,353.247L309.068,437.009L351.978,437.268L338.999,350.73Z" style="fill:white;fill-rule:nonzero;"/>
    </g>
    <g id="polygon20" transform="matrix(1,0,0,1,0.0162489,0.72576)">
        <path d="M393.25,439.25L370.25,349.25L403.25,349.25L434.25,439.25L393.25,439.25Z" style="fill:white;fill-rule:nonzero;"/>
    </g>
    <g id="polygon22" transform="matrix(1,0,0,1,0.0162489,0.72576)">
        <path d="M231.25,349.897L266.25,350.136L261.25,437.25L221.25,437.25L231.25,349.897Z" style="fill:white;fill-rule:nonzero;"/>
    </g>
    <path id="path24" d="M269.266,237.976C263.554,243.053 219.982,283.502 213.797,273.195C211.908,270.048 208.836,261.262 213.044,258.458C217.953,255.186 222.747,251.74 227.579,248.357C233.293,244.357 239.007,240.357 244.721,236.358C248.438,233.756 250.233,227.565 253.081,223.939C261.08,213.758 270.91,205.577 278.766,195.476C283.106,189.896 287.402,189.05 294.118,186.532C300.385,184.182 303.259,188.717 308.266,192.976C317.048,200.446 324.45,208.857 331.934,217.588C338.643,225.415 348.645,232.363 351.395,242.448C354.092,252.34 357.319,262.72 358.266,272.975C358.777,278.504 358.787,282.468 353.378,284.271C346.5,286.564 347.224,283.919 343.797,279.35C338.151,271.822 342.455,260.537 338.266,251.975C335.662,246.651 332.078,244.881 326.89,242.287C322.852,240.268 319.31,234.323 316.266,230.975C315.681,244.721 315.096,258.466 314.511,272.212C314.059,282.831 320.247,289.824 321.525,300.049C322.805,310.285 327.221,317.363 332.909,325.637C342.503,339.591 352.096,353.544 361.688,367.497C367.023,375.257 374.937,382.58 368.266,391.975C364.628,397.098 361.487,395.975 355.485,395.975C350.023,395.975 346.994,392.454 343.901,388.017C329.825,367.82 314.545,347.532 303.491,325.424C299.083,316.608 294.675,307.791 290.266,298.975C282.199,309.623 274.132,320.272 266.065,330.919C263.179,334.729 259.713,338.145 256.518,341.694C255.528,342.794 256.652,345.106 256.016,346.538C254.717,349.461 253.418,352.385 252.119,355.308C246.574,367.786 241.13,380.249 235.024,392.46C233.286,395.937 224.875,395.127 221.267,394.975C214.321,394.682 211.267,394.782 211.267,387.012C211.267,383.624 211.362,375.267 213.15,372.713C216.245,368.291 219.109,364.329 221.286,359.432C226.407,347.911 230.374,334.499 237.972,324.369C244.534,315.62 251.32,307.05 257.174,297.807C261.495,290.985 265.816,284.161 270.137,277.338C272.874,273.017 271.981,270.542 271.542,265.275C270.782,256.177 270.024,247.077 269.266,237.976" style="fill-rule:nonzero;stroke:white;stroke-width:1.5px;"/>
</svg>
