<?xml version="1.0" encoding="UTF-8" standalone="no"?>
<!DOCTYPE svg PUBLIC "-//W3C//DTD SVG 1.1//EN" "http://www.w3.org/Graphics/SVG/1.1/DTD/svg11.dtd">
<svg width="100%" height="100%" viewBox="0 0 1245 1245" version="1.1" xmlns="http://www.w3.org/2000/svg" xmlns:xlink="http://www.w3.org/1999/xlink" xml:space="preserve" xmlns:serif="http://www.serif.com/" style="fill-rule:evenodd;clip-rule:evenodd;stroke-linejoin:round;stroke-miterlimit:2;">
    <g transform="matrix(1,0,0,1,0,-228.244)">
        <g id="rect10" transform="matrix(0.731602,0,0,0.731602,0,856.615)">
            <rect x="0" y="-858.898" width="1700.79" height="1700.79" style="fill:rgb(0,94,184);"/>
        </g>
        <g id="rect834" transform="matrix(0.731602,0,0,0.731602,0,856.615)">
            <path d="M1700.79,-703.915C1700.79,-789.452 1631.34,-858.898 1545.8,-858.898L154.983,-858.898C69.446,-858.898 0,-789.452 0,-703.915L0,686.907C0,772.444 69.446,841.89 154.983,841.89L1545.8,841.89C1631.34,841.89 1700.79,772.444 1700.79,686.907L1700.79,-703.915Z" style="fill:white;"/>
        </g>
        <g id="rect847" transform="matrix(0.731602,0,0,0.731602,0,856.615)">
            <path d="M1644.09,-724.713C1644.09,-767.482 1609.37,-802.205 1566.6,-802.205L134.184,-802.205C91.416,-802.205 56.693,-767.482 56.693,-724.713L56.693,707.705C56.693,750.474 91.416,785.197 134.184,785.197L1566.6,785.197C1609.37,785.197 1644.09,750.474 1644.09,707.705L1644.09,-724.713Z" style="fill:rgb(0,94,184);"/>
        </g>
    </g>
    <g transform="matrix(1,0,0,1,-2.85011,-0.85011)">
        <path d="M120.208,1028.83C288.083,738.58 456.25,448.455 623.917,158.08C626.917,161.122 629.75,164.33 632.375,167.747C798.083,455.789 963.917,743.789 1129.62,1031.87C1132.04,1035.62 1136.83,1043.08 1139.25,1046.83C1131.46,1040.54 1121.58,1044.25 1112.71,1043.58C777.542,1043.91 442.375,1043.37 107.248,1044C112.498,1039.79 117.123,1034.87 120.206,1028.83L120.208,1028.83Z" style="fill:rgb(254,254,254);"/>
    </g>
    <g id="_-000000ff" serif:id="#000000ff" transform="matrix(1,0,0,1,-2.85011,-0.85011)">
        <path d="M546.167,441.208C539.042,413.083 562.708,382.5 591.625,382.25C623.708,379.833 651.5,416.958 638.375,446.875C633.625,461.417 619.417,468.833 608.625,478.292C618.083,474.125 627.5,469.833 636.792,465.25C655.458,472 671.667,484.875 682.417,501.625C702.25,531.792 721.583,562.417 740.792,593C753.583,620 766.25,647.125 777.417,674.875C776.458,677.667 774.5,683.292 773.542,686.083C763,693.833 746.208,692.458 741.125,679C723.583,640.042 704.958,601.375 679.792,566.667C677.583,587.75 678.125,608.958 678.167,630.125C677.875,635.917 680.667,641.167 682.5,646.542C699.708,690.667 716.083,735.167 733.417,779.292C747.333,805.208 762.625,830.417 777.208,856C782.917,866.625 792.375,877.167 790.167,890.125C785.167,908.417 763.625,918.708 746.167,910.958C740.667,904.292 735.083,897.542 730.833,889.958C712.833,859.375 694.083,829.208 676.208,798.583C661.5,767.875 655.208,733.583 639.583,703.292C625.792,718.917 616.25,737.583 604.75,754.833C595.292,770.333 584.208,784.958 576.5,801.5C560.792,835.583 544.083,869.167 528.208,903.167C524.167,913 514.917,920.208 504.042,920.042C483.667,922.667 465.083,898.5 475.042,879.875C490.167,844.875 506.333,810.333 521.292,775.25C525.833,763.958 533.125,754.125 539.667,743.958C560.458,711.833 580.875,679.5 601.917,647.542C596.208,625.125 589.583,602.833 586.125,579.917C585.125,578.667 583.167,576.125 582.208,574.875C571.292,592.542 561.708,611.125 549.667,628.042C533.375,637.667 515.667,644.667 499,653.625C490.458,657.5 480.333,664.083 470.958,658.917C466.875,655.625 463.375,651.708 459.75,648C459.708,644.125 459.708,640.25 459.667,636.375C463.958,631.75 467.625,626.083 473.917,623.958C491.833,615.75 509.167,606.375 527.042,598C545,561.75 564.708,526.417 582.583,490.125C593.292,485.292 603.958,480.333 614.625,475.333C610.292,476 601.583,477.333 597.25,478C574,481.042 552.333,462.792 546.167,441.208Z" style="fill-rule:nonzero;"/>
        <path d="M274.083,815.042C300.708,816.167 327.458,813.792 354,816.458C327.75,879.542 302.75,943.208 275.292,1005.79C250.25,1005.21 225.167,1005.79 200.125,1005.46C191.292,1005.5 182.167,1004.96 173.75,1008.25C207.708,944.125 241.292,879.792 274.083,815.042ZM767.042,815.167C783.25,815.542 799.667,814.042 815.708,817.292C832.208,880.167 849.458,942.917 866.958,1005.54C844.625,1005.54 822.333,1005.58 800,1005.5C788.792,1005.5 777.375,1004.71 766.375,1007.42C761.083,980 758.208,952 750.417,925.125C772.833,931.875 795.875,915.625 802.75,894.625C804.417,889 803.583,882.958 800.917,877.792C790.292,856.542 776.292,837.083 767.042,815.167ZM427.792,814.958C448.125,816.083 468.583,813.833 488.833,816.708C479.125,840.542 466.75,863.333 458.792,887.833C454.333,908.917 474.208,922.042 486.958,935C482.75,958.125 477.875,981.125 474.667,1004.42C440.667,1008.04 406.208,1002.58 372.333,1007.33C386.5,963.292 398.125,918.417 411.583,874.125C416.958,854.375 423.708,835 427.792,814.958ZM581.333,814.917C608.333,816.333 635.5,813.542 662.417,816.875C664.792,879.75 668.875,942.583 671.708,1005.5C637,1006.58 602.083,1003.5 567.542,1007.17C573.333,943.167 576.917,879 581.333,814.917ZM888.208,815.042C915.25,816.5 942.583,813 969.458,817.208C1002,880.083 1034.42,942.958 1067.58,1005.46C1032.96,1006.38 998.208,1003.96 963.667,1006.79C957.708,988.417 949.792,970.792 942.958,952.75C924.542,906.917 907.417,860.542 888.208,815.042Z" style="fill-rule:nonzero;"/>
    </g>
</svg>
