<?xml version="1.0" encoding="UTF-8" standalone="no"?><!DOCTYPE svg PUBLIC "-//W3C//DTD SVG 1.1//EN" "http://www.w3.org/Graphics/SVG/1.1/DTD/svg11.dtd"><svg width="100%" height="100%" viewBox="0 0 2671 2675" version="1.1" xmlns="http://www.w3.org/2000/svg" xmlns:xlink="http://www.w3.org/1999/xlink" xml:space="preserve" xmlns:serif="http://www.serif.com/" style="fill-rule:evenodd;clip-rule:evenodd;stroke-miterlimit:2.6131;"><g><path id="path7551" d="M2539.57,2660.67c64.058,-0 116.467,-52.413 116.467,-116.467l-0.001,-2416.88c0.001,-64.054 -52.408,-116.467 -116.466,-116.467l-2412.24,0c-64.058,0 -116.471,52.413 -116.471,116.467l0,2416.88c0,64.054 52.413,116.467 116.471,116.467l2412.24,-0Z" style="fill:#fff;fill-rule:nonzero;"/><path id="path7553" d="M2525.01,2587.88c32.025,0 58.237,-26.204 58.237,-58.233l0,-2387.76c0,-32.033 -26.213,-58.237 -58.237,-58.237l-2383.13,0c-32.033,0 -58.237,26.204 -58.237,58.238l0,2387.75c0,32.029 26.204,58.233 58.238,58.233l2383.12,0Z" style="fill:#154889;fill-rule:nonzero;"/><path id="path7555" d="M1336.95,257.813l1196.01,2087.67l-2399.01,0l1203,-2087.67Z" style="fill:#fff;"/><path d="M571.283,1810.98l161.917,0l-189.675,449.508l-226.679,0l254.437,-449.508Zm1524.29,0l-161.904,0l189.675,449.508l226.683,0l-254.454,-449.508Zm-1178.11,-4.625l84.05,0l-73.255,158.054c-38.545,105.65 27.755,152.667 94.063,166.558l-13.879,129.521l-235.929,0l144.95,-454.133Zm835.012,-0l-75.571,-0l57.838,166.554c38.542,105.613 -43.167,139.538 -89.438,154.204l16.188,133.375l235.925,0l-144.942,-454.133Zm-493.446,-2.304l156.5,-0l23.913,455.658l-203.55,0l23.137,-455.658Z" style="stroke:#000;stroke-width:10px;"/><path id="path7559" d="M958.333,1973.67l298.388,-609.884l-25.45,-88.662l-169.625,175.017c-52.429,47.041 -131.846,-33.15 -79.417,-85.579l293.763,-337.709c32.383,-22.358 47.029,-30.071 80.179,-47.804c37.004,-16.958 44.725,-16.958 79.425,13.879l263.675,268.313c9.267,10.787 12.346,7.712 16.187,30.85l0,131.846c0,58.587 -108.691,57.812 -109.47,-0.771l-0,-102.554l-98.692,-70.938l-35.479,97.917c81.741,218.966 148.816,417.887 231.329,636.1c36.996,103.316 -90.213,154.204 -140.346,53.958l-205.075,-545.117c-92.521,187.363 -174.258,365.471 -266.779,552.055c-53.196,96.383 -182.729,22.362 -132.613,-70.921l0,0.004Zm327.68,-1224.38c53.975,-0 99.47,44.721 99.47,99.462c0,53.971 -45.495,99.459 -99.47,99.459c-54.742,-0 -99.459,-45.488 -99.459,-99.459c0,-54.741 44.717,-99.462 99.459,-99.462Z" style="stroke:#000;stroke-width:10px;"/></g></svg>