<?xml version="1.0" encoding="UTF-8" standalone="no"?>
<!DOCTYPE svg PUBLIC "-//W3C//DTD SVG 1.1//EN" "http://www.w3.org/Graphics/SVG/1.1/DTD/svg11.dtd">
<svg width="100%" height="100%" viewBox="0 0 326 1072" version="1.1" xmlns="http://www.w3.org/2000/svg" xmlns:xlink="http://www.w3.org/1999/xlink" xml:space="preserve" xmlns:serif="http://www.serif.com/" style="fill-rule:evenodd;clip-rule:evenodd;">
    <g id="Layer-1" serif:id="Layer 1">
        <path id="rect17061" d="M-0.201,1018.79L-0.201,1028.61L17.86,1028.61L17.542,1028.89L57.436,1071.61L59.218,1069.93L20.616,1028.6L39.934,1028.6L39.616,1028.89L79.511,1071.61L81.327,1069.93L42.691,1028.6L64.454,1028.6L64.137,1028.88L104.066,1071.61L105.847,1069.93L67.245,1028.6L86.529,1028.6L86.211,1028.88L126.14,1071.61L127.922,1069.92L89.32,1028.6L111.048,1028.6L110.771,1028.88L150.666,1071.6L152.447,1069.92L113.845,1028.6L135.609,1028.6L135.291,1028.88L175.185,1071.6L177.002,1069.92L138.4,1028.59L157.683,1028.59L157.366,1028.88L197.26,1071.6L199.076,1069.92L160.474,1028.59L182.203,1028.59L181.886,1028.88L221.815,1071.6L223.596,1069.92L184.994,1028.59L204.278,1028.59L204.001,1028.87L243.895,1071.6L245.676,1069.91L207.074,1028.59L228.838,1028.59L228.52,1028.87L268.415,1071.59L270.196,1069.91L231.594,1028.58L250.913,1028.58L250.595,1028.87L290.489,1071.59L292.271,1069.91L253.669,1028.58L272.987,1028.58L272.669,1028.87L312.564,1071.59L314.38,1069.91L275.744,1028.58L297.507,1028.58L297.189,1028.86L324.857,1058.45L324.857,1054.85L300.298,1028.58L319.582,1028.58L319.264,1028.87L324.853,1034.84L324.853,1031.24L322.373,1028.59L324.853,1028.59L324.853,1018.77L-0.201,1018.79ZM-0.201,1032.55L-0.201,1036.15L32.916,1071.61L34.697,1069.93L-0.201,1032.55ZM-0.201,1056.2L-0.201,1059.8L10.838,1071.61L12.619,1069.93L-0.201,1056.2Z" style="fill-rule:nonzero;"/>
        <path id="rect10211" d="M146.33,663.892L146.33,711.922L138.216,735.559L138.216,1018.75L192.326,1018.75L192.326,735.559L184.285,711.922L184.285,663.892L146.33,663.892Z" style="fill:rgb(27,32,34);fill-rule:nonzero;stroke:black;stroke-width:1.57px;"/>
        <rect id="rect7014" x="146.326" y="535.719" width="37.962" height="128.158" style="fill:rgb(227,163,93);stroke:black;stroke-width:1.57px;"/>
        <rect id="rect6912" x="146.326" y="407.56" width="37.962" height="128.158" style="fill:rgb(27,32,34);stroke:black;stroke-width:1.57px;"/>
        <rect id="rect6710" x="146.326" y="279.401" width="37.962" height="128.158" style="fill:rgb(227,163,93);stroke:black;stroke-width:1.57px;"/>
        <path id="rect3136" d="M184.288,151.242L146.326,151.242L146.326,279.4L184.288,279.4L184.288,151.242ZM143.863,130.878L143.863,151.198L186.693,151.198L186.693,130.878L192.327,130.878L192.327,109.66L138.219,109.66L138.219,130.878L143.863,130.878Z" style="fill:rgb(27,32,34);stroke:black;stroke-width:1.57px;"/>
        <path id="path17152-4" d="M165.278,0.894C197.921,0.894 224.161,27.135 224.161,59.777C224.161,92.419 197.921,118.66 165.278,118.66C132.636,118.66 106.396,92.419 106.396,59.777C106.396,27.135 132.636,0.894 165.278,0.894Z" style="fill:rgb(252,175,0);fill-rule:nonzero;stroke:black;stroke-width:1.79px;"/>
    </g>
</svg>
