<?xml version="1.0" encoding="UTF-8" standalone="no"?><!DOCTYPE svg PUBLIC "-//W3C//DTD SVG 1.1//EN" "http://www.w3.org/Graphics/SVG/1.1/DTD/svg11.dtd"><svg width="100%" height="100%" viewBox="0 0 7158 7158" version="1.1" xmlns="http://www.w3.org/2000/svg" xmlns:xlink="http://www.w3.org/1999/xlink" xml:space="preserve" xmlns:serif="http://www.serif.com/" style="fill-rule:evenodd;clip-rule:evenodd;stroke-linejoin:round;stroke-miterlimit:2;"><g id="Layer-1" serif:id="Layer 1"><path d="M7145.67,625.984c0,-338.971 -275.202,-614.173 -614.173,-614.173l-5905.51,0c-338.971,0 -614.173,275.202 -614.173,614.173l0,5905.51c0,338.972 275.202,614.173 614.173,614.173l5905.51,0c338.971,0 614.173,-275.201 614.173,-614.173l0,-5905.51Z"/><path d="M7122.05,625.984c0,-325.934 -264.617,-590.551 -590.551,-590.551l-5905.51,0c-325.934,0 -590.551,264.617 -590.551,590.551l0,5905.51c0,325.934 264.617,590.551 590.551,590.551l5905.51,0c325.934,0 590.551,-264.617 590.551,-590.551l0,-5905.51Z" style="fill:#fff;"/><path id="rect826" d="M6944.88,625.984c-0,-228.153 -185.232,-413.385 -413.386,-413.385l-5905.51,-0c-228.154,-0 -413.386,185.232 -413.386,413.385l0,5905.51c0,228.154 185.232,413.386 413.386,413.386l5905.51,0c228.154,0 413.386,-185.232 413.386,-413.386l-0,-5905.51Zm-3366.14,23.622l3070.87,5314.96l-6141.73,0l3070.87,-5314.96Z" style="fill:#0046aa;"/><path id="path8185" d="M3916.91,2976.33c-4.896,-24.515 9.794,-44.127 29.362,-49.03c19.574,-4.906 44.043,-0 53.829,19.613c63.617,117.67 166.382,215.731 288.722,284.373c127.232,73.543 269.147,107.865 415.954,112.768l9.793,4.906l92.978,107.866l-4.896,14.708c19.575,19.612 48.936,19.612 73.404,9.812c19.574,-9.812 34.256,-34.32 29.362,-58.835c-14.682,-88.254 -63.617,-171.605 -141.914,-230.441c-269.147,-68.642 -489.359,-250.052 -592.124,-485.395c-53.829,-166.701 -107.659,-333.403 -151.7,-505.007c-29.363,-102.962 -137.021,-176.507 -259.36,-176.507c-29.362,4.906 -53.831,-9.812 -68.511,-34.32c-14.68,-19.614 -9.793,-49.03 9.794,-68.642c68.51,-107.866 92.978,-235.344 73.404,-357.918c-44.042,-73.545 -132.127,-117.672 -225.105,-112.769c-92.979,4.906 -171.275,58.835 -210.425,137.284c-34.254,122.574 4.897,254.954 97.872,353.015c24.468,19.611 29.362,53.931 14.681,78.447c-132.127,9.812 -259.36,58.836 -357.231,147.09c-97.872,83.35 -156.595,196.119 -171.276,318.693c-29.361,117.672 -92.977,220.634 -181.062,308.888c-39.15,156.895 -4.897,318.694 97.871,451.075c14.682,49.028 19.574,93.155 29.362,142.185c-29.362,58.837 -48.936,122.576 -58.723,191.218c4.897,14.708 19.575,29.417 39.149,39.223c19.574,9.812 39.148,9.812 53.828,4.906c39.15,-29.418 73.405,-63.738 107.659,-93.157c39.15,-29.418 97.873,-29.418 141.915,4.906c-14.681,29.419 -29.362,58.836 -44.042,88.254c-215.318,485.395 -499.146,941.372 -841.697,1358.12l39.148,83.351l464.891,220.635l58.724,-24.515l-0,-29.42l-58.723,-112.768l-122.339,-166.701l0,-24.516l274.04,-279.47l548.081,-735.446c14.682,-19.612 39.148,-34.322 73.405,-34.322c29.361,-0 53.828,14.71 68.509,34.322c244.68,343.208 367.019,740.349 357.233,1142.39l34.254,205.925l92.978,78.448l587.23,-220.634l24.468,-24.515c-97.873,-53.933 -210.424,-88.254 -322.976,-98.06c-9.793,-19.611 -14.682,-39.225 -19.574,-63.738c-4.897,-19.613 -14.682,-39.225 -19.576,-58.837l-88.084,-799.186c-58.723,-181.409 -137.02,-357.917 -239.786,-519.715l-14.68,-9.813l-58.722,-225.537l-29.362,-343.208m-802.547,-225.537c53.828,102.962 88.084,210.829 102.764,328.499c14.681,112.769 4.897,225.538 -24.468,333.403c-9.793,9.812 -29.362,19.612 -48.936,19.612c-19.574,-4.906 -34.254,-9.812 -44.042,-24.515c-117.445,-196.119 -132.126,-436.365 -34.255,-642.291c0,-9.812 9.794,-19.612 19.575,-19.612c9.793,-4.906 19.574,0 29.362,4.906" style="fill-rule:nonzero;"/><path id="rect8248" d="M1356.78,5534l-416.619,0l0,83.324l416.619,-0l-0,-83.324Zm4166.18,0l-416.619,0l0,83.324l416.619,-0l-0,-83.324Zm-2777.45,0l-416.618,0l-0,83.324l416.618,-0l0,-83.324Zm694.364,0l-416.619,0l0,83.324l416.619,-0l-0,-83.324Zm-1388.73,0l-416.618,0l-0,83.324l416.618,-0l0,-83.324Zm2083.09,0l-416.618,0l-0,83.324l416.618,-0l0,-83.324Zm694.363,0l-416.618,0l-0,83.324l416.618,-0l0,-83.324Zm1388.73,0l-416.619,0l0,83.324l416.619,-0l-0,-83.324Zm-1388.73,-819.351l-416.619,0l0,83.324l416.619,-0l-0,-83.324Zm-1388.73,0l-416.619,0l0,83.324l416.619,-0l-0,-83.324Zm-1388.73,0l-416.618,0l-0,83.324l416.618,-0l0,-83.324Zm694.363,0l-416.618,0l-0,83.324l416.618,-0l0,-83.324Zm1388.73,0l-416.618,0l-0,83.324l416.618,-0l0,-83.324Zm1388.73,0l-416.618,0l-0,83.324l416.618,-0l0,-83.324Z"/></g></svg>