<?xml version="1.0" encoding="UTF-8" standalone="no"?><!DOCTYPE svg PUBLIC "-//W3C//DTD SVG 1.1//EN" "http://www.w3.org/Graphics/SVG/1.1/DTD/svg11.dtd"><svg width="100%" height="100%" viewBox="0 0 2095 2095" version="1.1" xmlns="http://www.w3.org/2000/svg" xmlns:xlink="http://www.w3.org/1999/xlink" xml:space="preserve" xmlns:serif="http://www.serif.com/" style="fill-rule:evenodd;clip-rule:evenodd;"><path id="path3798" d="M1941.75,2088.75c80.537,0 147.005,-66.441 147.005,-147.005l-0,-1789.32c-0,-80.565 -66.468,-147.005 -147.005,-147.005l-1789.32,-0c-80.537,-0 -147.005,66.44 -147.005,147.005l-0,1789.32c-0,80.564 66.468,147.005 147.005,147.005l1789.32,0Z" style="fill:#fff;stroke:#000;stroke-width:8.33px;"/><path id="path3815" d="M152.458,2023.33c-44.914,0 -81.625,-36.687 -81.625,-81.625l0,-1789.25c0,-44.938 36.711,-81.625 81.625,-81.625l1789.25,0c44.915,0 81.625,36.687 81.625,81.625l0,1789.25c0,44.938 -36.71,81.625 -81.625,81.625l-1789.25,0Z" style="fill:#173885;"/><path id="path3852" d="M151.042,1752.71l1792.08,0l-896.042,-1552.92l-896.041,1552.92Z" style="fill:#fff;"/><path id="path3818" d="M992.497,1335.08l114.836,0l17.532,334.296l-149.331,-0l16.963,-334.296Zm-250.587,1.109l61.673,-0l-53.761,116.517c-28.26,76.93 20.378,111.451 69.018,121.612l-10.189,95.058l-173.098,-0l106.357,-333.187Zm612.582,-0l-55.411,-0l42.434,122.751c28.261,76.927 -31.676,102.371 -65.63,112.559l11.896,97.877l173.069,-0l-106.358,-333.187Zm-866.571,3.977l118.794,0l-139.143,329.201l-166.322,-0l186.671,-329.201Zm1118.3,0l-118.767,0l139.144,329.201l166.323,-0l-186.7,-329.201Z"/><path id="path3810" d="M772.443,1458.95l218.348,-446.885l-18.101,-65.601l-124.456,128.413c-39.021,35.034 -96.709,-24.362 -58.799,-62.243l216.071,-247.178c23.763,-16.963 33.925,-22.627 58.257,-35.093c26.582,-13.005 32.816,-13.005 58.258,10.189l192.877,196.293c6.803,7.37 9.649,5.662 12.466,22.625l-0,96.139c-0,43.005 -79.774,42.435 -80.884,-0.547l-0,-75.249l-71.835,-52.026l-26.042,71.834c59.967,161.2 109.204,306.603 169.141,467.206c27.151,75.819 -65.629,112.56 -102.969,39.048l-149.873,-399.898c-67.308,138.005 -127.844,268.126 -195.154,405.56c-39.046,70.157 -134.645,15.824 -97.305,-52.595l-0,0.008Zm239.855,-897.699c40.159,0 72.376,32.816 72.376,72.945c0,40.186 -32.217,72.973 -72.376,72.973c-40.186,0 -72.973,-32.787 -72.973,-72.973c0,-40.129 32.787,-72.945 72.973,-72.945Z"/></svg>