<?xml version="1.0" encoding="UTF-8" standalone="no"?>
<!DOCTYPE svg PUBLIC "-//W3C//DTD SVG 1.1//EN" "http://www.w3.org/Graphics/SVG/1.1/DTD/svg11.dtd">
<!-- GeoHints -->
<svg width="100%" height="100%" viewBox="0 0 602 602" version="1.1" xmlns="http://www.w3.org/2000/svg" xmlns:xlink="http://www.w3.org/1999/xlink" xml:space="preserve" xmlns:serif="http://www.serif.com/" style="fill-rule:evenodd;clip-rule:evenodd;stroke-linejoin:round;stroke-miterlimit:2;">
    <g transform="matrix(1.33333,0,0,-1.33333,0,601.002)">
        <path d="M27.375,450.376C0.316,450.392 0.375,423.372 0.375,423.372L0.375,27.376C0.375,27.376 0.316,0.353 27.375,0.376L423.375,0.376C450.609,0.349 450.375,27.376 450.375,27.376L450.375,423.372C450.375,423.372 450.598,450.466 423.375,450.376L27.375,450.376Z" style="fill:white;fill-rule:nonzero;"/>
    </g>
    <g transform="matrix(1.33333,0,0,-1.33333,0,601.002)">
        <path d="M27.375,441.376C17.438,441.376 9.375,433.318 9.375,423.376L9.375,27.376C9.375,17.427 17.438,9.376 27.375,9.376L423.375,9.376C433.316,9.376 441.375,17.427 441.375,27.376L441.375,423.376C441.375,433.318 433.316,441.376 423.375,441.376L27.375,441.376Z" style="fill:rgb(3,55,138);fill-rule:nonzero;"/>
    </g>
    <g transform="matrix(1.33333,0,0,-1.33333,0,601.002)">
        <path d="M27.375,450.751C13.719,450.759 6.805,443.892 3.391,437.048C-0.023,430.204 0,423.368 0,423.368L0,27.376C0,27.376 -0.02,20.54 3.391,13.7C6.805,6.857 13.719,-0.011 27.375,0.001L423.375,0.001C437.117,-0.014 444.035,6.857 447.426,13.7C450.813,20.54 450.75,27.372 450.75,27.376L450.75,423.372C450.75,423.376 450.809,430.224 447.418,437.072C444.027,443.923 437.109,450.794 423.375,450.751L27.375,450.751ZM27.375,450.376L423.375,450.376C450.598,450.466 450.375,423.372 450.375,423.372L450.375,27.376C450.375,27.376 450.609,0.349 423.375,0.376L27.375,0.376C0.316,0.353 0.375,27.376 0.375,27.376L0.375,423.372C0.375,423.372 0.316,450.392 27.375,450.376Z" style="fill-rule:nonzero;"/>
    </g>
    <g transform="matrix(1.33333,0,0,-1.33333,0,601.002)">
        <path d="M37.48,71.661L413.27,71.661L225.383,397.095" style="fill:white;fill-rule:nonzero;"/>
    </g>
    <g transform="matrix(1.33333,0,0,-1.33333,0,601.002)">
        <path d="M237.309,320.38C237.309,310.739 229.48,302.911 219.84,302.911C210.195,302.911 202.379,310.739 202.379,320.38C202.379,330.025 210.195,337.841 219.84,337.841C229.48,337.841 237.309,330.025 237.309,320.38ZM246.043,268.439L246.043,217.794L211.113,217.794L211.113,259.673L188.434,224.747C183.832,217.669 174.371,215.657 167.297,220.247L210.262,286.431C216.828,296.54 230.355,299.415 240.465,292.849C241.207,292.361 241.918,291.825 242.609,291.259L271.914,266.669C274.879,264.181 276.594,260.501 276.594,256.638L276.594,235.251C276.594,226.814 269.746,219.974 261.316,219.974L261.316,255.618L246.043,268.439ZM228.57,204.63L187.344,128.689C182.742,120.228 172.145,117.079 163.672,121.693L210.059,207.118C210.75,208.388 211.113,209.822 211.113,211.275L211.113,213.435L246.043,213.435L246.043,211.275C246.043,209.822 246.391,208.388 247.098,207.118L281.773,143.251C286.363,134.779 283.227,124.181 274.754,119.568L228.57,204.63ZM333.977,87.63L305.773,151.509L334.148,151.509L372.313,87.63L333.977,87.63ZM270.098,87.63L261.773,133.447L272.824,113.072L277.039,115.357C287.84,121.228 291.848,134.732 285.977,145.521L282.73,151.509L286.852,151.509L308.434,87.63L270.098,87.63ZM206.219,87.63L211.195,151.509L239.566,151.509L244.555,87.63L206.219,87.63ZM142.328,87.63L163.898,151.509L174.406,151.509L157.176,119.763L161.379,117.478C169.531,113.048 179.586,114.138 186.594,120.228L180.664,87.63L142.328,87.63ZM78.453,87.63L116.613,151.509L144.988,151.509L116.773,87.63" style="fill-rule:nonzero;"/>
    </g>
</svg>
