<?xml version="1.0" encoding="UTF-8" standalone="no"?>
<!DOCTYPE svg PUBLIC "-//W3C//DTD SVG 1.1//EN" "http://www.w3.org/Graphics/SVG/1.1/DTD/svg11.dtd">
<!-- GeoHints -->
<svg width="100%" height="100%" viewBox="0 0 602 602" version="1.1" xmlns="http://www.w3.org/2000/svg" xmlns:xlink="http://www.w3.org/1999/xlink" xml:space="preserve" xmlns:serif="http://www.serif.com/" style="fill-rule:evenodd;clip-rule:evenodd;stroke-linejoin:round;stroke-miterlimit:2;">
    <g transform="matrix(1.33333,0,0,-1.33333,0,601.002)">
        <path d="M27.375,450.376C0.316,450.392 0.375,423.372 0.375,423.372L0.375,27.376C0.375,27.376 0.316,0.353 27.375,0.376L423.375,0.376C450.609,0.349 450.375,27.376 450.375,27.376L450.375,423.372C450.375,423.372 450.598,450.466 423.375,450.376L27.375,450.376Z" style="fill:white;fill-rule:nonzero;"/>
    </g>
    <g transform="matrix(1.33333,0,0,-1.33333,0,601.002)">
        <path d="M27.375,441.376C17.438,441.376 9.375,433.318 9.375,423.376L9.375,27.376C9.375,17.427 17.438,9.376 27.375,9.376L423.375,9.376C433.316,9.376 441.375,17.427 441.375,27.376L441.375,423.376C441.375,433.318 433.316,441.376 423.375,441.376L27.375,441.376Z" style="fill:rgb(0,64,164);fill-rule:nonzero;"/>
    </g>
    <g transform="matrix(1.33333,0,0,-1.33333,0,601.002)">
        <path d="M37.48,71.661L413.27,71.661L225.383,397.095" style="fill:white;fill-rule:nonzero;"/>
    </g>
    <g transform="matrix(2.02016,0,0,2.02016,-85.7251,-51.4507)">
        <g transform="matrix(1,0,0,1,37.3435,23.3735)">
            <rect x="243.689" y="243.406" width="25.8" height="5.4"/>
            <g transform="matrix(1,0,0,1,-205,0)">
                <rect x="243.689" y="243.406" width="25.8" height="5.4"/>
            </g>
            <g transform="matrix(1.20155,0,0,1,-99.3157,0)">
                <rect x="243.689" y="243.406" width="25.8" height="5.4"/>
            </g>
            <g transform="matrix(1.20155,0,0,1,-155.316,0)">
                <rect x="243.689" y="243.406" width="25.8" height="5.4"/>
            </g>
            <g transform="matrix(1.20155,0,0,1,-209.316,0)">
                <rect x="243.689" y="243.406" width="25.8" height="5.4"/>
            </g>
        </g>
        <g transform="matrix(1,0,0,1,37.3435,23.3735)">
            <g transform="matrix(0.883721,0,0,1,8.33597,-38)">
                <rect x="243.689" y="243.406" width="25.8" height="5.4"/>
            </g>
            <g transform="matrix(0.748062,0,0,1,1.39461,-38)">
                <rect x="243.689" y="243.406" width="25.8" height="5.4"/>
            </g>
            <g transform="matrix(0.883721,0,0,1,-111.664,-38)">
                <rect x="243.689" y="243.406" width="25.8" height="5.4"/>
            </g>
            <g transform="matrix(0.883721,0,0,1,-154.664,-38)">
                <rect x="243.689" y="243.406" width="25.8" height="5.4"/>
            </g>
            <g transform="matrix(0.813953,0,0,1,-54.6624,-38)">
                <rect x="243.689" y="243.406" width="25.8" height="5.4"/>
            </g>
        </g>
        <g>
            <g transform="matrix(0.49501,0,0,0.49501,42.4348,25.4686)">
                <path d="M362.088,261.906C361.771,258.307 361.574,254.647 361.599,250.866C355.074,247.21 348.326,243.998 341.317,241.473C344.226,266.866 334.387,295.714 351.114,317.693C375.538,361.753 401.295,405.186 424.79,449.65C417.598,459.428 409.012,468.155 400.669,476.922C388.447,477.71 376.144,477.205 363.922,476.963C373.296,467.326 384.669,459.953 395.012,451.408C389.699,441.468 330.933,367.45 314.085,346.48C312.933,344.076 309.923,345.41 309.196,347.329C280.005,389.934 251.197,432.782 221.602,475.084C203.824,470.942 186.411,465.407 168.714,461.003C174.229,442.418 194.269,453.67 207.744,453.084C210.895,442.68 261.136,338.178 279.924,301.916C281.803,287.33 280.449,272.32 281.055,257.553C255.985,273.694 251.988,273.459 223.736,286.368C223.736,286.239 223.73,286.113 223.718,285.987C223.572,286.041 223.425,286.094 223.278,286.147C215.173,286.385 216.204,297.638 208.995,299.549C204.808,300.382 200.731,303.142 196.37,302.166C192.389,297.249 191.842,290.699 189.264,285.1C188.162,283.014 189.51,280.485 191.326,279.311C204.53,272.759 218.478,267.682 232.289,262.593C233.969,261.311 235.681,259.694 237.48,257.593C258.894,236.947 280.772,216.786 301.822,195.756C317.155,200.059 333.014,202.706 348.084,207.695C348.517,208.047 348.948,208.401 349.376,208.756C349.458,208.756 349.539,208.756 349.621,208.758C349.822,209.006 350.102,209.308 350.449,209.656C352.611,211.485 354.724,213.372 356.807,215.296C365.391,222.572 378.41,233.143 379.866,236.745C380.065,254.493 381.23,272.186 380.707,289.966C379.668,298.404 391.683,298.84 392.761,306.54C394.815,310.648 392.373,315.811 387.519,315.771C381.476,314.899 372.927,316.541 370.493,309.142C359.997,295.477 361.23,278.451 362.088,261.906Z" style="fill-rule:nonzero;"/>
            </g>
            <path d="M188.35,101.51C195.01,98.23 203.91,104.44 202.56,111.91C201.81,119.81 190.78,123.48 185.41,117.6C179.95,113.23 181.95,103.85 188.35,101.51Z" style="fill-rule:nonzero;"/>
        </g>
    </g>
</svg>
