<?xml version="1.0" encoding="UTF-8" standalone="no"?><!DOCTYPE svg PUBLIC "-//W3C//DTD SVG 1.1//EN" "http://www.w3.org/Graphics/SVG/1.1/DTD/svg11.dtd"><svg width="100%" height="100%" viewBox="0 0 5209 5209" version="1.1" xmlns="http://www.w3.org/2000/svg" xmlns:xlink="http://www.w3.org/1999/xlink" xml:space="preserve" xmlns:serif="http://www.serif.com/" style="fill-rule:evenodd;clip-rule:evenodd;stroke-linejoin:round;stroke-miterlimit:2;"><path d="M537.675,5164.38c-64.325,0 -128.646,-13.767 -188.421,-36.771c-59.704,-27.554 -114.862,-64.304 -160.8,-110.262c-96.546,-96.475 -142.483,-225.171 -142.483,-349.2l-0,-4135.57c-0,-64.325 9.167,-128.684 36.771,-188.421c22.933,-59.742 59.704,-114.863 105.696,-160.833c96.475,-96.475 225.12,-142.45 349.2,-142.45l4135.54,-0c64.321,-0 128.625,13.804 188.417,36.77c59.687,22.971 114.862,59.742 160.8,105.663c96.546,101.092 147.1,229.754 147.1,349.233l-0,4135.56c-0,64.32 -13.783,128.646 -36.771,188.35c-27.55,59.77 -64.321,114.929 -110.312,160.866c-96.475,96.563 -225.121,147.034 -349.2,147.034l-4135.54,0.033Z" style="fill:#fff;"/><path d="M537.675,5026.5c-45.937,0 -91.929,-9.167 -137.867,-27.55c-41.316,-18.387 -82.708,-41.387 -114.862,-78.092c-68.921,-68.941 -105.692,-160.866 -105.692,-252.741l0,-4135.56c0,-45.954 9.217,-91.891 27.534,-133.246c18.387,-45.954 45.991,-82.708 78.158,-119.479c68.925,-68.921 165.4,-105.675 252.729,-105.675l4135.54,0c45.938,0 96.492,9.167 137.863,27.55c45.938,18.388 82.708,45.954 114.862,78.125c73.525,73.509 105.696,165.434 105.696,252.729l0,4135.56c0,45.937 -9.221,96.491 -27.554,137.862c-18.383,41.321 -41.387,82.642 -78.142,114.863c-68.941,73.47 -160.816,105.641 -252.741,105.641" style="fill:#03378a;"/><path d="M4461.88,4305.08l-1833.47,-3175.18l-1833.4,3170.62" style="fill:#fff;"/><g><path d="M2569.4,2036.76c-36.822,-26.292 -52.58,-94.671 -63.153,-157.8c-5.207,-31.514 -5.207,-63.09 0,-89.382l-94.666,10.511c15.838,-26.326 5.284,-47.353 57.844,-63.129c57.864,-78.909 105.24,-73.625 147.308,-84.136c26.249,-5.285 84.113,-5.285 131.465,10.511c47.372,21.046 57.845,42.049 57.845,68.379l-0,73.621c-5.284,42.087 -15.757,115.713 -21.041,189.357c-26.312,15.757 -31.539,73.621 36.822,110.424c15.757,10.511 36.822,21.041 105.216,94.667c63.071,68.374 168.292,205.128 273.508,347.129c57.844,115.693 126.205,231.42 178.76,352.379c-15.757,5.227 -26.249,5.227 -42.006,15.776c-15.838,42.088 78.829,84.175 -5.284,131.528c-42.087,15.699 -105.221,20.984 -131.47,-73.683c-5.284,-21.041 -5.284,-42.006 -0,-63.129l-36.86,15.838l-89.402,-231.439l-168.268,-210.361l94.666,604.823l-42.087,10.473l84.175,457.614l389.197,294.531l-36.861,57.787l63.129,63.21l-141.957,168.292c-26.33,21.041 -63.153,31.533 -84.175,31.533c-68.398,-5.227 -36.822,-94.686 -10.554,-136.754l-394.424,-368.175l-110.424,-410.262l-310.311,383.932l-163.084,420.816l-52.575,-21.046l-57.849,105.14c-78.91,-42.087 -163.085,-78.91 -236.686,-120.916c-21.065,-31.595 -47.372,-73.683 21.046,-105.221c31.533,-5.284 47.29,0 73.62,10.554c89.383,-157.776 184.126,-320.86 257.732,-478.66l220.848,-331.291l-26.23,-0l68.318,-536.505l-99.932,105.216l-310.312,231.42l-26.23,-52.636c-5.284,10.549 -36.822,57.925 -57.863,52.636l-36.823,0c-31.595,-15.838 -26.311,-21.06 -42.068,-47.371c0,-52.579 -31.614,-68.337 42.068,-126.205c10.492,0 26.25,-5.284 42.088,-5.284l-5.284,-15.757l294.549,-194.618c47.295,-84.136 89.383,-163.027 110.424,-205.114c42.087,-78.91 31.538,-63.091 47.295,-84.132c36.822,-47.333 84.175,-84.137 126.262,-131.47c10.473,-15.8 15.757,-42.087 15.757,-68.418"/><path d="M2827.13,3751.35l47.295,478.604l-320.803,-0l68.36,-478.604l205.148,0Zm289.265,478.604l257.751,-0l-26.33,-84.175c-47.352,42.087 -89.378,68.394 -157.776,42.087c-47.295,-36.822 -31.533,-99.874 -5.284,-147.227l-136.754,-131.551l68.393,320.861l0,0.005Zm-710,-473.391l-89.459,473.391l-262.935,-0l31.533,-78.905l63.115,26.325l52.598,-99.951l57.844,15.776l126.243,-336.636l21.061,-0Zm-594.369,473.391l-257.67,-0l283.981,-473.372l173.557,-0l-63.133,136.816c-26.249,-5.289 -57.844,-10.554 -94.667,42.087c-15.776,31.534 -15.776,84.094 31.596,120.916l-73.664,173.553Zm2066.95,-0l-289.265,-473.391l-173.553,-0l199.864,473.391l262.954,-0Z"/></g></svg>