<?xml version="1.0" encoding="UTF-8" standalone="no"?>
<!DOCTYPE svg PUBLIC "-//W3C//DTD SVG 1.1//EN" "http://www.w3.org/Graphics/SVG/1.1/DTD/svg11.dtd">
<!-- GeoHints -->
<svg width="100%" height="100%" viewBox="0 0 2376 2076" version="1.1" xmlns="http://www.w3.org/2000/svg" xmlns:xlink="http://www.w3.org/1999/xlink" xml:space="preserve" xmlns:serif="http://www.serif.com/" style="fill-rule:evenodd;clip-rule:evenodd;stroke-linejoin:round;">
    <g id="Layer-1" serif:id="Layer 1" transform="matrix(1,0,0,1,0.001,1.42109e-14)">
        <path d="M68.769,2006.48L1187.51,68.77L2306.25,2006.48L68.769,2006.48Z" style="fill:rgb(226,10,22);stroke:rgb(226,10,22);stroke-width:137.54px;"/>
        <path d="M1187.51,343.846L306.997,1868.94L2068.03,1868.94L1187.51,343.847L1187.51,343.846Z" style="fill:white;"/>
        <g transform="matrix(1,0,0,1,-41.9554,0)">
            <g transform="matrix(0.408381,0,0,0.408381,120.519,70.6558)">
                <path d="M2569.4,2036.76C2532.58,2010.47 2516.82,1942.09 2506.25,1878.96C2501.04,1847.45 2501.04,1815.87 2506.25,1789.58L2411.58,1800.09C2427.42,1773.76 2416.87,1752.74 2469.43,1736.96C2527.29,1658.05 2574.66,1663.34 2616.73,1652.82C2642.98,1647.54 2700.85,1647.54 2748.2,1663.34C2795.57,1684.38 2806.04,1705.38 2806.04,1731.71L2806.04,1805.34C2800.76,1847.42 2790.29,1921.05 2785,1994.69C2758.69,2010.45 2753.46,2068.31 2821.82,2105.12C2837.58,2115.63 2858.65,2126.16 2927.04,2199.78C2990.11,2268.16 3095.33,2404.91 3200.55,2546.91C3258.39,2662.61 3326.75,2778.33 3379.31,2899.29C3363.55,2904.52 3353.06,2904.52 3337.3,2915.07C3321.46,2957.16 3416.13,2999.24 3332.02,3046.6C3289.93,3062.29 3226.8,3067.58 3200.55,2972.91C3195.26,2951.87 3195.26,2930.91 3200.55,2909.78L3163.69,2925.62L3074.29,2694.18L2906.02,2483.82L3000.68,3088.64L2958.6,3099.12L3042.77,3556.73L3431.97,3851.26L3395.11,3909.05L3458.24,3972.26L3316.28,4140.55C3289.95,4161.59 3253.13,4172.08 3232.11,4172.08C3163.71,4166.86 3195.28,4077.4 3221.55,4035.33L2827.13,3667.16L2716.7,3256.89L2406.39,3640.83L2243.31,4061.64L2190.73,4040.6L2132.88,4145.73C2053.97,4103.65 1969.8,4066.83 1896.2,4024.82C1875.13,3993.22 1848.83,3951.14 1917.24,3919.6C1948.78,3914.31 1964.53,3919.6 1990.86,3930.15C2080.25,3772.38 2174.99,3609.29 2248.6,3451.49L2469.44,3120.2L2443.21,3120.2L2511.53,2583.7L2411.6,2688.91L2101.29,2920.33L2075.06,2867.7C2069.77,2878.24 2038.24,2925.62 2017.19,2920.33L1980.37,2920.33C1948.78,2904.49 1954.06,2899.27 1938.3,2872.96C1938.3,2820.38 1906.69,2804.62 1980.37,2746.76C1990.86,2746.76 2006.62,2741.47 2022.46,2741.47L2017.18,2725.72L2311.72,2531.1C2359.02,2446.96 2401.11,2368.07 2422.15,2325.98C2464.24,2247.07 2453.69,2262.89 2469.44,2241.85C2506.27,2194.52 2553.62,2157.71 2595.71,2110.38C2606.18,2094.58 2611.46,2068.29 2611.46,2041.96"/>
            </g>
            <g transform="matrix(0.408381,0,0,0.408381,120.519,70.6558)">
                <path d="M2827.13,3751.35L2874.43,4229.95L2553.62,4229.95L2621.98,3751.35L2827.13,3751.35ZM3116.39,4229.95L3374.15,4229.95L3347.82,4145.78C3300.46,4187.87 3258.44,4214.17 3190.04,4187.87C3142.74,4151.04 3158.51,4087.99 3184.76,4040.64L3048,3909.09L3116.39,4229.95L3116.39,4229.95ZM2406.39,3756.56L2316.94,4229.95L2054,4229.95L2085.53,4151.05L2148.65,4177.37L2201.25,4077.42L2259.09,4093.2L2385.33,3756.56L2406.39,3756.56ZM1812.03,4229.95L1554.36,4229.95L1838.34,3756.58L2011.89,3756.58L1948.76,3893.4C1922.51,3888.11 1890.92,3882.84 1854.09,3935.49C1838.32,3967.02 1838.32,4019.58 1885.69,4056.4L1812.03,4229.95ZM3878.98,4229.95L3589.71,3756.56L3416.16,3756.56L3616.02,4229.95L3878.98,4229.95Z"/>
            </g>
        </g>
    </g>
</svg>
