<?xml version="1.0" encoding="UTF-8" standalone="no"?>
<!-- Created with Inkscape (http://www.inkscape.org/) -->
<svg xmlns:dc="http://purl.org/dc/elements/1.1/" xmlns:cc="http://creativecommons.org/ns#" xmlns:rdf="http://www.w3.org/1999/02/22-rdf-syntax-ns#" xmlns:svg="http://www.w3.org/2000/svg" xmlns="http://www.w3.org/2000/svg" xmlns:sodipodi="http://sodipodi.sourceforge.net/DTD/sodipodi-0.dtd" xmlns:inkscape="http://www.inkscape.org/namespaces/inkscape" width="502.39999" height="445.55988" id="svg2" sodipodi:version="0.32" inkscape:version="0.48.4 r9939" version="1.0" sodipodi:docname="AJAX.svg" inkscape:output_extension="org.inkscape.output.svg.inkscape" sodipodi:modified="true">
  <defs id="defs4"/>
  <sodipodi:namedview id="base" pagecolor="#ffffff" bordercolor="#666666" borderopacity="1.0" gridtolerance="10000" guidetolerance="10" objecttolerance="10" inkscape:pageopacity="0.0" inkscape:pageshadow="2" inkscape:zoom="1.2518409" inkscape:cx="223.29144" inkscape:cy="200.17578" inkscape:document-units="px" inkscape:current-layer="layer1" showgrid="true" showguides="true" width="2700px" height="1500px" inkscape:window-width="1280" inkscape:window-height="1001" inkscape:window-x="-8" inkscape:window-y="-8" fit-margin-top="1.2" fit-margin-left="1.2" fit-margin-right="1.2" fit-margin-bottom="1.2" inkscape:window-maximized="1"/>
  <metadata id="metadata7">
    <rdf:RDF>
      <cc:Work rdf:about="">
        <dc:format>image/svg+xml</dc:format>
        <dc:type rdf:resource="http://purl.org/dc/dcmitype/StillImage"/>
        <dc:title/>
      </cc:Work>
    </rdf:RDF>
  </metadata>
  <g inkscape:label="Layer 1" inkscape:groupmode="layer" id="layer1" transform="translate(2002.9419,1318.6117)">
    <path style="fill:#ffffff;fill-opacity:1;fill-rule:evenodd;stroke:#000000;stroke-opacity:1;stroke-width:2;stroke-miterlimit:4;stroke-dasharray:none" d="m -1751.7419,-1317.4117 c 9.7444,0 19.1235,5.4404 23.7188,13.875 l 222.75,388.65625 c 2.1724,3.97029 3.5312,9.01631 3.5312,13.71875 0,14.99423 -11.9924,27.1503 -26.9687,26.90625 l -446.0625,0 c -14.9763,0.24405 -26.9688,-11.91202 -26.9688,-26.90625 0,-4.70244 1.3589,-9.74846 3.5313,-13.71875 l 222.75,-388.65625 c 4.5953,-8.4346 13.9743,-13.875 23.7187,-13.875 z" id="path5908" inkscape:connector-curvature="0" sodipodi:nodetypes="sccsccsccs"/>
    <path style="fill:#d40000;fill-opacity:1;fill-rule:evenodd;stroke:none" d="m -1751.7417,-1308.3319 c -6.4049,0 -12.3777,3.5624 -15.5625,9.0625 l -223,388.6563 c -3.1667,5.54174 -3.1844,12.57285 0,18.15625 3.1962,5.58341 9.2859,9.08036 15.625,9.0625 l 445.875,0 c 6.3391,0.0179 12.4288,-3.47909 15.625,-9.0625 3.1844,-5.5834 3.1667,-12.61451 0,-18.15625 l -223,-388.6563 c -3.1848,-5.5001 -9.1576,-9.0625 -15.5625,-9.0625 z" id="path5916" inkscape:connector-curvature="0" sodipodi:nodetypes="sccccccccs"/>
    <path inkscape:connector-curvature="0" d="m -1580.7769,-931.68198 -341.93,0 170.965,-298.32952 z" style="fill:#ffffff;fill-opacity:1;fill-rule:evenodd;stroke:none" id="path5920" sodipodi:nodetypes="cccc"/>
    <path inkscape:connector-curvature="0" d="m -1804.06,-987.77539 41.5973,-85.12901 -3.4508,-12.5023 -23.7094,24.4616 c -7.4335,6.6867 -18.4252,-4.6276 -11.2066,-11.8461 l 41.1669,-47.0961 c 4.5203,-3.2354 6.4605,-4.3049 11.0993,-6.675 5.0634,-2.4837 6.2514,-2.4837 11.0994,1.9348 l 36.7435,37.3933 c 1.2952,1.3976 1.8329,1.0753 2.376,4.3112 l 0,18.3175 c 0,8.1861 -15.1952,8.0843 -15.4101,-0.1132 l 0,-14.3298 -13.6904,-9.9113 -4.9556,13.6849 c 11.4215,30.7124 20.8011,58.4045 32.2173,89.01511 5.1706,14.4371 -12.4965,21.4407 -19.6078,7.4335 l -28.5573,-76.19061 c -12.8245,26.2999 -24.3538,51.0842 -37.1843,77.25961 -7.428,13.3681 -25.6382,3.0268 -18.5274,-10.0186" style="fill:#000000;fill-opacity:1;fill-rule:evenodd;stroke:none" id="path9901"/>
    <path inkscape:connector-curvature="0" d="m -1758.366,-1158.7886 c 7.6485,0 13.7922,6.2455 13.7922,13.9053 0,7.6484 -6.1437,13.8998 -13.7922,13.8998 -7.6598,0 -13.9053,-6.2514 -13.9053,-13.8998 0,-7.6598 6.2455,-13.9053 13.9053,-13.9053" style="fill:#000000;fill-opacity:1;fill-rule:evenodd;stroke:none" id="path9905"/>
    <path inkscape:connector-curvature="0" d="m -1858.2669,-1010.4041 22.6345,0 -26.5153,62.72071 -31.6742,0 35.555,-62.72071 z" style="fill:#000000;fill-opacity:1;fill-rule:evenodd;stroke:none" id="path9909"/>
    <path inkscape:connector-curvature="0" d="m -1645.2228,-1010.4041 -22.6286,0 26.5153,62.72071 31.6742,0 -35.5609,-62.72071 z" style="fill:#000000;fill-opacity:1;fill-rule:evenodd;stroke:none" id="path9913"/>
    <path inkscape:connector-curvature="0" d="m -1809.8828,-1011.1553 11.7443,0 -10.2341,22.19861 c -5.391,14.658 3.8754,21.2311 13.1473,23.1718 l -1.9402,18.1029 -32.9758,0 20.2585,-63.47331 z" style="fill:#000000;fill-opacity:1;fill-rule:evenodd;stroke:none" id="path9917"/>
    <path inkscape:connector-curvature="0" d="m -1693.1761,-1011.1553 -10.5562,0 8.0784,23.38081 c 5.3856,14.6579 -6.0364,19.5063 -12.4969,21.4465 l 2.2629,18.646 32.9699,0 -20.2581,-63.47331 z" style="fill:#000000;fill-opacity:1;fill-rule:evenodd;stroke:none" id="path9921"/>
    <path inkscape:connector-curvature="0" d="m -1762.145,-1011.3708 21.8765,0 3.3431,63.68831 -28.4496,0 3.23,-63.68831 z" style="fill:#000000;fill-opacity:1;fill-rule:evenodd;stroke:none" id="path9925"/>
  </g>
</svg>