<?xml version="1.0" encoding="UTF-8" standalone="no"?><!DOCTYPE svg PUBLIC "-//W3C//DTD SVG 1.1//EN" "http://www.w3.org/Graphics/SVG/1.1/DTD/svg11.dtd"><svg width="100%" height="100%" viewBox="0 0 1250 1250" version="1.1" xmlns="http://www.w3.org/2000/svg" xmlns:xlink="http://www.w3.org/1999/xlink" xml:space="preserve" xmlns:serif="http://www.serif.com/" style="fill-rule:evenodd;clip-rule:evenodd;stroke-linejoin:round;stroke-miterlimit:2;"><path d="M129.042,1239.45c-15.438,-0 -30.875,-3.304 -45.221,-8.825c-14.329,-6.613 -27.567,-15.433 -38.592,-26.463c-23.171,-23.154 -34.196,-54.041 -34.196,-83.808l0,-992.537c0,-15.438 2.2,-30.884 8.825,-45.221c5.504,-14.338 14.329,-27.567 25.367,-38.6c23.154,-23.154 54.029,-34.188 83.808,-34.188l992.53,0c15.437,0 30.87,3.313 45.22,8.825c14.325,5.513 27.567,14.338 38.592,25.359c23.171,24.262 35.304,55.141 35.304,83.816l0,992.534c0,15.437 -3.308,30.875 -8.825,45.204c-6.612,14.345 -15.437,27.583 -26.475,38.608c-23.154,23.175 -54.029,35.288 -83.808,35.288l-992.529,0.008Z" style="fill:#fff;"/><path d="M129.042,1206.36c-11.025,0 -22.063,-2.2 -33.088,-6.612c-9.916,-4.413 -19.85,-9.933 -27.567,-18.742c-16.541,-16.546 -25.366,-38.608 -25.366,-60.658l-0,-992.534c-0,-11.029 2.212,-22.054 6.608,-31.979c4.413,-11.029 11.038,-19.85 18.758,-28.675c16.542,-16.541 39.696,-25.362 60.655,-25.362l992.529,-0c11.025,-0 23.158,2.2 33.087,6.612c11.025,4.413 19.85,11.029 27.567,18.75c17.646,17.642 25.367,39.704 25.367,60.655l-0,992.533c-0,11.025 -2.213,23.158 -6.613,33.087c-4.412,9.917 -9.933,19.834 -18.754,27.567c-16.546,17.633 -38.596,25.354 -60.658,25.354" style="fill:#03378a;"/><path d="M1070.85,1033.22l-440.033,-762.042l-440.017,760.95" style="fill:#fff;"/><g><path d="M590.013,529.238c-7.721,-5.513 -11.025,-19.851 -13.242,-33.088c-1.092,-6.608 -1.092,-13.229 -0,-18.742l-19.85,2.204c3.321,-5.52 1.108,-9.929 12.129,-13.237c12.133,-16.546 22.067,-15.438 30.888,-17.642c5.504,-1.108 17.637,-1.108 27.566,2.204c9.933,4.413 12.129,8.817 12.129,14.338l0,15.437c-1.108,8.825 -3.304,24.263 -4.412,39.705c-5.517,3.304 -6.613,15.437 7.721,23.154c3.304,2.204 7.721,4.412 22.062,19.85c13.225,14.337 35.288,43.012 57.35,72.787c12.129,24.259 26.463,48.525 37.483,73.888c-3.304,1.096 -5.504,1.096 -8.808,3.308c-3.321,8.825 16.529,17.65 -1.108,27.579c-8.825,3.292 -22.063,4.4 -27.567,-15.45c-1.108,-4.412 -1.108,-8.808 0,-13.237l-7.729,3.321l-18.746,-48.529l-35.283,-44.109l19.85,126.821l-8.825,2.196l17.65,95.954l81.608,61.758l-7.729,12.117l13.237,13.254l-29.766,35.288c-5.521,4.412 -13.242,6.612 -17.65,6.612c-14.342,-1.096 -7.721,-19.854 -2.213,-28.675l-82.704,-77.2l-23.154,-86.025l-65.067,80.504l-34.196,88.238l-11.024,-4.413l-12.13,22.046c-16.546,-8.825 -34.196,-16.546 -49.629,-25.354c-4.417,-6.625 -9.933,-15.45 4.413,-22.063c6.612,-1.108 9.916,0 15.437,2.213c18.742,-33.083 38.608,-67.279 54.042,-100.367l46.308,-69.466l-5.5,-0l14.325,-112.496l-20.954,22.062l-65.067,48.525l-5.5,-11.037c-1.108,2.212 -7.721,12.146 -12.133,11.037l-7.721,0c-6.625,-3.321 -5.517,-4.416 -8.821,-9.933c0,-11.025 -6.629,-14.329 8.821,-26.463c2.2,0 5.504,-1.108 8.825,-1.108l-1.108,-3.304l61.762,-40.808c9.917,-17.642 18.742,-34.184 23.154,-43.009c8.825,-16.546 6.613,-13.229 9.917,-17.641c7.721,-9.925 17.65,-17.642 26.475,-27.567c2.196,-3.313 3.304,-8.825 3.304,-14.346"/><path d="M644.054,888.758l9.917,100.355l-67.267,-0l14.334,-100.355l43.016,0Zm60.654,100.355l54.046,-0l-5.521,-17.65c-9.929,8.825 -18.741,14.341 -33.083,8.825c-9.917,-7.721 -6.612,-20.942 -1.108,-30.871l-28.675,-27.584l14.341,67.279Zm-148.875,-99.262l-18.758,99.262l-55.133,0l6.612,-16.545l13.234,5.52l11.029,-20.958l12.129,3.308l26.471,-70.587l4.416,-0Zm-124.629,99.262l-54.029,0l59.546,-99.258l36.392,0l-13.238,28.688c-5.504,-1.109 -12.129,-2.213 -19.85,8.825c-3.308,6.612 -3.308,17.633 6.625,25.354l-15.446,36.391Zm433.404,0l-60.654,-99.262l-36.391,-0l41.908,99.262l55.137,0Z"/></g></svg>