<?xml version="1.0" encoding="UTF-8" standalone="no"?>
<!DOCTYPE svg PUBLIC "-//W3C//DTD SVG 1.1//EN" "http://www.w3.org/Graphics/SVG/1.1/DTD/svg11.dtd">
<svg width="100%" height="100%" viewBox="0 0 291 290" version="1.1" xmlns="http://www.w3.org/2000/svg" xmlns:xlink="http://www.w3.org/1999/xlink" xml:space="preserve" xmlns:serif="http://www.serif.com/" style="fill-rule:evenodd;clip-rule:evenodd;stroke-linejoin:round;stroke-miterlimit:2;">
    <g transform="matrix(1,0,0,1,-5.034,-5.002)">
        <path d="M30.97,294.821C27.527,294.821 24.354,294.027 21.177,292.707C18,291.644 15.089,289.526 12.709,287.146C7.679,282.116 5.034,275.234 5.034,268.883L5.034,30.675C5.034,27.5 5.827,24.059 7.148,20.882C8.473,17.707 10.325,14.796 12.709,12.414C17.735,7.384 24.616,5.002 30.971,5.002L269.178,5.002C272.62,5.002 276.06,5.532 279.237,6.855C282.149,8.178 285.06,10.032 287.44,12.414C292.469,17.707 295.116,24.323 295.116,30.676L295.116,268.884C295.116,272.323 294.322,275.763 293.001,278.944C291.942,281.851 289.824,284.766 287.44,287.147C282.411,292.176 275.794,294.822 269.178,294.822" style="fill:white;"/>
    </g>
    <g transform="matrix(1,0,0,1,-5.034,-5.002)">
        <path d="M30.97,289.526C28.324,289.526 25.675,288.998 23.029,287.939C20.649,286.88 18.265,285.555 16.413,283.441C12.443,279.47 10.325,274.175 10.325,268.883L10.325,30.675C10.325,28.028 10.856,25.382 11.911,23C12.97,20.353 14.56,18.236 16.413,16.118C20.383,12.148 25.94,10.031 30.97,10.031L269.177,10.031C271.823,10.031 274.735,10.559 277.118,11.618C279.764,12.677 281.882,14.265 283.734,16.118C287.969,20.352 289.822,25.647 289.822,30.675L289.822,268.883C289.822,271.529 289.291,274.441 288.235,276.824C287.176,279.204 285.851,281.584 283.734,283.44C279.763,287.672 274.471,289.525 269.176,289.525" style="fill:rgb(2,49,179);"/>
    </g>
    <g transform="matrix(1,0,0,1,-5.034,-5.002)">
        <path d="M257.004,247.973L151.396,65.083L45.792,247.711" style="fill:white;"/>
    </g>
    <g transform="matrix(1,0,0,1,-5.034,-5.002)">
        <path d="M154.573,213.302L156.953,237.387L140.81,237.387L144.249,213.302"/>
        <path d="M207.506,237.387L192.949,213.564L184.215,213.564L194.273,237.387"/>
        <path d="M103.489,237.387L90.522,237.387L104.813,213.565L113.547,213.565L110.37,220.45C109.049,220.184 107.459,219.919 105.606,222.568C104.813,224.155 104.813,226.8 107.196,228.653"/>
        <path d="M169.13,237.387L182.101,237.387L180.776,233.151C178.393,235.269 176.278,236.593 172.836,235.269C170.456,233.416 171.249,230.243 172.57,227.86L165.688,221.24"/>
        <path d="M133.4,213.564L128.898,237.387L115.666,237.387L117.252,233.416L120.43,234.741L123.076,229.711L125.987,230.505L132.341,213.564"/>
    </g>
    <g transform="matrix(1,0,0,1,-5.034,-5.002)">
        <path d="M137.444,116.379C136.787,115.798 135.515,116.104 134.697,115.633C134.264,115.382 134.958,114.981 135.192,114.77C136.163,114.241 136.85,114.39 137.422,113.534C139.019,111.145 139.367,107.184 139.777,106.998C140.335,106.748 147.539,107.463 151.298,107.914C153.279,108.254 152.68,111.576 153.643,112.821C153.947,113.213 155.913,113.029 156.342,113.28C157.178,114.219 156.549,113.674 156.037,114.754C155.802,114.962 154.162,114.581 154.135,115.022C154.06,116.272 153.561,116.537 153.213,117.7C152.951,119.743 152.639,122.321 152.454,124.9C151.13,125.693 150.867,128.605 154.307,130.457C155.1,130.986 156.16,131.516 159.602,135.221C162.776,138.662 168.071,145.544 173.366,152.69C176.277,158.512 179.717,164.336 182.362,170.423C181.569,170.686 181.041,170.686 180.248,171.217C179.451,173.335 184.215,175.453 179.982,177.836C177.864,178.626 174.687,178.892 173.366,174.128C173.1,173.069 173.1,172.014 173.366,170.951L171.511,171.748L167.012,160.101L158.544,149.515L163.308,179.952L161.19,180.479L165.426,203.508L185.012,218.33L183.157,221.238L186.334,224.419L179.19,232.888C177.865,233.947 176.012,234.475 174.954,234.475C171.512,234.212 173.101,229.71 174.423,227.593L154.574,209.065L149.017,188.419L133.4,207.741L125.193,228.918L122.547,227.859L119.635,233.15C115.665,231.032 111.428,229.179 107.724,227.065C106.665,225.475 105.34,223.357 108.783,221.77C110.369,221.504 111.163,221.77 112.488,222.301C116.986,214.361 121.754,206.154 125.458,198.213L136.572,181.541L135.251,181.541L138.69,154.542L133.661,159.837L118.045,171.483L116.724,168.834C116.458,169.365 114.871,171.749 113.812,171.483L111.959,171.483C110.369,170.686 110.634,170.423 109.841,169.099C109.841,166.453 108.251,165.66 111.959,162.748C112.487,162.748 113.28,162.482 114.077,162.482L113.811,161.689L128.634,151.895C131.014,147.661 133.132,143.691 134.191,141.573C136.309,137.602 135.778,138.398 136.571,137.339C138.424,134.957 140.807,133.105 142.925,130.723C143.417,129.981 143.682,128.778 143.714,127.543C142.923,127.462 142.167,127.371 141.992,127.244C141.153,126.882 140.056,126.702 139.909,126.226C139.616,125.278 139.575,124.144 139.281,123.196C138.988,122.248 137.309,122.871 136.98,122.141C136.429,121.375 136.864,120.099 137.227,119.255C137.485,119.074 138.031,118.488 137.848,118.234C137.543,118.013 137.464,117.797 137.474,117.588C137.364,117.203 137.476,116.409 137.444,116.379Z"/>
    </g>
</svg>
