<?xml version="1.0" encoding="UTF-8" standalone="no"?>
<!DOCTYPE svg PUBLIC "-//W3C//DTD SVG 1.1//EN" "http://www.w3.org/Graphics/SVG/1.1/DTD/svg11.dtd">
<!-- GeoHints -->
<svg width="100%" height="100%" viewBox="0 0 769 794" version="1.1" xmlns="http://www.w3.org/2000/svg" xmlns:xlink="http://www.w3.org/1999/xlink" xml:space="preserve" xmlns:serif="http://www.serif.com/" style="fill-rule:evenodd;clip-rule:evenodd;stroke-linejoin:round;stroke-miterlimit:2;">
    <g transform="matrix(1,0,0,1,-30.9579,-77.3739)">
        <g transform="matrix(1.62331,0,0,1.65198,67.1045,74.987)">
            <g transform="matrix(1,0,0,1,8.41875,7.575)">
                <path d="M205.812,-6.125C205.592,-6.123 205.932,-6.151 206.906,-6.094C211.074,-5.848 215.724,-4.275 219.156,-1.75C222.589,0.775 224.8,3.7 226.75,6.625L227.031,7.063L227.281,7.5L417.5,327.001L419.062,329.844L419.062,450.719C418.655,458.858 415.019,462.498 411.375,466.188C407.731,469.877 403.945,473.906 395.25,473.906L16.844,473.906C8.148,473.906 4.362,469.877 0.719,466.188C-2.925,462.498 -6.53,458.858 -6.938,450.719L-6.969,450.406L-6.969,329.844L-5.406,327.001L184.812,7.5L185.062,7.063L185.344,6.625C187.294,3.7 189.505,0.775 192.937,-1.75C196.37,-4.275 201.051,-5.848 205.219,-6.094L205.5,-6.125L205.812,-6.125Z" style="fill:white;"/>
            </g>
            <g transform="matrix(1,0,0,1,8.41875,7.575)">
                <path d="M205.933,6.379C201.5,6.641 198.868,8.883 195.745,13.567L5.527,333.054L5.527,450.098C5.748,454.522 12.41,461.411 16.839,461.411L395.245,461.411C399.674,461.411 406.336,454.522 406.558,450.098L406.558,333.054L216.339,13.567C213.216,8.883 210.584,6.641 206.152,6.379C206.078,6.378 206.004,6.375 205.933,6.379Z" style="fill:rgb(30,80,163);"/>
            </g>
        </g>
        <g transform="matrix(0.773295,0,0,1,95.5145,1.42109e-14)">
            <path d="M210.31,739.46C216.05,739.46 221.8,739.38 227.55,739.47C227.36,758.47 227.7,777.49 227.03,796.48C221.43,796.36 215.83,796.31 210.23,796.44C210.28,777.42 210.01,758.48 210.31,739.46Z" style="fill:rgb(228,227,226);fill-rule:nonzero;"/>
            <path d="M138.51,740.39C150.97,740.21 163.43,740.35 175.88,740.29C176.3,743 176.27,745.75 175.48,748.4C162.8,747.39 149.91,749.72 137.38,747.46C137.73,745.09 138.15,742.74 138.51,740.39Z" style="fill:rgb(228,227,226);fill-rule:nonzero;"/>
            <path d="M361.61,740.43C367.27,740.05 372.92,739.8 378.57,740.46C378.55,750.09 378.6,759.71 378.67,769.34C383.95,769.32 389.23,769.24 394.52,769.34C394.95,772.69 395.37,776.06 395.46,779.45C389.83,779.93 384.17,779.89 378.54,779.53C377.91,787.91 379.45,796.89 377.89,804.88C372.94,805.45 366.15,806.29 361.71,804.29C361.29,783.01 361.81,761.72 361.61,740.43Z" style="fill:rgb(228,227,226);fill-rule:nonzero;"/>
            <path d="M456.51,747.48C461.93,746.61 467.39,747.42 472.84,747.32C474.1,752.1 473.34,757.07 473.42,761.94C490.68,762.36 508.22,763.03 525.43,761.54C525.34,756.76 525.44,751.97 525.36,747.19C530.66,745.96 536.13,746.81 541.51,746.57C542.88,761.86 542.19,777.77 541.84,792.9C531.15,794.99 519.39,792.54 508.35,794.23C508.43,799.62 508.09,805.02 508.41,810.41C526.43,809.87 544.52,809.07 562.53,810.41C561.97,813.6 563.54,817.73 561.45,820.36C520.16,820.21 478.99,820.64 437.69,820.4C436.26,817.74 434.72,809.4 439.96,810.38C456.69,810.34 473.43,810.53 490.15,810.2C492.36,805.32 491.35,798.92 490.65,793.57C479.29,793.83 467.93,793.61 456.58,793.54C456.7,778.18 456.33,762.83 456.51,747.48M473.55,772.48C473.52,776.11 473.49,779.76 473.57,783.4C490.85,783.63 508.12,783.33 525.4,783.36C524.59,779.75 527.26,773.65 523.16,771.79C506.67,772.33 489.97,771.09 473.55,772.48Z" style="fill:rgb(228,227,226);fill-rule:nonzero;"/>
            <path d="M618.4,748.36C647.83,749.16 677.36,746.45 706.68,748.36C706.58,751.49 706.59,754.63 706.66,757.78C683.02,759.33 659.2,757.85 635.49,758.47C635.47,765.17 635.39,771.88 635.46,778.58C659.77,779 684.09,777.9 708.39,778.64C710.75,781.07 709,785.34 709.52,788.5C697.16,789.69 684.75,789.2 672.35,789.42C672.4,795.43 670.4,801.69 672.51,807.54C690.15,807.34 707.81,807.16 725.45,807.46C725.47,810.82 725.52,814.18 725.59,817.56C683.82,817.1 641.88,818.62 600.33,817.65C600.4,814.46 600.37,811.27 600.35,808.09C618.35,806.9 636.48,808.04 654.52,807.4C654.72,801.46 654.59,795.52 654.6,789.58C642.6,789.36 630.59,789.45 618.58,789.39C618.22,775.71 618.45,762.03 618.4,748.36Z" style="fill:rgb(228,227,226);fill-rule:nonzero;"/>
            <path d="M278.19,749.34C299.74,748.44 321.46,748.92 343.1,749.28C343.19,752.37 343.23,755.46 343.33,758.56C327.49,760.46 311.38,758.72 295.44,759.49C295.91,765.86 294.02,772.32 295.46,778.57C316.22,778.92 336.88,777.22 357.52,775.25C358.33,778.39 359.02,781.56 359.74,784.73C332.76,787.81 305.54,788.99 278.36,788.71C277.33,775.62 278.34,762.46 278.19,749.34Z" style="fill:rgb(228,227,226);fill-rule:nonzero;"/>
            <path d="M118.38,750.52C144.43,750.15 170.48,750.88 196.52,750.29C196.51,753.33 196.5,756.39 196.44,759.44C170.94,759.41 145.44,759.6 119.94,759.45C115.53,759.13 118.26,753.36 118.38,750.52Z" style="fill:rgb(228,227,226);fill-rule:nonzero;"/>
            <path d="M134.98,763.07C150.82,760.57 167.64,759.98 183.14,764.7C188.68,765.73 193.14,772.72 188.25,777.2C181.85,781.28 174.02,782.53 166.54,782.68C166.4,783.67 166.26,784.68 166.12,785.69C177.95,785.21 189.88,786.14 201.64,784.41C202.69,787.28 202.78,790.35 202.9,793.38C173.24,793.65 143.21,796.16 113.8,795.35C113.51,792.53 111.77,789.57 112.76,786.8C124.36,786.24 136,786.69 147.63,786.52C147.7,785.47 147.78,784.42 147.86,783.39C139.5,781.68 128.26,782.94 122.93,775C120.06,767.37 129.19,764.08 134.98,763.07M140.27,770.7C139.96,775.3 145.72,775.12 148.98,775.53C156.86,775.23 165.23,776.96 172.69,773.7C172.6,772.69 172.51,771.69 172.43,770.7C162.06,767.28 150.74,768.5 140.27,770.7Z" style="fill:rgb(228,227,226);fill-rule:nonzero;"/>
            <path d="M289.33,796.29C294.8,796.22 300.27,796.34 305.75,796.36C305.77,803.1 305.25,809.87 306.03,816.59C309.03,816.65 312.04,816.74 315.02,817.12C337.76,816.11 360.59,816.73 383.36,816.6C385.71,819.1 383.94,823.31 384.47,826.51C352.73,827.1 320.92,827.82 289.33,826.52C289.45,816.44 289.13,806.36 289.33,796.29Z" style="fill:rgb(228,227,226);fill-rule:nonzero;"/>
            <path d="M161.02,798.88C180.63,798.58 201.06,796.77 219.93,803.14C227.13,804.82 232.24,814.25 225.99,819.93C221.529,824.703 167.532,834.439 138.76,824.14C132.64,822.54 126.83,815.69 130.62,809.43C137.57,800.06 150.59,800.5 161.02,798.88M159.98,807.84C155.12,808.76 148.64,808.87 146.25,814.05C150.91,820.61 160.01,819.01 166.98,820.28C180.75,820.38 195.01,821.24 208.32,817.27C212.63,816.35 212.78,810.53 208.34,809.71C192.65,805.46 176.02,806.61 159.98,807.84Z" style="fill:rgb(228,227,226);fill-rule:nonzero;"/>
        </g>
        <g transform="matrix(1,0,0,1,1.68075,0)">
            <g transform="matrix(1.59153,0,0,1.59153,-209.556,-53.9008)">
                <g>
                    <path d="M478.08,431.641C490.86,431.551 505.787,431.542 516.62,431.641C529.124,452.152 536.708,468.241 548.75,487.802C529.905,487.861 515.72,487.797 497.511,487.802C490.076,467.79 484.772,450.344 478.08,431.641Z" style="fill:white;fill-rule:nonzero;"/>
                    <path d="M442.56,431.634C443.31,433.194 456.82,474.452 460.96,487.802C439.429,488.037 430.254,487.965 410.86,487.802C409.65,469.152 407.94,450.324 407.27,431.634C420.077,431.745 431.239,431.653 442.56,431.634Z" style="fill:white;"/>
                    <path d="M443.126,431.362C443.021,431.144 442.801,431.005 442.559,431.006C431.24,431.025 420.08,431.116 407.275,431.006C407.104,431.004 406.939,431.073 406.82,431.196C406.7,431.319 406.636,431.485 406.642,431.657C407.312,450.353 409.023,469.187 410.233,487.843C410.254,488.172 410.526,488.428 410.855,488.431C430.253,488.594 439.43,488.665 460.967,488.431C461.165,488.428 461.351,488.333 461.468,488.172C461.585,488.012 461.619,487.806 461.56,487.616C457.414,474.245 443.877,432.924 443.126,431.362ZM442.56,431.634C443.31,433.194 456.82,474.452 460.96,487.802C439.429,488.037 430.254,487.965 410.86,487.802C409.65,469.152 407.94,450.324 407.27,431.634C420.077,431.745 431.239,431.653 442.56,431.634Z" style="fill:rgb(30,80,163);"/>
                    <path d="M323.31,487.802C327.262,475.544 334.284,458.456 344.925,431.634C354.98,431.741 372.211,431.534 380.85,431.634C378.122,450.968 375.51,468.982 373.42,487.802C356.71,487.912 340.01,488.072 323.31,487.802Z" style="fill:white;"/>
                    <path d="M322.712,487.61C322.651,487.799 322.683,488.006 322.799,488.168C322.915,488.33 323.101,488.427 323.3,488.431C340.005,488.701 356.709,488.541 373.424,488.431C373.743,488.429 374.009,488.188 374.044,487.872C376.134,469.058 378.745,451.05 381.472,431.722C381.497,431.543 381.444,431.362 381.327,431.225C381.209,431.088 381.038,431.008 380.857,431.006C372.218,430.905 354.987,431.112 344.932,431.006C344.672,431.003 344.437,431.161 344.341,431.402C333.693,458.243 326.667,475.343 322.712,487.61ZM323.31,487.802C327.262,475.544 334.284,458.456 344.925,431.634C354.98,431.741 372.211,431.534 380.85,431.634C378.122,450.968 375.51,468.982 373.42,487.802C356.71,487.912 340.01,488.072 323.31,487.802Z" style="fill:rgb(30,80,163);"/>
                    <path d="M269.208,431.641C281.428,431.701 295.1,431.55 307.32,431.64C299.88,450.45 292.95,469.212 285,487.802C268.13,487.992 251.957,488.005 234.3,487.802C245.11,470.062 266.703,435.507 269.208,431.641Z" style="fill:white;fill-rule:nonzero;"/>
                </g>
            </g>
            <g transform="matrix(1,0,0,1,29.2772,77.3739)">
                <path d="M302.977,555.901C303.632,555.458 304.26,554.996 304.852,554.514C304.827,552.436 304.726,550.349 304.96,548.288C323.694,507.874 343.297,467.843 363.845,428.409C368.298,416.341 378.869,405.816 376.579,391.875C375.042,382.447 376.746,372.35 373.446,363.359C358.555,369.719 349.832,385.908 336.295,394.711C333.788,402.659 328.382,414.397 318.639,410.624C309.782,407.252 308.344,396.468 310.826,387.941C314.511,383.517 319.984,382.75 324.831,380.725C334.348,365.857 347.375,352.905 358.814,339.267C367.02,320.019 367.872,297.97 376.847,279.025C380.214,270.872 392.339,269.071 391.11,258.456C386.999,255.441 381.81,255.04 377.699,252.034C377.131,242.321 372.301,231.519 377.323,222.484C378.393,211.727 379.905,199.837 386.222,191.105C395.163,182.881 408.441,183.505 419.236,186.493C435.857,194.12 433.333,216.436 427.935,231.145C425.303,238.548 416.964,245.416 421.108,253.881C429.088,264.084 443.243,267.849 448.85,280.452C454.591,296.81 462.286,312.277 467.943,328.68C474.068,341.515 471.277,356.322 471.954,370.129C471.361,382.001 473.341,394.212 470.383,405.807C466.957,412.863 474.302,419.071 472.815,426.34C472.071,438.783 453.571,441.209 448.917,430.327C444.722,424.975 448.131,418.402 450.655,413.219C448.048,396.798 447.271,379.209 447.48,362.396C447.463,352.763 443.544,343.888 438.606,336.003C437.753,336.021 436.909,336.038 436.074,336.056C432.431,352.62 426.205,371.083 434.027,387.371C438.806,398.556 434.795,410.713 434.637,422.228C441.321,441.45 446.97,461.403 456.571,479.242C468.336,495.199 480.594,510.799 491.766,527.265C494.048,530.458 493.346,534.588 493.947,538.28C497.515,544.453 505.788,550.937 501.877,558.992C499.019,566.725 489.627,567.385 486.811,575.011C481.94,583.824 472.422,587.695 464.852,593.305C453.269,600.276 457.688,583.901 465.361,577.054C468.695,570.676 474.988,557.529 465.462,554.273C462.779,553.31 460.749,551.098 459.287,548.591C442.642,522.207 421.342,499.24 407.68,470.742C405.132,466.46 403.694,460.404 398.622,458.816C389.723,466.799 383.013,477.048 374.758,485.7C364.597,496.091 362.934,512.102 354.478,523.697C352.238,534.4 343.582,542.794 342.495,553.676C343.391,554.203 341.444,555.582 337.761,557.307C336.949,559.657 335.753,562.924 333.915,567.668C332.047,567.618 330.209,567.571 328.353,567.554C327.908,569.175 327.72,569.605 327.565,569.887L327.434,570.116C327.279,570.398 327.091,570.828 326.646,572.45C332.3,580.401 324.741,590.096 316.979,586.568C305.797,581.485 297.058,574.473 285.521,571.478C274.816,568.699 270.846,557.289 282.717,556.644C292.568,557.918 290.65,558.475 300.561,557.389C300.909,557.193 301.254,556.992 301.593,556.786C302.197,555.904 302.632,555.725 302.977,555.901Z" style="fill:white;fill-rule:nonzero;"/>
                <path d="M302.147,553.228C301.533,553.34 300.669,553.683 299.779,554.764C299.759,554.774 299.739,554.786 299.718,554.799C290.779,555.764 292.374,555.204 283.06,553.999L282.817,553.968L282.573,553.981C275.942,554.341 273.207,557.624 272.841,561.061C272.623,563.11 273.284,565.429 274.841,567.586C276.825,570.336 280.308,572.88 284.851,574.059L284.851,574.059C296.236,577.015 304.84,583.979 315.875,588.996L315.875,588.996C325.606,593.419 335.442,582.1 329.54,572.017C329.642,571.682 329.704,571.524 329.769,571.405L327.434,572.783C327.434,572.783 329.878,571.213 329.878,571.213C329.878,571.213 327.565,572.554 327.565,572.554L329.9,571.175C330.004,570.986 330.131,570.746 330.313,570.249C331.486,570.272 332.659,570.302 333.845,570.333L335.723,570.383L336.402,568.631C337.997,564.515 339.112,561.5 339.914,559.229C341.742,558.321 343.09,557.497 343.844,556.858C344.776,556.069 345.166,555.262 345.298,554.694C345.44,554.085 345.441,553.51 345.265,552.986C345.951,548.288 348.142,544.085 350.403,539.883C353.013,535.029 355.727,530.182 356.964,524.805C361.122,518.934 363.696,512.026 366.449,505.25C369.06,498.823 371.827,492.511 376.664,487.564L376.676,487.552C384.495,479.357 390.902,469.728 399.125,461.977C400.265,462.726 401.072,463.875 401.794,465.113C403.09,467.332 404.079,469.877 405.329,472.004C419.029,500.53 440.332,523.555 457.009,549.978C458.787,553.01 461.311,555.616 464.56,556.783L464.58,556.79C467.906,557.927 468.163,560.908 467.609,564.026C466.891,568.056 464.768,572.411 463.214,575.405C460.315,578.127 457.857,582.037 456.449,585.652C455.375,588.411 454.932,591.023 455.172,592.905C455.433,594.956 456.424,596.38 457.899,597.125C459.488,597.928 462.256,597.98 466.227,595.59L466.439,595.448C470.208,592.655 474.462,590.297 478.379,587.539C482.641,584.538 486.507,581.074 489.145,576.301L489.243,576.124L489.313,575.935C490.513,572.684 493.224,571.022 495.831,569.245C499.305,566.875 502.68,564.393 504.335,560.033C506.657,555.145 505.474,550.705 503.008,546.565C501.082,543.333 498.306,540.315 496.51,537.373C496.292,535.723 496.304,533.999 496.141,532.326C495.911,529.975 495.362,527.722 493.952,525.737C482.805,509.311 470.576,493.737 458.831,477.813C449.424,460.278 443.861,440.692 437.311,421.802C437.438,416.24 438.433,410.535 438.843,404.868C439.299,398.568 439.041,392.318 436.479,386.323L436.456,386.269C432.746,378.543 432.425,370.35 433.399,362.131C434.283,354.675 436.232,347.195 437.908,340.014C441.831,346.803 444.791,354.297 444.813,362.368C444.607,379.057 445.366,396.485 447.891,412.806C446.636,415.388 445.287,418.261 444.661,421.143C443.873,424.767 444.162,428.401 446.607,431.696C449.521,438.083 456.384,440.677 462.731,439.717C469.164,438.744 474.929,434.185 475.465,426.681C476.228,422.625 474.746,418.823 473.377,415.078C472.403,412.414 471.417,409.784 472.782,406.972L472.9,406.729L472.967,406.466C475.969,394.699 474.016,382.31 474.618,370.262L474.618,369.998C473.926,355.894 476.61,340.788 470.413,327.663C464.762,311.315 457.092,295.885 451.366,279.569L451.287,279.368C448.281,272.613 443.047,268.171 437.433,264.106C432.477,260.518 427.212,257.247 423.39,252.467C421.898,249.182 422.877,246.212 424.354,243.33C426.3,239.531 429.087,235.853 430.442,232.053C433.264,224.36 435.305,214.674 434.498,205.918C433.638,196.592 429.607,188.318 420.349,184.07L420.154,183.98L419.948,183.923C408.317,180.704 394.049,180.282 384.417,189.142L384.219,189.324L384.061,189.542C377.58,198.502 375.839,210.619 374.722,221.691C372.187,226.584 372.069,231.914 372.77,237.346C373.413,242.328 374.756,247.393 375.037,252.19L375.11,253.445L376.125,254.187C378.386,255.84 380.929,256.807 383.486,257.745C385.207,258.377 386.937,258.988 388.526,259.939C388.497,263.461 386.357,265.612 383.977,267.63C380.373,270.685 376.259,273.515 374.402,277.958C365.502,296.785 364.584,318.682 356.516,337.856C345.25,351.252 332.511,364.016 323.049,378.569C320.854,379.422 318.559,380.074 316.382,380.966C313.554,382.125 310.917,383.665 308.777,386.235L308.421,386.662L308.266,387.196C305.413,396.998 307.507,409.236 317.685,413.114C323.806,415.48 328.606,413.114 332.228,408.771C335.112,405.313 337.186,400.509 338.546,396.416C345.125,391.946 350.633,385.824 356.282,379.97C361.058,375.021 365.929,370.258 371.811,367.103C373.853,375.196 372.596,384.016 373.947,392.304L373.948,392.306C374.996,398.69 373.019,404.274 370.351,409.661C367.421,415.577 363.667,421.267 361.402,427.329C340.865,466.747 321.269,506.765 302.541,547.167L302.359,547.558L302.311,547.987C302.114,549.719 302.134,551.468 302.164,553.216L302.147,553.228ZM326.841,571.76L327.434,572.783L326.838,571.772C326.779,571.972 326.716,572.196 326.646,572.45C332.3,580.401 324.741,590.096 316.979,586.568C305.797,581.485 297.058,574.473 285.521,571.478C274.816,568.699 270.846,557.289 282.717,556.644C292.568,557.918 290.65,558.475 300.561,557.389C300.909,557.193 301.254,556.992 301.593,556.786C302.197,555.904 302.632,555.725 302.977,555.901C303.632,555.458 304.26,554.996 304.852,554.514C304.827,552.436 304.726,550.349 304.96,548.288C323.694,507.874 343.297,467.843 363.845,428.409C368.298,416.341 378.869,405.816 376.579,391.875C375.042,382.447 376.746,372.35 373.446,363.359C358.555,369.719 349.832,385.908 336.295,394.711C333.788,402.659 328.382,414.397 318.639,410.624C309.782,407.252 308.344,396.468 310.826,387.941C314.511,383.517 319.984,382.75 324.831,380.725C334.348,365.857 347.375,352.905 358.814,339.267C367.02,320.019 367.872,297.97 376.847,279.025C380.214,270.872 392.339,269.071 391.11,258.456C386.999,255.441 381.81,255.04 377.699,252.034C377.131,242.321 372.301,231.519 377.323,222.484C378.393,211.727 379.905,199.837 386.222,191.105C395.163,182.881 408.441,183.505 419.236,186.493C435.857,194.12 433.333,216.436 427.935,231.145C425.303,238.548 416.964,245.416 421.108,253.881C429.088,264.084 443.243,267.849 448.85,280.452C454.591,296.81 462.286,312.277 467.943,328.68C474.068,341.515 471.277,356.322 471.954,370.129C471.361,382.001 473.341,394.212 470.383,405.807C466.957,412.863 474.302,419.071 472.815,426.34C472.071,438.783 453.571,441.209 448.917,430.327C444.722,424.975 448.131,418.402 450.655,413.219C448.048,396.798 447.271,379.209 447.48,362.396C447.463,352.763 443.544,343.888 438.606,336.003C437.753,336.021 436.909,336.038 436.074,336.056C432.431,352.62 426.205,371.083 434.027,387.371C438.806,398.556 434.795,410.713 434.637,422.228C441.321,441.45 446.97,461.403 456.571,479.242C468.336,495.199 480.594,510.799 491.766,527.265C494.048,530.458 493.346,534.588 493.947,538.28C497.515,544.453 505.788,550.937 501.877,558.992C499.019,566.725 489.627,567.385 486.811,575.011C481.94,583.824 472.422,587.695 464.852,593.305C453.269,600.276 457.688,583.901 465.361,577.054C468.695,570.676 474.988,557.529 465.462,554.273C462.779,553.31 460.749,551.098 459.287,548.591C442.642,522.207 421.342,499.24 407.68,470.742C405.132,466.46 403.694,460.404 398.622,458.816C389.723,466.799 383.013,477.048 374.758,485.7C364.597,496.091 362.934,512.102 354.478,523.697C352.238,534.4 343.582,542.794 342.495,553.676C343.391,554.203 341.444,555.582 337.761,557.307C336.949,559.657 335.753,562.924 333.915,567.668C332.047,567.618 330.209,567.571 328.353,567.554C327.908,569.175 327.72,569.605 327.565,569.887L327.434,570.116C327.304,570.353 327.151,570.695 326.841,571.76Z" style="fill:rgb(30,80,163);"/>
            </g>
        </g>
    </g>
</svg>
