<?xml version="1.0" encoding="UTF-8" standalone="no"?>
<!DOCTYPE svg PUBLIC "-//W3C//DTD SVG 1.1//EN" "http://www.w3.org/Graphics/SVG/1.1/DTD/svg11.dtd">
<!-- GeoHints -->
<svg width="100%" height="100%" viewBox="0 0 769 794" version="1.1" xmlns="http://www.w3.org/2000/svg" xmlns:xlink="http://www.w3.org/1999/xlink" xml:space="preserve" xmlns:serif="http://www.serif.com/" style="fill-rule:evenodd;clip-rule:evenodd;stroke-linejoin:round;stroke-miterlimit:2;">
    <g transform="matrix(1,0,0,1,-30.9579,-77.3739)">
        <g transform="matrix(1.80405,0,0,1.65198,28.3425,74.987)">
            <g transform="matrix(1,0,0,1,8.41875,7.575)">
                <path d="M205.812,-6.125C205.592,-6.123 205.932,-6.151 206.906,-6.094C211.074,-5.848 215.724,-4.275 219.156,-1.75C222.589,0.775 224.8,3.7 226.75,6.625L227.031,7.063L227.281,7.5L417.5,327.001L419.062,329.844L419.062,450.719C418.655,458.858 415.019,462.498 411.375,466.188C407.731,469.877 403.945,473.906 395.25,473.906L16.844,473.906C8.148,473.906 4.362,469.877 0.719,466.188C-2.925,462.498 -6.53,458.858 -6.938,450.719L-6.969,450.406L-6.969,329.844L-5.406,327.001L184.812,7.5L185.062,7.063L185.344,6.625C187.294,3.7 189.505,0.775 192.937,-1.75C196.37,-4.275 201.051,-5.848 205.219,-6.094L205.5,-6.125L205.812,-6.125Z" style="fill:white;"/>
            </g>
            <g transform="matrix(1,0,0,1,8.41875,7.575)">
                <path d="M205.933,6.379C201.5,6.641 198.868,8.883 195.745,13.567L5.527,333.054L5.527,450.098C5.748,454.522 12.41,461.411 16.839,461.411L395.245,461.411C399.674,461.411 406.336,454.522 406.558,450.098L406.558,333.054L216.339,13.567C213.216,8.883 210.584,6.641 206.152,6.379C206.078,6.378 206.004,6.375 205.933,6.379Z" style="fill:rgb(30,80,163);"/>
            </g>
        </g>
        <g transform="matrix(0.773295,0,0,1,95.5145,1.42109e-14)">
            <path d="M210.31,739.46C216.05,739.46 221.8,739.38 227.55,739.47C227.36,758.47 227.7,777.49 227.03,796.48C221.43,796.36 215.83,796.31 210.23,796.44C210.28,777.42 210.01,758.48 210.31,739.46Z" style="fill:rgb(228,227,226);fill-rule:nonzero;"/>
            <path d="M138.51,740.39C150.97,740.21 163.43,740.35 175.88,740.29C176.3,743 176.27,745.75 175.48,748.4C162.8,747.39 149.91,749.72 137.38,747.46C137.73,745.09 138.15,742.74 138.51,740.39Z" style="fill:rgb(228,227,226);fill-rule:nonzero;"/>
            <path d="M361.61,740.43C367.27,740.05 372.92,739.8 378.57,740.46C378.55,750.09 378.6,759.71 378.67,769.34C383.95,769.32 389.23,769.24 394.52,769.34C394.95,772.69 395.37,776.06 395.46,779.45C389.83,779.93 384.17,779.89 378.54,779.53C377.91,787.91 379.45,796.89 377.89,804.88C372.94,805.45 366.15,806.29 361.71,804.29C361.29,783.01 361.81,761.72 361.61,740.43Z" style="fill:rgb(228,227,226);fill-rule:nonzero;"/>
            <path d="M456.51,747.48C461.93,746.61 467.39,747.42 472.84,747.32C474.1,752.1 473.34,757.07 473.42,761.94C490.68,762.36 508.22,763.03 525.43,761.54C525.34,756.76 525.44,751.97 525.36,747.19C530.66,745.96 536.13,746.81 541.51,746.57C542.88,761.86 542.19,777.77 541.84,792.9C531.15,794.99 519.39,792.54 508.35,794.23C508.43,799.62 508.09,805.02 508.41,810.41C526.43,809.87 544.52,809.07 562.53,810.41C561.97,813.6 563.54,817.73 561.45,820.36C520.16,820.21 478.99,820.64 437.69,820.4C436.26,817.74 434.72,809.4 439.96,810.38C456.69,810.34 473.43,810.53 490.15,810.2C492.36,805.32 491.35,798.92 490.65,793.57C479.29,793.83 467.93,793.61 456.58,793.54C456.7,778.18 456.33,762.83 456.51,747.48M473.55,772.48C473.52,776.11 473.49,779.76 473.57,783.4C490.85,783.63 508.12,783.33 525.4,783.36C524.59,779.75 527.26,773.65 523.16,771.79C506.67,772.33 489.97,771.09 473.55,772.48Z" style="fill:rgb(228,227,226);fill-rule:nonzero;"/>
            <path d="M618.4,748.36C647.83,749.16 677.36,746.45 706.68,748.36C706.58,751.49 706.59,754.63 706.66,757.78C683.02,759.33 659.2,757.85 635.49,758.47C635.47,765.17 635.39,771.88 635.46,778.58C659.77,779 684.09,777.9 708.39,778.64C710.75,781.07 709,785.34 709.52,788.5C697.16,789.69 684.75,789.2 672.35,789.42C672.4,795.43 670.4,801.69 672.51,807.54C690.15,807.34 707.81,807.16 725.45,807.46C725.47,810.82 725.52,814.18 725.59,817.56C683.82,817.1 641.88,818.62 600.33,817.65C600.4,814.46 600.37,811.27 600.35,808.09C618.35,806.9 636.48,808.04 654.52,807.4C654.72,801.46 654.59,795.52 654.6,789.58C642.6,789.36 630.59,789.45 618.58,789.39C618.22,775.71 618.45,762.03 618.4,748.36Z" style="fill:rgb(228,227,226);fill-rule:nonzero;"/>
            <path d="M278.19,749.34C299.74,748.44 321.46,748.92 343.1,749.28C343.19,752.37 343.23,755.46 343.33,758.56C327.49,760.46 311.38,758.72 295.44,759.49C295.91,765.86 294.02,772.32 295.46,778.57C316.22,778.92 336.88,777.22 357.52,775.25C358.33,778.39 359.02,781.56 359.74,784.73C332.76,787.81 305.54,788.99 278.36,788.71C277.33,775.62 278.34,762.46 278.19,749.34Z" style="fill:rgb(228,227,226);fill-rule:nonzero;"/>
            <path d="M118.38,750.52C144.43,750.15 170.48,750.88 196.52,750.29C196.51,753.33 196.5,756.39 196.44,759.44C170.94,759.41 145.44,759.6 119.94,759.45C115.53,759.13 118.26,753.36 118.38,750.52Z" style="fill:rgb(228,227,226);fill-rule:nonzero;"/>
            <path d="M134.98,763.07C150.82,760.57 167.64,759.98 183.14,764.7C188.68,765.73 193.14,772.72 188.25,777.2C181.85,781.28 174.02,782.53 166.54,782.68C166.4,783.67 166.26,784.68 166.12,785.69C177.95,785.21 189.88,786.14 201.64,784.41C202.69,787.28 202.78,790.35 202.9,793.38C173.24,793.65 143.21,796.16 113.8,795.35C113.51,792.53 111.77,789.57 112.76,786.8C124.36,786.24 136,786.69 147.63,786.52C147.7,785.47 147.78,784.42 147.86,783.39C139.5,781.68 128.26,782.94 122.93,775C120.06,767.37 129.19,764.08 134.98,763.07M140.27,770.7C139.96,775.3 145.72,775.12 148.98,775.53C156.86,775.23 165.23,776.96 172.69,773.7C172.6,772.69 172.51,771.69 172.43,770.7C162.06,767.28 150.74,768.5 140.27,770.7Z" style="fill:rgb(228,227,226);fill-rule:nonzero;"/>
            <path d="M289.33,796.29C294.8,796.22 300.27,796.34 305.75,796.36C305.77,803.1 305.25,809.87 306.03,816.59C309.03,816.65 312.04,816.74 315.02,817.12C337.76,816.11 360.59,816.73 383.36,816.6C385.71,819.1 383.94,823.31 384.47,826.51C352.73,827.1 320.92,827.82 289.33,826.52C289.45,816.44 289.13,806.36 289.33,796.29Z" style="fill:rgb(228,227,226);fill-rule:nonzero;"/>
            <path d="M161.02,798.88C180.63,798.58 201.06,796.77 219.93,803.14C227.13,804.82 232.24,814.25 225.99,819.93C221.529,824.703 167.532,834.439 138.76,824.14C132.64,822.54 126.83,815.69 130.62,809.43C137.57,800.06 150.59,800.5 161.02,798.88M159.98,807.84C155.12,808.76 148.64,808.87 146.25,814.05C150.91,820.61 160.01,819.01 166.98,820.28C180.75,820.38 195.01,821.24 208.32,817.27C212.63,816.35 212.78,810.53 208.34,809.71C192.65,805.46 176.02,806.61 159.98,807.84Z" style="fill:rgb(228,227,226);fill-rule:nonzero;"/>
        </g>
        <g transform="matrix(1.59153,0,0,1.59153,-209.556,-53.9008)">
            <g>
                <path d="M478.08,431.641C490.86,431.551 505.787,431.542 516.62,431.641C529.124,452.152 536.708,468.241 548.75,487.802C529.905,487.861 515.72,487.797 497.511,487.802C490.076,467.79 484.772,450.344 478.08,431.641Z" style="fill:white;fill-rule:nonzero;"/>
                <path d="M442.56,431.634C443.31,433.194 456.82,474.452 460.96,487.802C439.429,488.037 430.254,487.965 410.86,487.802C409.65,469.152 407.94,450.324 407.27,431.634C420.077,431.745 431.239,431.653 442.56,431.634Z" style="fill:white;"/>
                <path d="M443.126,431.362C443.021,431.144 442.801,431.005 442.559,431.006C431.24,431.025 420.08,431.116 407.275,431.006C407.104,431.004 406.939,431.073 406.82,431.196C406.7,431.319 406.636,431.485 406.642,431.657C407.312,450.353 409.023,469.187 410.233,487.843C410.254,488.172 410.526,488.428 410.855,488.431C430.253,488.594 439.43,488.665 460.967,488.431C461.165,488.428 461.351,488.333 461.468,488.172C461.585,488.012 461.619,487.806 461.56,487.616C457.414,474.245 443.877,432.924 443.126,431.362ZM442.56,431.634C443.31,433.194 456.82,474.452 460.96,487.802C439.429,488.037 430.254,487.965 410.86,487.802C409.65,469.152 407.94,450.324 407.27,431.634C420.077,431.745 431.239,431.653 442.56,431.634Z" style="fill:rgb(30,80,163);"/>
                <path d="M323.31,487.802C327.262,475.544 334.284,458.456 344.925,431.634C354.98,431.741 372.211,431.534 380.85,431.634C378.122,450.968 375.51,468.982 373.42,487.802C356.71,487.912 340.01,488.072 323.31,487.802Z" style="fill:white;"/>
                <path d="M322.712,487.61C322.651,487.799 322.683,488.006 322.799,488.168C322.915,488.33 323.101,488.427 323.3,488.431C340.005,488.701 356.709,488.541 373.424,488.431C373.743,488.429 374.009,488.188 374.044,487.872C376.134,469.058 378.745,451.05 381.472,431.722C381.497,431.543 381.444,431.362 381.327,431.225C381.209,431.088 381.038,431.008 380.857,431.006C372.218,430.905 354.987,431.112 344.932,431.006C344.672,431.003 344.437,431.161 344.341,431.402C333.693,458.243 326.667,475.343 322.712,487.61ZM323.31,487.802C327.262,475.544 334.284,458.456 344.925,431.634C354.98,431.741 372.211,431.534 380.85,431.634C378.122,450.968 375.51,468.982 373.42,487.802C356.71,487.912 340.01,488.072 323.31,487.802Z" style="fill:rgb(30,80,163);"/>
                <path d="M269.208,431.641C281.428,431.701 295.1,431.55 307.32,431.64C299.88,450.45 292.95,469.212 285,487.802C268.13,487.992 251.957,488.005 234.3,487.802C245.11,470.062 266.703,435.507 269.208,431.641Z" style="fill:white;fill-rule:nonzero;"/>
            </g>
            <g transform="matrix(0.628326,0,0,0.628326,151.121,82.4833)">
                <path d="M303.231,493.474C303.163,492.549 303.255,491.724 303.529,491.031C315.635,460.482 339.647,433.525 340.458,399.397C344.406,380.393 341.044,361.142 339.982,342.04L339.933,341.131C315.615,369.476 294.426,363.319 261.402,379.73C248.972,383.534 242.176,366.918 252.553,360.043C284.55,344.169 304.76,344.33 321.71,309.714C328.331,299.48 330.304,286.462 339.026,277.645L339.212,277.489C347.122,270.941 357.936,269.689 366.337,263.83C366.369,262.827 366.416,260.806 366.432,259.788C353.573,256.716 355.562,243.331 348.225,235.278C352.713,225.872 352.665,216.403 350.485,206.726C364.681,190.954 394.825,194.042 405.663,212.71C415.483,226.859 408.13,246.562 396.003,256.748C396.051,259.66 396.146,262.589 396.242,265.501C397.165,266.177 398.113,266.814 399.078,267.421C404.577,268.231 427.698,277.975 434.097,290.26C444.126,307.718 449.807,324.572 455.886,343.756C462.323,367.501 457.776,392.229 456.93,416.367C457.472,429.094 437.902,430.949 434.684,419.248C431.679,402.088 440.911,384.942 436.651,367.768C434.48,355.031 428.385,343.556 420.933,333.126C414.339,370.787 415.658,409.958 426.608,446.697C432.162,464.872 429.695,486.024 441.027,502.098C464.025,525.669 480.051,555.351 489.378,586.799C494.646,590.317 501.092,597.192 496.572,603.717C480.545,610.497 464.9,621.129 446.661,619.219C436.133,618.116 436.396,608.627 448.205,603.924C453.839,601.68 459.043,598.433 462.417,593.261C454.014,587.07 452.709,575.945 447.186,567.653C435.345,544.894 415.61,528.136 398.04,510.167C389.207,489.557 383.525,467.514 375.886,446.331C362.893,466.46 350.921,487.381 339.627,508.502C335.224,534.465 327.759,559.926 317.547,584.203C315.643,584.603 313.772,584.999 311.889,585.428C311.753,589.425 311.478,586.799 311.342,590.795C318.98,597.481 313.666,609.117 304.959,607.417C292.415,604.966 281.879,599.975 269.48,599.725C257.974,599.492 251.205,588.9 263.066,585.385C273.58,584.276 271.448,585.375 281.998,581.592C289.106,558.225 296.455,534.853 302.32,511.143C301.309,504.139 301.767,498.283 303.231,493.474Z" style="fill:white;fill-rule:nonzero;"/>
                <path d="M338.504,278.188L337.512,275.435C341.686,271.979 346.609,269.886 351.615,267.919C355.753,266.292 359.951,264.756 363.709,262.375C363.714,262.177 363.719,261.974 363.724,261.771C357.745,259.671 354.919,255.388 352.806,250.45C350.892,245.978 349.717,240.875 346.254,237.074C345.524,236.272 345.351,235.108 345.818,234.13C350.033,225.297 349.931,216.399 347.884,207.312C347.693,206.468 347.924,205.585 348.503,204.942C356.165,196.43 368.103,192.927 379.615,194.151C391.081,195.37 402.057,201.269 407.912,211.273C418.162,226.157 411.157,246.75 398.692,257.944C398.735,259.991 398.797,262.044 398.864,264.091C399.261,264.364 399.662,264.63 400.066,264.89C403.986,265.698 413.53,269.41 422.037,274.907C428.143,278.853 433.682,283.728 436.433,288.972C446.546,306.589 452.294,323.591 458.428,342.95C458.44,342.986 458.45,343.022 458.46,343.058C464.958,367.031 460.462,391.993 459.598,416.356C459.883,424.266 454.037,428.879 447.517,429.618C441.06,430.349 434.1,427.182 432.113,419.955C432.091,419.873 432.072,419.791 432.058,419.708C430.503,410.832 432.058,401.958 433.506,393.084C434.848,384.862 436.104,376.64 434.062,368.41C434.046,368.346 434.033,368.281 434.022,368.216C432.294,358.079 427.978,348.778 422.489,340.179C417.223,375.393 418.969,411.726 429.161,445.928C431.972,455.131 432.773,465.084 434.286,474.774C435.706,483.868 437.751,492.734 443.085,500.389C466.085,524.018 482.199,553.681 491.664,585.138C494.38,587.081 497.225,589.779 498.959,592.804C501.17,596.661 501.695,601.005 498.764,605.236C498.476,605.651 498.076,605.976 497.611,606.173C489.58,609.57 481.645,613.93 473.433,617.204C464.839,620.63 455.948,622.872 446.383,621.871C446.383,621.871 446.383,621.871 446.383,621.871C439.165,621.115 436.087,616.976 436.397,612.728C436.672,608.954 440.025,604.312 447.218,601.447C451.616,599.695 455.756,597.312 458.781,593.697C455.4,590.53 453.186,586.551 451.29,582.34C449.283,577.881 447.648,573.157 444.967,569.131C444.914,569.052 444.865,568.969 444.821,568.884C433.102,546.36 413.523,529.815 396.133,512.032C395.903,511.796 395.719,511.52 395.589,511.218C387.447,492.22 381.971,472.009 375.188,452.37C363.438,470.897 352.526,490.052 342.183,509.376C337.737,535.393 330.24,560.905 320.005,585.237C319.665,586.044 318.952,586.633 318.096,586.813C316.862,587.072 315.642,587.33 314.423,587.595C314.371,588.064 314.315,588.332 314.265,588.535C314.193,588.827 314.123,588.911 314.064,589.71C322.428,598.414 315.275,612.148 304.448,610.034C304.448,610.034 304.448,610.034 304.448,610.034C292.062,607.615 281.669,602.638 269.426,602.391C269.426,602.391 269.426,602.391 269.426,602.391C264.573,602.293 260.457,600.569 257.802,598.278C255.729,596.489 254.511,594.327 254.241,592.224C253.789,588.696 255.757,584.77 262.309,582.828C262.465,582.782 262.625,582.75 262.787,582.733C272.513,581.707 271.051,582.651 279.838,579.532C286.76,556.801 293.882,534.061 299.608,511.003C298.658,503.986 299.126,498.066 300.546,493.149C300.518,491.987 300.695,490.945 301.05,490.049C307.134,474.695 316.2,460.238 323.857,445.337C331.291,430.872 337.397,415.985 337.792,399.333C337.796,399.172 337.815,399.012 337.847,398.854C341.379,381.857 338.944,364.66 337.672,347.555C326.688,358.806 316.165,363.73 304.757,367.441C292.4,371.462 278.957,373.984 262.588,382.118C262.458,382.183 262.322,382.237 262.182,382.28C246.713,387.014 238.166,366.376 251.08,357.82C251.172,357.759 251.268,357.703 251.368,357.654C264.189,351.294 275.12,347.501 284.709,343.023C298.565,336.552 309.502,328.583 319.315,308.541C319.362,308.446 319.414,308.354 319.471,308.265C322.7,303.275 324.777,297.596 327.129,292.099C329.672,286.154 332.53,280.419 337.13,275.769C336.374,276.534 336.151,277.679 336.565,278.672C336.719,279.042 336.951,279.363 337.236,279.621C329.995,288.33 327.852,300.22 321.71,309.714C304.76,344.33 284.55,344.169 252.553,360.043C242.176,366.918 248.972,383.534 261.402,379.73C294.426,363.319 315.615,369.476 339.933,341.131L339.982,342.04C341.044,361.142 344.406,380.393 340.458,399.397C339.647,433.525 315.635,460.482 303.529,491.031C303.255,491.724 303.163,492.549 303.231,493.474C301.767,498.283 301.309,504.139 302.32,511.143C296.455,534.853 289.106,558.225 281.998,581.592C271.448,585.375 273.58,584.276 263.066,585.385C251.205,588.9 257.974,599.492 269.48,599.725C281.879,599.975 292.415,604.966 304.959,607.417C313.666,609.117 318.98,597.481 311.342,590.795C311.478,586.799 311.753,589.425 311.889,585.428C313.772,584.999 315.643,584.603 317.547,584.203C327.759,559.926 335.224,534.465 339.627,508.502C350.921,487.381 362.893,466.46 375.886,446.331C383.525,467.514 389.207,489.557 398.04,510.167C415.61,528.136 435.345,544.894 447.186,567.653C452.709,575.945 454.014,587.07 462.417,593.261C459.043,598.433 453.839,601.68 448.205,603.924C436.396,608.627 436.133,618.116 446.661,619.219C464.9,621.129 480.545,610.497 496.572,603.717C501.092,597.192 494.646,590.317 489.378,586.799C480.051,555.351 464.025,525.669 441.027,502.098C429.695,486.024 432.162,464.872 426.608,446.697C415.658,409.958 414.339,370.787 420.933,333.126C428.385,343.556 434.48,355.031 436.651,367.768C440.911,384.942 431.679,402.088 434.684,419.248C437.902,430.949 457.472,429.094 456.93,416.367C457.776,392.229 462.323,367.501 455.886,343.756C449.807,324.572 444.126,307.718 434.097,290.26C427.698,277.975 404.577,268.231 399.078,267.421C398.113,266.814 397.165,266.177 396.242,265.501C396.146,262.589 396.051,259.66 396.003,256.748C408.13,246.562 415.483,226.859 405.663,212.71C394.825,194.042 364.681,190.954 350.485,206.726C352.665,216.403 352.713,225.872 348.225,235.278C355.562,243.331 353.573,256.716 366.432,259.788C366.416,260.806 366.369,262.827 366.337,263.83C357.936,269.689 347.122,270.941 339.212,277.489L339.026,277.645C338.849,277.824 338.675,278.004 338.504,278.188ZM338.498,278.194L337.497,275.447C337.497,275.447 337.32,275.595 337.32,275.595L338.327,278.377L338.498,278.194Z" style="fill:rgb(30,80,163);"/>
            </g>
        </g>
    </g>
</svg>
