<?xml version="1.0" encoding="UTF-8" standalone="no"?>
<!DOCTYPE svg PUBLIC "-//W3C//DTD SVG 1.1//EN" "http://www.w3.org/Graphics/SVG/1.1/DTD/svg11.dtd">
<!-- GeoHints -->
<svg width="100%" height="100%" viewBox="32 35 624 515" version="1.1" xmlns="http://www.w3.org/2000/svg" xmlns:xlink="http://www.w3.org/1999/xlink" xml:space="preserve" xmlns:serif="http://www.serif.com/" style="fill-rule:evenodd;clip-rule:evenodd;stroke-linejoin:round;stroke-miterlimit:2;">
    <g transform="matrix(1.80493,0,0,1.43292,-25.8855,-173.744)">
        <path d="M186.039,159.053C190.09,150.9 197.188,145.949 204.824,145.949C212.46,145.949 219.558,150.9 223.609,159.053C259.278,230.83 336.589,386.404 374.074,461.837C378.35,470.442 378.581,481.292 374.676,490.172C370.772,499.053 363.348,504.563 355.289,504.563L54.359,504.563C46.3,504.563 38.876,499.053 34.972,490.172C31.067,481.292 31.298,470.442 35.574,461.837C73.059,386.404 150.37,230.83 186.039,159.053Z" style="fill:rgb(235,235,235);"/>
    </g>
    <g transform="matrix(1.70021,0,0,1.34246,-4.04467,-138.397)">
        <path d="M189.891,151.303C193.121,144.803 198.76,140.859 204.824,140.859C210.888,140.859 216.527,144.803 219.757,151.303C254.661,221.54 341.411,396.109 378.286,470.313C381.708,477.199 381.904,485.896 378.799,493.019C375.693,500.141 369.777,504.563 363.353,504.563C291.547,504.563 118.101,504.563 46.295,504.563C39.871,504.563 33.955,500.141 30.849,493.019C27.744,485.896 27.94,477.199 31.362,470.313C68.237,396.109 154.987,221.54 189.891,151.303Z" style="fill:rgb(209,8,0);"/>
    </g>
    <g transform="matrix(1.25667,0,0,1,86.8013,-12.4143)">
        <path d="M204.824,121.252L395.306,504.563L14.342,504.563L204.824,121.252Z" style="fill:rgb(255,174,0);"/>
    </g>
    <g transform="matrix(1,0,0,1,-55.8018,-11.6321)">
        <g transform="matrix(1.15248,0,0,1.15248,-56.5828,-47.3234)">
            <path d="M389.819,418.511C389.819,418.511 380.237,457.741 378.37,465.38C364.26,465.73 350.584,465.51 336.05,465.366C337.62,458.456 350.131,425.561 351.151,418.511C364.379,418.986 365.329,419.054 389.819,418.511Z"/>
        </g>
        <g transform="matrix(1.15248,0,0,1.15248,-56.5828,-47.3234)">
            <path d="M416.485,418.511C439.944,418.438 441.185,418.672 455.747,418.511C458.097,425.651 470.33,458.036 472.12,465.366C457.746,465.74 446.893,465.83 430.36,465.366C428.03,457.537 418.911,426.335 416.485,418.511Z"/>
        </g>
        <g transform="matrix(1.11457,0,0,1.11457,-41.3753,-51.2543)">
            <path d="M384.27,219.68C390.99,212.18 403.88,209.87 411.02,218.02C413.2,222.11 413.39,226.92 414.42,231.38C414.81,237.61 409.46,242.16 408.14,247.96C414.81,252.56 420.63,258.68 423.62,266.32C428.62,278.16 434.52,289.59 439.72,301.33C442.37,312.07 445.72,322.81 446.74,333.86C449.68,337.65 448.82,342.27 445.87,345.73C443.29,345.5 439.95,346.23 438.38,343.57C433.48,333.04 431.63,321.51 428.91,310.28C427.31,303.21 421.89,298.07 417.52,292.61C417.27,307.14 420.18,321.52 421.39,335.98C425.59,351 432.08,365.32 437.4,379.99C438.47,382.92 440.33,385.46 442.24,387.9C451.28,399.23 459.71,411.05 469.3,421.95C469.37,423.2 469.46,424.46 469.55,425.72C472.6,428.07 475.35,430.95 475.71,435C471.79,437.82 467.881,440.672 463.99,443.52C443.941,458.196 441.735,437.838 457.551,429.552C449.201,421.642 430.28,404.94 422.21,396.78C415.15,384.62 409.01,371.9 401.93,359.73C394.5,368.55 388.57,378.49 381.83,387.83C374.27,396.93 374.42,409.56 368.29,419.5C364.258,426.038 362.354,434.203 362.626,444.572C362.873,453.969 351.14,450.126 342.04,445.33C336.12,442.21 324.46,440.47 327.11,431.28C331.73,431.65 336.32,432.3 340.95,432.5C348.93,418.15 359.09,403.91 360.08,386.98C365.79,370.48 374.85,355.22 380.55,338.7C381.65,329.05 381.51,319.1 380.46,309.45C371.3,320.82 357.58,327.06 344.2,331.95C341.72,334.33 337.95,335.49 335.19,332.81C330.2,329.25 332.82,321.28 338.37,319.96C338.86,318.63 339.33,317.3 339.81,315.98C351.4,308.68 365.88,303.37 372.28,290.34C375.16,282.2 376.17,273.51 378.15,265.14C381.24,258.44 388.52,255.3 393.67,250.43C393.13,249.17 392.59,247.92 392.06,246.68C390.55,245.99 389.04,245.3 387.54,244.62C386.99,239.95 383.58,235.71 384.76,230.92C385.58,227.18 384.68,223.41 384.27,219.68Z" style="fill-rule:nonzero;"/>
        </g>
        <g transform="matrix(1.15248,0,0,1.15248,-56.5828,-47.3234)">
            <path d="M489.98,418.511C505.647,418.648 513.201,418.542 527.97,418.511C537.79,433.031 545.87,450.356 554.91,465.366C537.421,466.11 527.297,465.64 508.94,465.39C502.64,450.27 496.34,433.601 489.98,418.511Z" style="fill-rule:nonzero;"/>
        </g>
        <g transform="matrix(1.15248,0,0,1.15248,-56.5828,-47.3234)">
            <path d="M283.566,418.511C298.208,418.841 311.124,418.354 324.898,418.511C318.078,432.781 305.03,451.536 297.4,465.366C280.815,465.24 271.191,466.06 252.86,465.366C261,451.146 274.916,432.421 283.566,418.511Z" style="fill-rule:nonzero;"/>
        </g>
    </g>
</svg>
