<?xml version="1.0" encoding="UTF-8" standalone="no"?>
<!DOCTYPE svg PUBLIC "-//W3C//DTD SVG 1.1//EN" "http://www.w3.org/Graphics/SVG/1.1/DTD/svg11.dtd">
<!-- GeoHints -->
<svg width="100%" height="100%" viewBox="0 0 769 794" version="1.1" xmlns="http://www.w3.org/2000/svg" xmlns:xlink="http://www.w3.org/1999/xlink" xml:space="preserve" xmlns:serif="http://www.serif.com/" style="fill-rule:evenodd;clip-rule:evenodd;stroke-linejoin:round;stroke-miterlimit:2;">
    <g transform="matrix(1,0,0,1,-30.9579,-77.3739)">
        <g transform="matrix(1.80405,0,0,1.65198,28.3425,74.987)">
            <g transform="matrix(1,0,0,1,8.41875,7.575)">
                <path d="M205.812,-6.125C205.592,-6.123 205.932,-6.151 206.906,-6.094C211.074,-5.848 215.724,-4.275 219.156,-1.75C222.589,0.775 224.8,3.7 226.75,6.625L227.031,7.063L227.281,7.5L417.5,327.001L419.062,329.844L419.062,450.719C418.655,458.858 415.019,462.498 411.375,466.188C407.731,469.877 403.945,473.906 395.25,473.906L16.844,473.906C8.148,473.906 4.362,469.877 0.719,466.188C-2.925,462.498 -6.53,458.858 -6.938,450.719L-6.969,450.406L-6.969,329.844L-5.406,327.001L184.812,7.5L185.062,7.063L185.344,6.625C187.294,3.7 189.505,0.775 192.937,-1.75C196.37,-4.275 201.051,-5.848 205.219,-6.094L205.5,-6.125L205.812,-6.125Z" style="fill:white;"/>
            </g>
            <g transform="matrix(1,0,0,1,8.41875,7.575)">
                <path d="M205.933,6.379C201.5,6.641 198.868,8.883 195.745,13.567L5.527,333.054L5.527,450.098C5.748,454.522 12.41,461.411 16.839,461.411L395.245,461.411C399.674,461.411 406.336,454.522 406.558,450.098L406.558,333.054L216.339,13.567C213.216,8.883 210.584,6.641 206.152,6.379C206.078,6.378 206.004,6.375 205.933,6.379Z" style="fill:rgb(30,80,163);"/>
            </g>
        </g>
        <g transform="matrix(0.773295,0,0,1,95.5145,1.42109e-14)">
            <path d="M210.31,739.46C216.05,739.46 221.8,739.38 227.55,739.47C227.36,758.47 227.7,777.49 227.03,796.48C221.43,796.36 215.83,796.31 210.23,796.44C210.28,777.42 210.01,758.48 210.31,739.46Z" style="fill:rgb(228,227,226);fill-rule:nonzero;"/>
            <path d="M138.51,740.39C150.97,740.21 163.43,740.35 175.88,740.29C176.3,743 176.27,745.75 175.48,748.4C162.8,747.39 149.91,749.72 137.38,747.46C137.73,745.09 138.15,742.74 138.51,740.39Z" style="fill:rgb(228,227,226);fill-rule:nonzero;"/>
            <path d="M361.61,740.43C367.27,740.05 372.92,739.8 378.57,740.46C378.55,750.09 378.6,759.71 378.67,769.34C383.95,769.32 389.23,769.24 394.52,769.34C394.95,772.69 395.37,776.06 395.46,779.45C389.83,779.93 384.17,779.89 378.54,779.53C377.91,787.91 379.45,796.89 377.89,804.88C372.94,805.45 366.15,806.29 361.71,804.29C361.29,783.01 361.81,761.72 361.61,740.43Z" style="fill:rgb(228,227,226);fill-rule:nonzero;"/>
            <path d="M456.51,747.48C461.93,746.61 467.39,747.42 472.84,747.32C474.1,752.1 473.34,757.07 473.42,761.94C490.68,762.36 508.22,763.03 525.43,761.54C525.34,756.76 525.44,751.97 525.36,747.19C530.66,745.96 536.13,746.81 541.51,746.57C542.88,761.86 542.19,777.77 541.84,792.9C531.15,794.99 519.39,792.54 508.35,794.23C508.43,799.62 508.09,805.02 508.41,810.41C526.43,809.87 544.52,809.07 562.53,810.41C561.97,813.6 563.54,817.73 561.45,820.36C520.16,820.21 478.99,820.64 437.69,820.4C436.26,817.74 434.72,809.4 439.96,810.38C456.69,810.34 473.43,810.53 490.15,810.2C492.36,805.32 491.35,798.92 490.65,793.57C479.29,793.83 467.93,793.61 456.58,793.54C456.7,778.18 456.33,762.83 456.51,747.48M473.55,772.48C473.52,776.11 473.49,779.76 473.57,783.4C490.85,783.63 508.12,783.33 525.4,783.36C524.59,779.75 527.26,773.65 523.16,771.79C506.67,772.33 489.97,771.09 473.55,772.48Z" style="fill:rgb(228,227,226);fill-rule:nonzero;"/>
            <path d="M618.4,748.36C647.83,749.16 677.36,746.45 706.68,748.36C706.58,751.49 706.59,754.63 706.66,757.78C683.02,759.33 659.2,757.85 635.49,758.47C635.47,765.17 635.39,771.88 635.46,778.58C659.77,779 684.09,777.9 708.39,778.64C710.75,781.07 709,785.34 709.52,788.5C697.16,789.69 684.75,789.2 672.35,789.42C672.4,795.43 670.4,801.69 672.51,807.54C690.15,807.34 707.81,807.16 725.45,807.46C725.47,810.82 725.52,814.18 725.59,817.56C683.82,817.1 641.88,818.62 600.33,817.65C600.4,814.46 600.37,811.27 600.35,808.09C618.35,806.9 636.48,808.04 654.52,807.4C654.72,801.46 654.59,795.52 654.6,789.58C642.6,789.36 630.59,789.45 618.58,789.39C618.22,775.71 618.45,762.03 618.4,748.36Z" style="fill:rgb(228,227,226);fill-rule:nonzero;"/>
            <path d="M278.19,749.34C299.74,748.44 321.46,748.92 343.1,749.28C343.19,752.37 343.23,755.46 343.33,758.56C327.49,760.46 311.38,758.72 295.44,759.49C295.91,765.86 294.02,772.32 295.46,778.57C316.22,778.92 336.88,777.22 357.52,775.25C358.33,778.39 359.02,781.56 359.74,784.73C332.76,787.81 305.54,788.99 278.36,788.71C277.33,775.62 278.34,762.46 278.19,749.34Z" style="fill:rgb(228,227,226);fill-rule:nonzero;"/>
            <path d="M118.38,750.52C144.43,750.15 170.48,750.88 196.52,750.29C196.51,753.33 196.5,756.39 196.44,759.44C170.94,759.41 145.44,759.6 119.94,759.45C115.53,759.13 118.26,753.36 118.38,750.52Z" style="fill:rgb(228,227,226);fill-rule:nonzero;"/>
            <path d="M134.98,763.07C150.82,760.57 167.64,759.98 183.14,764.7C188.68,765.73 193.14,772.72 188.25,777.2C181.85,781.28 174.02,782.53 166.54,782.68C166.4,783.67 166.26,784.68 166.12,785.69C177.95,785.21 189.88,786.14 201.64,784.41C202.69,787.28 202.78,790.35 202.9,793.38C173.24,793.65 143.21,796.16 113.8,795.35C113.51,792.53 111.77,789.57 112.76,786.8C124.36,786.24 136,786.69 147.63,786.52C147.7,785.47 147.78,784.42 147.86,783.39C139.5,781.68 128.26,782.94 122.93,775C120.06,767.37 129.19,764.08 134.98,763.07M140.27,770.7C139.96,775.3 145.72,775.12 148.98,775.53C156.86,775.23 165.23,776.96 172.69,773.7C172.6,772.69 172.51,771.69 172.43,770.7C162.06,767.28 150.74,768.5 140.27,770.7Z" style="fill:rgb(228,227,226);fill-rule:nonzero;"/>
            <path d="M289.33,796.29C294.8,796.22 300.27,796.34 305.75,796.36C305.77,803.1 305.25,809.87 306.03,816.59C309.03,816.65 312.04,816.74 315.02,817.12C337.76,816.11 360.59,816.73 383.36,816.6C385.71,819.1 383.94,823.31 384.47,826.51C352.73,827.1 320.92,827.82 289.33,826.52C289.45,816.44 289.13,806.36 289.33,796.29Z" style="fill:rgb(228,227,226);fill-rule:nonzero;"/>
            <path d="M161.02,798.88C180.63,798.58 201.06,796.77 219.93,803.14C227.13,804.82 232.24,814.25 225.99,819.93C221.529,824.703 167.532,834.439 138.76,824.14C132.64,822.54 126.83,815.69 130.62,809.43C137.57,800.06 150.59,800.5 161.02,798.88M159.98,807.84C155.12,808.76 148.64,808.87 146.25,814.05C150.91,820.61 160.01,819.01 166.98,820.28C180.75,820.38 195.01,821.24 208.32,817.27C212.63,816.35 212.78,810.53 208.34,809.71C192.65,805.46 176.02,806.61 159.98,807.84Z" style="fill:rgb(228,227,226);fill-rule:nonzero;"/>
        </g>
        <g transform="matrix(1.59153,0,0,1.59153,-209.556,-53.9008)">
            <g>
                <path d="M478.08,431.641C490.86,431.551 505.787,431.542 516.62,431.641C529.124,452.152 536.708,468.241 548.75,487.802C529.905,487.861 515.72,487.797 497.511,487.802C490.076,467.79 484.772,450.344 478.08,431.641Z" style="fill:white;fill-rule:nonzero;"/>
                <path d="M442.56,431.634C443.31,433.194 456.82,474.452 460.96,487.802C439.429,488.037 430.254,487.965 410.86,487.802C409.65,469.152 407.94,450.324 407.27,431.634C420.077,431.745 431.239,431.653 442.56,431.634Z" style="fill:white;"/>
                <path d="M443.126,431.362C443.021,431.144 442.801,431.005 442.559,431.006C431.24,431.025 420.08,431.116 407.275,431.006C407.104,431.004 406.939,431.073 406.82,431.196C406.7,431.319 406.636,431.485 406.642,431.657C407.312,450.353 409.023,469.187 410.233,487.843C410.254,488.172 410.526,488.428 410.855,488.431C430.253,488.594 439.43,488.665 460.967,488.431C461.165,488.428 461.351,488.333 461.468,488.172C461.585,488.012 461.619,487.806 461.56,487.616C457.414,474.245 443.877,432.924 443.126,431.362ZM442.56,431.634C443.31,433.194 456.82,474.452 460.96,487.802C439.429,488.037 430.254,487.965 410.86,487.802C409.65,469.152 407.94,450.324 407.27,431.634C420.077,431.745 431.239,431.653 442.56,431.634Z" style="fill:rgb(30,80,163);"/>
                <path d="M323.31,487.802C327.262,475.544 334.284,458.456 344.925,431.634C354.98,431.741 372.211,431.534 380.85,431.634C378.122,450.968 375.51,468.982 373.42,487.802C356.71,487.912 340.01,488.072 323.31,487.802Z" style="fill:white;"/>
                <path d="M322.712,487.61C322.651,487.799 322.683,488.006 322.799,488.168C322.915,488.33 323.101,488.427 323.3,488.431C340.005,488.701 356.709,488.541 373.424,488.431C373.743,488.429 374.009,488.188 374.044,487.872C376.134,469.058 378.745,451.05 381.472,431.722C381.497,431.543 381.444,431.362 381.327,431.225C381.209,431.088 381.038,431.008 380.857,431.006C372.218,430.905 354.987,431.112 344.932,431.006C344.672,431.003 344.437,431.161 344.341,431.402C333.693,458.243 326.667,475.343 322.712,487.61ZM323.31,487.802C327.262,475.544 334.284,458.456 344.925,431.634C354.98,431.741 372.211,431.534 380.85,431.634C378.122,450.968 375.51,468.982 373.42,487.802C356.71,487.912 340.01,488.072 323.31,487.802Z" style="fill:rgb(30,80,163);"/>
                <path d="M269.208,431.641C281.428,431.701 295.1,431.55 307.32,431.64C299.88,450.45 292.95,469.212 285,487.802C268.13,487.992 251.957,488.005 234.3,487.802C245.11,470.062 266.703,435.507 269.208,431.641Z" style="fill:white;fill-rule:nonzero;"/>
            </g>
            <g transform="matrix(1.09459,0,0,1.09459,-39.7969,-40.2067)">
                <path d="M382.65,187.87C391.57,177.96 410.51,179.9 417.32,191.63C423.49,200.52 418.87,212.9 411.25,219.3C411.28,221.13 411.34,222.97 411.4,224.8C418.44,229.95 427.75,231.62 433.59,238.42C442.22,247.67 449.73,257.92 456.19,268.79C463.52,282.4 464.27,298.18 467.2,313.07C469.35,320.78 457.64,324.71 454,318.01C449.71,307.94 452.91,296.13 447.85,286.23C443.77,276.53 435.96,269.07 427.77,262.76C422.69,287.8 423.16,314.09 430.48,338.65C433.97,350.07 432.42,363.36 439.54,373.46C453.99,388.27 464.06,406.92 469.92,426.68C473.23,428.89 477.28,433.21 474.44,437.31C464.37,441.57 454.54,448.25 443.08,447.05C436.465,446.357 436.63,440.395 444.05,437.44C447.59,436.03 450.86,433.99 452.98,430.74C447.7,426.85 446.88,419.86 443.41,414.65C435.97,400.35 423.57,389.82 412.53,378.53C406.98,365.58 403.41,351.73 398.61,338.42C390.27,351.34 382.6,364.78 375.37,378.34C370.07,397.75 361.94,416.4 351.45,433.58C350.23,433.65 349.03,433.72 347.82,433.81C347.36,436.28 347.436,434.623 346.976,437.093C351.094,441.964 346.7,448.694 341.45,446.82C333.887,444.12 327.81,440.03 320.13,438.71C313.004,437.485 309.793,430.269 317.492,429.199C324.128,429.497 322.7,429.98 329.61,428.62C336.22,414.77 342.98,400.94 348.85,386.76C349.04,358.13 375.67,337.54 376.35,308.93C378.87,296.8 376.65,284.51 376.02,272.32C360.74,290.13 342.4,305.53 321.65,316.47C313.84,318.86 309.57,308.42 316.09,304.1C334.1,288.89 353.92,274.33 364.57,252.58C368.73,246.15 369.97,237.97 375.45,232.43C380.43,228.23 387.29,227.46 392.61,223.75C392.63,223.12 392.66,221.85 392.67,221.21C384.59,219.28 385.84,210.87 381.23,205.81C384.05,199.9 384.02,193.95 382.65,187.87Z" style="fill:white;fill-rule:nonzero;"/>
                <path d="M381.512,186.846L380.983,187.434L381.157,188.206C382.45,193.948 382.512,199.57 379.848,205.151L379.405,206.08L380.098,206.841C382.286,209.242 383.033,212.462 384.241,215.286C385.565,218.379 387.336,221.062 391.116,222.353C391.111,222.543 391.107,222.734 391.102,222.916C388.695,224.454 385.998,225.437 383.342,226.482C380.184,227.724 377.082,229.051 374.463,231.26L374.362,231.354C371.485,234.262 369.699,237.851 368.108,241.569C366.627,245.031 365.318,248.606 363.285,251.749L363.235,251.825L363.195,251.907C352.652,273.438 333,287.821 315.167,302.876C307.302,308.19 312.574,320.848 322.098,317.934L322.236,317.891L322.364,317.824C342.184,307.374 359.827,292.891 374.728,276.127C375.524,286.961 377.088,297.853 374.851,308.619L374.823,308.755L374.82,308.894C374.486,322.948 367.723,335.013 361.075,347.1C354.233,359.54 347.509,372.002 347.322,386.449C341.587,400.27 335.01,413.761 328.56,427.265C322.709,428.4 323.744,427.947 317.561,427.67L317.42,427.664L317.281,427.683C313.131,428.26 311.561,430.441 311.512,432.622C311.483,433.923 312.027,435.345 313.12,436.62C314.537,438.272 316.903,439.708 319.871,440.219L319.871,440.219C327.462,441.523 333.459,445.593 340.935,448.262L340.935,448.262C347.355,450.553 352.975,442.787 348.614,436.706C348.739,436.136 348.793,436.094 348.871,435.907C348.925,435.776 348.991,435.596 349.077,435.257C349.895,435.203 350.711,435.156 351.538,435.108L352.338,435.062L352.756,434.378C363.291,417.124 371.463,398.398 376.801,378.909C383.498,366.357 390.573,353.908 398.21,341.883C402.516,354.309 405.969,367.108 411.123,379.133L411.236,379.396L411.436,379.6C422.372,390.784 434.682,401.191 442.052,415.357L442.09,415.43L442.136,415.499C443.825,418.034 444.856,421.01 446.12,423.818C447.322,426.488 448.727,429.009 450.894,431.001C448.97,433.35 446.312,434.891 443.484,436.018C439.034,437.79 436.945,440.647 436.775,442.982C436.585,445.589 438.491,448.108 442.921,448.572L442.921,448.572C448.906,449.199 454.47,447.793 459.848,445.649C465.007,443.593 469.992,440.854 475.036,438.72L475.445,438.547L475.698,438.182C477.503,435.576 477.176,432.901 475.814,430.525C474.726,428.627 472.936,426.937 471.232,425.726C465.292,405.961 455.173,387.323 440.722,372.48C437.352,367.648 436.057,362.054 435.161,356.314C434.212,350.232 433.71,343.985 431.946,338.209C424.936,314.688 424.278,289.565 428.793,265.51C436.049,271.327 442.788,278.145 446.439,286.823L446.487,286.927C448.921,291.689 449.332,296.918 449.687,302.16C450.067,307.78 450.379,313.416 452.592,318.61L452.655,318.741C454.866,322.811 459.502,323.733 463.285,322.386C467.103,321.026 469.975,317.433 468.69,312.714C465.741,297.697 464.932,281.793 457.538,268.064L457.522,268.036C450.995,257.052 443.425,246.721 434.728,237.396C431.673,233.85 427.73,231.612 423.613,229.614C419.981,227.851 416.212,226.277 412.905,223.992C412.862,222.659 412.821,221.321 412.794,219.988C420.609,213.008 425.028,200.117 418.61,190.805C414.96,184.558 408.101,180.874 400.938,180.113C393.751,179.349 386.296,181.531 381.512,186.846ZM382.65,187.87C391.57,177.96 410.51,179.9 417.32,191.63C423.49,200.52 418.87,212.9 411.25,219.3C411.28,221.13 411.34,222.97 411.4,224.8C418.44,229.95 427.75,231.62 433.59,238.42C442.22,247.67 449.73,257.92 456.19,268.79C463.52,282.4 464.27,298.18 467.2,313.07C469.35,320.78 457.64,324.71 454,318.01C449.71,307.94 452.91,296.13 447.85,286.23C443.77,276.53 435.96,269.07 427.77,262.76C422.69,287.8 423.16,314.09 430.48,338.65C433.97,350.07 432.42,363.36 439.54,373.46C453.99,388.27 464.06,406.92 469.92,426.68C473.23,428.89 477.28,433.21 474.44,437.31C464.37,441.57 454.54,448.25 443.08,447.05C436.465,446.357 436.63,440.395 444.05,437.44C447.59,436.03 450.86,433.99 452.98,430.74C447.7,426.85 446.88,419.86 443.41,414.65C435.97,400.35 423.57,389.82 412.53,378.53C406.98,365.58 403.41,351.73 398.61,338.42C390.27,351.34 382.6,364.78 375.37,378.34C370.07,397.75 361.94,416.4 351.45,433.58C350.23,433.65 349.03,433.72 347.82,433.81C347.36,436.28 347.436,434.623 346.976,437.093C351.094,441.964 346.7,448.694 341.45,446.82C333.887,444.12 327.81,440.03 320.13,438.71C313.004,437.485 309.793,430.269 317.492,429.199C324.128,429.497 322.7,429.98 329.61,428.62C336.22,414.77 342.98,400.94 348.85,386.76C349.04,358.13 375.67,337.54 376.35,308.93C378.87,296.8 376.65,284.51 376.02,272.32C360.74,290.13 342.4,305.53 321.65,316.47C313.84,318.86 309.57,308.42 316.09,304.1C334.1,288.89 353.92,274.33 364.57,252.58C368.73,246.15 369.97,237.97 375.45,232.43C380.43,228.23 387.29,227.46 392.61,223.75C392.63,223.12 392.66,221.85 392.67,221.21C384.59,219.28 385.84,210.87 381.23,205.81C384.05,199.9 384.02,193.95 382.65,187.87Z" style="fill:rgb(30,80,163);"/>
            </g>
        </g>
    </g>
</svg>
