<?xml version="1.0" encoding="UTF-8" standalone="no"?>
<!DOCTYPE svg PUBLIC "-//W3C//DTD SVG 1.1//EN" "http://www.w3.org/Graphics/SVG/1.1/DTD/svg11.dtd">
<!-- GeoHints -->
<svg width="100%" height="100%" viewBox="0 0 769 794" version="1.1" xmlns="http://www.w3.org/2000/svg" xmlns:xlink="http://www.w3.org/1999/xlink" xml:space="preserve" xmlns:serif="http://www.serif.com/" style="fill-rule:evenodd;clip-rule:evenodd;stroke-linejoin:round;stroke-miterlimit:2;">
    <g transform="matrix(1,0,0,1,-30.9579,-77.3739)">
        <g transform="matrix(1.80405,0,0,1.65198,28.3425,74.987)">
            <g transform="matrix(1,0,0,1,8.41875,7.575)">
                <path d="M205.812,-6.125C205.592,-6.123 205.932,-6.151 206.906,-6.094C211.074,-5.848 215.724,-4.275 219.156,-1.75C222.589,0.775 224.8,3.7 226.75,6.625L227.031,7.063L227.281,7.5L417.5,327.001L419.062,329.844L419.062,450.719C418.655,458.858 415.019,462.498 411.375,466.188C407.731,469.877 403.945,473.906 395.25,473.906L16.844,473.906C8.148,473.906 4.362,469.877 0.719,466.188C-2.925,462.498 -6.53,458.858 -6.938,450.719L-6.969,450.406L-6.969,329.844L-5.406,327.001L184.812,7.5L185.062,7.063L185.344,6.625C187.294,3.7 189.505,0.775 192.937,-1.75C196.37,-4.275 201.051,-5.848 205.219,-6.094L205.5,-6.125L205.812,-6.125Z" style="fill:white;"/>
            </g>
            <g transform="matrix(1,0,0,1,8.41875,7.575)">
                <path d="M205.933,6.379C201.5,6.641 198.868,8.883 195.745,13.567L5.527,333.054L5.527,450.098C5.748,454.522 12.41,461.411 16.839,461.411L395.245,461.411C399.674,461.411 406.336,454.522 406.558,450.098L406.558,333.054L216.339,13.567C213.216,8.883 210.584,6.641 206.152,6.379C206.078,6.378 206.004,6.375 205.933,6.379Z" style="fill:rgb(30,80,163);"/>
            </g>
        </g>
        <g transform="matrix(0.773295,0,0,1,95.5145,1.42109e-14)">
            <path d="M210.31,739.46C216.05,739.46 221.8,739.38 227.55,739.47C227.36,758.47 227.7,777.49 227.03,796.48C221.43,796.36 215.83,796.31 210.23,796.44C210.28,777.42 210.01,758.48 210.31,739.46Z" style="fill:rgb(228,227,226);fill-rule:nonzero;"/>
            <path d="M138.51,740.39C150.97,740.21 163.43,740.35 175.88,740.29C176.3,743 176.27,745.75 175.48,748.4C162.8,747.39 149.91,749.72 137.38,747.46C137.73,745.09 138.15,742.74 138.51,740.39Z" style="fill:rgb(228,227,226);fill-rule:nonzero;"/>
            <path d="M361.61,740.43C367.27,740.05 372.92,739.8 378.57,740.46C378.55,750.09 378.6,759.71 378.67,769.34C383.95,769.32 389.23,769.24 394.52,769.34C394.95,772.69 395.37,776.06 395.46,779.45C389.83,779.93 384.17,779.89 378.54,779.53C377.91,787.91 379.45,796.89 377.89,804.88C372.94,805.45 366.15,806.29 361.71,804.29C361.29,783.01 361.81,761.72 361.61,740.43Z" style="fill:rgb(228,227,226);fill-rule:nonzero;"/>
            <path d="M456.51,747.48C461.93,746.61 467.39,747.42 472.84,747.32C474.1,752.1 473.34,757.07 473.42,761.94C490.68,762.36 508.22,763.03 525.43,761.54C525.34,756.76 525.44,751.97 525.36,747.19C530.66,745.96 536.13,746.81 541.51,746.57C542.88,761.86 542.19,777.77 541.84,792.9C531.15,794.99 519.39,792.54 508.35,794.23C508.43,799.62 508.09,805.02 508.41,810.41C526.43,809.87 544.52,809.07 562.53,810.41C561.97,813.6 563.54,817.73 561.45,820.36C520.16,820.21 478.99,820.64 437.69,820.4C436.26,817.74 434.72,809.4 439.96,810.38C456.69,810.34 473.43,810.53 490.15,810.2C492.36,805.32 491.35,798.92 490.65,793.57C479.29,793.83 467.93,793.61 456.58,793.54C456.7,778.18 456.33,762.83 456.51,747.48M473.55,772.48C473.52,776.11 473.49,779.76 473.57,783.4C490.85,783.63 508.12,783.33 525.4,783.36C524.59,779.75 527.26,773.65 523.16,771.79C506.67,772.33 489.97,771.09 473.55,772.48Z" style="fill:rgb(228,227,226);fill-rule:nonzero;"/>
            <path d="M618.4,748.36C647.83,749.16 677.36,746.45 706.68,748.36C706.58,751.49 706.59,754.63 706.66,757.78C683.02,759.33 659.2,757.85 635.49,758.47C635.47,765.17 635.39,771.88 635.46,778.58C659.77,779 684.09,777.9 708.39,778.64C710.75,781.07 709,785.34 709.52,788.5C697.16,789.69 684.75,789.2 672.35,789.42C672.4,795.43 670.4,801.69 672.51,807.54C690.15,807.34 707.81,807.16 725.45,807.46C725.47,810.82 725.52,814.18 725.59,817.56C683.82,817.1 641.88,818.62 600.33,817.65C600.4,814.46 600.37,811.27 600.35,808.09C618.35,806.9 636.48,808.04 654.52,807.4C654.72,801.46 654.59,795.52 654.6,789.58C642.6,789.36 630.59,789.45 618.58,789.39C618.22,775.71 618.45,762.03 618.4,748.36Z" style="fill:rgb(228,227,226);fill-rule:nonzero;"/>
            <path d="M278.19,749.34C299.74,748.44 321.46,748.92 343.1,749.28C343.19,752.37 343.23,755.46 343.33,758.56C327.49,760.46 311.38,758.72 295.44,759.49C295.91,765.86 294.02,772.32 295.46,778.57C316.22,778.92 336.88,777.22 357.52,775.25C358.33,778.39 359.02,781.56 359.74,784.73C332.76,787.81 305.54,788.99 278.36,788.71C277.33,775.62 278.34,762.46 278.19,749.34Z" style="fill:rgb(228,227,226);fill-rule:nonzero;"/>
            <path d="M118.38,750.52C144.43,750.15 170.48,750.88 196.52,750.29C196.51,753.33 196.5,756.39 196.44,759.44C170.94,759.41 145.44,759.6 119.94,759.45C115.53,759.13 118.26,753.36 118.38,750.52Z" style="fill:rgb(228,227,226);fill-rule:nonzero;"/>
            <path d="M134.98,763.07C150.82,760.57 167.64,759.98 183.14,764.7C188.68,765.73 193.14,772.72 188.25,777.2C181.85,781.28 174.02,782.53 166.54,782.68C166.4,783.67 166.26,784.68 166.12,785.69C177.95,785.21 189.88,786.14 201.64,784.41C202.69,787.28 202.78,790.35 202.9,793.38C173.24,793.65 143.21,796.16 113.8,795.35C113.51,792.53 111.77,789.57 112.76,786.8C124.36,786.24 136,786.69 147.63,786.52C147.7,785.47 147.78,784.42 147.86,783.39C139.5,781.68 128.26,782.94 122.93,775C120.06,767.37 129.19,764.08 134.98,763.07M140.27,770.7C139.96,775.3 145.72,775.12 148.98,775.53C156.86,775.23 165.23,776.96 172.69,773.7C172.6,772.69 172.51,771.69 172.43,770.7C162.06,767.28 150.74,768.5 140.27,770.7Z" style="fill:rgb(228,227,226);fill-rule:nonzero;"/>
            <path d="M289.33,796.29C294.8,796.22 300.27,796.34 305.75,796.36C305.77,803.1 305.25,809.87 306.03,816.59C309.03,816.65 312.04,816.74 315.02,817.12C337.76,816.11 360.59,816.73 383.36,816.6C385.71,819.1 383.94,823.31 384.47,826.51C352.73,827.1 320.92,827.82 289.33,826.52C289.45,816.44 289.13,806.36 289.33,796.29Z" style="fill:rgb(228,227,226);fill-rule:nonzero;"/>
            <path d="M161.02,798.88C180.63,798.58 201.06,796.77 219.93,803.14C227.13,804.82 232.24,814.25 225.99,819.93C221.529,824.703 167.532,834.439 138.76,824.14C132.64,822.54 126.83,815.69 130.62,809.43C137.57,800.06 150.59,800.5 161.02,798.88M159.98,807.84C155.12,808.76 148.64,808.87 146.25,814.05C150.91,820.61 160.01,819.01 166.98,820.28C180.75,820.38 195.01,821.24 208.32,817.27C212.63,816.35 212.78,810.53 208.34,809.71C192.65,805.46 176.02,806.61 159.98,807.84Z" style="fill:rgb(228,227,226);fill-rule:nonzero;"/>
        </g>
        <g transform="matrix(1.59153,0,0,1.59153,-209.556,-53.9008)">
            <g>
                <path d="M478.08,431.641C490.86,431.551 505.787,431.542 516.62,431.641C529.124,452.152 536.708,468.241 548.75,487.802C529.905,487.861 515.72,487.797 497.511,487.802C490.076,467.79 484.772,450.344 478.08,431.641Z" style="fill:white;fill-rule:nonzero;"/>
                <path d="M442.56,431.634C443.31,433.194 456.82,474.452 460.96,487.802C439.429,488.037 430.254,487.965 410.86,487.802C409.65,469.152 407.94,450.324 407.27,431.634C420.077,431.745 431.239,431.653 442.56,431.634Z" style="fill:white;"/>
                <path d="M443.126,431.362C443.021,431.144 442.801,431.005 442.559,431.006C431.24,431.025 420.08,431.116 407.275,431.006C407.104,431.004 406.939,431.073 406.82,431.196C406.7,431.319 406.636,431.485 406.642,431.657C407.312,450.353 409.023,469.187 410.233,487.843C410.254,488.172 410.526,488.428 410.855,488.431C430.253,488.594 439.43,488.665 460.967,488.431C461.165,488.428 461.351,488.333 461.468,488.172C461.585,488.012 461.619,487.806 461.56,487.616C457.414,474.245 443.877,432.924 443.126,431.362ZM442.56,431.634C443.31,433.194 456.82,474.452 460.96,487.802C439.429,488.037 430.254,487.965 410.86,487.802C409.65,469.152 407.94,450.324 407.27,431.634C420.077,431.745 431.239,431.653 442.56,431.634Z" style="fill:rgb(30,80,163);"/>
                <path d="M323.31,487.802C327.262,475.544 334.284,458.456 344.925,431.634C354.98,431.741 372.211,431.534 380.85,431.634C378.122,450.968 375.51,468.982 373.42,487.802C356.71,487.912 340.01,488.072 323.31,487.802Z" style="fill:white;"/>
                <path d="M322.712,487.61C322.651,487.799 322.683,488.006 322.799,488.168C322.915,488.33 323.101,488.427 323.3,488.431C340.005,488.701 356.709,488.541 373.424,488.431C373.743,488.429 374.009,488.188 374.044,487.872C376.134,469.058 378.745,451.05 381.472,431.722C381.497,431.543 381.444,431.362 381.327,431.225C381.209,431.088 381.038,431.008 380.857,431.006C372.218,430.905 354.987,431.112 344.932,431.006C344.672,431.003 344.437,431.161 344.341,431.402C333.693,458.243 326.667,475.343 322.712,487.61ZM323.31,487.802C327.262,475.544 334.284,458.456 344.925,431.634C354.98,431.741 372.211,431.534 380.85,431.634C378.122,450.968 375.51,468.982 373.42,487.802C356.71,487.912 340.01,488.072 323.31,487.802Z" style="fill:rgb(30,80,163);"/>
                <path d="M269.208,431.641C281.428,431.701 295.1,431.55 307.32,431.64C299.88,450.45 292.95,469.212 285,487.802C268.13,487.992 251.957,488.005 234.3,487.802C245.11,470.062 266.703,435.507 269.208,431.641Z" style="fill:white;fill-rule:nonzero;"/>
            </g>
            <g transform="matrix(0.628326,0,0,0.628326,151.121,82.4833)">
                <path d="M289.815,476.992C294.269,433.663 333.596,400.924 334.655,356.359C338.801,336.4 335.148,316.178 334.112,296.121C308.97,325.425 278.794,350.764 244.652,368.765C231.801,372.697 224.775,355.519 235.503,348.411C265.137,323.385 297.749,299.428 315.272,263.64C322.117,253.061 324.157,239.601 333.174,230.486C341.368,223.575 352.655,222.308 361.409,216.204C361.442,215.167 361.491,213.077 361.508,212.024C348.213,208.849 350.27,195.011 342.684,186.685C347.324,176.961 347.275,167.171 345.021,157.167C359.698,140.861 390.862,144.053 402.067,163.354C412.219,177.981 404.617,198.351 392.079,208.882C392.129,211.893 392.227,214.92 392.326,217.931C403.91,226.405 419.228,229.153 428.837,240.342C443.037,255.562 455.394,272.427 466.023,290.312C478.084,312.706 479.318,338.671 484.139,363.171C487.677,375.857 468.409,382.323 462.42,371.299C455.361,354.73 460.626,335.298 452.301,319.008C445.588,303.048 432.737,290.773 419.261,280.391C410.903,321.591 411.676,364.849 423.72,405.26C429.463,424.05 426.912,445.918 438.627,462.536C462.403,486.904 478.973,517.591 488.615,550.104C494.061,553.74 500.725,560.849 496.052,567.595C479.483,574.604 463.308,585.595 444.452,583.621C433.568,582.481 433.839,572.671 446.048,567.809C451.873,565.489 457.253,562.132 460.742,556.784C452.054,550.384 450.705,538.883 444.995,530.31C432.753,506.781 412.35,489.455 394.185,470.878C385.053,449.57 379.179,426.782 371.281,404.881C359.66,422.885 348.829,441.503 338.559,460.335C338.189,461.74 337.523,463.188 336.521,464.657C324.383,495.458 307.751,524.509 287.522,550.735C285.514,550.631 283.539,550.531 281.544,550.462C280.35,554.42 280.77,551.723 279.576,555.681C285.441,564.385 277.051,574.607 268.799,570.604C256.911,564.835 247.702,557.059 235.376,553.527C223.94,550.25 219.977,537.873 232.762,537.499C243.563,539.173 241.14,539.708 252.686,538.718C265.312,518.315 278.156,497.966 289.815,476.992Z" style="fill:white;fill-rule:nonzero;"/>
                <path d="M287.869,476.376C276.44,496.904 263.882,516.836 251.515,536.81C241.379,537.657 243.287,537.106 233.068,535.523C232.947,535.504 232.825,535.496 232.703,535.5C226.178,535.691 223.327,538.729 222.883,542.097C222.617,544.109 223.233,546.402 224.713,548.564C226.678,551.436 230.195,554.123 234.825,555.45C234.825,555.45 234.825,555.45 234.825,555.45C247.039,558.95 256.147,566.688 267.926,572.403C267.926,572.403 267.926,572.403 267.926,572.403C277.641,577.116 287.778,565.716 281.759,555.398C282.147,554.205 282.252,554.161 282.433,553.831C282.562,553.596 282.726,553.256 282.983,552.519C284.458,552.581 285.93,552.655 287.419,552.732C288.075,552.766 288.705,552.476 289.106,551.956C309.405,525.64 326.102,496.493 338.302,465.592C339.318,464.067 340.012,462.554 340.427,461.084C349.988,443.562 360.038,426.224 370.761,409.397C378.007,430.148 383.732,451.564 392.347,471.666C392.444,471.893 392.583,472.1 392.755,472.277C410.785,490.714 431.071,507.88 443.221,531.233C443.254,531.297 443.291,531.359 443.331,531.419C446.125,535.615 447.836,540.536 449.928,545.183C451.942,549.657 454.3,553.88 458.02,557.156C454.776,561.307 450.197,564.003 445.308,565.951C438.238,568.766 434.866,573.255 434.596,576.965C434.299,581.03 437.337,584.886 444.244,585.61C444.244,585.61 444.244,585.61 444.244,585.61C454.006,586.632 463.079,584.331 471.85,580.835C480.335,577.452 488.534,572.947 496.831,569.437C497.18,569.289 497.48,569.045 497.696,568.734C500.536,564.634 500.005,560.426 497.863,556.689C496.079,553.576 493.117,550.813 490.328,548.854C480.582,516.336 463.948,485.666 440.171,461.254C434.562,453.231 432.399,443.941 430.91,434.404C429.351,424.42 428.532,414.165 425.635,404.683C413.996,365.627 412.975,323.892 420.594,283.973C432.855,293.716 444.304,305.155 450.457,319.784C450.476,319.829 450.497,319.874 450.52,319.918C454.557,327.817 455.252,336.489 455.84,345.184C456.462,354.373 456.962,363.591 460.58,372.083C460.605,372.141 460.632,372.198 460.663,372.254C464.168,378.707 471.525,380.146 477.523,378.01C483.568,375.858 488.131,370.174 486.085,362.702C481.24,338.039 479.929,311.913 467.784,289.364C467.771,289.339 467.757,289.315 467.743,289.291C457.046,271.292 444.611,254.321 430.324,239.003C425.344,233.218 418.908,229.578 412.195,226.319C406.116,223.368 399.807,220.735 394.293,216.879C394.216,214.517 394.142,212.147 394.096,209.784C406.892,198.494 414.229,177.453 403.751,162.273C397.825,152.123 386.684,146.155 375.057,144.919C363.396,143.679 351.296,147.206 343.534,155.829C343.1,156.311 342.927,156.974 343.07,157.606C345.224,167.168 345.314,176.529 340.879,185.824C340.529,186.558 340.658,187.431 341.206,188.032C344.845,192.026 346.105,197.375 348.116,202.073C350.279,207.127 353.175,211.51 359.478,213.534C359.466,214.063 359.452,214.62 359.439,215.119C355.391,217.753 350.836,219.416 346.349,221.181C341.206,223.205 336.15,225.36 331.885,228.957C331.839,228.996 331.794,229.036 331.752,229.079C327.064,233.818 324.162,239.669 321.57,245.727C319.122,251.45 316.954,257.359 313.593,262.554C313.55,262.621 313.511,262.69 313.476,262.761C296.093,298.262 263.701,321.987 234.298,346.811C221.811,355.219 230.147,375.295 245.237,370.677C245.357,370.641 245.473,370.593 245.584,370.534C278.505,353.177 307.766,329.047 332.415,301.118C333.691,319.397 336.471,337.784 332.697,355.952C332.672,356.07 332.658,356.19 332.655,356.311C332.134,378.267 322.121,397.287 311.754,416.177C301.171,435.463 290.217,454.616 287.869,476.376ZM289.815,476.992C294.269,433.663 333.596,400.924 334.655,356.359C338.801,336.4 335.148,316.178 334.112,296.121C308.97,325.425 278.794,350.764 244.652,368.765C231.801,372.697 224.775,355.519 235.503,348.411C265.137,323.385 297.749,299.428 315.272,263.64C322.117,253.061 324.157,239.601 333.174,230.486C341.368,223.575 352.655,222.308 361.409,216.204C361.442,215.167 361.491,213.077 361.508,212.024C348.213,208.849 350.27,195.011 342.684,186.685C347.324,176.961 347.275,167.171 345.021,157.167C359.698,140.861 390.862,144.053 402.067,163.354C412.219,177.981 404.617,198.351 392.079,208.882C392.129,211.893 392.227,214.92 392.326,217.931C403.91,226.405 419.228,229.153 428.837,240.342C443.037,255.562 455.394,272.427 466.023,290.312C478.084,312.706 479.318,338.671 484.139,363.171C487.677,375.857 468.409,382.323 462.42,371.299C455.361,354.73 460.626,335.298 452.301,319.008C445.588,303.048 432.737,290.773 419.261,280.391C410.903,321.591 411.676,364.849 423.72,405.26C429.463,424.05 426.912,445.918 438.627,462.536C462.403,486.904 478.973,517.591 488.615,550.104C494.061,553.74 500.725,560.849 496.052,567.595C479.483,574.604 463.308,585.595 444.452,583.621C433.568,582.481 433.839,572.671 446.048,567.809C451.873,565.489 457.253,562.132 460.742,556.784C452.054,550.384 450.705,538.883 444.995,530.31C432.753,506.781 412.35,489.455 394.185,470.878C385.053,449.57 379.179,426.782 371.281,404.881C359.66,422.885 348.829,441.503 338.559,460.335C338.189,461.74 337.523,463.188 336.521,464.657C324.383,495.458 307.751,524.509 287.522,550.735C285.514,550.631 283.539,550.531 281.544,550.462C280.35,554.42 280.77,551.723 279.576,555.681C285.441,564.385 277.051,574.607 268.799,570.604C256.911,564.835 247.702,557.059 235.376,553.527C223.94,550.25 219.977,537.873 232.762,537.499C243.563,539.173 241.14,539.708 252.686,538.718C265.312,518.315 278.156,497.966 289.815,476.992Z" style="fill:rgb(30,80,163);"/>
            </g>
        </g>
    </g>
</svg>
