<?xml version="1.0" encoding="UTF-8" standalone="no"?>
<!DOCTYPE svg PUBLIC "-//W3C//DTD SVG 1.1//EN" "http://www.w3.org/Graphics/SVG/1.1/DTD/svg11.dtd">
<!-- GeoHints -->
<svg width="100%" height="100%" viewBox="0 0 787 811" version="1.1" xmlns="http://www.w3.org/2000/svg" xmlns:xlink="http://www.w3.org/1999/xlink" xml:space="preserve" xmlns:serif="http://www.serif.com/" style="fill-rule:evenodd;clip-rule:evenodd;">
    <g transform="matrix(1,0,0,1,-22.0438,-68.4595)">
        <g transform="matrix(1.80405,0,0,1.65198,28.3425,74.987)">
            <g transform="matrix(1,0,0,1,8.41875,7.575)">
                <path d="M205.812,-6.125C205.592,-6.123 205.932,-6.151 206.906,-6.094C211.074,-5.848 215.724,-4.275 219.156,-1.75C222.589,0.775 224.8,3.7 226.75,6.625L227.031,7.063L227.281,7.5L417.5,327.001L419.062,329.844L419.062,450.719C418.655,458.858 415.019,462.498 411.375,466.188C407.731,469.877 403.945,473.906 395.25,473.906L16.844,473.906C8.148,473.906 4.362,469.877 0.719,466.188C-2.925,462.498 -6.53,458.858 -6.938,450.719L-6.969,450.406L-6.969,329.844L-5.406,327.001L184.812,7.5L185.062,7.063L185.344,6.625C187.294,3.7 189.505,0.775 192.937,-1.75C196.37,-4.275 201.051,-5.848 205.219,-6.094L205.5,-6.125L205.812,-6.125Z" style="fill:white;stroke:rgb(30,80,163);stroke-width:2.5px;"/>
            </g>
            <g transform="matrix(1,0,0,1,8.41875,7.575)">
                <path d="M205.933,6.379C201.5,6.641 198.868,8.883 195.745,13.567L5.527,333.054L5.527,450.098C5.748,454.522 12.41,461.411 16.839,461.411L395.245,461.411C399.674,461.411 406.336,454.522 406.558,450.098L406.558,333.054L216.339,13.567C213.216,8.883 210.584,6.641 206.152,6.379C206.078,6.378 206.004,6.375 205.933,6.379Z" style="fill:rgb(30,80,163);"/>
            </g>
        </g>
        <g>
            <path d="M210.31,739.46C216.05,739.46 221.8,739.38 227.55,739.47C227.36,758.47 227.7,777.49 227.03,796.48C221.43,796.36 215.83,796.31 210.23,796.44C210.28,777.42 210.01,758.48 210.31,739.46Z" style="fill:rgb(228,227,226);fill-rule:nonzero;"/>
            <path d="M138.51,740.39C150.97,740.21 163.43,740.35 175.88,740.29C176.3,743 176.27,745.75 175.48,748.4C162.8,747.39 149.91,749.72 137.38,747.46C137.73,745.09 138.15,742.74 138.51,740.39Z" style="fill:rgb(228,227,226);fill-rule:nonzero;"/>
            <path d="M361.61,740.43C367.27,740.05 372.92,739.8 378.57,740.46C378.55,750.09 378.6,759.71 378.67,769.34C383.95,769.32 389.23,769.24 394.52,769.34C394.95,772.69 395.37,776.06 395.46,779.45C389.83,779.93 384.17,779.89 378.54,779.53C377.91,787.91 379.45,796.89 377.89,804.88C372.94,805.45 366.15,806.29 361.71,804.29C361.29,783.01 361.81,761.72 361.61,740.43Z" style="fill:rgb(228,227,226);fill-rule:nonzero;"/>
            <path d="M456.51,747.48C461.93,746.61 467.39,747.42 472.84,747.32C474.1,752.1 473.34,757.07 473.42,761.94C490.68,762.36 508.22,763.03 525.43,761.54C525.34,756.76 525.44,751.97 525.36,747.19C530.66,745.96 536.13,746.81 541.51,746.57C542.88,761.86 542.19,777.77 541.84,792.9C531.15,794.99 519.39,792.54 508.35,794.23C508.43,799.62 508.09,805.02 508.41,810.41C526.43,809.87 544.52,809.07 562.53,810.41C561.97,813.6 563.54,817.73 561.45,820.36C520.16,820.21 478.99,820.64 437.69,820.4C436.26,817.74 434.72,809.4 439.96,810.38C456.69,810.34 473.43,810.53 490.15,810.2C492.36,805.32 491.35,798.92 490.65,793.57C479.29,793.83 467.93,793.61 456.58,793.54C456.7,778.18 456.33,762.83 456.51,747.48M473.55,772.48C473.52,776.11 473.49,779.76 473.57,783.4C490.85,783.63 508.12,783.33 525.4,783.36C524.59,779.75 527.26,773.65 523.16,771.79C506.67,772.33 489.97,771.09 473.55,772.48Z" style="fill:rgb(228,227,226);fill-rule:nonzero;"/>
            <path d="M618.4,748.36C647.83,749.16 677.36,746.45 706.68,748.36C706.58,751.49 706.59,754.63 706.66,757.78C683.02,759.33 659.2,757.85 635.49,758.47C635.47,765.17 635.39,771.88 635.46,778.58C659.77,779 684.09,777.9 708.39,778.64C710.75,781.07 709,785.34 709.52,788.5C697.16,789.69 684.75,789.2 672.35,789.42C672.4,795.43 670.4,801.69 672.51,807.54C690.15,807.34 707.81,807.16 725.45,807.46C725.47,810.82 725.52,814.18 725.59,817.56C683.82,817.1 641.88,818.62 600.33,817.65C600.4,814.46 600.37,811.27 600.35,808.09C618.35,806.9 636.48,808.04 654.52,807.4C654.72,801.46 654.59,795.52 654.6,789.58C642.6,789.36 630.59,789.45 618.58,789.39C618.22,775.71 618.45,762.03 618.4,748.36Z" style="fill:rgb(228,227,226);fill-rule:nonzero;"/>
            <path d="M278.19,749.34C299.74,748.44 321.46,748.92 343.1,749.28C343.19,752.37 343.23,755.46 343.33,758.56C327.49,760.46 311.38,758.72 295.44,759.49C295.91,765.86 294.02,772.32 295.46,778.57C316.22,778.92 336.88,777.22 357.52,775.25C358.33,778.39 359.02,781.56 359.74,784.73C332.76,787.81 305.54,788.99 278.36,788.71C277.33,775.62 278.34,762.46 278.19,749.34Z" style="fill:rgb(228,227,226);fill-rule:nonzero;"/>
            <path d="M118.38,750.52C144.43,750.15 170.48,750.88 196.52,750.29C196.51,753.33 196.5,756.39 196.44,759.44C170.94,759.41 145.44,759.6 119.94,759.45C115.53,759.13 118.26,753.36 118.38,750.52Z" style="fill:rgb(228,227,226);fill-rule:nonzero;"/>
            <path d="M134.98,763.07C150.82,760.57 167.64,759.98 183.14,764.7C188.68,765.73 193.14,772.72 188.25,777.2C181.85,781.28 174.02,782.53 166.54,782.68C166.4,783.67 166.26,784.68 166.12,785.69C177.95,785.21 189.88,786.14 201.64,784.41C202.69,787.28 202.78,790.35 202.9,793.38C173.24,793.65 143.21,796.16 113.8,795.35C113.51,792.53 111.77,789.57 112.76,786.8C124.36,786.24 136,786.69 147.63,786.52C147.7,785.47 147.78,784.42 147.86,783.39C139.5,781.68 128.26,782.94 122.93,775C120.06,767.37 129.19,764.08 134.98,763.07M140.27,770.7C139.96,775.3 145.72,775.12 148.98,775.53C156.86,775.23 165.23,776.96 172.69,773.7C172.6,772.69 172.51,771.69 172.43,770.7C162.06,767.28 150.74,768.5 140.27,770.7Z" style="fill:rgb(228,227,226);fill-rule:nonzero;"/>
            <path d="M289.33,796.29C294.8,796.22 300.27,796.34 305.75,796.36C305.77,803.1 305.25,809.87 306.03,816.59C309.03,816.65 312.04,816.74 315.02,817.12C337.76,816.11 360.59,816.73 383.36,816.6C385.71,819.1 383.94,823.31 384.47,826.51C352.73,827.1 320.92,827.82 289.33,826.52C289.45,816.44 289.13,806.36 289.33,796.29Z" style="fill:rgb(228,227,226);fill-rule:nonzero;"/>
            <path d="M161.02,798.88C180.63,798.58 201.06,796.77 219.93,803.14C227.13,804.82 232.24,814.25 225.99,819.93C221.529,824.703 167.532,834.439 138.76,824.14C132.64,822.54 126.83,815.69 130.62,809.43C137.57,800.06 150.59,800.5 161.02,798.88M159.98,807.84C155.12,808.76 148.64,808.87 146.25,814.05C150.91,820.61 160.01,819.01 166.98,820.28C180.75,820.38 195.01,821.24 208.32,817.27C212.63,816.35 212.78,810.53 208.34,809.71C192.65,805.46 176.02,806.61 159.98,807.84Z" style="fill:rgb(228,227,226);fill-rule:nonzero;"/>
        </g>
        <g>
            <path d="M566.98,618.42C597.14,618.52 627.36,617.78 657.47,618.57C682.21,652.54 706.57,686.84 730.22,721.61C694.44,721.81 658.76,722.69 622.97,722.39C604.68,687.55 584.32,653.67 566.98,618.42Z" style="fill:rgb(228,227,226);fill-rule:nonzero;"/>
            <path d="M168.81,618.58C200,618.64 231.18,618.4 262.36,618.44C244.69,653.74 225.78,688.64 207.27,723.55C172.82,723.57 138.37,723.71 103.93,723.56C124.54,687.99 147.33,653.66 168.81,618.58" style="fill:rgb(228,227,226);fill-rule:nonzero;"/>
            <path d="M397.51,238.49C401.41,234.5 407.19,238.13 412,237.46C433.85,236.69 453.18,260.79 444.83,281.76C441.55,288.53 440.42,297.82 432.66,301.08C429.59,307.1 434.69,312.53 439.43,315.56C466.18,335.95 473.73,370.31 489.56,398.38C496.67,421.19 500.85,444.91 506.56,468.12C503.24,474.15 509.76,478.83 508.62,485.04C508.33,493.83 498.16,500.28 490.07,496.75C482.21,493.44 479.08,482.97 483.59,475.76C474.57,465.79 476.67,450.45 473.28,438.05C471.95,421.69 465.48,405.18 452.41,394.69C453.02,408.35 455.89,421.88 455.6,435.62C457.9,453.67 451.99,472.42 457.83,490.08C465.53,510.03 470.61,530.89 478.15,550.92C480.38,556.68 481.58,563.26 486.55,567.45C507.52,586.64 527.78,607.53 540.85,633.07C543.33,637.25 543.45,643.45 548.62,645.42C553.84,648.1 558.22,655.92 554.16,661.13C548.1,667.02 541.93,673.11 536.27,679.19C540.12,693.9 546.57,708.09 551.16,722.69C523.66,722.52 496.08,722.93 468.64,722.66C459.06,688.12 447.63,653.99 439.09,619.2C457.43,624.5 477.42,621.59 496.34,621.45C486.54,607.88 471.49,599.02 456.31,592.58C453.52,591.23 451.44,588.78 449.81,586.21C436.37,565.49 424.08,543.91 414.75,521.01C400.77,544.47 383.48,565.84 363.61,584.57C360.18,597.23 353.92,608.95 350.02,621.44C363.31,621.58 376.59,621.53 389.88,621.44C382.25,655.35 372.9,688.89 364.41,722.6C335.99,722.63 307.56,723.06 279.17,722.6C283.94,708.49 289.2,694.54 294.6,680.67C287.03,670.39 271.48,670.04 265.98,658.01C264,655.6 263.08,649.35 267.91,650.32C276.06,652.06 285.69,657.76 293.51,652.5C304.88,632.96 314.84,612.54 325.81,592.75C328.79,587.42 328.35,581.16 329.48,575.35C331.23,561.62 340.22,550.51 344.36,537.55C349.96,519.84 357.88,502.86 368.3,487.45C379.1,468.06 374.96,445.03 374.36,423.9C365.32,433.77 355.27,443.01 343.32,449.27C332.08,454.44 320.04,457.92 309.45,464.46C306.96,466.63 304.21,464.42 301.83,463.27C298.13,472.71 283.98,475.89 278.1,466.83C271.41,457.85 278.44,444.82 289.29,444.16C289.4,442.37 289.5,440.58 289.6,438.8C306.75,426.34 328.09,420.17 344,405.99C361.66,386.22 361.74,358.24 370.46,334.48C377.05,322.22 391.98,319.69 401.58,310.7C401.54,309.67 401.51,308.64 401.49,307.61C399.12,304.37 395.88,301.84 391.82,301.28C390.73,299.97 389.67,298.64 388.63,297.3C389,291.25 386.81,285.29 382.36,281.15C381.06,274.02 386.32,268.08 386.39,261.13C385.3,257.29 381.44,253.7 383.3,249.49C385.32,243.11 393.2,242.7 397.51,238.49Z" style="fill:rgb(228,227,226);fill-rule:nonzero;"/>
        </g>
    </g>
</svg>
