<?xml version="1.0" encoding="UTF-8" standalone="no"?>
<!DOCTYPE svg PUBLIC "-//W3C//DTD SVG 1.1//EN" "http://www.w3.org/Graphics/SVG/1.1/DTD/svg11.dtd">
<!-- GeoHints -->
<svg width="100%" height="100%" viewBox="0 0 769 794" version="1.1" xmlns="http://www.w3.org/2000/svg" xmlns:xlink="http://www.w3.org/1999/xlink" xml:space="preserve" xmlns:serif="http://www.serif.com/" style="fill-rule:evenodd;clip-rule:evenodd;stroke-linejoin:round;stroke-miterlimit:2;">
    <g transform="matrix(1,0,0,1,-30.9579,-77.3739)">
        <g transform="matrix(1.80405,0,0,1.65198,28.3425,74.987)">
            <g transform="matrix(1,0,0,1,8.41875,7.575)">
                <path d="M205.812,-6.125C205.592,-6.123 205.932,-6.151 206.906,-6.094C211.074,-5.848 215.724,-4.275 219.156,-1.75C222.589,0.775 224.8,3.7 226.75,6.625L227.031,7.063L227.281,7.5L417.5,327.001L419.062,329.844L419.062,450.719C418.655,458.858 415.019,462.498 411.375,466.188C407.731,469.877 403.945,473.906 395.25,473.906L16.844,473.906C8.148,473.906 4.362,469.877 0.719,466.188C-2.925,462.498 -6.53,458.858 -6.938,450.719L-6.969,450.406L-6.969,329.844L-5.406,327.001L184.812,7.5L185.062,7.063L185.344,6.625C187.294,3.7 189.505,0.775 192.937,-1.75C196.37,-4.275 201.051,-5.848 205.219,-6.094L205.5,-6.125L205.812,-6.125Z" style="fill:white;"/>
            </g>
            <g transform="matrix(1,0,0,1,8.41875,7.575)">
                <path d="M205.933,6.379C201.5,6.641 198.868,8.883 195.745,13.567L5.527,333.054L5.527,450.098C5.748,454.522 12.41,461.411 16.839,461.411L395.245,461.411C399.674,461.411 406.336,454.522 406.558,450.098L406.558,333.054L216.339,13.567C213.216,8.883 210.584,6.641 206.152,6.379C206.078,6.378 206.004,6.375 205.933,6.379Z" style="fill:rgb(30,80,163);"/>
            </g>
        </g>
        <g transform="matrix(1.9536,0,0,2.7088,-349.426,-533.855)">
            <path d="M478.08,431.641C490.86,431.551 505.787,431.542 516.62,431.641C529.124,452.152 536.708,468.241 548.75,487.802C529.905,487.861 515.72,487.797 497.511,487.802C490.076,467.79 484.772,450.344 478.08,431.641Z" style="fill:white;fill-rule:nonzero;"/>
            <path d="M442.56,431.634C443.31,433.194 456.82,474.452 460.96,487.802C439.429,488.037 430.254,487.965 410.86,487.802C409.65,469.152 407.94,450.324 407.27,431.634C420.077,431.745 431.239,431.653 442.56,431.634Z" style="fill:white;"/>
            <path d="M323.31,487.802C327.262,475.544 334.284,458.456 344.925,431.634C354.98,431.741 372.211,431.534 380.85,431.634C378.122,450.968 375.51,468.982 373.42,487.802C356.71,487.912 340.01,488.072 323.31,487.802Z" style="fill:white;"/>
            <path d="M269.208,431.641C281.428,431.701 295.1,431.55 307.32,431.64C299.88,450.45 292.95,469.212 285,487.802C268.13,487.992 251.957,488.005 234.3,487.802C245.11,470.062 266.703,435.507 269.208,431.641Z" style="fill:white;fill-rule:nonzero;"/>
        </g>
        <g transform="matrix(1,0,0,1,41.9579,77.3739)">
            <path d="M425.443,313.899C425.136,316.889 425.191,319.727 425.746,322.275C418.323,364.666 419.808,408.756 432.133,450.11C438.385,470.567 435.608,494.376 448.363,512.468C474.25,539 492.288,572.41 502.787,607.807C508.716,611.767 515.972,619.505 510.884,626.85C492.844,634.481 475.234,646.449 454.705,644.299C442.855,643.057 443.151,632.377 456.443,627.083C462.784,624.557 468.642,620.902 472.44,615.081C462.981,608.112 461.512,595.59 455.296,586.257C441.968,560.639 419.754,541.777 399.977,521.551C390.035,498.352 383.639,473.541 375.041,449.698C360.416,472.355 346.941,495.903 334.228,519.677C329.272,548.9 320.87,577.559 309.375,604.885C308.455,605.079 307.541,605.271 306.631,605.466C306.107,606.001 305.543,606.387 304.867,606.378C303.695,610.589 304.741,609.703 303.698,613.616C309.605,620.437 305.562,630.405 298.031,631.158C296.211,631.56 294.217,631.395 292.214,630.475C290.558,629.715 288.947,628.918 287.37,628.1C287.223,628.023 287.075,627.946 286.926,627.868C276.248,622.276 267.064,615.73 255.437,612.666C242.911,609.365 238.31,595.985 252.217,595.28C263.008,596.717 261.731,597.373 271.039,596.444C278.507,571.975 286.094,547.477 292.236,522.649C291.098,514.766 291.613,508.174 293.261,502.761C293.185,501.72 293.288,500.792 293.597,500.012C307.223,465.626 334.251,435.283 335.164,396.869C339.607,375.478 335.823,353.81 334.628,332.308L334.573,331.285C307.201,363.19 283.35,356.26 246.179,374.732C232.188,379.014 224.538,360.311 236.218,352.573C272.234,334.705 294.982,334.886 314.061,295.923C321.514,284.403 323.734,269.75 333.552,259.826L333.761,259.65C342.665,252.28 354.837,250.871 364.293,244.276C364.329,243.147 364.382,240.872 364.4,239.726C349.926,236.268 352.165,221.202 343.906,212.138C348.958,201.551 348.904,190.893 346.45,180C362.429,162.247 396.359,165.723 408.558,186.736C419.611,202.662 411.335,224.839 397.685,236.305C397.739,239.582 397.846,242.879 397.954,246.157C398.993,246.918 400.06,247.635 401.146,248.318C407.335,249.23 433.36,260.197 440.563,274.025C440.799,273.795 440.779,273.945 440.558,274.421C454.316,289.798 466.417,306.613 476.958,324.349C490.086,348.724 491.429,376.985 496.676,403.652C500.527,417.46 479.555,424.498 473.036,412.499C465.353,394.465 471.084,373.314 462.022,355.583C454.716,338.212 440.728,324.851 426.06,313.551C425.852,313.671 425.646,313.788 425.443,313.899Z" style="fill:white;fill-rule:nonzero;"/>
            <path d="M333.225,260.162L332.486,258.11C337.102,254.288 342.553,251.987 348.088,249.811C352.972,247.891 357.924,246.072 362.323,243.193C362.339,242.585 362.356,241.888 362.37,241.24C355.479,239.073 352.333,234.311 349.983,228.822C347.787,223.688 346.403,217.848 342.428,213.485C341.88,212.884 341.751,212.011 342.101,211.277C346.948,201.119 346.853,190.89 344.499,180.44C344.356,179.807 344.529,179.144 344.963,178.662C353.376,169.316 366.493,165.498 379.133,166.842C391.738,168.182 403.819,174.649 410.241,185.654C421.622,202.132 413.611,224.982 399.701,237.209C399.752,239.838 399.834,242.477 399.92,245.106C400.563,245.557 401.216,245.992 401.877,246.414C406.071,247.211 416.848,251.384 426.445,257.585C432.866,261.735 438.737,266.8 441.889,272.284C442.1,272.437 442.281,272.637 442.432,272.883C442.493,272.983 442.656,273.306 442.682,273.798C456.264,289.078 468.233,305.753 478.677,323.327C478.692,323.352 478.706,323.376 478.719,323.401C491.93,347.931 493.351,376.354 498.621,403.181C500.826,411.216 495.914,417.324 489.416,419.637C482.965,421.934 475.05,420.394 471.279,413.454C471.249,413.398 471.221,413.341 471.196,413.283C467.267,404.059 466.726,394.045 466.051,384.062C465.409,374.574 464.647,365.113 460.242,356.493C460.219,356.449 460.198,356.404 460.179,356.359C453.41,340.265 440.764,327.71 427.259,317.024C427.237,318.72 427.371,320.34 427.7,321.85C427.755,322.103 427.76,322.365 427.716,322.62C420.347,364.705 421.813,408.478 434.048,449.533C437.199,459.848 438.09,471.006 439.785,481.867C441.411,492.282 443.778,502.427 449.906,511.186C475.793,537.76 493.897,571.153 504.5,606.556C507.532,608.678 510.761,611.679 512.702,615.065C515.001,619.074 515.575,623.59 512.528,627.989C512.312,628.3 512.013,628.544 511.663,628.692C502.631,632.513 493.705,637.418 484.469,641.1C474.945,644.897 465.095,647.398 454.497,646.288C454.496,646.288 454.496,646.288 454.496,646.288C447.107,645.514 443.834,641.414 444.151,637.065C444.442,633.071 448.091,628.256 455.703,625.225C461.107,623.072 466.162,620.081 469.719,615.462C465.616,611.897 463.033,607.274 460.828,602.377C458.547,597.308 456.679,591.942 453.631,587.365C453.591,587.305 453.555,587.244 453.522,587.18C440.285,561.738 418.188,543.036 398.547,522.949C398.375,522.773 398.236,522.566 398.139,522.339C388.713,500.345 382.466,476.906 374.522,454.21C360.83,475.673 348.147,497.902 336.146,520.332C331.157,549.596 322.731,578.293 311.219,605.661C310.964,606.266 310.429,606.707 309.786,606.842C309.049,606.997 308.315,607.152 307.585,607.307C307.244,607.593 306.888,607.829 306.515,608.005C306.196,609.4 306.248,609.943 306.221,610.664C306.199,611.269 306.14,611.971 305.876,613.135C311.884,621.182 306.951,632.184 298.355,633.134C296.169,633.594 293.779,633.394 291.38,632.293C291.38,632.293 291.38,632.293 291.38,632.293C289.694,631.519 288.055,630.708 286.45,629.875C286.299,629.797 286.148,629.719 285.995,629.638C275.455,624.118 266.405,617.625 254.927,614.6C254.927,614.6 254.927,614.6 254.927,614.6C249.902,613.276 246.043,610.461 243.857,607.408C242.226,605.129 241.509,602.692 241.747,600.535C242.145,596.923 245.143,593.636 252.115,593.283C252.237,593.276 252.359,593.281 252.48,593.298C262.465,594.627 261.858,595.29 269.516,594.582C276.81,570.696 284.192,546.777 290.201,522.546C289.109,514.655 289.633,508.016 291.245,502.524C291.198,501.303 291.367,500.211 291.737,499.276C291.737,499.276 291.737,499.275 291.737,499.275C298.574,482.022 308.765,465.78 317.369,449.037C325.805,432.62 332.715,415.719 333.164,396.822C333.167,396.701 333.181,396.581 333.205,396.462C337.354,376.493 334.236,356.279 332.866,336.19C320.072,349.871 307.905,355.642 294.669,359.948C280.72,364.486 265.547,367.34 247.069,376.523C246.971,376.572 246.869,376.612 246.764,376.644C230.494,381.624 221.531,359.904 235.114,350.905C235.183,350.859 235.255,350.818 235.33,350.781C249.752,343.626 262.049,339.36 272.837,334.322C288.622,326.951 301.085,317.875 312.265,295.043C312.3,294.972 312.339,294.903 312.382,294.836C316.047,289.171 318.411,282.729 321.081,276.49C323.894,269.914 327.042,263.563 332.13,258.419C331.562,258.993 331.395,259.852 331.706,260.596C331.818,260.864 331.984,261.099 332.189,261.288C323.509,271.15 321.156,284.956 314.061,295.923C294.982,334.886 272.234,334.705 236.218,352.573C224.538,360.311 232.188,379.014 246.179,374.732C283.35,356.26 307.201,363.19 334.573,331.285L334.628,332.308C335.823,353.81 339.607,375.478 335.164,396.869C334.251,435.283 307.223,465.626 293.597,500.012C293.288,500.792 293.185,501.72 293.261,502.761C291.613,508.174 291.098,514.766 292.236,522.649C286.094,547.477 278.507,571.975 271.039,596.444C261.731,597.373 263.008,596.717 252.217,595.28C238.31,595.985 242.911,609.365 255.437,612.666C267.064,615.73 276.248,622.276 286.926,627.868C287.075,627.946 287.223,628.023 287.37,628.1C288.947,628.918 290.558,629.715 292.214,630.475C294.217,631.395 296.211,631.56 298.031,631.158C305.562,630.405 309.605,620.437 303.698,613.616C304.741,609.703 303.695,610.589 304.867,606.378C305.543,606.387 306.107,606.001 306.631,605.466C307.541,605.271 308.455,605.079 309.375,604.885C320.87,577.559 329.272,548.9 334.228,519.677C346.941,495.903 360.416,472.355 375.041,449.698C383.639,473.541 390.035,498.352 399.977,521.551C419.754,541.777 441.968,560.639 455.296,586.257C461.512,595.59 462.981,608.112 472.44,615.081C468.642,620.902 462.784,624.557 456.443,627.083C443.151,632.377 442.855,643.057 454.705,644.299C475.234,646.449 492.844,634.481 510.884,626.85C515.972,619.505 508.716,611.767 502.787,607.807C492.288,572.41 474.25,539 448.363,512.468C435.608,494.376 438.385,470.567 432.133,450.11C419.808,408.756 418.323,364.666 425.746,322.275C425.191,319.727 425.136,316.889 425.443,313.899C425.646,313.788 425.852,313.671 426.06,313.551C440.728,324.851 454.716,338.212 462.022,355.583C471.084,373.314 465.353,394.465 473.036,412.499C479.555,424.498 500.527,417.46 496.676,403.652C491.429,376.985 490.086,348.724 476.958,324.349C466.417,306.613 454.316,289.798 440.558,274.421C440.779,273.945 440.799,273.795 440.563,274.025C433.36,260.197 407.335,249.23 401.146,248.318C400.06,247.635 398.993,246.918 397.954,246.157C397.846,242.879 397.739,239.582 397.685,236.305C411.335,224.839 419.611,202.662 408.558,186.736C396.359,165.723 362.429,162.247 346.45,180C348.904,190.893 348.958,201.551 343.906,212.138C352.165,221.202 349.926,236.268 364.4,239.726C364.382,240.872 364.329,243.147 364.293,244.276C354.837,250.871 342.665,252.28 333.761,259.65L333.552,259.826C333.442,259.937 333.333,260.049 333.225,260.162ZM441.881,275.53L441.962,275.455C441.935,275.481 441.908,275.506 441.881,275.53ZM333.219,260.168L332.47,258.123C332.47,258.123 332.271,258.29 332.271,258.29L333.025,260.371L333.097,260.295L333.219,260.168Z" style="fill:rgb(30,80,163);"/>
        </g>
    </g>
</svg>
