<?xml version="1.0" encoding="UTF-8" standalone="no"?>
<!DOCTYPE svg PUBLIC "-//W3C//DTD SVG 1.1//EN" "http://www.w3.org/Graphics/SVG/1.1/DTD/svg11.dtd">
<!-- GeoHints -->
<svg width="100%" height="100%" viewBox="0 0 898 898" version="1.1" xmlns="http://www.w3.org/2000/svg" xmlns:xlink="http://www.w3.org/1999/xlink" xml:space="preserve" xmlns:serif="http://www.serif.com/" style="fill-rule:evenodd;clip-rule:evenodd;stroke-linejoin:round;stroke-miterlimit:2;">
    <path d="M895.675,845.979C895.675,873.421 873.408,895.638 846.017,895.638L51.333,895.638C23.9,895.638 1.667,873.404 1.667,845.979L1.667,51.333C1.667,23.9 23.9,1.667 51.333,1.667L846.004,1.667C873.412,1.667 895.662,23.9 895.662,51.333L895.662,845.979L895.675,845.979Z" style="fill:white;fill-rule:nonzero;stroke:black;stroke-width:3.33px;"/>
    <path d="M873.817,51.333C873.817,35.963 861.35,23.517 846,23.517L51.333,23.517C35.975,23.517 23.517,35.958 23.517,51.333L23.517,845.979C23.517,861.329 35.975,873.779 51.333,873.779L846.004,873.779C861.354,873.779 873.821,861.329 873.821,845.979L873.821,51.333" style="fill:rgb(25,64,139);fill-rule:nonzero;"/>
    <path d="M870.808,736.717L448.663,21.517L26.496,736.717L870.808,736.717" style="fill:white;fill-rule:nonzero;"/>
    <g transform="matrix(0.801121,0,0,1.00901,89.0311,6.62588)">
        <g transform="matrix(1,0,-0.274969,1,31.5279,0)">
            <path d="M185.608,568.829L224.6,568.829L172.613,707.454L129.313,707.454L185.608,568.829Z"/>
        </g>
        <g transform="matrix(1,0,-0.274969,1,31.5279,0)">
            <path d="M252.75,568.829L291.713,568.829L257.079,707.454L213.758,707.454L252.75,568.829Z"/>
        </g>
        <g transform="matrix(1,0,-0.0638246,1,45.153,0)">
            <path d="M185.608,568.829L224.6,568.829L172.613,707.454L129.313,707.454L185.608,568.829Z"/>
        </g>
        <g transform="matrix(1,0,-0.0638246,1,45.153,0)">
            <path d="M252.75,568.829L291.713,568.829L257.079,707.454L213.758,707.454L252.75,568.829Z"/>
        </g>
        <g transform="matrix(1,0,-0.0638246,1,45.153,0)">
            <path d="M324.217,568.829L363.196,568.829L345.879,707.454L302.546,707.454L324.217,568.829Z"/>
        </g>
        <g transform="matrix(1,0,-0.0319123,1,22.5765,0)">
            <path d="M393.496,568.829L432.492,568.829L428.163,707.454L384.846,707.454L393.496,568.829Z"/>
        </g>
        <path d="M506.125,568.829L467.163,568.829L471.492,707.454L514.8,707.454L506.125,568.829Z"/>
        <path d="M575.429,568.829L536.45,568.829L553.767,707.454L597.108,707.454L575.429,568.829Z"/>
        <g transform="matrix(1,0,0.0425497,1,-30.102,0)">
            <path d="M646.896,568.829L607.933,568.829L642.567,707.454L685.879,707.454L646.896,568.829Z"/>
        </g>
        <g transform="matrix(1,0,0.0425497,1,-30.102,0)">
            <path d="M770.35,707.454L714.037,568.829L675.021,568.829L727.025,707.454L770.35,707.454Z"/>
        </g>
        <g transform="matrix(1,0,0.26214,1,-23.4519,0)">
            <path d="M646.896,568.829L607.933,568.829L642.567,707.454L685.879,707.454L646.896,568.829Z"/>
        </g>
        <g transform="matrix(1,0,0.26214,1,-23.4519,0)">
            <path d="M770.35,707.454L714.037,568.829L675.021,568.829L727.025,707.454L770.35,707.454Z"/>
        </g>
    </g>
    <g transform="matrix(1.00901,0,0,1.00901,-4.04547,6.62588)">
        <path d="M412.342,296.629L455.896,271.783C455.896,271.783 470.025,261.479 484.167,274.079C484.167,274.446 567.842,353.163 567.842,353.163C567.842,353.163 573.538,356.213 573.538,366.892L573.538,410.829C573.538,410.829 573.929,413.896 571.65,416.95C570.867,417.35 567.075,433.763 545.3,442.146C544.908,442.146 532.688,446.746 532.688,435.667L532.688,377.608L490.679,349.713L490.679,449.021L523.917,547.213L549.146,579.65L554.096,666.013L506.733,602.992L481.146,570.504L449.846,505.204C449.846,505.204 443.7,495.65 436.45,505.563L402.45,546.838C402.45,546.838 397.487,551.038 397.487,554.096L397.487,598.417L388.317,623.629C388.317,623.629 369.983,671.367 348.587,666.775C348.971,666.775 353.55,573.188 353.55,573.188L353.55,545.729C353.55,545.729 352.037,539.204 357.75,529.679C357.367,529.288 404.35,450.188 404.35,450.188L404.35,379.929L331.017,449.817C331.017,449.817 329.104,453.625 323,454.017C322.617,454.392 311.533,457.825 296.633,452.113C297.017,452.113 286.312,447.913 296.25,436.446C295.833,436.829 412.342,296.629 412.342,296.629ZM392.879,229.692C392.879,206.5 411.679,187.675 434.879,187.675C458.096,187.675 476.913,206.5 476.913,229.692C476.913,252.908 458.096,271.708 434.879,271.708C411.675,271.708 392.879,252.912 392.879,229.692Z" style="fill-rule:nonzero;"/>
    </g>
</svg>
