<?xml version="1.0" encoding="UTF-8" standalone="no"?>
<!DOCTYPE svg PUBLIC "-//W3C//DTD SVG 1.1//EN" "http://www.w3.org/Graphics/SVG/1.1/DTD/svg11.dtd">
<!-- GeoHints -->
<svg width="100%" height="100%" viewBox="0 0 218 193" version="1.1" xmlns="http://www.w3.org/2000/svg" xmlns:xlink="http://www.w3.org/1999/xlink" xml:space="preserve" xmlns:serif="http://www.serif.com/" style="fill-rule:evenodd;clip-rule:evenodd;stroke-linejoin:round;stroke-miterlimit:2;">
    <g>
        <path d="M14.125,192.414C6.32,192.414 0,186.086 0,178.297C0,175.754 0.672,173.371 1.84,171.313L96.668,7.09C99.104,2.855 103.676,0 108.916,0C114.154,0 118.729,2.855 121.17,7.09L215.99,171.313C217.162,173.372 217.834,175.754 217.834,178.297C217.834,186.086 211.514,192.414 203.709,192.414L14.125,192.414" style="fill:rgb(228,20,8);fill-rule:nonzero;"/>
        <path d="M21.881,173.879L108.916,23.176L195.951,173.879L21.881,173.879" style="fill:white;fill-rule:nonzero;"/>
        <g transform="matrix(0.342354,0,0,0.300504,-26.5436,-25.54)">
            <path d="M197.384,640.342L241.092,543.6L275.007,543.22L239.47,640.314L197.384,640.342Z" style="fill-rule:nonzero;"/>
            <path d="M378.082,543.264L412.625,543.355L415.859,639.829L373.919,639.916L378.082,543.264Z" style="fill-rule:nonzero;"/>
            <path d="M311.298,543.182L331.179,543.627C331.179,543.627 329.067,548.548 327.567,552.451C322.203,566.41 318.178,579.621 320.253,589.231C321.693,595.901 331.099,598.318 335.886,598.221C335.916,600.571 327.743,640.188 327.743,640.188L284.841,640.367L311.298,543.182Z" style="fill-rule:nonzero;"/>
            <path d="M517.367,543.492L552.704,543.43L593.321,640.109L549.667,639.986L517.367,543.492Z" style="fill-rule:nonzero;"/>
            <path d="M478.94,602.141C484.427,603.308 488.286,598.437 490.693,588.904C494.585,602.432 505.74,640.306 505.74,640.306L462.323,640.089C462.323,640.089 458.722,606.114 457.422,586.589C464.929,597.738 471.46,600.551 478.94,602.141Z" style="fill-rule:nonzero;"/>
            <g transform="matrix(2.92095,0,0,3.32775,77.5326,84.9906)">
                <path d="M139.985,146.584L137.814,137.777L132.899,137.777L139.985,146.584Z"/>
            </g>
        </g>
        <g transform="matrix(0.342354,0,0,0.300504,-26.5436,-25.54)">
            <path d="M400.22,354.01C401.7,353.4 401.048,352.118 404.92,352.59C409.471,353.145 439.827,387.553 449.94,397.09C458.37,405.04 465.97,414.66 467.36,425.93C467.41,428.78 472.04,453.31 471.46,458.08C469.79,463.75 463.63,466.65 459.54,461.11C458.56,458.23 452.378,425.354 452.688,423.894C445.394,411.514 432.94,400.467 430.31,398.5C427.42,397.74 426.821,399.182 425.46,401.48C425.114,426.916 424.465,453.055 427.55,473.41C429.33,477.89 431.75,483.14 432.6,488.42C437.34,503.09 459.01,536.25 459.64,540.36C469.19,553.15 483.292,572.652 486.49,581.91C488.227,586.938 486.603,594.01 483.942,596.326C481.853,598.144 472.571,597.672 470.525,595.806C466.103,591.774 452.43,573.88 452.3,571.72C435.94,546.6 416.61,521.06 409.43,491.63C408.07,487.45 406.18,483.25 404.43,479.46C402.81,479.46 401.2,479.47 399.6,479.48C388.45,492.26 378.43,508 369.7,522.74C363.56,538.11 357.33,553.6 351.49,569.4C348.59,578.34 341.7,590.648 337.05,593.42C332.653,596.041 322.069,593.466 323.006,581.704C323.853,571.075 334.34,548.42 341.46,529.58C349.08,502.27 368.76,481.61 382.52,458.64C382.65,442.58 382.69,426.52 382.57,410.47C382.552,408.104 381.699,407.089 378.12,409.52C375.642,411.203 368.08,420.29 367.84,420.83C361.1,425.65 342.497,443.793 336.02,448.39C334.106,449.748 330.773,449.505 328.98,448.41C327.187,447.315 323.927,442.338 325.26,440.156C328.911,434.177 345.477,418.817 359.65,408.542C365.612,399.724 380.71,372.28 400.22,354.01Z" style="fill-rule:nonzero;"/>
        </g>
        <g transform="matrix(0.754781,0,0,0.754781,26.487,16.5918)">
            <path d="M97.309,75.309C97.309,70.579 101.145,66.743 105.873,66.743C110.603,66.743 114.436,70.579 114.436,75.309C114.436,80.032 110.604,83.872 105.873,83.872C101.145,83.871 97.309,80.031 97.309,75.309" style="fill-rule:nonzero;"/>
        </g>
    </g>
</svg>
