<?xml version="1.0" encoding="UTF-8" standalone="no"?>
<!DOCTYPE svg PUBLIC "-//W3C//DTD SVG 1.1//EN" "http://www.w3.org/Graphics/SVG/1.1/DTD/svg11.dtd">
<!-- GeoHints -->
<svg width="100%" height="100%" viewBox="0 0 218 193" version="1.1" xmlns="http://www.w3.org/2000/svg" xmlns:xlink="http://www.w3.org/1999/xlink" xml:space="preserve" xmlns:serif="http://www.serif.com/" style="fill-rule:evenodd;clip-rule:evenodd;stroke-linejoin:round;stroke-miterlimit:2;">
    <g>
        <path d="M14.125,192.414C6.32,192.414 0,186.086 0,178.297C0,175.754 0.672,173.371 1.84,171.313L96.668,7.09C99.104,2.855 103.676,0 108.916,0C114.154,0 118.729,2.855 121.17,7.09L215.99,171.313C217.162,173.372 217.834,175.754 217.834,178.297C217.834,186.086 211.514,192.414 203.709,192.414L14.125,192.414" style="fill:rgb(228,20,8);fill-rule:nonzero;"/>
        <path d="M21.881,173.879L108.916,23.176L195.951,173.879L21.881,173.879" style="fill:white;fill-rule:nonzero;"/>
        <g transform="matrix(1.08489,0,0,1.08489,-9.26706,-13.9936)">
            <g transform="matrix(0.209634,0,0,0.209634,14.8643,19.4812)">
                <path d="M393.496,568.829L432.492,568.829L428.163,707.454L384.846,707.454L393.496,568.829ZM506.125,568.829L467.163,568.829L471.492,707.454L514.8,707.454L506.125,568.829ZM324.217,568.829L363.196,568.829L345.879,707.454L302.546,707.454L324.217,568.829ZM575.429,568.829L536.45,568.829L553.767,707.454L597.108,707.454L575.429,568.829ZM646.896,568.829L607.933,568.829L642.567,707.454L685.879,707.454L646.896,568.829ZM252.75,568.829L291.713,568.829L257.079,707.454L213.758,707.454L252.75,568.829ZM185.608,568.829L224.6,568.829L172.613,707.454L129.313,707.454L185.608,568.829ZM714.038,568.829L675.021,568.829L727.025,707.454L770.35,707.454L714.037,568.829L714.038,568.829Z" style="fill:rgb(28,29,32);fill-rule:nonzero;"/>
            </g>
            <g transform="matrix(0.209634,0,0,0.209634,14.8643,19.4812)">
                <path d="M412.342,296.629L455.896,271.783C455.896,271.783 470.025,261.479 484.167,274.079C484.167,274.446 567.842,353.163 567.842,353.163C567.842,353.163 573.538,356.213 573.538,366.892L573.538,410.829C573.538,410.829 573.929,413.896 571.65,416.95C570.867,417.35 567.075,433.763 545.3,442.146C544.908,442.146 532.688,446.746 532.688,435.667L532.688,377.608L490.679,349.713L490.679,449.021L523.917,547.213L549.146,579.65L554.096,666.013L506.733,602.992L481.146,570.504L449.846,505.204C449.846,505.204 443.7,495.65 436.45,505.563L402.45,546.838C402.45,546.838 397.487,551.038 397.487,554.096L397.487,598.417L388.317,623.629C388.317,623.629 369.983,671.367 348.587,666.775C348.971,666.775 353.55,573.188 353.55,573.188L353.55,545.729C353.55,545.729 352.037,539.204 357.75,529.679C357.367,529.288 404.35,450.188 404.35,450.188L404.35,379.929L331.017,449.817C331.017,449.817 329.104,453.625 323,454.017C322.617,454.392 311.533,457.825 296.633,452.113C297.017,452.113 286.312,447.913 296.25,436.446C295.833,436.829 412.342,296.629 412.342,296.629ZM392.879,229.692C392.879,206.5 411.679,187.675 434.879,187.675C458.096,187.675 476.913,206.5 476.913,229.692C476.913,252.908 458.096,271.708 434.879,271.708C411.675,271.708 392.879,252.912 392.879,229.692Z" style="fill:rgb(28,29,32);fill-rule:nonzero;"/>
            </g>
        </g>
    </g>
</svg>
