<?xml version="1.0" encoding="UTF-8" standalone="no"?>
<!DOCTYPE svg PUBLIC "-//W3C//DTD SVG 1.1//EN" "http://www.w3.org/Graphics/SVG/1.1/DTD/svg11.dtd">
<!-- GeoHints -->
<svg width="100%" height="100%" viewBox="0 0 1243 1243" version="1.1" xmlns="http://www.w3.org/2000/svg" xmlns:xlink="http://www.w3.org/1999/xlink" xml:space="preserve" xmlns:serif="http://www.serif.com/" style="fill-rule:evenodd;clip-rule:evenodd;stroke-linejoin:round;stroke-miterlimit:2;">
    <g transform="matrix(1.12997,0,0,1.1334,-83.2483,-82.5219)">
        <path d="M1173.67,159.092C1173.67,111.439 1134.93,72.809 1087.13,72.809L160.219,72.809C112.421,72.809 73.673,111.439 73.673,159.092L73.673,1082.53C73.673,1130.18 112.421,1168.81 160.219,1168.81L1087.13,1168.81C1134.93,1168.81 1173.67,1130.18 1173.67,1082.53L1173.67,159.092Z" style="fill:rgb(254,254,254);"/>
    </g>
    <g transform="matrix(0.99697,0,0,1,0.0374006,0.103015)">
        <path d="M1173.67,100.801C1173.67,85.341 1161.1,72.809 1145.6,72.809L101.75,72.809C86.244,72.809 73.673,85.341 73.673,100.801L73.673,1140.82C73.673,1156.28 86.244,1168.81 101.75,1168.81L1145.6,1168.81C1161.1,1168.81 1173.67,1156.28 1173.67,1140.82L1173.67,100.801Z" style="fill:rgb(0,0,255);"/>
    </g>
    <g transform="matrix(0.968095,0,0,0.997762,5.41238,-1.55517)">
        <path d="M636.372,152.704L1169.21,1046.18L103.532,1046.18L636.372,152.704Z" style="fill:white;"/>
    </g>
    <g transform="matrix(1,0,0,1,-3.51919,-1.89699)">
        <path d="M582.583,490.125C591.409,486.142 627.5,469.833 636.792,465.25C655.458,472 671.667,484.875 682.417,501.625C702.25,531.792 721.583,562.417 740.792,593C753.583,620 771.847,659.401 777.417,674.875C779.479,680.604 774.22,687.887 769.042,689.833C763.344,691.975 749.295,691.528 744.125,681.75C731.75,658.347 704.458,604.875 679.792,566.667C677.583,587.75 678.125,608.958 678.167,630.125C677.875,635.917 680.667,641.167 682.5,646.542C699.708,690.667 716.083,735.167 733.417,779.292C747.333,805.208 762.625,830.417 777.208,856C782.917,866.625 792.375,877.167 790.167,890.125C785.167,908.417 763.625,918.708 746.167,910.958C740.667,904.292 735.083,897.542 730.833,889.958C712.833,859.375 694.083,829.208 676.208,798.583C661.5,767.875 655.208,733.583 639.583,703.292C625.792,718.917 616.25,737.583 604.75,754.833C595.292,770.333 584.208,784.958 576.5,801.5C560.792,835.583 544.083,869.167 528.208,903.167C524.167,913 514.917,920.208 504.042,920.042C483.667,922.667 465.083,898.5 475.042,879.875C490.167,844.875 506.333,810.333 521.292,775.25C525.833,763.958 533.125,754.125 539.667,743.958C560.458,711.833 580.875,679.5 601.917,647.542C596.208,625.125 589.583,602.833 586.125,579.917C585.125,578.667 583.167,576.125 582.208,574.875C571.292,592.542 561.208,610.125 549.667,628.042C530.125,638.167 515.667,644.667 499,653.625C490.458,657.5 478.75,660.854 472.208,659.917C467.045,659.177 462.882,652.757 461,649C459.265,645.535 458.95,640.714 460.917,637.375C463.278,633.368 467.625,626.083 473.917,623.958C491.833,615.75 509.167,606.375 527.042,598C546.25,562.5 564.708,526.417 582.583,490.125ZM546.167,441.208C539.042,413.083 562.708,382.5 591.625,382.25C623.708,379.833 651.5,416.958 638.375,446.875C629.594,466.89 608.732,476.498 597.25,478C574,481.042 552.333,462.792 546.167,441.208Z" style="fill-rule:nonzero;"/>
        <path d="M274.083,815.042L354.75,814.958L274.042,1008.54L173.75,1008.25L274.083,815.042ZM767.042,815.167C783.25,815.542 814.958,814.792 814.958,814.792L868.208,1008.54L766.875,1008.67C766.875,1008.67 758.208,952 750.417,925.125C772.833,931.875 795.875,915.625 802.75,894.625C804.417,889 803.583,882.958 800.917,877.792C790.292,856.542 776.292,837.083 767.042,815.167ZM427.792,814.958C427.792,814.958 468.833,815.333 489.333,814.958C479.625,838.792 466.75,863.333 458.792,887.833C454.333,908.917 474.208,922.042 486.958,935C482.75,958.125 473.917,1008.42 473.917,1008.42L372.333,1008.08L427.792,814.958ZM581.333,814.917L662.167,814.875L672.208,1008.75L566.792,1009.17L581.333,814.917ZM888.208,815.042L968.458,815.458L1069.08,1008.21L963.667,1008.54L888.208,815.042Z" style="fill-rule:nonzero;"/>
    </g>
</svg>
