<?xml version="1.0" encoding="UTF-8" standalone="no"?>
<!DOCTYPE svg PUBLIC "-//W3C//DTD SVG 1.1//EN" "http://www.w3.org/Graphics/SVG/1.1/DTD/svg11.dtd">
<!-- GeoHints -->
<svg width="100%" height="100%" viewBox="0 0 218 193" version="1.1" xmlns="http://www.w3.org/2000/svg" xmlns:xlink="http://www.w3.org/1999/xlink" xml:space="preserve" xmlns:serif="http://www.serif.com/" style="fill-rule:evenodd;clip-rule:evenodd;stroke-linejoin:round;stroke-miterlimit:2;">
    <g>
        <path d="M14.125,192.414C6.32,192.414 0,186.086 0,178.297C0,175.754 0.672,173.371 1.84,171.313L96.668,7.09C99.104,2.855 103.676,0 108.916,0C114.154,0 118.729,2.855 121.17,7.09L215.99,171.313C217.162,173.372 217.834,175.754 217.834,178.297C217.834,186.086 211.514,192.414 203.709,192.414L14.125,192.414" style="fill:rgb(228,20,8);fill-rule:nonzero;"/>
        <path d="M21.881,173.879L108.916,23.176L195.951,173.879L21.881,173.879" style="fill:white;fill-rule:nonzero;"/>
        <g transform="matrix(0.883233,0,0,0.883233,9.98748,7.91838)">
            <path d="M97.309,75.309C97.309,70.579 101.145,66.743 105.873,66.743C110.603,66.743 114.436,70.579 114.436,75.309C114.436,80.032 110.604,83.872 105.873,83.872C101.145,83.871 97.309,80.031 97.309,75.309" style="fill:rgb(28,29,32);fill-rule:nonzero;"/>
        </g>
        <path d="M101.279,88.941L110.152,83.882C110.152,83.882 113.033,81.78 115.912,84.351C115.912,84.429 132.967,100.46 132.967,100.46C132.967,100.46 134.131,101.085 134.131,103.261L134.131,112.218C134.131,112.218 134.209,112.839 133.74,113.464C133.584,113.542 132.81,116.89 128.373,118.597C128.295,118.597 125.803,119.535 125.803,117.273L125.803,105.441L117.24,99.765L117.24,120.003L124.013,140.011L129.146,146.62C129.146,146.62 138.551,158.21 139.531,160.171C140.904,162.92 136.418,165.879 133.49,164.534C132.089,163.89 120.506,151.37 120.506,151.37L115.287,144.757L108.916,131.444C108.916,131.444 107.664,129.495 106.184,131.526L99.256,139.928C99.256,139.928 98.244,140.78 98.244,141.405C98.244,141.487 97.796,156.388 97.796,156.388L96.697,162.805C96.3,164.127 92.011,167.404 88.279,164.37C88.22,164.322 89.293,145.3 89.293,145.3L89.293,139.695C89.293,139.695 88.98,138.375 90.148,136.422C90.072,136.352 99.644,120.234 99.644,120.234L99.644,105.91L84.697,120.16C84.697,120.16 84.308,120.933 83.064,121.015C82.988,121.093 80.728,121.788 77.691,120.62C77.767,120.62 75.591,119.765 77.611,117.429C77.537,117.512 101.279,88.941 101.279,88.941" style="fill:rgb(28,29,32);fill-rule:nonzero;"/>
    </g>
</svg>
