<?xml version="1.0" encoding="UTF-8" standalone="no"?>
<!DOCTYPE svg PUBLIC "-//W3C//DTD SVG 1.1//EN" "http://www.w3.org/Graphics/SVG/1.1/DTD/svg11.dtd">
<!-- GeoHints -->
<svg width="100%" height="100%" viewBox="0 0 793 793" version="1.1" xmlns="http://www.w3.org/2000/svg" xmlns:xlink="http://www.w3.org/1999/xlink" xml:space="preserve" xmlns:serif="http://www.serif.com/" style="fill-rule:evenodd;clip-rule:evenodd;stroke-linejoin:round;stroke-miterlimit:2;">
    <g transform="matrix(0.707107,0.707107,-0.707107,0.707107,434.15,-154.366)">
        <rect x="86.331" y="139.576" width="553.136" height="553.136"/>
    </g>
    <g transform="matrix(0.656639,0.656639,-0.656639,0.656639,431.463,-115.05)">
        <rect x="86.331" y="139.576" width="553.136" height="553.136" style="fill:rgb(197,137,16);"/>
    </g>
    <g transform="matrix(1,0,0,1,18.435,4)">
        <path d="M353.46,111.99C353.04,91.41 378.07,84.6 393.96,91.73C395.15,96.69 397.66,101.21 398.97,106.14C402.19,116.4 397.99,126.72 396.12,136.8C395.32,141.95 389.84,143.47 385.38,143.59C384.67,144.21 383.98,144.83 383.29,145.46C383.23,150.89 383.1,156.5 385.42,161.56C398.89,163.44 410.7,172.05 415.89,184.73C428.44,213.53 452.01,237.9 481.14,250C489.37,250.54 497.47,252.88 504.1,257.97C504.82,259.95 505.55,261.93 506.31,263.91C505.88,265.27 505.47,266.64 505.08,268.01C504.47,268.53 503.86,269.05 503.26,269.58C503.27,271.06 503.28,272.53 503.3,274.02C502.16,274.89 501.03,275.76 499.91,276.64C480.02,262.39 453.02,263.32 433.91,247.49C423.23,240.5 420.27,225.81 408.27,220.45C407.12,220.96 405.97,221.46 404.82,221.96C399.18,234.21 401.18,248.49 399.47,261.66C399.47,261.66 395.56,276.47 398.89,283.46C411.26,315.5 424.62,347.19 436.99,379.26C440.48,394.41 441.33,410.05 442.67,425.51C448.99,425.72 455.38,425.07 461.64,426.23C461.63,428.01 461.62,429.79 461.62,431.57C455.5,431.62 449.33,431.26 443.3,432.51C445.36,446.49 447.54,465.04 462.89,470.65C471.28,475.28 483.54,471.68 489.43,480.64C488.9,482.06 488.39,483.5 487.88,484.95C471.44,492.31 453.71,485.71 436.65,486.35C435.67,487.35 434.69,488.35 433.72,489.36C428.41,489.32 422.51,490.56 417.9,487.21C416.08,483.33 416.87,479.01 417.29,474.92C415.43,473.69 413.59,472.45 411.76,471.2C411.77,458.07 406.99,447.6 406.72,434.58C406.26,434.27 406.14,431.45 405.68,431.14C405.58,429.77 405.5,428.42 405.42,427.06C406.61,418.39 404.02,409.93 403.55,401.34C403.36,401.32 401.91,382.92 399.31,374.22C390.81,356.39 379.83,339.9 369.1,323.37C367.37,323.36 365.63,323.36 363.91,323.36C348.44,350.62 338.24,380.47 327.99,409.96C327.5,410.55 326.29,413.95 326.21,414.68C319.16,430.49 314.31,447.2 307.97,463.31C306.43,463.3 304.89,463.28 303.35,463.28C302.17,466.79 301.17,470.3 301.31,474.06C305.67,480.83 312.52,485.44 316.88,492.19C308.05,492.6 295.96,494.74 290.97,485.27C286.68,476.15 282.22,467.19 278.11,457.97C272.52,456.3 268.21,451.5 266.67,445.96C266.87,438.69 273.48,434.24 276.53,428.2C285.81,410.67 294.68,392.93 304.18,375.53C312.28,364 312.59,349.43 316.93,336.4C319.3,330.68 318.065,318.195 317.815,318.195C318.295,311.905 318.23,304.98 320.12,298.51C322.79,289.57 325.3,280.21 331.64,273.06C331.08,255.36 329.52,237.61 327.38,220.03C326.34,219.16 325.31,218.3 324.29,217.44C322.7,217.41 321.11,217.39 319.53,217.37C309,229.25 303.33,244.69 298.56,259.62C298.32,277.68 291.5,296.46 297.99,314.17C297.44,314.89 296.89,315.61 296.35,316.35C295.19,316.38 294.03,316.43 292.87,316.47C291.7,319.64 290.26,322.71 288.26,325.44C286.78,325.4 285.3,325.35 283.82,325.32C278.5,318.08 277.33,308.78 277.65,300.03C277.619,298.519 277.264,297.338 277.69,296.75C277.57,292.83 277.49,288.92 277.34,285.01C277.33,282.64 277.31,280.27 277.27,277.91C278.8,255.23 285.48,233.29 291.95,211.67C292.71,211.26 311.8,180.14 311.9,179.52C316.02,175.7 318.64,170.67 322.27,166.45C331.7,157.48 345.07,154.84 357.56,153.43C366.7,139.18 351.6,126.66 353.46,111.99Z" style="fill-rule:nonzero;"/>
        <g>
            <path d="M149.58,425.62C154.58,425.56 159.58,425.51 164.57,425.54C165.18,426.18 165.79,426.81 166.41,427.45C166.39,428.45 166.38,429.46 166.37,430.47C160.86,431.39 154.85,432.4 149.57,430.1C149.57,428.6 149.58,427.1 149.58,425.62Z" style="fill-rule:nonzero;"/>
            <path d="M184.5,426.38C190.05,425.06 195.78,425.57 201.43,425.66C201.43,427.58 201.43,429.51 201.44,431.44C196.47,431.45 191.49,431.44 186.52,431.4C186.02,431.08 185.03,430.45 184.53,430.14C184.52,428.88 184.51,427.63 184.5,426.38Z" style="fill-rule:nonzero;"/>
            <path d="M221.71,425.59C226.97,425.51 232.28,425.34 237.46,426.44C237.44,428.05 237.43,429.66 237.42,431.28C232.16,431.54 226.89,431.53 221.63,431.45C220.86,430.66 220.08,429.88 219.31,429.1C220.11,427.93 220.91,426.76 221.71,425.59Z" style="fill-rule:nonzero;"/>
            <path d="M251.61,425.6C257.23,425.51 262.85,425.57 268.47,425.68C268.51,427.62 268.56,429.57 268.6,431.52C262.89,431.59 257.18,431.63 251.47,431.45C251.52,429.5 251.56,427.55 251.61,425.6Z" style="fill-rule:nonzero;"/>
            <path d="M330.43,426.5C336.37,425.22 342.54,425.21 348.48,426.56C348.44,428.18 348.42,429.8 348.4,431.43C342.46,431.72 336.51,431.67 330.56,431.41C330.51,429.76 330.47,428.13 330.43,426.5Z" style="fill-rule:nonzero;"/>
            <path d="M367.46,426.61C373.4,425.23 379.54,425.36 385.5,426.55C385.5,428.23 385.5,429.91 385.51,431.6C379.5,431.62 373.5,431.64 367.5,431.51C367.49,429.87 367.47,428.24 367.46,426.61Z" style="fill-rule:nonzero;"/>
            <path d="M482.2,426.72C488.53,425.03 495.13,425.62 501.54,426.46C501.51,426.98 501.43,428.04 501.4,428.56C500.79,429.18 500.2,429.81 499.6,430.44C494.29,430.64 488.98,430.64 483.67,430.47C483.17,429.22 482.68,427.97 482.2,426.72Z" style="fill-rule:nonzero;"/>
            <path d="M522.52,425.66C528.08,425.56 533.64,425.53 539.2,425.59C539.77,425.92 540.92,426.6 541.49,426.93C541.49,428.46 541.5,429.98 541.51,431.51C535.17,431.58 528.83,431.63 522.49,431.49C522.49,429.54 522.5,427.6 522.52,425.66Z" style="fill-rule:nonzero;"/>
            <path d="M564.31,426.59C564.59,426.4 565.15,426.03 565.43,425.84C570.7,426.73 576.05,426.53 581.38,426.52C581.41,427.85 581.44,429.19 581.49,430.53C574.84,430.63 568.2,430.59 561.56,430.48C561.56,429.15 561.56,427.82 561.57,426.49C562.25,426.52 563.62,426.57 564.31,426.59Z" style="fill-rule:nonzero;"/>
            <path d="M602.44,426.48C608.63,424.82 614.93,426.42 621.18,426.62C621.63,427.78 622.09,428.94 622.56,430.11C622.23,430.71 621.57,431.9 621.23,432.5C614.99,432.61 608.75,432.64 602.52,432.38C602.48,430.41 602.46,428.44 602.44,426.48Z" style="fill-rule:nonzero;"/>
            <path d="M161.25,516.51C166.96,516.31 172.68,516.36 178.39,516.55C178.43,518.22 178.47,519.89 178.52,521.56C173.18,521.69 167.84,521.68 162.5,521.53C162.08,519.86 161.66,518.18 161.25,516.51Z" style="fill-rule:nonzero;"/>
            <path d="M195.02,521.45C195.65,512.75 206.71,517.91 212.42,516.65C212.48,518.59 212.54,520.54 212.6,522.5C206.73,522.59 200.76,522.99 195.02,521.45Z" style="fill-rule:nonzero;"/>
            <path d="M229.56,516.56C235.51,516.48 241.53,516.3 247.37,517.68C247.37,518.53 247.37,519.38 247.38,520.24C246.7,520.96 246.02,521.68 245.34,522.41C240.06,522.56 234.77,522.63 229.51,522.22C229.52,520.33 229.54,518.44 229.56,516.56Z" style="fill-rule:nonzero;"/>
            <path d="M265.51,517.44C271.13,517.3 276.77,517.36 282.39,517.53C282.45,519.15 282.52,520.78 282.59,522.41C276.93,523.67 271.11,523.63 265.46,522.38C265.47,520.73 265.49,519.08 265.51,517.44Z" style="fill-rule:nonzero;"/>
            <path d="M302.5,517.6C308.16,517.43 313.89,517.24 319.43,518.65C319.44,520.25 319.46,521.86 319.48,523.47C313.8,523.64 308.13,523.65 302.46,523.37C302.46,521.45 302.48,519.52 302.5,517.6Z" style="fill-rule:nonzero;"/>
            <path d="M339.4,518.5C345.15,518.45 350.9,518.44 356.65,518.49C357.05,520.45 357.41,522.42 357.76,524.4C351.7,524.51 345.63,524.49 339.57,524.41C339.51,522.43 339.45,520.47 339.4,518.5Z" style="fill-rule:nonzero;"/>
            <path d="M377.48,518.59C382.47,518.54 387.46,518.59 392.45,518.6C393.43,519.29 394.41,520 395.41,520.71C395.43,521.98 395.46,523.27 395.49,524.56C389.45,524.7 383.41,524.59 377.38,524.5C377.41,522.52 377.44,520.55 377.48,518.59Z" style="fill-rule:nonzero;"/>
            <path d="M415.49,519.46C421.49,519.37 427.48,519.48 433.48,519.6C433.54,521.58 433.6,523.56 433.66,525.55C427.56,525.64 421.47,525.58 415.38,525.49C415.41,523.47 415.45,521.46 415.49,519.46Z" style="fill-rule:nonzero;"/>
            <g transform="matrix(1,0,0,1,39,0)">
                <path d="M415.49,519.46C421.49,519.37 427.48,519.48 433.48,519.6C433.54,521.58 433.6,523.56 433.66,525.55C427.56,525.64 421.47,525.58 415.38,525.49C415.41,523.47 415.45,521.46 415.49,519.46Z" style="fill-rule:nonzero;"/>
            </g>
            <path d="M493.44,521.59C499.35,520.4 505.63,519.86 511.42,521.83C511.5,523.45 511.59,525.08 511.69,526.72C505.67,527.84 499.53,527.35 493.53,526.38C493.49,524.78 493.47,523.18 493.44,521.59Z" style="fill-rule:nonzero;"/>
            <path d="M532.25,526.25C531.53,516.16 545.26,521.39 551.5,521.25C551.46,523.02 551.43,524.79 551.41,526.57C546.23,526.59 541.03,526.48 535.88,527.15C534.67,526.84 533.46,526.54 532.25,526.25Z" style="fill-rule:nonzero;"/>
            <path d="M572.37,521.42C578.71,520.16 585.19,520.54 591.52,521.65C591.57,523.41 591.62,525.17 591.67,526.94C585.27,527.66 578.77,527.76 572.42,526.55C572.4,524.83 572.38,523.12 572.37,521.42Z" style="fill-rule:nonzero;"/>
        </g>
    </g>
</svg>
