<?xml version="1.0" encoding="UTF-8" standalone="no"?>
<!DOCTYPE svg PUBLIC "-//W3C//DTD SVG 1.1//EN" "http://www.w3.org/Graphics/SVG/1.1/DTD/svg11.dtd">
<!-- GeoHints -->
<svg width="100%" height="100%" viewBox="0 0 793 793" version="1.1" xmlns="http://www.w3.org/2000/svg" xmlns:xlink="http://www.w3.org/1999/xlink" xml:space="preserve" xmlns:serif="http://www.serif.com/" style="fill-rule:evenodd;clip-rule:evenodd;stroke-linejoin:round;stroke-miterlimit:2;">
    <g transform="matrix(0.707107,0.707107,-0.707107,0.707107,434.15,-154.366)">
        <rect x="86.331" y="139.576" width="553.136" height="553.136"/>
    </g>
    <g transform="matrix(0.656639,0.656639,-0.656639,0.656639,431.463,-115.05)">
        <rect x="86.331" y="139.576" width="553.136" height="553.136" style="fill:rgb(205,132,25);"/>
    </g>
    <g transform="matrix(2.40758,0,0,2.42478,27.2619,33.3069)">
        <g>
            <path d="M164.35,63.31C163.66,55.47 172.478,52.369 178,56.67C180.431,61.578 180.083,70.371 177.12,72.41C175.169,73.752 172.065,73.084 170.19,73.85C172.74,88.4 187.33,99.83 202.09,98.66C205.134,99.177 205.604,100.417 203.49,102.4C193.28,102.83 182.51,100.92 173.84,95.26C166.99,99.92 162.79,108.13 160.54,116.02C168.31,137.06 181.26,156.88 182.62,179.91C186.55,181.7 191.14,182.6 195.42,182.02C194.9,183.4 194.43,184.79 193.99,186.2C188.35,187.23 182.7,189.36 177,187.25C176.52,186.66 176.05,186.08 175.58,185.5C173.28,167.74 163.98,150.98 154.01,136.25C147.4,151.35 132.53,163.54 132.6,181.14C135.96,182.55 139.24,184.3 141.74,187.01C140.7,187.41 139.64,187.77 139.11,188.82C133.52,187.34 124.22,187.78 122.52,180.98C126.79,173.22 127.12,164.09 130.65,156.05C137.71,145.17 140.72,131.98 140.71,119.11C145.07,108.99 154.12,100.17 153.62,88.38C153.106,87.843 150.87,89.324 148.898,90.572C142.886,94.378 136.353,105.544 132.77,111.72C131.313,112.781 129.298,111.416 130.55,109.36C140.01,94.74 148.309,75.568 165.76,70.49C164.937,67.981 164.577,65.895 164.35,63.31Z" style="fill-rule:nonzero;"/>
            <path d="M76.568,209.78L97.337,194.393L117.774,194.595L104.105,210.032L76.568,209.78Z" style="fill-rule:nonzero;"/>
            <path d="M134.83,194.34L152.512,194.268L145.55,209.5L119.152,209.59L134.83,194.34Z" style="fill-rule:nonzero;"/>
            <path d="M165.155,194.135L180.74,194.36L188.681,209.87L166.172,209.627L165.155,194.135Z" style="fill-rule:nonzero;"/>
            <path d="M197.299,194.445L214.428,194.253L227.001,209.532L204.484,209.845L197.299,194.445Z" style="fill-rule:nonzero;"/>
        </g>
    </g>
</svg>
