<?xml version="1.0" encoding="UTF-8" standalone="no"?>
<!DOCTYPE svg PUBLIC "-//W3C//DTD SVG 1.1//EN" "http://www.w3.org/Graphics/SVG/1.1/DTD/svg11.dtd">
<!-- GeoHints -->
<svg width="100%" height="100%" viewBox="0 0 724 724" version="1.1" xmlns="http://www.w3.org/2000/svg" xmlns:xlink="http://www.w3.org/1999/xlink" xml:space="preserve" xmlns:serif="http://www.serif.com/" style="fill-rule:evenodd;clip-rule:evenodd;stroke-linejoin:round;stroke-miterlimit:2;">
    <g transform="matrix(1,0,0,1,-60.1329,-46.6326)">
        <g>
            <g transform="matrix(0.691451,0.691451,-0.691451,0.691451,636.938,83.5639)">
                <path d="M351.698,154.028C351.698,134.261 335.673,118.236 315.905,118.236L-156.822,118.236C-176.589,118.236 -192.614,134.261 -192.614,154.028L-192.614,626.755C-192.614,646.523 -176.589,662.548 -156.822,662.548L315.905,662.548C335.673,662.548 351.698,646.523 351.698,626.755L351.698,154.028Z"/>
            </g>
            <g transform="matrix(0.652312,0.652312,-0.652312,0.652312,624.771,101.957)">
                <path d="M351.698,139.916C351.698,127.942 341.991,118.236 330.018,118.236L-170.934,118.236C-182.908,118.236 -192.614,127.942 -192.614,139.916L-192.614,640.868C-192.614,652.841 -182.908,662.548 -170.934,662.548L330.018,662.548C341.991,662.548 351.698,652.841 351.698,640.868L351.698,139.916Z" style="fill:rgb(197,137,16);"/>
            </g>
        </g>
        <g transform="matrix(0.938848,0,0,0.938848,46.983,44.767)">
            <path d="M376.85,65.71C388.68,59.01 406.04,62.17 411.46,75.62C417.91,91.92 409.4,109.52 399.64,122.36C395.37,137.44 410.2,146.17 420.82,152.96C434.58,160.32 436.93,177.14 445.03,189.1C451.35,201.91 461.32,212.33 468.92,224.34C478.33,231.57 489.03,237.16 498.26,244.7C504.79,249.02 511.83,253.56 519.99,253.44C527.21,253.51 536.22,251.39 541.3,258.09C543.94,264.92 535.42,267.96 532.18,272.66C521.67,275.26 514.17,265.53 503.91,265.55C492.89,260.26 479.5,261.58 469.61,253.68C451.85,245.94 448.87,223.25 432.74,213.66C423.65,209.24 414.59,219.11 415.49,228.02C411.96,249.29 414.41,271.49 421.58,291.74C440.07,334.97 463.54,378.02 464.66,426.01C467.64,444.77 462.46,464.76 469.69,482.75C477.85,491.02 488.31,496.81 498.41,502.51C503.59,505.49 510.64,506.95 513.03,513.12C497.76,522.26 479.12,510.09 462.89,516.15C457.64,515.82 451.92,513.31 447.98,509.86C442.62,489.98 446.51,468.68 439.69,449.05C436.59,408.41 415.61,372.87 397.31,337.5C394.05,329.56 391.84,319.68 383.98,314.98C379.32,312.62 374.41,315.67 373.68,320.65C364.98,355.6 363.49,394.72 339.53,423.53C329.61,436.48 315.76,445.91 306.65,459.55C301.9,467.39 300.07,478.48 305.81,486.26C310.84,497.69 320.98,506.49 323.44,519.06C320.19,525.06 312.93,519.66 309.29,516.72C293.49,503.22 275.47,490.35 266.6,470.95C267.68,464.58 273.06,459.08 278.36,455.38C291.84,438.65 302.26,419.91 313.81,401.87C321.22,392.69 331.14,383.74 332.07,371.24C345.75,333.05 342.22,291.77 344.51,251.99C345.23,240.06 346.71,227.89 343.79,216.12C340.84,210.19 333.09,202.62 326.61,208.62C314.45,220.05 307.38,237.26 308.4,254C309.26,270.33 305.33,286.51 306.64,302.83C308.24,309.64 312.48,316.64 309.78,323.75C305.96,329.15 298.91,333.83 292.19,330.92C283.88,324.88 284.53,312.97 286.83,304.07C290.96,292.13 289.05,279.37 289.38,267C286.79,254.74 283.56,241.07 290.26,229.48C304.52,201.53 318.32,172.62 338.79,148.65C350.81,142.47 365,137.88 372.4,125.62C374.38,116.89 369.45,109.17 366.19,101.52C363.92,89.19 363.28,71.91 376.85,65.71Z" style="fill-rule:nonzero;"/>
            <g>
                <path d="M165.58,441.65C175.82,441.01 186.02,442.85 196.28,442.6C199.21,446.61 200.86,452.04 197.32,456.26C186.88,457.64 176.18,455.81 165.59,456.51C162.07,452.59 160.49,444.9 165.58,441.65Z" style="fill-rule:nonzero;"/>
                <path d="M231.99,441.71C240.97,441.37 250.01,441.44 258.99,441.7C265.68,444.3 265.15,452.47 264.16,458.26C252.04,457.6 238.93,461.56 227.63,456.3C226.58,450.76 225.26,444.07 231.99,441.71Z" style="fill-rule:nonzero;"/>
                <path d="M409.55,460.36C405.107,455.597 406.324,449.025 410.407,445.277C412.693,443.179 419.606,444.628 423.198,445.113C427.468,449.333 425.543,454.368 424.973,460.178C420.953,463.958 413.78,465.84 409.55,460.36Z" style="fill-rule:nonzero;"/>
                <path d="M351.32,445.51C359.5,445.34 367.7,445.51 375.89,445.51C385.14,444.97 382.89,463.18 374.01,460.64C367.23,459.79 360.44,459.35 353.61,459.38C346.4,459.43 344.87,447.5 351.32,445.51Z" style="fill-rule:nonzero;"/>
                <path d="M487.66,446.78C493.53,445.71 499.39,447.66 505.27,447.7C510.51,451.83 508.86,459.35 503.43,462.43C497.31,460.6 490.71,462.71 484.75,460.28C482.97,455.76 482.12,448.98 487.66,446.78Z" style="fill-rule:nonzero;"/>
                <path d="M566.767,448.218C573.937,448.378 586.91,444.84 592.37,450.81C592.1,455.07 593.91,460.34 590.35,463.65C585.5,468.76 571.267,463.93 565.177,465.38C563.707,463.7 565.447,449.548 566.767,448.218Z" style="fill-rule:nonzero;"/>
                <path d="M529.54,448.44C535.45,448.49 541.36,448.3 547.27,448.54C547.98,449.27 553.293,460.7 548.643,462.99C541.963,464.75 531.71,466.165 526.39,461.715C526.18,458.005 526.05,450.74 529.54,448.44Z" style="fill-rule:nonzero;"/>
                <path d="M611.43,451.46C617.27,447.82 624.56,450.17 631.04,448.89C638.15,449.16 636.46,457.67 636.57,462.48C630.563,465.744 622.297,465.794 612.717,464.749C609.484,464.396 610.213,456.101 611.43,451.46Z" style="fill-rule:nonzero;"/>
                <path d="M193.23,550.88C193.613,546.467 189.274,535.126 193.464,533.113C199.684,535.843 214.405,529.212 219.195,535.442C220.065,538.792 220.523,549.045 219.153,550.385C212.153,550.095 200.04,552.28 193.23,550.88Z" style="fill-rule:nonzero;"/>
                <path d="M233.68,536.18C239.7,530.56 251.215,535.467 260.496,536.188C261.916,537.558 259.48,545.77 259.44,549.32C250.125,550.839 243.74,549.87 235.42,551.35C230.48,547.51 233.57,541.28 233.68,536.18Z" style="fill-rule:nonzero;"/>
                <path d="M282.747,535.197C289.517,534.497 300.36,532.27 305.48,538.44C305.51,542.52 305.49,546.61 305.48,550.69C299.34,556.64 288.88,555.35 281.7,552C281.69,548.12 281.057,536.747 282.747,535.197Z" style="fill-rule:nonzero;"/>
                <path d="M324.73,538.78C331.84,535.23 339.89,536.89 347.5,536.52C353.75,541.28 353.638,549.855 348.058,554.415C341.118,553.635 330.7,557.89 325.72,551.37C321.86,547.97 324.76,543.01 324.73,538.78Z" style="fill-rule:nonzero;"/>
                <path d="M365.28,537.72C372.88,535.86 380.73,536.7 388.2,538.81C390.16,543.64 389.38,550.518 389.35,555.588C387.63,556.358 372.36,555.77 366.47,555.39C360.61,551.66 361.26,542.6 365.28,537.72Z" style="fill-rule:nonzero;"/>
                <path d="M405.44,538.56C412.42,538.46 419.41,538.56 426.39,538.57C427.74,539.95 428.55,555.43 427.59,556.38C420.44,557.49 413.38,557.49 406.23,556.36C401.85,552.17 404.81,539.18 405.44,538.56Z" style="fill-rule:nonzero;"/>
                <path d="M453,538.67C459.74,538.51 466.49,538.6 473.24,538.61C477.94,543 476.21,556.72 475.61,557.45C470.16,557.65 454.62,557.38 452.28,557.41C447.21,554.04 451.93,540.43 453,538.67Z" style="fill-rule:nonzero;"/>
                <path d="M498.39,542.53C503.28,540.46 508.8,543.41 514.01,542.47C520.66,542.02 520.2,550.62 519.04,555.01C515.91,559.43 504.767,555.945 500.197,556.495C496.884,555.221 495.824,544.783 498.39,542.53Z" style="fill-rule:nonzero;"/>
                <path d="M540.4,542.71C545.104,541.918 553.195,540.798 556.561,544.297C557.997,545.79 559.202,562.842 558.033,556.793C549.109,559.3 545.92,558.39 539.9,557.99C531.31,557.07 532.02,543.31 540.4,542.71Z" style="fill-rule:nonzero;"/>
                <path d="M582.2,543.84C588.14,542.78 594.13,544.28 600.04,544.8C606.47,547.19 605.5,559.18 598.06,559.42C592.39,558.47 586.66,558.51 580.95,558.37C574.56,556.34 574.86,544.37 582.2,543.84Z" style="fill-rule:nonzero;"/>
            </g>
        </g>
    </g>
</svg>
