<?xml version="1.0" encoding="UTF-8" standalone="no"?>
<!DOCTYPE svg PUBLIC "-//W3C//DTD SVG 1.1//EN" "http://www.w3.org/Graphics/SVG/1.1/DTD/svg11.dtd">
<!-- Geohints -->
<svg width="100%" height="100%" viewBox="0 0 623 624" version="1.1" xmlns="http://www.w3.org/2000/svg" xmlns:xlink="http://www.w3.org/1999/xlink" xml:space="preserve" xmlns:serif="http://www.serif.com/" style="fill-rule:evenodd;clip-rule:evenodd;stroke-linejoin:round;stroke-miterlimit:2;">
    <g transform="matrix(1.05636,0,0,1.00412,-50.8017,-20.5123)">
        <path d="M637.104,75.203C637.104,44.952 613.794,20.428 585.039,20.428L100.157,20.428C71.402,20.428 48.091,44.952 48.091,75.203L48.091,586.16C48.091,616.411 71.402,640.935 100.157,640.935L585.039,640.935C613.794,640.935 637.104,616.411 637.104,586.16L637.104,75.203Z" style="fill:rgb(9,11,104);"/>
    </g>
    <g transform="matrix(1,0,0,1,-17.4491,-15.3211)">
        <path d="M328.11,76.04C329.58,73.95 572.84,478.34 579.15,490.28C558.22,492.54 180.5,491.65 74.18,491.57C157.26,352.14 243.84,214.79 328.11,76.04" style="fill:white;fill-rule:nonzero;"/>
    </g>
    <g transform="matrix(1,0,0,1,-17.4491,-15.3211)">
        <path d="M308.48,170.66C311.24,153.34 332.73,146.97 347.77,150.3C354.48,152.52 354.19,161.05 350.54,165.87C352.87,173.03 351.53,181.56 345.67,186.65C341.77,190.56 336.98,198.58 343.63,202.3C353.45,207.35 360.35,217.01 361.81,227.98C365.96,248.9 371.93,271.78 389.36,285.69C399.97,292.76 411.8,297.89 423.75,302.21C428.1,304.11 430.33,308.84 429.56,313.44C424.51,321.26 415.99,315.74 410.07,312.72C383.67,311.6 361.26,292.91 350.26,269.71C349.53,268.5 348.58,264.85 346.86,266.74C341.24,288.36 336.54,310.68 326.51,330.7C333.82,363.19 341.07,395.74 348.76,428.14C353.69,438.45 365.79,432.34 374.01,430.82C377.44,429.57 386.05,431.5 382.32,436.25C367.59,444.15 353.12,452.57 338.31,460.3C332.26,463.46 326.7,458.64 324.9,453.03C311.49,422.31 302.2,390 293.06,357.81C285.5,372.63 278.19,388.82 265.72,400.73C258.1,410.93 247.77,423.17 251.25,436.73C255.02,445.15 270.83,454.37 263.18,463.61C246.45,461.6 232.69,450.37 221.58,438.43C218.92,435.54 214.73,432.16 216.74,427.74C229.35,405.08 242.6,382.64 252.72,358.71C260.52,319.64 283.49,285.05 290.41,245.84C273.38,261.14 258.22,280.71 254.85,303.97C253.99,310.43 256.17,318.53 250.13,323.15C247.79,326.15 240.19,327.33 240.34,322.09C242.23,312.05 237.98,301.91 240.92,292.02C248.8,268.81 259.99,246.76 273.13,226.11C280.91,216.24 290.07,205.6 303.04,203.1C309.03,200.74 319.45,200.91 318.6,191.86C314.42,185.24 306.22,179.53 308.48,170.66Z" style="fill-rule:nonzero;"/>
        <g>
            <path d="M341.48,352.4C355.89,352.24 370.3,352.17 384.71,352.37C384.76,356.53 384.72,360.69 384.69,364.85C370.31,365.19 355.77,365.68 341.41,364.7C341.44,360.6 341.41,356.5 341.48,352.4Z" style="fill-rule:nonzero;"/>
            <path d="M404.35,352.38C418.81,352.27 433.27,352.17 447.73,352.41C447.75,356.6 447.78,360.79 447.69,364.98C433.26,365.34 418.75,365.5 404.33,364.95C404.29,360.76 404.33,356.57 404.35,352.38Z" style="fill-rule:nonzero;"/>
            <path d="M194.64,353.71C208.55,351.58 223.18,353.24 237.36,352.7C237.48,356.94 237.43,361.18 237.33,365.42C223.09,365.59 208.84,365.67 194.6,365.6C194.65,361.63 194.72,357.67 194.64,353.71Z" style="fill-rule:nonzero;"/>
            <path d="M272.38,455.37C286.76,455.43 301.16,455.11 315.54,455.43C315.4,459.47 315.4,463.5 315.48,467.54C301.14,468.02 286.83,468.03 272.48,468.34C272.1,464.02 272.32,459.69 272.38,455.37Z" style="fill-rule:nonzero;"/>
            <path d="M354.2,455.32C368.62,454.91 383.03,454.89 397.45,455.46C397.3,459.44 397.29,463.43 397.35,467.41C382.79,467.94 368.18,467.7 353.62,467.57C354.05,463.52 353.16,459.21 354.2,455.32Z" style="fill-rule:nonzero;"/>
            <path d="M412.33,455.3C426.83,455.13 441.34,455.29 455.84,455.34C456.55,459.44 456.31,463.63 455.99,467.75C441.41,467.77 426.84,467.71 412.27,467.68C412.25,463.55 412.27,459.42 412.33,455.3Z" style="fill-rule:nonzero;"/>
            <path d="M478.62,455.54C494.28,455.14 509.95,455.49 525.62,455.4C525.66,459.71 525.84,464.05 525.4,468.36C509.78,467.83 493.92,469.26 478.45,467.59C478.7,463.58 478.66,459.56 478.62,455.54Z" style="fill-rule:nonzero;"/>
            <path d="M122.44,456.13C136.42,455.15 150.52,456.1 164.55,455.63C164.88,459.94 164.73,464.26 164.64,468.58C150.56,468.71 136.48,468.71 122.41,468.6C122.5,464.44 122.53,460.29 122.44,456.13Z" style="fill-rule:nonzero;"/>
            <path d="M194.52,455.63C208.57,455.55 222.6,455.6 236.65,455.48C236.68,459.79 236.74,464.11 236.61,468.42C222.56,468.47 208.52,468.49 194.47,468.52C194.49,464.22 194.43,459.92 194.52,455.63Z" style="fill-rule:nonzero;"/>
        </g>
    </g>
</svg>
