<svg xmlns="http://www.w3.org/2000/svg" width="500" height="500" version="1">
  <path d="M0 0h500v500H0V0z" fill="#0c479d"/>
  <path d="M29.1563 0c-7.7361 0-15.1555 3.0622-20.625 8.5312C3.0618 14.0017 0 21.4206 0 29.1562v441.6875c0 7.7356 3.0618 15.1545 8.5313 20.625C14.0008 496.9378 21.4202 500 29.1563 500h441.6875c7.7361 0 15.1555-3.0622 20.625-8.5313 5.4695-5.4705 8.5312-12.8894 8.5312-20.625V29.1562c0-7.7356-3.0617-15.1545-8.5312-20.625C485.9993 3.0622 478.5799 0 470.8438 0z" fill="#fff"/>
  <path d="M29.1561 12.4999c-4.4198 0-8.6562 1.7501-11.7812 4.875-3.125 3.1265-4.875 7.3616-4.875 11.7813v441.6875c0 4.4195 1.75 8.6547 4.875 11.7812 3.125 3.1249 7.3614 4.875 11.7812 4.875h441.6875c4.4199 0 8.6563-1.7501 11.7813-4.875 3.125-3.1265 4.875-7.3617 4.875-11.7812V29.1562c0-4.4197-1.75-8.6548-4.875-11.7813-3.125-3.1249-7.3614-4.875-11.7813-4.875z" fill="#0c479d"/>
  <path d="M12.4999 423.7177l237.5-411.2178 237.4999 411.2178H12.4999z" fill="#fff"/>
  <path d="M188.7145 355.296c-2.6647 3.5745-4.7638 7.5348-6.2211 11.7478-1.4138 4.6396-4.7681 8.4398-9.1983 10.4162l-7.0439 28.2533h53.7478l3.5264-50.4173h-34.8109zM45.8339 405.7133h53.7504l21.4005-50.4173H74.9417l-29.1078 50.4173zm408.332 0h-53.7507l-21.3995-50.4173h46.0425l29.1077 50.4173zm-117.9162 0h-53.7491l-3.5265-50.4173h42.4714c.7495 1.9167 1.143 3.9529 1.1564 6.0086-1.4587.5701-2.9624 1.0174-4.4944 1.3375-4.6426.8678-7.789 5.2201-7.1577 9.9001.633 4.68 4.8222 8.0403 9.5291 7.6439 3.1329.1006 6.2703.098 9.4048 0l6.366 25.5319z"/>
  <path d="M263.5877 131.1046c2.2069 5.0394 5.6375 9.4475 9.9809 12.8229 9.6801 10.2666 17.1475 22.4123 21.9367 35.6862 1.3675 12.979 2.7994 25.9522 4.2955 38.9179.2184 1.2911-.5745 2.5374-1.8373 2.8846l.4967 6.7846c.8213 2.5105.029 5.2678-1.9988 6.9601-2.0304 1.692-4.8834 1.9793-7.2085.7211-2.322-1.2553-3.6448-3.8018-3.338-6.426l-6.1657-39.673c-2.3803-5.7736-5.8125-11.052-10.123-15.569-.175 8.9606.4833 17.9209 1.9645 26.7602 5.3367 31.8257 14.2899 62.9381 26.6824 92.7339-1.8941.4653-3.7941.8992-5.7017 1.3032 2.3161 2.1694 4.7742 4.1802 7.3565 6.0234 11.4366 8.5386 21.1182 19.2016 28.5122 31.4072 3.6625 4.9493 7.9804 9.3779 12.8325 13.1647 4.1159 2.7469 6.6758 7.2877 6.8941 12.231-3.3542 5.413-7.0392 10.6122-11.0339 15.5735-.7377.9156-1.8269 1.4812-3.0013 1.5574-4.6067.2978-9.2268.368-13.841.208-2.0901.3052-4.0366-1.1266-4.3702-3.2093-.3351-2.0841 1.0667-4.0516 3.145-4.4166 2.8815-.5985 5.6687-1.574 8.293-2.9039.9472-6.2899-.9067-12.6785-5.0734-17.484-13.576-14.2749-29.106-26.5523-46.1295-36.4642-4.7667-3.3021-8.9799-7.3387-12.4899-11.9543-13.6867.6627-27.4034-.223-40.8927-2.6377-3.9004 6.0609-7.5615 12.2714-10.9742 18.6166-5.4984 13.2185-13.9127 25.023-24.6147 34.5296-4.1832 4.7487-7.394 10.2711-9.4512 16.2541-1.4393 4.8566-5.8305 8.2394-10.8935 8.401-9.4137-2.6977-18.47-6.5172-26.9699-11.3783-2.5144-1.8896-3.8237-4.9836-3.4306-8.1046.3609-1.2254 1.2902-2.2008 2.497-2.6212 1.2069-.4205 2.5408-.2304 3.5841.5057 9.8098 5.4354 22.0842 3.2586 29.4273-5.2186 10.8037-16.4726 19.2166-34.392 24.9858-53.227.4637-1.3062.9739-2.5943 1.532-3.8601-1.9839-.6479-3.9588-1.3286-5.9188-2.0437 14.6158-26.8784 24.8585-55.9127 30.3434-86.0133-7.1651 5.2006-14.3107 10.4251-21.4413 15.6736-1.0114.8305-2.4866.7601-3.4158-.163l-5.6418 3.8003c-1.7716 1.9599-4.5589 2.6421-7.035 1.722-2.4761-.9202-4.1413-3.2557-4.2042-5.8963-.064-2.6408 1.4886-5.054 3.9184-6.091l33.5526-26.7914c1.2254-1.5815 2.3566-3.2317 3.3859-4.9479-1.2193-9.1518 1.0772-18.4265 6.4274-25.9506 5.9727-6.8419 10.277-14.9771 12.5737-23.7641.1616-.599.1899-1.2258.085-1.8381-.6015-2.0556-2.5869-3.3853-4.7159-3.1603-1.9435 0-3.8511-.5127-5.5268-1.4946-4.6874-5.0422-6.4768-12.1299-4.7397-18.7925.2019-1.6305.1301-3.2845-.2125-4.8931-.8423.4412-1.8418.4616-2.699.054-.8574-.4092-1.4723-1.1966-1.6608-2.1273-.944-6.9358 2.7499-13.6742 9.1025-16.6111.2156-.099.4295-.206.6389-.317 7.5032-3.9844 16.3858-4.4387 24.2556-1.2405 5.6286 2.6898 9.5514 8.0009 10.4671 14.171.058.3931.1345.7818.2289 1.1675.3785 1.5501.6852 3.118.9202 4.6974l.2707 3.3897c.078.9935.042 1.9929-.1089 2.9776.1346 6.5938.7614 13.1674 1.8776 19.6662.223 1.7533-.4383 3.5036-1.7609 4.6755-.9725 1.0637-2.4328 1.5355-3.8437 1.2418z"/>
</svg>
