<?xml version="1.0" encoding="UTF-8" standalone="no"?>
<!DOCTYPE svg PUBLIC "-//W3C//DTD SVG 1.1//EN" "http://www.w3.org/Graphics/SVG/1.1/DTD/svg11.dtd">
<!-- GeoHints -->
<svg width="100%" height="100%" viewBox="0 0 396 553" version="1.1" xmlns="http://www.w3.org/2000/svg" xmlns:xlink="http://www.w3.org/1999/xlink" xml:space="preserve" xmlns:serif="http://www.serif.com/" style="fill-rule:evenodd;clip-rule:evenodd;stroke-linejoin:round;stroke-miterlimit:2;">
    <rect x="0.788" y="0.812" width="393.7" height="551.178" style="fill:white;"/>
    <rect x="8.659" y="8.683" width="377.952" height="535.429" style="fill:rgb(26,103,187);"/>
    <path d="M32.287,315.773L363.006,315.773L197.626,32.289L32.287,315.773" style="fill:white;fill-rule:nonzero;"/>
    <path d="M305.252,296.092L286.606,248.971L301.623,248.852L323.531,295.766L305.252,296.092ZM268.24,295.868L256.029,248.982L270.28,248.915L285.189,295.749L268.24,295.868ZM228.114,295.848L223.166,251.508L240.452,279.136L236.888,281.059C234.744,282.227 234.581,286.641 234.913,287.953L242.183,287.884L243.305,295.822L228.114,295.848ZM184.785,295.729L188.268,287.752L192.32,287.467L203.642,249.141L206.072,249.179L202.387,295.716L184.785,295.729ZM71.647,295.549L93.622,249.201L108.733,249.176L89.716,295.671L71.647,295.549ZM110.067,295.612L125.443,249.143L139.592,249.114L126.829,295.517L110.067,295.612ZM148.466,295.59L157.467,249.164L171.35,249.084L165.124,295.59L148.466,295.59Z" style="fill:rgb(35,31,32);fill-rule:nonzero;"/>
    <path d="M243.761,196.669L241.098,196.832L241.363,197.498C241.471,197.823 241.684,198.316 241.912,198.574L242.737,199.294C243.283,199.946 243.322,200.844 243.268,201.782C243.192,203.144 243.056,204.939 242.086,205.592C240.191,206.844 236.454,205.36 235.694,203.132C235.271,201.975 235.467,200.261 235.51,199.282L235.749,196.912L233.843,196.994L231.228,172.969L221.131,163.39L222.229,189.527L230.853,207.769L227.051,210.098L236.947,236.339L258.073,273.887L256.499,274.87L258.405,277.168C259.154,277.997 259.191,280.786 259.191,281.834L249.859,285.438L239.59,285.451L239.525,283.481C239.601,282.378 240.658,281.384 241.738,280.948L244.054,280.202C246.057,279.562 246.046,278.733 246.43,277.563L244.499,278.188L223.774,244.978L209.408,214.952L190.299,277.754L189.206,277.465L187.354,285.632L169.377,280.434C169.162,280.011 169.191,279.399 169.39,279.004C169.748,278.188 170.591,277.63 171.417,277.385L177.737,276.964C179.499,276.856 180.271,275.629 180.66,274.406L175.712,272.298L190.208,211.797L187.899,210.831L191.539,188.817L185.777,172.969L180.979,179.744L162.587,194.49L161.563,193.268L161.216,194.792L160.827,196.682C160.679,196.94 160.386,197.144 160.148,197.292C159.842,197.485 159.468,197.648 159.106,197.676L157.533,197.906C157.136,198.11 156.706,198.463 156.387,198.804L155.414,199.796C154.479,200.749 152.693,200.707 152.188,199.538C151.107,197.023 152.227,193.661 153.6,191.647C153.733,191.458 154.026,191.172 154.253,190.981L157.268,188.654L156.293,187.077L173.164,171.962L180.243,144.303L180.857,141.949C180.938,141.745 181.031,141.528 181.139,141.339C181.337,140.929 181.619,140.562 181.94,140.234C182.098,140.084 182.283,139.95 182.457,139.813C183.166,139.31 184.112,138.917 184.926,138.685L193.301,136.126C193.381,135.217 193.221,134.154 192.261,133.746C191.782,133.554 189.966,133.255 189.473,133.038C188.819,132.902 188.032,132.589 187.619,132.14C187.127,131.638 187.057,130.848 187.086,130.154C187.086,130.058 187.14,128.724 187.14,128.52C187.112,127.908 186.806,127.569 186.66,127.474L186.166,127.244C185.74,127.053 185.632,126.467 185.74,126.018C185.818,125.759 186.033,125.447 186.178,125.228L186.979,124.086L187.459,123.297C187.313,122.862 187.272,121.992 187.272,121.499L187.404,119.325L182.646,118.915L183.06,116.712L187.726,116.562L188.858,112.331C189.152,111.597 189.766,110.046 190.208,109.394C190.382,109.147 190.606,108.902 190.862,108.739C191.142,108.563 191.499,108.468 191.818,108.455C192.233,108.429 192.914,108.551 193.314,108.646L197.728,109.679C198.609,109.679 200.05,109.258 200.918,109.176C202.116,109.08 203.798,108.93 204.77,109.707C205.584,110.386 205.848,111.61 206.051,112.643L206.626,115.161L209.598,115.46L209.462,118.401L205.794,118.644C206.185,118.631 206.196,122.604 205.208,124.631L203.769,127.557C203.396,128.318 203.197,129.147 203.37,129.991C203.554,130.903 204.037,131.747 204.688,132.413C204.731,132.454 205.128,132.793 205.128,132.793L209.158,132.55C209.972,132.63 210.836,133.051 211.408,133.583L237.522,160.521C239.069,162.124 240.349,164.409 240.603,166.777L243.761,196.669" style="fill:rgb(35,31,32);fill-rule:nonzero;"/>
    <g transform="matrix(13.8347,0,0,16.9865,-1136.96,-6965.42)">
        <text x="91.293px" y="439.083px" style="font-family:'Frutiger', sans-serif;font-size:12px;fill:white;">2x</text>
    </g>
</svg>
