<?xml version="1.0" encoding="UTF-8" standalone="no"?>
<svg xmlns:dc="http://purl.org/dc/elements/1.1/" xmlns:cc="http://creativecommons.org/ns#" xmlns:rdf="http://www.w3.org/1999/02/22-rdf-syntax-ns#" xmlns:svg="http://www.w3.org/2000/svg" xmlns="http://www.w3.org/2000/svg" viewBox="0 0 160.41333 140.67999" height="140.67999" width="160.41333" xml:space="preserve" id="svg2" version="1.1"><metadata id="metadata8"><rdf:RDF><cc:Work rdf:about=""><dc:format>image/svg+xml</dc:format><dc:type rdf:resource="http://purl.org/dc/dcmitype/StillImage"/></cc:Work></rdf:RDF></metadata><defs id="defs6"/><g transform="matrix(1.3333333,0,0,-1.3333333,0,140.68)" id="g10"><g transform="scale(0.1)" id="g12"><path id="path14" style="fill:#ee2c30;fill-opacity:1;fill-rule:nonzero;stroke:none" d="M 49.6875,0 H 1153.44 v 0 c 38.2,0 62.07,41.3281 42.99,74.4141 v 0 L 644.516,1030.29 v 0 c -19.082,33.08 -66.817,33.08 -85.899,0 v 0 L 6.70313,74.4141 v 0 C -12.3789,41.3281 11.4883,0 49.6875,0 v 0"/><path id="path16" style="fill:#ffffff;fill-opacity:1;fill-rule:nonzero;stroke:none" d="M 135.582,99.2188 H 1067.55 L 601.566,906.262 135.582,99.2188"/><path id="path18" style="fill:#231f20;fill-opacity:1;fill-rule:nonzero;stroke:none" d="m 262.52,157.285 59.328,123.195 40.789,0.067 -51.336,-123.586 -48.781,0.324"/><path id="path20" style="fill:#231f20;fill-opacity:1;fill-rule:nonzero;stroke:none" d="m 366.199,157.102 41.504,123.523 38.199,0.07 -34.453,-123.34 -45.25,-0.253"/><path id="path22" style="fill:#231f20;fill-opacity:1;fill-rule:nonzero;stroke:none" d="m 469.844,157.219 24.297,123.406 37.48,0.215 -16.816,-123.621 h -44.961"/><path id="path24" style="fill:#231f20;fill-opacity:1;fill-rule:nonzero;stroke:none" d="m 566.973,156.855 9.394,21.204 10.942,0.75 30.566,101.886 6.555,-0.109 -9.942,-123.699 -47.515,-0.032"/><path id="path26" style="fill:#231f20;fill-opacity:1;fill-rule:nonzero;stroke:none" d="m 686.742,156.535 -13.359,117.86 46.66,-73.438 -9.609,-5.117 v 0 c -5.801,-3.098 -6.231,-14.836 -5.332,-18.32 v 0 l 19.621,0.175 3.027,-21.093 -41.008,-0.067 v 0"/><path id="path28" style="fill:#231f20;fill-opacity:1;fill-rule:nonzero;stroke:none" d="m 793.305,156.414 -32.977,124.641 38.485,0.175 40.246,-124.484 -45.754,-0.332"/><path id="path30" style="fill:#231f20;fill-opacity:1;fill-rule:nonzero;stroke:none" d="m 893.453,155.918 -50.324,125.242 40.539,0.324 59.141,-124.707 -49.356,-0.859"/><path id="path32" style="fill:#231f20;fill-opacity:1;fill-rule:nonzero;stroke:none" d="m 727.066,418.535 -7.207,-0.43 0.723,-1.769 v 0 c 0.293,-0.856 0.867,-2.156 1.473,-2.84 v 0 l 2.238,-1.902 v 0 c 1.473,-1.731 1.582,-4.114 1.434,-6.594 -0.215,-3.602 -0.575,-8.348 -3.204,-10.078 -5.105,-3.309 -15.183,0.613 -17.246,6.516 -1.152,3.054 -0.605,7.597 -0.496,10.183 v 0 l 0.645,6.27 -5.149,-0.215 -7.058,63.574 -27.246,25.344 2.949,-69.16 23.289,-48.274 -10.254,-6.152 26.711,-69.442 57.02,-99.367 -4.247,-2.586 5.145,-6.086 v 0 c 2.023,-2.199 2.129,-9.578 2.129,-12.355 v 0 l -25.203,-9.539 -27.715,-0.028 -0.188,5.215 v 0 c 0.227,2.918 3.067,5.547 5.977,6.7 v 0 l 6.269,1.98 v 0 c 5.403,1.691 5.364,3.887 6.407,6.984 v 0 l -5.223,-1.66 -55.937,87.879 -38.77,79.453 -51.594,-166.179 -2.953,0.761 -5,-21.601 -48.531,13.75 v 0 c -0.574,1.109 -0.5,2.73 0.035,3.777 0.973,2.16 3.242,3.633 5.473,4.289 v 0 l 17.066,1.113 v 0 c 4.75,0.282 6.84,3.524 7.883,6.766 v 0 l -13.356,5.578 39.129,160.094 -6.222,2.562 9.828,58.243 -15.555,41.941 -12.961,-17.93 -49.644,-39.023 -2.77,3.242 -0.937,-4.035 -1.043,-5.008 v 0 c -0.399,-0.683 -1.188,-1.219 -1.836,-1.609 -0.832,-0.512 -1.836,-0.938 -2.809,-1.02 v 0 l -4.25,-0.601 v 0 c -1.078,-0.547 -2.23,-1.477 -3.094,-2.387 v 0 l -2.628,-2.625 v 0 c -2.516,-2.52 -7.34,-2.41 -8.715,0.684 -2.914,6.66 0.113,15.554 3.82,20.878 0.359,0.508 1.152,1.262 1.762,1.766 v 0 l 8.14,6.156 -2.632,4.176 45.542,40 19.118,73.188 1.652,6.226 v 0 c 0.215,0.539 0.469,1.117 0.758,1.625 0.539,1.074 1.293,2.047 2.16,2.91 0.434,0.399 0.934,0.758 1.402,1.121 1.907,1.329 4.465,2.375 6.66,2.989 v 0 l 22.61,6.769 v 0 c 0.215,2.41 -0.215,5.211 -2.809,6.297 -1.297,0.496 -6.191,1.289 -7.523,1.867 -1.762,0.36 -3.887,1.192 -5.004,2.379 -1.332,1.332 -1.516,3.418 -1.441,5.254 0,0.254 0.148,3.781 0.148,4.32 -0.074,1.621 -0.906,2.516 -1.301,2.77 v 0 l -1.332,0.617 v 0 c -1.152,0.496 -1.441,2.051 -1.152,3.242 0.219,0.684 0.797,1.504 1.191,2.082 v 0 l 2.156,3.028 1.301,2.09 v 0 c -0.402,1.148 -0.508,3.457 -0.508,4.746 v 0 l 0.36,5.761 -12.852,1.082 1.114,5.832 12.605,0.399 3.059,11.191 v 0 c 0.793,1.946 2.449,6.043 3.632,7.774 0.469,0.652 1.086,1.3 1.77,1.73 0.75,0.465 1.723,0.719 2.586,0.758 1.121,0.07 2.957,-0.254 4.035,-0.508 v 0 l 11.918,-2.73 v 0 c 2.375,0 6.266,1.109 8.598,1.324 3.242,0.258 7.785,0.656 10.41,-1.395 2.199,-1.804 2.91,-5.047 3.457,-7.785 v 0 l 1.543,-6.66 8.027,-0.789 -0.359,-7.773 -9.895,-0.645 v 0 c 1.035,0.031 1.074,-10.477 -1.59,-15.84 v 0 l -3.886,-7.746 v 0 c -1.008,-2.008 -1.543,-4.207 -1.075,-6.441 0.497,-2.414 1.797,-4.641 3.563,-6.407 0.109,-0.109 1.184,-1.007 1.184,-1.007 v 0 l 10.878,0.644 v 0 c 2.188,-0.215 4.532,-1.328 6.082,-2.734 v 0 l 70.481,-71.278 v 0 c 4.18,-4.25 7.637,-10.293 8.32,-16.566 v 0 l 8.535,-79.09 v 0"/></g></g></svg>