<?xml version="1.0" encoding="UTF-8" standalone="no"?><!DOCTYPE svg PUBLIC "-//W3C//DTD SVG 1.1//EN" "http://www.w3.org/Graphics/SVG/1.1/DTD/svg11.dtd"><svg width="100%" height="100%" viewBox="0 0 396 553" version="1.1" xmlns="http://www.w3.org/2000/svg" xmlns:xlink="http://www.w3.org/1999/xlink" xml:space="preserve" xmlns:serif="http://www.serif.com/" style="fill-rule:evenodd;clip-rule:evenodd;stroke-linejoin:round;stroke-miterlimit:2;"><rect id="path14" x="0.788" y="0.812" width="393.7" height="551.178" style="fill:#fff;fill-rule:nonzero;"/><rect id="path18" x="8.659" y="8.683" width="377.952" height="535.429" style="fill:#1a67bb;fill-rule:nonzero;"/><path id="path20" d="M32.287,315.773l330.719,-0l-165.38,-283.484l-165.339,283.484" style="fill:#fff;fill-rule:nonzero;"/><path id="path22" d="M305.252,296.092l-18.646,-47.121l15.017,-0.119l21.908,46.914l-18.279,0.326Zm-37.012,-0.224l-12.211,-46.886l14.251,-0.067l14.909,46.834l-16.949,0.119Zm-40.126,-0.02l-4.948,-44.34l17.286,27.628l-3.564,1.923c-2.144,1.168 -2.307,5.582 -1.975,6.894l7.27,-0.069l1.122,7.938l-15.191,0.026Zm-43.329,-0.119l3.483,-7.977l4.052,-0.285l11.322,-38.326l2.43,0.038l-3.685,46.537l-17.602,0.013Zm-113.138,-0.18l21.975,-46.348l15.111,-0.025l-19.017,46.495l-18.069,-0.122Zm38.42,0.063l15.376,-46.469l14.149,-0.029l-12.763,46.403l-16.762,0.095Zm38.399,-0.022l9.001,-46.426l13.883,-0.08l-6.226,46.506l-16.658,0Z" style="fill:#231f20;fill-rule:nonzero;"/><path id="path36" d="M243.761,196.669l-2.663,0.163l0.265,0.666c0.108,0.325 0.321,0.818 0.549,1.076l0.825,0.72c0.546,0.652 0.585,1.55 0.531,2.488c-0.076,1.362 -0.212,3.157 -1.182,3.81c-1.895,1.252 -5.632,-0.232 -6.392,-2.46c-0.423,-1.157 -0.227,-2.871 -0.184,-3.85l0.239,-2.37l-1.906,0.082l-2.615,-24.025l-10.097,-9.579l1.098,26.137l8.624,18.242l-3.802,2.329l9.896,26.241l21.126,37.548l-1.574,0.983l1.906,2.298c0.749,0.829 0.786,3.618 0.786,4.666l-9.332,3.604l-10.269,0.013l-0.065,-1.97c0.076,-1.103 1.133,-2.097 2.213,-2.533l2.316,-0.746c2.003,-0.64 1.992,-1.469 2.376,-2.639l-1.931,0.625l-20.725,-33.21l-14.366,-30.026l-19.109,62.802l-1.093,-0.289l-1.852,8.167l-17.977,-5.198c-0.215,-0.423 -0.186,-1.035 0.013,-1.43c0.358,-0.816 1.201,-1.374 2.027,-1.619l6.32,-0.421c1.762,-0.108 2.534,-1.335 2.923,-2.558l-4.948,-2.108l14.496,-60.501l-2.309,-0.966l3.64,-22.014l-5.762,-15.848l-4.798,6.775l-18.392,14.746l-1.024,-1.222l-0.347,1.524l-0.389,1.89c-0.148,0.258 -0.441,0.462 -0.679,0.61c-0.306,0.193 -0.68,0.356 -1.042,0.384l-1.573,0.23c-0.397,0.204 -0.827,0.557 -1.146,0.898l-0.973,0.992c-0.935,0.953 -2.721,0.911 -3.226,-0.258c-1.081,-2.515 0.039,-5.877 1.412,-7.891c0.133,-0.189 0.426,-0.475 0.653,-0.666l3.015,-2.327l-0.975,-1.577l16.871,-15.115l7.079,-27.659l0.614,-2.354c0.081,-0.204 0.174,-0.421 0.282,-0.61c0.198,-0.41 0.48,-0.777 0.801,-1.105c0.158,-0.15 0.343,-0.284 0.517,-0.421c0.709,-0.503 1.655,-0.896 2.469,-1.128l8.375,-2.559c0.08,-0.909 -0.08,-1.972 -1.04,-2.38c-0.479,-0.192 -2.295,-0.491 -2.788,-0.708c-0.654,-0.136 -1.441,-0.449 -1.854,-0.898c-0.492,-0.502 -0.562,-1.292 -0.533,-1.986c-0,-0.096 0.054,-1.43 0.054,-1.634c-0.028,-0.612 -0.334,-0.951 -0.48,-1.046l-0.494,-0.23c-0.426,-0.191 -0.534,-0.777 -0.426,-1.226c0.078,-0.259 0.293,-0.571 0.438,-0.79l0.801,-1.142l0.48,-0.789c-0.146,-0.435 -0.187,-1.305 -0.187,-1.798l0.132,-2.174l-4.758,-0.41l0.414,-2.203l4.666,-0.15l1.132,-4.231c0.294,-0.734 0.908,-2.285 1.35,-2.937c0.174,-0.247 0.398,-0.492 0.654,-0.655c0.28,-0.176 0.637,-0.271 0.956,-0.284c0.415,-0.026 1.096,0.096 1.496,0.191l4.414,1.033c0.881,-0 2.322,-0.421 3.19,-0.503c1.198,-0.096 2.88,-0.246 3.852,0.531c0.814,0.679 1.078,1.903 1.281,2.936l0.575,2.518l2.972,0.299l-0.136,2.941l-3.668,0.243c0.391,-0.013 0.402,3.96 -0.586,5.987l-1.439,2.926c-0.373,0.761 -0.572,1.59 -0.399,2.434c0.184,0.912 0.667,1.756 1.318,2.422c0.043,0.041 0.44,0.38 0.44,0.38l4.03,-0.243c0.814,0.08 1.678,0.501 2.25,1.033l26.114,26.938c1.547,1.603 2.827,3.888 3.081,6.256l3.158,29.892" style="fill:#231f20;fill-rule:nonzero;"/></svg>