<?xml version="1.0" encoding="UTF-8" standalone="no"?>
<!DOCTYPE svg PUBLIC "-//W3C//DTD SVG 1.1//EN" "http://www.w3.org/Graphics/SVG/1.1/DTD/svg11.dtd">
<!-- GeoHints -->
<svg width="100%" height="100%" viewBox="0 0 2376 2076" version="1.1" xmlns="http://www.w3.org/2000/svg" xmlns:xlink="http://www.w3.org/1999/xlink" xml:space="preserve" xmlns:serif="http://www.serif.com/" style="fill-rule:evenodd;clip-rule:evenodd;stroke-linejoin:round;">
    <g id="Layer-1" serif:id="Layer 1" transform="matrix(1,0,0,1,0.001,1.42109e-14)">
        <path d="M68.769,2006.48L1187.51,68.77L2306.25,2006.48L68.779,2006.48L68.769,2006.48Z" style="fill:rgb(226,10,22);stroke:rgb(226,10,22);stroke-width:137.54px;"/>
        <path d="M1187.51,343.846L306.997,1868.94L2068.03,1868.94L1187.51,343.847L1187.51,343.846Z" style="fill:white;"/>
        <g transform="matrix(1.09902,0,0,1.02406,-123.66,-50.3823)">
            <g transform="matrix(2.74248,0,0,2.74248,78.5215,-63.3564)">
                <path d="M372.43,316.03C378.04,295.58 415.84,299.07 415.74,320.93C416.96,327.75 427.28,328.91 426.58,336.56C422.95,338.04 419.42,339.74 415.96,341.56C416.59,353.99 432.14,352.38 440.36,357.25C460.8,366.82 470.03,389.45 484.89,405.16C494.67,413.46 506.59,423.64 504.38,438.01C502.46,451.8 507.88,465.39 505.56,479.02C499.96,488.67 506.97,500.83 497.89,509.19C487.54,520.42 470.62,503.23 476.79,491.52C482.39,482.31 473.28,472.48 475.34,462.86C477.2,449.1 468.85,432.48 454.47,429.89C442.86,455.62 472.88,475.41 468.14,501.02C465.98,510.74 468.54,520.83 473.44,529.32C482.08,545.84 499.48,580.9 502.35,583.42C511.26,593.22 522.64,601.12 528.18,613.59C532.43,623.07 544.96,623.21 549.79,632.07C553.11,636.64 550.63,642.48 548.68,647.08C546.19,653.14 538.54,652.5 533.64,655.4C528.6,657.61 528.14,664.7 522.74,666.37C516.6,668.24 510.17,669.48 504.68,673.02C507.64,675.21 494.14,675.66 493.66,671.48C491.4,667.46 486.61,663.19 489.26,658.18C493.29,650.98 503.26,651.98 507.84,645.5C509.99,641.59 507.39,637.21 504.64,634.38C497.18,626.71 489.68,618.76 480.11,613.69C463.41,606.39 461.61,586.96 451.57,573.86C447.83,564.38 442.58,555.47 434.93,548.62C432.59,547.72 429.59,547.85 427.95,549.98C416.45,562.17 405.17,575.53 400.26,591.84C392.34,613.08 375.33,629.19 367,650.2C366.33,656.61 363.87,663.45 357.52,666.22C346.93,664.59 338.71,657.04 328.63,654.02C319.24,650.54 311.16,642.11 309.95,631.92C310.64,622.57 324.35,619.4 330.36,625.71C334.03,629.3 341.05,633.68 344.64,627.59C354.41,611.88 368.27,596.99 367.75,577.32C367.671,574.338 368.602,574.287 370.26,570.9C373.56,564.16 391.85,527.34 398,515.68C402.59,509.91 400.43,502.17 398.92,495.67C393.96,476.3 393.09,455.89 386.45,437.07C375.11,438.31 370.86,451.91 361.88,457.68C352.07,463.92 342.77,471.63 330.9,473.44C322.52,477.29 314.3,468.52 306.09,472.62C300.21,475.27 293.42,476.38 287.53,473.11C281.05,471.82 277.77,462.53 283.1,458.11C286.94,454.5 290.23,449.95 295.07,447.65C315.01,443.08 336.3,440.33 353.49,428.47C361.93,411.81 361.42,390.96 374.26,376.32C378.5,372.56 385.63,369.91 383.78,362.89C375.77,359.22 372.21,350.26 371.69,341.95C371.49,336.21 365.12,334.2 362.68,329.78C361.37,322.77 371.68,322.61 372.43,316.03" style="fill-rule:nonzero;"/>
            </g>
            <g transform="matrix(1.0682,0,0,1.0682,-82.1902,-123.984)">
                <rect x="1706.3" y="1801.33" width="75" height="33"/>
                <g transform="matrix(1,0,0,1,-100,0)">
                    <rect x="1706.3" y="1801.33" width="75" height="33"/>
                </g>
                <g transform="matrix(1,0,0,1,-200,0)">
                    <rect x="1706.3" y="1801.33" width="75" height="33"/>
                </g>
                <g transform="matrix(1,0,0,1,-300,0)">
                    <rect x="1706.3" y="1801.33" width="75" height="33"/>
                </g>
                <g transform="matrix(1,0,0,1,-400,0)">
                    <rect x="1706.3" y="1801.33" width="75" height="33"/>
                </g>
                <g transform="matrix(1,0,0,1,-500,0)">
                    <rect x="1706.3" y="1801.33" width="75" height="33"/>
                </g>
                <g transform="matrix(1,0,0,1,-600,0)">
                    <rect x="1706.3" y="1801.33" width="75" height="33"/>
                </g>
                <g transform="matrix(1,0,0,1,-700,0)">
                    <rect x="1706.3" y="1801.33" width="75" height="33"/>
                </g>
                <g transform="matrix(1,0,0,1,-800,0)">
                    <rect x="1706.3" y="1801.33" width="75" height="33"/>
                </g>
                <g transform="matrix(1,0,0,1,-900,0)">
                    <rect x="1706.3" y="1801.33" width="75" height="33"/>
                </g>
                <g transform="matrix(1,0,0,1,-1000,0)">
                    <rect x="1706.3" y="1801.33" width="75" height="33"/>
                </g>
                <g transform="matrix(1,0,0,1,-1100,0)">
                    <rect x="1706.3" y="1801.33" width="75" height="33"/>
                </g>
            </g>
            <g transform="matrix(1,0,0,1,30,-297)">
                <g transform="matrix(1,0,0,1,-155.865,0)">
                    <rect x="1706.3" y="1801.33" width="75" height="33"/>
                </g>
                <g transform="matrix(1,0,0,1,-255.865,0)">
                    <rect x="1706.3" y="1801.33" width="75" height="33"/>
                </g>
                <g transform="matrix(1,0,0,1,-517.423,0)">
                    <rect x="1706.3" y="1801.33" width="75" height="33"/>
                </g>
                <g transform="matrix(1,0,0,1,-734.846,0)">
                    <rect x="1706.3" y="1801.33" width="75" height="33"/>
                </g>
                <g transform="matrix(1,0,0,1,-834.846,0)">
                    <rect x="1706.3" y="1801.33" width="75" height="33"/>
                </g>
                <g transform="matrix(1,0,0,1,-934.846,0)">
                    <rect x="1706.3" y="1801.33" width="75" height="33"/>
                </g>
                <g transform="matrix(1,0,0,1,-1034.85,0)">
                    <rect x="1706.3" y="1801.33" width="75" height="33"/>
                </g>
            </g>
        </g>
    </g>
</svg>
