<?xml version="1.0" encoding="UTF-8" standalone="no"?>
<!DOCTYPE svg PUBLIC "-//W3C//DTD SVG 1.1//EN" "http://www.w3.org/Graphics/SVG/1.1/DTD/svg11.dtd">
<!-- GeoHints -->
<svg width="100%" height="100%" viewBox="0 0 9900 8650" version="1.1" xmlns="http://www.w3.org/2000/svg" xmlns:xlink="http://www.w3.org/1999/xlink" xml:space="preserve" xmlns:serif="http://www.serif.com/" style="fill-rule:evenodd;clip-rule:evenodd;stroke-linejoin:round;">
    <path d="M286.538,8360.33L4947.96,286.54L9609.38,8360.33L286.588,8360.34L286.547,8360.33L286.538,8360.33Z" style="fill:rgb(226,10,22);fill-rule:nonzero;stroke:rgb(226,10,22);stroke-width:573.08px;"/>
    <g transform="matrix(1.11358,0,0,1.11358,-562.009,-568.728)">
        <path d="M4947.96,1432.69L1279.16,7787.23L8616.78,7787.24L4947.98,1432.69L4947.96,1432.69Z" style="fill:white;fill-rule:nonzero;"/>
    </g>
    <g transform="matrix(15.8302,0,0,15.8302,894.462,1103.25)">
        <g transform="matrix(1,0,0,1,0,-20)">
            <path d="M136.29,371.87L164.72,371.87L129.29,438.19L91.81,438.19L136.29,371.87Z" style="fill-rule:nonzero;"/>
            <path d="M190.25,371.87L215.38,371.87L202.82,438.19L164.72,438.19L190.25,371.87Z" style="fill-rule:nonzero;"/>
            <path d="M376.08,371.87L347.66,371.87L383.08,438.19L420.57,438.19L376.08,371.87Z" style="fill-rule:nonzero;"/>
            <path d="M322.12,371.87L296.99,371.87L309.56,438.19L347.66,438.19L322.12,371.87Z" style="fill-rule:nonzero;"/>
            <path d="M242.57,371.87L270.58,371.87L275.93,438.19L237.21,438.19L242.57,371.87Z" style="fill-rule:nonzero;"/>
        </g>
        <g transform="matrix(1,0,0,1,0,-20)">
            <path d="M285.74,401.42C285.033,401.416 284.33,401.315 283.65,401.12C280.496,400.193 278.315,397.279 278.315,393.991C278.315,393.178 278.448,392.37 278.71,391.6L294.86,344.39L290.54,344.39L299.03,316.39L296.22,311.58L276.22,326.89C275.024,327.848 273.537,328.37 272.005,328.37C268.307,328.37 265.265,325.328 265.265,321.63C265.265,319.586 266.195,317.648 267.79,316.37L304.84,285.44L315,285.44L338.2,296.25L343.2,310.09C343.469,310.838 343.607,311.627 343.607,312.422C343.607,315.449 341.609,318.138 338.71,319.01C338.062,319.21 337.388,319.311 336.71,319.31C333.916,319.314 331.387,317.611 330.34,315.02L326.84,306.43L324.84,305.35L320.23,318.26L331.79,342.46L329,342.46L344.59,390.13C345.722,393.581 343.99,397.369 340.64,398.77C339.784,399.129 338.865,399.313 337.936,399.313C334.936,399.313 332.254,397.384 331.3,394.54L314.3,344L310.6,344L292.75,396.39C291.727,399.374 288.904,401.39 285.75,401.39L285.74,401.42Z" style="fill-rule:nonzero;"/>
            <path d="M286.126,403.382C289.979,403.228 293.383,400.71 294.642,397.039C294.642,397.037 294.643,397.036 294.643,397.035L312.031,346C312.031,346 312.863,346 312.863,346C312.863,346 329.404,395.178 329.404,395.178C330.63,398.833 334.079,401.313 337.936,401.313C339.13,401.313 340.312,401.076 341.413,400.615C345.719,398.813 347.946,393.943 346.49,389.507C346.491,389.508 335.023,354.441 331.758,344.46C331.758,344.46 331.79,344.46 331.79,344.46C332.477,344.46 333.115,344.108 333.482,343.527C333.848,342.946 333.891,342.218 333.595,341.598C333.595,341.598 324.345,322.234 322.393,318.149L325.692,308.912L328.487,315.773C329.84,319.116 333.104,321.314 336.71,321.31C337.586,321.311 338.456,321.181 339.294,320.923C343.031,319.795 345.607,316.327 345.607,312.422C345.607,311.396 345.429,310.378 345.082,309.413C345.082,309.412 345.081,309.411 345.081,309.41L340.081,295.57C339.9,295.07 339.527,294.662 339.045,294.437L315.845,283.627C315.58,283.504 315.292,283.44 315,283.44L304.84,283.44C304.372,283.44 303.918,283.604 303.558,283.905L266.523,314.823C264.465,316.48 263.265,318.986 263.265,321.63C263.265,326.425 267.21,330.37 272.005,330.37C273.985,330.37 275.906,329.698 277.454,328.464C277.452,328.466 295.636,314.546 295.636,314.546C295.636,314.546 296.863,316.645 296.863,316.645C296.863,316.645 288.626,343.81 288.626,343.81C288.442,344.416 288.556,345.073 288.934,345.581C289.311,346.09 289.907,346.39 290.54,346.39L292.062,346.39C292.062,346.39 276.818,390.953 276.818,390.953C276.817,390.954 276.817,390.955 276.817,390.956C276.484,391.933 276.315,392.959 276.315,393.991C276.315,398.164 279.083,401.862 283.086,403.039C283.09,403.04 283.094,403.041 283.099,403.043C283.954,403.288 284.839,403.415 285.729,403.42C285.864,403.421 285.997,403.408 286.126,403.382ZM285.74,401.42C285.033,401.416 284.33,401.315 283.65,401.12C280.496,400.193 278.315,397.279 278.315,393.991C278.315,393.178 278.448,392.37 278.71,391.6L294.86,344.39L290.54,344.39L299.03,316.39L296.22,311.58L276.22,326.89C275.024,327.848 273.537,328.37 272.005,328.37C268.307,328.37 265.265,325.328 265.265,321.63C265.265,319.586 266.195,317.648 267.79,316.37L304.84,285.44L315,285.44L338.2,296.25L343.2,310.09C343.469,310.838 343.607,311.627 343.607,312.422C343.607,315.449 341.609,318.138 338.71,319.01C338.062,319.21 337.388,319.311 336.71,319.31C333.916,319.314 331.387,317.611 330.34,315.02L326.84,306.43L324.84,305.35L320.23,318.26L331.79,342.46L329,342.46L344.59,390.13C345.722,393.581 343.99,397.369 340.64,398.77C339.784,399.129 338.865,399.313 337.936,399.313C334.936,399.313 332.254,397.384 331.3,394.54L314.3,344L310.6,344L292.75,396.39C291.727,399.374 288.904,401.39 285.75,401.39L285.74,401.42Z" style="fill:white;"/>
            <path d="M314.757,278.422C313.051,279.253 311.134,279.72 309.11,279.72C301.979,279.72 296.19,273.931 296.19,266.8C296.19,259.669 301.979,253.88 309.11,253.88C316.241,253.88 322.03,259.669 322.03,266.8C322.03,269.007 321.475,271.085 320.498,272.904L324.077,274.4L323.38,269.29L335.82,274.94L330.186,276.953L336.347,279.528C338.246,280.321 339.144,282.508 338.35,284.407C337.556,286.307 335.37,287.204 333.47,286.411L326.932,283.678L327.48,287.74L315.05,282.09L319.404,280.532L315.681,278.977C315.339,278.834 315.029,278.646 314.757,278.422Z"/>
            <path d="M361.14,330.55L331.31,341.95L328.69,326.18L352.58,317.04L361.14,330.55Z" style="fill-rule:nonzero;"/>
            <path d="M257.68,401.34C254.517,401.327 251.673,399.357 250.55,396.4L231.06,344.51L228.73,345.68L224.32,336.3L218.82,346.2L216.74,345.31L191.22,394.46C189.869,397.073 187.162,398.72 184.22,398.72C183.479,398.717 182.743,398.612 182.03,398.41C178.663,397.43 176.33,394.322 176.33,390.815C176.33,389.546 176.635,388.296 177.22,387.17L202.91,337.85L200.52,336.66L211.01,315.66L207.78,305L193,324.74C191.448,326.798 189.015,328.011 186.437,328.011C184.644,328.011 182.899,327.424 181.47,326.34C177.901,323.606 177.195,318.43 179.9,314.84L210.52,274.47L223.83,265.79L231.16,265.79L263.59,299.14L263.59,321C263.59,325.276 260.071,328.795 255.795,328.795C251.519,328.795 248,325.276 248,321L248,305.4L241.05,299.17L238.91,316.83L248.51,339.13L245.76,340.35L264.76,391.05C266.2,394.923 264.246,399.298 260.4,400.81C259.534,401.154 258.612,401.333 257.68,401.34Z" style="fill-rule:nonzero;"/>
            <path d="M257.672,403.34C257.68,403.34 257.687,403.34 257.695,403.34C258.874,403.331 260.04,403.105 261.135,402.67C265.987,400.76 268.452,395.24 266.635,390.353C266.634,390.351 266.633,390.35 266.633,390.348C266.633,390.348 251.65,350.369 248.294,341.414C248.294,341.414 249.321,340.958 249.321,340.958C250.323,340.514 250.78,339.346 250.347,338.339C250.347,338.339 242.375,319.821 240.96,316.535C240.96,316.535 242.574,303.222 242.574,303.222C242.574,303.222 246,306.293 246,306.293C246,306.293 246,321 246,321C246,326.373 250.422,330.795 255.795,330.795C261.168,330.795 265.59,326.373 265.59,321C265.59,321 265.59,299.14 265.59,299.14C265.59,298.619 265.387,298.119 265.024,297.746L232.594,264.396C232.217,264.008 231.7,263.79 231.16,263.79L223.83,263.79C223.442,263.79 223.062,263.903 222.738,264.115L209.428,272.795C209.235,272.92 209.065,273.078 208.927,273.261L178.307,313.631C178.305,313.633 178.304,313.635 178.303,313.636C174.941,318.098 175.819,324.53 180.254,327.928C180.256,327.93 180.259,327.932 180.261,327.933C182.038,329.281 184.208,330.011 186.437,330.011C189.642,330.011 192.667,328.503 194.597,325.944C194.598,325.942 194.6,325.941 194.601,325.939L207.012,309.363C207.012,309.363 208.865,315.478 208.865,315.478C207.031,319.149 198.731,335.766 198.731,335.766C198.494,336.241 198.455,336.791 198.623,337.294C198.792,337.798 199.153,338.214 199.629,338.45L200.195,338.733C200.195,338.733 175.446,386.246 175.446,386.246C175.446,386.247 175.446,386.247 175.445,386.248C174.712,387.659 174.33,389.225 174.33,390.815C174.33,395.209 177.253,399.103 181.471,400.33C181.476,400.332 181.48,400.333 181.485,400.334C182.373,400.586 183.289,400.716 184.212,400.72C184.215,400.72 184.217,400.72 184.22,400.72C187.908,400.72 191.301,398.656 192.995,395.381C192.995,395.381 213.219,356.432 217.66,347.879C217.66,347.879 218.033,348.039 218.033,348.039C218.976,348.442 220.07,348.067 220.568,347.171L224.172,340.685C224.172,340.685 226.92,346.531 226.92,346.531C227.15,347.019 227.567,347.394 228.076,347.57C228.586,347.746 229.145,347.709 229.627,347.467L229.97,347.295C233.605,356.975 248.678,397.103 248.678,397.103C248.679,397.106 248.679,397.108 248.68,397.11C250.096,400.839 253.683,403.324 257.672,403.34ZM257.68,401.34C254.517,401.327 251.673,399.357 250.55,396.4L231.06,344.51L228.73,345.68L224.32,336.3L218.82,346.2L216.74,345.31L191.22,394.46C189.869,397.073 187.162,398.72 184.22,398.72C183.479,398.717 182.743,398.612 182.03,398.41C178.663,397.43 176.33,394.322 176.33,390.815C176.33,389.546 176.635,388.296 177.22,387.17L202.91,337.85L200.52,336.66L211.01,315.66L207.78,305L193,324.74C191.448,326.798 189.015,328.011 186.437,328.011C184.644,328.011 182.899,327.424 181.47,326.34C177.901,323.606 177.195,318.43 179.9,314.84L210.52,274.47L223.83,265.79L231.16,265.79L263.59,299.14L263.59,321C263.59,325.276 260.071,328.795 255.795,328.795C251.519,328.795 248,325.276 248,321L248,305.4L241.05,299.17L238.91,316.83L248.51,339.13L245.76,340.35L264.76,391.05C266.2,394.923 264.246,399.298 260.4,400.81C259.534,401.154 258.612,401.333 257.68,401.34Z" style="fill:white;"/>
            <g transform="matrix(0.819152,0.573576,-0.573576,0.819152,226.24,-36.74)">
                <rect x="150.23" y="324.57" width="42.29" height="31.63"/>
            </g>
            <path d="M214.77,266.59C207.134,266.59 200.85,260.306 200.85,252.67C200.85,245.034 207.134,238.75 214.77,238.75C222.406,238.75 228.69,245.034 228.69,252.67C228.679,260.302 222.402,266.579 214.77,266.59Z" style="fill-rule:nonzero;"/>
        </g>
    </g>
</svg>
