<?xml version="1.0" encoding="UTF-8" standalone="no"?>
<!DOCTYPE svg PUBLIC "-//W3C//DTD SVG 1.1//EN" "http://www.w3.org/Graphics/SVG/1.1/DTD/svg11.dtd">
<!-- Geohints -->
<svg width="100%" height="100%" viewBox="0 0 515 523" version="1.1" xmlns="http://www.w3.org/2000/svg" xmlns:xlink="http://www.w3.org/1999/xlink" xml:space="preserve" xmlns:serif="http://www.serif.com/" style="fill-rule:evenodd;clip-rule:evenodd;stroke-linejoin:round;stroke-miterlimit:2;">
    <path d="M33.45,0L481.17,0C481.193,-0 481.217,-0 481.24,-0C499.602,-0 514.722,15.088 514.76,33.45L514.76,488.65C514.76,488.673 514.76,488.697 514.76,488.72C514.76,507.082 499.672,522.202 481.31,522.24L33.59,522.24C33.567,522.24 33.543,522.24 33.52,522.24C15.158,522.24 0.038,507.152 0,488.79L0,33.59C-0,33.567 -0,33.543 -0,33.52C-0,15.158 15.088,0.038 33.45,0Z" style="fill:rgb(0,64,140);"/>
    <path d="M30.46,512.35C19.936,510.936 11.625,502.538 10.32,492C10.04,489.79 10.04,33.15 10.32,30.94C10.863,26.437 12.709,22.189 15.63,18.72C19.038,14.682 23.693,11.888 28.86,10.78C30.2,10.46 39.01,10.45 256.86,10.39C418.02,10.39 483,10.39 484.25,10.53C494.983,11.722 503.554,20.217 504.84,30.94C505.11,33.15 505.11,489.79 504.84,492C503.543,502.644 495.085,511.098 484.44,512.39C482.44,512.64 32.36,512.62 30.44,512.39L30.46,512.35ZM485.39,504.44C491.057,502.945 495.484,498.48 496.93,492.8L497.35,491.13L497.35,31.75L496.93,30.08C495.534,24.366 491.068,19.88 485.36,18.46L483.62,18L258.18,18C44,18 31.66,18 30.29,18.34C27.31,18.977 24.581,20.472 22.44,22.64C20.329,24.747 18.844,27.399 18.15,30.3C17.85,31.49 17.83,44.94 17.78,260.05C17.78,411.39 17.78,489.16 17.9,490.39C18.032,492.394 18.569,494.35 19.48,496.14C21.869,500.914 26.525,504.164 31.83,504.76C32.49,504.84 134.68,504.89 258.92,504.88L483.81,504.88L485.39,504.44Z" style="fill:white;"/>
    <g transform="matrix(1,0,0,1,0,-8.995)">
        <g transform="matrix(1,0,0,1,0,-20)">
            <path d="M257.38,123.23L450.07,457L64.69,457L257.38,123.23Z" style="fill:white;"/>
        </g>
        <g transform="matrix(1,0,0,1,0,-20)">
            <path d="M136.29,371.87L164.72,371.87L129.29,438.19L91.81,438.19L136.29,371.87Z" style="fill-rule:nonzero;"/>
            <path d="M190.25,371.87L215.38,371.87L202.82,438.19L164.72,438.19L190.25,371.87Z" style="fill-rule:nonzero;"/>
            <path d="M376.08,371.87L347.66,371.87L383.08,438.19L420.57,438.19L376.08,371.87Z" style="fill-rule:nonzero;"/>
            <path d="M322.12,371.87L296.99,371.87L309.56,438.19L347.66,438.19L322.12,371.87Z" style="fill-rule:nonzero;"/>
            <path d="M242.57,371.87L270.58,371.87L275.93,438.19L237.21,438.19L242.57,371.87Z" style="fill-rule:nonzero;"/>
        </g>
        <g transform="matrix(1,0,0,1,0,-20)">
            <path d="M285.74,401.42C285.033,401.416 284.33,401.315 283.65,401.12C280.496,400.193 278.315,397.279 278.315,393.991C278.315,393.178 278.448,392.37 278.71,391.6L294.86,344.39L290.54,344.39L299.03,316.39L296.22,311.58L276.22,326.89C275.024,327.848 273.537,328.37 272.005,328.37C268.307,328.37 265.265,325.328 265.265,321.63C265.265,319.586 266.195,317.648 267.79,316.37L304.84,285.44L315,285.44L338.2,296.25L343.2,310.09C343.469,310.838 343.607,311.627 343.607,312.422C343.607,315.449 341.609,318.138 338.71,319.01C338.062,319.21 337.388,319.311 336.71,319.31C333.916,319.314 331.387,317.611 330.34,315.02L326.84,306.43L324.84,305.35L320.23,318.26L331.79,342.46L329,342.46L344.59,390.13C345.722,393.581 343.99,397.369 340.64,398.77C339.784,399.129 338.865,399.313 337.936,399.313C334.936,399.313 332.254,397.384 331.3,394.54L314.3,344L310.6,344L292.75,396.39C291.727,399.374 288.904,401.39 285.75,401.39L285.74,401.42Z" style="fill-rule:nonzero;stroke:white;stroke-width:2px;"/>
            <path d="M314.757,278.422C313.051,279.253 311.134,279.72 309.11,279.72C301.979,279.72 296.19,273.931 296.19,266.8C296.19,259.669 301.979,253.88 309.11,253.88C316.241,253.88 322.03,259.669 322.03,266.8C322.03,269.007 321.475,271.085 320.498,272.904L324.077,274.4L323.38,269.29L335.82,274.94L330.186,276.953L336.347,279.528C338.246,280.321 339.144,282.508 338.35,284.407C337.556,286.307 335.37,287.204 333.47,286.411L326.932,283.678L327.48,287.74L315.05,282.09L319.404,280.532L315.681,278.977C315.339,278.834 315.029,278.646 314.757,278.422Z"/>
            <path d="M361.14,330.55L331.31,341.95L328.69,326.18L352.58,317.04L361.14,330.55Z" style="fill-rule:nonzero;"/>
            <path d="M214.77,266.59C207.134,266.59 200.85,260.306 200.85,252.67C200.85,245.034 207.134,238.75 214.77,238.75C222.406,238.75 228.69,245.034 228.69,252.67C228.679,260.302 222.402,266.579 214.77,266.59Z" style="fill-rule:nonzero;stroke:white;stroke-width:2px;"/>
            <path d="M257.68,401.34C254.517,401.327 251.673,399.357 250.55,396.4L231.06,344.51L228.73,345.68L224.32,336.3L218.82,346.2L216.74,345.31L191.22,394.46C189.869,397.073 187.162,398.72 184.22,398.72C183.479,398.717 182.743,398.612 182.03,398.41C178.663,397.43 176.33,394.322 176.33,390.815C176.33,389.546 176.635,388.296 177.22,387.17L202.91,337.85L200.52,336.66L211.01,315.66L207.78,305L193,324.74C191.448,326.798 189.015,328.011 186.437,328.011C184.644,328.011 182.899,327.424 181.47,326.34C177.901,323.606 177.195,318.43 179.9,314.84L210.52,274.47L223.83,265.79L231.16,265.79L263.59,299.14L263.59,321C263.59,325.276 260.071,328.795 255.795,328.795C251.519,328.795 248,325.276 248,321L248,305.4L241.05,299.17L238.91,316.83L248.51,339.13L245.76,340.35L264.76,391.05C266.2,394.923 264.246,399.298 260.4,400.81C259.534,401.154 258.612,401.333 257.68,401.34Z" style="fill-rule:nonzero;stroke:white;stroke-width:2px;"/>
            <g transform="matrix(0.819152,0.573576,-0.573576,0.819152,226.24,-36.74)">
                <rect x="150.23" y="324.57" width="42.29" height="31.63"/>
            </g>
        </g>
    </g>
</svg>
