<svg xmlns="http://www.w3.org/2000/svg" viewBox="0 0 514.76 522.24"><defs><style>.cls-1{fill:#00408c;}.cls-1,.cls-3,.cls-4{fill-rule:evenodd;}.cls-2,.cls-3{fill:#fff;}</style></defs><title>Asset 9</title><g id="Layer_2" data-name="Layer 2"><g id="Layer_1-2" data-name="Layer 1"><g id="Layer_1-2-2" data-name="Layer 1-2"><g id="g8435"><path id="rect9000" class="cls-1" d="M33.59,0H481.17a33.52,33.52,0,0,1,33.59,33.45v455.2a33.52,33.52,0,0,1-33.45,33.59H33.59A33.52,33.52,0,0,1,0,488.79V33.59A33.52,33.52,0,0,1,33.45,0Z"/><path id="path9038" class="cls-2" d="M30.46,512.35A23.44,23.44,0,0,1,10.32,492c-.28-2.21-.28-458.85,0-461.06a23.3,23.3,0,0,1,5.31-12.22,23.86,23.86,0,0,1,13.23-7.94c1.34-.32,10.15-.33,228-.39,161.16,0,226.14,0,227.39.14a23.33,23.33,0,0,1,20.59,20.41c.27,2.21.27,458.85,0,461.06a23.39,23.39,0,0,1-20.4,20.39c-2,.25-452.08.23-454,0Zm454.93-7.91a16.16,16.16,0,0,0,11.54-11.64l.42-1.67V31.75l-.42-1.67a15.85,15.85,0,0,0-11.57-11.62L483.62,18H258.18C44,18,31.66,18,30.29,18.34a15.63,15.63,0,0,0-7.85,4.3,16.12,16.12,0,0,0-4.29,7.66c-.3,1.19-.32,14.64-.37,229.75,0,151.34,0,229.11.12,230.34a14.83,14.83,0,0,0,1.58,5.75,15.78,15.78,0,0,0,12.35,8.62c.66.08,102.85.13,227.09.12H483.81Z"/></g></g><path id="path4558" class="cls-3" d="M257.38,123.23,450.07,457H64.69L257.38,123.23Z"/><polygon class="cls-4" points="136.29 371.87 164.72 371.87 129.29 438.19 91.81 438.19 136.29 371.87"/><polygon class="cls-4" points="190.25 371.87 215.38 371.87 202.82 438.19 164.72 438.19 190.25 371.87"/><polygon class="cls-4" points="376.08 371.87 347.66 371.87 383.08 438.19 420.57 438.19 376.08 371.87"/><polygon class="cls-4" points="322.12 371.87 296.99 371.87 309.56 438.19 347.66 438.19 322.12 371.87"/><polygon class="cls-4" points="242.57 371.87 270.58 371.87 275.93 438.19 237.21 438.19 242.57 371.87"/><g id="path22842"><path class="cls-4" d="M303.11,410.77c-4.39,0-8.06-2.3-10.92-6.84l-.05-.08-31.47-83.5-41,84-.09.11c-3.37,3.77-7,5.68-10.91,5.68a15,15,0,0,1-6.76-1.76c-5.19-2.58-8.38-9.63-6.83-15.08l0-.08,47.94-97.93-2.74-10.57-26.13,26.53-.2.08a11.94,11.94,0,0,1-4.42.86,11.15,11.15,0,0,1-8.64-4.08,11.59,11.59,0,0,1-1.76-11.93l.06-.14,48.29-54.81L261,233.08a9.67,9.67,0,0,1,4.59-1.26h.14a9.26,9.26,0,0,1,6.05,2.59l44.81,44,.22.25a5.58,5.58,0,0,1,1.69,4.07v22.14l0,.1a10.67,10.67,0,0,1-10.28,8.15H308A10.56,10.56,0,0,1,297.78,305l0-.14,0-15.92-12.38-9.08-5,14.64L316.41,395V395c1.21,6-1.62,12-6.73,14.2A16.44,16.44,0,0,1,303.11,410.77ZM249.8,232.67A17.64,17.64,0,1,1,267.44,215,17.66,17.66,0,0,1,249.8,232.67Z"/><path class="cls-2" d="M249.8,198.39A16.64,16.64,0,1,1,233.15,215a16.64,16.64,0,0,1,16.65-16.64m15.76,34.43h.12a8.36,8.36,0,0,1,5.3,2.23l44.88,44.09a4.84,4.84,0,0,1,1.61,3.58v22.06a9.65,9.65,0,0,1-9.3,7.35H308a9.58,9.58,0,0,1-9.29-7.39l0-16.29-13.89-10.19-5.58,16.26,36.15,100.71c1.17,5.78-1.62,11.11-6.16,13.1a15.52,15.52,0,0,1-6.17,1.44c-3.54,0-7.1-1.65-10.07-6.37l-32.25-85.57-41.94,86c-3.49,3.9-6.91,5.35-10.17,5.35a14.25,14.25,0,0,1-6.31-1.65c-4.56-2.27-7.83-8.63-6.32-13.92l48.06-98.17-3.28-12.64-27.22,27.64a10.88,10.88,0,0,1-4.05.79,10.11,10.11,0,0,1-7.86-3.72,10.56,10.56,0,0,1-1.63-10.89L248.16,242l13.33-8.09a8.54,8.54,0,0,1,4.07-1.12M249.8,196.39h0A18.64,18.64,0,1,0,268.44,215a18.67,18.67,0,0,0-18.64-18.64Zm15.76,34.43a10.42,10.42,0,0,0-5.09,1.4l-13.35,8.1-.26.16-.2.23-48.09,54.58-.2.23-.13.28a12.6,12.6,0,0,0,1.91,13,12.12,12.12,0,0,0,9.41,4.45,12.91,12.91,0,0,0,4.79-.93l.39-.15.3-.31,24.74-25.12,2.21,8.5-47.74,97.51-.07.16-.05.18c-1.71,6,1.66,13.42,7.35,16.25a16,16,0,0,0,7.2,1.86c4.16,0,8.09-2,11.66-6l.18-.2.12-.25,39.92-81.82,30.61,81.23.07.19.11.17c3,4.84,7,7.3,11.76,7.3a17.48,17.48,0,0,0,7-1.61c5.54-2.43,8.61-8.88,7.31-15.32l0-.14-.05-.14L281.41,294.5l4.47-13,10.88,8,0,15.28V305l.07.26A11.55,11.55,0,0,0,308,314.13h.17a11.69,11.69,0,0,0,11.26-9l0-.19V282.72a6.57,6.57,0,0,0-1.93-4.7l-.15-.17-.06-.08-.07-.06-44.82-44a10.35,10.35,0,0,0-6.73-2.87h-.15Z"/></g></g></g></svg>