<svg xmlns="http://www.w3.org/2000/svg" viewBox="0 0 238.72 209.44"><defs><style>.cls-1{fill:#fff;stroke:#000;stroke-linecap:round;stroke-linejoin:round;stroke-width:0.75px;}.cls-2{fill:#ef2028;}</style></defs><g id="Layer_2" data-name="Layer 2"><g id="Layer_1-2" data-name="Layer 1"><g id="Layer_2-2" data-name="Layer 2"><g id="svg48705"><g id="layer1"><path id="path2818-7" class="cls-1" d="M235.33,190.5a31.86,31.86,0,0,1,2.27,4.18,9.48,9.48,0,0,1,.74,3.65,10.37,10.37,0,0,1-1.32,5.29,10.73,10.73,0,0,1-6.24,5,16.22,16.22,0,0,1-4.81.42H11.83a19,19,0,0,1-2.38-.1,10.64,10.64,0,0,1-7.88-5.5,11.07,11.07,0,0,1-1.16-5.82,11.35,11.35,0,0,1,2-5.45L109.67,6.46a10.7,10.7,0,0,1,19.51.47Z"/><path id="path2820-2" class="cls-2" d="M11.73,206.58c-3.65,0-6.3-1.27-7.88-4A8.51,8.51,0,0,1,4,194.15L112.37,6.88a8.49,8.49,0,0,1,7.35-4c3.22,0,5.39,1.8,7,4.5l108,186.9a8.1,8.1,0,0,1,0,8.46,8.32,8.32,0,0,1-7.35,3.86Zm18.14-19,178.85-.06L119.3,32.74Z"/></g></g></g><circle cx="115.78" cy="67.72" r="8.36" transform="translate(23.28 164.84) rotate(-76.72)"/><polygon points="123.76 76.65 123.76 76.65 123.76 76.65 123.76 76.65"/><path d="M145,116.49a4.83,4.83,0,0,0,4.74-3.69V101.72a2.45,2.45,0,0,0-.81-1.8L126.43,77.77a4.28,4.28,0,0,0-2.67-1.12,4.22,4.22,0,0,0-2.1.56L115,81.28,90.81,108.7a5.29,5.29,0,0,0,.81,5.47,5.19,5.19,0,0,0,6,1.47l13.67-13.89,1.65,6.35L88.79,157.42a6.41,6.41,0,0,0,3.17,7l.44.2.13.06.31.12.16.06.31.1.15,0,.44.11h0l.46.07.14,0,.33,0h.57a7,7,0,0,0,4.83-2.68l21.07-43.2,16.2,43c1.68,2.67,3.74,3.38,5.73,3.15h0l.07,0,.49-.07.13,0,.46-.11.14,0,.44-.15.14-.05a5.25,5.25,0,0,0,.55-.22h0a5.62,5.62,0,0,0,3.22-5,6.78,6.78,0,0,0-.13-1.6L130.6,107.64l2.8-8.17,7,5.12v8.19A4.81,4.81,0,0,0,145,116.49Z"/><polygon points="60.18 146.64 73.33 146.64 55.33 179.55 37.18 179.55 60.18 146.64"/><polygon points="178.41 146.64 165.26 146.64 183.26 179.55 201.41 179.55 178.41 146.64"/><path d="M86.56,156.78l.06-.2.09-.18,4.77-9.76h-5L73.84,179.55h18l3-12a9.37,9.37,0,0,1-3.91-1.06A8.77,8.77,0,0,1,86.56,156.78Z"/><path d="M164.75,179.55l-12.64-32.91h-5.05l3.88,10.81.06.16,0,.17a8.17,8.17,0,0,1-4.43,9.15,11.15,11.15,0,0,1-2.79.83l2.93,11.79Z"/><polygon points="112.69 146.64 125.64 146.64 128.37 179.55 110.16 179.55 112.69 146.64"/></g></g></svg>