<?xml version="1.0" encoding="UTF-8" standalone="no"?>
<svg xmlns:dc="http://purl.org/dc/elements/1.1/" xmlns:cc="http://creativecommons.org/ns#" xmlns:rdf="http://www.w3.org/1999/02/22-rdf-syntax-ns#" xmlns:svg="http://www.w3.org/2000/svg" xmlns="http://www.w3.org/2000/svg" xmlns:sodipodi="http://sodipodi.sourceforge.net/DTD/sodipodi-0.dtd" xmlns:inkscape="http://www.inkscape.org/namespaces/inkscape" sodipodi:docname="Uganda_road_sign_W43.svg" inkscape:version="1.0 (4035a4fb49, 2020-05-01)" xml:space="preserve" id="svg2" height="283.26859" width="320.461" version="1.1"><sodipodi:namedview inkscape:document-rotation="0" inkscape:current-layer="g10" inkscape:window-maximized="1" inkscape:window-y="-9" inkscape:window-x="-9" inkscape:cy="150.4247" inkscape:cx="222.93028" inkscape:zoom="1.9560697" showgrid="false" id="namedview33" inkscape:window-height="1001" inkscape:window-width="1920" inkscape:pageshadow="2" inkscape:pageopacity="0" guidetolerance="10" gridtolerance="10" objecttolerance="10" borderopacity="1" bordercolor="#666666" pagecolor="#ffffff"/><defs id="defs34"><clipPath id="clip8"><path d="m 325,193 h 48 v 41.76172 h -48 z m 0,0" id="path1439"/></clipPath><clipPath id="clip47"><path d="m 115,677.20703 h 47.91016 v 42.50391 H 115 Z m 0,0" id="path9208"/></clipPath></defs><metadata id="metadata8"><rdf:RDF><cc:Work rdf:about=""><dc:format>image/svg+xml</dc:format><dc:type rdf:resource="http://purl.org/dc/dcmitype/StillImage"/><dc:title/></cc:Work></rdf:RDF></metadata><g id="g10" transform="matrix(1.25,0,0,-1.25,-3.4738087,341.06251)"><path style="fill:#d9231c;fill-opacity:1;stroke-width:1" id="path12" inkscape:connector-curvature="0" d="m 242.51916,46.235139 c 5.72272,0.132259 11.25676,3.169566 14.36291,8.47811 3.05628,5.364482 2.91913,11.675686 0.19948,16.756733 L 145.46974,264.67113 c -2.94573,4.85995 -8.34263,8.134 -14.46265,8.17888 -6.20481,-0.0448 -11.60255,-3.31893 -14.5624,-8.17888 L 4.8328715,71.469982 C 2.1295182,66.388935 1.9930373,60.077731 5.0323564,54.713249 8.1552097,49.404705 13.689171,46.367298 19.39527,46.235139 h 223.12389"/><path style="fill:#ffffff;stroke-width:1" id="path14" inkscape:connector-curvature="0" d="M 131.00709,244.22392 29.569002,68.577443 H 232.34542 L 131.00709,244.22392"/><path id="path13606" style="opacity:1;fill:#000000;fill-opacity:1;fill-rule:evenodd;stroke:none;stroke-width:1.06666" d="m 136.16413,216.84932 c -5.73783,0.0545 -10.3698,-4.58501 -10.37561,-10.3843 0.004,-2.29228 0.7983,-4.47772 2.07354,-6.22111 0.28539,-0.27149 1.51578,-2.30722 -1.24573,-2.70451 -2.651,-0.218 -10.46253,-0.61398 -15.15343,-5.39322 -9.2872,-9.75866 -15.617538,-21.31137 -17.227017,-37.78406 -0.529618,-0.15644 -2.378071,-0.8283 -2.286437,-2.90161 -0.09204,-1.98693 3.726132,-6.35272 9.137834,-6.43402 1.31347,0.0817 3.13835,0.92292 3.11425,2.90162 0.0202,1.11174 0.0161,1.85582 -0.21274,2.7045 -0.38308,0.87346 -0.56808,3.20999 -0.62286,7.05688 0.0549,3.90335 3.8706,12.63045 9.34278,16.39255 0,0 3.72028,-33.82843 -30.732659,-66.2167 -0.618385,-0.58133 -1.184212,-1.22786 -1.28513,-2.01851 -0.125541,-0.9813 0.183267,-1.45893 0.914559,-2.82279 0.499443,-0.93155 1.148244,-1.96013 1.766063,-2.98831 H 66.381083 L 48.988524,74.070972 h 21.807718 l 12.764543,25.633566 c 1.373331,-2.269062 2.695154,-4.351008 2.791026,-4.502245 1.186997,-2.461931 3.666227,-3.292853 4.974931,-3.524528 0.561911,-0.143314 4.594349,-0.573056 4.777818,-0.622863 0.369359,-0.01009 1.725777,-0.25837 1.663571,0.622863 0.06176,1.087727 -0.312442,1.308906 -0.622865,1.450858 -1.018706,0.616908 -2.314089,1.141873 -2.909262,3.5324 0,0 -1.63923,6.160907 -1.663572,7.056877 0,0 17.492748,11.06388 30.306908,37.77619 0,0 13.00896,-15.00003 21.50028,-41.45836 h -8.16019 l 4.41516,-25.964758 h 21.84716 l -5.06168,14.736718 10.70679,4.738765 c 0,0 0.79999,0.465268 0.83572,1.245827 -0.0363,0.60288 -0.82059,0.921654 -1.24573,1.032924 -0.58864,0.07216 -10.58807,1.076928 -10.64366,1.143287 -0.2208,-0.06611 -0.78013,0.03028 -0.83572,0.622913 0.0553,7.755994 -4.04273,20.779344 -6.58332,27.920144 -0.56703,1.66477 -1.12128,3.23699 -1.86859,4.15531 -8.51501,13.63804 -11.52463,23.59128 -7.46631,39.84986 0,0 7.98688,-18.16461 28.84831,-20.12994 0,0 0.77102,-0.9436 1.86856,-1.04079 2.73241,0.0974 3.6039,7.27159 3.52425,8.09772 0.0795,2.03512 -1.71463,2.12434 -1.6557,2.07367 -0.42738,0.0505 -1.16616,0.11809 -1.86855,-1.04074 0,0 -15.80395,4.68083 -20.34126,20.55574 -1.81499,6.35998 -5.70804,12.16034 -9.96565,15.77751 -0.83604,0.62766 -2.52561,2.28077 0,3.3195 3.40074,1.72795 5.7608,5.31621 5.81066,9.33563 -0.0484,5.79929 -4.68082,10.43869 -10.37562,10.3843 z M 101.48938,100.03573 92.572311,74.070972 h 21.847159 l 4.41516,25.964758 z m 73.92238,0 13.30853,-25.964758 h 21.79984 l -17.40834,25.964758 z"/></g></svg>