<?xml version="1.0" encoding="UTF-8" standalone="no"?>
<!DOCTYPE svg PUBLIC "-//W3C//DTD SVG 1.1//EN" "http://www.w3.org/Graphics/SVG/1.1/DTD/svg11.dtd">
<svg width="100%" height="100%" viewBox="0 0 720 667" version="1.1" xmlns="http://www.w3.org/2000/svg" xmlns:xlink="http://www.w3.org/1999/xlink" xml:space="preserve" xmlns:serif="http://www.serif.com/" style="fill-rule:evenodd;clip-rule:evenodd;stroke-linejoin:round;stroke-miterlimit:2;">
    <g id="rect3154" transform="matrix(1.44,0,0,1.334,-0.288,-0.2668)">
        <path d="M0.2,467.725C0.2,485.666 14.733,500.2 32.675,500.2L467.725,500.2C485.667,500.2 500.2,485.666 500.2,467.725L500.2,32.675C500.2,14.733 485.667,0.2 467.725,0.2L32.675,0.2C14.733,0.2 0.2,14.733 0.2,32.675L0.2,467.725Z" style="fill:rgb(205,222,67);fill-rule:nonzero;"/>
    </g>
    <g id="path2" transform="matrix(1,0,0,1,19.5,23.44)">
        <path d="M45.728,601.087C21.026,600.931 1.019,580.827 1.019,556.088C1.019,547.825 3.251,540.079 7.144,533.422L301.385,23.782C309.135,10.197 323.755,1.032 340.5,1.032C357.245,1.032 371.865,10.197 379.615,23.782L673.856,533.422C677.749,540.079 679.981,547.825 679.981,556.088C679.981,580.924 659.817,601.088 634.981,601.088L46.019,601.088L45.728,601.087Z" style="fill:rgb(227,16,23);"/>
    </g>
    <g id="path10" transform="matrix(1,0,0,1,19.5,23.44)">
        <path d="M72,541.088L340.5,76.032L609,541.088" style="fill:white;"/>
    </g>
    <g id="path16" transform="matrix(1,0,0,1,19.5,23.44)">
        <path d="M353.297,146.088C338.158,146.026 325.865,158.321 325.764,173.401C325.865,179.784 327.97,185.597 331.49,190.141C332.111,190.943 335.377,196.328 328.188,197.19C321.018,197.96 300.298,199.02 288.1,211.727C263.214,237.586 246.415,268.222 242.283,311.727C240.741,312.337 235.846,314.129 235.896,319.436C235.846,324.898 245.963,336.485 260.346,336.397C263.802,336.485 268.644,334.241 268.717,328.908C268.644,326.043 268.642,324.084 267.834,321.859C267.01,319.516 266.522,313.315 266.514,303.137C266.522,292.756 276.637,269.588 290.963,259.744C290.963,259.744 302.63,352.947 205.5,440.361C205.5,440.361 220.673,467.994 221.139,468.996C224.371,475.391 230.967,477.606 234.355,478.246C235.929,478.598 246.614,479.742 247.35,479.789C248.083,479.904 251.674,480.556 251.756,478.026C251.674,475.334 250.679,474.743 249.773,474.281C247.155,472.728 243.727,471.348 242.064,464.811C242.064,464.811 237.804,448.659 237.658,446.529C237.658,446.529 284.143,416.922 318.055,345.867C318.055,345.867 366.132,401.178 385.896,496.088L438.32,473.18C438.32,473.18 440.292,472.032 440.303,470.098C440.291,468.361 438.209,467.503 436.777,467.233C435.517,467.013 406.393,464.078 405.941,464.151C405.659,464.078 404.189,463.832 404.178,462.387C404.189,441.676 395.915,407.405 389.201,388.158C387.67,384.046 386.2,379.885 384.574,377.145C361.627,341.268 353.629,314.852 364.752,271.639C364.752,271.639 385.591,319.922 441.184,325.162C441.184,325.162 442.983,327.632 446.029,327.586C453.139,327.632 455.465,308.603 455.5,306.44C455.465,301.014 450.692,300.772 450.654,300.713C449.712,300.773 447.754,300.589 446.029,303.358C446.029,303.358 403.965,291.258 392.064,249.393C387.113,232.276 376.791,216.891 365.191,207.322C363.275,205.629 358.796,201.24 365.192,198.291C374.518,193.899 380.782,184.365 380.83,173.401C380.782,158.321 368.489,146.026 353.297,146.088Z"/>
    </g>
    <g id="rect184" transform="matrix(1,0,0,1,19.5,23.44)">
        <path d="M159.25,436.088L159.25,446.088L184.25,446.088L184.25,436.088L159.25,436.088ZM234.25,436.088L234.25,446.088L259.25,446.088L259.25,436.088L234.25,436.088ZM271.75,436.088L271.75,446.088L296.75,446.088L296.75,436.088L271.75,436.088ZM309.25,436.088L309.25,446.088L334.25,446.088L334.25,436.088L309.25,436.088ZM346.75,436.088L346.75,446.088L371.75,446.088L371.75,436.088L346.75,436.088ZM421.75,436.088L421.75,446.088L446.75,446.088L446.75,436.088L421.75,436.088ZM459.25,436.088L459.25,446.088L484.25,446.088L484.25,436.088L459.25,436.088ZM496.75,436.088L496.75,446.088L521.75,446.088L521.75,436.088L496.75,436.088ZM121.75,516.088L121.75,526.088L146.75,526.088L146.75,516.088L121.75,516.088ZM159.25,516.088L159.25,526.088L184.25,526.088L184.25,516.088L159.25,516.088ZM196.75,516.088L196.75,526.088L221.75,526.088L221.75,516.088L196.75,516.088ZM234.25,516.088L234.25,526.088L259.25,526.088L259.25,516.088L234.25,516.088ZM271.75,516.088L271.75,526.088L296.75,526.088L296.75,516.088L271.75,516.088ZM309.25,516.088L309.25,526.088L334.25,526.088L334.25,516.088L309.25,516.088ZM346.75,516.088L346.75,526.088L371.75,526.088L371.75,516.088L346.75,516.088ZM384.25,516.088L384.25,526.088L409.25,526.088L409.25,516.088L384.25,516.088ZM421.75,516.088L421.75,526.088L446.75,526.088L446.75,516.088L421.75,516.088ZM459.25,516.088L459.25,526.088L484.25,526.088L484.25,516.088L459.25,516.088ZM496.75,516.088L496.75,526.088L521.75,526.088L521.75,516.088L496.75,516.088ZM534.25,516.088L534.25,526.088L559.25,526.088L559.25,516.088L534.25,516.088Z"/>
    </g>
</svg>
