<?xml version="1.0" encoding="UTF-8" standalone="no"?><!DOCTYPE svg PUBLIC "-//W3C//DTD SVG 1.1//EN" "http://www.w3.org/Graphics/SVG/1.1/DTD/svg11.dtd"><svg width="100%" height="100%" viewBox="0 0 326 1072" version="1.1" xmlns="http://www.w3.org/2000/svg" xmlns:xlink="http://www.w3.org/1999/xlink" xml:space="preserve" xmlns:serif="http://www.serif.com/" style="fill-rule:evenodd;clip-rule:evenodd;"><g id="Layer-1" serif:id="Layer 1"><path id="rect17061" d="M-0.201,1018.79l-0,9.816l18.061,-0l-0.318,0.283l39.894,42.723l1.782,-1.681l-38.602,-41.328l19.318,0l-0.318,0.284l39.895,42.723l1.816,-1.681l-38.636,-41.328l21.763,0l-0.317,0.284l39.929,42.723l1.781,-1.681l-38.602,-41.328l19.284,0l-0.318,0.284l39.929,42.723l1.782,-1.681l-38.602,-41.328l21.728,0l-0.277,0.284l39.895,42.723l1.781,-1.682l-38.602,-41.327l21.764,-0l-0.318,0.284l39.894,42.723l1.817,-1.682l-38.602,-41.327l19.283,-0l-0.317,0.284l39.894,42.722l1.816,-1.681l-38.602,-41.327l21.729,-0l-0.317,0.284l39.929,42.722l1.781,-1.681l-38.602,-41.327l19.284,-0l-0.277,0.283l39.894,42.723l1.781,-1.681l-38.602,-41.328l21.764,0l-0.318,0.284l39.895,42.723l1.781,-1.681l-38.602,-41.328l19.319,0l-0.318,0.284l39.894,42.723l1.782,-1.681l-38.602,-41.328l19.318,0l-0.318,0.284l39.895,42.723l1.816,-1.681l-38.636,-41.328l21.763,0l-0.318,0.284l27.668,29.587l-0,-3.597l-24.559,-26.271l19.284,0l-0.318,0.284l5.589,5.972l0,-3.597l-2.48,-2.656l2.48,-0l0,-9.816l-325.054,0.02Zm-0,13.763l-0,3.598l33.117,35.458l1.781,-1.681l-34.898,-37.375Zm-0,23.651l-0,3.598l11.039,11.807l1.781,-1.681l-12.82,-13.724Z" style="fill-rule:nonzero;"/><path id="rect10211" d="M146.33,663.892l-0,48.03l-8.114,23.637l0,283.191l54.11,-0l-0,-283.191l-8.041,-23.637l0,-48.03l-37.955,-0Z" style="fill:#1b2022;fill-rule:nonzero;stroke:#000;stroke-width:1.57px;"/><rect id="rect7014" x="146.326" y="535.719" width="37.962" height="128.158" style="fill:#fff;stroke:#000;stroke-width:1.57px;"/><rect id="rect6912" x="146.326" y="407.56" width="37.962" height="128.158" style="fill:#1b2022;stroke:#000;stroke-width:1.57px;"/><rect id="rect6710" x="146.326" y="279.401" width="37.962" height="128.158" style="fill:#fff;stroke:#000;stroke-width:1.57px;"/><path id="rect3136" d="M184.288,151.242l-37.962,0l-0,128.158l37.962,0l-0,-128.158Zm-40.425,-20.364l0,20.32l42.83,-0l0,-20.32l5.634,-0l0,-21.218l-54.108,-0l0,21.218l5.644,-0Z" style="fill:#1b2022;stroke:#000;stroke-width:1.57px;"/><path id="path17152-4" d="M165.278,0.894c32.643,0 58.883,26.241 58.883,58.883c0,32.642 -26.24,58.883 -58.883,58.883c-32.642,-0 -58.882,-26.241 -58.882,-58.883c-0,-32.642 26.24,-58.883 58.882,-58.883Z" style="fill:#fcaf00;fill-rule:nonzero;stroke:#000;stroke-width:1.79px;"/></g></svg>