<?xml version="1.0" encoding="UTF-8" standalone="no"?>
<!DOCTYPE svg PUBLIC "-//W3C//DTD SVG 1.1//EN" "http://www.w3.org/Graphics/SVG/1.1/DTD/svg11.dtd">
<svg width="100%" height="100%" viewBox="0 0 539 159" version="1.1" xmlns="http://www.w3.org/2000/svg" xmlns:xlink="http://www.w3.org/1999/xlink" xml:space="preserve" xmlns:serif="http://www.serif.com/" style="fill-rule:evenodd;clip-rule:evenodd;stroke-linejoin:round;stroke-miterlimit:2;">
    <g transform="matrix(0.83192,0,0,0.39427,-10.858,-3.67026)">
        <g transform="matrix(0.987607,0,0,1.01664,5.02667,-0.711637)">
            <rect x="8.126" y="9.857" width="656.01" height="394.811" style="fill:rgb(250,230,0);"/>
        </g>
        <g transform="matrix(0.967446,0,0,0.965326,11.8033,9.92456)">
            <path d="M664.136,49.268C664.136,38.816 662.173,28.791 658.677,21.4C655.182,14.009 650.442,9.857 645.499,9.857C550.578,9.857 121.684,9.857 26.763,9.857C21.82,9.857 17.08,14.009 13.585,21.4C10.089,28.791 8.126,38.816 8.126,49.268C8.126,124.906 8.126,289.618 8.126,365.256C8.126,375.709 10.089,385.733 13.585,393.124C17.08,400.515 21.82,404.668 26.763,404.668C121.684,404.668 550.578,404.668 645.499,404.668C650.442,404.668 655.182,400.515 658.677,393.124C662.173,385.733 664.136,375.709 664.136,365.256C664.136,289.618 664.136,124.906 664.136,49.268Z"/>
        </g>
        <g transform="matrix(0.948063,0,0,0.90846,18.3186,21.7106)">
            <path d="M664.136,37.776C664.136,30.371 662.8,23.27 660.423,18.034C658.045,12.798 654.82,9.857 651.457,9.857C568.482,9.857 103.78,9.857 20.805,9.857C17.442,9.857 14.217,12.798 11.839,18.034C9.462,23.27 8.126,30.371 8.126,37.776C8.126,110.327 8.126,304.197 8.126,376.748C8.126,384.153 9.462,391.254 11.839,396.49C14.217,401.726 17.442,404.668 20.805,404.668C103.78,404.668 568.482,404.668 651.457,404.668C654.82,404.668 658.045,401.726 660.423,396.49C662.8,391.254 664.136,384.153 664.136,376.748C664.136,304.197 664.136,110.327 664.136,37.776Z" style="fill:rgb(250,230,0);"/>
        </g>
    </g>
    <g transform="matrix(1,0,0,1,-64.3679,-501.093)">
        <path id="path3002" d="M155.708,565.542C155.8,570.752 155.146,574.477 153.748,576.718C152.349,578.959 149.657,580.051 145.67,579.995L138.665,579.995L138.665,551.76C140.068,551.688 141.366,551.58 142.56,551.438C143.754,551.296 144.895,551.216 145.984,551.2C149.637,551.153 152.186,552.255 153.63,554.505C155.074,556.755 155.767,560.434 155.708,565.542ZM167.941,565.766C167.904,556.779 165.913,550.327 161.969,546.41C158.024,542.493 152.347,540.579 144.939,540.668C141.397,540.684 138.208,540.819 135.371,541.074C132.535,541.328 129.66,541.604 126.745,541.9L126.745,618.875L138.665,618.875L138.665,590.527L146.507,590.527C153.85,590.56 159.265,588.562 162.753,584.533C166.24,580.504 167.97,574.248 167.941,565.766Z" style="fill-rule:nonzero;"/>
        <path id="path3004" d="M179.638,618.875L212.888,618.875L212.888,608.007L191.558,608.007L191.558,584.141L209.96,584.141L209.96,572.936L191.558,572.936L191.558,552.544L212.156,552.544L212.156,541.452L179.638,541.452L179.638,618.875Z" style="fill-rule:nonzero;"/>
        <path id="path3006" d="M264.027,579.323C264.112,588.616 263.054,595.745 260.851,600.71C258.649,605.675 254.794,608.182 249.285,608.231L243.429,608.231L243.429,551.648C244.529,551.429 245.623,551.279 246.71,551.2C247.797,551.12 248.864,551.083 249.912,551.088C255.075,551.172 258.734,553.693 260.891,558.651C263.047,563.609 264.093,570.5 264.027,579.323ZM276.47,579.883C276.564,568.641 274.52,559.36 270.34,552.04C266.16,544.72 259.281,540.929 249.703,540.668C246.403,540.67 243.227,540.777 240.175,540.99C237.123,541.202 234.235,541.506 231.51,541.9L231.51,618.875L248.239,618.875C258.427,618.721 265.707,615.163 270.079,608.203C274.451,601.242 276.581,591.802 276.47,579.883Z" style="fill-rule:nonzero;"/>
        <path id="path3008" d="M360.997,618.875L374.067,618.875L357.86,579.547L373.021,541.452L360.056,541.452L350.75,569.127L350.437,569.127L340.922,541.452L327.434,541.452L342.49,578.763L325.552,618.875L339.04,618.875L349.809,589.407L350.123,589.407L360.997,618.875Z" style="fill-rule:nonzero;"/>
        <rect id="path3010" x="393.251" y="541.452" width="11.92" height="77.423" style="fill-rule:nonzero;"/>
        <path id="path3012" d="M465.157,618.875L476.031,618.875L476.031,541.452L464.53,541.452L464.53,590.976L464.321,590.976L441.318,541.452L429.398,541.452L429.398,618.875L440.795,618.875L440.795,568.567L441.109,568.567L465.157,618.875Z" style="fill-rule:nonzero;"/>
        <path id="path3014" d="M540.96,584.141L540.96,576.97L519.943,576.97L519.943,587.838L529.04,587.838C529.04,589.295 529.04,590.864 529.04,592.544C529.199,596.744 528.698,600.614 527.537,604.155C526.376,607.696 523.601,609.577 519.212,609.799C515.067,609.613 512.063,607.769 510.2,604.268C508.337,600.766 507.176,596.722 506.719,592.138C506.261,587.553 506.069,583.543 506.142,580.107C506.075,576.789 506.302,572.906 506.823,568.459C507.345,564.012 508.563,560.087 510.479,556.686C512.395,553.284 515.41,551.493 519.525,551.312C522.122,551.359 524.274,552.078 525.982,553.469C527.69,554.86 529.371,556.643 531.027,558.819L537.718,549.295C535.218,546.515 532.482,544.316 529.511,542.698C526.539,541.081 523.281,540.254 519.734,540.219C513.027,540.379 507.772,542.5 503.969,546.581C500.166,550.662 497.49,555.746 495.941,561.832C494.392,567.917 493.645,574.047 493.699,580.219C493.646,586.428 494.368,592.573 495.864,598.657C497.36,604.741 499.948,609.816 503.628,613.883C507.309,617.949 512.398,620.062 518.898,620.219C525.523,620.073 530.419,618.15 533.586,614.451C536.754,610.752 538.8,606.157 539.724,600.665C540.649,595.174 541.061,589.666 540.96,584.141Z" style="fill-rule:nonzero;"/>
    </g>
</svg>
