<?xml version="1.0" encoding="UTF-8" standalone="no"?>
<!-- Created with Inkscape (http://www.inkscape.org/) -->
<svg xmlns:dc="http://purl.org/dc/elements/1.1/" xmlns:cc="http://creativecommons.org/ns#" xmlns:rdf="http://www.w3.org/1999/02/22-rdf-syntax-ns#" xmlns:svg="http://www.w3.org/2000/svg" xmlns="http://www.w3.org/2000/svg" xmlns:sodipodi="http://sodipodi.sourceforge.net/DTD/sodipodi-0.dtd" xmlns:inkscape="http://www.inkscape.org/namespaces/inkscape" id="svg17624" version="1.1" inkscape:version="0.92.4 (5da689c313, 2019-01-14)" width="69.397202" height="94.470612" xml:space="preserve" sodipodi:docname="MUTCD_Sign_Assembly_-_W11-2_with_W16-9P_(fluorescent).svg"><metadata id="metadata17630"><rdf:RDF><cc:Work rdf:about=""><dc:format>image/svg+xml</dc:format><dc:type rdf:resource="http://purl.org/dc/dcmitype/StillImage"/><dc:title/></cc:Work></rdf:RDF></metadata><defs id="defs17628"><inkscape:perspective sodipodi:type="inkscape:persp3d" inkscape:vp_x="0 : 0.5 : 1" inkscape:vp_y="0 : 1000 : 0" inkscape:vp_z="1 : 0.5 : 1" inkscape:persp3d-origin="0.5 : 0.33333333 : 1" id="perspective17632"/><clipPath clipPathUnits="userSpaceOnUse" id="clipPath17642"><path d="m -2,710 501,0 0,-711 -501,0 0,711 z" id="path17644" inkscape:connector-curvature="0"/></clipPath><clipPath clipPathUnits="userSpaceOnUse" id="clipPath17648"><path d="m 0,708.06 498,0 0,-708 -498,0 0,708 z" id="path17650" inkscape:connector-curvature="0"/></clipPath><clipPath clipPathUnits="userSpaceOnUse" id="clipPath17798"><path d="m -2,710 501,0 0,-711 -501,0 0,711 z" id="path17800" inkscape:connector-curvature="0"/></clipPath><clipPath clipPathUnits="userSpaceOnUse" id="clipPath17804"><path d="m 0,708.06 498,0 0,-708 -498,0 0,708 z" id="path17806" inkscape:connector-curvature="0"/></clipPath><clipPath id="Clip0"><path inkscape:connector-curvature="0" d="m 0,0 212.597,0 0,269.292 L 0,269.292 0,0 z" transform="translate(0.923828,0.879883)" id="path7"/></clipPath></defs><sodipodi:namedview pagecolor="#ffffff" bordercolor="#666666" borderopacity="1" objecttolerance="10" gridtolerance="10" guidetolerance="10" inkscape:pageopacity="0" inkscape:pageshadow="2" inkscape:window-width="1920" inkscape:window-height="1057" id="namedview17626" showgrid="false" inkscape:zoom="6.3046875" inkscape:cx="70.384762" inkscape:cy="29.105814" inkscape:window-x="-8" inkscape:window-y="-8" inkscape:window-maximized="1" inkscape:current-layer="g17634" fit-margin-top="0.1" fit-margin-left="0.1" fit-margin-right="0.1" fit-margin-bottom="0.1" showguides="true" inkscape:guide-bbox="true"/><g id="g17634" inkscape:groupmode="layer" inkscape:label="GG1999P002" transform="matrix(1.25,0,0,-1.25,108.09462,110.93588)"><path inkscape:connector-curvature="0" d="m -85.605199,62.903957 24.97401,24.975001 c 1.052999,1.053 2.775999,1.053 3.827999,0 l 24.977,-24.975001 c 1.051,-1.052 1.051,-2.775 0,-3.828 l -24.977,-24.97399 c -1.052,-1.053 -2.775,-1.053 -3.827999,0 l -24.97401,24.97399 c -1.054,1.053 -1.054,2.776 0,3.828" style="fill:#cdff00;fill-opacity:1;fill-rule:nonzero;stroke:none" id="path3915"/><path inkscape:connector-curvature="0" d="m -84.881199,62.669957 24.48501,24.484001 c 0.922999,0.924 2.432999,0.924 3.358999,0 l 24.485,-24.484001 c 0.924,-0.924 0.924,-2.436 0,-3.358 l -24.485,-24.48599 c -0.926,-0.922 -2.436,-0.922 -3.358999,0 l -24.48501,24.48599 c -0.924,0.922 -0.924,2.434 0,3.358" style="fill:#000000;fill-opacity:1;fill-rule:evenodd;stroke:none" id="path3923"/><path inkscape:connector-curvature="0" d="m -83.924199,62.026957 24.172001,24.170001 c 0.569,0.571 1.5,0.571 2.071,0 l 24.172,-24.170001 c 0.57,-0.57 0.57,-1.502 0,-2.072 l -24.172,-24.17199 c -0.571,-0.57 -1.502,-0.57 -2.071,0 l -24.172001,24.17199 c -0.57,0.57 -0.57,1.502 0,2.072" style="fill:#cdff00;fill-opacity:1;fill-rule:evenodd;stroke:none" id="path3927"/><path inkscape:connector-curvature="0" d="m -49.26919,47.339957 -4.866,14.506 c 0.162,0.605 0.27,1.216 0.336,1.84 0.045,0.429 -0.006,0.863 -0.056,1.291 -0.057,0.466 -0.118,0.939 -0.28,1.384 l -1.505,4.069 2.212,-0.088 1.149,-7.076 1.502,-0.27 -0.439,8.584 -7.786,3.889 c -0.338,0.17 -0.981999,0.209 -1.343999,0.172 -0.689,-0.071 -1.57201,-0.547 -1.92901,-1.143 -0.178,-0.293 -0.289,-0.635 -0.426,-0.951 -0.391,-0.914 -0.74,-1.85 -1.053,-2.793 -0.234,-0.723 -0.451,-1.449 -0.644,-2.182 l -5.66,-3.982 0.972,-1.412 5.746,2.119 1.684,2.834 2.211009,-4.428 -3.096009,-6.103 -2.474,-11.235 2.828,-0.707 2.656009,9.998 2.299,2.563 2.388,-5.217 3.362,-7.518 2.213,1.856 z" style="fill:#000000;fill-opacity:1;fill-rule:evenodd;stroke:none" id="path3931"/><path inkscape:connector-curvature="0" d="m -62.627199,75.382957 c 0.608,-0.016 1.252,0.314 1.65801,0.74 0.637,0.666 0.809,1.691 0.487,2.549 -0.332,0.883001 -1.20501,1.480001 -2.14501,1.488001 -0.806,0.006 -1.578,-0.41 -2.017,-1.086 -0.489,-0.752001 -0.502,-1.804001 -0.016,-2.562001 0.447,-0.692 1.213,-1.108 2.033,-1.129" style="fill:#000000;fill-opacity:1;fill-rule:evenodd;stroke:none" id="path3935"/><path inkscape:connector-curvature="0" d="m -75.100296,32.912214 32.766001,0 c 1.804,0 3.277,-1.433 3.277,-3.193 l 0,-13.274998 c 0,-1.758 -1.473,-3.192 -3.277,-3.192 l -32.766001,0 c -1.805,0 -3.277,1.434 -3.277,3.192 l 0,13.274998 c 0,1.76 1.472,3.193 3.277,3.193" style="fill:#cdff00;fill-opacity:1;fill-rule:nonzero;stroke:none" id="path4359"/><path inkscape:connector-curvature="0" d="m -42.342287,32.256214 c 1.424,-0.035 2.592,-1.097 2.629,-2.545 0.006,-0.224 0,-0.451 0,-0.674 0,-1.396 -0.002,-9.815998 -0.004,-12.629998 0,-1.442 -1.293,-2.496 -2.67,-2.496 0,0 -23.323009,-0.002 -29.849009,-0.002 -1.823,-0.002 -4.584,-0.459 -5.348,1.730001 -0.277,0.796999 -0.138,1.822 -0.138,2.647999 0.002,1.639 0.003,8.173998 0.004,9.804998 0,1.074 -0.161,2.213 0.513,3.135 1.166,1.445 3.511,1.025 5.156,1.025 6.585,0.002 26.390009,0.004 29.707009,0.004" style="fill:#000000;fill-opacity:1;fill-rule:evenodd;stroke:none" id="path4367" sodipodi:nodetypes="ccscsccccccc"/><path inkscape:connector-curvature="0" d="m -75.100296,31.274214 32.766001,0 c 0.902,0 1.638,-0.737 1.638,-1.639 l 0,-13.104998 c 0,-0.903 -0.736,-1.639 -1.638,-1.639 l -32.766001,0 c -0.903,0 -1.639,0.736 -1.639,1.639 l 0,13.104998 c 0,0.902 0.736,1.639 1.639,1.639" style="fill:#cdff00;fill-opacity:1;fill-rule:evenodd;stroke:none" id="path4371"/><path inkscape:connector-curvature="0" d="m -45.725295,22.549216 c 0,-0.875 -0.205,-1.586 -0.596,-1.976 -0.183,-0.184 -0.39,-0.254 -0.736,-0.254 l -1.033,0 0,4.458998 1.172,0 c 0.275,0 0.506,-0.116 0.666,-0.276 0.322,-0.345 0.527,-1.079998 0.527,-1.952998 m 1.059,0 c 0,1.287 -0.391,2.320998 -1.08,2.917998 -0.346,0.276 -0.598,0.346 -1.264,0.346 l -2.115,0 0,-6.550998 2,0 0.367,0 c 0.346,0.024 0.689,0.139 0.943,0.369 0.735,0.574 1.149,1.608 1.149,2.918 m -7.561,-0.39 -1.31,0 0.666,1.836998 0.644,-1.836998 z m 2.113,-2.897 -2.252,6.550998 -1.033,0 -2.253,-6.550998 1.104,0 0.643,1.84 2.045,0 0.645,-1.84 1.101,0 z m -6.043,0 0,1.057 -3.034,0 0,1.793 1.908,0 0,1.058 -1.908,0 0,1.607998 2.827,0 0,1.035 -3.860001,0 0,-6.550997 4.067001,0 z m -5.608001,0 0,6.550998 -1.034,0 0,-2.642998 -2.389,0 0,2.642998 -1.036,0 0,-6.550998 1.036,0 0,2.85 2.389,0 0,-2.85 1.034,0 z m -7.56,2.897 -1.31,0 0.666,1.836998 0.644,-1.836998 z m 2.114,-2.897 -2.253,6.550998 -1.033,0 -2.253,-6.550998 1.105,0 0.642,1.84 2.045,0 0.645,-1.84 1.102,0 z" style="fill:#000000;fill-opacity:1;fill-rule:evenodd;stroke:none" id="path4375"/></g></svg>