<?xml version="1.0" encoding="UTF-8" standalone="no"?>
<!DOCTYPE svg PUBLIC "-//W3C//DTD SVG 1.1//EN" "http://www.w3.org/Graphics/SVG/1.1/DTD/svg11.dtd">
<!-- GeoHints -->
<svg width="100%" height="100%" viewBox="0 0 2896 2896" version="1.1" xmlns="http://www.w3.org/2000/svg" xmlns:xlink="http://www.w3.org/1999/xlink" xml:space="preserve" xmlns:serif="http://www.serif.com/" style="fill-rule:evenodd;clip-rule:evenodd;stroke-linejoin:round;stroke-miterlimit:2;">
    <g>
        <path d="M1547.78,44.475C1492.46,-10.838 1402.65,-10.837 1347.33,44.48L44.476,1347.34C-10.837,1402.65 -10.837,1492.46 44.476,1547.78L1347.34,2850.64C1402.65,2905.95 1492.46,2905.95 1547.78,2850.64L2850.63,1547.78C2905.95,1492.46 2905.95,1402.65 2850.64,1347.34L1547.78,44.475Z" style="fill:rgb(255,215,0);"/>
        <path d="M1527.73,64.521C1483.48,20.271 1411.63,20.273 1367.38,64.524L64.52,1367.38C20.269,1411.63 20.27,1483.48 64.52,1527.73L1367.38,2830.59C1411.62,2874.84 1483.48,2874.84 1527.73,2830.59L2830.59,1527.73C2874.84,1483.48 2874.84,1411.63 2830.59,1367.38L1527.73,64.521Z"/>
        <path d="M1487.64,104.607C1465.52,82.482 1429.59,82.487 1407.46,104.612L104.608,1407.47C82.483,1429.59 82.483,1465.52 104.608,1487.64L1407.47,2790.51C1429.6,2812.63 1465.52,2812.63 1487.64,2790.5L2790.5,1487.65C2812.62,1465.52 2812.63,1429.59 2790.51,1407.47L1487.64,104.607Z" style="fill:rgb(255,215,0);"/>
    </g>
    <g>
        <path d="M1434.33,441.238C1511.9,424.236 1594.4,485.505 1603.31,563.748C1621.5,637.486 1551.24,713.733 1477.34,709.073C1419.95,713.126 1354.85,680.888 1337.24,623.58C1303.67,548.842 1357.26,458.82 1434.33,441.238Z" style="fill-rule:nonzero;"/>
        <path d="M1372.92,834.343C1453.03,814.887 1537.66,824.268 1618.92,809.425C1659.34,797.245 1698.57,811.598 1725.4,842.837C1814.1,935.439 1900.28,1030.98 1985.32,1127.01C1990.87,1163.44 2034.78,1472.12 2035.08,1481.92C2004.19,1482.14 1931.24,1496.63 1924.35,1495.47C1906.51,1463.16 1863.59,1216.69 1850.46,1164C1836.05,1151.96 1753.07,1082.31 1731.45,1058.35C1725.66,1058.5 1719.84,1058.7 1714.06,1058.89C1705.36,1143.64 1674.37,1435.71 1675.9,1454.55C1674.44,1449.95 1675.74,1724.08 1692.73,1864.06C1693.36,1855.26 1793.9,2322.68 1802.91,2344.67C1754.32,2363.79 1701.55,2371.09 1651.59,2386.62C1628.02,2346.93 1574.32,2088.78 1538.44,2010.37C1499.43,1883.58 1489.64,1750.34 1459.58,1621.35C1452.93,1622.11 1446.33,1622.87 1439.77,1623.66C1381.63,1695.83 1326.6,1772.44 1296.07,1860.85C1254.82,2006.49 1188.04,2332.13 1172.51,2327.24C1118.22,2319.39 1066.06,2300.54 1011.61,2293.47C1043.49,2137.81 1094.76,1986.29 1120.42,1829.27C1184.94,1660.1 1292.89,1512.57 1361.63,1345.78C1392.32,1286.18 1354.38,1225.37 1332.92,1170.02C1327.33,1170.04 1321.74,1170.11 1316.19,1170.13C1280.99,1206.65 1251.27,1247.69 1220.21,1287.59C1152.62,1349.75 1087.13,1414.46 1022.09,1479.4C1008.35,1496.07 940.045,1433.72 933.738,1410.2C990.163,1330.79 1073.1,1272.53 1125.78,1189.51C1164.68,1123.28 1216.91,1066.48 1255.74,1000.38C1301.22,949.73 1325.46,883.232 1372.92,834.343Z" style="fill-rule:nonzero;"/>
    </g>
</svg>
