<?xml version="1.0" encoding="UTF-8" standalone="no"?>
<!DOCTYPE svg PUBLIC "-//W3C//DTD SVG 1.1//EN" "http://www.w3.org/Graphics/SVG/1.1/DTD/svg11.dtd">
<!-- GeoHints -->
<svg width="100%" height="100%" viewBox="0 0 366 364" version="1.1" xmlns="http://www.w3.org/2000/svg" xmlns:xlink="http://www.w3.org/1999/xlink" xml:space="preserve" xmlns:serif="http://www.serif.com/" style="fill-rule:evenodd;clip-rule:evenodd;stroke-linejoin:round;stroke-miterlimit:2;">
    <g transform="matrix(0.666375,0.666375,-0.666375,0.666375,219.82,-87.3894)">
        <path d="M316.287,104.873C316.287,100.651 314.61,96.603 311.625,93.618C308.64,90.633 304.591,88.956 300.37,88.956L49.099,88.956C44.877,88.956 40.829,90.633 37.844,93.618C34.859,96.603 33.182,100.651 33.182,104.873L33.182,356.144C33.182,360.365 34.859,364.414 37.844,367.399C40.829,370.384 44.877,372.061 49.099,372.061L295.064,372.061C306.785,372.061 316.287,362.559 316.287,350.838L316.287,104.873Z" style="fill:rgb(255,219,0);"/>
    </g>
    <g transform="matrix(1,0,0,1,-6,-5.75404)">
        <path d="M359.569,199.015C365.427,193.157 365.427,183.659 359.569,177.802C327.435,145.668 231.394,49.627 199.261,17.494C193.403,11.636 183.905,11.636 178.048,17.494C145.914,49.627 49.873,145.668 17.74,177.802C11.882,183.659 11.882,193.157 17.74,199.015C49.873,231.148 145.914,327.189 178.048,359.323C183.905,365.181 193.403,365.181 199.261,359.323C231.394,327.189 327.435,231.148 359.569,199.015ZM353.758,195.495C357.663,191.59 357.663,185.259 353.758,181.353C325.863,153.459 223.62,51.215 195.725,23.321C191.82,19.416 185.488,19.416 181.583,23.321C153.688,51.215 51.445,153.459 23.551,181.353C19.645,185.259 19.645,191.59 23.551,195.495C51.445,223.39 153.688,325.633 181.583,353.528C185.488,357.433 191.82,357.433 195.725,353.528C223.62,325.633 325.863,223.39 353.758,195.495Z"/>
    </g>
    <path d="M155.4,71.7C163.68,70.19 175.46,68.83 180.53,77.2C183.5,85.69 180.55,94.87 181.28,103.66C212.98,110.44 234.75,141.81 239.56,172.28C248.19,177.96 243.93,191.52 233.2,189.6C232.18,187.88 231.17,186.16 230.18,184.43C229.47,184.4 228.06,184.32 227.36,184.29C227.36,180.21 230.3,175.64 227.17,172.09C218.66,157.89 213.44,139.2 197.18,131.85C198.81,143.63 204.59,154.36 206.75,166.05C209.72,175.47 207.59,185.4 209.27,195C209.87,221.54 220.22,246.59 231.62,270.15C234.76,275.2 226.99,275.91 224.12,278.22C213.71,277.81 206.87,288.34 196.74,288.65C195.85,285.74 195.43,282.72 195.34,279.69C199.13,274.72 205.26,272.54 209.5,268.03C209.45,266.72 209.41,265.41 209.37,264.11C195.92,246.14 190.88,223.92 186.33,202.41C185.34,202.38 184.36,202.35 183.38,202.31C170.47,225.86 157.78,249.54 144.42,272.84C140.88,272.31 137.44,271.32 134.06,270.16C128.48,264.76 119.99,264.93 113.5,261.18C115.17,246.5 134.65,263.15 137.54,250.39C146.53,228.29 158.12,207.04 163.64,183.69C165.535,178.104 159.648,156.161 159.6,152.46C158.85,147.85 158.34,143.19 158.52,138.52C157.98,138.46 156.9,138.34 156.36,138.28C147.62,152.14 136.26,169.08 119.13,171.73C116.35,175.27 112.52,178.01 107.8,177.7C103.88,175.34 101.42,171.35 102.34,166.68C104.35,164.74 106.2,162.65 107.92,160.46C110.38,161.01 112.84,161.53 115.34,161.83C115.94,160.67 116.36,159.38 117.14,158.33C139.6,146.88 142.05,115.33 166.47,106.23C166.53,104.65 166.58,103.07 166.64,101.5C163.66,101.47 160.68,101.16 157.82,100.31C153.14,94.39 159.63,86.42 154.85,80.43C152.32,77.73 151.55,73.61 155.4,71.7Z" style="fill-rule:nonzero;"/>
</svg>
