<?xml version="1.0" encoding="UTF-8" standalone="no"?>
<!DOCTYPE svg PUBLIC "-//W3C//DTD SVG 1.1//EN" "http://www.w3.org/Graphics/SVG/1.1/DTD/svg11.dtd">
<!-- GeoHints -->
<svg width="100%" height="100%" viewBox="0 0 1005 1005" version="1.1" xmlns="http://www.w3.org/2000/svg" xmlns:xlink="http://www.w3.org/1999/xlink" xml:space="preserve" xmlns:serif="http://www.serif.com/" style="fill-rule:evenodd;clip-rule:evenodd;stroke-linejoin:round;stroke-miterlimit:2;">
    <g>
        <path d="M1001.22,708.796L708.898,1001.12L295.512,1001.12L3.189,708.796L3.189,295.415L295.512,3.092L708.898,3.092L1001.22,295.415L1001.22,708.796Z" style="fill:white;fill-rule:nonzero;"/>
        <path d="M964.319,693.514L693.616,964.217L310.801,964.217L40.095,693.514L40.095,310.705L310.801,39.998L693.616,39.998L964.319,310.705L964.319,693.514Z" style="fill:rgb(217,35,28);fill-rule:nonzero;"/>
        <g transform="matrix(0.252989,0,0,0.252989,-30.0433,-30.0434)">
            <path d="M1190.64,2930.38L1118.12,2526.37L765.271,2526.37L692.768,2930.38L494.583,2930.38L834.545,1277.13L1056.9,1277.13L1395.27,2930.38L1190.64,2930.38ZM939.281,1534.92L799.101,2305.79L1081.06,2305.79L939.281,1534.92ZM1533.83,2930.39L1533.83,1277.13L1732,1277.13L1732,2685L2070.36,2685L2070.36,2930.39L1533.83,2930.39ZM2550.49,1522.51L2550.49,2930.38L2353.94,2930.38L2353.94,1522.51L2120.3,1522.51L2120.3,1277.12L2784.12,1277.12L2784.12,1522.51L2550.49,1522.51ZM3296.49,2957.66C2975.86,2957.66 2880.82,2518.94 2880.82,2104.99C2880.82,1698.5 2991.96,1252.35 3296.49,1252.35C3621.97,1252.35 3715.42,1693.55 3715.42,2104.99C3715.42,2518.94 3604.24,2957.66 3296.49,2957.66ZM3296.49,1480.38C3111.21,1480.38 3083.81,1849.71 3083.81,2104.99C3083.81,2397.47 3119.25,2729.6 3296.49,2729.6C3488.24,2729.6 3510.79,2357.83 3510.79,2104.99C3510.79,1844.72 3491.47,1480.38 3296.49,1480.38Z" style="fill:white;fill-rule:nonzero;"/>
        </g>
    </g>
</svg>
