<?xml version="1.0" encoding="UTF-8" standalone="no"?>
<!-- Created with Inkscape (http://www.inkscape.org/) -->
<svg xmlns:dc="http://purl.org/dc/elements/1.1/" xmlns:cc="http://creativecommons.org/ns#" xmlns:rdf="http://www.w3.org/1999/02/22-rdf-syntax-ns#" xmlns:svg="http://www.w3.org/2000/svg" xmlns="http://www.w3.org/2000/svg" xmlns:sodipodi="http://sodipodi.sourceforge.net/DTD/sodipodi-0.dtd" xmlns:inkscape="http://www.inkscape.org/namespaces/inkscape" width="238.12502mm" height="238.12502mm" viewBox="0 0 238.12502 238.12502" version="1.1" id="svg8" inkscape:version="0.92.4 (5da689c313, 2019-01-14)" sodipodi:docname="Argentina MSV 2017 road sign R-27.svg">
  <defs id="defs2"/>
  <sodipodi:namedview id="base" pagecolor="#ffffff" bordercolor="#666666" borderopacity="1.0" inkscape:pageopacity="0.0" inkscape:pageshadow="2" inkscape:zoom="0.35" inkscape:cx="633.89436" inkscape:cy="452.89459" inkscape:document-units="mm" inkscape:current-layer="layer1" showgrid="true" inkscape:window-width="1366" inkscape:window-height="705" inkscape:window-x="-8" inkscape:window-y="-8" inkscape:window-maximized="1">
    <inkscape:grid type="xygrid" id="grid861" originx="4.0445887e-06" originy="4.0445887e-06"/>
  </sodipodi:namedview>
  <metadata id="metadata5">
    <rdf:RDF>
      <cc:Work rdf:about="">
        <dc:format>image/svg+xml</dc:format>
        <dc:type rdf:resource="http://purl.org/dc/dcmitype/StillImage"/>
        <dc:title/>
      </cc:Work>
    </rdf:RDF>
  </metadata>
  <g inkscape:label="Livello 1" inkscape:groupmode="layer" id="layer1" transform="translate(4.0445886e-6,-58.874996)">
    <g id="g1089">
      <path inkscape:transform-center-x="-1.0289133e-06" inkscape:transform-center-y="-3.7168853e-06" d="m 69.539032,59.08116 98.549208,-0.206164 69.8306,69.539034 0.20616,98.54921 -69.53903,69.8306 L 70.036757,297 0.20616037,227.46097 -4.0445886e-6,128.91176 Z" inkscape:randomized="0" inkscape:rounded="0" inkscape:flatsided="true" sodipodi:arg2="-1.5728884" sodipodi:arg1="-1.9655874" sodipodi:r2="118.95967" sodipodi:r1="128.76103" sodipodi:cy="177.9375" sodipodi:cx="119.0625" sodipodi:sides="8" id="path872" style="opacity:1;fill:#ca252c;fill-opacity:1;fill-rule:nonzero;stroke:none;stroke-width:0.99010116;stroke-linecap:butt;stroke-linejoin:round;stroke-miterlimit:4;stroke-dasharray:none;stroke-dashoffset:0;stroke-opacity:1;paint-order:markers fill stroke" sodipodi:type="star"/>
      <path inkscape:transform-center-x="1.2078119e-06" inkscape:transform-center-y="-1.3606942e-06" d="m 71.740081,64.363646 94.169249,-0.197001 66.72702,66.448415 0.197,94.16925 -66.44842,66.72701 -94.169245,0.197 L 5.4886693,225.25991 5.2916678,131.09066 Z" inkscape:randomized="0" inkscape:rounded="0" inkscape:flatsided="true" sodipodi:arg2="-1.5728884" sodipodi:arg1="-1.9655874" sodipodi:r2="113.67256" sodipodi:r1="123.03832" sodipodi:cy="177.93748" sodipodi:cx="119.06251" sodipodi:sides="8" id="path872-4" style="opacity:1;fill:#ffffff;fill-opacity:1;fill-rule:nonzero;stroke:none;stroke-width:0.94609654;stroke-linecap:butt;stroke-linejoin:round;stroke-miterlimit:4;stroke-dasharray:none;stroke-dashoffset:0;stroke-opacity:1;paint-order:markers fill stroke" sodipodi:type="star"/>
      <path inkscape:transform-center-y="-2.7410939e-06" d="m 73.941114,69.646192 89.789276,-0.187838 63.62343,63.357786 0.18783,89.78927 -63.35778,63.62343 -89.789274,0.18784 -63.623427,-63.35779 -0.187838,-89.78927 z" inkscape:randomized="0" inkscape:rounded="0" inkscape:flatsided="true" sodipodi:arg2="-1.5728884" sodipodi:arg1="-1.9655874" sodipodi:r2="108.38546" sodipodi:r1="117.3156" sodipodi:cy="177.93752" sodipodi:cx="119.06249" sodipodi:sides="8" id="path872-4-1" style="opacity:1;fill:#ca252c;fill-opacity:1;fill-rule:nonzero;stroke:none;stroke-width:0.90209198;stroke-linecap:butt;stroke-linejoin:round;stroke-miterlimit:4;stroke-dasharray:none;stroke-dashoffset:0;stroke-opacity:1;paint-order:markers fill stroke" sodipodi:type="star"/>
      <g style="fill:#ffffff;stroke:none" transform="matrix(0.93103388,0,0,0.93103388,27.918217,-172.48035)" id="g1070">
        <path inkscape:connector-curvature="0" style="fill:#ffffff;fill-opacity:1;stroke:none;stroke-width:0.99999994px;stroke-linecap:butt;stroke-linejoin:miter;stroke-opacity:1" d="m -5,1277.5195 v 290 h 40 v -125 h 55 c 85,-5 85,-160 0,-165 z m 40,40 h 50 c 40,10 40,75 0,85 H 35 Z" transform="scale(0.26458333)" id="path1036"/>
        <path inkscape:connector-curvature="0" style="fill:#ffffff;fill-opacity:1;stroke:none;stroke-width:0.99999994px;stroke-linecap:butt;stroke-linejoin:miter;stroke-opacity:1" d="m 245,1277.5195 -75,290 h 40 l 20,-80 h 65 l 20,80 h 40 l -75,-290 z m 15,95 h 5 l 20,75 h -45 z" transform="scale(0.26458333)" id="path1041"/>
        <path inkscape:connector-curvature="0" style="fill:#ffffff;fill-opacity:1;stroke:none;stroke-width:0.99999994px;stroke-linecap:butt;stroke-linejoin:miter;stroke-opacity:1" d="m 395,1277.5195 v 290 h 40 v -135 h 39 l 36,135 h 45 L 512.55664,1426.0391 C 574.4583,1394.83 568.24233,1295.9295 490,1277.5195 Z m 40,40 h 50 c 40.00003,10 39.99999,65 0,75 h -50 z" transform="scale(0.26458333)" id="path1036-3"/>
        <path style="fill:#ffffff;stroke:none;stroke-width:0.26458332px;stroke-linecap:butt;stroke-linejoin:miter;stroke-opacity:1" d="M 197.11458,414.73958 H 158.75 v -76.72916 h 35.71875 v 10.58333 h -25.13542 v 19.84375 h 15.875 v 10.58333 h -15.875 v 25.13542 h 27.78125 z" id="path1064" inkscape:connector-curvature="0"/>
      </g>
    </g>
  </g>
</svg>