<?xml version="1.0" encoding="UTF-8" standalone="no"?><!DOCTYPE svg PUBLIC "-//W3C//DTD SVG 1.1//EN" "http://www.w3.org/Graphics/SVG/1.1/DTD/svg11.dtd"><svg width="100%" height="100%" viewBox="0 0 4210 4211" version="1.1" xmlns="http://www.w3.org/2000/svg" xmlns:xlink="http://www.w3.org/1999/xlink" xml:space="preserve" xmlns:serif="http://www.serif.com/" style="fill-rule:evenodd;clip-rule:evenodd;stroke-linejoin:round;stroke-miterlimit:2;"><g id="Layer-1" serif:id="Layer 1"><path id="path3942" d="M1242.06,4188.33l-1220.39,-1220.39l0,-1725.89l1220.39,-1220.39l1725.89,0.001l1220.39,1220.39l-0.001,1725.89l-1220.39,1220.39l-1725.89,-0.001Z" style="fill:#fff;fill-rule:nonzero;"/><path id="path3944" d="M1280.2,4096.25l-1166.45,-1166.45l0,-1649.61l1166.45,-1166.45l1649.61,0.001l1166.45,1166.45l-0.001,1649.61l-1166.45,1166.45l-1649.6,0Z" style="fill:#c0111e;fill-rule:nonzero;"/><path id="path3343" d="M558.939,2186.11l136.225,-0l-68.56,-279.998l-67.665,279.998Zm-258.564,442.441l252.384,-1047.09l147.139,0l257.065,1047.09l-150.873,0l-73.74,-294.172l-208.387,0l-72.347,294.172l-151.241,0Zm951.707,-637.654l188.058,0c54.806,-12.386 88.915,-49.729 88.915,-129.729c-0,-97.329 -44.155,-132.043 -98.855,-132.043l-178.118,-0l-0,261.772Zm-147.56,637.654l0,-1043.93l360.654,0c63.8,5.839 207.52,65.43 207.52,270.162c-0,142.589 -50.256,212.832 -141.459,256.987l148.69,516.786l-154.002,0l-140.774,-490.515l-130.361,0l0,490.515l-150.268,0Zm953.706,-637.654l187.796,0c54.884,-12.386 89.02,-49.729 89.02,-129.729c-0,-97.329 -44.156,-132.043 -98.883,-132.043l-177.933,-0l-0,261.772Zm-147.638,637.654l-0,-1043.93l360.575,0c63.799,5.839 207.493,65.43 207.493,270.162c-0,142.589 -50.256,212.832 -141.432,256.987l148.585,516.786l-153.924,0l-140.853,-490.515l-130.176,0l-0,490.515l-150.268,0Zm816.086,0l0,-1046.04l507.267,0l0,148.191l-359.181,-0l-0,261.772l220.432,0l-0,145.982l-220.879,0l-0,342.43l374.303,-0l-0,147.664l-521.942,0Zm847.33,0l-0,-914.626l-187.428,-0l0,-132.465l523.046,0l-0,132.465l-187.349,-0l0,914.626l-148.269,0Zm-691.644,-1266.73l198.946,0l90.493,140.407l-139.618,-0l-49.23,-67.876l-50.335,69.875l-147.297,-0l97.041,-142.406Z" style="fill:#fff;"/></g></svg>