<?xml version="1.0" encoding="UTF-8" standalone="no"?>
<!-- Created with Inkscape (http://www.inkscape.org/) -->
<svg xmlns:svg="http://www.w3.org/2000/svg" xmlns="http://www.w3.org/2000/svg" version="1.0" width="470.00003" height="470.00003" id="svg26752">
  <defs id="defs26754"/>
  <g transform="translate(-211.6813,-130.4277)" id="layer1">
    <g transform="matrix(6.372724,0,0,-6.371225,-1196.003,3821.126)" id="g26397">
        <path d="M 226.604,506.257 C 223.864,506.257 221.642,508.479 221.642,511.219 L 221.642,573.565 C 221.642,576.305 223.864,578.526 226.604,578.526 L 288.932,578.526 C 291.673,578.526 293.894,576.305 293.894,573.565 L 293.894,511.219 C 293.894,508.479 291.673,506.257 288.932,506.257 L 226.604,506.257 z " style="fill:#176fc1;fill-rule:nonzero;stroke:#176fc1;stroke-width:1.5;stroke-linecap:butt;stroke-linejoin:miter;stroke-miterlimit:4" id="path26399"/>

      </g>
    <path d="M 445.2072,180.75101 L 385.8347,243.28514 L 385.8347,321.05805 L 445.2072,258.89324 L 445.2072,558.50313 L 499.17294,558.50313 L 499.17294,180.75101 L 445.2072,180.75101" style="fill:white;fill-rule:nonzero;stroke:none" id="path26401"/>
  </g>
</svg>