<?xml version="1.0" encoding="UTF-8" standalone="no"?>
<!DOCTYPE svg PUBLIC "-//W3C//DTD SVG 1.1//EN" "http://www.w3.org/Graphics/SVG/1.1/DTD/svg11.dtd">
<!-- GeoHints -->
<svg width="100%" height="100%" viewBox="0 0 103 68" version="1.1" xmlns="http://www.w3.org/2000/svg" xmlns:xlink="http://www.w3.org/1999/xlink" xml:space="preserve" xmlns:serif="http://www.serif.com/" style="fill-rule:evenodd;clip-rule:evenodd;stroke-linejoin:round;stroke-miterlimit:2;">
    <path d="M0.1,33.974L0.1,7.535C0.1,3.4 3.475,0.06 7.493,0.06L94.877,0.06C99.016,0.06 102.39,3.399 102.39,7.535L102.471,33.974L102.552,59.936C102.552,64.071 98.976,67.53 94.837,67.53L7.493,67.53C3.435,67.53 0.06,64.19 0.06,60.135L0.06,33.815L0.1,33.974Z" style="fill:rgb(0,166,80);fill-rule:nonzero;"/>
    <path d="M95.02,1.89C98.016,1.965 100.663,4.402 100.663,7.495L100.663,33.854L100.623,33.854L100.663,60.015C100.663,63.053 98.014,65.699 94.949,65.741L94.877,65.741L7.493,65.741C4.439,65.741 1.948,63.077 1.948,60.015L1.988,34.014L1.988,7.137C1.988,4.234 4.278,1.888 7.171,1.888L94.877,1.888L95.02,1.89ZM98.976,33.815L99.016,59.975C99.016,62.123 97.087,63.992 94.958,63.992L7.572,63.992C5.443,63.992 3.635,62.203 3.635,60.055L3.635,33.974L3.675,7.535C3.675,5.388 5.483,3.598 7.612,3.598L95.038,3.598C97.167,3.598 98.895,5.427 98.895,7.575L98.976,33.815Z" style="fill:white;"/>
    <path d="M82.656,11.271C88.889,11.31 93.913,16.305 93.913,22.483L93.913,45.147C93.913,51.324 88.889,56.319 82.656,56.358L82.583,56.358C76.316,56.358 71.254,51.348 71.254,45.147L71.254,22.483C71.254,16.28 76.316,11.271 82.583,11.271L82.656,11.271ZM87.726,45.86C87.726,48.682 85.396,50.948 82.583,50.948C79.73,50.948 77.44,48.682 77.44,45.86L77.44,21.884C77.44,19.062 79.77,16.796 82.583,16.796C85.436,16.796 87.726,19.062 87.726,21.884L87.726,45.86Z" style="fill:white;"/>
    <path d="M62.375,55.919L56.106,55.919L56.106,48.206L39.112,48.206L39.112,42.401L54.259,11.707L62.214,11.707L62.214,42.6L64.504,42.6L64.504,47.887L62.375,47.887L62.375,55.919ZM56.269,23.555L56.269,42.401L46.866,42.401L56.269,23.555Z" style="fill:white;"/>
    <path d="M29.831,17.156L14.965,17.156L14.965,30.396L24.447,30.396L24.447,36.121L15.166,36.081L15.166,50.354L29.75,50.354L29.75,55.721L8.698,55.721L8.698,11.908L29.831,11.908L29.831,17.156Z" style="fill:white;fill-rule:nonzero;"/>
</svg>
