<?xml version="1.0" encoding="UTF-8" standalone="no"?>
<!DOCTYPE svg PUBLIC "-//W3C//DTD SVG 1.1//EN" "http://www.w3.org/Graphics/SVG/1.1/DTD/svg11.dtd">
<!-- Geohints -->
<svg width="100%" height="100%" viewBox="0 0 500 300" version="1.1" xmlns="http://www.w3.org/2000/svg" xmlns:xlink="http://www.w3.org/1999/xlink" xml:space="preserve" xmlns:serif="http://www.serif.com/" style="fill-rule:evenodd;clip-rule:evenodd;stroke-linejoin:round;stroke-miterlimit:2;">
    <g>
        <path d="M500,37.5C500,16.803 483.197,0 462.5,0L37.5,0C16.803,0 0,16.803 0,37.5L0,262.5C0,283.197 16.803,300 37.5,300L462.5,300C483.197,300 500,283.197 500,262.5L500,37.5Z" style="fill:rgb(0,113,179);"/>
        <path d="M37.5,7.513C20.88,7.513 7.5,20.893 7.5,37.513L7.5,262.513C7.5,279.133 20.88,292.513 37.5,292.513L462.5,292.513C479.12,292.513 492.5,279.133 492.5,262.513L492.5,37.513C492.5,20.893 479.12,7.513 462.5,7.513L37.5,7.513ZM37.5,15.013L462.5,15.013C474.965,15.013 485,25.048 485,37.513L485,262.513C485,274.978 474.965,285.013 462.5,285.013L37.5,285.013C25.035,285.013 15,274.978 15,262.513L15,37.513C15,25.048 25.035,15.013 37.5,15.013Z" style="fill:white;fill-rule:nonzero;"/>
        <g>
            <path d="M420.396,155.348C415.414,157.888 411.556,159.646 408.821,160.623C404.523,162.186 399.59,162.967 394.022,162.967C378.198,162.967 365.792,157.497 356.806,146.557C349.675,137.863 346.11,127.851 346.11,116.52L346.11,99.524C346.11,86.337 350.164,75.006 358.271,65.531C368.723,53.223 381.861,47.07 397.685,47.07C410.579,47.07 421.812,51.123 431.385,59.231C443.106,68.999 448.967,82.43 448.967,99.524L448.967,200.916C448.967,211.758 446.574,221.087 441.788,228.901C437.587,235.836 431.727,241.453 424.205,245.751C415.902,250.537 407.062,252.93 397.685,252.93C388.894,252.93 380.689,250.879 373.07,246.777C365.451,242.576 359.248,236.813 354.462,229.487C348.894,220.989 346.11,211.465 346.11,200.916L346.11,193.004L374.681,193.004L374.681,204.286C374.681,209.56 376.391,214.396 379.81,218.791C384.4,224.359 390.359,227.143 397.685,227.143C406.281,227.143 412.874,223.578 417.465,216.447C419.419,213.419 420.396,209.365 420.396,204.286L420.396,155.348ZM420.396,116.52L420.396,97.033C420.396,90.488 418.637,85.116 415.121,80.916C410.725,75.446 404.962,72.711 397.832,72.711C390.212,72.711 384.107,75.641 379.516,81.502C376.293,85.604 374.681,90.781 374.681,97.033L374.681,116.52C374.681,121.502 376.293,126.239 379.516,130.733C383.912,136.984 390.066,140.11 397.978,140.11C406.672,140.11 413.118,136.398 417.319,128.974C419.37,125.458 420.396,121.306 420.396,116.52Z" style="fill:white;fill-rule:nonzero;"/>
            <path d="M313.143,50L313.143,250L284.571,250L284.571,97.326L267.868,97.326L267.868,80.33L284.571,50L313.143,50Z" style="fill:white;fill-rule:nonzero;"/>
            <path d="M175.56,224.212L242.96,224.212L242.96,250L143.033,250L143.033,224.212L208.381,107.143C210.725,103.04 211.897,98.547 211.897,93.663C211.897,88.291 210.188,83.651 206.769,79.744C202.569,75.055 197.392,72.711 191.238,72.711C182.154,72.711 175.56,77.009 171.458,85.604C169.602,89.609 168.674,93.712 168.674,97.912L168.674,101.722L140.103,101.722L140.103,97.912C140.103,86.679 143.424,76.618 150.066,67.729C154.755,61.38 160.713,56.349 167.941,52.637C175.267,48.926 182.838,47.07 190.652,47.07C198.173,47.07 205.353,48.779 212.19,52.198C219.028,55.617 224.791,60.354 229.48,66.41C236.513,75.592 240.029,85.995 240.029,97.619C240.029,106.313 237.685,114.762 232.996,122.967L175.56,224.212Z" style="fill:white;fill-rule:nonzero;"/>
            <path d="M40,250L40,125L59.322,125L88.168,206.868L88.168,125L104.286,125L104.286,250L85.055,250L56.117,170.238L56.117,250L40,250" style="fill:white;fill-rule:nonzero;"/>
        </g>
    </g>
</svg>
