<?xml version="1.0" encoding="UTF-8" standalone="no"?>
<svg xmlns:dc="http://purl.org/dc/elements/1.1/" xmlns:cc="http://creativecommons.org/ns#" xmlns:rdf="http://www.w3.org/1999/02/22-rdf-syntax-ns#" xmlns:svg="http://www.w3.org/2000/svg" xmlns="http://www.w3.org/2000/svg" viewBox="0 0 450 224.99999" version="1.1" width="450" height="225" id="svg2">
  <defs id="defs13"/>
  <metadata id="metadata7">
    <rdf:RDF>
      <cc:Work rdf:about="">
        <dc:format>image/svg+xml</dc:format>
        <dc:type rdf:resource="http://purl.org/dc/dcmitype/StillImage"/>
        <dc:title/>
      </cc:Work>
    </rdf:RDF>
  </metadata>
  <g transform="translate(803.94 -736.67)" id="layer1">
    <rect fill="#fff" stroke-width=".4997" x="-803.69" y="736.92" stroke="#000" width="449.5" height="224.5" ry="29.974" rx="29.987" fill-rule="evenodd" style="color:#000000" id="rect6625-3-3"/>
    <rect fill="none" stroke-width="9.5832" x="-788.42" y="750.95" stroke="#369766" width="418.96" height="196.44" ry="29.581" rx="29.965" style="color:#000000" id="rect6625-35"/>
    <g fill="#369766" stroke-width="5.5804" aria-label="619" id="routenum">
      <path d="m-612.98 879.11q0 10.714-2.9018 19.42-2.9018 8.7054-8.4821 15.179-5.3571 6.25-13.17 9.8214-7.8125 3.3482-17.411 3.3482-20.536 0-31.027-14.062-10.491-14.286-10.491-39.955 0-13.616 3.3482-27.232 3.5714-13.839 10.045-26.562 6.6964-12.946 16.295-24.554 9.5982-11.607 21.875-20.982l12.054 16.964q-4.6875 3.5714-9.5982 8.4821-4.6875 4.9107-8.9286 10.491-4.2411 5.3571-7.5893 11.161-3.3482 5.8036-5.3571 11.161 2.6786-0.44642 4.9107-0.44642 2.4554 0 4.4643 0 9.5982 0 17.411 3.5714 7.8125 3.3482 13.17 9.8214 5.5804 6.25 8.4821 14.955 2.9018 8.7054 2.9018 19.42zm-20.982 0q0-12.054-5.8036-19.643-5.8036-7.5893-15.179-7.5893-9.5982 0-15.402 7.1428-5.5804 7.1428-5.5804 17.857 0 12.723 5.5804 20.982 5.8036 8.0357 15.402 8.0357 9.375 0 15.179-7.3661 5.8036-7.5893 5.8036-19.42z" id="path57"/>
      <path d="m-584.35 924.2v-122.77h-9.375v-16.295q6.4732-0.44643 10.268-3.125 4.0178-2.6786 6.4732-7.3661h14.286v149.55z" id="path59"/>
      <path d="m-461.46 825.54q0 27.902-13.616 53.571-13.393 25.67-37.946 45.089l-12.054-16.741q4.6875-3.5714 9.375-8.4821 4.9107-5.1339 9.1518-10.714 4.2411-5.8036 7.5893-11.607 3.3482-5.8036 5.3571-11.161-2.6786 0.44643-4.9107 0.44643-2.0089 0-4.4643 0-19.42 0-30.804-12.723-11.161-12.723-11.161-34.598 0-10.491 2.9018-18.973 2.9018-8.7054 8.2589-14.732 5.5804-6.25 13.393-9.5982 7.8125-3.3482 17.411-3.3482 20.536 0 31.027 13.616t10.491 39.955zm-20.536-4.6875q0-12.723-5.8036-20.312-5.8036-7.5893-15.179-7.5893-10.045 0-15.625 6.9196-5.3571 6.9196-5.3571 18.75 0 12.277 5.3571 19.42 5.5804 6.9196 15.625 6.9196 9.375 0 15.179-6.4732 5.8036-6.4732 5.8036-17.634z" id="path61"/>
    </g>
  </g>
</svg>