<?xml version="1.0" encoding="UTF-8" standalone="no"?>
<svg xmlns:dc="http://purl.org/dc/elements/1.1/" xmlns:cc="http://creativecommons.org/ns#" xmlns:rdf="http://www.w3.org/1999/02/22-rdf-syntax-ns#" xmlns:svg="http://www.w3.org/2000/svg" xmlns="http://www.w3.org/2000/svg" id="svg28" version="1.1" height="601" width="510.7" viewBox="0 0 1488 1752">
  <metadata id="metadata34">
    <rdf:RDF>
      <cc:Work rdf:about="">
        <dc:format>image/svg+xml</dc:format>
        <dc:type rdf:resource="http://purl.org/dc/dcmitype/StillImage"/>
        <dc:title/>
      </cc:Work>
    </rdf:RDF>
  </metadata>
  <defs id="defs32"/>
  <path style="fill:#ffffff;fill-rule:evenodd;stroke:#000000;stroke-width:2.9373" id="path10" d="m 782,1750 37.4,-3 c 0.6,0 0.9,0 1.3,0 l 36.2,-6 h 0.7 l 37,-7 c 0.4,0 0.7,0 0.9,0 l 35.1,-9 c 0.6,0 0.9,0 1.1,0 l 35.5,-11 c 0.2,0 0.5,0 0.7,0 l 35.1,-12 c 1,0 1,0 1,-1 l 34,-14 34,-16 c 1,0 1,0 2,0 l 32,-19 c 1,0 1,0 1,0 l 31,-19 c 0,-1 1,-1 1,-1 l 31,-22 c 0,0 0,0 0,0 l 30,-22 c 0,0 0,-1 1,-1 l 28,-24 1,-1 26,-25 1,-1 17,-18 1,-1 15,-19 c 1,0 1,-1 1,-1 l 14,-20 c 1,0 1,-1 1,-1 l 13,-21 c 1,0 1,-1 1,-1 l 12,-22 10,-22 c 1,-1 1,-2 1,-2 l 8,-23 c 0,0 0,-1 1,-1 l 6,-24 c 1,0 1,0 1,0 l 6,-24 c 0,-1 0,-1 0,-2 l 4,-25 v -1 l 2,-24 v -1 l 1,-25 V 360.2 c 0,-4 1,-7.7 4,-10.8 l 107,-148.8 c 9,-12.3 1,-29.4 -15,-29.4 h -441 c -11,0 -19,-8.4 -19,-18.5 V 19.95 C 1008,9.632 999.9,1.419 989.7,1.419 H 498.6 c -10.3,0 -18.5,8.387 -18.5,18.531 V 152.7 c 0,10.3 -8.4,18.5 -18.6,18.5 H 19.45 c -15.199,0 -23.766,17 -15.024,29.2 l 107.074,149 c 2.3,3.1 3.5,7 3.5,10.8 V 1258 l 1.6,26 2.4,24 c 0,1 0,1 0.2,1 l 3.7,25 c 0.2,0 0.2,1 0.3,2 l 6.1,24 7,24 c 0.2,0 0.2,1 0.4,1 l 8.2,23 c 0.2,0 0.5,1 0.9,2 l 10.5,21 11.3,22 c 0.4,1 0.7,1 0.9,2 l 13.6,21 c 0.2,0 0.2,1 0.4,1 l 14.3,20 c 0.4,0 0.7,1 0.9,1 l 15.7,19 0.7,1 16.7,18 h 0.8 l 27.1,26 27.8,25 c 0.5,0 0.9,0 1.2,1 l 30.1,22 30.1,21 c 0.5,1 0.9,1 1.2,1 l 31.5,20 c 0.2,0 0.5,0 0.7,0 l 33,18 c 0.6,0 0.9,1 1.3,1 l 34.1,15 34,15 c 0.6,0 0.9,0 1.3,1 l 34.4,12 c 0.4,0 0.7,0 0.9,0 l 35.1,11 c 0.6,0 0.9,0 1.3,0 l 36,9 c 0.3,0 0.7,0 0.8,0 l 37.1,7 h 0.7 l 36.2,5 c 0.5,0 0.9,0 1.2,0 l 37.4,3 h 1.3 l 36.9,1 h 0.7 l 36.8,-1 h 1.3 z"/>
  <path style="fill:none;stroke-width:1.7484" id="path12" d="m 782,1750 37.4,-3 c 0.6,0 0.9,0 1.3,0 l 36.2,-6 h 0.7 l 37,-7 c 0.4,0 0.7,0 0.9,0 l 35.1,-9 c 0.6,0 0.9,0 1.1,0 l 35.5,-11 c 0.2,0 0.5,0 0.7,0 l 35.1,-12 c 1,0 1,0 1,-1 l 34,-14 34,-16 c 1,0 1,0 2,0 l 32,-19 c 1,0 1,0 1,0 l 31,-19 c 0,-1 1,-1 1,-1 l 31,-22 c 0,0 0,0 0,0 l 30,-22 c 0,0 0,-1 1,-1 l 28,-24 1,-1 26,-25 1,-1 17,-18 1,-1 15,-19 c 1,0 1,-1 1,-1 l 14,-20 c 1,0 1,-1 1,-1 l 13,-21 c 1,0 1,-1 1,-1 l 12,-22 10,-22 c 1,-1 1,-2 1,-2 l 8,-23 c 0,0 0,-1 1,-1 l 6,-24 c 1,0 1,0 1,0 l 6,-24 c 0,-1 0,-1 0,-2 l 4,-25 v -1 l 2,-24 v -1 l 1,-25 V 360.2 c 0,-4 1,-7.7 4,-10.8 l 107,-148.8 c 9,-12.3 1,-29.4 -15,-29.4 h -441 c -11,0 -19,-8.4 -19,-18.5 V 19.95 C 1008,9.632 999.9,1.419 989.7,1.419 H 498.6 c -10.3,0 -18.5,8.387 -18.5,18.531 V 152.7 c 0,10.3 -8.4,18.5 -18.6,18.5 H 19.45 c -15.199,0 -23.766,17 -15.024,29.2 l 107.074,149 c 2.3,3.1 3.5,7 3.5,10.8 V 1258 l 1.6,26 2.4,24 c 0,1 0,1 0.2,1 l 3.7,25 c 0.2,0 0.2,1 0.3,2 l 6.1,24 7,24 c 0.2,0 0.2,1 0.4,1 l 8.2,23 c 0.2,0 0.5,1 0.9,2 l 10.5,21 11.3,22 c 0.4,1 0.7,1 0.9,2 l 13.6,21 c 0.2,0 0.2,1 0.4,1 l 14.3,20 c 0.4,0 0.7,1 0.9,1 l 15.7,19 0.7,1 16.7,18 h 0.8 l 27.1,26 27.8,25 c 0.5,0 0.9,0 1.2,1 l 30.1,22 30.1,21 c 0.5,1 0.9,1 1.2,1 l 31.5,20 c 0.2,0 0.5,0 0.7,0 l 33,18 c 0.6,0 0.9,1 1.3,1 l 34.1,15 34,15 c 0.6,0 0.9,0 1.3,1 l 34.4,12 c 0.4,0 0.7,0 0.9,0 l 35.1,11 c 0.6,0 0.9,0 1.3,0 l 36,9 c 0.3,0 0.7,0 0.8,0 l 37.1,7 h 0.7 l 36.2,5 c 0.5,0 0.9,0 1.2,0 l 37.4,3 h 1.3 l 36.9,1 h 0.7 l 36.8,-1 h 1.3 z"/>
  <path style="fill-rule:evenodd;stroke:#000000;stroke-width:1.7476" id="path14" d="m 959,281.4 c -1.1,0 -2,-0.9 -2,-2 V 53.69 c 0,-1.05 -0.8,-1.92 -1.9,-1.92 H 530.8 c -1.1,0 -1.9,0.87 -1.9,1.92 V 278.7 c 0,1.1 -0.9,2 -2,2 H 88.17 c -0.7,0 -1.05,-0.4 -1.58,-0.9 L 69.63,256 c -0.87,-1.2 0,-3 1.58,-3 H 499.5 c 1,0 1.9,-0.8 1.9,-1.9 v -26.9 c 0,-1.1 -0.9,-1.9 -1.9,-1.9 H 45.68 c -0.7,0 -1.05,-0.4 -1.57,-0.9 L 27.15,196.7 c -0.88,-1 0,-2.8 1.57,-2.8 H 499.5 c 1,0 1.9,-0.8 1.9,-1.9 V 25.19 c 0,-1.05 0.9,-1.92 1.9,-1.92 h 480.3 c 1.1,0 1.9,0.87 1.9,1.92 V 192 c 0,1.1 0.9,1.9 2,1.9 H 1458 c 1,0 3,1.8 1,2.8 l -16,24.7 c -1,0.5 -1,0.9 -2,0.9 H 987.5 c -1.1,0 -2,0.8 -2,1.9 v 26.9 c 0,1.1 0.9,1.9 2,1.9 H 1415 c 2,0 3,1.8 2,3 l -17,23.8 c 0,0.5 -1,0.9 -2,0.9 l -438.9,0.8 M 780.6,1728 l -36.9,2 h -0.3 l -36.9,-2 -36.9,-2 h -0.4 l -36.1,-6 -36.4,-7 -35.5,-8 -35.5,-11 -34.6,-12 -33.9,-15 -34,-15 -32.3,-18 -31.5,-20 -29.9,-20 -29.2,-23 -28.3,-24 -26.7,-25 -18.2,-19 -16.6,-22 -15.1,-21 -13.4,-22 -11.9,-24 -10.3,-25 -8.8,-25 -6.3,-26 -4.7,-25 -3.1,-27 v 0 L 136,1259 V 349 c 0,-0.5 -0.2,-0.9 -0.4,-1 l -24.3,-32.7 c -0.8,-1.3 0,-3 1.4,-3 h 49 c 1,0 1.9,0.9 1.9,1.9 V 1259 l 0.9,25 v 0 l 3.1,24 4.1,24 v 0 l 6.2,24 7.9,23 9.5,23 11,22 12.6,21 14.1,20 15.8,20 16.6,17 25.1,25 26.8,23 28.3,21 29.2,20 29.9,18 30.8,18 32.3,15 32.4,14 33.9,11 33.9,11 34.6,8 34,6 35.4,5 35.5,3 35.4,2 h 0.3 l 35.3,-2 34.6,-3 35.5,-5 34.7,-6 34.6,-8 33.9,-11 33.9,-11 32.3,-14 32,-15 31,-18 30,-18 29,-20 28,-21 26,-23 26,-25 17,-17 16,-20 14,-20 13,-21 11,-22 9,-23 8,-23 6,-24 v 0 l 4,-24 3,-24 v 0 l 1,-25 V 314.2 c 0,-1 1,-1.9 2,-1.9 h 48 c 2,0 3,1.7 2,3 l -24,32.7 c 0,0.3 0,0.7 0,1 v 910 l -1,27 v 0 l -3,27 -5,25 -6,26 -9,25 -10,25 -12,24 -14,22 -15,21 -17,22 -18,19 -26,25 -28,24 -30,23 -30,20 -32,20 -31,18 -34,15 -34,15 -34.6,12 -35.5,11 -35.5,8 -36.4,7 -36.2,6 h -0.3 l -36.9,2 z"/>
  <path style="stroke:#231f20;stroke-width:0.3497;stroke-miterlimit:2.6" id="path16" d="m 780.4,1728 -36.8,2 h -0.4 l -36.9,-2 -36.9,-3 h -0.3 l -36.2,-5 -36.4,-7 -35.5,-8 -35.5,-11 -34.6,-13 -33.9,-14 -33.9,-15 -32.4,-18 -31.4,-20 -29.9,-21 -29.2,-22 -28.4,-24 -26.7,-25 -18.2,-20 -16.6,-21 -15,-21 -13.5,-23 -11.9,-23 -10.3,-25 -8.8,-26 -6.2,-25 -4.8,-26 -3.1,-26 v -1 l -0.9,-26 V 348.8 c 0,-0.5 -0.2,-0.8 -0.3,-1 l -24.3,-32.7 c -0.9,-1.2 0,-3 1.4,-3 h 48.9 c 1.1,0 1.9,0.9 1.9,1.9 v 945 l 0.9,25 v 0 l 3.2,24 4,24 v 0 l 6.3,24 7.8,23 9.5,23 11,22 12.6,21 14.1,20 15.8,19 16.6,18 25.2,25 26.7,23 28.3,21 29.2,20 29.9,18 30.8,18 32.4,15 32.3,14 33.9,11 33.9,10 34.7,9 33.9,6 35.5,5 35.5,3 35.3,2 h 0.3 l 35.3,-2 34.7,-3 35.5,-5 34.6,-6 34.6,-9 33.9,-10 33.9,-11 32.5,-14 32,-15 31,-18 30,-18 29,-20 28,-21 26,-23 26,-25 17,-18 16,-19 14,-20 12,-21 11,-22 10,-23 8,-23 6,-24 v 0 l 4,-24 3,-24 v 0 l 1,-25 V 314 c 0,-1 1,-1.9 2,-1.9 h 48 c 2,0 3,1.8 2,3 l -24,32.7 c 0,0.3 0,0.7 0,1 V 1259 l -1,26 v 1 l -3,26 -5,26 -6,25 -9,26 -10,25 -12,23 -14,23 -15,21 -17,21 -18,20 -26,25 -29,24 -29,22 -30,21 -32,20 -32,18 -33,15 -34.2,14 -34.6,13 -35.5,11 -35.5,8 -36.4,7 -36.2,5 h -0.3 l -36.9,3 z" stroke-miterlimit="2.6"/>
  <g style="fill-rule:evenodd" transform="matrix(1.748,0,0,1.748,2.502,2.289)" id="g26">
    <path id="path18" d="m 634.8,660.4 -4.5,12.1 -6.3,12.6 -3.6,3.6 -4.1,2.7 -4.5,1.8 -5,0.5 -5,11.2 -6.3,10.3 3.6,10.8 4.1,9.9 5.4,9.9 6.8,9 7.2,8.1 h -18.5 l -18.5,0.9 -36.5,4.9 -18,4 -18,4.9 -18.5,5.4 -18,6.3 -17.6,7.2 -17.1,8.5 -16.7,9.4 -16.2,10.3 -6.3,5.4 -6.3,5.8 -5,6.7 -5.4,-14.4 -6.3,-14.4 -7.2,-13.5 -8.6,-13 -9,-12.6 -9.9,-11.7 -4.1,-3.6 -5,-3.2 -5.4,-1.8 -73.5,-15.3 -5.9,-1.8 -5.4,-2.7 -8.1,-4.9 -7.2,-5.8 -4.1,-4.9 -3.2,-5.8 -1.4,-6.3 -0.9,-9.9 0.5,-9.9 1.8,-9.9 0.9,-5.4 V 666 l -0.9,-5.4 -1.4,-5.8 -1.4,-4 v -4.5 l 0.5,-4.5 2.3,-4 2.7,-3.6 -2.3,-2.7 -0.9,-2.3 -0.9,-5.8 -0.5,-5.8 v -6.7 l -0.5,-3.2 -1.4,-3.2 -2.3,-2.7 -3.1,-1.8 -6.8,-4.5 -3.2,-2.7 -2.7,-3.6 -1.8,-4 -0.9,-4 v -4.5 l 1.4,-4 1.8,-4 26.2,-40.9 2.7,-4.9 1.8,-5.4 v -5.8 l -0.5,-5.4 -11.7,-54.4 -1.4,-7.6 v -7.6 l 0.5,-7.6 1.4,-7.6 2.7,-7.6 4.1,-7.6 7.2,-11.2 9,-9 11.3,-9.9 15.3,-10.8 15.8,-7.2 17.1,-8.1 16.2,-5.8 16.7,-4.5 17.1,-3.6 17.1,-2.7 17.1,-1.8 17.6,-0.5 h 17.1 l 17.6,1.4 17.1,2.7 16.2,3.6 15.8,5 15.3,5.8 15.3,6.7 14.4,8.1 14,9 13.5,9.9 12.6,10.3 9.5,10.3 9,11.2 8.1,11.2 6.8,12.1 6.3,12.6 5.4,13 4.5,13 3.6,13.9 2.3,13.5 1.8,13.9 2.3,18 1.8,18 0.9,17.5 v 18.4 l 0.5,9.4 1.4,9.4 1.4,8.5 0.5,9 -0.5,10.3 -1.4,9.9 -3.6,13.5"/>
    <path style="fill:#008000" id="path22" d="m 491,784 3.4,-1.3 18.5,-5.4 18,-5 18,-4 36.5,-5 18.5,-0.9 h 18.5 l -7.2,-8.1 -6.8,-9 -5.4,-9.9 -4.1,-9.9 -3.6,-10.8 6.3,-10.3 5,-11.2 5,-0.5 4.5,-1.8 4.1,-2.7 3.6,-3.6 6.3,-12.6 4.5,-12.1 3.6,-13.5 1.4,-9.9 0.5,-10.3 -0.5,-9 -1.4,-8.5 -1.4,-9.4 -0.5,-9.4 v -18.4 l -0.9,-17.5 -1.8,-18 -2.3,-18 -1.8,-13.9 -2.3,-13.5 -3.6,-13.9 -4.5,-13 -5.4,-13 -6.3,-12.6 -6.8,-12.1 -8.1,-11.2 -9,-11.2 -9.5,-10.3 -12.6,-10.3 -7.9,-5.7 c 21,-12 26,-26 30.8,-53.6 0.2,-1.1 1.7,-1.2 2.1,-0.1 8.8,29 16,45 47.1,54 0.7,0.2 1,1 0.5,1.6 l -3.6,5 c -4.3,6.1 -11,11 -18,12.1 l -5.8,1 c -0.8,0.2 -1.2,1.2 -0.5,1.8 l 3.6,4 c 9.9,11 25,14 39.2,13.5 l 5.1,-0.4 c 0.9,0 1.4,1 1,1.7 l -2.4,3.6 c -6,9 -15,16 -25.7,18 l -4.8,1 c -0.9,0.2 -1.2,1.2 -0.5,1.8 l 4.4,4.4 c 12,11 27,18 43.3,16.6 l 5.7,-0.4 c 0.8,0 1.4,0.9 1,1.6 l -3.5,5.9 c -6,10 -15,18 -26.2,22 l -6.1,2.5 c -0.7,0.3 -0.9,1.3 -0.3,1.8 l 4.6,4.2 c 12,12 30,16 46.5,9.9 l 5.5,-2 c 0.9,-0.3 1.7,0.5 1.4,1.4 l -1.9,5 c -6.7,18 -23,30 -41,33.7 l -5.1,1.2 c -0.9,0.3 -1.1,1.4 -0.3,2 l 4.5,2.7 7.2,3.6 c 12,6.1 26,6.3 39.7,2.7 l 5.8,-1.6 c 0.9,-0.2 1.6,0.7 1.2,1.5 l -2.9,5.5 A 63.1,63.1 0 0 1 665.4,598 l -6,1.6 c -0.9,0.2 -1.1,1.4 -0.3,1.9 l 5,2.8 c 17,9.6 38,11 55.5,0.9 l 5.2,-3 c 0.8,-0.5 1.7,0.3 1.6,1.2 l -1,5.4 c -4.2,24 -23,42 -46.9,45.9 l -3.4,0.6 c -1.1,0.2 -1.2,1.7 -0.1,2 l 4.4,1.4 c 17,5.5 36,3.2 52.3,-5 l 5.7,-2.9 c 0.9,-0.4 1.8,0.5 1.4,1.4 l -1.7,4.7 -3.2,7.2 c -9.9,22 -33,35 -57.7,33.7 l -3.1,-0.2 c -1.2,-0.1 -1.5,1.4 -0.6,2 l 3.3,1.8 c 17,9.8 39,9.3 55.9,-0.5 l 4.1,-2.3 c 0.9,-0.5 2,0.5 1.4,1.4 l -2.8,5.4 c -1.4,2.8 -3.3,5.4 -5,8.1 -16,26 -44,40 -74,40.9 l -9.4,0.5 h 6.3 -10.4 c -14,0 -6,17 -28.7,16.6 h -9.1 c -0.1,0 -0.3,0 -0.4,0.1 l -3.9,1.7 c -17,7.6 -32,25 -51.9,22.9 l -7.6,-0.9 h -0.2 L 490.8,784 m -140,-13.7 c -7.5,0.2 -16,3.4 -22.9,4 -13,0.9 -24,14 -37.4,11.2 -34,-7.3 -69,-12 -104,-11.7 -4.4,0 -8.8,0.5 -13.1,1.4 -12,2.5 -25,4.8 -34.7,-3.2 l -2.2,-1.7 c -0.7,-0.6 -0.4,-1.9 0.7,-1.9 h 5.1 c 5.1,0 10,-1.1 14.9,-3.6 l 4.5,-2.5 c 0.9,-0.5 0.7,-1.9 -0.3,-2 l -5.6,-0.9 c -18,-2.8 -34,-12 -42.8,-27.9 l -2.9,-5 c -0.5,-0.9 0.4,-1.9 1.3,-1.5 l 4.8,2 c 19,7.8 41,5.9 58.2,-5.8 l 5,-3.4 c 0.8,-0.5 0.5,-1.8 -0.5,-1.9 l -6.3,-1 c -21,-3.2 -41,-14 -51.4,-33.3 l -3.1,-5.5 c -0.5,-0.9 0.4,-1.9 1.3,-1.5 l 5.4,2.1 c 17,6.6 36,3.2 51,-5.8 l 5.3,-3.2 c 0.9,-0.5 0.6,-1.7 -0.3,-2 l -7.3,-1.6 a 75.1,75.1 0 0 1 -46.9,-33.3 l -3.9,-6.1 c -0.5,-0.8 0.3,-1.9 1.3,-1.5 l 4.4,1.4 c 17,5.3 36,-1.2 46.5,-15.3 l 3.6,-4.8 c 0.5,-0.5 0.3,-1.4 -0.5,-1.6 l -6.8,-2.6 a 65.2,65.2 0 0 1 -32.9,-27.9 l -3.1,-5.1 c -0.5,-0.9 0.4,-1.9 1.4,-1.5 l 3.5,1.3 c 18,6.4 38,-0.4 48.3,-16.6 l 2.6,-4.2 c 0.5,-0.7 -0.1,-1.6 -0.9,-1.6 h -4.9 c -17,0 -32,-12 -36.5,-27.9 l -1.4,-4.9 c -0.3,-0.7 0.4,-1.4 1.1,-1.4 l 4.8,0.4 c 14,1 27,-5.9 33.8,-17.5 l 3,-4.8 c 0.3,-0.5 0.1,-1.3 -0.5,-1.5 l -6.9,-2.7 c -11,-4.3 -20,-13 -26.2,-22.9 l -3.6,-6 c -0.4,-0.7 0.1,-1.6 1,-1.6 h 5.8 c 16,0 30,-7.6 39.2,-19.8 l 3.8,-4.9 c 0.4,-0.5 0.2,-1.3 -0.4,-1.6 l -6.1,-3.4 c -4.8,-2.7 -9,-6.3 -12.2,-10.8 l -3.3,-4.6 c -0.5,-0.7 0,-1.7 0.9,-1.7 h 6.5 c 12,0 23,-4.3 32.5,-11.2 l 5.1,-3.7 c 0.7,-0.5 0.5,-1.6 -0.4,-1.9 l -4.2,-1.2 c -6.1,-1.7 -12,-4.4 -16.7,-9 l -3.4,-3.4 c -0.5,-0.5 -0.4,-1.4 0.3,-1.7 l 7.2,-3.4 c 22,-11 36,-34 38.8,-58.4 l 0.9,-9 1.4,7.2 c 3.4,18 25,36 32.5,40.9 l 6.8,4.3 -2.3,1.1 -15.8,7.2 -15.3,10.8 -11.3,9.9 -9,9 -7.2,11.2 -4.1,7.6 -2.7,7.6 -1.4,7.6 -0.5,7.6 v 7.6 l 1.4,7.6 11.7,54.4 0.5,5.4 v 5.9 l -1.8,5.4 -2.7,5 -26.2,40.9 -1.8,4 -1.4,4.1 v 4.5 l 0.9,4.1 1.8,4.1 2.7,3.6 3.2,2.7 6.8,4.5 3.2,1.8 2.3,2.7 1.4,3.2 0.5,3.2 v 6.7 l 0.5,5.8 0.9,5.8 0.9,2.3 2.3,2.7 -2.7,3.6 -2.3,4 -0.5,4.5 v 4.5 l 1.4,4.1 1.4,5.8 0.9,5.4 v 5.8 l -0.9,5.4 -1.8,9.9 -0.5,9.9 0.9,9.9 1.4,6.3 3.2,5.8 4.1,5 7.2,5.8 8.1,5 5.4,2.7 5.9,1.8 73.5,15.3 5.4,1.8 5,3.2 4.1,3.6 6.2,7.3"/>
    <path id="path24" d="m 419.2,695.3 c -58.8,0 -94.1,-36.3 -97.8,-74.8 -0.1,-1.5 1,-2.8 2.5,-2.8 l 44.2,-0.6 c 1.3,0 2.3,0.9 2.6,2.1 3.3,20.6 20.2,36.2 48,36.3 28.9,0 50.7,-21.9 50.7,-49.5 0,-27.2 -20,-47.8 -51.7,-47.9 -16.6,0 -28.7,5.6 -38.4,16.7 -0.5,0.6 -1.3,0.9 -2,0.9 l -41.8,-2.1 c -1.5,0 -2.6,-1.5 -2.4,-3 l 24.3,-133.8 c 0.2,-1.2 1.3,-2.1 2.5,-2.1 h 144.6 c 1.4,0 2.6,1.1 2.6,2.5 V 473 c 0,1.4 -1.2,2.5 -2.6,2.5 H 395.3 c -1.2,0 -2.2,0.9 -2.5,2 l -11.1,51.1 c -0.5,2.2 2,3.9 3.9,2.7 14.1,-9.4 29.6,-14 48.3,-14 22.9,0 40.5,6.5 54.9,18.1 20.6,16.5 32.6,41.2 32.6,69.8 0,48.2 -38.1,89.9 -102.4,89.9 m 81.5,229.4 c 0,0.2 -0.1,0.5 -0.2,0.7 A 33.83,33.83 0 0 1 474,937.7 c -7,0 -13.8,-1.9 -19,-5 -9.9,-6 -17,-18.3 -17,-30.7 0,-7.4 2.4,-15.6 6.6,-22 6.4,-9.7 16.5,-15.4 29.7,-15.4 4.6,0 7.7,0.5 14.4,3.3 1.7,0.7 3.2,1.4 4.5,1.4 1.6,0 3,-0.6 4.6,-3.1 l 0.5,-0.8 h 1.3 c 0.6,0 1.1,0.5 1.1,1.1 v 20.3 c 0,0.6 -0.5,1.1 -1.1,1.1 h -0.9 l -0.2,-0.9 c -3.4,-11.3 -12.7,-17.7 -21.5,-17.7 -13.2,0 -21.1,13.9 -21.1,31.4 0,24.5 12.3,32.9 20.8,32.9 6.1,0 15.4,-4.1 22.1,-13 0.6,-0.8 1.9,-0.4 1.9,0.6 v 3.5 M 422.5,269.2 c -0.5,0 -1,-0.4 -1.1,-0.9 l -8.8,-63 c -0.1,-0.6 0.4,-1.2 1,-1.2 h 8.2 c 0.5,0 1,0.4 1.1,0.9 l 4,29.1 c 0.2,1.2 1.8,1.2 2.1,0.1 l 7.4,-29.3 c 0.1,-0.5 0.5,-0.8 1,-0.8 h 7.5 c 0.5,0 0.9,0.3 1,0.8 l 7.2,29 c 0.3,1.1 1.9,1 2.1,-0.1 l 4.1,-28.8 c 0.1,-0.5 0.5,-0.9 1,-0.9 h 8.3 c 0.6,0 1.1,0.6 1,1.2 l -9,63 c -0.1,0.5 -0.5,0.9 -1,0.9 h -7.5 c -0.5,0 -0.9,-0.3 -1,-0.8 l -9,-36.3 c -0.3,-1.1 -1.8,-1.1 -2.1,0 l -9.3,36.4 c -0.1,0.5 -0.5,0.8 -1,0.8 h -7.4 m -264,0 c -0.6,0 -1.1,-0.5 -1.1,-1.1 v -27 c 0,-0.2 0,-0.4 -0.1,-0.6 l -21.4,-34.9 c -0.5,-0.7 0.1,-1.6 0.9,-1.6 h 9.5 c 0.4,0 0.7,0.2 0.9,0.5 l 14.4,23.5 c 0.4,0.7 1.4,0.7 1.8,0 l 14.4,-23.5 c 0.2,-0.3 0.5,-0.5 0.9,-0.5 h 9.6 c 0.8,0 1.4,0.9 0.9,1.6 l -21.4,34.8 c -0.1,0.2 -0.1,0.4 -0.1,0.6 v 27 c 0,0.6 -0.5,1.1 -1.1,1.1 h -8.1 m 328.2,0 c -0.6,0 -1.1,-0.5 -1.1,-1.1 v -62.9 c 0,-0.6 0.5,-1.1 1.1,-1.1 h 8 c 0.6,0 1.1,0.5 1.1,1.1 v 24.2 c 0,0.6 0.5,1.1 1.1,1.1 h 21.4 c 0.6,0 1.1,-0.5 1.1,-1.1 v -24.2 c 0,-0.6 0.5,-1.1 1.1,-1.1 h 7.9 c 0.6,0 1.1,0.5 1.1,1.1 v 63 c 0,0.6 -0.5,1.1 -1.1,1.1 h -7.9 c -0.6,0 -1.1,-0.5 -1.1,-1.1 v -26.3 c 0,-0.6 -0.5,-1.1 -1.1,-1.1 h -21.4 c -0.6,0 -1.1,0.5 -1.1,1.1 v 26.3 c 0,0.6 -0.5,1.1 -1.1,1.1 z m -179.6,0 c -0.6,0 -1.1,-0.5 -1.1,-1.1 v -63 c 0,-0.6 0.5,-1.1 1.1,-1.1 h 8 c 0.6,0 1.1,0.5 1.1,1.1 v 53.8 c 0,0.6 0.5,1.1 1.1,1.1 h 27.3 c 0.6,0 1.1,0.5 1.1,1.1 v 7 c 0,0.6 -0.5,1.1 -1.1,1.1 z m -49.5,0 c -0.6,0 -1.1,-0.5 -1.1,-1.1 v -63 c 0,-0.6 0.5,-1.1 1.1,-1.1 h 8 c 0.6,0 1.1,0.5 1.1,1.1 v 53.8 c 0,0.6 0.5,1.1 1.1,1.1 h 27.3 c 0.6,0 1.1,0.5 1.1,1.1 v 7 c 0,0.6 -0.5,1.1 -1.1,1.1 z m -56.5,0 c -0.6,0 -1.1,-0.5 -1.1,-1.1 v -63 c 0,-0.6 0.5,-1.1 1.1,-1.1 h 35.6 c 0.6,0 1.1,0.5 1.1,1.1 v 8.1 c 0,0.6 -0.5,1.1 -1.1,1.1 h -25.4 c -0.6,0 -1.1,0.5 -1.1,1.1 v 14 c 0,0.6 0.5,1.1 1.1,1.1 h 16.8 c 0.6,0 1.1,0.5 1.1,1.1 v 8.1 c 0,0.6 -0.5,1.1 -1.1,1.1 h -16.7 c -0.6,0 -1.1,0.5 -1.1,1.1 V 258 c 0,0.6 0.5,1.1 1.1,1.1 h 27.5 c 0.6,0 1.1,0.5 1.1,1.1 v 8.1 c 0,0.6 -0.5,1.1 -1.1,1.1 h -37.8 m 349,0 c -0.6,0 -1.1,-0.5 -1.1,-1.1 v -63 c 0,-0.6 0.5,-1.1 1.1,-1.1 h 35.6 c 0.6,0 1.1,0.5 1.1,1.1 v 8.1 c 0,0.6 -0.5,1.1 -1.1,1.1 h -25.4 c -0.6,0 -1.1,0.5 -1.1,1.1 v 14 c 0,0.6 0.5,1.1 1.1,1.1 h 16.8 c 0.6,0 1.1,0.5 1.1,1.1 v 8.1 c 0,0.6 -0.5,1.1 -1.1,1.1 h -16.7 c -0.6,0 -1.1,0.5 -1.1,1.1 v 16.1 c 0,0.6 0.5,1.1 1.1,1.1 h 27.5 c 0.6,0 1.1,0.5 1.1,1.1 v 8.1 c 0,0.6 -0.5,1.1 -1.1,1.1 H 549.9 M 361,264.3 c -3.4,-3.8 -7.3,-10.9 -7.3,-27.8 0,-15.2 3.9,-22.9 7.3,-26.7 3.8,-4.3 9.4,-6.8 15.3,-6.8 6.9,0 13,3.2 17.1,8.8 2.2,3.1 5.7,11.4 5.7,25.3 0,14.1 -3.7,22.3 -6.1,25.5 -4,5.2 -10.6,8.3 -16.6,8.3 -5.7,0 -11.7,-2.7 -14.8,-5.9 l -0.7,-0.7 m 6.6,-7.8 c 1.7,2.6 5.1,4.5 8.7,4.5 2.8,0 5.7,-1.2 7.8,-3.2 1.6,-1.5 4.7,-5.4 5.2,-20.7 V 237 l -0.3,-5.3 c -1.4,-16 -7.2,-18.8 -12.5,-18.8 -3.4,0 -6.8,1.8 -8.7,4.4 -0.5,0.7 -4,5.2 -4,19.7 0,10.4 2.3,16.9 3.4,18.8 l 0.5,0.8 m 296.7,13.1 c -0.6,0 -1.1,-0.5 -1.1,-1.1 v -63 c 0,-0.6 0.5,-1.1 1.1,-1.1 h 19.3 c 9.4,0.5 18.7,7.1 22.1,21.4 0.9,3.7 1.3,7.3 1.3,11.2 0,10.2 -3.1,18.4 -6.6,23.1 -3.9,5.3 -10.2,8.9 -17.9,9.4 h -18.3 m 9.1,-11.3 c 0,0.6 0.5,1.1 1.1,1.1 h 8 c 4.6,-0.2 8.5,-2.7 10.7,-6.6 1.9,-3.2 3.7,-9.2 3.7,-15.5 0,-4.5 -0.9,-9.1 -1.9,-12.2 -2.8,-7.7 -7.6,-10.5 -12.2,-10.5 h -8.2 c -0.6,0 -1.1,0.5 -1.1,1.1 v 42.6 M 331.9,937.2 v -0.9 c 0,-0.6 0.5,-1 1,-1 l 3.9,-0.1 h 0.1 c 2.4,-0.1 4.6,-2.2 4.8,-5.5 v -57.2 c -0.2,-2.2 -2.4,-4.5 -5.4,-4.5 h -4.1 v -1 c 0,-0.6 0.5,-1.1 1.1,-1.1 l 36.9,0.1 h 0.1 c 14.9,0.7 21.8,9.5 21.8,17.8 a 16,16 0 0 1 -11.7,15.6 c -1,0.3 -1,1.7 0,2 8,2.8 13.1,9.9 13.1,16.4 0,8.6 -8.5,19.4 -23.4,19.4 z m 27,-35.2 c -0.6,0 -1.1,0.5 -1.1,1.1 l 0.1,26.3 v 0.1 c 0.2,2 1.8,4 6,4 5.7,0 11.9,-4.9 11.9,-15.5 0,-10.7 -5.9,-16 -14.2,-16 z m -1.1,-4.8 c 0,0.6 0.5,1.1 1.1,1.1 h 4.4 c 6,-0.2 11.5,-4.8 11.5,-14.8 0,-9 -5.5,-13.8 -12.1,-13.8 h -3.8 c -0.6,0 -1.1,0.5 -1.1,1.1 z m 58.9,40.4 c -4.6,-0.1 -8.1,-3.7 -8.1,-8.1 0,-4.3 3.6,-8 7.9,-8 5.1,0 8.1,3.9 8.1,8 0,4.5 -3.7,8.1 -7.9,8.1 m 108.5,0 c -4.6,-0.1 -8.1,-3.7 -8.1,-8.1 0,-4.3 3.6,-8 7.9,-8 5.1,0 8.1,3.9 8.1,8 0,4.5 -3.7,8.1 -7.9,8.1 m 74.9,-668 c -0.7,0 -1.3,-0.7 -1,-1.4 l 21.6,-63 c 0.1,-0.5 0.5,-0.7 1,-0.7 h 8.6 c 0.5,0 0.9,0.3 1,0.7 l 21.7,63 c 0.3,0.7 -0.3,1.4 -1,1.4 h -8.5 c -0.5,0 -0.9,-0.3 -1,-0.7 l -6,-17.4 c -0.1,-0.5 -0.5,-0.7 -1,-0.7 h -18.7 c -0.5,0 -0.9,0.3 -1,0.7 l -6.1,17.4 c -0.1,0.5 -0.5,0.7 -1,0.7 z m 19.8,-30.3 c -0.3,0.7 0.3,1.4 1,1.4 h 10.4 c 0.7,0 1.3,-0.7 1,-1.4 l -5.1,-15.2 c -0.3,-1 -1.7,-1 -2,-0.1 z"/>
  </g>
  <g id="g119" transform="matrix(1.748,0,0,1.748,3.202,1.419)" style="fill-rule:evenodd">
    <path d="m 634.8,660.4 -4.5,12.1 -6.3,12.6 -3.6,3.6 -4.1,2.7 -4.5,1.8 -5,0.5 -5,11.2 -6.3,10.3 3.6,10.8 4.1,9.9 5.4,9.9 6.8,9 7.2,8.1 h -18.5 l -18.5,0.9 -36.5,4.9 -18,4 -18,4.9 -18.5,5.4 -18,6.3 -17.6,7.2 -17.1,8.5 -16.7,9.4 -16.2,10.3 -6.3,5.4 -6.3,5.8 -5,6.7 -5.4,-14.4 -6.3,-14.4 -7.2,-13.5 -8.6,-13 -9,-12.6 -9.9,-11.7 -4.1,-3.6 -5,-3.2 -5.4,-1.8 -73.5,-15.3 -5.9,-1.8 -5.4,-2.7 -8.1,-4.9 -7.2,-5.8 -4.1,-4.9 -3.2,-5.8 -1.4,-6.3 -0.9,-9.9 0.5,-9.9 1.8,-9.9 0.9,-5.4 V 666 l -0.9,-5.4 -1.4,-5.8 -1.4,-4 v -4.5 l 0.5,-4.5 2.3,-4 2.7,-3.6 -2.3,-2.7 -0.9,-2.3 -0.9,-5.8 -0.5,-5.8 v -6.7 l -0.5,-3.2 -1.4,-3.2 -2.3,-2.7 -3.1,-1.8 -6.8,-4.5 -3.2,-2.7 -2.7,-3.6 -1.8,-4 -0.9,-4 v -4.5 l 1.4,-4 1.8,-4 26.2,-40.9 2.7,-4.9 1.8,-5.4 v -5.8 l -0.5,-5.4 -11.7,-54.4 -1.4,-7.6 v -7.6 l 0.5,-7.6 1.4,-7.6 2.7,-7.6 4.1,-7.6 7.2,-11.2 9,-9 11.3,-9.9 15.3,-10.8 15.8,-7.2 17.1,-8.1 16.2,-5.8 16.7,-4.5 17.1,-3.6 17.1,-2.7 17.1,-1.8 17.6,-0.5 h 17.1 l 17.6,1.4 17.1,2.7 16.2,3.6 15.8,5 15.3,5.8 15.3,6.7 14.4,8.1 14,9 13.5,9.9 12.6,10.3 9.5,10.3 9,11.2 8.1,11.2 6.8,12.1 6.3,12.6 5.4,13 4.5,13 3.6,13.9 2.3,13.5 1.8,13.9 2.3,18 1.8,18 0.9,17.5 v 18.4 l 0.5,9.4 1.4,9.4 1.4,8.5 0.5,9 -0.5,10.3 -1.4,9.9 -3.6,13.5" id="path36"/>
    <path style="fill:#ffc801" d="m 307.4,361.9 -15.3,5.8 -11.3,5.9 -10.8,6.7 -9.9,8.1 -9.5,8.5 -8.6,9.4 -4.1,5.8 -3.2,6.3 -2.7,7.2 -0.9,8.1 v 7.6 l 1.4,7.6 5,23.8 7.7,-17.5 1.8,4.1 0.9,4.9 3.6,-8.5 5,-7.2 5.9,-6.7 -1.4,5.8 -4.5,10.8 -3.6,4.9 -3.6,5.8 -2.7,6.3 -2.3,6.7 -0.9,6.7 v 7.2 l 0.5,6.7 0.5,0.5 0.9,6.3 -0.5,6.7 -0.9,6.3 -2.3,6.3 -3.2,5.4 -26.2,40.9 -0.9,2.3 v 3.1 l 0.9,2.7 1.8,1.8 5.9,4 3.6,2.3 3.6,3.2 2.7,3.6 2.3,4 0.9,4.1 0.5,4.5 v 7.2 l 0.5,5.8 15.8,11.2 -17.1,10.3 -0.5,2.7 0.5,2.3 2.7,7.2 0.9,8.1 v 7.2 l -1.4,7.6 -1.4,8.1 -0.9,8.5 0.9,8.1 2.7,7.2 2.3,2.7 6.3,5 6.8,4 3.6,1.8 4.1,1.4 73.5,15.3 5.9,1.8 5.9,2.7 5,3.6 4.5,4.5 9.9,11.7 9,12.1 8.6,13 7.2,13.9 6.8,13.5 6.3,-4.5 16.7,-11.2 17.1,-9.4 17.6,-9 18.5,-7.6 18.9,-6.3 18.9,-5.8 17.1,-4.5 17.6,-4 17.6,-2.7 17.6,-2.3 17.6,-1.4 -5.9,-9.4 -5,-10.3 -3.6,-10.3 -2.3,-11.2 -1.4,-11.2 -0.5,-11.2 4.5,4.1 4.1,4.5 2.7,4.9 4.1,-8.1 3.2,-8.5 2.3,-8.5 0.5,4.5 1.8,4 3.2,-4.5 1.8,-5.4 2.3,-12.1 1.4,-12.6 2.7,8.5 1.8,9 v 9.4 l 4.1,-8.1 3.2,-7.2 2.7,-8.1 1.8,-8.5 0.9,-8.5 0.5,-9 -0.5,-7.6 -1.4,-7.6 -1.4,-10.8 -0.9,-10.3 v -17.5 l -0.5,-17.5 -1.8,-17.5 -2.3,-17.5 -1.8,-14.8 -2.7,-14.4 -3.6,-13.9 -5.4,-13.9 -5.9,-13 -7.2,-13 -8.1,-12.1 -8.6,-11.7 -9.9,-10.8 -12.2,-10.3 -12.6,-9 -13.5,-8.5 -13.5,-7.2 -14.4,-6.7 -14.4,-5.4 -15.3,-4.5 -15.3,-3.6 -16.2,-2.3 -16.7,-1.4 h -16.7 l -16.2,0.5 -16.7,1.4 -16.7,2.7 -16.2,3.6 -15.8,4.5 -15.8,5.8" id="path38"/>
  </g>
  <g style="fill:#ffc801" id="g1486" transform="matrix(1.885,0,0,1.885,260.7,349.5)">
    <path id="path5457" style="-inkscape-font-specification:'Swis721 BT'" d="M 158.7,446.9 V 303.5 H 108.6 V 274 h 3.2 c 18.3,0 31.6,-2.8 39.9,-8.5 8.4,-5.6 13.3,-15.1 14.7,-28.4 H 200 v 209.8 z"/>
    <path id="path4067" style="-inkscape-font-specification:'Swis721 BT'" d="m 282.7,375.4 c 0,12 3,21.5 9,28.6 6,7 14.2,10.5 24.5,10.5 9.7,0 17.3,-3.4 22.7,-10.2 5.5,-6.9 8.2,-16.4 8.2,-28.6 0,-11.2 -2.8,-20 -8.5,-26.2 -5.6,-6.3 -13.6,-9.4 -23.8,-9.4 -10.1,0 -18,3.1 -23.6,9.4 -5.7,6.2 -8.5,14.9 -8.5,25.9 z m -0.6,-54.8 c 4.8,-4.9 10.5,-8.6 17.3,-11 6.7,-2.5 14.2,-3.8 22.5,-3.8 20.5,0 37,6.3 49.3,18.8 12.4,12.5 18.6,29.1 18.6,49.9 0,22.1 -6.8,39.9 -20.3,53.5 -13.4,13.6 -31.2,20.3 -53.3,20.3 -25.5,0 -44.8,-8.7 -58.1,-26.3 -13.2,-17.6 -19.8,-43.3 -19.8,-77.2 0,-36.4 7.1,-64.3 21.2,-83.6 14.2,-19.3 34.6,-28.9 61.3,-28.9 18.5,0 33.5,4.8 44.9,14.5 11.3,9.7 17.6,22.7 18.6,39.2 h -42.4 c -1,-6.7 -3.7,-11.8 -7.9,-15.2 -4.3,-3.4 -10.4,-5.1 -18.1,-5.1 -10.5,0 -18.6,4.5 -24.3,13.7 -5.6,9.1 -8.8,22.9 -9.5,41.2 z"/>
  </g>
</svg>