<?xml version="1.0" encoding="UTF-8"?>
<!-- Generator: Adobe Illustrator 16.0.0, SVG Export Plug-In . SVG Version: 6.00 Build 0)  -->
<!DOCTYPE svg PUBLIC "-//W3C//DTD SVG 1.1//EN" "http://www.w3.org/Graphics/SVG/1.1/DTD/svg11.dtd">
<svg version="1.1" id="Layer_1" xmlns:svg="http://www.w3.org/2000/svg" xmlns="http://www.w3.org/2000/svg" xmlns:xlink="http://www.w3.org/1999/xlink" x="0px" y="0px" width="217px" height="289.02px" viewBox="0 0 217 289.02" enable-background="new 0 0 217 289.02" xml:space="preserve">
<g id="g5">
	<path id="path7" fill="#FFFFFF" d="M216.5,0.5v168c0,90-108,120-108,120s-108-30-108-120V0.5H216.5z"/>
	<path id="path9" fill="none" stroke="#000000" stroke-miterlimit="3.8637" d="M216.5,0.5v168c0,90-108,120-108,120s-108-30-108-120   V0.5H216.5z"/>
</g>
<path id="path11" fill="#003F87" d="M210.5,168.5c0,78.969-88.867,109.639-102,113.736c-13.133-4.098-102-34.768-102-113.736v-84  h204V168.5z"/>
<g id="g13">
	<polygon id="polygon15" fill="#AF1E2D" points="6.5,6.5 210.5,6.5 210.5,78.5 6.5,78.5  "/>
	<path id="path17" fill="#AF1E2D" d="M0,0"/>
</g>
<path id="path19" fill="#FFFFFF" d="M108.501,217.46c1.565,1.573,2.928,3.04,4.021,4.667c3.043,4.537,4.068,9.465,2.365,13.451  c-3.383,8.434-4.684,10.575-4.684,17.291h2.406c0.151-7.388,3.244-12.333,7.844-13.817c2.023-0.702,4.65-0.354,7.057,1.875  c2.979,2.759,3.846,10.36-4.898,11.821c0.926-1.238,0.848-3.951-1.004-4.908c-1.416-0.637-3.016-0.389-3.762,0.16  c-1.203,0.654-2.361,2.748-2.361,4.869l4.153-0.006v4.174l-8.62-0.004c0.111,2.146,1.414,3.867,3.834,4.824  c-0.312,0.904-1.772,2.748-3.777,2.623c-0.395,1.951-0.771,3.047-2.573,4.82c-1.802-1.773-2.179-2.869-2.575-4.82  c-2.005,0.125-3.465-1.719-3.776-2.623c2.42-0.957,3.722-2.678,3.834-4.824l-8.618,0.004l-0.001-4.174l4.153,0.006  c0-2.121-1.158-4.215-2.362-4.869c-0.747-0.549-2.346-0.797-3.761-0.16c-1.852,0.957-1.93,3.67-1.005,4.908  c-8.745-1.461-7.877-9.062-4.898-11.821c2.408-2.229,5.033-2.577,7.057-1.875c4.599,1.484,7.693,6.43,7.844,13.817h2.405  c0-6.716-1.298-8.857-4.682-17.291c-1.704-3.986-0.68-8.914,2.366-13.451C105.572,220.5,106.935,219.033,108.501,217.46  L108.501,217.46z"/>
<path id="text1342" fill="#FFFFFF" d="M118.833,166.73c0,5.45-1.071,10.463-3.212,15.037c-2.045,4.575-4.965,8.566-8.76,11.973  c-3.796,3.406-8.322,6.084-13.578,8.029c-5.159,1.85-10.853,2.774-17.082,2.774c-4.282,0-8.517-0.486-12.702-1.46  c-4.088-0.973-7.835-2.336-11.242-4.088l7.592-13.724c2.044,1.07,4.72,1.946,8.03,2.628c3.309,0.584,6.765,0.876,10.366,0.876  c3.504,0,6.765-0.536,9.782-1.606c3.115-1.168,5.792-2.725,8.03-4.672c2.336-1.946,4.136-4.234,5.402-6.861  c1.265-2.726,1.898-5.694,1.898-8.906c0-2.434-0.487-4.672-1.46-6.717c-0.876-2.043-2.142-3.844-3.796-5.401  c-1.558-1.558-3.407-2.774-5.548-3.65c-2.044-0.876-4.283-1.313-6.716-1.313c-1.752,0-3.31,0.146-4.672,0.438  c-1.266,0.293-2.482,0.828-3.65,1.606c-1.168,0.778-2.336,1.849-3.504,3.212c-1.168,1.266-2.482,2.92-3.942,4.964l-15.476-4.38  l2.482-50.516h56.21v15.476H72.113l-1.022,16.06c3.602-1.071,6.424-1.801,8.468-2.19c2.044-0.39,4.282-0.584,6.716-0.584  c4.478,0,8.663,0.876,12.556,2.628c3.99,1.752,7.446,4.137,10.366,7.154c3.018,3.017,5.354,6.521,7.008,10.512  C117.957,158.02,118.833,162.253,118.833,166.73 M146.995,202.792v-79.278h-8.906v-12.41h1.022c2.043,0,4.088-0.535,6.132-1.606  c2.044-1.07,3.747-2.579,5.11-4.526h12.41v97.82H146.995"/>
<path fill="#FFFFFF" d="M21.307,24.879c0,0,123.082-8.782,175.22-5.516l0.036-2.119c0,0-134.044-0.939-175.22,5.518L21.307,24.879z"/>
<g>
	<polygon fill="#FFFFFF" points="130.812,40.479 19,67.805 45.326,67.805  "/>
	<polygon fill="#FFFFFF" points="53.102,67.805 75.16,67.805 137.147,38.93 132.869,39.976  "/>
</g>
<g>
	<polygon fill="#FFFFFF" points="139.463,39.214 105.888,67.805 138.715,67.805  "/>
	<polygon fill="#FFFFFF" points="142.014,67.805 175.028,67.805 139.796,38.93 139.608,39.09  "/>
</g>
<rect x="38" y="22.544" fill="#FFFFFF" width="1.25" height="6.5"/>
<rect x="67.875" y="21.108" fill="#FFFFFF" width="1.25" height="6.5"/>
<rect x="97.25" y="19.294" fill="#FFFFFF" width="1.25" height="6.5"/>
<rect x="127.75" y="18.858" fill="#FFFFFF" width="1.25" height="6.5"/>
<rect x="156.068" y="18.379" fill="#FFFFFF" width="1.25" height="6.5"/>
<rect x="186.285" y="18.379" fill="#FFFFFF" width="1.25" height="6.5"/>
<path fill="#FFFFFF" d="M21.384,29.923v2.914v27.285h10.861l26.226-4.238l6.357-23.046l23.577-1.325l7.417,30.729h9.536l8.213-5.562  l7.682-27.285h39.735l8.213,27.814l10.595,6.357h13.511l3.179-39.205C196.485,24.36,51.318,24.096,21.384,29.923z M98.5,55.294  L93,31.044h3.25l5.75,19.75L98.5,55.294z M105.888,43.962l-4.555-13.334h10.333L105.888,43.962z"/>
</svg>