<?xml version="1.0" encoding="UTF-8" standalone="no"?>
<svg xmlns:dc="http://purl.org/dc/elements/1.1/" xmlns:cc="http://creativecommons.org/ns#" xmlns:rdf="http://www.w3.org/1999/02/22-rdf-syntax-ns#" xmlns:svg="http://www.w3.org/2000/svg" xmlns="http://www.w3.org/2000/svg" version="1.1" width="451.28" height="451" id="svg7065">
  <defs id="defs138"/>
  <metadata id="metadata7070">
    <rdf:RDF>
      <cc:Work rdf:about="">
        <dc:format>image/svg+xml</dc:format>
        <dc:type rdf:resource="http://purl.org/dc/dcmitype/StillImage"/>
        <dc:title/>
      </cc:Work>
    </rdf:RDF>
  </metadata>
  <g fill="#fff" stroke-width=".28346" stroke="#999" transform="matrix(3.5275 0 0 3.5281 126.5 .50004)" id="g3066">
    <path fill="#fff" stroke-width=".28346" stroke="#999" d="m-3.788 0-31.892 127.55h127.57l-31.894-127.55z" id="path3068"/>
  </g>
  <g transform="matrix(3.5378 0 0 3.5276 -3.0208 -5.0843)" id="g3086"/>
  <g transform="matrix(3.5378 0 0 3.5276 -3.0208 -5.0843)" id="g3136"/>
  <g transform="matrix(3.5378 0 0 3.5276 -3.0209 -5.0843)" id="g3154"/>
  <g transform="matrix(3.5378 0 0 3.5276 -3.0209 -5.0843)" id="g3160"/>
  <g transform="matrix(3.5378 0 0 3.5276 -3.0209 -5.0843)" id="g3166"/>
  <g transform="matrix(3.5378 0 0 3.5276 -3.0209 -5.0843)" id="g3176"/>
  <g transform="matrix(3.5378 0 0 3.5276 -3.0209 -5.0843)" id="g3182"/>
  <g transform="matrix(3.5378 0 0 3.5276 -3.0209 -5.0843)" id="g3186"/>
  <g transform="matrix(3.5378 0 0 3.5276 -3.0209 -5.0843)" id="g3190"/>
  <g transform="matrix(3.5378 0 0 3.5276 -3.0209 -5.0843)" id="g3266"/>
  <g transform="matrix(3.5378 0 0 3.5276 -3.0209 -5.0843)" id="g3284"/>
  <g transform="matrix(3.5378 0 0 3.5276 -3.0209 -5.0843)" id="g3302"/>
  <g transform="matrix(3.5378 0 0 3.5276 -3.0209 -5.0843)" id="g3314"/>
  <g transform="matrix(3.5378 0 0 3.5276 -3.0209 -5.0843)" id="g3326"/>
  <g transform="matrix(1.0434 0 0 1.0434 -17.405 -13.457)" stroke-width=".95844" id="g8142">
    <g transform="matrix(3.5378 0 0 3.5276 1.6231 9.3063)" id="g3108">
      <path transform="matrix(.28266 0 0 .28348 -.45878 -2.6381)" d="m223.72 123.78v4.5938h18.344v-4.5938zm12.594 1.375c0.20165-0.0212 0.39622 0.0328 0.5625 0.15625 0.0849 0.0705 0.15566 0.17542 0.1875 0.28125 0.0212 0.0635 0.0277 0.11695 0.0312 0.1875h-0.3125c-0.007-0.10936-0.0713-0.20061-0.15625-0.25-0.0849-0.0529-0.18573-0.0872-0.28125-0.0625-0.0637 0.0141-0.11026 0.0514-0.15625 0.0937-0.0531 0.0564-0.0837 0.13761-0.0625 0.21875 0.0318 0.0988 0.10967 0.13508 0.1875 0.15625l0.19 0.06 0.125 0.0312c0.0849 0.0247 0.28007 0.0822 0.34375 0.15625 0.10967 0.10936 0.16333 0.24045 0.15625 0.40625-0.004 0.15169-0.0572 0.29689-0.15625 0.40625-0.0672 0.0776-0.1303 0.1245-0.21875 0.15625 0 0-0.12794 0.059-0.34375 0.0625-0.0637 0-0.12382-0.0136-0.1875-0.0312-0.046-0.0106-0.10672-0.0101-0.15625-0.0312-0.0849-0.0423-0.16215-0.1235-0.21875-0.21875-0.0849-0.10936-0.125-0.22684-0.125-0.375h0.34375c0 0.11288 0.0401 0.22128 0.125 0.28125 0.0955 0.067 0.25825 0.0489 0.375 0.0312 0.0672-0.0212 0.15212-0.0681 0.1875-0.15625 0.0212-0.0494 0.0177-0.10686 0-0.15625-0.0318-0.0882-0.089-0.14214-0.15625-0.15625l-0.3125-0.0937-0.0937-0.0312c-0.0991-0.0318-0.19988-0.0645-0.28125-0.15625-0.092-0.11288-0.13915-0.24751-0.125-0.40625 0.004-0.0988 0.0165-0.20011 0.0625-0.28125 0.1026-0.18696 0.2954-0.25656 0.46875-0.28125zm-7.7812 0.0625h1.1875v0.3125h-0.84v0.47h0.71875v0.3125h-0.72v0.84375h-0.34375zm1.375 0h0.3125v1.9375h-0.3125zm0.625 0h0.75c0.14505 0.0106 0.26533 0.0817 0.375 0.1875 0.0778 0.0741 0.14858 0.15475 0.1875 0.25 0.0425 0.1023 0.0761 0.20314 0.0937 0.3125 0.0212 0.22224 0.0118 0.48995-0.0625 0.6875-0.0318 0.0952-0.0926 0.17239-0.15625 0.25-0.10613 0.13405-0.22995 0.21472-0.375 0.25h-0.0625-0.75v-1.9375zm1.7188 0h1.2188v0.3125h-0.875v0.4375h0.75v0.3125h-0.75v0.53125h0.875v0.34375h-1.21zm1.5312 0h0.34375v1.5938h0.8125v0.34375h-1.1562zm1.3438 0h0.34375v1.9375h-0.33zm-4.25 0.3125v1.2812h0.34375c0.0318-0.004 0.0584 0.0106 0.0937 0 0.0814-0.0212 0.16922-0.0923 0.21875-0.1875 0.046-0.0952 0.0554-0.19962 0.0625-0.3125 0.007-0.20813 0.009-0.43148-0.0937-0.59375-0.0708-0.11641-0.19575-0.18044-0.3125-0.1875z" id="path3110"/>
    </g>
    <g transform="matrix(3.5378 0 0 3.5276 1.6231 9.3063)" id="g3112">
      <g transform="translate(56.215 31.934)" stroke-width=".95844" id="g3114">
        <path transform="matrix(.28266 0 0 .28348 -56.674 -34.572)" d="m200.5 117.53v4.4375h22.875l-4.3125-4.4375zm10.031 1.2188c0.0495 0.007 0.10318 0.0171 0.15625 0.0312 0.14505 0.0423 0.31073 0.13309 0.40625 0.28125 0.0601 0.1023 0.0867 0.21323 0.0937 0.34375h-0.3125c-0.007-0.0176 0.004-0.0413 0-0.0625-0.0248-0.0811-0.0613-0.13459-0.125-0.1875-0.0849-0.067-0.20637-0.10786-0.3125-0.0937-0.0743 0.0141-0.12736 0.0756-0.1875 0.125-0.0601 0.0635-0.13502 0.13409-0.15625 0.21875-0.0495 0.13758-0.0696 0.27523-0.0625 0.4375 0.007 0.13758 0.0407 0.26212 0.0937 0.375 0.0814 0.15522 0.21934 0.25353 0.375 0.25 0.0566 0.004 0.10672-0.0136 0.15625-0.0312 0.0814-0.0318 0.15566-0.11998 0.1875-0.21875 0.0106-0.0353 0.0242-0.0514 0.0312-0.0937h0.34375c-0.007 0.11288-0.02 0.21725-0.0625 0.3125-0.0814 0.15874-0.23349 0.25606-0.375 0.3125-0.0318 0.0141-0.0584 0.0242-0.0937 0.0312-0.0142 0.007-0.0483 0.0277-0.0625 0.0312-0.0495 0.007-0.10318 0-0.15625 0-0.0955-0.004-0.17217-0.0343-0.25-0.0625-0.0389-0.0141-0.0861-0.0413-0.125-0.0625-0.1026-0.0705-0.18986-0.19256-0.25-0.3125-0.12382-0.23988-0.17099-0.5439-0.125-0.84375 0.0354-0.24693 0.14563-0.47331 0.34375-0.625 0.13797-0.10583 0.29186-0.16331 0.46875-0.15625zm-7.3125 0.0625h0.375l0.375 1.4375 0.34375-1.4375h0.375l-0.5625 1.9375h-0.34375zm1.6562 0h1.3438v0.3125h-0.5v1.625h-0.34v-1.625h-0.5zm2.5938 0h0.3125v1.9375h-0.3125zm0.625 0h0.3125l0.71875 1.3125v-1.3125h0.3125v1.9375h-0.34375l-0.65625-1.3125v1.3125h-0.34375zm3.4062 0h1.2188v0.3125h-0.875v0.4375h0.78125v0.3125h-0.78125v0.53125h0.875v0.35h-1.24zm1.5625 0h0.71875c0.17689 0.004 0.33844 0.10134 0.4375 0.28125 0.0708 0.12699 0.0731 0.27876 0.0625 0.4375-0.0142 0.12347-0.0301 0.21373-0.0937 0.3125-0.1026 0.1411-0.25059 0.21522-0.40625 0.21875h-0.375v0.6875h-0.34375v-1.9375zm1.4375 0h0.34375v1.94h-0.35zm0.5 0h1.3438v0.3125h-0.5v1.625h-0.35v-1.625h-0.5zm-1.5938 0.3125v0.625h0.3125c0.0389-0.007 0.0584-0.0136 0.0937-0.0312 0.0849-0.0388 0.14917-0.1477 0.15625-0.25 0.004-0.0564 0.0142-0.10686 0-0.15625-0.0389-0.10936-0.1474-0.19103-0.25-0.1875h-0.3125z" id="path3116"/>
      </g>
    </g>
    <g transform="matrix(3.5378 0 0 3.5276 1.6231 9.3063)" id="g3118">
      <g transform="translate(61.422 32.507)" stroke-width=".95844" id="g3120">
        <path d="m0 0v-0.498h1.255v1.748z" id="path3122"/>
      </g>
    </g>
    <g transform="matrix(3.5378 0 0 3.5276 1.6231 9.3063)" id="g3124">
      <g transform="translate(68.062 31.934)" stroke-width=".95844" id="g3126">
        <path transform="matrix(.28266 0 0 .28348 -68.521 -34.572)" d="m246.78 117.53-4.375 4.4375h22.85v-4.4375zm0.6875 1.125c0.20165-0.0176 0.39622 0.0293 0.5625 0.15625 0.0814 0.067 0.15212 0.17542 0.1875 0.28125 0.0177 0.0635 0.0242 0.11695 0.0312 0.1875h-0.3125c-0.004-0.10936-0.0749-0.20061-0.15625-0.25-0.0849-0.0529-0.17865-0.0872-0.28125-0.0625-0.0566 0.0106-0.11026 0.0514-0.15625 0.0937-0.0495 0.06-0.0837 0.13761-0.0625 0.21875 0.0354 0.0988 0.10967 0.13861 0.1875 0.15625l0.1875 0.0312 0.125 0.0625c0.0884 0.0247 0.27653 0.0786 0.34375 0.15625 0.1026 0.10936 0.16333 0.24398 0.15625 0.40625-0.007 0.15522-0.0572 0.29337-0.15625 0.40625-0.0672 0.0776-0.13738 0.1245-0.21875 0.15625 0 0-0.12441 0.059-0.34375 0.0625-0.0601-0.004-0.12382-0.0171-0.1875-0.0312-0.046-0.0141-0.10672-0.0413-0.15625-0.0625-0.0814-0.0388-0.15861-0.0993-0.21875-0.1875-0.0778-0.11641-0.12146-0.22331-0.125-0.375h0.34375c0 0.11288 0.0366 0.22128 0.125 0.28125 0.0955 0.0635 0.23408 0.0489 0.34375 0.0312 0.0708-0.0247 0.18691-0.0716 0.21875-0.15625 0.0177-0.0494 0.0142-0.10686 0-0.15625-0.0283-0.0847-0.082-0.14214-0.15625-0.15625l-0.3125-0.0937-0.0937-0.0312c-0.0991-0.0318-0.20342-0.0645-0.28125-0.15625-0.0955-0.11288-0.13561-0.24751-0.125-0.40625 0.007-0.0988 0.02-0.20011 0.0625-0.28125 0.1026-0.19049 0.29186-0.25303 0.46875-0.28125zm2.5 0c0.0531 0.007 0.13443 0.0171 0.1875 0.0312 0.14505 0.0423 0.27594 0.13309 0.375 0.28125 0.0601 0.1023 0.0831 0.21323 0.0937 0.34375h-0.3125c-0.007-0.0212 0.007-0.0413 0-0.0625-0.0212-0.0811-0.0613-0.13459-0.125-0.1875-0.0814-0.067-0.2099-0.11139-0.3125-0.0937-0.0743 0.0141-0.1309 0.0444-0.1875 0.0937-0.0637 0.0635-0.13149 0.13409-0.15625 0.21875-0.046 0.13758-0.0419 0.30648-0.0312 0.46875 0.007 0.13758 0.013 0.26212 0.0625 0.375 0.0778 0.15522 0.22287 0.25353 0.375 0.25 0.0601 0.004 0.10672-0.0136 0.15625-0.0312 0.0814-0.0318 0.19399-0.11998 0.21875-0.21875 0.0142-0.0353 0-0.0827 0-0.125l0.34375 0.0312c-0.007 0.10936-0.02 0.18953-0.0625 0.28125-0.0814 0.15874-0.23703 0.28378-0.375 0.34375-0.0354 0.0141-0.0548 0.0242-0.0937 0.0312-0.007 0.007-0.0413-0.004-0.0625 0-0.0495 0.007-0.0996 0.0312-0.15625 0.0312-0.0884-0.004-0.17924-0.0343-0.25-0.0625-0.0389-0.0141-0.0584-0.0413-0.0937-0.0625-0.004-0.004-0.0242 0.004-0.0312 0-0.10613-0.0705-0.18986-0.18551-0.25-0.3125-0.12029-0.23988-0.16745-0.54743-0.125-0.84375 0.0425-0.25399 0.14563-0.50456 0.34375-0.65625 0.13797-0.10583 0.2954-0.13206 0.46875-0.125zm-1.375 0.0625h0.34375v1.9375h-0.34375zm3.3125 0h0.75c0.17689 0.004 0.33844 0.0701 0.4375 0.25 0.0743 0.12347 0.0767 0.30648 0.0625 0.46875-0.004 0.11994-0.0301 0.21373-0.0937 0.3125-0.1026 0.14463-0.24705 0.21169-0.40625 0.21875h-0.40625v0.6875h-0.34375v-1.9375zm1.4688 0h1.2188v0.3125h-0.875v0.4375h0.78v0.3125h-0.78125v0.53125h0.875v0.34375h-1.22zm1.5312 0h0.84c0.14151 0.007 0.2724 0.0676 0.375 0.1875 0.1026 0.13405 0.1362 0.31656 0.0937 0.5-0.0212 0.0952-0.0855 0.19356-0.15625 0.25-0.0531 0.0459-0.12028 0.0519-0.1875 0.0625 0.0354 0.004 0.0654 0.0207 0.0937 0.0312 0.0814 0.0318 0.1592 0.12703 0.1875 0.21875 0.007 0.0353 0.0242 0.0514 0.0312 0.0937l0.0312 0.3125c0.0106 0.0952-0.0112 0.20011 0.0312 0.28125h-0.34c-0.0283-0.067-0.0242-0.14114-0.0312-0.21875l-0.0312-0.25c0-0.10583-0.0472-0.19003-0.125-0.25-0.0601-0.0459-0.10967-0.066-0.1875-0.0625h-0.25v0.78125h-0.375v-1.9375zm1.6562 0h0.5l0.34375 1.4062 0.34375-1.4062h0.46875v1.9375h-0.3125v-1.41l-0.34375 1.4062h-0.33l-0.37-1.41v1.4062h-0.3125zm2.4688 0h0.375l0.5625 1.9375h-0.36l-0.09-0.41h-0.625l-0.0937 0.40625h-0.34375l0.5625-1.9375zm1.1562 0h0.34375l0.6875 1.3125v-1.3125h0.34375v1.9375h-0.34375l-0.6875-1.3125v1.3125h-0.34375zm1.6875 0h1.2188v0.3125h-0.875v0.4375h0.76v0.3125h-0.78125v0.53125h0.875v0.34375h-1.22zm1.4375 0h1.3438v0.3125h-0.5v1.625h-0.34375v-1.625h-0.5zm-11.062 0.3125v0.625h0.3125c0.0389-0.007 0.0896-0.0136 0.125-0.0312 0.0884-0.0388 0.15271-0.14417 0.15625-0.25 0.004-0.0564-0.0136-0.10686-0.0312-0.15625-0.0389-0.10936-0.11969-0.19103-0.21875-0.1875h-0.34375zm3.0312 0v0.53125h0.40625c0.0814-0.007 0.13797-0.0197 0.1875-0.0937 0.0425-0.0776 0.0389-0.20364 0-0.28125-0.0354-0.0847-0.10613-0.15625-0.1875-0.15625h-0.40625zm3.9375 0.0625l-0.24 0.85h0.4375z" id="path3128"/>
      </g>
    </g>
    <g transform="matrix(3.5378 0 0 3.5276 1.6231 9.3063)" id="g3130">
      <g transform="translate(68.062 32.009)" stroke-width=".95844" id="g3132">
        <path d="m0 0h1.249v0.498l-1.249 1.25z" id="path3134"/>
      </g>
    </g>
    <g transform="matrix(3.5378 0 0 3.5276 1.623 9.3063)" id="g3196">
      <g transform="translate(69.257 21.752)" stroke-width=".95844" id="g3198">
        <path transform="matrix(.28266 0 0 .28348 -67.47 -20.169)" d="m211.12 71.141v22.906s0.0765 4.3019 6.0625 7.1875c0 0 6.6397 3.9648 7.7188 4.4375 1.0755-0.47274 7.7188-4.4375 7.7188-4.4375 5.9895-2.8856 6.0625-7.1875 6.0625-7.1875v-22.906zm0.66992 0.61133h12.17v0.01563l0.004-0.002v3.1875h-12.188l0.0371-0.0098h-0.0234zm14.088 0 0.0527 0.01367h12.127v3.1875h-12.188v-3.1875h0.008zm-14.102 4.8574h12.188v0.0098h0.004v3.1875l-0.0371-0.0098h-12.154zm14.094 0h12.188v3.1875h-12.145l-0.0371 0.0098v-0.0098h-0.006zm-1.0625 5.75s0.60494 1.1548 1.125 1.25l0.21875 2.2188 1.875-0.875s0.35021 0.70157 1.5 0.46875c0 0-0.83314 1.309-0.46875 1.5312l-1.6562 1.125 0.78125 0.5625s-0.44459 0.55663 0.3125 1.5938c0 0-1.6392-0.0483-1.4375 0.375l-2-0.84375v6.1562l5.5312-2.8125-1.5-1.3125s0.32077-0.33991-0.5-1.4688c0 0 1.6851-0.0303 1.625-0.53125l0.875 0.375 0.125-1.9688s0.63325 0.23815 1.125-1.2188c0 0 0.74705 1.3271 1.0938 1.0625l0.21875 1.9688 1.9688-0.84375s0.79715 0.53121 1.625 0.3125c0 0-0.91864 1.2339-0.625 1.5938l-1.7812 1.25 1.7188 1.1875s-0.46582 0.65993 0.3125 1.5312c0 0-1.4894-0.13501-1.5 0.28125l-1.8125-0.875-0.125 0.96875s-0.66037-0.0774-1.1875 1.0938c0 0-0.79009-1.513-1.0625-1.125l-0.28125-1.9688-5.8438 3.0938v5.4063h-0.5v-5.4063l-5.6875-3.1875-0.0625 2.0625s-0.48938-0.14847-1.0625 1.125c0 0-0.8744-1.3936-1.2812-1.0938l-0.0625-0.96875-1.8125 0.875s-0.17332-0.5811-1.6875-0.28125c0 0 0.80956-1.3619 0.40625-1.5312l1.6875-1.1875-1.9062-1.25s0.13621-0.99053-0.46875-1.5938c0 0 1.5212 0.1214 1.6875-0.3125l2.0312 1.0625 0.15625-2.1875s0.81957 0.0452 1.1875-1.0625c0 0 0.63207 1.4234 1 1.2188l0.15625 2.0312 0.90625-0.4375s0.21932 0.6653 1.5 0.53125c0 0-0.84553 1.4335-0.375 1.4688l-1.625 1.1562 5.3125 2.9688v-6.1562l-1.6875 0.84375s-0.16507-0.5161-1.5625-0.375c0 0 0.84199-1.3962 0.375-1.5938l0.8125-0.5625-1.6875-1.125s0.42514-0.37772-0.59375-1.5312c0 0 1.5566-0.0384 1.5-0.46875l1.9062 0.875 0.0937-2.2188s0.58784-0.2658 1.0938-1.25z" id="path3200"/>
      </g>
    </g>
    <g transform="matrix(3.5378 0 0 3.5276 1.623 9.3063)" id="g3202">
      <g transform="translate(58.217 24.842)" stroke-width=".95844" id="g3204">
        <path d="m0 0c0.372 0.608 0.747 1.119 1.157 1.735l-0.479 1.84c0.35 0.677 0.712 1.399 1.061 2.076h-0.183c-0.152-0.137-0.14-0.411-0.368-0.487-0.365-0.638-0.715-1.323-1.072-1.984 0.015-0.129 0.182-0.054 0.182-0.183l-0.022-0.517c-0.236-0.388-0.479-0.671-0.722-1.067 0 0-0.096-1.063 0.446-1.413" id="path3206"/>
      </g>
    </g>
    <g transform="matrix(3.5378 0 0 3.5276 1.623 9.3063)" id="g3208">
      <g transform="translate(72.516 24.787)" stroke-width=".95844" id="g3210">
        <path d="m0 0c-0.197 0.36-0.457 0.653-0.703 0.984-0.121 0.281-0.327 0.471-0.455 0.752 0.174 0.632 0.318 1.202 0.515 1.826l-1.07 2.135c0.373 0.084 0.236-0.433 0.564-0.493 0.288-0.678 0.727-1.347 1.054-2.007l-0.167-0.168c-0.213-0.715 0.514-1.112 0.787-1.682 0 0 0.008-1.014-0.525-1.347" id="path3212"/>
      </g>
    </g>
    <g transform="matrix(3.5378 0 0 3.5276 1.623 9.3063)" id="g3214">
      <g transform="translate(74.496 30.493)" stroke-width=".95844" id="g3216">
        <path d="m0 0c0.068-0.122 0.062-0.298 0.038-0.487l0.092-0.053c-0.062-0.798 0.046-1.414-0.016-2.189-0.098-0.062-0.265-0.152-0.296-0.29 0.008-0.577-0.015-1.132 0.023-1.718 0.06-0.069 0.182-0.054 0.251-0.054 0.197-1.079-0.837-1.725-1.293-2.592-0.699-0.912 0.137-1.931 0.129-2.904-0.266-0.297 0.221-0.495 0.304-0.707-0.265-0.099-0.6 0.129-0.73-0.129 0.441-0.305 0.981-0.092 1.484-0.183l0.09-0.091c0-0.077 0-0.16-0.076-0.199-0.288 0.039-0.547-0.007-0.836 0.031l-0.053-0.053c0.274-0.197 0.668-0.19 0.965-0.38-0.008-0.068 0.024-0.212-0.09-0.236l-0.715 0.236c-0.039-0.015-0.099-0.053-0.069-0.114 0.206-0.159 0.448-0.251 0.653-0.433 0.046-0.076 0-0.161-0.037-0.221-0.069-0.068-0.183-0.03-0.236 0.054-0.167 0.067-0.319 0.319-0.494 0.205-0.015-0.144 0.16-0.16 0.205-0.274 0.054-0.061 0.046-0.175-0.022-0.22-0.167-0.107-0.228 0.091-0.328 0.182-0.227 0.076-0.319-0.38-0.547-0.13-0.091 0.243 0.244 0.304 0.35 0.442 0.121 0.175 0.205 0.418 0.144 0.638-0.091 0.228-0.304 0.456-0.57 0.472-0.076-0.229 0.266-0.221 0.366-0.38 0.044-0.069 0.105-0.183 0-0.244-0.13-0.122-0.237 0.076-0.329 0.115-0.052 0.06-0.158 0.037-0.197-0.039 0.121-0.159 0.274-0.265 0.342-0.456-0.023-0.106-0.159-0.19-0.25-0.129-0.152 0.113-0.229 0.487-0.48 0.364 0.023-0.235 0.296-0.425 0.167-0.653-0.09-0.015-0.181-0.06-0.257 0.015-0.053 0.183-0.061 0.426-0.274 0.494-0.122-0.19 0.106-0.486-0.054-0.676-0.076-0.015-0.205-0.054-0.25 0.037 0.052 0.161-0.024 0.313-0.077 0.457-0.357 0.053-0.105-0.563-0.494-0.494-0.174 0.121 0.039 0.341 0.024 0.532 0.197 0.35 0.623 0.304 0.927 0.494 0.174 0.145 0.502 0.16 0.532 0.434-0.061 0.075-0.137 0.197-0.258 0.144-0.274-0.038 0.014-0.441-0.313-0.366-0.136 0.077-0.113 0.206-0.143 0.312-0.07-0.075-0.099-0.19-0.077-0.288l-0.145-0.024c-0.137 0.046-0.129 0.214-0.129 0.351 0.092 0.213 0.335 0.281 0.533 0.349l-0.246 0.145h-0.666c-0.039 0.145 0.053 0.251 0.106 0.38 0.152 0.015 0.259-0.03 0.387 0.038-0.03 0.144-0.258 0.015-0.326 0.107 0.046 0.486 0.509 0.137 0.822 0.243l0.068-0.076c0.098 0 0.197-0.008 0.258 0.091 0.038 0.076 0.015 0.182-0.023 0.259-0.122 0.357-0.502 0.502-0.851 0.508 0.007 0.07 0.114 0.07 0.106 0.145-0.092 0.084-0.213 0.107-0.327 0.129l0.091 0.145-0.258 0.144 0.053 0.145c-0.16 0.16-0.251 0.38-0.236 0.624 0 0 0.042 0.677 0.091 0.859-0.631 1.155-1.163 2.356-1.657 3.573 0.358 0.13 0.22-0.388 0.509-0.433l0.533-1.209c0.349-0.517 0.66-1.073 1.071-1.551 0.373 0.296 0.715 0.638 1.095 0.95 0 0 0.552 0.363 0.533 1.422 0.029 0.304 0.007 0.623 0.015 0.935l1.171 1.278 0.052 2.197z" id="path3218"/>
      </g>
    </g>
    <g transform="matrix(3.5378 0 0 3.5276 1.623 9.3063)" id="g3220">
      <g transform="translate(61.463 21.817)" stroke-width=".95844" id="g3222">
        <path d="m0 0h-0.12c-0.541 0.491-1.027 0.92-1.549 1.435 0.035-0.156 0.06-0.758 0.06-0.758l1.398-1.059h2.205l-0.073 0.188h3.837l-0.096-0.188h2.247c0.53 0.323 0.946 0.633 1.47 0.973 0 0-0.014 0.661 0.088 0.826-0.549-0.52-1.096-1.034-1.672-1.493" id="path3224"/>
      </g>
    </g>
    <g transform="matrix(3.5378 0 0 3.5276 1.623 9.3063)" id="g3226">
      <g transform="translate(59.663 23.383)" stroke-width=".95844" id="g3228">
        <path d="m0 0c0.639 1.133 1.163 2.35 1.657 3.559-0.349 0.122-0.19-0.404-0.486-0.419-0.38-0.98-0.988-1.885-1.589-2.737h-0.053l-1.018 0.936c-0.689 0.526-0.499 1.447-0.499 1.447s0.025 0.475-0.019 0.917l-1.133 1.277-0.016 2.129h-0.144c-0.099-0.167 0.054-0.388-0.129-0.502l-0.023-2.174c0.479-0.138 0.236-0.752 0.312-1.072-0.084-0.312 0.114-0.692-0.13-0.935-0.061-0.015-0.167 0.045-0.182-0.053-0.076-1.126 0.51-2.016 0.844-2.997-0.023-0.189 0.068-0.479-0.144-0.599h-0.129c-0.054-0.13 0.182-0.313 0-0.403-0.054-0.145 0.189-0.32 0-0.435 0.098-0.592 0.676-0.988 0.927-1.513-0.114-0.106-0.221-0.25-0.289-0.387 0.258-0.053 0.691 0.137 0.836-0.16 0.015-0.121-0.084-0.198-0.182-0.22-0.517-0.008-1.08-0.037-1.567-0.182-0.235-0.152-0.38-0.586-0.365-0.867 0.122-0.198-0.099-0.403 0.069-0.532 0.38-0.054 0.167 0.525 0.456 0.547 0.152-0.19-0.25-0.593 0.183-0.547 0.174 0.151 0.022 0.516 0.296 0.547 0.167-0.159-0.296-0.646 0.198-0.532 0.144 0.228 0.076 0.479 0.235 0.699 0.062 0 0.122 0.076 0.167 0l0.054-0.061-0.13-0.563c0.039-0.106 0.168-0.098 0.244-0.09 0.167 0.151 0.015 0.562 0.304 0.547 0.145-0.19-0.311-0.646 0.182-0.532 0.1 0.175 0.115 0.373 0.152 0.57-0.106 0.152-0.212 0.479-0.167 0.646 0.054 0.091 0.115 0.205 0.221 0.235 0.144 0.047 0.297 0.016 0.403-0.106 0.122-0.098 0.076-0.251 0.053-0.365-0.107-0.129-0.228-0.418-0.259-0.577 0.068-0.137 0-0.395 0.206-0.418 0.076-0.023 0.152 0.029 0.159 0.09 0 0.138-0.197 0.411 0.077 0.472 0.091 0 0.182-0.037 0.221-0.122 0.052-0.174-0.191-0.326 0-0.44 0.387-0.054 0.121 0.54 0.432 0.532 0.092-0.152-0.006-0.32-0.052-0.457 0.046-0.091 0.151-0.083 0.219-0.06 0.206 0.121 0.016 0.638 0.343 0.479 0-0.168-0.16-0.388 0-0.494 0.304-0.031 0.19 0.334 0.296 0.494 0.03 0.342-0.159 0.782-0.441 0.942-0.319 0.167-0.812 0-1.056 0.29 0.083 0.402 0.539 0.205 0.836 0.311 0.083 0.114 0.296 0.259 0.167 0.434-0.045 0.258-0.418 0.03-0.509 0.204 0.099 0.069 0.243 0.024 0.364 0.039 0.031 0.083-0.052 0.205-0.075 0.289h-0.585l0.022 0.624c-0.357 0.052-0.472-0.426-0.692-0.533-0.068 0.083-0.106 0.228-0.038 0.327 0.236 0.349 0.627 0.627 0.946 0.84-0.243 0.168 0.297 0.403 0.02 0.475 0.061 0.115 0.04 0.261 0.072 0.365 0 0-0.031 0.62-0.072 0.821" id="path3230"/>
      </g>
    </g>
    <g transform="matrix(3.5378 0 0 3.5276 1.623 9.3063)" id="g3232">
      <g transform="translate(62.952 17.972)" stroke-width=".95844" id="g3234">
        <path d="m0 0s-0.061-0.085 0.053-0.076h0.171s0.033-0.133 0.228-0.129h0.209l0.066-0.09s0.024-0.061 0.058 0l0.018 0.086s0.006 0.062 0.086 0.071c0.326 0.039 0.748-0.138 1.037 0.075 0.297 0.091 0.684 0.076 0.95-0.053 0.212-0.07 0.715-0.023 0.966 0.22 0.326 0.243 0.569 0.614 0.639 0.981-0.106 0.235-0.106 0.48 0 0.715-0.084 0.167-0.114 0.41-0.252 0.51h-0.394c-0.062 0-0.013-0.058-0.013-0.058 0.023-0.114 0.24-0.103 0.263-0.27 0.031-0.402-0.425-0.63-0.714-0.767l-1.475 0.076c-0.069 0.197-0.031 0.448-0.038 0.669-0.115 0.114-0.115 0.266-0.26 0.35h-0.414c-0.062-0.015 0-0.048 0-0.048 0.408-0.356 0.27-0.697 0.27-0.697-0.167-0.556-0.775-0.814-1.147-1.248 0 0-0.302-0.194-0.307-0.317" id="path3236"/>
      </g>
    </g>
    <g transform="matrix(3.5378 0 0 3.5276 1.623 9.3063)" id="g3238">
      <g transform="translate(64.187 19.354)" stroke-width=".95844" id="g3240">
        <path fill="#231f20" d="m0 0c-0.206 0.121-0.541 0.023-0.678 0.235l-0.03 0.419c-0.113 0.015-0.228-0.076-0.243-0.182 0.038-0.176-0.068-0.343 0.023-0.495 0.213-0.083 0.381-0.281 0.615-0.312z" id="path3242"/>
      </g>
    </g>
    <g transform="matrix(3.5378 0 0 3.5276 1.623 9.3063)" id="g3244">
      <g transform="translate(66.064 20.175)" stroke-width=".95844" id="g3246">
        <path fill="#231f20" d="m0 0c0.336-0.122 0.244-0.533 0.494-0.715-0.113-0.182-0.365-0.114-0.562-0.129-0.023 0.136 0.023 0.289-0.023 0.456-0.076 0.243-0.169 0.266-0.367 0.413-0.097 0.039-0.046 0.081-0.046 0.081h0.344s0.069 0.016 0.16-0.106" id="path3248"/>
      </g>
    </g>
    <g transform="matrix(3.5378 0 0 3.5276 1.623 9.3063)" id="g3254"/>
    <g transform="matrix(3.5378 0 0 3.5276 1.623 9.3063)" id="g3260"/>
    <g transform="matrix(3.5378 0 0 3.5276 1.623 9.3063)" id="g3272"/>
    <g transform="matrix(3.5378 0 0 3.5276 1.623 9.3063)" id="g3278">
      <g transform="translate(67.467 20.586)" stroke-width=".95844" id="g3280">
        <path transform="matrix(.28266 0 0 .28348 -67.925 -23.224)" d="m225.03 81.938s-1.6982 0.76729 0 1.6562h15.281c1.6168-0.85721 0-1.6562 0-1.6562zm0.15625 0.3125h1.625l0.46875 1.0312h-2.0938c-1.0401-0.53972 0-1.0312 0-1.0312zm4.8125 0h2.4688l0.46875 1.0312h-2.4688zm5.625 0h2.4688l0.5 1.0312h-2.47z" id="path3282"/>
      </g>
    </g>
    <g transform="matrix(3.5378 0 0 3.5276 1.623 9.3063)" id="g3308">
      <g transform="translate(66.844 20.681)" stroke-width=".95844" id="g3310">
        <path fill="#fff" d="m0 0 0.139 0.29" id="path3312"/>
      </g>
    </g>
    <g transform="matrix(3.5378 0 0 3.5276 1.623 9.3063)" id="g3320">
      <g transform="translate(65.248 20.681)" stroke-width=".95844" id="g3322">
        <path fill="#fff" d="m0 0 0.139 0.29" id="path3324"/>
      </g>
    </g>
    <g transform="matrix(3.5378 0 0 3.5276 1.623 9.3063)" id="g3332">
      <g transform="translate(63.651 20.681)" stroke-width=".95844" id="g3334">
        <path fill="#fff" d="m0 0 0.138 0.29" id="path3336"/>
      </g>
    </g>
  </g>
  <g transform="matrix(3.5378 0 0 3.5276 -3.0209 -5.0843)" id="g3338"/>
  <g transform="matrix(3.5378 0 0 3.5276 -3.0209 -5.0843)" id="g3344"/>
  <g transform="matrix(3.5378 0 0 3.5276 -3.0209 -5.0843)" id="g3350"/>
  <g transform="matrix(3.5378 0 0 3.5276 -3.0209 -5.0843)" id="g3358"/>
  <g transform="matrix(3.5378 0 0 3.5276 -3.0209 -5.0843)" id="g3364"/>
  <g transform="matrix(3.5378 0 0 3.5276 -3.0209 -5.0843)" id="g3368"/>
  <g transform="matrix(3.5378 0 0 3.5276 -3.0209 -5.0843)" id="g3372"/>
  <g transform="matrix(3.5378 0 0 3.5276 -3.0209 -5.0843)" id="g3378"/>
  <g transform="matrix(3.5378 0 0 3.5276 -3.0209 -5.0843)" id="g3384"/>
  <g transform="matrix(3.5378 0 0 3.5276 -3.0209 -5.0843)" id="g3390"/>
  <g transform="matrix(3.5378 0 0 3.5276 -3.0209 -5.0843)" id="g3396"/>
  <g transform="matrix(3.5378 0 0 3.5276 -3.0209 -5.0843)" id="g3402"/>
  <g transform="matrix(3.5378 0 0 3.5276 -3.0209 -5.0843)" id="g3408"/>
  <g transform="matrix(3.5378 0 0 3.5276 -3.0209 -5.0843)" id="g3414"/>
  <g transform="matrix(3.5378 0 0 3.5276 -3.0209 -5.0843)" id="g3420"/>
  <g transform="matrix(3.5378 0 0 3.5276 -3.0209 -5.0843)" id="g3424"/>
  <g transform="matrix(3.5378 0 0 3.5276 -3.0209 -5.0843)" id="g3428"/>
  <g transform="matrix(3.5378 0 0 3.5276 -3.0209 -5.0843)" id="g3434"/>
  <g transform="matrix(3.5378 0 0 3.5276 -3.0209 -5.0843)" id="g3440"/>
  <g transform="matrix(3.5378 0 0 3.5276 -3.0209 -5.0843)" id="g3446"/>
  <g transform="matrix(3.5378 0 0 3.5276 -3.0209 -5.0843)" id="g3450"/>
  <g transform="matrix(3.5378 0 0 3.5276 -3.0209 -5.0843)" id="g3456"/>
  <g transform="matrix(3.5378 0 0 3.5276 -3.0209 -5.0843)" id="g3460"/>
  <g transform="matrix(3.5378 0 0 3.5276 -3.0209 -5.0843)" id="g3466"/>
  <g transform="matrix(3.5378 0 0 3.5276 -3.0209 -5.0843)" id="g3470"/>
  <g transform="matrix(3.5378 0 0 3.5276 -3.0209 -5.0843)" id="g3478"/>
  <g transform="matrix(3.5378 0 0 3.5276 -3.0209 -5.0843)" id="g3484"/>
  <g transform="matrix(3.5378 0 0 3.5276 -3.0209 -5.0843)" id="g3490"/>
  <g transform="matrix(3.5378 0 0 3.5276 -3.0209 -5.0843)" id="g3494"/>
  <g transform="matrix(3.5378 0 0 3.5276 -3.0209 -5.0843)" id="g3500"/>
  <g transform="matrix(3.5378 0 0 3.5276 -3.0209 -5.0843)" id="g3510"/>
  <g transform="matrix(3.5378 0 0 3.5276 -3.0209 -5.0843)" id="g3516"/>
  <g transform="matrix(3.5378 0 0 3.5276 -3.0209 -5.0843)" id="g3520"/>
  <g transform="matrix(3.5378 0 0 3.5276 -3.0209 -5.0843)" id="g3524"/>
  <g transform="matrix(3.5378 0 0 3.5276 -3.0209 -5.0843)" id="g3530"/>
  <g transform="matrix(3.5378 0 0 3.5276 -3.0209 -5.0843)" id="g3536"/>
  <g transform="matrix(3.5378 0 0 3.5276 -3.0209 -5.0843)" id="g3542"/>
  <g transform="matrix(3.5378 0 0 3.5276 -3.0209 -5.0843)" id="g3548"/>
  <g transform="matrix(3.5378 0 0 3.5276 -3.0209 -5.0843)" id="g3554"/>
  <g transform="matrix(3.5378 0 0 3.5276 -3.0209 -5.0843)" id="g3560"/>
  <g transform="matrix(3.5378 0 0 3.5276 -3.0209 -5.0843)" id="g3566"/>
  <g transform="matrix(3.5378 0 0 3.5276 -3.0209 -5.0843)" id="g3572"/>
  <g transform="matrix(3.5378 0 0 3.5276 -3.0209 -5.0843)" id="g3582"/>
  <g transform="matrix(3.5378 0 0 3.5276 -3.0209 -5.0843)" id="g3588"/>
  <g transform="matrix(3.5378 0 0 3.5276 -3.0209 -5.0843)" id="g3624"/>
  <g transform="matrix(3.5275 0 0 3.5281 126.5 .50004)" fill="#ff8080" id="g3221">
    <path fill="#000" transform="matrix(.28348 0 0 .28344 -35.68 0)" d="m116.4 5.002-109.99 440h437.19l-110.01-440zm3.9062 4.9961h209.38l107.51 430h-424.39z" id="path3219"/>
  </g>
  <g stroke-width="1px" transform="translate(.64036 .50004)" aria-label="ONTARIO" id="text3238">
    <path d="m175.6 177.54q0 2.9851-0.70895 5.709-0.70896 2.7239-2.0149 4.403-2.0896 2.7985-6.0448 2.7985-2.6492 0-4.3657-1.0821-1.7164-1.0821-2.8358-3.3955-0.78359-1.6045-1.2687-3.8806-0.48507-2.3134-0.48507-4.5522 0-3.097 0.70895-5.7463 0.74627-2.6493 2.0149-4.4403 1.1194-1.4179 2.6492-2.0896 1.5672-0.70896 3.7313-0.70896 2.3881 0 4.0672 1.0821t2.8731 3.3955q0.78358 1.6791 1.2313 3.9179 0.44776 2.2388 0.44776 4.5896zm-3.9552 0q0-2.1269-0.37313-3.9179-0.37314-1.8284-1.1194-3.097-0.59701-0.97015-1.3806-1.4179-0.74627-0.44776-1.8657-0.52239-1.4552-0.0746-2.4254 0.67164-0.97015 0.74627-1.6045 2.4254-0.48508 1.1194-0.74627 2.7239-0.22388 1.5672-0.22388 3.1343 0 2.0149 0.37313 3.8806t1.1194 3.0597q0.59702 0.97015 1.4179 1.4552 0.8209 0.48507 2.0149 0.48507 1.3806 0 2.2761-0.74627 0.93283-0.74627 1.5672-2.4254 0.18657-0.48508 0.37314-1.1567 0.18656-0.70895 0.2985-1.4552 0.14926-0.78358 0.22388-1.5672 0.0746-0.78358 0.0746-1.5298z" id="path3244"/>
    <path d="m194.64 190-9.5522-16.94v16.94h-3.9552v-25h3.9552l9.1045 15.97v-15.97h3.9552v25z" id="path3246"/>
    <path d="m211.55 168.51v21.49h-3.9552v-21.493h-5.709v-3.51h15.448v3.5075z" id="path3249"/>
    <path d="m235.74 190-2.4627-7.0149h-7.7985l-2.47 7.01h-4.2164l8.6194-25h3.9179l8.6194 25zm-6.306-18.06-2.5746 7.0149h5z" id="path3251"/>
    <path d="m256.46 190-4.0298-10.896h-4.7388v10.9h-3.9552v-25h8.2463q1.4552 0 2.5 0.18657 1.0448 0.14925 1.9776 0.59701 0.8209 0.41045 1.4925 1.0821 0.70895 0.63433 1.194 1.4925 0.52239 0.8209 0.78358 1.791 0.29851 0.93284 0.29851 1.8657 0 1.0075-0.29851 1.9776-0.26119 0.93283-0.78358 1.791-0.48508 0.8209-1.2314 1.4925-0.70895 0.67164-1.5672 1.0448l4.4 11.68zm-0.18657-17.985q0-0.78359-0.41044-1.4925-0.41045-0.70896-1.1567-1.1194-0.48508-0.2612-0.89552-0.33582-0.41045-0.11194-1.3806-0.11194h-4.7388v6.1194h4.7388q0.93284 0 1.3433-0.0746 0.44776-0.0746 0.93284-0.33582 0.74627-0.41045 1.1567-1.1194 0.41044-0.74627 0.41044-1.5298z" id="path3253"/>
    <path d="m264.94 190v-25h4.0298v25z" id="path3255"/>
    <path d="m292.13 177.54q0 2.9851-0.70896 5.709-0.70895 2.7239-2.0149 4.403-2.0896 2.7985-6.0448 2.7985-2.6492 0-4.3657-1.0821-1.7164-1.0821-2.8358-3.3955-0.78358-1.6045-1.2687-3.8806-0.48507-2.3134-0.48507-4.5522 0-3.097 0.70895-5.7463 0.74627-2.6493 2.0149-4.4403 1.1194-1.4179 2.6492-2.0896 1.5672-0.70896 3.7314-0.70896 2.3881 0 4.0672 1.0821t2.8731 3.3955q0.78359 1.6791 1.2314 3.9179 0.44776 2.2388 0.44776 4.5896zm-3.9552 0q0-2.1269-0.37313-3.9179-0.37313-1.8284-1.1194-3.097-0.59702-0.97015-1.3806-1.4179-0.74627-0.44776-1.8657-0.52239-1.4552-0.0746-2.4254 0.67164-0.97015 0.74627-1.6045 2.4254-0.48508 1.1194-0.74627 2.7239-0.22388 1.5672-0.22388 3.1343 0 2.0149 0.37313 3.8806 0.37314 1.8657 1.1194 3.0597 0.59701 0.97015 1.4179 1.4552 0.82089 0.48507 2.0149 0.48507 1.3806 0 2.2761-0.74627 0.93284-0.74627 1.5672-2.4254 0.18656-0.48508 0.37313-1.1567 0.18657-0.70895 0.29851-1.4552 0.14925-0.78358 0.22388-1.5672 0.0746-0.78358 0.0746-1.5298z" id="path3257"/>
  </g>
  <g stroke-width="1px" aria-label="522" id="routenum">
    <path d="m168.75 338.54q0 11.83-3.5714 21.875t-9.8214 17.411q-6.25 7.3661-14.732 11.607-8.4822 4.2411-18.527 4.2411t-19.42-3.3482q-9.1518-3.3482-17.411-9.8214l14.062-15.179q5.5804 3.7946 10.268 5.5804 4.6875 1.7857 10.268 1.7857 6.0268 0 11.161-2.4554 5.1339-2.6786 8.7054-7.3661 3.7946-4.6875 5.8036-11.161 2.2321-6.4732 2.2321-14.286 0-12.277-5.5804-19.196-5.5804-6.9196-14.955-6.9196-9.8214 0-17.857 7.3661l-20.536-2.6786 3.7946-74.554h70.312v20.982h-50.446l-1.5625 31.473q5.5804-2.0089 8.9286-2.4554 3.5714-0.66964 7.8125-0.66964 9.1518 0 16.741 3.5714 7.5893 3.3482 12.946 9.8214 5.3571 6.25 8.2589 14.955 3.125 8.7054 3.125 19.42z" id="path212"/>
    <path d="m186.41 391q0.44643-7.5893 0.89286-13.17 0.66964-5.5804 1.3393-10.045 0.89286-4.4643 2.0089-8.4822 1.3393-4.2411 3.125-9.1518 9.1518-23.438 24.107-37.277 1.3393-1.1161 2.6786-2.2321 1.5625-1.3393 3.5714-2.9018 2.2322-1.5625 5.1339-3.7946 3.125-2.2321 7.5893-5.3571 7.3661-5.1339 9.8214-8.7054 2.6786-3.5714 2.6786-9.1518 0-4.2411-1.7857-8.0357-1.5625-3.7946-4.4643-6.6964-2.6786-2.9018-6.6964-4.4643-3.7946-1.7857-8.0357-1.7857-4.4643 0-8.2589 1.7857-3.7946 1.5625-6.6964 4.4643-2.6786 2.9018-4.4643 6.6964-1.5625 3.7946-1.5625 8.0357h-20.982q0.22322-8.7054 3.3482-16.295 3.3482-7.8125 8.9286-13.393 5.5804-5.8036 13.17-8.9286 7.5893-3.3482 16.518-3.3482 8.7054 0 16.071 3.3482 7.5893 3.3482 13.17 9.1518 5.8036 5.5804 8.9286 13.17 3.3482 7.5893 3.3482 16.295 0 17.857-12.723 29.464-1.1161 0.89286-2.4554 1.7857-1.1161 0.66964-2.2321 1.7857l-5.1339 3.7946-5.3571 3.5714-5.8036 4.2411q-3.5714 2.6786-7.1428 6.4732-3.3482 3.5714-6.6964 8.0357-3.125 4.2411-5.5804 9.1518-2.4554 4.6875-4.0178 9.375-1.3393 2.9018-2.0089 5.3571-0.44643 2.2321-1.3393 6.25h60.491v20.982z" id="path214"/>
    <path d="m287.55 391q0.44643-7.5893 0.89285-13.17 0.66965-5.5804 1.3393-10.045 0.89286-4.4643 2.0089-8.4822 1.3393-4.2411 3.125-9.1518 9.1518-23.438 24.107-37.277 1.3393-1.1161 2.6786-2.2321 1.5625-1.3393 3.5714-2.9018 2.2321-1.5625 5.1339-3.7946 3.125-2.2321 7.5893-5.3571 7.3661-5.1339 9.8214-8.7054 2.6786-3.5714 2.6786-9.1518 0-4.2411-1.7857-8.0357-1.5625-3.7946-4.4643-6.6964-2.6786-2.9018-6.6964-4.4643-3.7946-1.7857-8.0357-1.7857-4.4643 0-8.2589 1.7857-3.7946 1.5625-6.6964 4.4643-2.6786 2.9018-4.4643 6.6964-1.5625 3.7946-1.5625 8.0357h-20.98q0.22321-8.7054 3.3482-16.295 3.3482-7.8125 8.9286-13.393 5.5804-5.8036 13.17-8.9286 7.5893-3.3482 16.518-3.3482 8.7054 0 16.071 3.3482 7.5893 3.3482 13.17 9.1518 5.8036 5.5804 8.9286 13.17 3.3482 7.5893 3.3482 16.295 0 17.857-12.723 29.464-1.1161 0.89286-2.4554 1.7857-1.1161 0.66964-2.2322 1.7857l-5.1339 3.7946-5.3572 3.5714-5.8036 4.2411q-3.5714 2.6786-7.1429 6.4732-3.3482 3.5714-6.6964 8.0357-3.125 4.2411-5.5804 9.1518-2.4554 4.6875-4.0179 9.375-1.3393 2.9018-2.0089 5.3571-0.44642 2.2321-1.3393 6.25h60.491v20.982z" id="path216"/>
  </g>
</svg>