<?xml version="1.0" encoding="UTF-8" standalone="no"?>
<!-- Created with Inkscape (http://www.inkscape.org/) -->
<svg id="svg4315" xmlns:rdf="http://www.w3.org/1999/02/22-rdf-syntax-ns#" xmlns="http://www.w3.org/2000/svg" xml:space="preserve" height="600" width="450" version="1.1" xmlns:cc="http://creativecommons.org/ns#" xmlns:dc="http://purl.org/dc/elements/1.1/"><metadata id="metadata4321"><rdf:RDF><cc:Work rdf:about=""><dc:format>image/svg+xml</dc:format><dc:type rdf:resource="http://purl.org/dc/dcmitype/StillImage"/><dc:title/></cc:Work></rdf:RDF></metadata><defs id="defs4319"><clipPath id="clipPath4605" clipPathUnits="userSpaceOnUse"><path id="path4607" d="m 242.991,626.004 54.018,0 0,72 -54.018,0 0,-72 z"/></clipPath></defs><g id="g4325" transform="matrix(1.25,0,0,-1.25,-303.74422,1382.505)"><g id="g4601" transform="matrix(6.6655557,0,0,6.6670371,-1376.704,-3547.5879)"><g id="g4603" clip-path="url(#clipPath4605)"><g id="g4609" transform="translate(292.41499,626.0215)"><path id="path4611" fill-rule="nonzero" fill="#FFF" d="m 0,0 c 2.513,0 4.569,2.056 4.569,4.569 l 0,62.819 c 0,2.513 -2.056,4.57 -4.569,4.57 l -44.83,0 c -2.513,0 -4.569,-2.057 -4.569,-4.57 l 0,-62.819 C -49.399,2.056 -47.343,0 -44.83,0 L 0,0 z"/></g><g id="g4613" transform="translate(247.5854,626)"><path id="path4615" fill-rule="nonzero" fill="#231f20" d="m 0,0 c -2.525,0.001 -4.59,2.066 -4.59,4.591 l 0,62.819 C -4.59,69.935 -2.525,72 0,72 l 44.83,0 c 2.524,0 4.589,-2.065 4.589,-4.59 l 0,-62.819 C 49.419,2.066 47.354,0.001 44.83,0 l 0,0.021 0,0.022 c 2.501,0.004 4.543,2.047 4.547,4.548 l 0,62.819 c -0.004,2.501 -2.046,4.544 -4.547,4.548 L 0,71.958 C -2.501,71.954 -4.544,69.911 -4.548,67.41 l 0,-62.819 C -4.544,2.09 -2.501,0.047 0,0.043 l 44.83,0 0,-0.022 L 44.83,0 0,0 z"/></g><g id="g4617" transform="translate(244.22169,684.0674)"><path id="path4619" fill-rule="nonzero" fill="#00674e" d="m 0,0 0,-53.48 c 0,-1.861 1.509,-3.37 3.37,-3.37 l 44.83,0 c 1.861,0 3.369,1.509 3.369,3.37 L 51.569,0 0,0 z m 51.569,7.436 0,1.904 c 0,1.861 -1.508,3.369 -3.369,3.369 l -44.83,0 C 1.509,12.709 0,11.201 0,9.34 l 0,-1.904 51.569,0 z"/></g><g id="g4621" transform="translate(269.19141,644.13091)"><path id="path4623" fill-rule="nonzero" fill="#FFF" d="M 0,0 -0.122,-0.183 C 0.421,-0.309 0.887,-0.456 1.401,-0.67 1.449,-0.172 1.57,0.393 1.511,0.894 1.444,1.463 1.329,2.009 1.185,2.563 0.944,3.492 0.634,4.982 1.736,5.514 2.293,5.781 2.727,5.387 2.999,4.932 3.298,4.435 3.658,4.03 4.204,3.808 4.681,3.613 5.206,3.667 5.696,3.503 6.226,3.325 6.61,2.896 6.976,2.498 c 0.651,0.65 1.201,0.949 2.132,0.975 0.791,0.02 1.689,0.096 2.376,0.517 0.736,0.451 1.18,1.208 1.946,1.626 0.712,0.39 1.635,0.317 2.38,0.69 -0.685,-0.059 -0.979,0.601 -1.378,1.041 -0.442,0.486 -1.033,0.61 -1.645,0.733 -0.287,0.058 -0.551,0.07 -0.755,0.297 -0.187,0.209 -0.251,0.562 -0.059,0.801 0.334,0.418 1.007,0.691 1.512,0.831 0.651,0.181 1.2,0.362 1.753,0.758 0.489,0.349 0.832,0.844 1.392,1.106 1.049,0.489 2.276,1.208 2.631,2.412 0.161,0.546 0.265,1.047 0.296,1.616 -0.48,-0.522 -1.638,-0.787 -1.932,0.099 -0.34,1.023 0.229,1.582 0.66,2.444 0.746,1.495 -0.338,3.99 1.607,4.768 -0.677,0.356 -1.435,0.668 -2.222,0.576 -0.905,-0.107 -1.608,-0.519 -2.401,-0.946 -0.537,-0.29 -1.542,-0.946 -2.172,-0.586 -0.798,0.455 -0.482,1.569 0.398,1.687 -1.248,0.68 -2.231,-0.004 -3.324,-0.649 -0.455,-0.268 -0.988,-0.132 -1.275,0.297 -0.41,0.615 0.098,1.046 0.236,1.643 0.293,1.271 -0.238,2.147 -0.774,3.263 -0.281,0.587 -0.438,1.096 -0.438,1.75 0,0.644 0.39,1.059 0.884,1.373 -0.971,0.176 -1.894,-0.229 -2.625,-0.87 -0.905,-0.791 -1.725,0.061 -2.14,0.84 -0.456,0.854 -0.501,1.849 -0.962,2.71 -0.48,0.896 -1.426,1.17 -2.011,1.949 -0.34,-0.472 -0.806,-0.683 -1.265,-1.01 -0.439,-0.312 -0.748,-0.751 -0.958,-1.243 -0.325,-0.761 -0.43,-1.585 -0.775,-2.344 -0.448,-0.984 -1.283,-1.561 -2.281,-0.82 -0.71,0.526 -1.588,1.079 -2.519,0.788 0.535,-0.312 0.826,-0.702 0.914,-1.341 0.081,-0.585 -0.144,-1.168 -0.39,-1.681 -0.526,-1.096 -1.135,-2.008 -0.844,-3.269 0.136,-0.588 0.579,-1.015 0.313,-1.635 -0.202,-0.473 -0.836,-0.691 -1.283,-0.428 -1.107,0.653 -2.105,1.368 -3.371,0.677 0.868,-0.109 1.173,-1.245 0.399,-1.687 -0.602,-0.343 -1.583,0.25 -2.096,0.533 -0.777,0.428 -1.509,0.884 -2.404,0.99 -0.829,0.097 -1.608,-0.189 -2.326,-0.567 1.965,-0.787 0.847,-3.187 1.596,-4.684 0.43,-0.86 0.975,-1.418 0.721,-2.437 -0.213,-0.854 -1.514,-0.873 -1.952,-0.19 0.069,-1.306 0.506,-2.456 1.561,-3.285 0.477,-0.374 1.092,-0.502 1.57,-0.845 0.525,-0.374 0.969,-0.837 1.482,-1.232 0.478,-0.368 1.126,-0.353 1.655,-0.589 0.471,-0.209 1.305,-0.436 1.409,-1.025 0.138,-0.789 -0.816,-0.827 -1.343,-0.932 -0.621,-0.125 -1.049,-0.472 -1.468,-0.932 -0.361,-0.397 -0.531,-0.807 -1.149,-0.755 0.757,-0.354 1.581,-0.364 2.345,-0.67 0.755,-0.304 1.274,-1.068 1.893,-1.575 0.616,-0.503 1.614,-0.543 2.373,-0.584 0.665,-0.035 1.718,-0.097 2.04,-0.827 0.625,0.999 1.831,0.965 2.828,1.327 0.961,0.35 1.114,1.841 2.234,1.841 C 0.624,5.818 0.5,5.046 0.402,4.655 0.267,4.114 0.167,3.597 0.237,3.037 0.379,1.906 0.648,1.018 0,0"/></g><g id="g4625" transform="translate(253.50101,643.8174)"><path id="path4627" fill-rule="nonzero" fill="#FFF" d="m 0,0 c 0,0 -0.706,0.687 -1.551,1.715 l -0.396,-2.407 -2.467,0.091 c 1.198,-1.397 3.624,-3.747 3.624,-3.747 L -2.19,-2.117 0,0 z"/></g><g id="g4629" transform="translate(285.7627,644.33009)"><path id="path4631" fill-rule="nonzero" fill="#FFF" d="M 0,0 C 0,0 -5.848,-6.353 -15.597,-6.353 -25.347,-6.353 -31.224,0 -31.224,0 l -2.711,-2.63 c 0,0 5.964,-7.503 18.338,-7.503 12.373,0 18.308,7.503 18.308,7.503 0,0 -1.818,1.706 -2.711,2.63"/></g><g id="g4633" transform="translate(252.6508,640.44431)"><path id="path4635" fill-rule="nonzero" fill="#FFF" d="m 0,0 1.797,-2.314 0.41,0.488 C 1.625,-1.446 0,0 0,0"/></g><g id="g4637" transform="translate(286.8008,643.8174)"><path id="path4639" fill-rule="nonzero" fill="#FFF" d="m 0,0 c 0,0 0.707,0.687 1.552,1.715 l 0.395,-2.407 2.468,0.091 C 3.217,-1.998 0.79,-4.348 0.79,-4.348 L 2.191,-2.117 0,0 z"/></g><g id="g4641" transform="translate(287.6514,640.44431)"><path id="path4643" fill-rule="nonzero" fill="#FFF" d="m 0,0 -1.797,-2.314 -0.409,0.488 C -1.625,-1.446 0,0 0,0"/></g><g id="g4645" transform="translate(260.9653,638.4678)"><path id="path4647" fill-rule="nonzero" fill="#00674e" d="M 0,0 -0.561,-0.636 -0.031,-0.85 0,0 z m -0.089,-2.145 0.036,0.809 -0.838,0.338 -0.535,-0.606 -0.447,0.181 1.956,2.203 0.43,-0.173 -0.154,-2.932 -0.448,0.18 z"/></g><g id="g4649" transform="translate(262.6391,635.7422)"><path id="path4651" fill-rule="nonzero" fill="#00674e" d="M 0,0 0.681,2.692 1.112,2.583 0.533,0.296 1.792,-0.022 1.689,-0.427 0,0 z"/></g><g id="g4653" transform="translate(267.32179,636.9277)"><path id="path4655" fill-rule="nonzero" fill="#00674e" d="m 0,0 -0.004,0.1 -0.044,0.094 -0.089,0.077 -0.14,0.042 -0.624,0.08 -0.085,-0.671 0.571,-0.073 0.146,0.02 0.128,0.083 0.096,0.119 L 0,0 m -0.113,-1.278 -0.009,0.142 -0.064,0.152 -0.125,0.127 -0.195,0.069 -0.536,0.068 -0.097,-0.76 0.66,-0.083 0.129,0.01 0.112,0.059 0.083,0.096 0.042,0.12 M 0.34,-1.343 C 0.328,-1.437 0.298,-1.526 0.251,-1.612 L 0.065,-1.837 C -0.012,-1.9 -0.101,-1.947 -0.202,-1.979 -0.303,-2.012 -0.413,-2.021 -0.531,-2.005 l -1.105,0.14 0.349,2.755 1.028,-0.131 C -0.156,0.746 -0.066,0.724 0.011,0.691 L 0.209,0.576 0.342,0.43 0.419,0.269 0.453,0.106 0.451,-0.039 0.401,-0.228 0.318,-0.37 0.22,-0.475 0.122,-0.545 0.043,-0.587 l -0.045,-0.017 0.055,-0.044 0.08,-0.074 0.086,-0.104 0.074,-0.137 0.047,-0.172 0,-0.208"/></g><g id="g4657" transform="translate(268.9492,634.7402)"><path id="path4659" fill-rule="nonzero" fill="#00674e" d="M 0,0 0.038,2.776 1.695,2.754 1.689,2.31 0.477,2.326 0.468,1.675 1.299,1.664 1.293,1.22 0.461,1.23 0.451,0.438 1.734,0.422 1.727,-0.023 0,0 z"/></g><g id="g4661" transform="translate(273.248,636.9082)"><path id="path4663" fill-rule="nonzero" fill="#00674e" d="M 0,0 -0.034,0.11 -0.109,0.207 -0.217,0.273 -0.348,0.29 -0.967,0.229 -0.9,-0.453 l 0.595,0.059 0.115,0.034 0.103,0.08 0.07,0.122 L 0,0 m 0.228,-1.997 -0.58,1.14 -0.504,-0.049 0.116,-1.186 -0.443,-0.043 -0.27,2.763 1.083,0.106 C -0.262,0.745 -0.159,0.733 -0.063,0.701 0.034,0.669 0.121,0.621 0.196,0.558 L 0.381,0.33 C 0.429,0.241 0.458,0.146 0.468,0.046 L 0.466,-0.133 0.431,-0.287 0.373,-0.417 0.302,-0.522 0.098,-0.708 0.733,-1.948 0.228,-1.997 z"/></g><g id="g4665" transform="translate(275.8125,637.7021)"><path id="path4667" fill-rule="nonzero" fill="#00674e" d="m 0,0 0.503,-2.301 -0.463,-0.101 -0.503,2.3 -0.62,-0.135 -0.09,0.412 1.7,0.371 L 0.617,0.135 0,0 z"/></g><g id="g4669" transform="translate(278.5947,638.1748)"><path id="path4671" fill-rule="nonzero" fill="#00674e" d="M 0,0 0.008,-0.848 0.545,-0.652 0,0 z M 1.367,-1.654 0.855,-1.028 0.005,-1.337 0.012,-2.146 -0.442,-2.31 -0.46,0.637 -0.024,0.795 1.821,-1.489 1.367,-1.654 z"/></g><g id="g4673" transform="translate(248.7041,689.27)"><path id="path4675" fill-rule="nonzero" fill="#00674e" d="m 0,0 0,-3.768 -0.758,0 0,3.768 -1.015,0 0,0.674 2.785,0 L 1.012,0 0,0 z"/></g><g id="g4677" transform="translate(252.81931,688.7178)"><path id="path4679" fill-rule="nonzero" fill="#00674e" d="m 0,0 -0.038,0.181 -0.104,0.165 -0.16,0.121 -0.207,0.048 -0.995,0 0,-1.097 0.957,0 0.188,0.038 0.176,0.112 0.132,0.182 C -0.017,-0.178 0,-0.095 0,0 m 0.052,-3.216 -0.746,1.906 -0.81,0 0,-1.906 -0.712,0 0,4.442 1.741,0 c 0.174,0 0.335,-0.033 0.485,-0.1 C 0.159,1.06 0.289,0.97 0.399,0.857 0.509,0.745 0.595,0.614 0.658,0.466 0.72,0.317 0.752,0.162 0.752,0 c 0,-0.102 -0.01,-0.197 -0.031,-0.285 L 0.642,-0.525 0.529,-0.722 0.399,-0.879 C 0.295,-0.985 0.177,-1.073 0.046,-1.143 l 0.819,-2.073 -0.813,0 z"/></g><g id="g4681" transform="translate(256.3183,688.7354)"><path id="path4683" fill-rule="nonzero" fill="#00674e" d="m 0,0 -0.451,-1.278 0.914,0 L 0,0 z m 1.154,-3.234 -0.431,1.221 -1.446,0 -0.431,-1.221 -0.772,0 1.582,4.442 0.74,0 1.53,-4.442 -0.772,0 z"/></g><g id="g4685" transform="translate(261.39349,685.5015)"><path id="path4687" fill-rule="nonzero" fill="#00674e" d="m 0,0 -1.617,2.809 0,-2.809 -0.711,0 0,4.442 0.654,0 1.633,-2.842 0,2.842 0.712,0 L 0.671,0 0,0 z"/></g><g id="g4689" transform="translate(265.96581,686.8232)"><path id="path4691" fill-rule="nonzero" fill="#00674e" d="m 0,0 c 0,-0.198 -0.038,-0.382 -0.114,-0.551 -0.076,-0.169 -0.181,-0.314 -0.314,-0.436 -0.133,-0.123 -0.29,-0.219 -0.47,-0.288 -0.18,-0.07 -0.374,-0.104 -0.582,-0.104 -0.161,0 -0.306,0.017 -0.437,0.05 -0.131,0.034 -0.249,0.079 -0.354,0.133 -0.106,0.055 -0.199,0.117 -0.28,0.187 l -0.211,0.214 c -0.141,0.171 -0.247,0.365 -0.318,0.581 0.133,0.047 0.251,0.088 0.356,0.125 l 0.13,0.046 0.113,0.04 0.107,0.038 c 0.032,-0.127 0.087,-0.242 0.165,-0.344 l 0.115,-0.126 0.156,-0.111 0.203,-0.079 c 0.075,-0.019 0.16,-0.028 0.255,-0.028 0.092,0 0.183,0.014 0.271,0.045 l 0.236,0.128 0.165,0.206 c 0.041,0.081 0.062,0.172 0.062,0.274 0,0.108 -0.023,0.199 -0.068,0.273 L -0.993,0.46 c -0.074,0.05 -0.159,0.091 -0.255,0.122 -0.095,0.03 -0.193,0.056 -0.295,0.078 -0.101,0.021 -0.2,0.039 -0.296,0.054 -0.096,0.016 -0.184,0.034 -0.263,0.056 -0.095,0.026 -0.187,0.074 -0.278,0.143 -0.091,0.068 -0.171,0.15 -0.242,0.247 -0.07,0.096 -0.126,0.203 -0.169,0.321 -0.042,0.118 -0.063,0.238 -0.063,0.361 0,0.164 0.032,0.326 0.096,0.486 0.065,0.16 0.157,0.303 0.277,0.428 0.119,0.126 0.263,0.227 0.432,0.306 0.169,0.078 0.356,0.117 0.563,0.117 0.129,0 0.247,-0.014 0.354,-0.041 0.107,-0.027 0.204,-0.063 0.291,-0.108 L -0.61,2.876 -0.431,2.702 c 0.12,-0.141 0.214,-0.301 0.284,-0.481 L -0.865,2.001 -0.992,2.227 -1.074,2.311 -1.183,2.383 -1.319,2.434 -1.486,2.453 -1.725,2.405 -1.928,2.278 -2.068,2.099 -2.12,1.895 -2.078,1.678 -1.961,1.538 -1.781,1.452 -1.556,1.396 C -1.475,1.379 -1.389,1.363 -1.297,1.348 -1.206,1.333 -1.112,1.311 -1.018,1.284 -0.829,1.232 -0.669,1.155 -0.539,1.053 -0.409,0.951 -0.304,0.838 -0.224,0.716 -0.144,0.593 -0.087,0.469 -0.052,0.341 -0.017,0.214 0,0.101 0,0"/></g><path id="path4693" fill-rule="nonzero" fill="#00674e" d="m 266.72,687.694 1.487,0 0,-0.593 -1.487,0 0,0.593 z"/><g id="g4695" transform="translate(271.77831,685.9556)"><path id="path4697" fill-rule="nonzero" fill="#00674e" d="m 0,0 -0.188,-0.188 c -0.071,-0.061 -0.153,-0.117 -0.245,-0.165 -0.09,-0.048 -0.193,-0.086 -0.307,-0.115 -0.113,-0.029 -0.24,-0.044 -0.379,-0.044 -0.207,0 -0.391,0.036 -0.552,0.109 -0.162,0.072 -0.305,0.169 -0.427,0.289 -0.123,0.12 -0.227,0.26 -0.314,0.418 -0.086,0.158 -0.157,0.322 -0.211,0.493 -0.054,0.171 -0.093,0.342 -0.117,0.514 -0.024,0.171 -0.036,0.331 -0.036,0.48 0,0.148 0.012,0.306 0.037,0.475 0.025,0.169 0.065,0.337 0.12,0.504 0.055,0.166 0.126,0.327 0.211,0.481 0.086,0.154 0.191,0.29 0.314,0.408 0.124,0.117 0.266,0.211 0.427,0.282 0.161,0.07 0.343,0.105 0.548,0.105 0.139,0 0.266,-0.013 0.379,-0.04 0.114,-0.027 0.217,-0.063 0.307,-0.107 0.092,-0.045 0.174,-0.095 0.245,-0.15 L 0,3.575 C 0.126,3.436 0.221,3.278 0.286,3.101 L -0.396,2.834 -0.541,3.072 c -0.054,0.059 -0.127,0.114 -0.22,0.162 -0.091,0.048 -0.212,0.072 -0.358,0.072 -0.116,0 -0.219,-0.028 -0.31,-0.084 L -1.666,3.005 C -1.733,2.917 -1.79,2.816 -1.836,2.705 -1.883,2.592 -1.92,2.48 -1.949,2.367 -1.978,2.255 -1.999,2.147 -2.011,2.045 -2.024,1.943 -2.03,1.856 -2.03,1.785 c 0,-0.072 0.006,-0.16 0.017,-0.265 0.012,-0.105 0.032,-0.215 0.059,-0.331 0.028,-0.116 0.065,-0.232 0.11,-0.349 0.046,-0.116 0.102,-0.221 0.17,-0.314 0.067,-0.092 0.147,-0.167 0.239,-0.225 0.091,-0.058 0.196,-0.087 0.316,-0.087 l 0.191,0.023 0.155,0.059 0.121,0.084 0.092,0.098 c 0.061,0.077 0.108,0.163 0.141,0.26 L 0.286,0.512 C 0.221,0.321 0.126,0.15 0,0"/></g><g id="g4699" transform="translate(274.6992,688.7354)"><path id="path4701" fill-rule="nonzero" fill="#00674e" d="m 0,0 -0.451,-1.278 0.914,0 L 0,0 z m 1.154,-3.234 -0.431,1.221 -1.446,0 -0.431,-1.221 -0.772,0 1.582,4.442 0.741,0 1.529,-4.442 -0.772,0 z"/></g><g id="g4703" transform="translate(279.7744,685.5015)"><path id="path4705" fill-rule="nonzero" fill="#00674e" d="m 0,0 -1.616,2.809 0,-2.809 -0.712,0 0,4.442 0.653,0 1.635,-2.842 0,2.842 0.711,0 L 0.671,0 0,0 z"/></g><g id="g4707" transform="translate(283.1933,688.7354)"><path id="path4709" fill-rule="nonzero" fill="#00674e" d="m 0,0 -0.451,-1.278 0.913,0 L 0,0 z m 1.153,-3.234 -0.43,1.221 -1.447,0 -0.43,-1.221 -0.773,0 1.582,4.442 0.741,0 1.53,-4.442 -0.773,0 z"/></g><g id="g4711" transform="translate(288.291,687.7227)"><path id="path4713" fill-rule="nonzero" fill="#00674e" d="m 0,0 c 0,0.243 -0.022,0.449 -0.065,0.618 -0.043,0.168 -0.099,0.309 -0.167,0.421 -0.069,0.111 -0.146,0.199 -0.23,0.263 l -0.254,0.141 -0.236,0.057 -0.184,0.01 -0.437,0 0,-3.02 0.443,0 0.205,0.013 0.244,0.064 0.247,0.148 c 0.081,0.064 0.155,0.152 0.219,0.264 0.065,0.112 0.116,0.251 0.156,0.418 C -0.02,-0.436 0,-0.235 0,0 M 0.747,0 C 0.747,-0.343 0.706,-0.652 0.624,-0.927 0.542,-1.202 0.427,-1.435 0.278,-1.627 0.13,-1.818 -0.049,-1.966 -0.259,-2.068 -0.468,-2.17 -0.698,-2.221 -0.951,-2.221 l -1.333,0 0,4.442 1.39,0 c 0.128,0 0.256,-0.018 0.387,-0.055 C -0.377,2.13 -0.251,2.073 -0.13,1.997 -0.008,1.921 0.106,1.824 0.213,1.705 0.32,1.586 0.413,1.445 0.492,1.281 0.571,1.118 0.634,0.929 0.679,0.716 0.724,0.503 0.747,0.264 0.747,0"/></g><g id="g4715" transform="translate(291.72169,688.7354)"><path id="path4717" fill-rule="nonzero" fill="#00674e" d="m 0,0 -0.451,-1.278 0.913,0 L 0,0 z m 1.153,-3.234 -0.43,1.221 -1.447,0 -0.43,-1.221 -0.773,0 1.582,4.442 0.741,0 1.53,-4.442 -0.773,0 z"/></g><g id="g4719" transform="translate(264.62109,651.1709)"><path id="path4721" fill-rule="nonzero" fill="#00674e" d="m 0,0 0,13.578 -1.031,0 0,1.912 c 0.129,0 0.276,0.023 0.44,0.07 0.165,0.046 0.332,0.113 0.5,0.199 0.168,0.086 0.329,0.191 0.483,0.317 0.154,0.125 0.281,0.266 0.381,0.424 l 1.644,0 L 2.417,0 0,0 z"/></g><g id="g4723" transform="translate(276.8994,656.123)"><path id="path4725" fill-rule="nonzero" fill="#00674e" d="M 0,0 C 0,0.544 -0.067,0.993 -0.203,1.348 -0.34,1.702 -0.516,1.983 -0.731,2.191 -0.945,2.398 -1.182,2.544 -1.44,2.626 -1.697,2.708 -1.951,2.75 -2.202,2.75 -2.961,2.75 -3.532,2.503 -3.915,2.009 -4.298,1.515 -4.49,0.845 -4.49,0 c 0,-0.416 0.049,-0.792 0.145,-1.128 0.097,-0.337 0.24,-0.623 0.43,-0.859 0.189,-0.237 0.428,-0.419 0.714,-0.548 0.287,-0.129 0.62,-0.194 0.999,-0.194 0.251,0 0.505,0.041 0.762,0.124 0.258,0.082 0.495,0.225 0.709,0.429 0.215,0.204 0.391,0.484 0.528,0.838 C -0.067,-0.983 0,-0.537 0,0 m 2.525,-0.086 c 0,-0.573 -0.07,-1.098 -0.21,-1.574 C 2.176,-2.137 1.988,-2.563 1.752,-2.938 1.516,-3.314 1.239,-3.642 0.924,-3.921 0.609,-4.2 0.274,-4.434 -0.08,-4.62 -0.435,-4.806 -0.8,-4.943 -1.176,-5.033 c -0.376,-0.09 -0.739,-0.134 -1.091,-0.134 -0.322,0 -0.66,0.043 -1.014,0.129 -0.355,0.086 -0.704,0.216 -1.048,0.392 -0.344,0.175 -0.671,0.399 -0.983,0.671 -0.311,0.272 -0.586,0.596 -0.822,0.972 -0.236,0.376 -0.424,0.808 -0.563,1.295 -0.14,0.486 -0.21,1.027 -0.21,1.622 0,0.551 0.036,1.142 0.108,1.773 0.071,0.629 0.193,1.281 0.365,1.955 0.171,0.672 0.403,1.358 0.693,2.056 0.29,0.698 0.653,1.395 1.09,2.09 0.437,0.694 0.955,1.377 1.552,2.046 0.598,0.67 1.294,1.312 2.089,1.929 L 0.484,9.937 C 0.169,9.65 -0.151,9.354 -0.478,9.05 -0.804,8.746 -1.128,8.405 -1.45,8.029 -1.773,7.653 -2.093,7.229 -2.411,6.756 -2.729,6.284 -3.04,5.739 -3.341,5.124 l 0.193,0.054 c 0.08,0.013 0.183,0.026 0.312,0.037 0.129,0.011 0.298,0.016 0.505,0.016 0.558,0 1.125,-0.091 1.698,-0.274 C -0.06,4.774 0.46,4.474 0.93,4.055 1.398,3.636 1.782,3.088 2.079,2.411 2.376,1.734 2.525,0.902 2.525,-0.086"/></g></g></g></g></svg>