<?xml version="1.0" encoding="UTF-8" standalone="no"?>
<!-- Created with Inkscape (http://www.inkscape.org/) -->
<svg xmlns:dc="http://purl.org/dc/elements/1.1/" xmlns:cc="http://creativecommons.org/ns#" xmlns:rdf="http://www.w3.org/1999/02/22-rdf-syntax-ns#" xmlns:svg="http://www.w3.org/2000/svg" xmlns="http://www.w3.org/2000/svg" xmlns:sodipodi="http://sodipodi.sourceforge.net/DTD/sodipodi-0.dtd" xmlns:inkscape="http://www.inkscape.org/namespaces/inkscape" width="168.23mm" height="310mm" viewBox="0 0 168.23 310" version="1.1" id="svg8" inkscape:version="0.92.3 (2405546, 2018-03-11)" sodipodi:docname="Nova_Scotia_Highway_104_(TCH).svg">
  <defs id="defs2"/>
  <sodipodi:namedview id="base" pagecolor="#ffffff" bordercolor="#666666" borderopacity="1.0" inkscape:pageopacity="0.0" inkscape:pageshadow="2" inkscape:zoom="0.71778898" inkscape:cx="-116.75319" inkscape:cy="585.82677" inkscape:document-units="mm" inkscape:current-layer="layer1" showgrid="false" fit-margin-top="0" fit-margin-left="0" fit-margin-right="0" fit-margin-bottom="0" inkscape:window-width="1920" inkscape:window-height="1013" inkscape:window-x="-9" inkscape:window-y="-9" inkscape:window-maximized="1"/>
  <metadata id="metadata5">
    <rdf:RDF>
      <cc:Work rdf:about="">
        <dc:format>image/svg+xml</dc:format>
        <dc:type rdf:resource="http://purl.org/dc/dcmitype/StillImage"/>
        <dc:title/>
      </cc:Work>
    </rdf:RDF>
  </metadata>
  <g inkscape:label="Layer 1" inkscape:groupmode="layer" id="layer1" transform="translate(342.08966,-79.965775)">
    <text xml:space="preserve" style="font-style:normal;font-variant:normal;font-weight:normal;font-stretch:normal;font-size:25.39999962px;line-height:1em;font-family:'Univers LT 55';-inkscape-font-specification:'Univers LT 55, ';text-align:start;letter-spacing:0px;word-spacing:0px;text-anchor:start;fill:#000000;fill-opacity:1;stroke:none;stroke-width:0.26458332" x="-414.26193" y="38.464287" id="text817"><tspan sodipodi:role="line" id="tspan815" x="-414.26193" y="58.500828" style="stroke-width:0.26458332"/></text>
    <rect ry="14.031885" rx="14.031885" y="79.965775" x="-342.08966" height="310" width="168.23" id="rect893" style="opacity:1;fill:#ffffff;fill-opacity:1;stroke:none;stroke-width:2.10750318;stroke-linecap:round;stroke-linejoin:round;stroke-miterlimit:4;stroke-dasharray:none;stroke-opacity:1;paint-order:stroke fill markers"/>
    <rect style="opacity:1;fill:#00674e;fill-opacity:1;stroke:none;stroke-width:2.10750318;stroke-linecap:round;stroke-linejoin:round;stroke-miterlimit:4;stroke-dasharray:none;stroke-opacity:1;paint-order:stroke fill markers" id="rect879" width="158.23042" height="214.81387" x="-337.08987" y="84.965775" rx="9.1181908" ry="9.1181908"/>
    <path id="path855" style="fill:#ffffff;stroke:none;stroke-width:0.5017072;stroke-linecap:butt;stroke-linejoin:miter;stroke-miterlimit:4;stroke-dasharray:none;stroke-opacity:1" d="m -316.85599,252.31725 2.20586,-7.35264 c 1.45201,1.8027 2.9892,3.5351 4.60633,5.19128 l -6.81218,7.0444 4.67793,8.10403 c -4.67086,-3.8366 -8.92119,-8.15827 -12.67951,-12.89235 z" inkscape:connector-curvature="0" sodipodi:nodetypes="ccccccc"/>
    <path id="path861" style="fill:#ffffff;stroke:none;stroke-width:0.5017072;stroke-linecap:butt;stroke-linejoin:miter;stroke-miterlimit:4;stroke-dasharray:none;stroke-opacity:1" d="m -307.0919,268.28711 1.32161,-1.6285 c -2.46727,-1.75108 -4.83644,-3.63642 -7.09682,-5.6475 0.63183,1.82369 2.86781,5.0524 5.77521,7.276 z" inkscape:connector-curvature="0" sodipodi:nodetypes="cccc"/>
    <path id="path871" style="fill:#ffffff;stroke:none;stroke-width:0.5017072;stroke-linecap:butt;stroke-linejoin:miter;stroke-miterlimit:4;stroke-dasharray:none;stroke-opacity:1" d="m -315.60026,257.14871 8.51808,-8.5489 c 13.04037,12.99333 30.6987,20.28896 49.10735,20.28896 18.40864,0 36.06697,-7.29563 49.10734,-20.28896 l 8.51808,8.5489 c -15.30233,15.24713 -36.02364,23.80826 -57.62542,23.80826 -21.60178,0 -42.32309,-8.56113 -57.62543,-23.80826 z" inkscape:connector-curvature="0" sodipodi:nodetypes="ccccccc"/>
    <path sodipodi:nodetypes="ccccccc" inkscape:connector-curvature="0" d="m -199.09368,252.31725 -2.20585,-7.35264 c -1.45202,1.8027 -2.98921,3.5351 -4.60634,5.19128 l 6.81218,7.0444 -4.67793,8.10403 c 4.67087,-3.8366 8.92119,-8.15827 12.67951,-12.89235 z" style="fill:#ffffff;stroke:none;stroke-width:0.5017072;stroke-linecap:butt;stroke-linejoin:miter;stroke-miterlimit:4;stroke-dasharray:none;stroke-opacity:1" id="path873"/>
    <path sodipodi:nodetypes="cccc" inkscape:connector-curvature="0" d="m -208.85776,268.28711 -1.32162,-1.6285 c 2.46727,-1.75108 4.83645,-3.63642 7.09682,-5.6475 -0.63183,1.82369 -2.86781,5.0524 -5.7752,7.276 z" style="fill:#ffffff;stroke:none;stroke-width:0.5017072;stroke-linecap:butt;stroke-linejoin:miter;stroke-miterlimit:4;stroke-dasharray:none;stroke-opacity:1" id="path875"/>
    <path style="fill:#ffffff;fill-rule:evenodd;stroke-width:0.22783744" d="m -260.49947,248.82634 -0.62746,1.02237 -0.46259,0.56892 2.50762,0.62678 2.40204,0.91625 0.27946,-2.96078 0.058,-1.65872 c -0.28014,-2.57563 -0.93563,-4.85178 -1.54329,-7.34998 -0.35689,-2.787 -0.31863,-3.65519 1.01261,-5.89329 0.54002,-0.94495 3.32754,-2.19872 4.72643,-0.56871 1.60069,1.69744 2.06394,3.24068 4.30144,4.29199 1.54327,0.49171 3.11571,0.53042 4.66835,0.9743 1.76511,0.82948 2.73011,1.77443 4.10897,3.13455 l 0.96499,-0.91647 c 1.41758,-1.41752 2.62332,-1.79376 4.562,-2.10237 3.077,0 6.03784,-0.27946 8.77731,-1.71702 2.23772,-1.63935 3.81016,-3.83875 6.26971,-5.18885 2.54633,-0.65615 4.99631,-0.93562 7.4078,-2.04498 -1.10006,0 -1.46629,-0.15442 -2.3345,-0.80055 -1.02263,-1.3214 -1.90018,-2.44947 -3.19271,-3.53014 -1.69747,-1.01258 -3.4626,-1.20571 -5.41084,-1.60132 -1.66877,-0.67505 -2.07373,-2.16 -0.97434,-3.58754 2.54633,-2.07368 5.93216,-2.36314 8.83539,-3.7037 1.76513,-1.31206 3.29884,-2.90337 5.07331,-4.16694 l 1.48565,-0.68462 c 2.36276,-1.0998 3.87713,-2.18937 5.58462,-4.15736 1.89017,-2.6426 2.58504,-4.91898 2.79709,-8.15008 -1.71706,1.71679 -3.81015,2.09303 -5.70031,0.39559 -1.40824,-2.18003 -0.87822,-4.35004 0.39516,-6.4433 1.2636,-1.75506 1.9004,-3.31755 2.22815,-5.46854 0.30861,-4.37875 -0.74272,-9.65484 4.15703,-11.6898 l -1.82274,-0.90668 -1.99676,-0.62711 c -3.03828,-0.54967 -4.98653,-0.16376 -7.81298,1.02249 -2.48826,1.39851 -7.33973,5.05415 -10.48415,3.1925 -1.98696,-1.9869 -0.57873,-4.36906 1.82319,-5.01542 -4.32146,-2.27626 -7.00284,0.0192 -10.83236,2.22798 -1.47564,0.43398 -2.19878,0.34721 -3.41453,-0.62688 -1.59135,-1.94819 -0.56872,-3.30821 0.3382,-5.36264 0.66507,-2.9037 0.54002,-4.83232 -0.80079,-7.52331 -2.21881,-4.12811 -3.99327,-6.79007 -2.1031,-11.34259 0.52132,-0.88754 1.10006,-1.12851 1.98763,-1.64949 l -1.13834,-0.17365 c -2.1318,0 -3.1738,0.48248 -5.07374,1.42753 -2.24707,1.524 -3.95456,3.2409 -6.72295,1.88089 -1.83253,-1.67819 -2.7488,-4.10886 -3.42389,-6.44286 -0.81992,-3.53982 -1.85189,-6.12535 -4.72641,-8.43956 -1.52394,-0.92647 -2.43063,-1.50475 -3.53959,-2.90315 h 0.0576 c -1.0995,1.38873 -2.01577,1.97667 -3.53023,2.90315 -3.50133,2.81627 -4.01264,5.90264 -5.18902,10.03087 -0.73314,1.74593 -1.54316,3.54938 -2.9613,4.85155 -1.69758,0.82947 -2.56579,0.57871 -4.27295,-0.17377 -1.67823,-1.22473 -3.27925,-2.24722 -5.24719,-2.961 -1.26349,-0.19279 -2.16039,-0.19279 -3.42388,0 l 1.13821,0.6754 c 1.79383,1.38871 1.81318,4.17628 1.54317,6.22103 -0.64626,2.16034 -1.7363,4.11843 -2.79731,6.09565 -1.75544,3.52047 -1.48532,5.93167 0.0579,9.46204 0.46314,1.10915 0.40529,1.7554 -0.0579,2.85475 -2.42105,3.03821 -4.93835,0.57883 -7.62942,-0.9741 -2.55601,-1.26345 -4.50447,-1.40807 -7.06994,-0.0578 1.88072,0.5113 2.95129,1.78443 2.6716,3.76166 -1.14778,2.81637 -4.4079,1.72635 -6.54928,0.74258 l -4.79361,-2.68132 c -1.582,-0.66559 -2.90334,-1.07065 -4.61061,-1.31162 -2.72011,0 -4.57201,0.61721 -7.01209,1.82292 4.919,2.064 3.8195,7.29158 4.15703,11.6898 0.32787,2.151 0.96445,3.71348 2.22816,5.46855 1.27316,2.09325 1.79393,4.21499 0.39538,6.4433 -1.89039,1.69743 -3.98358,1.32119 -5.70055,-0.3956 0.11594,1.8999 0.4053,3.32745 1.02252,5.13124 1.39855,2.99948 3.00948,4.63951 5.7584,6.43329 1.60102,0.74292 3.01893,1.38882 4.4464,2.40186 1.69759,1.61066 3.03829,2.89313 5.18935,3.87746 2.49815,0.70376 6.07644,1.41754 7.75502,3.53015 0.91625,3.33701 -2.26676,3.26003 -4.7361,3.76132 -1.84233,0.56937 -2.81645,1.43689 -4.04144,2.90314 -1.17672,1.51432 -1.56265,2.34378 -3.53993,2.34378 2.41139,1.09936 4.87116,1.38884 7.41749,2.04499 1.72641,0.94515 2.80677,2.0739 4.21488,3.48186 1.95826,1.8614 3.29896,2.51711 5.93217,3.01884 l 1.82285,0.28946 c 2.79732,0.17379 6.24057,-0.0968 7.9188,2.68133 1.90975,-2.77811 4.96739,-3.22132 8.03471,-3.81939 2.29569,-0.97454 3.54015,-2.40187 4.90955,-4.4464 0.87766,-1.18635 1.90017,-1.68808 3.09635,-1.3312 2.41139,0.96431 1.42703,2.47863 0.94509,4.45618 -0.25066,1.73571 -0.17366,3.17326 0,4.90941 0.52077,2.99949 1.02251,4.7452 -0.16376,7.58094" id="path1090" inkscape:connector-curvature="0"/>
    <path sodipodi:nodetypes="ccc" inkscape:connector-curvature="0" d="m -315.60026,257.14871 c 15.30234,15.24713 36.02365,23.80826 57.62543,23.80826 21.60178,0 42.32309,-8.56113 57.62542,-23.80826" style="fill:none;stroke:none;stroke-width:0.5017072;stroke-linecap:butt;stroke-linejoin:miter;stroke-miterlimit:4;stroke-dasharray:none;stroke-opacity:1" id="path1092"/>
    <path inkscape:connector-curvature="0" id="path848" style="font-style:normal;font-variant:normal;font-weight:normal;font-stretch:normal;font-size:12.69999981px;line-height:2em;font-family:'Univers LT 55';-inkscape-font-specification:'Univers LT 55, ';text-align:start;letter-spacing:0px;word-spacing:0px;text-anchor:start;fill:#00674e;fill-opacity:1;stroke:none;stroke-width:0.26548672" d="m -294.19977,260.41927 1.5692,0.82173 0.47834,8.83829 3.5293,-6.73963 1.0386,0.54388 -4.26827,8.15077 -1.445,-0.75671 -0.51923,-9.08985 -3.62389,6.92025 -1.02731,-0.53796 z"/>
    <path inkscape:connector-curvature="0" id="path850" style="font-style:normal;font-variant:normal;font-weight:normal;font-stretch:normal;font-size:12.69999981px;line-height:2em;font-family:'Univers LT 55';-inkscape-font-specification:'Univers LT 55, ';text-align:start;letter-spacing:0px;word-spacing:0px;text-anchor:start;fill:#00674e;fill-opacity:1;stroke:none;stroke-width:0.26548672" d="m -287.32514,268.95619 q -0.27122,0.71489 -0.39209,1.50044 -0.11633,0.77365 0.12397,1.50541 0.19758,0.59289 0.64662,0.95408 0.44904,0.36118 0.96138,0.55556 0.53615,0.20342 1.08794,0.22195 0.5637,0.0231 1.11675,-0.28505 0.38417,-0.22224 0.68823,-0.55666 0.30407,-0.33442 0.52474,-0.70048 0.23257,-0.36154 0.3875,-0.69803 0.15491,-0.33648 0.23628,-0.55094 0.27575,-0.7268 0.38427,-1.408 0.10852,-0.6812 -0.0295,-1.25149 -0.12158,-0.57768 -0.52254,-1.02967 -0.40097,-0.45197 -1.13968,-0.73224 -0.82211,-0.31191 -1.4758,-0.20555 -0.63725,0.0989 -1.13237,0.46994 -0.49512,0.37097 -0.85837,0.96916 -0.35873,0.58627 -0.60735,1.24157 z m -1.27816,-0.40315 q 0.14013,-0.36935 0.34313,-0.79664 0.21491,-0.42276 0.50584,-0.83031 0.29092,-0.40755 0.67264,-0.76702 0.38624,-0.3714 0.88833,-0.61705 0.46923,-0.23087 0.93639,-0.3126 0.46715,-0.0817 0.88171,-0.0607 0.43099,0.0136 0.80651,0.10154 0.38744,0.0925 0.6853,0.20549 0.8936,0.33903 1.5,0.89621 0.6183,0.56169 0.90625,1.31154 0.28796,0.74985 0.24557,1.68785 -0.0378,0.92608 -0.45376,2.02223 -0.32547,0.85785 -0.82802,1.60764 -0.50254,0.74978 -1.21583,1.22879 -0.69686,0.47161 -1.62049,0.57097 -0.91171,0.10388 -2.05551,-0.33008 -1.09615,-0.41589 -1.71116,-1.05811 -0.59858,-0.64962 -0.8208,-1.42904 -0.21769,-0.79135 -0.11737,-1.66647 0.11675,-0.88253 0.45127,-1.76421 z"/>
    <path inkscape:connector-curvature="0" id="path852" style="font-style:normal;font-variant:normal;font-weight:normal;font-stretch:normal;font-size:12.69999981px;line-height:2em;font-family:'Univers LT 55';-inkscape-font-specification:'Univers LT 55, ';text-align:start;letter-spacing:0px;word-spacing:0px;text-anchor:start;fill:#00674e;fill-opacity:1;stroke:none;stroke-width:0.26548672" d="m -277.56101,277.02443 -1.35642,-0.35362 -0.84808,-9.72932 1.36877,0.35683 0.54439,8.26738 4.64705,-6.91396 1.24544,0.32468 z"/>
    <path inkscape:connector-curvature="0" id="path854" style="font-style:normal;font-variant:normal;font-weight:normal;font-stretch:normal;font-size:12.69999981px;line-height:2em;font-family:'Univers LT 55';-inkscape-font-specification:'Univers LT 55, ';text-align:start;letter-spacing:0px;word-spacing:0px;text-anchor:start;fill:#00674e;fill-opacity:1;stroke:none;stroke-width:0.26548672" d="m -271.53684,274.84104 3.43869,0.52763 -0.99107,-4.71601 z m 2.02176,-5.53008 1.34777,0.2068 2.28259,9.65863 -1.37297,-0.21067 -0.61912,-2.51879 -4.21965,-0.64746 -1.34583,2.21729 -1.29739,-0.19908 z"/>
    <path inkscape:connector-curvature="0" id="path856" style="font-style:normal;font-variant:normal;font-weight:normal;font-stretch:normal;font-size:12.69999981px;line-height:2em;font-family:'Univers LT 55';-inkscape-font-specification:'Univers LT 55, ';text-align:start;letter-spacing:0px;word-spacing:0px;text-anchor:start;fill:#00674e;fill-opacity:1;stroke:none;stroke-width:0.26548672" d="m -257.03735,276.78906 q 0.0226,0.2414 0.0865,0.55765 0.0634,0.30351 0.2785,0.57533 0.22787,0.27132 0.6818,0.4569 0.45344,0.17285 1.24286,0.14071 0.71305,-0.029 1.12545,-0.23713 0.42514,-0.20862 0.63071,-0.48482 0.21831,-0.27672 0.27108,-0.5467 0.065,-0.28323 0.0577,-0.4615 -0.0156,-0.38198 -0.1782,-0.61768 -0.15042,-0.24896 -0.43729,-0.40308 -0.28685,-0.15412 -0.68624,-0.25264 -0.38665,-0.099 -0.87516,-0.19394 -0.52723,-0.10608 -0.92609,-0.19188 -0.38614,-0.0863 -0.68262,-0.16351 -0.29648,-0.0772 -0.51657,-0.15752 -0.2206,-0.093 -0.40353,-0.20039 -0.57579,-0.35917 -0.79921,-0.83473 -0.2107,-0.47607 -0.22937,-0.93445 -0.0285,-0.7003 0.25635,-1.22206 0.28485,-0.52175 0.75574,-0.85978 0.4831,-0.35126 1.10078,-0.52946 0.62991,-0.19145 1.27928,-0.21789 0.22919,-0.009 0.56128,0.003 0.33209,0.012 0.69275,0.0993 0.36015,0.0747 0.71119,0.23887 0.36378,0.16375 0.65635,0.45793 0.1998,0.20868 0.31047,0.42099 0.12341,0.21179 0.18265,0.41345 0.0719,0.20113 0.0925,0.3916 0.02,0.17775 0.0384,0.31729 l -1.3242,0.0539 q -0.043,-0.43188 -0.23224,-0.69202 -0.18967,-0.27286 -0.47601,-0.41425 -0.27362,-0.14191 -0.60674,-0.17936 -0.33364,-0.0502 -0.67743,-0.0362 -0.95496,0.0388 -1.48588,0.46862 -0.51872,0.41649 -0.49072,1.10406 0.0124,0.30559 0.12312,0.5179 0.11068,0.21231 0.32062,0.35681 0.20994,0.1445 0.5202,0.24666 0.32247,0.0889 0.74679,0.17366 0.82371,0.18327 1.32548,0.29038 0.50177,0.10712 0.79877,0.19705 0.30921,0.0767 0.4911,0.15856 0.18189,0.0819 0.3908,0.20091 0.32713,0.2035 0.51576,0.45089 0.20136,0.24688 0.30086,0.49792 0.0995,0.25102 0.1343,0.47918 0.0348,0.22815 0.0405,0.36821 0.0249,0.61118 -0.19578,1.14307 -0.20794,0.53138 -0.65025,0.94475 -0.44283,0.40066 -1.12159,0.6451 -0.66603,0.24394 -1.5446,0.2797 -0.26739,0.0109 -0.65092,-0.0117 -0.37029,-0.0104 -0.7824,-0.10844 -0.39887,-0.0858 -0.78915,-0.27396 -0.3908,-0.2009 -0.67218,-0.53381 -0.20136,-0.24688 -0.32633,-0.49687 -0.11274,-0.26324 -0.17353,-0.50309 -0.0608,-0.23984 -0.0823,-0.45579 -0.0216,-0.21593 -0.0283,-0.38147 z"/>
    <path inkscape:connector-curvature="0" id="path858" style="font-style:normal;font-variant:normal;font-weight:normal;font-stretch:normal;font-size:12.69999981px;line-height:2em;font-family:'Univers LT 55';-inkscape-font-specification:'Univers LT 55, ';text-align:start;letter-spacing:0px;word-spacing:0px;text-anchor:start;fill:#00674e;fill-opacity:1;stroke:none;stroke-width:0.26548672" d="m -244.9839,271.61817 q -0.0418,-0.1098 -0.14349,-0.3654 -0.10172,-0.2556 -0.34213,-0.49095 -0.2278,-0.23719 -0.64816,-0.38188 -0.40774,-0.14652 -1.06345,-0.0508 -0.81963,0.11965 -1.2814,0.57343 -0.45099,0.43931 -0.64557,1.04725 -0.19457,0.60793 -0.19972,1.27836 0.007,0.6686 0.0903,1.23603 0.0939,0.6431 0.28865,1.27146 0.20553,0.61392 0.57104,1.08858 0.36365,0.46204 0.90146,0.70549 0.55041,0.2416 1.33221,0.12746 0.41612,-0.0607 0.77784,-0.22946 0.37249,-0.18316 0.61834,-0.52814 0.21352,-0.30162 0.25053,-0.57747 0.0496,-0.2777 0.0509,-0.4453 l 1.38707,-0.20251 q 0.0219,0.67937 -0.23599,1.2064 -0.24528,0.5252 -0.67843,0.91039 -0.42238,0.37075 -0.98033,0.60674 -0.5598,0.22339 -1.13984,0.30808 -1.19792,0.17489 -2.02262,-0.18122 -0.81208,-0.35794 -1.32945,-0.99073 -0.51922,-0.64538 -0.78651,-1.4177 -0.25468,-0.77417 -0.35225,-1.44248 -0.0699,-0.47917 -0.0861,-1.03059 -0.003,-0.55326 0.0957,-1.10864 0.0992,-0.55538 0.31928,-1.07689 0.21823,-0.53412 0.60618,-0.96423 0.38611,-0.44273 0.96007,-0.74545 0.58474,-0.31719 1.39177,-0.435 0.47916,-0.0699 1.03795,-0.0356 0.5714,0.0325 1.0929,0.25255 0.52152,0.22007 0.923,0.67659 0.4141,0.45469 0.58945,1.21467 z"/>
    <path inkscape:connector-curvature="0" id="path860" style="font-style:normal;font-variant:normal;font-weight:normal;font-stretch:normal;font-size:12.69999981px;line-height:2em;font-family:'Univers LT 55';-inkscape-font-specification:'Univers LT 55, ';text-align:start;letter-spacing:0px;word-spacing:0px;text-anchor:start;fill:#00674e;fill-opacity:1;stroke:none;stroke-width:0.26548672" d="m -241.48197,273.06706 q 0.19381,0.73964 0.55111,1.44961 0.35406,0.69763 0.97431,1.15425 0.50489,0.36831 1.08019,0.40198 0.57529,0.0337 1.10536,-0.10522 0.55472,-0.14535 1.01491,-0.45037 0.47252,-0.30825 0.74424,-0.88005 0.18398,-0.4039 0.23764,-0.85269 0.0537,-0.44878 0.021,-0.87496 -0.0203,-0.42941 -0.0893,-0.79336 -0.069,-0.36395 -0.12716,-0.58584 -0.19705,-0.75196 -0.50384,-1.36977 -0.30681,-0.6178 -0.75006,-1.00225 -0.43415,-0.4 -1.02297,-0.53553 -0.5888,-0.13553 -1.35308,0.0647 -0.85058,0.22289 -1.32132,0.68875 -0.46164,0.45032 -0.6497,1.03971 -0.18807,0.5894 -0.13691,1.28737 0.048,0.68565 0.22559,1.36363 z m -1.27498,0.41314 q -0.10014,-0.38214 -0.18267,-0.84794 -0.0702,-0.46902 -0.0697,-0.96976 5.3e-4,-0.50073 0.1029,-1.01498 0.0991,-0.52657 0.36558,-1.01795 0.24825,-0.46026 0.58136,-0.79785 0.33309,-0.33758 0.68293,-0.56099 0.35893,-0.23896 0.71583,-0.38518 0.36922,-0.14945 0.6774,-0.2302 0.92454,-0.24227 1.74169,-0.14023 0.82948,0.0988 1.49905,0.54253 0.66956,0.4437 1.17919,1.23231 0.50642,0.77628 0.8036,1.91038 0.23257,0.88755 0.25822,1.78981 0.0257,0.90226 -0.27745,1.70623 -0.294,0.78842 -0.98867,1.40518 -0.68234,0.61353 -1.86575,0.92362 -1.1341,0.29718 -2.00761,0.13088 -0.86442,-0.18187 -1.4976,-0.68781 -0.6364,-0.51827 -1.06238,-1.28927 -0.41689,-0.78657 -0.65594,-1.69878 z"/>
    <path inkscape:connector-curvature="0" id="path862" style="font-style:normal;font-variant:normal;font-weight:normal;font-stretch:normal;font-size:12.69999981px;line-height:2em;font-family:'Univers LT 55';-inkscape-font-specification:'Univers LT 55, ';text-align:start;letter-spacing:0px;word-spacing:0px;text-anchor:start;fill:#00674e;fill-opacity:1;stroke:none;stroke-width:0.26548672" d="m -230.25089,274.50643 -2.87169,-7.59261 -2.88448,1.09098 -0.38319,-1.01314 6.94897,-2.62825 0.38318,1.01314 -2.88447,1.09097 2.87169,7.5926 z"/>
    <path inkscape:connector-curvature="0" id="path864" style="font-style:normal;font-variant:normal;font-weight:normal;font-stretch:normal;font-size:12.69999981px;line-height:2em;font-family:'Univers LT 55';-inkscape-font-specification:'Univers LT 55, ';text-align:start;letter-spacing:0px;word-spacing:0px;text-anchor:start;fill:#00674e;fill-opacity:1;stroke:none;stroke-width:0.26548672" d="m -229.0283,264.07962 1.15864,-0.53055 3.8305,8.36543 -1.15866,0.53055 z"/>
    <path inkscape:connector-curvature="0" id="path866" style="font-style:normal;font-variant:normal;font-weight:normal;font-stretch:normal;font-size:12.69999981px;line-height:2em;font-family:'Univers LT 55';-inkscape-font-specification:'Univers LT 55, ';text-align:start;letter-spacing:0px;word-spacing:0px;text-anchor:start;fill:#00674e;fill-opacity:1;stroke:none;stroke-width:0.26548672" d="m -222.2491,267.22009 3.04058,-1.69054 -3.67342,-3.11913 z m -1.79165,-5.60887 1.19174,-0.66258 7.72312,6.23319 -1.214,0.67496 -2.03291,-1.61086 -3.73112,2.07446 0.29545,2.57689 -1.14719,0.63782 z"/>
    <rect style="opacity:1;fill:#ffffff;fill-opacity:1;stroke:none;stroke-width:1.71784532;stroke-linecap:round;stroke-linejoin:round;stroke-miterlimit:4;stroke-dasharray:none;stroke-opacity:1;paint-order:stroke fill markers" id="rect881" width="158.23042" height="17.163654" x="-337.08987" y="103.79834"/>
    <path inkscape:connector-curvature="0" id="path2196" style="font-style:normal;font-variant:normal;font-weight:normal;font-stretch:normal;font-size:medium;line-height:1em;font-family:'Univers LT 55';-inkscape-font-specification:'Univers LT 55, ';text-align:start;letter-spacing:0px;word-spacing:0px;text-anchor:start;fill:#00674e;fill-opacity:1;stroke:none;stroke-width:0.17443611" d="m -323.30616,118.40031 v -10.66712 h -4.0525 v -1.4234 h 9.76284 v 1.4234 h -4.0525 v 10.66712 z"/>
    <path inkscape:connector-curvature="0" id="path2198" style="font-style:normal;font-variant:normal;font-weight:normal;font-stretch:normal;font-size:medium;line-height:1em;font-family:'Univers LT 55';-inkscape-font-specification:'Univers LT 55, ';text-align:start;letter-spacing:0px;word-spacing:0px;text-anchor:start;fill:#00674e;fill-opacity:1;stroke:none;stroke-width:0.17443611" d="m -314.40861,111.51776 h 2.64584 q 0.067,0 0.25119,0 0.20095,0 0.43539,-0.0168 0.25119,-0.0335 0.48563,-0.0837 0.25119,-0.067 0.41865,-0.16746 0.0837,-0.0502 0.2177,-0.15071 0.15071,-0.11722 0.28468,-0.30143 0.13396,-0.20095 0.21769,-0.46888 0.10048,-0.26793 0.10048,-0.65309 0,-0.73682 -0.28468,-1.12197 -0.28468,-0.4019 -0.66984,-0.58611 -0.38515,-0.1842 -0.8038,-0.21769 -0.4019,-0.0335 -0.65309,-0.0335 h -2.64584 z m -1.62435,-5.20797 h 4.32043 q 0.23444,0 0.56936,0.0167 0.33492,0 0.72007,0.0502 0.38516,0.0502 0.77031,0.16746 0.38516,0.11722 0.72007,0.33492 0.68659,0.43539 1.00476,1.08848 0.33491,0.63634 0.33491,1.37316 0,0.63635 -0.23444,1.18896 -0.21769,0.55261 -0.6196,0.95451 -0.38515,0.38516 -0.77031,0.55262 -0.3684,0.15071 -0.65308,0.23444 0.43539,0.11722 0.75356,0.28468 0.31817,0.16746 0.53587,0.43539 0.21769,0.25119 0.35166,0.65309 0.13397,0.38516 0.20095,0.95451 0.067,0.53587 0.11722,1.00476 0.067,0.46888 0.15072,0.92102 0.0837,0.45214 0.1842,0.92102 0.11722,0.45214 0.30143,0.95452 h -1.79181 q -0.10048,-0.30143 -0.18421,-0.70333 -0.0837,-0.41865 -0.15071,-0.85404 -0.067,-0.43539 -0.11722,-0.85404 -0.0502,-0.43539 -0.10048,-0.78705 -0.0837,-0.65309 -0.21769,-1.08849 -0.13397,-0.43539 -0.41865,-0.68658 -0.28468,-0.26793 -0.77031,-0.3684 -0.48563,-0.11723 -1.23919,-0.11723 h -2.10998 v 5.45916 h -1.65784 z"/>
    <path inkscape:connector-curvature="0" id="path2200" style="font-style:normal;font-variant:normal;font-weight:normal;font-stretch:normal;font-size:medium;line-height:1em;font-family:'Univers LT 55';-inkscape-font-specification:'Univers LT 55, ';text-align:start;letter-spacing:0px;word-spacing:0px;text-anchor:start;fill:#00674e;fill-opacity:1;stroke:none;stroke-width:0.17443611" d="m -302.56981,113.89567 h 4.57162 l -2.2272,-5.92804 z m 1.52387,-7.58588 h 1.79181 l 4.8898,12.09052 h -1.8253 l -1.30618,-3.14823 h -5.60987 l -1.30617,3.14823 h -1.72483 z"/>
    <path inkscape:connector-curvature="0" id="path2202" style="font-style:normal;font-variant:normal;font-weight:normal;font-stretch:normal;font-size:medium;line-height:1em;font-family:'Univers LT 55';-inkscape-font-specification:'Univers LT 55, ';text-align:start;letter-spacing:0px;word-spacing:0px;text-anchor:start;fill:#00674e;fill-opacity:1;stroke:none;stroke-width:0.17443611" d="m -292.59503,106.30979 h 2.32768 l 5.94478,9.99728 v -9.99728 h 1.54062 v 12.09052 h -2.14347 l -6.14574,-10.26522 v 10.26522 h -1.52387 z"/>
    <path inkscape:connector-curvature="0" id="path2204" style="font-style:normal;font-variant:normal;font-weight:normal;font-stretch:normal;font-size:medium;line-height:1em;font-family:'Univers LT 55';-inkscape-font-specification:'Univers LT 55, ';text-align:start;letter-spacing:0px;word-spacing:0px;text-anchor:start;fill:#00674e;fill-opacity:1;stroke:none;stroke-width:0.17443611" d="m -278.48925,114.86693 q 0.0167,0.31817 0.0837,0.73682 0.067,0.4019 0.33491,0.77031 0.28468,0.36841 0.87079,0.63634 0.58611,0.25119 1.62435,0.25119 0.93777,0 1.49038,-0.25119 0.56936,-0.25119 0.85404,-0.60285 0.30143,-0.35166 0.38516,-0.70333 0.10047,-0.36841 0.10047,-0.60285 0,-0.50238 -0.20095,-0.82055 -0.1842,-0.33491 -0.55261,-0.55261 -0.36841,-0.2177 -0.88753,-0.36841 -0.50238,-0.15071 -1.13872,-0.30142 -0.68658,-0.16746 -1.20571,-0.30143 -0.50237,-0.13397 -0.88753,-0.25119 -0.38515,-0.11722 -0.66983,-0.23444 -0.28468,-0.13397 -0.51912,-0.28468 -0.73682,-0.50238 -1.00476,-1.13872 -0.25118,-0.63634 -0.25118,-1.23919 0,-0.92103 0.4019,-1.59086 0.4019,-0.66984 1.03824,-1.08848 0.65309,-0.43539 1.47364,-0.63634 0.83729,-0.2177 1.69133,-0.2177 0.30143,0 0.73682,0.0335 0.43539,0.0335 0.90427,0.16746 0.46889,0.11722 0.92103,0.35166 0.46888,0.23444 0.83729,0.63635 0.25119,0.28468 0.38516,0.56935 0.15071,0.28468 0.21769,0.55262 0.0837,0.26793 0.10048,0.51912 0.0167,0.23444 0.0335,0.41865 h -1.74157 q -0.0335,-0.56936 -0.26793,-0.92103 -0.23445,-0.3684 -0.60286,-0.56936 -0.35166,-0.20095 -0.78705,-0.26793 -0.43539,-0.0837 -0.88753,-0.0837 -1.25594,0 -1.97602,0.53587 -0.70332,0.51912 -0.70332,1.4234 0,0.4019 0.13397,0.68658 0.13396,0.28468 0.4019,0.48563 0.26793,0.20095 0.66983,0.35166 0.41865,0.13397 0.97126,0.26794 1.07174,0.28468 1.72483,0.45213 0.65308,0.16746 1.03824,0.30143 0.4019,0.11722 0.63634,0.23444 0.23444,0.11722 0.50238,0.28468 0.41864,0.28468 0.65309,0.6196 0.25118,0.33492 0.36841,0.66983 0.11722,0.33492 0.15071,0.63635 0.0335,0.30142 0.0335,0.48563 0,0.8038 -0.31817,1.49038 -0.30143,0.68658 -0.90428,1.2057 -0.60285,0.50238 -1.50713,0.78706 -0.88753,0.28468 -2.04299,0.28468 -0.35166,0 -0.85404,-0.0502 -0.48563,-0.0335 -1.0215,-0.18421 -0.51912,-0.13396 -1.0215,-0.4019 -0.50237,-0.28468 -0.85404,-0.73681 -0.25118,-0.33492 -0.4019,-0.66984 -0.13396,-0.35166 -0.20095,-0.66983 -0.067,-0.31818 -0.0837,-0.60286 -0.0167,-0.28467 -0.0167,-0.50237 z"/>
    <path inkscape:connector-curvature="0" id="path2206" style="font-style:normal;font-variant:normal;font-weight:normal;font-stretch:normal;font-size:medium;line-height:1em;font-family:'Univers LT 55';-inkscape-font-specification:'Univers LT 55, ';text-align:start;letter-spacing:0px;word-spacing:0px;text-anchor:start;fill:#00674e;fill-opacity:1;stroke:none;stroke-width:0.17443611" d="m -251.93606,109.57523 q -0.0335,-0.15071 -0.11723,-0.50237 -0.0837,-0.35166 -0.35166,-0.70333 -0.25119,-0.35166 -0.77031,-0.61959 -0.50237,-0.26794 -1.37316,-0.26794 -1.08848,0 -1.77506,0.50238 -0.66984,0.48563 -1.03825,1.23919 -0.3684,0.75357 -0.50237,1.62435 -0.11722,0.87079 -0.11722,1.62435 0,0.85404 0.13396,1.70808 0.15072,0.83729 0.53587,1.52387 0.38516,0.66984 1.03825,1.08848 0.66983,0.41865 1.70807,0.41865 0.55262,0 1.05499,-0.15071 0.51913,-0.16746 0.90428,-0.56936 0.33492,-0.35167 0.43539,-0.70333 0.11722,-0.35166 0.15072,-0.56936 h 1.84204 q -0.10047,0.88753 -0.53587,1.52388 -0.41864,0.63634 -1.05499,1.05499 -0.61959,0.4019 -1.3899,0.60285 -0.77031,0.1842 -1.54062,0.1842 -1.59086,0 -2.59561,-0.6196 -0.98801,-0.61959 -1.54062,-1.54062 -0.55262,-0.93776 -0.75357,-1.99275 -0.1842,-1.05499 -0.1842,-1.94252 0,-0.63635 0.0837,-1.35642 0.10047,-0.72007 0.33492,-1.4234 0.23444,-0.70332 0.61959,-1.33967 0.38516,-0.65309 0.97126,-1.13872 0.58611,-0.50237 1.38991,-0.78705 0.82055,-0.30143 1.89228,-0.30143 0.63635,0 1.35642,0.15072 0.73682,0.15071 1.37316,0.53586 0.63634,0.38516 1.07174,1.05499 0.45213,0.66984 0.53586,1.69133 z"/>
    <path inkscape:connector-curvature="0" id="path2208" style="font-style:normal;font-variant:normal;font-weight:normal;font-stretch:normal;font-size:medium;line-height:1em;font-family:'Univers LT 55';-inkscape-font-specification:'Univers LT 55, ';text-align:start;letter-spacing:0px;word-spacing:0px;text-anchor:start;fill:#00674e;fill-opacity:1;stroke:none;stroke-width:0.17443611" d="m -245.79086,113.89567 h 4.57163 l -2.2272,-5.92804 z m 1.52388,-7.58588 h 1.79181 l 4.88979,12.09052 h -1.8253 l -1.30618,-3.14823 h -5.60986 l -1.30618,3.14823 h -1.72483 z"/>
    <path inkscape:connector-curvature="0" id="path2210" style="font-style:normal;font-variant:normal;font-weight:normal;font-stretch:normal;font-size:medium;line-height:1em;font-family:'Univers LT 55';-inkscape-font-specification:'Univers LT 55, ';text-align:start;letter-spacing:0px;word-spacing:0px;text-anchor:start;fill:#00674e;fill-opacity:1;stroke:none;stroke-width:0.17443611" d="m -235.81607,106.30979 h 2.32767 l 5.94479,9.99728 v -9.99728 h 1.54062 v 12.09052 h -2.14347 l -6.14574,-10.26522 v 10.26522 h -1.52387 z"/>
    <path inkscape:connector-curvature="0" id="path2212" style="font-style:normal;font-variant:normal;font-weight:normal;font-stretch:normal;font-size:medium;line-height:1em;font-family:'Univers LT 55';-inkscape-font-specification:'Univers LT 55, ';text-align:start;letter-spacing:0px;word-spacing:0px;text-anchor:start;fill:#00674e;fill-opacity:1;stroke:none;stroke-width:0.17443611" d="m -220.67205,113.89567 h 4.57162 l -2.2272,-5.92804 z m 1.52387,-7.58588 h 1.79181 l 4.88979,12.09052 h -1.8253 l -1.30617,-3.14823 h -5.60987 l -1.30618,3.14823 h -1.72482 z"/>
    <path inkscape:connector-curvature="0" id="path2214" style="font-style:normal;font-variant:normal;font-weight:normal;font-stretch:normal;font-size:medium;line-height:1em;font-family:'Univers LT 55';-inkscape-font-specification:'Univers LT 55, ';text-align:start;letter-spacing:0px;word-spacing:0px;text-anchor:start;fill:#00674e;fill-opacity:1;stroke:none;stroke-width:0.17443611" d="m -209.13991,117.02715 h 1.6411 q 0.87078,0 1.70807,-0.10048 0.85404,-0.11722 1.4569,-0.56936 0.56935,-0.43539 0.88753,-0.98801 0.33491,-0.55261 0.48563,-1.08848 0.15071,-0.55261 0.1842,-1.02149 0.0335,-0.46889 0.0335,-0.73682 0,-0.16746 -0.0335,-0.60285 -0.0168,-0.4354 -0.13397,-0.97126 -0.10047,-0.55262 -0.35166,-1.13872 -0.23444,-0.58611 -0.65309,-1.05499 -0.5861,-0.63635 -1.35641,-0.8373 -0.75357,-0.21769 -1.85879,-0.21769 h -2.00951 z m -1.67459,-10.71736 h 3.49989 q 0.60285,0 1.25594,0.0335 0.65309,0.0168 1.28943,0.16746 0.63635,0.15071 1.22245,0.46889 0.60285,0.31817 1.10523,0.90427 0.8038,0.95452 1.13872,2.14347 0.35166,1.17221 0.35166,2.42815 0,0.98801 -0.1842,1.77507 -0.18421,0.78705 -0.48563,1.40665 -0.28468,0.6196 -0.63635,1.07173 -0.35166,0.4354 -0.70332,0.70333 -0.45214,0.36841 -0.95452,0.56936 -0.50237,0.20095 -1.05499,0.30143 -0.55261,0.0837 -1.17221,0.10047 -0.60285,0.0168 -1.27268,0.0168 h -3.39942 z"/>
    <path inkscape:connector-curvature="0" id="path2216" style="font-style:normal;font-variant:normal;font-weight:normal;font-stretch:normal;font-size:medium;line-height:1em;font-family:'Univers LT 55';-inkscape-font-specification:'Univers LT 55, ';text-align:start;letter-spacing:0px;word-spacing:0px;text-anchor:start;fill:#00674e;fill-opacity:1;stroke:none;stroke-width:0.17443611" d="m -196.79611,113.89567 h 4.57162 l -2.2272,-5.92804 z m 1.52387,-7.58588 h 1.79181 l 4.88979,12.09052 h -1.8253 l -1.30617,-3.14823 h -5.60987 l -1.30618,3.14823 h -1.72482 z"/>
    <rect ry="9.1181908" rx="9.1181908" y="304.24295" x="-337.08987" height="80.722816" width="158.23042" id="rect887" style="opacity:1;fill:#00674e;fill-opacity:1;stroke:none;stroke-width:2.10750318;stroke-linecap:round;stroke-linejoin:round;stroke-miterlimit:4;stroke-dasharray:none;stroke-opacity:1;paint-order:stroke fill markers"/>
    <path inkscape:connector-curvature="0" id="path945" style="font-style:normal;font-variant:normal;font-weight:normal;font-stretch:normal;font-size:medium;line-height:1em;font-family:HGDPIXymbols;-inkscape-font-specification:HGDPIXymbols;text-align:start;letter-spacing:0px;word-spacing:0px;text-anchor:start;fill:#ffffff;fill-opacity:1;stroke:none;stroke-width:0.85337752" d="m -300.33046,370.82013 h -8.1105 v -41.94522 h -4.58776 v -6.88163 q 1.80234,0 3.52275,-1.06502 1.7204,-1.06501 2.3758,-2.53965 h 6.79971 z"/>
    <path inkscape:connector-curvature="0" id="path947" style="font-style:normal;font-variant:normal;font-weight:normal;font-stretch:normal;font-size:medium;line-height:1em;font-family:HGDPIXymbols;-inkscape-font-specification:HGDPIXymbols;text-align:start;letter-spacing:0px;word-spacing:0px;text-anchor:start;fill:#ffffff;fill-opacity:1;stroke:none;stroke-width:0.85337752" d="m -251.12151,344.60437 q 0,10.65015 -3.68659,17.69564 -4.7516,9.17551 -14.74636,9.17551 -9.99476,0 -14.74637,-9.09359 -3.68659,-7.04548 -3.68659,-17.77756 0,-10.65015 3.68659,-17.69564 4.75161,-9.17551 14.74637,-9.17551 9.99476,0 14.74636,9.09359 3.68659,7.04548 3.68659,17.77756 z m -8.19242,0 q 0,-8.19242 -2.29388,-13.02596 -2.7035,-5.65277 -7.94665,-5.65277 -5.16123,0 -7.86473,5.65277 -2.3758,4.99738 -2.3758,13.02596 0,8.19242 2.29388,13.02596 2.7035,5.65277 7.94665,5.65277 5.16123,0 7.86473,-5.65277 2.3758,-4.99738 2.3758,-13.02596 z"/>
    <path inkscape:connector-curvature="0" id="path949" style="font-style:normal;font-variant:normal;font-weight:normal;font-stretch:normal;font-size:medium;line-height:1em;font-family:HGDPIXymbols;-inkscape-font-specification:HGDPIXymbols;text-align:start;letter-spacing:0px;word-spacing:0px;text-anchor:start;fill:#ffffff;fill-opacity:1;stroke:none;stroke-width:0.85337752" d="m -202.92061,357.71225 h -4.91545 v 13.10788 h -8.19243 V 357.71225 H -241.425 v -5.48892 l 25.39651,-33.83472 h 8.19243 v 31.95046 h 4.91545 z m -13.10788,-7.37318 v -18.43296 l -13.84519,18.43296 z"/>
  </g>
</svg>