<?xml version="1.0" encoding="UTF-8" standalone="no"?>
<!-- Created with Inkscape (http://www.inkscape.org/) -->
<svg xmlns:dc="http://purl.org/dc/elements/1.1/" xmlns:cc="http://creativecommons.org/ns#" xmlns:rdf="http://www.w3.org/1999/02/22-rdf-syntax-ns#" xmlns:svg="http://www.w3.org/2000/svg" xmlns="http://www.w3.org/2000/svg" version="1.1" width="450.00104" height="600.00232" viewBox="0 0 450.00105 600.00232" id="svg2" xml:space="preserve"><metadata id="metadata28"><rdf:RDF><cc:Work rdf:about=""><dc:format>image/svg+xml</dc:format><dc:type rdf:resource="http://purl.org/dc/dcmitype/StillImage"/><dc:title/></cc:Work></rdf:RDF></metadata><defs id="defs26"/><g transform="translate(3.07e-7,-0.99992184)" id="Semi_Offical" style="display:none"><path d="m 43.097,191.96 59.681,-75.728 v 56.031 l -20.116,-16.035 -8.959,11.584 29.368,24.083 h 15.331 v -120.5 l -92.856,120.57 h 17.553 z m 79.602,-0.065 h 16.047 V 59.635 h -16.047 v 132.26 z m 182.95,-74.772 v -7.816 l -16.063,2.299 v 38.706 l -11.49,0.085 c 0,14.164 -11.49,25.658 -25.666,25.658 -14.16,0 -25.65,-11.494 -25.65,-25.658 0,-14.175 11.49,-25.649 25.65,-25.649 4.354,0 8.445,1.074 12.043,2.991 l -17.267,17.26 10.213,10.216 29.059,-28.974 c -7.543,-10.692 -20.01,-17.658 -34.08,-17.658 -13.867,0 -26.154,6.774 -33.738,17.19 -7.585,-10.339 -19.823,-17.056 -33.625,-17.056 -9.65,0 -18.545,3.284 -25.616,8.789 H 159.37 V 71.532 l -16.031,1.725 v 118.64 h 16.031 v -8.642 c 7.079,5.542 15.981,8.837 25.665,8.837 13.867,0 26.146,-6.771 33.723,-17.187 7.584,10.343 19.822,17.056 33.64,17.056 16.242,0 30.305,-9.281 37.189,-22.83 v 22.708 h 16.063 v -41.51 c 0,0 -0.113,-8.923 5.371,-15.697 4.662,-5.75 9.016,-7.234 9.016,-7.234 v -17.28 c 0,0 -6.885,1.217 -14.41,7.1 l 0.022,-0.095 z m -120.6,58.932 c -7.063,0 -13.443,-2.852 -18.081,-7.45 l -7.601,7.592 V 150.23 l 0.016,0.167 c 0,-14.175 11.507,-25.649 25.666,-25.649 14.176,0 25.649,11.474 25.649,25.649 0.001,14.164 -11.473,25.658 -25.649,25.658 m 165.48,-66.707 h -11.531 l -0.09,-0.024 v -10.29 l -15.875,2.583 v 90.278 h 15.875 v -68.347 l 0.09,-0.016 h 8.09 l 3.441,-14.184 z m 58.672,0 v 7.967 l 0.016,0.269 c -7.072,-5.509 -15.934,-8.784 -25.584,-8.784 -23.037,0 -41.697,18.667 -41.697,41.696 0,23.025 18.66,41.693 41.697,41.693 9.635,0 18.504,-3.288 25.568,-8.785 v 8.492 h 16.063 v -80.244 l -16.063,-2.304 z m 0,41.074 v 25.625 l -7.471,-7.511 c -4.639,4.634 -11.051,7.519 -18.131,7.519 -14.176,0 -25.648,-11.494 -25.648,-25.658 0,-14.175 11.473,-25.649 25.648,-25.649 14.168,0 25.666,11.474 25.666,25.649 l -0.064,0.025 z" id="path5" style="fill:#222021"/><path d="m 35.008,403.46 c 0.31,-73.81 86.022,-131.8 190.4,-131.83 104.37,0.03 190.08,58.02 190.39,131.83 -0.31,73.79 -86.02,131.78 -190.39,131.82 -104.38,-0.04 -190.09,-58.03 -190.4,-131.82 m 6.258,0 c -0.016,34.242 20.189,65.507 53.496,88.422 33.267,22.883 79.504,37.14 130.65,37.14 51.121,0 97.373,-14.257 130.64,-37.14 33.314,-22.915 53.496,-54.18 53.496,-88.422 0,-34.26 -20.182,-65.531 -53.496,-88.423 -33.268,-22.882 -79.52,-37.172 -130.64,-37.156 -51.145,-0.016 -97.382,14.273 -130.65,37.156 C 61.456,337.928 41.25,369.2 41.266,403.46" id="path7" style="fill:#222021"/><path d="m 155.1,389.37 c -2.506,5.069 -4.947,10.619 -7.34,16.665 -2.393,6.046 -4.524,12.499 -6.38,19.376 -1.871,6.884 -3.385,14.11 -4.549,21.654 -1.18,7.551 -1.749,15.404 -1.749,23.574 h -20.39 c 0,-8.049 0.521,-15.836 1.53,-23.404 1.025,-7.551 2.36,-14.77 3.987,-21.646 1.636,-6.884 3.508,-13.386 5.647,-19.514 2.116,-6.12 4.264,-11.751 6.429,-16.878 5.127,-12.141 10.953,-23.225 17.487,-33.241 H 99.655 v -19.685 h 75.411 v 20.637 c -7.479,9.749 -14.119,20.564 -19.962,32.462" id="path9"/><path d="m 250.13,438.01 v 32.632 H 230.616 V 438.01 h -56.068 v -14.696 l 55.896,-87.039 h 19.686 v 83.1 h 8.396 v 18.636 h -8.396 z m -19.514,-66.223 -30.614,47.588 h 30.442 l 0.172,-47.588 z" id="path11"/><path d="m 351.17,376.94 c 0,8.576 -0.977,17.211 -2.93,25.9 -1.953,8.691 -4.867,17.162 -8.756,25.414 -3.873,8.252 -8.707,16.112 -14.51,23.615 -5.811,7.494 -12.588,14.322 -20.336,20.523 l -13.475,-15.755 c 7.697,-6.005 14.004,-12.304 18.936,-18.896 4.932,-6.592 8.764,-13.061 11.506,-19.416 -1.871,0.464 -4.287,0.74 -7.25,0.83 -2.994,0.082 -6.168,-0.229 -9.545,-0.969 -3.385,-0.724 -6.779,-1.977 -10.197,-3.751 -3.4,-1.774 -6.492,-4.28 -9.275,-7.486 -2.768,-3.206 -5.021,-7.259 -6.771,-12.157 -1.75,-4.899 -2.637,-10.855 -2.637,-17.854 0,-5.127 0.586,-9.732 1.727,-13.818 1.131,-4.076 2.668,-7.697 4.629,-10.839 1.961,-3.157 4.199,-5.858 6.73,-8.097 2.539,-2.254 5.225,-4.077 8.057,-5.51 2.832,-1.432 5.68,-2.481 8.568,-3.148 2.889,-0.676 5.639,-1.01 8.268,-1.01 4.549,0 9.041,0.871 13.467,2.629 4.443,1.741 8.414,4.41 11.947,7.959 3.531,3.556 6.379,7.975 8.568,13.247 2.189,5.283 3.279,11.476 3.279,18.589 m -20.205,0.528 c 0,-4.842 -0.668,-8.748 -2.01,-11.718 -1.336,-2.986 -2.922,-5.281 -4.736,-6.909 -1.791,-1.644 -3.654,-2.733 -5.551,-3.288 -1.887,-0.553 -3.359,-0.83 -4.41,-0.83 -3.148,0 -5.875,0.604 -8.17,1.791 -2.318,1.204 -4.199,2.832 -5.697,4.898 -1.488,2.067 -2.586,4.477 -3.318,7.227 -0.732,2.734 -1.092,5.68 -1.092,8.829 0,2.97 0.326,5.77 1.002,8.397 0.666,2.629 1.732,4.924 3.197,6.869 1.449,1.944 3.328,3.515 5.631,4.678 2.313,1.172 5.127,1.758 8.447,1.758 1.4,0 3.061,-0.235 4.996,-0.699 1.912,-0.473 3.736,-1.48 5.453,-3.027 1.725,-1.529 3.205,-3.743 4.418,-6.607 1.229,-2.848 1.84,-6.641 1.84,-11.369" id="path13"/></g><g transform="translate(-3.4639e-5,2.8156789e-5)" id="layer2"><g transform="matrix(0.9982,0,0,0.99834,3.4639e-5,-3.6093e-5)" id="Boarder"><path d="m 0.5,38.433 v 524.14 c 0.04,20.948 16.977,37.9 37.93,37.931 h 373.96 c 20.947,-0.03 37.885,-16.982 37.927,-37.931 V 38.433 C 450.267,17.481 433.327,0.534 412.387,0.503 H 38.427 C 17.474,0.534 0.537,17.481 0.497,38.436" id="path16" style="fill:#ffffff;stroke:#000000"/></g><g transform="translate(4.344,-0.99994)" id="Wordmark"><path d="m 42.018,196.12 58.485,-74.202 v 54.902 l -19.701,-15.713 -8.795,11.35 28.776,23.598 h 15.022 V 77.975 l -90.98,118.14 h 17.193 z m 78.005,-0.065 h 15.723 V 66.465 h -15.72 v 129.59 z m 179.25,-73.266 v -7.658 l -15.74,2.253 v 37.926 l -11.265,0.085 c 0,13.878 -11.253,25.139 -25.152,25.139 -13.863,0 -25.114,-11.26 -25.114,-25.139 0,-13.892 11.251,-25.133 25.114,-25.133 4.276,0 8.285,1.053 11.8,2.93 l -16.909,16.912 10.008,10.013 28.467,-28.391 c -7.385,-10.478 -19.599,-17.304 -33.387,-17.304 -13.589,0 -25.627,6.639 -33.051,16.844 -7.438,-10.131 -19.423,-16.712 -32.962,-16.712 -9.446,0 -18.165,3.216 -25.085,8.611 h -0.058 V 78.111 l -15.703,1.691 v 116.25 h 15.703 v -8.469 c 6.937,5.43 15.656,8.665 25.143,8.665 13.597,0 25.635,-6.638 33.051,-16.844 7.442,10.135 19.431,16.713 32.962,16.713 15.915,0 29.694,-9.094 36.438,-22.372 v 22.252 h 15.74 v -40.673 c 0,0 -0.111,-8.743 5.265,-15.38 4.564,-5.635 8.831,-7.09 8.831,-7.09 v -16.93 c 0,0 -6.745,1.192 -14.116,6.957 l 0.02,-0.093 z m -118.16,57.745 c -6.922,0 -13.171,-2.792 -17.715,-7.297 l -7.459,7.439 v -25.444 l 0.018,0.163 c 0,-13.892 11.274,-25.133 25.156,-25.133 13.875,0 25.132,11.241 25.132,25.133 0.001,13.878 -11.257,25.139 -25.132,25.139 m 162.14,-65.362 h -11.294 l -0.081,-0.024 v -10.084 l -15.563,2.535 v 88.456 h 15.563 v -66.97 l 0.081,-0.015 h 7.926 l 3.368,-13.898 z m 57.492,0 v 7.804 l 0.018,0.264 c -6.93,-5.397 -15.62,-8.608 -25.081,-8.608 -22.562,0 -40.853,18.292 -40.853,40.858 0,22.563 18.291,40.851 40.853,40.851 9.453,0 18.143,-3.217 25.063,-8.607 v 8.32 h 15.739 v -78.627 l -15.739,-2.255 z m 0,40.247 v 25.108 l -7.316,-7.358 c -4.55,4.54 -10.83,7.365 -17.775,7.365 -13.883,0 -25.135,-11.26 -25.135,-25.139 0,-13.892 11.252,-25.133 25.135,-25.133 13.887,0 25.148,11.241 25.148,25.133 l -0.057,0.024 z" id="path19"/></g><g transform="translate(-0.40649,-4.956)" id="Circle"><path d="m 35.008,404.46 c 0.31,-73.808 86.023,-131.8 190.4,-131.83 104.37,0.033 190.08,58.021 190.4,131.83 -0.32,73.79 -86.03,131.78 -190.4,131.82 -104.38,-0.04 -190.09,-58.03 -190.4,-131.82 m 6.258,0 c -0.016,34.242 20.189,65.507 53.496,88.422 33.268,22.883 79.504,37.14 130.65,37.14 51.121,0 97.373,-14.257 130.64,-37.14 33.314,-22.915 53.496,-54.18 53.496,-88.422 0,-34.26 -20.182,-65.531 -53.496,-88.423 -33.268,-22.882 -79.52,-37.172 -130.64,-37.156 -51.145,-0.016 -97.381,14.273 -130.65,37.156 C 61.455,338.928 41.25,370.2 41.266,404.46" id="path22" style="fill:#222021"/></g></g><g id="text3000" style="font-size:210px;font-style:normal;font-variant:normal;font-weight:normal;font-stretch:normal;text-align:center;line-height:125%;letter-spacing:0px;word-spacing:0px;writing-mode:lr-tb;text-anchor:middle;fill:#000000;fill-opacity:1;stroke:none;font-family:Roadgeek 2005 Series C;-inkscape-font-specification:Roadgeek 2005 Series C"><path d="m 170.61817,428.17619 c -9e-5,6.72004 -0.91009,12.81003 -2.73,18.27 -1.82008,5.46002 -4.48008,10.22002 -7.98,14.28 -3.36007,3.92001 -7.49007,7 -12.39,9.24 -4.90006,2.1 -10.36005,3.15 -16.38,3.15 -12.88004,0 -22.61003,-4.41 -29.19,-13.23 -6.580013,-8.95998 -9.87001,-21.48997 -9.869997,-37.59 -1.3e-5,-8.53994 1.049986,-17.07993 3.15,-25.62 2.239982,-8.67992 5.389977,-17.00991 9.449997,-24.99 4.19997,-8.11989 9.30997,-15.81988 15.33,-23.1 6.01996,-7.27987 12.87995,-13.85986 20.58,-19.74 l 11.34,15.96 c -2.94007,2.24012 -5.95006,4.90012 -9.03,7.98 -2.94006,3.08012 -5.74005,6.37011 -8.4,9.87 -2.66005,3.36011 -5.04005,6.8601 -7.14,10.5 -2.10004,3.6401 -3.78004,7.14009 -5.04,10.5 1.67996,-0.27991 3.21996,-0.41991 4.62,-0.42 1.53995,9e-5 2.93995,9e-5 4.2,0 6.01995,9e-5 11.47994,1.12009 16.38,3.36 4.89993,2.10008 9.02993,5.18008 12.39,9.24 3.49992,3.92007 6.15992,8.61007 7.98,14.07 1.81991,5.46006 2.72991,11.55005 2.73,18.27 m -19.74,0 c -7e-5,-7.55995 -1.82007,-13.71994 -5.46,-18.48 -3.64006,-4.75993 -8.40005,-7.13993 -14.28,-7.14 -6.02004,7e-5 -10.85004,2.24007 -14.49,6.72 -3.50003,4.48006 -5.25003,10.08005 -5.25,16.8 -3e-5,7.98004 1.74997,14.56003 5.25,19.74 3.63996,5.04002 8.46996,7.56002 14.49,7.56 5.87995,2e-5 10.63994,-2.30998 14.28,-6.93 3.63993,-4.75997 5.45993,-10.84996 5.46,-18.27" id="path3395"/><path d="m 270.38786,432.58619 c -9e-5,5.74003 -0.98009,11.13003 -2.94,16.17 -1.96008,4.90002 -4.69008,9.17001 -8.19,12.81 -3.36007,3.64001 -7.49007,6.51 -12.39,8.61 -4.76006,1.96 -9.94005,2.94 -15.54,2.94 -5.74004,0 -10.99004,-0.98 -15.75,-2.94 -4.62003,-1.96 -8.68002,-4.68999 -12.18,-8.19 -3.36002,-3.49999 -6.09001,-7.62998 -8.19,-12.39 -1.96001,-4.89997 -3.08001,-10.21997 -3.36,-15.96 l 19.74,0 c 0.55997,5.74003 2.58997,10.50003 6.09,14.28 3.63996,3.64002 8.18996,5.46002 13.65,5.46 5.73995,2e-5 10.42994,-1.95998 14.07,-5.88 3.77993,-4.05997 5.66993,-9.02997 5.67,-14.91 -7e-5,-3.77996 -0.49007,-7.27995 -1.47,-10.5 -0.98006,-3.35995 -2.31006,-6.22994 -3.99,-8.61 -1.68006,-2.51994 -3.64006,-4.47994 -5.88,-5.88 -2.10005,-1.39993 -4.41005,-2.09993 -6.93,-2.1 l -9.87,0 0,-19.32 8.4,0 c 2.51995,9e-5 4.40995,-0.41991 5.67,-1.26 1.39995,-0.83991 2.93994,-2.23991 4.62,-4.2 4.05994,-4.4799 6.08994,-9.7299 6.09,-15.75 -6e-5,-5.45989 -1.54006,-9.79988 -4.62,-13.02 -2.94006,-3.21988 -6.86005,-4.82988 -11.76,-4.83 -4.48004,1.2e-4 -8.05004,1.33012 -10.71,3.99 -2.52003,2.52012 -4.06003,6.16011 -4.62,10.92 l -19.74,-2.52 c 0.55999,-4.61988 1.81999,-8.88988 3.78,-12.81 1.95998,-4.05987 4.47998,-7.48987 7.56,-10.29 3.07997,-2.79986 6.64997,-4.96986 10.71,-6.51 4.05996,-1.67986 8.39996,-2.51986 13.02,-2.52 5.03995,1.4e-4 9.72994,0.91014 14.07,2.73 4.33993,1.82014 8.04993,4.41014 11.13,7.77 3.21992,3.22013 5.73992,7.07013 7.56,11.55 1.81992,4.34012 2.72992,9.03011 2.73,14.07 -8e-5,5.8801 -0.98008,11.3401 -2.94,16.38 -1.82008,5.04009 -5.11007,10.29008 -9.87,15.75 5.45992,4.90007 9.51992,10.50007 12.18,16.8 2.79992,6.30005 4.19991,13.02005 4.2,20.16" id="path3397"/><path d="m 361.55411,349.63619 c -6.30008,7.14012 -11.90007,15.26011 -16.8,24.36 -4.90006,8.96009 -9.31006,19.11008 -13.23,30.45 -3.78005,10.78006 -6.51005,21.35005 -8.19,31.71 -1.68004,10.22003 -2.80004,21.70001 -3.36,34.44 l -19.74,0 0,-2.94 c -2e-5,-3.49999 0.20998,-7.55999 0.63,-12.18 0.41998,-4.61998 0.97998,-9.37997 1.68,-14.28 0.83998,-5.03996 1.74998,-10.07996 2.73,-15.12 0.97997,-5.17995 2.09997,-10.07994 3.36,-14.7 1.53997,-5.59993 3.14997,-10.91993 4.83,-15.96 1.81996,-5.17992 3.77996,-10.21991 5.88,-15.12 2.23996,-4.8999 4.68996,-9.7999 7.35,-14.7 2.65995,-5.03989 5.73995,-10.35988 9.24,-15.96 l -52.92,0 0,-19.74 78.54,0 0,19.74 0,0" id="path3399"/></g></svg>