<?xml version="1.0" encoding="UTF-8" standalone="no"?>
<!-- Created with Inkscape (http://www.inkscape.org/) -->
<svg xmlns:dc="http://purl.org/dc/elements/1.1/" xmlns:cc="http://creativecommons.org/ns#" xmlns:rdf="http://www.w3.org/1999/02/22-rdf-syntax-ns#" xmlns:svg="http://www.w3.org/2000/svg" xmlns="http://www.w3.org/2000/svg" xmlns:sodipodi="http://sodipodi.sourceforge.net/DTD/sodipodi-0.dtd" xmlns:inkscape="http://www.inkscape.org/namespaces/inkscape" width="369.57144" height="218.79846" id="svg2" inkscape:label="Pozadí" version="1.1" inkscape:version="0.48.2 r9819" sodipodi:docname="CZ traffic sign IS17 - E50.svg">
  <defs id="defs3"/>
  <sodipodi:namedview id="base" pagecolor="#ffffff" bordercolor="#666666" borderopacity="1.0" inkscape:pageopacity="0.0" inkscape:pageshadow="2" inkscape:zoom="1.9698492" inkscape:cx="135.77797" inkscape:cy="102.40814" inkscape:document-units="px" inkscape:current-layer="layer1" showgrid="false" inkscape:window-width="1280" inkscape:window-height="962" inkscape:window-x="-8" inkscape:window-y="-8" inkscape:window-maximized="1" fit-margin-top="0" fit-margin-left="0" fit-margin-right="0" fit-margin-bottom="0"/>
  <metadata id="metadata6">
    <rdf:RDF>
      <cc:Work rdf:about="">
        <dc:format>image/svg+xml</dc:format>
        <dc:type rdf:resource="http://purl.org/dc/dcmitype/StillImage"/>
        <dc:title/>
      </cc:Work>
    </rdf:RDF>
  </metadata>
  <g inkscape:label="Vrstva 1" inkscape:groupmode="layer" id="layer1" transform="translate(-163.04762,-261.94635)">
    <path style="fill:#00874e;fill-opacity:1;fill-rule:evenodd;stroke:none" d="m 198.04762,261.94635 299.57144,0 c 19.39,0 35,15.61 35,35 l 0,148.79846 c 0,19.39 -15.61,35 -35,35 l -299.57144,0 c -19.39,0 -35,-15.61 -35,-35 l 0,-148.79846 c 0,-19.39 15.61,-35 35,-35 z" id="rect2995"/>
    <path style="fill:none;stroke:#ffffff;stroke-width:11.53367519;stroke-linejoin:round;stroke-miterlimit:0;stroke-opacity:1" d="m 196.33334,275.84558 303,0 c 11.08,0 20,8.92 20,20 l 0,151 c 0,11.08 -8.92,20 -20,20 l -303,0 c -11.08,0 -20,-8.92 -20,-20 l 0,-151 c 0,-11.08 8.92,-20 20,-20 z" id="rect3765"/>
    <path inkscape:connector-curvature="0" id="path2989" style="font-size:160px;font-style:normal;font-variant:normal;font-weight:bold;font-stretch:normal;text-align:start;line-height:125%;letter-spacing:0px;word-spacing:0px;writing-mode:lr-tb;text-anchor:start;fill:#ffffff;fill-opacity:1;stroke:none;font-family:DIN Medium;-inkscape-font-specification:'DIN Medium, Bold'" d="m 299.93051,428.67224 -74.82422,0 0,-114.80469 74.82422,0 0,18.29102 -54.38476,0 0,29.50684 46.42089,0 0,18.21289 -46.42089,0 0,30.4248 54.38476,0 z"/>
    <path inkscape:connector-curvature="0" id="path2991" style="font-size:160px;font-style:normal;font-variant:normal;font-weight:bold;font-stretch:normal;text-align:start;line-height:125%;letter-spacing:0px;word-spacing:0px;writing-mode:lr-tb;text-anchor:start;fill:#ffffff;fill-opacity:1;stroke:none;font-family:DIN Medium;-inkscape-font-specification:'DIN Medium, Bold'" d="m 386.00473,389.80505 c -8e-5,6.82946 -0.66902,12.67907 -2.00684,17.54883 -1.33796,4.86981 -3.97793,9.27573 -7.91992,13.21778 -6.11334,6.11653 -14.35552,9.1748 -24.72656,9.1748 -5.31905,0 -10.14082,-0.84635 -14.46533,-2.53906 -4.32457,-1.69271 -7.89472,-3.8916 -10.71045,-6.59668 -2.88413,-2.88736 -4.99025,-6.13931 -6.31836,-9.75586 -1.32814,-3.61652 -2.17775,-8.3447 -2.54883,-14.18457 l 19.24805,0 c 0.69007,5.59247 2.23955,9.58173 4.64844,11.96777 2.40881,2.38609 5.79097,3.57912 10.14648,3.5791 4.28381,2e-5 7.72781,-1.30043 10.33203,-3.90136 1.94981,-1.94985 3.25027,-4.42869 3.90137,-7.43653 0.65098,-3.00778 0.9765,-6.69918 0.97656,-11.07422 -6e-5,-7.18745 -1.10927,-12.63015 -3.32764,-16.32812 -2.21847,-3.69786 -5.97579,-5.54682 -11.27197,-5.54688 -3.89652,6e-5 -7.02722,0.82851 -9.39209,2.48536 -2.36494,1.65695 -4.09915,4.17323 -5.20264,7.54882 l -17.53417,0 0,-64.09668 63.64746,0 0,17.36817 -45.80567,0 0,26.36719 c 2.46091,-4.29029 8.06637,-6.43547 16.81641,-6.43555 9.07872,8e-5 16.34108,3.22273 21.78711,9.66797 3.71737,2.68561 6.26783,6.58453 7.65136,11.69677 1.38339,5.11236 2.07512,10.87 2.0752,17.27295 z"/>
    <path inkscape:connector-curvature="0" id="path2993" style="font-size:160px;font-style:normal;font-variant:normal;font-weight:bold;font-stretch:normal;text-align:start;line-height:125%;letter-spacing:0px;word-spacing:0px;writing-mode:lr-tb;text-anchor:start;fill:#ffffff;fill-opacity:1;stroke:none;font-family:DIN Medium;-inkscape-font-specification:'DIN Medium, Bold'" d="m 470.56039,396.01111 c -7e-5,6.75133 -1.50072,12.66034 -4.50195,17.72705 -3.00137,5.06674 -7.10456,8.97543 -12.30957,11.72607 -5.20513,2.75065 -10.94894,4.12598 -17.23144,4.12598 -6.31515,0 -12.05733,-1.37288 -17.22657,-4.11865 -5.16929,-2.74576 -9.23911,-6.66178 -12.20947,-11.74805 -2.97039,-5.08624 -4.45558,-10.99037 -4.45557,-17.7124 l 0,-49.56055 c -10e-6,-5.06827 0.85204,-9.66625 2.55616,-13.79394 1.70408,-4.12751 4.13572,-7.69033 7.29492,-10.68848 3.15916,-2.99794 6.8001,-5.25135 10.92285,-6.76025 4.12269,-1.50868 8.49524,-2.26307 13.11768,-2.26319 4.60932,1.2e-4 8.99978,0.76835 13.17138,2.30469 4.17149,1.53657 7.80186,3.76801 10.89112,6.69434 3.08912,2.92653 5.52482,6.49505 7.30712,10.70556 1.78215,4.21071 2.67327,8.81112 2.67334,13.80127 z m -19.44824,-0.45899 0,-48.64257 c -6e-5,-3.29419 -0.59413,-6.20109 -1.78222,-8.72071 -1.18821,-2.51944 -2.90777,-4.46117 -5.1587,-5.82519 -2.25102,-1.36384 -4.80229,-2.0458 -7.6538,-2.0459 -2.91346,1e-4 -5.46716,0.67799 -7.66114,2.03369 -2.19404,1.35589 -3.87291,3.29192 -5.03662,5.80811 -1.16376,2.51636 -1.74563,5.43302 -1.7456,8.75 l 0,48.64257 c -3e-5,5.12699 1.28984,9.18623 3.86963,12.17774 2.57971,2.99155 6.10429,4.48732 10.57373,4.4873 4.49214,2e-5 8.04763,-1.50551 10.6665,-4.5166 2.61876,-3.01104 3.92816,-7.06052 3.92822,-12.14844 z"/>
  </g>
</svg>