<?xml version="1.0" encoding="UTF-8" standalone="no"?>
<!-- Created with Inkscape (http://www.inkscape.org/) -->
<svg xmlns:dc="http://purl.org/dc/elements/1.1/" xmlns:cc="http://creativecommons.org/ns#" xmlns:rdf="http://www.w3.org/1999/02/22-rdf-syntax-ns#" xmlns:svg="http://www.w3.org/2000/svg" xmlns="http://www.w3.org/2000/svg" xmlns:sodipodi="http://sodipodi.sourceforge.net/DTD/sodipodi-0.dtd" xmlns:inkscape="http://www.inkscape.org/namespaces/inkscape" width="750mm" height="350mm" viewBox="0 0 750 350" version="1.1" id="svg39" inkscape:version="0.92.4 (5da689c313, 2019-01-14)" sodipodi:docname="88.svg">
  <defs id="defs33"/>
  <sodipodi:namedview id="base" pagecolor="#ffffff" bordercolor="#666666" borderopacity="1.0" inkscape:pageopacity="0.0" inkscape:pageshadow="2" inkscape:zoom="0.24748737" inkscape:cx="2132.7529" inkscape:cy="295.28799" inkscape:document-units="mm" inkscape:current-layer="layer1" showgrid="false" fit-margin-top="0" fit-margin-left="0" fit-margin-right="0" fit-margin-bottom="0" inkscape:window-width="1920" inkscape:window-height="1057" inkscape:window-x="-8" inkscape:window-y="-8" inkscape:window-maximized="1"/>
  <metadata id="metadata36">
    <rdf:RDF>
      <cc:Work rdf:about="">
        <dc:format>image/svg+xml</dc:format>
        <dc:type rdf:resource="http://purl.org/dc/dcmitype/StillImage"/>
        <dc:title/>
      </cc:Work>
    </rdf:RDF>
  </metadata>
  <g inkscape:label="Layer 1" inkscape:groupmode="layer" id="layer1" transform="translate(0,53)">
    <rect style="opacity:1;vector-effect:none;fill:#005eb8;fill-opacity:1;fill-rule:nonzero;stroke:none;stroke-width:3.13487816;stroke-linecap:square;stroke-linejoin:miter;stroke-miterlimit:7;stroke-dasharray:none;stroke-dashoffset:0;stroke-opacity:1" id="rect879" width="750" height="350" x="-1.1368684e-13" y="-53"/>
    <rect y="-53" x="-1.1368684e-13" height="350" width="750" id="rect892" style="opacity:1;vector-effect:none;fill:#ffffff;fill-opacity:1;fill-rule:nonzero;stroke:none;stroke-width:3.13487816;stroke-linecap:square;stroke-linejoin:miter;stroke-miterlimit:7;stroke-dasharray:none;stroke-dashoffset:0;stroke-opacity:1" rx="40" ry="40"/>
    <rect y="-33" x="20" height="310" width="710" id="rect894" style="opacity:1;vector-effect:none;fill:#005eb8;fill-opacity:1;fill-rule:nonzero;stroke:none;stroke-width:2.87055612;stroke-linecap:square;stroke-linejoin:miter;stroke-miterlimit:7;stroke-dasharray:none;stroke-dashoffset:0;stroke-opacity:1" rx="20" ry="20"/>
    <rect style="opacity:1;vector-effect:none;fill:#ffffff;fill-opacity:1;fill-rule:nonzero;stroke:none;stroke-width:0.95109147;stroke-linecap:square;stroke-linejoin:round;stroke-miterlimit:10;stroke-dasharray:none;stroke-dashoffset:0;stroke-opacity:1" id="rect879-6" width="110.00002" height="120" x="249.00003" y="102" rx="55.000011" ry="55.000011"/>
    <rect rx="25" y="131.99997" x="279.00003" height="60" width="50" id="rect882-9" style="opacity:1;vector-effect:none;fill:#005eb8;fill-opacity:1;fill-rule:nonzero;stroke:none;stroke-width:0.4534151;stroke-linecap:square;stroke-linejoin:round;stroke-miterlimit:10;stroke-dasharray:none;stroke-dashoffset:0;stroke-opacity:1" ry="25"/>
    <path sodipodi:nodetypes="ccccccc" inkscape:connector-curvature="0" id="path895" d="m 299.69976,21.999949 c -22.366,27.835524 -39.6226,62.656544 -48.3009,101.569931 -1.5168,6.52613 -2.3987,14.03975 -2.3988,21.72992 v 16.70002 l 39.088,-57.65768 c 10.0187,-29.176177 27.3766,-57.858147 51.6123,-82.342191 z" style="fill:#ffffff;stroke:none;stroke-width:3.4996345;stroke-linecap:butt;stroke-linejoin:miter;stroke-miterlimit:3;stroke-dasharray:none;stroke-opacity:1"/>
    <path style="opacity:1;vector-effect:none;fill:#ffffff;fill-opacity:1;fill-rule:nonzero;stroke:none;stroke-width:1.33203447;stroke-linecap:square;stroke-linejoin:round;stroke-miterlimit:10;stroke-dasharray:none;stroke-dashoffset:0;stroke-opacity:1" d="m 143.99986,99.999967 -7.9999,2e-5 v 27.999943 l 7.9999,4e-5 c 13.85,0 25,11.15 25,25 v 14.00017 c 0,13.84999 -11.15,25 -25,25 -13.85,0 -24.99999,-11.15001 -24.99999,-25 H 89 C 89,197.47011 113.5299,222 143.99986,222 c 30.47,0 54.9999,-24.52989 54.9999,-54.99986 v -12.00029 c 0,-30.46998 -24.5299,-54.999883 -54.9999,-54.999883 z" id="rect871" inkscape:connector-curvature="0" sodipodi:nodetypes="ccccsssccsssc"/>
    <path style="opacity:1;vector-effect:none;fill:#ffffff;fill-opacity:1;fill-rule:nonzero;stroke:none;stroke-width:0.90924716;stroke-linecap:square;stroke-linejoin:round;stroke-miterlimit:10;stroke-dasharray:none;stroke-dashoffset:0;stroke-opacity:1" d="m 143.99986,127.99998 c 27.7,0 50.0001,-23.19192 50.0001,-51.999897 v -4.00009 c 0,-27.69998 -22.3001,-50 -50.0001,-50 -27.69993,0 -49.999963,22.30002 -49.999963,50 l 10e-5,4 h 29.999963 l 1e-4,-4 c 0,-11.07998 8.9199,-20.00014 19.9998,-20.00014 11.08,0 20.0002,8.92016 20.0002,20.00014 v 4.00009 c -2e-4,13.29583 -10.7044,23.999904 -24.0003,23.999904 h -3.9998 v 27.999943 z" id="rect935" inkscape:connector-curvature="0" sodipodi:nodetypes="csssccccssccccc"/>
    <path style="opacity:1;vector-effect:none;fill:#ffffff;fill-opacity:1;fill-rule:nonzero;stroke:none;stroke-width:1.14034581;stroke-linecap:square;stroke-linejoin:round;stroke-miterlimit:10;stroke-dasharray:none;stroke-dashoffset:0;stroke-opacity:1" d="m 508.99976,222 v -30.00019 h -72.4999 l 61.4997,-81.99975 a 54.999951,54.999951 0 0 0 11.0002,-33.000217 c 0,-30.46996 -24.5299,-54.99985 -54.9999,-54.99985 -30.47,0 -54.9999,24.52989 -54.9999,54.99985 v 10.00008 h 29.9999 v -10.00008 c 0,-13.84999 11.15,-25 25,-25 13.85,0 25,11.15001 25,25 a 24.999978,24.999978 0 0 1 -5.0002,15.00029 l -74.9997,99.999677 V 222 Z" id="rect858-6" inkscape:connector-curvature="0"/>
    <path inkscape:connector-curvature="0" id="path927" d="m 660.99976,222 v -30.00019 h -72.4999 l 61.4997,-81.99975 a 54.999951,54.999951 0 0 0 11.0002,-33.000217 c 0,-30.46996 -24.5299,-54.99985 -54.9999,-54.99985 -30.47,0 -54.9999,24.52989 -54.9999,54.99985 v 10.00008 h 29.9999 v -10.00008 c 0,-13.84999 11.15,-25 25,-25 13.85,0 25,11.15001 25,25 a 24.999978,24.999978 0 0 1 -5.0002,15.00029 l -74.9997,99.999677 V 222 Z" style="opacity:1;vector-effect:none;fill:#ffffff;fill-opacity:1;fill-rule:nonzero;stroke:none;stroke-width:1.14034581;stroke-linecap:square;stroke-linejoin:round;stroke-miterlimit:10;stroke-dasharray:none;stroke-dashoffset:0;stroke-opacity:1"/>
  </g>
</svg>