<svg width="655" height="350" viewBox="0 0 655 350" fill="none" xmlns="http://www.w3.org/2000/svg">
<rect width="655" height="350" rx="30" fill="#0C479D"/>
<path fill-rule="evenodd" clip-rule="evenodd" d="M117.555 150.826H93.231L72.1458 114.794L51.1926 150.826H27L59.0568 97.8486L27 47H51.1926L72.1458 83.1757L93.0846 47H117.555L85.4988 97.5586L117.555 150.826V150.826ZM197.552 150.826H180.398V143.841C178.26 146.594 175.975 148.636 173.579 149.974C171.178 151.292 168.36 151.966 165.077 151.966C162.734 151.966 160.481 151.468 158.323 150.472C156.185 149.476 154.111 148.129 152.137 146.404V181.449H132.033V74.0644H152.137V108.951V119.061C152.137 123.721 152.986 127.426 154.685 130.176C156.852 133.588 160.2 135.301 164.652 135.301C168.917 135.301 172.197 133.632 174.467 130.322C176.458 127.373 177.445 123.624 177.445 119.061V109.669V74.0644H197.549V150.826H197.552ZM129.221 303H103.629L70.1718 255.575L59.2032 266.543V303H38.1151V199.171H59.2032V241.898L99.2704 199.171H125.569L84.7928 241.192L129.221 303V303ZM250 303H229.899V253.551C229.899 250.136 228.903 247.357 226.867 245.248C224.847 243.11 222.167 242.041 218.784 242.041C214.85 242.041 211.684 243.477 209.297 246.317C206.896 249.129 205.709 252.556 205.709 256.55V303H186.021V253.715C186.021 250.21 185.025 247.386 182.999 245.248C180.978 243.11 178.248 242.041 174.78 242.041C170.932 242.041 167.862 243.447 165.566 246.244C163.281 249.056 162.119 252.482 162.119 256.571V303H142.152V226.238H161.278V234.778C164.655 231.363 167.839 228.845 170.838 227.234C174.49 225.242 178.435 224.247 182.647 224.247C186.964 224.247 190.804 225.184 194.175 227.029C197.552 228.874 200.692 231.656 203.6 235.361C206.784 231.656 209.93 228.947 213.026 227.246C216.581 225.254 220.661 224.258 225.26 224.258C232.38 224.258 238.284 226.631 242.976 231.375C247.654 236.12 250 242.109 250 249.319" fill="white"/>
<path d="M451 272.913V303H282.028C281.795 295.464 283.016 288.217 285.69 281.261C289.991 269.783 296.879 258.478 306.354 247.348C315.828 236.217 329.517 223.348 347.42 208.739C375.204 186.015 393.978 168.015 403.744 154.739C413.509 141.464 418.391 128.913 418.391 117.087C418.391 104.681 413.945 94.2176 405.052 85.6957C396.158 77.1742 384.562 72.9133 370.263 72.913C355.15 72.9133 343.06 77.435 333.993 86.4783C324.925 95.522 320.333 108.044 320.217 124.044L287.957 120.739C290.166 96.7393 298.477 78.4495 312.893 65.8696C327.308 53.2901 346.664 47.0003 370.961 47C395.49 47.0003 414.904 53.7829 429.203 67.3479C443.502 80.9133 450.651 97.7249 450.651 117.783C450.651 127.986 448.559 138.015 444.374 147.87C440.188 157.725 433.242 168.102 423.535 179C413.828 189.899 397.698 204.855 375.146 223.87C356.313 239.638 344.223 250.333 338.875 255.957C333.527 261.58 329.11 267.232 325.622 272.913H451Z" fill="white"/>
<path d="M463.546 232.261L494.281 228.163C497.809 245.58 503.814 258.13 512.294 265.813C520.775 273.497 531.105 277.339 543.285 277.339C557.742 277.339 569.95 272.33 579.911 262.313C589.871 252.296 594.851 239.888 594.851 225.09C594.851 210.975 590.241 199.336 581.02 190.172C571.8 181.009 560.075 176.427 545.846 176.427C540.041 176.427 532.813 177.565 524.161 179.842L527.576 152.864C529.625 153.091 531.276 153.205 532.528 153.205C545.619 153.205 557.4 149.79 567.873 142.96C578.345 136.131 583.582 125.601 583.582 111.372C583.582 100.103 579.768 90.7686 572.142 83.3693C564.515 75.9705 554.668 72.2709 542.602 72.2707C530.65 72.2709 520.69 76.0274 512.721 83.5401C504.753 91.0532 499.631 102.323 497.354 117.348L466.619 111.884C470.376 91.2808 478.913 75.3159 492.232 63.9894C505.55 52.6634 522.112 47.0003 541.919 47C555.579 47.0003 568.157 49.9314 579.655 55.7935C591.151 61.6561 599.945 69.6528 606.035 79.7836C612.125 89.9148 615.17 100.672 615.17 112.055C615.17 122.869 612.267 132.716 606.462 141.594C600.656 150.473 592.062 157.531 580.679 162.767C595.477 166.182 606.974 173.268 615.17 184.025C623.366 194.782 627.464 208.243 627.464 224.407C627.464 246.263 619.496 264.789 603.559 279.986C587.623 295.182 567.474 302.78 543.114 302.78C521.145 302.78 502.903 296.235 488.39 283.144C473.876 270.054 465.595 253.093 463.546 232.261Z" fill="white"/>
</svg>