<?xml version="1.0" encoding="UTF-8"?>
<!DOCTYPE svg PUBLIC "-//W3C//DTD SVG 1.1//EN" "http://www.w3.org/Graphics/SVG/1.1/DTD/svg11.dtd">
<svg xmlns="http://www.w3.org/2000/svg" version="1.1" width="818px" height="1074px" style="shape-rendering:geometricPrecision; text-rendering:geometricPrecision; image-rendering:optimizeQuality; fill-rule:evenodd; clip-rule:evenodd" xmlns:xlink="http://www.w3.org/1999/xlink">
<g><path style="opacity:0.987" fill="#000000" d="M 25.5,-0.5 C 282.5,-0.5 539.5,-0.5 796.5,-0.5C 807.191,1.19026 814.191,7.19026 817.5,17.5C 817.5,360.167 817.5,702.833 817.5,1045.5C 815.014,1054.15 809.348,1059.65 800.5,1062C 540.833,1062.67 281.167,1062.67 21.5,1062C 12.6667,1059.83 7.16667,1054.33 5,1045.5C 4.33333,702.833 4.33333,360.167 5,17.5C 7.99426,6.9992 14.8276,0.999198 25.5,-0.5 Z"/></g>
<g><path style="opacity:1" fill="#fefefe" d="M 785.5,807.5 C 535.833,807.5 286.167,807.5 36.5,807.5C 36.5,548.833 36.5,290.167 36.5,31.5C 286.167,31.5 535.833,31.5 785.5,31.5C 785.5,290.167 785.5,548.833 785.5,807.5 Z"/></g>
<g><path style="opacity:1" fill="#737373" d="M 334.5,81.5 C 346.673,80.1753 359.006,80.1753 371.5,81.5C 371.376,82.1067 371.043,82.44 370.5,82.5C 358.678,81.5049 346.678,81.1716 334.5,81.5 Z"/></g>
<g><path style="opacity:1" fill="#6b6b6b" d="M 288.5,153.5 C 287.502,129.672 287.169,105.672 287.5,81.5C 277.833,81.5 268.167,81.5 258.5,81.5C 258.5,136.5 258.5,191.5 258.5,246.5C 257.501,191.336 257.168,136.003 257.5,80.5C 267.833,80.5 278.167,80.5 288.5,80.5C 288.5,104.833 288.5,129.167 288.5,153.5 Z"/></g>
<g><path style="opacity:1" fill="#010101" d="M 288.5,153.5 C 304.319,129.875 319.652,105.875 334.5,81.5C 346.678,81.1716 358.678,81.5049 370.5,82.5C 354.098,106.235 338.098,130.235 322.5,154.5C 339.865,185.367 357.865,215.867 376.5,246C 364.167,246.667 351.833,246.667 339.5,246C 326.46,222.752 313.293,199.585 300,176.5C 296.333,181.5 292.667,186.5 289,191.5C 288.5,209.83 288.333,228.164 288.5,246.5C 278.5,246.5 268.5,246.5 258.5,246.5C 258.5,191.5 258.5,136.5 258.5,81.5C 268.167,81.5 277.833,81.5 287.5,81.5C 287.169,105.672 287.502,129.672 288.5,153.5 Z"/></g>
<g><path style="opacity:1" fill="#6e6e6e" d="M 453.5,81.5 C 443.833,81.5 434.167,81.5 424.5,81.5C 424.5,136.5 424.5,191.5 424.5,246.5C 423.501,191.336 423.168,136.003 423.5,80.5C 433.681,80.1726 443.681,80.506 453.5,81.5 Z"/></g>
<g><path style="opacity:1" fill="#000000" d="M 453.5,81.5 C 466.407,104.41 479.741,127.076 493.5,149.5C 507.192,126.77 520.859,104.103 534.5,81.5C 543.833,81.5 553.167,81.5 562.5,81.5C 562.5,136.5 562.5,191.5 562.5,246.5C 552.833,246.5 543.167,246.5 533.5,246.5C 533.833,209.494 533.5,172.494 532.5,135.5C 519.752,157.332 506.752,178.999 493.5,200.5C 480.571,179.638 467.904,158.638 455.5,137.5C 455.217,136.711 454.717,136.044 454,135.5C 453.5,172.498 453.333,209.498 453.5,246.5C 443.833,246.5 434.167,246.5 424.5,246.5C 424.5,191.5 424.5,136.5 424.5,81.5C 434.167,81.5 443.833,81.5 453.5,81.5 Z"/></g>
<g><path style="opacity:1" fill="#2b2b2b" d="M 534.5,81.5 C 543.986,80.5062 553.652,80.1729 563.5,80.5C 563.832,136.003 563.499,191.336 562.5,246.5C 562.5,191.5 562.5,136.5 562.5,81.5C 553.167,81.5 543.833,81.5 534.5,81.5 Z"/></g>
<g><path style="opacity:1" fill="#dbdbdb" d="M 455.5,137.5 C 454.833,173.833 454.167,210.167 453.5,246.5C 453.333,209.498 453.5,172.498 454,135.5C 454.717,136.044 455.217,136.711 455.5,137.5 Z"/></g>
<g><path style="opacity:1" fill="#010101" d="M 501.5,474.5 C 500.184,480.013 500.184,485.68 501.5,491.5C 502.107,491.376 502.44,491.043 502.5,490.5C 516.036,470.381 535.036,458.881 559.5,456C 633.675,452.503 675.175,487.669 684,561.5C 686.853,598.268 678.187,631.935 658,662.5C 636.798,688.687 609.298,703.187 575.5,706C 511.347,711.357 468.513,683.857 447,623.5C 436.932,591.626 432.432,558.96 433.5,525.5C 433.346,492.018 437.18,459.018 445,426.5C 467.661,345.196 520.828,310.696 604.5,323C 624.253,326.193 642.586,333.026 659.5,343.5C 652.029,360.441 644.029,377.108 635.5,393.5C 610.139,377.579 582.805,372.746 553.5,379C 531.129,387.041 516.629,402.541 510,425.5C 504.801,441.42 501.968,457.754 501.5,474.5 Z"/></g>
<g><path style="opacity:1" fill="#010101" d="M 195.5,326.5 C 256.167,326.5 316.833,326.5 377.5,326.5C 377.5,346.167 377.5,365.833 377.5,385.5C 334.832,385.333 292.165,385.5 249.5,386C 245.019,411.269 240.686,436.602 236.5,462C 236.667,463.5 236.833,465 237,466.5C 248.336,456.416 261.503,449.916 276.5,447C 341.209,440.408 381.042,468.575 396,531.5C 402.215,565.352 400.215,598.685 390,631.5C 373.85,673.63 343.35,698.13 298.5,705C 250.769,712.859 207.269,703.026 168,675.5C 167.333,674.167 167.333,672.833 168,671.5C 176.5,655.833 185,640.167 193.5,624.5C 194.002,623.479 194.668,623.312 195.5,624C 210.668,636.085 227.668,644.751 246.5,650C 266.85,654.173 286.183,651.506 304.5,642C 316.692,633.134 324.525,621.3 328,606.5C 331.375,588.996 332.375,571.33 331,553.5C 325.265,511.123 301.099,492.956 258.5,499C 248.638,501.098 239.638,505.098 231.5,511C 224.587,517.408 218.254,524.242 212.5,531.5C 198.576,520.62 184.742,509.62 171,498.5C 178.462,441.1 186.629,383.767 195.5,326.5 Z"/></g>
<g><path style="opacity:1" fill="#a6a6a6" d="M 501.5,474.5 C 501.179,480.026 501.512,485.36 502.5,490.5C 502.44,491.043 502.107,491.376 501.5,491.5C 500.184,485.68 500.184,480.013 501.5,474.5 Z"/></g>
<g><path style="opacity:1" fill="#fdfdfd" d="M 554.5,508.5 C 590.23,506.735 611.396,523.401 618,558.5C 620.864,577.919 619.197,596.919 613,615.5C 600.527,643.568 579.027,654.735 548.5,649C 523.419,641.572 509.586,624.739 507,598.5C 503.167,577.404 505.5,557.071 514,537.5C 522.708,521.069 536.208,511.403 554.5,508.5 Z"/></g>
<g><path style="opacity:1" fill="#026666" d="M 36.5,807.5 C 286.167,807.5 535.833,807.5 785.5,807.5C 785.5,881.833 785.5,956.167 785.5,1030.5C 535.833,1030.5 286.167,1030.5 36.5,1030.5C 36.5,956.167 36.5,881.833 36.5,807.5 Z"/></g>
<g><path style="opacity:1" fill="#fcfdfd" d="M 249.5,834.5 C 266.715,832.709 282.715,836.209 297.5,845C 293.69,852.12 290.024,859.286 286.5,866.5C 272.196,858.265 257.529,857.432 242.5,864C 234.081,872.005 229.248,881.839 228,893.5C 227.333,898.833 227.333,904.167 228,909.5C 232.983,902.088 239.816,897.255 248.5,895C 286.175,891.505 306.175,908.671 308.5,946.5C 305.611,989.894 282.611,1009.06 239.5,1004C 218.335,997.497 205.502,983.33 201,961.5C 196.334,936.495 196.334,911.495 201,886.5C 204.946,864.398 216.779,848.231 236.5,838C 240.929,836.682 245.262,835.516 249.5,834.5 Z"/></g>
<g><path style="opacity:1" fill="#fdfdfd" d="M 391.5,834.5 C 422.708,830.7 444.541,843.033 457,871.5C 460.476,880.547 462.809,889.88 464,899.5C 466.741,923.82 464.074,947.487 456,970.5C 441.777,998.86 418.944,1010.03 387.5,1004C 369.013,998.848 356.18,987.348 349,969.5C 338.235,937.255 337.902,904.922 348,872.5C 355.915,852.072 370.415,839.405 391.5,834.5 Z"/></g>
<g><path style="opacity:1" fill="#fdfdfd" d="M 550.5,834.5 C 581.708,830.7 603.541,843.033 616,871.5C 619.476,880.547 621.809,889.88 623,899.5C 625.741,923.82 623.074,947.487 615,970.5C 600.777,998.86 577.944,1010.03 546.5,1004C 528.013,998.848 515.18,987.348 508,969.5C 497.235,937.255 496.902,904.922 507,872.5C 514.915,852.072 529.415,839.405 550.5,834.5 Z"/></g>
<g><path style="opacity:1" fill="#046767" d="M 395.5,859.5 C 415.07,857.567 426.903,866.234 431,885.5C 434.812,905.043 435.478,924.71 433,944.5C 431.585,956.095 427.085,966.262 419.5,975C 397.255,985.631 382.422,979.131 375,955.5C 373.615,950.239 372.615,944.906 372,939.5C 370.839,921.402 371.506,903.402 374,885.5C 376.346,872.67 383.512,864.003 395.5,859.5 Z"/></g>
<g><path style="opacity:1" fill="#046767" d="M 554.5,859.5 C 574.07,857.567 585.903,866.234 590,885.5C 593.812,905.043 594.478,924.71 592,944.5C 590.585,956.095 586.085,966.262 578.5,975C 556.255,985.631 541.422,979.131 534,955.5C 532.615,950.239 531.615,944.906 531,939.5C 529.839,921.402 530.506,903.402 533,885.5C 535.346,872.67 542.512,864.003 554.5,859.5 Z"/></g>
<g><path style="opacity:1" fill="#056767" d="M 248.5,917.5 C 265.018,916.165 275.185,923.498 279,939.5C 280.435,949.564 279.101,959.231 275,968.5C 269.977,977 262.477,981 252.5,980.5C 239.596,978.763 232.096,971.43 230,958.5C 227.07,945.146 229.903,933.312 238.5,923C 241.767,920.87 245.1,919.037 248.5,917.5 Z"/></g>
</svg>
