<?xml version="1.0" encoding="UTF-8" standalone="no"?>
<!-- Created with Inkscape (http://www.inkscape.org/) -->
<svg xmlns:dc="http://purl.org/dc/elements/1.1/" xmlns:cc="http://creativecommons.org/ns#" xmlns:rdf="http://www.w3.org/1999/02/22-rdf-syntax-ns#" xmlns:svg="http://www.w3.org/2000/svg" xmlns="http://www.w3.org/2000/svg" xmlns:sodipodi="http://sodipodi.sourceforge.net/DTD/sodipodi-0.dtd" xmlns:inkscape="http://www.inkscape.org/namespaces/inkscape" width="500" height="250" id="svg4358" version="1.1" inkscape:version="0.48.5 r10040" sodipodi:docname="SP1.svg">
  <defs id="defs4360"/>
  <sodipodi:namedview id="base" pagecolor="#ffffff" bordercolor="#666666" borderopacity="1.0" inkscape:pageopacity="0.0" inkscape:pageshadow="2" inkscape:zoom="0.98994949" inkscape:cx="391.97858" inkscape:cy="136.82782" inkscape:document-units="px" inkscape:current-layer="text4354" showgrid="false" fit-margin-top="0" fit-margin-left="0" fit-margin-right="0" fit-margin-bottom="0" inkscape:window-width="1366" inkscape:window-height="705" inkscape:window-x="-8" inkscape:window-y="-8" inkscape:window-maximized="1"/>
  <metadata id="metadata4363">
    <rdf:RDF>
      <cc:Work rdf:about="">
        <dc:format>image/svg+xml</dc:format>
        <dc:type rdf:resource="http://purl.org/dc/dcmitype/StillImage"/>
        <dc:title/>
      </cc:Work>
    </rdf:RDF>
  </metadata>
  <g inkscape:label="Livello 1" inkscape:groupmode="layer" id="layer1" transform="translate(0,-802.36218)">
    <g style="font-size:158.93937683px;font-style:normal;font-weight:normal;line-height:125%;letter-spacing:0px;word-spacing:0px;fill:#ffffff;fill-opacity:1;stroke:none;font-family:Sans" id="text4354">
      <rect style="fill:#00408c;fill-opacity:1;stroke:none" id="rect5445" width="500" height="250" x="0" y="802.36218" rx="0" ry="0"/>
      <rect style="fill:none;stroke:#ffffff;stroke-width:7.49999952;stroke-miterlimit:4;stroke-opacity:1;stroke-dasharray:none" id="rect5447" width="485" height="235" x="7.5" y="809.86218" rx="26.25" ry="26.25"/>
      <g style="font-size:166.96702576px;line-height:125%;fill:#ffffff;font-family:Sans" id="text5449" transform="matrix(0.99776348,0,0,0.99776348,1.9452482,4.4004924)">
        <path d="m 140.84686,864.90771 c 14.36171,0.3331 24.71596,7.68045 31.06278,22.04209 l -17.20047,10.85541 c -4.12137,-7.90617 -8.90861,-11.8593 -14.36176,-11.85941 -2.44972,1.1e-4 -4.53756,0.8631 -6.26352,2.58899 -1.72602,1.72609 -2.70113,3.98041 -2.92535,6.76297 -0.22087,2.22893 0.671,4.51214 2.67563,6.84961 0.6659,0.77814 2.61444,2.56019 5.84561,5.34616 8.46004,6.56768 18.03453,14.69479 28.72351,24.38135 4.22997,5.34451 6.34499,11.85775 6.34506,19.53973 -7e-5,8.79308 -2.6723,16.36298 -8.01669,22.70972 -6.01385,7.0127 -13.97448,10.68723 -23.8819,11.02359 -14.69474,0.44509 -25.3276,-7.79414 -31.89859,-24.71771 l 17.8732,-10.18778 c 3.78493,9.24157 8.29357,13.86233 13.52594,13.86231 1.55947,2e-5 3.11728,-0.389 4.67343,-1.16709 4.00915,-2.00457 6.01375,-5.40049 6.0138,-10.18777 -5e-5,-3.45195 -1.22489,-6.34672 -3.67453,-8.68433 -6.23468,-5.23229 -12.46931,-10.46462 -18.70392,-15.69702 -9.24155,-7.68196 -14.80856,-13.24896 -16.70102,-16.70102 -2.89478,-5.01141 -4.34217,-10.24375 -4.34216,-15.69702 -1e-5,-8.46338 3.17337,-15.81243 9.52014,-22.04718 6.34674,-6.23452 13.58367,-9.23971 21.71081,-9.0156 z" style="font-size:167px;font-variant:normal;font-stretch:normal;text-align:center;text-anchor:middle;fill:#ffffff;font-family:CodiceBiancoCondensed;-inkscape-font-specification:CodiceBiancoCondensed" id="path5517" inkscape:connector-curvature="0"/>
        <path d="m 225.20306,866.57425 c 7.12477,1.2e-4 14.13916,3.1735 21.04319,9.52014 7.9028,7.23705 11.85423,15.8653 11.85431,25.8848 -8e-5,10.01967 -3.67461,18.64792 -11.02359,25.88479 -7.90294,7.68209 -17.75603,11.19013 -29.55933,10.52414 l 0,44.7518 -24.04498,0 0,-116.56567 z m -7.68542,51.43832 c 6.34672,0.1122 11.13566,-1.78028 14.36685,-5.67743 2.44624,-3.00681 3.66938,-6.45879 3.66943,-10.35595 -5e-5,-3.78486 -1.39138,-7.23515 -4.17398,-10.35086 -3.33991,-3.78825 -7.96067,-5.45818 -13.8623,-5.0098 z" style="font-size:167px;font-variant:normal;font-stretch:normal;text-align:center;text-anchor:middle;fill:#ffffff;font-family:CodiceBiancoCondensed;-inkscape-font-specification:CodiceBiancoCondensed" id="path5519" inkscape:connector-curvature="0"/>
        <path d="m 335.00067,866.57425 52.60541,0 0,19.53973 -26.72061,97.53049 -23.8819,0 26.55753,-96.02704 -28.56043,0 z" style="font-size:167px;font-variant:normal;font-stretch:normal;text-align:center;text-anchor:middle;fill:#ffffff;font-family:CodiceBiancoCondensed;-inkscape-font-specification:CodiceBiancoCondensed" id="path5521" inkscape:connector-curvature="0"/>
      </g>
    </g>
  </g>
</svg>