<?xml version="1.0" encoding="UTF-8" standalone="no"?>
<!-- Created with Inkscape (http://www.inkscape.org/) -->
<svg xmlns:dc="http://purl.org/dc/elements/1.1/" xmlns:cc="http://creativecommons.org/ns#" xmlns:rdf="http://www.w3.org/1999/02/22-rdf-syntax-ns#" xmlns:svg="http://www.w3.org/2000/svg" xmlns="http://www.w3.org/2000/svg" xmlns:sodipodi="http://sodipodi.sourceforge.net/DTD/sodipodi-0.dtd" xmlns:inkscape="http://www.inkscape.org/namespaces/inkscape" width="500" height="749.99994" id="svg4358" version="1.1" inkscape:version="0.48.5 r10040" sodipodi:docname="SP1.svg">
  <defs id="defs4360"/>
  <sodipodi:namedview id="base" pagecolor="#ffffff" bordercolor="#666666" borderopacity="1.0" inkscape:pageopacity="0.0" inkscape:pageshadow="2" inkscape:zoom="0.35" inkscape:cx="49.878266" inkscape:cy="142.65089" inkscape:document-units="px" inkscape:current-layer="text4354" showgrid="false" fit-margin-top="0" fit-margin-left="0" fit-margin-right="0" fit-margin-bottom="0" inkscape:window-width="1366" inkscape:window-height="705" inkscape:window-x="-8" inkscape:window-y="-8" inkscape:window-maximized="1"/>
  <metadata id="metadata4363">
    <rdf:RDF>
      <cc:Work rdf:about="">
        <dc:format>image/svg+xml</dc:format>
        <dc:type rdf:resource="http://purl.org/dc/dcmitype/StillImage"/>
        <dc:title/>
      </cc:Work>
    </rdf:RDF>
  </metadata>
  <g inkscape:label="Livello 1" inkscape:groupmode="layer" id="layer1" transform="translate(0,-302.36224)">
    <g style="font-size:158.93937683px;font-style:normal;font-weight:normal;line-height:125%;letter-spacing:0px;word-spacing:0px;fill:#ffffff;fill-opacity:1;stroke:none;font-family:Sans" id="text4354">
      <rect y="302.36224" x="0" height="500" width="500" id="rect3791" style="fill:#ffffff;fill-opacity:1;fill-rule:evenodd;stroke:none"/>
      <g style="font-size:282.48275756999999000px;line-height:125%;font-family:Sans;fill:#000000;fill-opacity:1" id="text3793">
        <path d="m 225.19769,452.36215 0,37.56897 -68.07758,162.43103 -49.72414,0 65.25862,-157.62931 -89.827585,0 0,-42.37069 z" style="font-variant:normal;font-stretch:normal;text-align:center;text-anchor:middle;font-family:CodiceNero;-inkscape-font-specification:CodiceNero;fill:#000000;fill-opacity:1" id="path5718"/>
        <path d="m 335.81838,452.64663 57.34482,0 0,124.85345 24.00863,0 0,43.22414 -25.13794,0 0,31.63793 -46.61206,0 0,-31.92241 -99.15518,0 0,-50.28449 z m 9.88793,56.49138 -52.54311,68.36207 52.54311,0 z" style="font-variant:normal;font-stretch:normal;text-align:center;text-anchor:middle;font-family:CodiceNero;-inkscape-font-specification:CodiceNero;fill:#000000;fill-opacity:1" id="path5720"/>
      </g>
      <rect ry="26.263966" rx="26.263966" y="309.86224" x="7.5" height="485" width="485" id="rect3797" style="fill:none;stroke:#000000;stroke-width:7.5;stroke-miterlimit:4;stroke-opacity:1;stroke-dasharray:none"/>
      <rect ry="0" rx="0" y="802.36218" x="0" height="250" width="500" id="rect3799" style="fill:#00408c;fill-opacity:1;stroke:none"/>
      <rect ry="26.25" rx="26.25" y="809.86218" x="7.5" height="235" width="485" id="rect3801" style="fill:none;stroke:#ffffff;stroke-width:7.49999952;stroke-miterlimit:4;stroke-opacity:1;stroke-dasharray:none"/>
      <g style="font-size:82.86379242px;line-height:125%;fill:#ffffff;font-family:Sans" id="text3803" transform="matrix(1.0385357,0,0,1.0385357,-9.6337305,-33.590634)">
        <path d="m 85.197527,867.68231 c 13.668506,0.31701 23.522983,7.30973 29.563463,20.97817 l -16.370253,10.33145 c -3.922436,-7.52456 -8.478616,-11.28689 -13.668553,-11.28699 -2.331479,1e-4 -4.318543,0.82144 -5.961197,2.46403 -1.64271,1.64278 -2.570761,3.78829 -2.784155,6.43654 -0.210211,2.12135 0.638616,4.29435 2.546483,6.519 0.633763,0.74058 2.488248,2.43662 5.56346,5.08811 8.051698,6.25068 17.164055,13.98552 27.337105,23.20453 4.02581,5.08655 6.03874,11.28541 6.03881,18.59661 -7e-5,8.36866 -2.54332,15.57318 -7.62975,21.61358 -5.72358,6.67422 -13.299969,10.17139 -22.729188,10.49151 -13.985471,0.42361 -24.105106,-7.41793 -30.358934,-23.52466 l 17.01051,-9.69604 c 3.602237,8.79551 7.89326,13.19324 12.873081,13.19321 1.484198,3e-5 2.966816,-0.37022 4.447858,-1.11075 3.815639,-1.90781 5.723478,-5.13982 5.723524,-9.69604 -4.6e-5,-3.28532 -1.165768,-6.04037 -3.49717,-8.26515 -5.933748,-4.97974 -11.867453,-9.95953 -17.801133,-14.93937 -8.795489,-7.31117 -14.093786,-12.60947 -15.894908,-15.89491 -2.755058,-4.76953 -4.132583,-9.74931 -4.132579,-14.93937 -4e-6,-8.05488 3.020203,-15.04921 9.060631,-20.98303 6.040401,-5.93359 12.928026,-8.79373 20.662895,-8.58043 z" style="font-size:158.93937683px;font-variant:normal;font-stretch:normal;text-align:center;word-spacing:-28.55198288px;text-anchor:middle;fill:#ffffff;font-family:CodiceBiancoCondensed;-inkscape-font-specification:CodiceBiancoCondensed" id="path6231" inkscape:connector-curvature="0"/>
        <path d="m 157.21693,867.68231 c 13.6685,0.31701 23.52298,7.30973 29.56346,20.97817 l -16.37025,10.33145 c -3.92244,-7.52456 -8.47862,-11.28689 -13.66855,-11.28699 -2.33148,1e-4 -4.31855,0.82144 -5.9612,2.46403 -1.64271,1.64278 -2.57076,3.78829 -2.78416,6.43654 -0.21021,2.12135 0.63862,4.29435 2.54649,6.519 0.63376,0.74058 2.48824,2.43662 5.56346,5.08811 8.05169,6.25068 17.16405,13.98552 27.3371,23.20453 4.02581,5.08655 6.03874,11.28541 6.03881,18.59661 -7e-5,8.36866 -2.54332,15.57318 -7.62975,21.61358 -5.72358,6.67422 -13.29997,10.17139 -22.72919,10.49151 -13.98547,0.42361 -24.1051,-7.41793 -30.35893,-23.52466 l 17.01051,-9.69604 c 3.60224,8.79551 7.89326,13.19324 12.87308,13.19321 1.4842,3e-5 2.96682,-0.37022 4.44786,-1.11075 3.81564,-1.90781 5.72348,-5.13982 5.72352,-9.69604 -4e-5,-3.28532 -1.16577,-6.04037 -3.49717,-8.26515 -5.93375,-4.97974 -11.86745,-9.95953 -17.80113,-14.93937 -8.79549,-7.31117 -14.09379,-12.60947 -15.89491,-15.89491 -2.75506,-4.76953 -4.13258,-9.74931 -4.13258,-14.93937 0,-8.05488 3.02021,-15.04921 9.06063,-20.98303 6.0404,-5.93359 12.92803,-8.79373 20.6629,-8.58043 z" style="font-size:158.93937683px;font-variant:normal;font-stretch:normal;text-align:center;word-spacing:-28.55198288px;text-anchor:middle;fill:#ffffff;font-family:CodiceBiancoCondensed;-inkscape-font-specification:CodiceBiancoCondensed" id="path6233" inkscape:connector-curvature="0"/>
        <path d="m 294.35614,897.0857 c 0.10341,5.72038 -1.91113,13.08496 -6.04365,22.09378 -2.6484,5.61364 -6.99278,13.40022 -13.03315,23.35974 -5.72033,9.32583 -9.16414,15.4196 -10.33144,18.28133 l 27.8173,0 0,19.86742 -53.8836,0 0,-16.69038 c 0.32013,-1.16408 3.39369,-6.25058 9.2207,-15.2595 6.99432,-10.80674 12.1859,-19.44214 15.57478,-25.90623 5.51007,-10.48982 8.26512,-18.64826 8.26516,-24.47534 -4e-5,-2.64825 -0.74135,-4.79376 -2.22393,-6.43654 -1.48266,-1.64259 -3.23124,-2.46393 -5.24576,-2.46403 -2.54166,10e-5 -4.66131,1.21918 -6.35893,3.65724 -2.01135,2.64843 -3.017,6.4625 -3.01698,11.4422 l -18.75667,0 c 0.31689,-11.76062 3.49555,-20.81962 9.53598,-27.17704 5.29989,-5.6167 11.86901,-8.42511 19.70735,-8.42523 7.52462,1.2e-4 14.04199,2.49001 19.55215,7.46969 5.93365,5.29679 9.00721,12.18441 9.22069,20.66289 z" style="font-size:158.93937683px;font-variant:normal;font-stretch:normal;text-align:center;word-spacing:-28.55198288px;text-anchor:middle;fill:#ffffff;font-family:CodiceBiancoCondensed;-inkscape-font-specification:CodiceBiancoCondensed" id="path6235" inkscape:connector-curvature="0"/>
        <path d="m 363.54289,869.42847 0,71.83994 8.10509,0 0,19.86742 -8.10509,0 0,19.39208 -21.2983,0 0,-19.39208 -36.71302,0 0,-12.87308 32.58044,-78.83428 z m -21.61843,35.4422 -15.73484,36.87793 15.73484,0 z" style="font-size:158.93937683px;font-variant:normal;font-stretch:normal;text-align:center;word-spacing:-28.55198288px;text-anchor:middle;fill:#ffffff;font-family:CodiceBiancoCondensed;-inkscape-font-specification:CodiceBiancoCondensed" id="path6237" inkscape:connector-curvature="0"/>
        <path d="m 384.12818,899.62734 c -10e-6,-10.0662 3.0202,-18.06619 9.06063,-24 5.40338,-5.40328 12.18429,-8.10498 20.34277,-8.1051 7.20448,1.2e-4 13.50844,2.54337 18.91188,7.62975 6.04036,5.82711 9.06057,13.56194 9.06063,23.20453 -6e-5,6.781 -1.80119,12.608 -5.40339,17.481 -2.54493,3.49886 -5.24662,5.8303 -8.1051,6.99434 3.91911,0.53038 7.57472,3.12699 10.96686,7.78982 3.70891,5.29674 5.56339,11.65405 5.56346,19.07195 -7e-5,9.536 -3.02027,17.48264 -9.06063,23.83993 -6.04047,6.35733 -13.40506,9.53598 -22.09378,9.53598 -7.62816,0 -14.35572,-2.38318 -20.1827,-7.14956 -7.41795,-6.0404 -11.12692,-14.6758 -11.12692,-25.90622 0,-13.98863 4.87307,-23.04926 14.61924,-27.1819 -8.36864,-3.91909 -12.55296,-11.65392 -12.55295,-23.20452 z m 21.45352,-0.95554 c -3e-5,9.96289 2.38477,14.94429 7.15441,14.94422 4.87303,7e-5 7.30957,-4.98133 7.30962,-14.94422 -5e-5,-8.58196 -2.38323,-12.87298 -7.14956,-12.87308 -1.90788,10e-5 -3.55056,1.00737 -4.92805,3.02183 -1.59098,2.33154 -2.38645,5.61529 -2.38642,9.85125 z m -0.15522,49.27567 c -2e-5,10.06308 2.64832,15.09461 7.94503,15.09458 4.97975,3e-5 7.46964,-5.08485 7.46969,-15.25465 -5e-5,-10.70326 -2.64839,-16.05491 -7.94503,-16.05497 -2.22477,6e-5 -4.0259,1.48348 -5.4034,4.45028 -1.37755,2.96691 -2.06631,6.88849 -2.06629,11.76476 z" style="font-size:158.93937683px;font-variant:normal;font-stretch:normal;text-align:center;word-spacing:-28.55198288px;text-anchor:middle;fill:#ffffff;font-family:CodiceBiancoCondensed;-inkscape-font-specification:CodiceBiancoCondensed" id="path6239" inkscape:connector-curvature="0"/>
      </g>
    </g>
  </g>
</svg>