<?xml version="1.0" encoding="UTF-8" standalone="no"?>
<svg xmlns:dc="http://purl.org/dc/elements/1.1/" xmlns:cc="http://creativecommons.org/ns#" xmlns:rdf="http://www.w3.org/1999/02/22-rdf-syntax-ns#" xmlns:svg="http://www.w3.org/2000/svg" xmlns="http://www.w3.org/2000/svg" xmlns:sodipodi="http://sodipodi.sourceforge.net/DTD/sodipodi-0.dtd" xmlns:inkscape="http://www.inkscape.org/namespaces/inkscape" sodipodi:docname="Latvia_road_sign_741.svg" inkscape:version="1.0 (4035a4fb49, 2020-05-01)" id="svg6774" version="1.1" viewBox="0 0 50.105857 26.458333" height="26.458334mm" width="50.105858mm">
  <defs id="defs6768"/>
  <sodipodi:namedview inkscape:window-maximized="1" inkscape:window-y="-9" inkscape:window-x="-9" inkscape:window-height="1001" inkscape:window-width="1920" fit-margin-bottom="0" fit-margin-right="0" fit-margin-left="0" fit-margin-top="0" showgrid="false" inkscape:document-rotation="0" inkscape:current-layer="layer1" inkscape:document-units="mm" inkscape:cy="84.965352" inkscape:cx="445.37814" inkscape:zoom="0.81967018" inkscape:pageshadow="2" inkscape:pageopacity="0.0" borderopacity="1.0" bordercolor="#666666" pagecolor="#ffffff" id="base"/>
  <metadata id="metadata6771">
    <rdf:RDF>
      <cc:Work rdf:about="">
        <dc:format>image/svg+xml</dc:format>
        <dc:type rdf:resource="http://purl.org/dc/dcmitype/StillImage"/>
        <dc:title/>
      </cc:Work>
    </rdf:RDF>
  </metadata>
  <g transform="translate(487.05723,226.65259)" id="layer1" inkscape:groupmode="layer" inkscape:label="Layer 1">
    <g inkscape:groupmode="layer" style="opacity:1" id="g2362"/>
    <g style="opacity:1;stroke-width:0.635803" id="g949" transform="matrix(1.5728159,0,0,1.5728159,-670.61284,-478.85607)">
      <path id="path951" d="m 148.47476,163.62026 v 10.29152 c 0,1.74676 -1.43019,3.17444 -3.17451,3.17444 h -25.33213 c -1.74384,0 -3.17453,-1.4278 -3.17453,-3.17444 v -10.29152 c 0,-1.75222 1.4302,-3.17986 3.17453,-3.17986 h 25.33213 c 1.74384,0 3.17451,1.4278 3.17451,3.17986 z" style="color:#000000;font-style:normal;font-variant:normal;font-weight:normal;font-stretch:normal;font-size:medium;line-height:normal;font-family:sans-serif;font-variant-ligatures:normal;font-variant-position:normal;font-variant-caps:normal;font-variant-numeric:normal;font-variant-alternates:normal;font-variant-east-asian:normal;font-feature-settings:normal;font-variation-settings:normal;text-indent:0;text-align:start;text-decoration:none;text-decoration-line:none;text-decoration-style:solid;text-decoration-color:#000000;letter-spacing:normal;word-spacing:normal;text-transform:none;writing-mode:lr-tb;direction:ltr;text-orientation:mixed;dominant-baseline:auto;baseline-shift:baseline;text-anchor:start;white-space:normal;shape-padding:0;shape-margin:0;inline-size:0;clip-rule:nonzero;display:inline;overflow:visible;visibility:visible;isolation:auto;mix-blend-mode:normal;color-interpolation:sRGB;color-interpolation-filters:linearRGB;solid-color:#000000;solid-opacity:1;vector-effect:none;fill:#ffffff;fill-opacity:1;fill-rule:evenodd;stroke:none;stroke-width:0.112148;stroke-linecap:butt;stroke-linejoin:miter;stroke-miterlimit:22.926;stroke-dasharray:none;stroke-dashoffset:0;stroke-opacity:1;color-rendering:auto;image-rendering:auto;shape-rendering:auto;text-rendering:auto;enable-background:accumulate;stop-color:#000000;stop-opacity:1"/>
      <path id="path953" d="m 119.96875,160.35156 c -1.79245,0 -3.26367,1.46932 -3.26367,3.26953 v 10.29102 c 0,1.7948 1.47169,3.26172 3.26367,3.26172 h 25.33203 c 1.79244,0 3.26172,-1.46682 3.26172,-3.26172 v -10.29102 c 0,-1.80007 -1.46974,-3.26953 -3.26172,-3.26953 z m 0,0.17774 h 25.33203 c 1.6957,0 3.08594,1.38774 3.08594,3.09179 v 10.29102 c 0,1.69862 -1.38974,3.08594 -3.08594,3.08594 h -25.33203 c -1.6957,0 -3.08789,-1.38746 -3.08789,-3.08594 v -10.29102 c 0,-1.70423 1.39168,-3.09179 3.08789,-3.09179 z" style="color:#000000;font-style:normal;font-variant:normal;font-weight:normal;font-stretch:normal;font-size:medium;line-height:normal;font-family:sans-serif;font-variant-ligatures:normal;font-variant-position:normal;font-variant-caps:normal;font-variant-numeric:normal;font-variant-alternates:normal;font-variant-east-asian:normal;font-feature-settings:normal;font-variation-settings:normal;text-indent:0;text-align:start;text-decoration:none;text-decoration-line:none;text-decoration-style:solid;text-decoration-color:#000000;letter-spacing:normal;word-spacing:normal;text-transform:none;writing-mode:lr-tb;direction:ltr;text-orientation:mixed;dominant-baseline:auto;baseline-shift:baseline;text-anchor:start;white-space:normal;shape-padding:0;shape-margin:0;inline-size:0;clip-rule:nonzero;display:inline;overflow:visible;visibility:visible;isolation:auto;mix-blend-mode:normal;color-interpolation:sRGB;color-interpolation-filters:linearRGB;solid-color:#000000;solid-opacity:1;vector-effect:none;fill:#000000;fill-opacity:1;fill-rule:evenodd;stroke:none;stroke-width:0.112148;stroke-linecap:butt;stroke-linejoin:miter;stroke-miterlimit:22.926;stroke-dasharray:none;stroke-dashoffset:0;stroke-opacity:1;color-rendering:auto;image-rendering:auto;shape-rendering:auto;text-rendering:auto;enable-background:accumulate;stop-color:#000000;stop-opacity:1"/>
    </g>
    <path id="path907" style="opacity:1;fill:#2e2e91;fill-opacity:1;fill-rule:evenodd;stroke:none;stroke-width:0.352777" d="m -481.594,-224.78629 c -1.99487,0 -3.63421,1.58171 -3.63421,3.51306 v 15.70162 c 0,1.93111 1.63838,3.51294 3.63421,3.51294 h 39.12955 c 1.99512,0 3.63449,-1.57401 3.63449,-3.51294 v -15.70162 c 0,-1.93135 -1.63862,-3.51306 -3.63449,-3.51306 z m 0.58314,4.18522 h 5.81528 c 2.47683,0 4.49217,2.0168 4.49217,4.49983 0,2.48102 -2.0133,4.49969 -4.49217,4.49969 h -3.56502 v 5.82526 h -2.25026 z m 2.25012,2.11804 v 4.76139 9.6e-4 h 3.43021 c 1.31565,0 2.37714,-1.0732 2.37714,-2.38111 0,-1.31789 -1.06149,-2.38124 -2.37714,-2.38124 z"/>
    <path d="m -460.11459,-221.05842 c -2.38461,0 -4.30966,1.93753 -4.30966,4.32621 h 2.15111 c 0,-0.48546 0.16652,-0.96332 0.46919,-1.34619 0.74589,-0.93 2.09965,-1.08625 3.03557,-0.34649 0.93587,0.74715 1.09266,2.10309 0.3465,3.04054 l -6.00153,7.56656 v 2.0309 h 8.6276 v -2.1627 h -5.80257 l 4.85676,-6.08109 c 0.61538,-0.76514 0.94664,-1.72036 0.94664,-2.70153 0,-2.38964 -1.93498,-4.32621 -4.31961,-4.32621 z m -4.30882,15.27153 h -0.002 l 0.002,8e-4 z m 15.6711,-15.27153 c -2.36804,0 -4.2881,1.91524 -4.2881,4.28809 0,1.18209 0.54184,2.30395 1.48048,3.05464 -1.09358,0.76791 -1.73911,2.03631 -1.73911,3.37379 0,2.51954 2.03231,4.55583 4.54673,4.55583 2.50579,0 4.53762,-2.03629 4.53762,-4.55583 0,-1.33748 -0.64557,-2.60588 -1.73911,-3.37379 0.9301,-0.75069 1.47218,-1.87255 1.47218,-3.05464 0,-2.37285 -1.91993,-4.28809 -4.27069,-4.28809 z m 0,2.14859 c 1.17108,0 2.13533,0.94875 2.13533,2.1395 0,1.18209 -0.96425,2.14861 -2.13533,2.14861 -1.17973,0 -2.14448,-0.96652 -2.14448,-2.14861 0,-1.19075 0.96475,-2.1395 2.14448,-2.1395 z m 0,6.15156 c 1.3261,0 2.40225,1.08753 2.40225,2.41637 0,1.32879 -1.07615,2.41636 -2.40225,2.41636 -1.33475,0 -2.4114,-1.08757 -2.4114,-2.41636 0,-1.32884 1.07665,-2.41637 2.4114,-2.41637 z" style="opacity:1;fill:#ffffff;fill-opacity:1;fill-rule:evenodd;stroke:none;stroke-width:0.352777" id="path927"/>
  </g>
</svg>