<?xml version="1.0" encoding="UTF-8" standalone="no"?>
<svg xmlns:dc="http://purl.org/dc/elements/1.1/" xmlns:cc="http://creativecommons.org/ns#" xmlns:rdf="http://www.w3.org/1999/02/22-rdf-syntax-ns#" xmlns:svg="http://www.w3.org/2000/svg" xmlns="http://www.w3.org/2000/svg" xmlns:sodipodi="http://sodipodi.sourceforge.net/DTD/sodipodi-0.dtd" xmlns:inkscape="http://www.inkscape.org/namespaces/inkscape" width="50.105858mm" height="26.458334mm" viewBox="0 0 50.105857 26.458333" version="1.1" id="svg6774" inkscape:version="1.0 (4035a4fb49, 2020-05-01)" sodipodi:docname="Latvia_road_sign_742.svg">
  <defs id="defs6768"/>
  <sodipodi:namedview id="base" pagecolor="#ffffff" bordercolor="#666666" borderopacity="1.0" inkscape:pageopacity="0.0" inkscape:pageshadow="2" inkscape:zoom="0.81967018" inkscape:cx="107.4534" inkscape:cy="361.97606" inkscape:document-units="mm" inkscape:current-layer="layer1" inkscape:document-rotation="0" showgrid="false" fit-margin-top="0" fit-margin-left="0" fit-margin-right="0" fit-margin-bottom="0" inkscape:window-width="1920" inkscape:window-height="1001" inkscape:window-x="-9" inkscape:window-y="-9" inkscape:window-maximized="1"/>
  <metadata id="metadata6771">
    <rdf:RDF>
      <cc:Work rdf:about="">
        <dc:format>image/svg+xml</dc:format>
        <dc:type rdf:resource="http://purl.org/dc/dcmitype/StillImage"/>
        <dc:title/>
      </cc:Work>
    </rdf:RDF>
  </metadata>
  <g inkscape:label="Layer 1" inkscape:groupmode="layer" id="layer1" transform="translate(283.48705,279.28629)">
    <g id="g2362" style="opacity:1" inkscape:groupmode="layer"/>
    <g transform="matrix(1.5728159,0,0,1.5728159,-537.44767,-531.48977)" id="g955" style="opacity:1;stroke-width:0.635803">
      <path style="color:#000000;font-style:normal;font-variant:normal;font-weight:normal;font-stretch:normal;font-size:medium;line-height:normal;font-family:sans-serif;font-variant-ligatures:normal;font-variant-position:normal;font-variant-caps:normal;font-variant-numeric:normal;font-variant-alternates:normal;font-variant-east-asian:normal;font-feature-settings:normal;font-variation-settings:normal;text-indent:0;text-align:start;text-decoration:none;text-decoration-line:none;text-decoration-style:solid;text-decoration-color:#000000;letter-spacing:normal;word-spacing:normal;text-transform:none;writing-mode:lr-tb;direction:ltr;text-orientation:mixed;dominant-baseline:auto;baseline-shift:baseline;text-anchor:start;white-space:normal;shape-padding:0;shape-margin:0;inline-size:0;clip-rule:nonzero;display:inline;overflow:visible;visibility:visible;isolation:auto;mix-blend-mode:normal;color-interpolation:sRGB;color-interpolation-filters:linearRGB;solid-color:#000000;solid-opacity:1;vector-effect:none;fill:#ffffff;fill-opacity:1;fill-rule:evenodd;stroke:none;stroke-width:0.112148;stroke-linecap:butt;stroke-linejoin:miter;stroke-miterlimit:22.926;stroke-dasharray:none;stroke-dashoffset:0;stroke-opacity:1;color-rendering:auto;image-rendering:auto;shape-rendering:auto;text-rendering:auto;enable-background:accumulate;stop-color:#000000;stop-opacity:1" d="m 193.23723,163.62026 v 10.29152 c 0,1.74676 -1.43019,3.17444 -3.17451,3.17444 h -25.33213 c -1.74384,0 -3.17453,-1.4278 -3.17453,-3.17444 v -10.29152 c 0,-1.75222 1.4302,-3.17986 3.17453,-3.17986 h 25.33213 c 1.74384,0 3.17451,1.4278 3.17451,3.17986 z" id="path957"/>
      <path style="color:#000000;font-style:normal;font-variant:normal;font-weight:normal;font-stretch:normal;font-size:medium;line-height:normal;font-family:sans-serif;font-variant-ligatures:normal;font-variant-position:normal;font-variant-caps:normal;font-variant-numeric:normal;font-variant-alternates:normal;font-variant-east-asian:normal;font-feature-settings:normal;font-variation-settings:normal;text-indent:0;text-align:start;text-decoration:none;text-decoration-line:none;text-decoration-style:solid;text-decoration-color:#000000;letter-spacing:normal;word-spacing:normal;text-transform:none;writing-mode:lr-tb;direction:ltr;text-orientation:mixed;dominant-baseline:auto;baseline-shift:baseline;text-anchor:start;white-space:normal;shape-padding:0;shape-margin:0;inline-size:0;clip-rule:nonzero;display:inline;overflow:visible;visibility:visible;isolation:auto;mix-blend-mode:normal;color-interpolation:sRGB;color-interpolation-filters:linearRGB;solid-color:#000000;solid-opacity:1;vector-effect:none;fill:#000000;fill-opacity:1;fill-rule:evenodd;stroke:none;stroke-width:0.112148;stroke-linecap:butt;stroke-linejoin:miter;stroke-miterlimit:22.926;stroke-dasharray:none;stroke-dashoffset:0;stroke-opacity:1;color-rendering:auto;image-rendering:auto;shape-rendering:auto;text-rendering:auto;enable-background:accumulate;stop-color:#000000;stop-opacity:1" d="m 164.73047,160.35156 c -1.79245,0 -3.26172,1.46932 -3.26172,3.26953 v 10.29102 c 0,1.7948 1.46974,3.26172 3.26172,3.26172 h 25.33203 c 1.79244,0 3.26367,-1.46682 3.26367,-3.26172 v -10.29102 c 0,-1.80007 -1.47169,-3.26953 -3.26367,-3.26953 z m 0,0.17774 h 25.33203 c 1.6957,0 3.08594,1.38774 3.08594,3.09179 v 10.29102 c 0,1.69862 -1.38974,3.08594 -3.08594,3.08594 h -25.33203 c -1.6957,0 -3.08594,-1.38746 -3.08594,-3.08594 v -10.29102 c 0,-1.70423 1.38973,-3.09179 3.08594,-3.09179 z" id="path959"/>
    </g>
    <path id="path915" style="opacity:1;fill:#00a64f;fill-opacity:1;fill-rule:evenodd;stroke:none;stroke-width:0.352777" d="m -278.02536,-277.42035 c -1.99487,0 -3.63473,1.58227 -3.63473,3.51364 v 15.70118 c 0,1.93112 1.6389,3.51282 3.63473,3.51282 h 39.12942 c 1.99514,0 3.63394,-1.57388 3.63394,-3.51282 v -15.70118 c 0,-1.93137 -1.63805,-3.51364 -3.63394,-3.51364 z m 0.58277,4.19392 h 9.50215 v 2.11728 h -7.26051 v 4.237 h 6.20716 v 1.98154 h -6.20716 v 4.36299 h 7.26051 v 2.11728 h -9.50215 z"/>
    <path id="path937" style="opacity:1;fill:#ffffff;fill-opacity:1;fill-rule:evenodd;stroke:none;stroke-width:0.352777" d="m -255.76782,-273.86981 c -2.4139,0 -4.36257,1.96131 -4.36257,4.37934 h 2.17752 c 0,-0.49141 0.16858,-0.97515 0.47492,-1.36271 0.75507,-0.94143 2.12542,-1.09959 3.07284,-0.35075 0.94737,0.75632 1.10609,2.12891 0.35076,3.07786 l -6.07519,7.65944 v 2.05585 h 8.7335 v -2.18926 h -5.87381 l 4.91637,-6.15575 c 0.62296,-0.77453 0.95829,-1.74147 0.95829,-2.73468 0,-2.419 -1.95874,-4.37934 -4.37263,-4.37934 z m -4.36172,15.45903 h -0.002 l 0.002,8e-4 z m 15.75354,-15.45903 c -2.38837,0 -4.32396,1.9475 -4.32396,4.34074 v 6.77836 c 0,2.40201 1.93559,4.34076 4.32396,4.34076 2.38836,0 4.33235,-1.93875 4.33235,-4.34076 v -6.77836 c 0,-2.39324 -1.94399,-4.34074 -4.33235,-4.34074 z m 0,2.16575 c 1.1942,0 2.16996,0.97837 2.16996,2.17499 v 6.77836 c 0,1.19667 -0.97576,2.17501 -2.16996,2.17501 -1.18545,0 -2.15319,-0.97834 -2.15319,-2.17501 v -6.77836 c 0,-1.19662 0.96774,-2.17499 2.15319,-2.17499 z"/>
  </g>
</svg>