<?xml version="1.0" encoding="UTF-8" standalone="no"?>
<svg xmlns:dc="http://purl.org/dc/elements/1.1/" xmlns:cc="http://creativecommons.org/ns#" xmlns:rdf="http://www.w3.org/1999/02/22-rdf-syntax-ns#" xmlns:svg="http://www.w3.org/2000/svg" xmlns="http://www.w3.org/2000/svg" xmlns:sodipodi="http://sodipodi.sourceforge.net/DTD/sodipodi-0.dtd" xmlns:inkscape="http://www.inkscape.org/namespaces/inkscape" sodipodi:docname="Latvia_road_sign_740.svg" inkscape:version="1.0 (4035a4fb49, 2020-05-01)" id="svg6774" version="1.1" viewBox="0 0 50.105851 26.458333" height="26.458334mm" width="50.105854mm">
  <defs id="defs6768"/>
  <sodipodi:namedview inkscape:window-maximized="1" inkscape:window-y="-9" inkscape:window-x="-9" inkscape:window-height="1001" inkscape:window-width="1920" fit-margin-bottom="0" fit-margin-right="0" fit-margin-left="0" fit-margin-top="0" showgrid="false" inkscape:document-rotation="0" inkscape:current-layer="layer1" inkscape:document-units="mm" inkscape:cy="155.65562" inkscape:cx="-43.452458" inkscape:zoom="0.81967018" inkscape:pageshadow="2" inkscape:pageopacity="0.0" borderopacity="1.0" bordercolor="#666666" pagecolor="#ffffff" id="base"/>
  <metadata id="metadata6771">
    <rdf:RDF>
      <cc:Work rdf:about="">
        <dc:format>image/svg+xml</dc:format>
        <dc:type rdf:resource="http://purl.org/dc/dcmitype/StillImage"/>
        <dc:title/>
      </cc:Work>
    </rdf:RDF>
  </metadata>
  <g transform="translate(274.22516,248.26119)" id="layer1" inkscape:groupmode="layer" inkscape:label="Layer 1">
    <g inkscape:groupmode="layer" style="opacity:1" id="g2362"/>
    <g style="opacity:1;stroke-width:0.635803" id="g943" transform="matrix(1.5728159,0,0,1.5728159,-387.52934,-500.46467)">
      <path id="path945" d="m 103.80758,163.62026 v 10.29152 c 0,1.74676 -1.43018,3.17444 -3.17449,3.17444 H 75.301107 c -1.743832,0 -3.174521,-1.4278 -3.174521,-3.17444 v -10.29152 c 0,-1.75222 1.4302,-3.17986 3.174521,-3.17986 h 25.331983 c 1.74383,0 3.17449,1.4278 3.17449,3.17986 z" style="color:#000000;font-style:normal;font-variant:normal;font-weight:normal;font-stretch:normal;font-size:medium;line-height:normal;font-family:sans-serif;font-variant-ligatures:normal;font-variant-position:normal;font-variant-caps:normal;font-variant-numeric:normal;font-variant-alternates:normal;font-variant-east-asian:normal;font-feature-settings:normal;font-variation-settings:normal;text-indent:0;text-align:start;text-decoration:none;text-decoration-line:none;text-decoration-style:solid;text-decoration-color:#000000;letter-spacing:normal;word-spacing:normal;text-transform:none;writing-mode:lr-tb;direction:ltr;text-orientation:mixed;dominant-baseline:auto;baseline-shift:baseline;text-anchor:start;white-space:normal;shape-padding:0;shape-margin:0;inline-size:0;clip-rule:nonzero;display:inline;overflow:visible;visibility:visible;isolation:auto;mix-blend-mode:normal;color-interpolation:sRGB;color-interpolation-filters:linearRGB;solid-color:#000000;solid-opacity:1;vector-effect:none;fill:#ffffff;fill-opacity:1;fill-rule:evenodd;stroke:none;stroke-width:0.112148;stroke-linecap:butt;stroke-linejoin:miter;stroke-miterlimit:22.926;stroke-dasharray:none;stroke-dashoffset:0;stroke-opacity:1;color-rendering:auto;image-rendering:auto;shape-rendering:auto;text-rendering:auto;enable-background:accumulate;stop-color:#000000;stop-opacity:1"/>
      <path id="path947" d="m 75.300781,160.35156 c -1.792442,0 -3.261719,1.46932 -3.261719,3.26953 v 10.29102 c 0,1.7948 1.469747,3.26172 3.261719,3.26172 h 25.332029 c 1.79244,0 3.26367,-1.46682 3.26367,-3.26172 v -10.29102 c 0,-1.80007 -1.4717,-3.26953 -3.26367,-3.26953 z m 0,0.17774 h 25.332029 c 1.69569,0 3.08594,1.38774 3.08594,3.09179 v 10.29102 c 0,1.69862 -1.38975,3.08594 -3.08594,3.08594 H 75.300781 c -1.695691,0 -3.085937,-1.38746 -3.085937,-3.08594 v -10.29102 c 0,-1.70423 1.389738,-3.09179 3.085937,-3.09179 z" style="color:#000000;font-style:normal;font-variant:normal;font-weight:normal;font-stretch:normal;font-size:medium;line-height:normal;font-family:sans-serif;font-variant-ligatures:normal;font-variant-position:normal;font-variant-caps:normal;font-variant-numeric:normal;font-variant-alternates:normal;font-variant-east-asian:normal;font-feature-settings:normal;font-variation-settings:normal;text-indent:0;text-align:start;text-decoration:none;text-decoration-line:none;text-decoration-style:solid;text-decoration-color:#000000;letter-spacing:normal;word-spacing:normal;text-transform:none;writing-mode:lr-tb;direction:ltr;text-orientation:mixed;dominant-baseline:auto;baseline-shift:baseline;text-anchor:start;white-space:normal;shape-padding:0;shape-margin:0;inline-size:0;clip-rule:nonzero;display:inline;overflow:visible;visibility:visible;isolation:auto;mix-blend-mode:normal;color-interpolation:sRGB;color-interpolation-filters:linearRGB;solid-color:#000000;solid-opacity:1;vector-effect:none;fill:#000000;fill-opacity:1;fill-rule:evenodd;stroke:none;stroke-width:0.112148;stroke-linecap:butt;stroke-linejoin:miter;stroke-miterlimit:22.926;stroke-dasharray:none;stroke-dashoffset:0;stroke-opacity:1;color-rendering:auto;image-rendering:auto;shape-rendering:auto;text-rendering:auto;enable-background:accumulate;stop-color:#000000;stop-opacity:1"/>
    </g>
    <path d="m -268.76345,-246.39486 c -1.99485,0 -3.63421,1.58171 -3.63421,3.51307 v 15.70161 c 0,1.93111 1.63838,3.51294 3.63421,3.51294 h 39.12928 c 1.9951,0 3.63448,-1.57401 3.63448,-3.51294 v -15.70161 c 0,-1.93136 -1.63863,-3.51307 -3.63448,-3.51307 z m 5.9922,4.19301 h 1.85033 l 5.41768,14.81686 h -2.37755 l -1.112,-3.30867 h -5.6977 l -1.11214,3.30867 h -2.37768 z m 0.92619,3.04492 -2.18162,6.48141 h 4.36324 z" style="opacity:1;fill:#eb1938;fill-opacity:1;fill-rule:evenodd;stroke:none;stroke-width:0.352777" id="path897"/>
    <path d="m -247.38426,-242.70405 -2.13597,1.60605 v 2.27008 l 2.13597,-1.60603 v 12.70448 h 2.13678 v -14.97458 z m 11.37642,8e-4 c -2.33812,0 -4.22562,1.89975 -4.22562,4.24186 h 2.10914 c 0,-0.47599 0.16329,-0.94453 0.46004,-1.31993 0.73135,-0.91187 2.0587,-1.06508 2.97638,-0.33975 0.91763,0.73259 1.07137,2.06209 0.33974,2.98126 l -5.88449,7.419 v 1.9913 h 8.45936 v -2.12053 h -5.68942 l 4.76204,-5.96252 c 0.60338,-0.75022 0.92819,-1.68681 0.92819,-2.64884 0,-2.34306 -1.89724,-4.24187 -4.23536,-4.24187 z m -4.22481,14.97374 h -0.002 l 0.002,7.9e-4 z" style="opacity:1;fill:#ffffff;fill-opacity:1;fill-rule:evenodd;stroke:none;stroke-width:0.352777" id="path5413"/>
  </g>
</svg>