<?xml version="1.0" encoding="UTF-8" standalone="no"?>
<svg xmlns:dc="http://purl.org/dc/elements/1.1/" xmlns:cc="http://creativecommons.org/ns#" xmlns:rdf="http://www.w3.org/1999/02/22-rdf-syntax-ns#" xmlns:svg="http://www.w3.org/2000/svg" xmlns="http://www.w3.org/2000/svg" xmlns:sodipodi="http://sodipodi.sourceforge.net/DTD/sodipodi-0.dtd" xmlns:inkscape="http://www.inkscape.org/namespaces/inkscape" width="194.99995mm" height="130.79427mm" viewBox="0 0 194.99996 130.79427" version="1.1" id="svg3845" inkscape:version="1.0 (4035a4fb49, 2020-05-01)" sodipodi:docname="Latvia_road_sign_736.svg">
  <defs id="defs3839"/>
  <sodipodi:namedview id="base" pagecolor="#ffffff" bordercolor="#666666" borderopacity="1.0" inkscape:pageopacity="0.0" inkscape:pageshadow="2" inkscape:zoom="0.29260408" inkscape:cx="837.32679" inkscape:cy="662.54641" inkscape:document-units="mm" inkscape:current-layer="layer1" showgrid="false" inkscape:window-width="1920" inkscape:window-height="1001" inkscape:window-x="-9" inkscape:window-y="-9" inkscape:window-maximized="1" inkscape:document-rotation="0" showguides="false"/>
  <metadata id="metadata3842">
    <rdf:RDF>
      <cc:Work rdf:about="">
        <dc:format>image/svg+xml</dc:format>
        <dc:type rdf:resource="http://purl.org/dc/dcmitype/StillImage"/>
        <dc:title/>
      </cc:Work>
    </rdf:RDF>
  </metadata>
  <g inkscape:label="Layer 1" inkscape:groupmode="layer" id="layer1" transform="translate(-761.2021,156.44215)">
    <path id="path3482" d="m 787.15146,-154.7663 h 143.10126 c 13.3544,0 24.2735,10.91913 24.2735,24.27351 v 78.895561 c 0,13.35438 -10.9191,24.27351 -24.2735,24.27351 H 787.15146 c -13.35419,0 -24.27351,-10.91913 -24.27351,-24.27351 v -78.895561 c 0,-13.35438 10.91932,-24.27351 24.27351,-24.27351 z m 0,0" style="fill:#ffffff;fill-opacity:1;stroke:#000000;stroke-width:3.35169;stroke-linecap:butt;stroke-linejoin:miter;stroke-miterlimit:22.926;stroke-opacity:1"/>
    <path id="path3464" d="m 789.50824,-147.67012 h 138.36168 c 10.4479,0 18.9842,8.53631 18.9842,18.95798 v 75.334261 c 0,10.44789 -8.5363,18.95798 -18.9842,18.95798 H 789.50824 c -10.42167,0 -18.95798,-8.51009 -18.95798,-18.95798 v -75.334261 c 0,-10.42167 8.53631,-18.95798 18.95798,-18.95798" style="fill:#263894;fill-opacity:1;fill-rule:evenodd;stroke:none;stroke-width:6.70335"/>
    <path id="path3466" d="m 795.34745,-107.31891 v -10.23849 l 9.68839,-7.25332 h 9.66236 v 67.636121 h -9.66236 v -57.371411 l -9.68839,7.2271" style="fill:#ffffff;fill-opacity:1;fill-rule:evenodd;stroke:none;stroke-width:6.70335"/>
    <path id="path3468" d="m 830.40936,-75.870739 v -30.217621 c 0,-10.68351 8.64102,-19.32452 19.32452,-19.32452 10.68351,0 19.32452,8.64101 19.32452,19.32452 v 30.217621 c 0,10.65728 -8.64101,19.32452 -19.32452,19.32452 -10.6835,0 -19.32452,-8.66724 -19.32452,-19.32452 z m 9.66217,0 c 0,5.34175 4.3206,9.66216 9.66235,9.66216 5.34175,0 9.66217,-4.32041 9.66217,-9.66216 v -30.217621 c 0,-5.34175 -4.32042,-9.66236 -9.66217,-9.66236 -5.34175,0 -9.66235,4.32061 -9.66235,9.66236 v 30.217621" style="fill:#ffffff;fill-opacity:1;fill-rule:evenodd;stroke:none;stroke-width:6.70335"/>
    <path id="path3470" d="m 888.98528,-92.341208 c -4.18968,-3.325487 -6.65116,-8.405402 -6.65116,-13.747152 0,-10.68351 8.66724,-19.32452 19.35074,-19.32452 10.65746,0 19.29846,8.64101 19.29846,19.32452 0,5.34175 -2.4352,10.421665 -6.6509,13.747152 4.949,3.508849 7.8554,9.190919 7.8554,15.239729 0,11.33811 -9.1909,20.55526 -20.50296,20.55526 -11.36414,0 -20.55507,-9.21715 -20.55507,-20.55526 0,-6.04881 2.93272,-11.73088 7.85549,-15.239729 z m 1.80706,15.239729 c 0,5.99636 4.87032,10.8929 10.8929,10.8929 5.99638,0 10.86688,-4.89654 10.86688,-10.8929 0,-5.99636 -4.8705,-10.86687 -10.86688,-10.86687 -6.02258,0 -10.8929,4.87051 -10.8929,10.86687 z m 1.2047,-28.986881 c 0,5.34175 4.34683,9.662358 9.68839,9.662358 5.31569,0 9.66239,-4.320608 9.66239,-9.662358 0,-5.34175 -4.3467,-9.66236 -9.66239,-9.66236 -5.34156,0 -9.68839,4.32061 -9.68839,9.66236" style="fill:#ffffff;fill-opacity:1;fill-rule:evenodd;stroke:none;stroke-width:6.70335"/>
    <path id="path3472" d="m 787.15146,-154.7663 h 143.10126 c 13.3544,0 24.2735,10.91913 24.2735,24.27351 v 78.895561 c 0,13.35438 -10.9191,24.27351 -24.2735,24.27351 H 787.15146 c -13.35419,0 -24.27351,-10.91913 -24.27351,-24.27351 v -78.895561 c 0,-13.35438 10.91932,-24.27351 24.27351,-24.27351 z m 0,0" style="fill:none;stroke:#211e1e;stroke-width:3.35169;stroke-linecap:butt;stroke-linejoin:miter;stroke-miterlimit:22.926;stroke-opacity:1"/>
    <path id="path3474" d="m 789.50824,-147.67012 h 138.36168 c 10.4479,0 18.9842,8.53631 18.9842,18.95798 v 75.334261 c 0,10.44789 -8.5363,18.95798 -18.9842,18.95798 H 789.50824 c -10.42167,0 -18.95798,-8.51009 -18.95798,-18.95798 v -75.334261 c 0,-10.42167 8.53631,-18.95798 18.95798,-18.95798" style="fill:#263894;fill-opacity:1;fill-rule:evenodd;stroke:none;stroke-width:6.70335"/>
    <path id="path3476" d="m 795.34745,-107.31891 v -10.23849 l 9.68839,-7.25332 h 9.66236 v 67.636121 h -9.66236 v -57.371411 l -9.68839,7.2271" style="fill:#ffffff;fill-opacity:1;fill-rule:evenodd;stroke:none;stroke-width:6.70335"/>
    <path id="path3478" d="m 830.40936,-75.870739 v -30.217621 c 0,-10.68351 8.64102,-19.32452 19.32452,-19.32452 10.68351,0 19.32452,8.64101 19.32452,19.32452 v 30.217621 c 0,10.65728 -8.64101,19.32452 -19.32452,19.32452 -10.6835,0 -19.32452,-8.66724 -19.32452,-19.32452 z m 9.66217,0 c 0,5.34175 4.3206,9.66216 9.66235,9.66216 5.34175,0 9.66217,-4.32041 9.66217,-9.66216 v -30.217621 c 0,-5.34175 -4.32042,-9.66236 -9.66217,-9.66236 -5.34175,0 -9.66235,4.32061 -9.66235,9.66236 v 30.217621" style="fill:#ffffff;fill-opacity:1;fill-rule:evenodd;stroke:none;stroke-width:6.70335"/>
    <path id="path3480" d="m 888.98528,-92.341208 c -4.18968,-3.325487 -6.65116,-8.405402 -6.65116,-13.747152 0,-10.68351 8.66724,-19.32452 19.35074,-19.32452 10.65746,0 19.29846,8.64101 19.29846,19.32452 0,5.34175 -2.4352,10.421665 -6.6509,13.747152 4.949,3.508849 7.8554,9.190919 7.8554,15.239729 0,11.33811 -9.1909,20.55526 -20.50296,20.55526 -11.36414,0 -20.55507,-9.21715 -20.55507,-20.55526 0,-6.04881 2.93272,-11.73088 7.85549,-15.239729 z m 1.80706,15.239729 c 0,5.99636 4.87032,10.8929 10.8929,10.8929 5.99638,0 10.86688,-4.89654 10.86688,-10.8929 0,-5.99636 -4.8705,-10.86687 -10.86688,-10.86687 -6.02258,0 -10.8929,4.87051 -10.8929,10.86687 z m 1.2047,-28.986881 c 0,5.34175 4.34683,9.662358 9.68839,9.662358 5.31569,0 9.66239,-4.320608 9.66239,-9.662358 0,-5.34175 -4.3467,-9.66236 -9.66239,-9.66236 -5.34156,0 -9.68839,4.32061 -9.68839,9.66236" style="fill:#ffffff;fill-opacity:1;fill-rule:evenodd;stroke:none;stroke-width:6.70335"/>
  </g>
</svg>