<?xml version="1.0" encoding="UTF-8"?>
<!DOCTYPE svg PUBLIC "-//W3C//DTD SVG 1.1//EN" "http://www.w3.org/Graphics/SVG/1.1/DTD/svg11.dtd">
<svg xmlns="http://www.w3.org/2000/svg" version="1.1" width="869px" height="516px" style="shape-rendering:geometricPrecision; text-rendering:geometricPrecision; image-rendering:optimizeQuality; fill-rule:evenodd; clip-rule:evenodd" xmlns:xlink="http://www.w3.org/1999/xlink">
<g><path style="opacity:1" fill="#000000" d="M 40.5,-0.5 C 303.167,-0.5 565.833,-0.5 828.5,-0.5C 835.207,1.1235 841.874,3.29017 848.5,6C 857.709,12.6232 864.375,21.1232 868.5,31.5C 868.5,182.5 868.5,333.5 868.5,484.5C 862.222,500.448 850.888,510.781 834.5,515.5C 567.833,515.5 301.167,515.5 34.5,515.5C 14.5333,508.87 2.86659,495.203 -0.5,474.5C -0.5,329.833 -0.5,185.167 -0.5,40.5C 4.16667,17.8333 17.8333,4.16667 40.5,-0.5 Z"/></g>
<g><path style="opacity:1" fill="#fbda00" d="M 42.5,14.5 C 303.834,14.3333 565.167,14.5 826.5,15C 839.389,16.5522 848.222,23.3856 853,35.5C 853.667,183.833 853.667,332.167 853,480.5C 848.974,490.529 841.807,497.029 831.5,500C 566.833,500.667 302.167,500.667 37.5,500C 24.2499,496.081 16.7499,487.248 15,473.5C 14.3333,329.833 14.3333,186.167 15,42.5C 15.7128,37.6475 17.0462,32.9809 19,28.5C 22.1667,25.3333 25.3333,22.1667 28.5,19C 33.1845,17.1702 37.8511,15.6702 42.5,14.5 Z"/></g>
<g><path style="opacity:1" fill="#010100" d="M 614.5,109.5 C 667.439,107.621 701.606,131.954 717,182.5C 729.449,233.88 726.116,284.213 707,333.5C 685.527,380.329 649.027,400.829 597.5,395C 583.195,392.398 569.529,387.898 556.5,381.5C 553.15,367.621 551.483,353.621 551.5,339.5C 573.719,351.472 597.386,356.305 622.5,354C 641.263,348.24 654.763,336.407 663,318.5C 671.111,301.393 675.111,283.393 675,264.5C 655.292,281.24 632.459,290.24 606.5,291.5C 572.489,286.991 551.656,267.991 544,234.5C 537.812,199.093 545.478,167.093 567,138.5C 579.745,123.551 595.578,113.885 614.5,109.5 Z"/></g>
<g><path style="opacity:1" fill="#010100" d="M 376.5,112.5 C 411.55,108.89 439.717,120.89 461,148.5C 465.72,156.274 469.053,164.607 471,173.5C 475.574,202.755 468.241,228.422 449,250.5C 419.93,283.241 389.763,315.074 358.5,346C 396.165,346.5 433.832,346.667 471.5,346.5C 470.926,361.961 467.593,376.794 461.5,391C 406.501,391.5 351.501,391.667 296.5,391.5C 296.333,377.496 296.5,363.496 297,349.5C 339.222,311.285 377.888,269.952 413,225.5C 424.312,208.942 427.645,190.942 423,171.5C 414.737,156.281 401.903,148.615 384.5,148.5C 372.01,150.411 361.01,155.577 351.5,164C 344.951,171.051 337.951,177.551 330.5,183.5C 321.21,174.254 312.376,164.587 304,154.5C 311.454,143.722 320.954,134.888 332.5,128C 346.185,119.755 360.852,114.588 376.5,112.5 Z"/></g>
<g><path style="opacity:1" fill="#000000" d="M 168.5,391.5 C 168.833,320.164 168.5,248.83 167.5,177.5C 166.893,177.624 166.56,177.957 166.5,178.5C 154.851,185.807 143.184,193.14 131.5,200.5C 126.507,194.669 121.674,188.669 117,182.5C 116.018,181.241 115.685,179.908 116,178.5C 135.5,157.667 155,136.833 174.5,116C 188.496,115.5 202.496,115.333 216.5,115.5C 216.5,207.5 216.5,299.5 216.5,391.5C 200.5,391.5 184.5,391.5 168.5,391.5 Z"/></g>
<g><path style="opacity:1" fill="#fad900" d="M 623.5,153.5 C 637.592,151.808 649.092,156.474 658,167.5C 667.963,182.683 673.296,199.35 674,217.5C 663.623,233.765 649.123,244.265 630.5,249C 611.894,251.447 598.394,244.28 590,227.5C 581.741,200.015 588.575,177.181 610.5,159C 614.741,156.651 619.075,154.818 623.5,153.5 Z"/></g>
<g><path style="opacity:1" fill="#a79100" d="M 166.5,178.5 C 166.56,177.957 166.893,177.624 167.5,177.5C 168.5,248.83 168.833,320.164 168.5,391.5C 167.833,320.5 167.167,249.5 166.5,178.5 Z"/></g>
</svg>
