<?xml version="1.0" encoding="UTF-8" standalone="no"?>
<!-- Created with Inkscape (http://www.inkscape.org/) -->
<svg xmlns:svg="http://www.w3.org/2000/svg" xmlns="http://www.w3.org/2000/svg" version="1.1" width="150.20938" height="101.27157" id="svg3803">
  <defs id="defs3805"/>
  <g transform="translate(-79.181024,-347.44068)" id="layer1">
    <g transform="translate(76.181024,344.44068)" id="g3779">
      <rect width="150.20938" height="101.27157" rx="11.191623" ry="11.191623" x="3" y="3" id="rect3781" style="fill:#00913e;fill-opacity:1;stroke:none"/>
      <g transform="scale(0.99089929,1.0091843)" id="text3783" style="font-size:134.89135742px;font-style:normal;font-variant:normal;font-weight:normal;font-stretch:normal;text-align:center;line-height:125%;writing-mode:lr-tb;text-anchor:middle;fill:#ffffff;fill-opacity:1;stroke:none;font-family:SnvDReg;-inkscape-font-specification:SnvDReg">
        <path d="m 12.906845,82.140648 0,-58.098397 35.710297,0 0,9.661785 -25.069565,0 0,13.364759 16.727231,0 0,9.661785 -16.727231,0 0,15.748283 25.069565,0 0,9.661785 z" id="path3836" style="font-size:87.16887665px;line-height:125%;fill:#ffffff;font-family:SnvDReg;-inkscape-font-specification:SnvDReg"/>
        <path d="m 72.452381,72.478863 23.452173,0 0,9.661785 -38.562012,0 0,-9.661785 24.516246,-24.303432 c 1.61736,-1.58898 2.426054,-3.575248 2.426087,-5.95881 -3.3e-5,-2.553733 -0.681039,-4.681877 -2.04302,-6.384439 -1.730922,-2.184848 -3.944192,-3.277296 -6.639817,-3.277345 -2.667298,4.9e-5 -4.880568,1.149247 -6.639817,3.447597 -1.248529,1.617436 -1.872784,3.376702 -1.872769,5.277803 l 0,2.000458 -11.023798,0 c 0.198622,-5.050757 1.489696,-9.193545 3.873226,-12.428375 3.944153,-5.306122 9.094262,-7.959209 15.450343,-7.959268 5.873655,5.9e-5 10.669073,2.043078 14.38627,6.129062 3.461743,3.802337 5.192634,8.356566 5.192677,13.6627 -4.3e-5,5.02246 -2.014687,9.534125 -6.043936,13.535011 z" id="path3838" style="font-size:87.16887665px;line-height:125%;fill:#ffffff;font-family:SnvDReg;-inkscape-font-specification:SnvDReg"/>
        <path d="m 135.40296,58.816163 c -3.43344,2.241669 -6.96616,3.362492 -10.59817,3.362472 -5.78858,2e-5 -10.48468,-2.199063 -14.08833,-6.597254 -3.00779,-3.660382 -4.51168,-7.888295 -4.51167,-12.683753 -1e-5,-5.98714 2.19907,-10.924434 6.59725,-14.811899 3.8874,-3.461727 8.45582,-5.192618 13.70526,-5.192677 4.99402,5.9e-5 9.27869,1.574886 12.85401,4.724485 2.78073,2.468702 4.72444,5.58998 5.83112,9.363844 0.56746,1.986313 0.85121,3.915831 0.85126,5.788558 l 0,20.430206 c -5e-5,3.915804 -0.97899,7.434336 -2.93684,10.555606 -3.97258,6.356066 -9.63345,9.534095 -16.98261,9.534096 -6.07233,-10e-7 -11.13732,-2.369335 -15.19497,-7.108009 -1.8444,-2.099763 -3.14966,-4.596786 -3.91579,-7.491075 l 11.15149,0 c 1.9295,3.291543 4.65352,4.937308 8.17208,4.937299 3.63201,9e-6 6.29928,-1.603193 8.00183,-4.809611 0.70935,-1.305248 1.06404,-2.709823 1.06408,-4.213729 z M 126.1668,32.554837 c -3.03618,4.9e-5 -5.46226,1.220185 -7.27826,3.660412 -1.0499,1.418808 -1.57485,3.603703 -1.57483,6.55469 -2e-5,2.667314 0.68099,4.795458 2.04302,6.38444 1.9295,2.213303 4.25627,3.319938 6.98032,3.319908 1.58899,3e-5 3.09997,-0.425599 4.53295,-1.276888 1.43292,-0.851227 2.56084,-2.000424 3.38376,-3.447597 0.7661,-1.390353 1.14916,-3.20637 1.1492,-5.448055 -4e-5,-2.610484 -0.61011,-4.710253 -1.83021,-6.299313 -1.7593,-2.29835 -4.22795,-3.447548 -7.40595,-3.447597 z" id="path3840" style="font-size:87.16887665px;line-height:125%;fill:#ffffff;font-family:SnvDReg;-inkscape-font-specification:SnvDReg"/>
      </g>
    </g>
  </g>
</svg>