<?xml version="1.0" encoding="UTF-8" standalone="no"?>
<!DOCTYPE svg PUBLIC "-//W3C//DTD SVG 1.1//EN" "http://www.w3.org/Graphics/SVG/1.1/DTD/svg11.dtd">
<!-- Geohints -->
<svg width="100%" height="100%" viewBox="0 0 404 296" version="1.1" xmlns="http://www.w3.org/2000/svg" xmlns:xlink="http://www.w3.org/1999/xlink" xml:space="preserve" xmlns:serif="http://www.serif.com/" style="fill-rule:evenodd;clip-rule:evenodd;stroke-linejoin:round;stroke-miterlimit:2;">
    <path d="M0,250L0,46L203,0L404,45.5L404,250.5L203,296L0,250Z" style="fill:rgb(251,215,3);fill-opacity:0.96;"/>
    <path d="M7.367,244.301L7.367,51.699L202.964,8.269L396.633,51.227L396.633,244.773L202.964,287.731L7.367,244.301Z" style="fill:rgb(1,1,0);fill-opacity:0.96;"/>
    <path d="M15.986,239.553L15.986,56.447L202.921,15.159L388.014,55.999L388.014,240.001L202.921,280.841L15.986,239.553Z" style="fill:rgb(252,217,0);fill-opacity:0.96;"/>
    <path d="M292,199C291.457,199.06 291.124,199.393 291,200C306.986,200.999 322.986,201.333 339,201L339,232L252,232C249.571,208.346 256.071,187.679 271.5,170C278.864,162.302 286.53,154.969 294.5,148C305.84,134.298 308.84,118.964 303.5,102C296.951,94.975 291.285,95.642 286.5,104C285.083,111.921 284.249,119.921 284,128L252,128C250.756,109.352 255.256,92.352 265.5,77C278.175,66.196 292.675,63.029 309,67.5C323.489,72.272 332.656,82.105 336.5,97C341.236,116.246 338.903,134.58 329.5,152C319.62,165.553 308.62,178.22 296.5,190C294.462,192.743 292.962,195.743 292,199Z" style="fill:rgb(1,1,0);"/>
    <path d="M183,232L183,117L164,117L164,89C176.899,86.913 182.899,79.246 182,66L215,66L215,232L183,232Z"/>
    <path d="M69,66L143,66L143,99L103,100L103,132L124,132L124,166L103,166L103,198L143,199L143,232L69,232L69,66Z"/>
</svg>
