<?xml version="1.0" encoding="UTF-8" standalone="no"?>
<!DOCTYPE svg PUBLIC "-//W3C//DTD SVG 1.1//EN" "http://www.w3.org/Graphics/SVG/1.1/DTD/svg11.dtd">
<!-- Geohints -->
<svg width="100%" height="100%" viewBox="0 0 695 452" version="1.1" xmlns="http://www.w3.org/2000/svg" xmlns:xlink="http://www.w3.org/1999/xlink" xml:space="preserve" xmlns:serif="http://www.serif.com/" style="fill-rule:evenodd;clip-rule:evenodd;stroke-linejoin:round;stroke-miterlimit:2;">
    <path d="M0.039,26.344C-0.121,11.884 13.239,-0.356 27.499,0.064C133.189,0.044 561.399,-0.116 666.519,0.164C681.099,-0.726 695.149,11.474 694.909,26.364C694.989,91.954 695.019,360.654 694.889,426.294C694.869,440.104 682.219,452.074 668.499,451.734C562.609,451.664 131.799,451.724 25.509,451.754C11.789,451.494 -0.161,439.074 0.059,425.344C-0.041,359.964 0.009,92.044 0.039,26.344" style="fill:rgb(0,118,48);fill-rule:nonzero;"/>
    <path d="M678.829,420.354C678.821,385.017 678.969,90.768 678.719,26.334C678.839,18.444 670.609,13.674 663.489,13.974C452.819,13.974 242.139,14.074 31.469,13.954C23.989,13.384 14.849,15.334 11.849,23.144C11.479,157.874 12.479,292.704 11.349,427.374C10.909,294.034 11.329,160.674 11.139,27.324C10.439,19.584 17.789,12.294 25.479,12.714C238.829,12.684 452.179,12.714 665.539,12.724C673.149,12.494 679.909,19.774 679.259,27.354C679.102,92.33 679.093,387.598 679.229,423.324C680.059,430.924 673.129,438.184 665.549,437.934C452.529,437.804 239.519,438.434 26.509,437.914C21.709,438.494 17.139,436.184 14.089,432.574C17.509,434.924 21.059,437.714 25.509,437.004C239.269,438.444 453.019,436.734 666.759,437.044C674.989,436.604 680.069,428.064 678.829,420.354Z" style="fill:rgb(3,5,10);fill-rule:nonzero;"/>
    <path d="M27.849,19.804C30.979,18.904 34.279,19.174 37.499,19.134C244.489,19.174 451.479,19.104 658.469,19.174C666.139,18.714 673.159,25.664 672.679,33.354C672.699,161.354 672.679,289.354 672.689,417.354C673.089,424.994 666.159,432.064 658.469,431.494C449.829,431.554 241.179,431.514 32.539,431.514C24.869,432.014 17.799,424.994 18.299,417.314C18.329,289.324 18.299,161.334 18.319,33.344C17.929,27.334 22.189,21.594 27.849,19.804M31.999,417.754C241.009,417.664 450.019,417.694 659.019,417.734C658.879,289.474 659.189,161.204 658.869,32.954C449.939,32.934 240.999,33.034 32.059,32.904C31.919,161.184 32.039,289.464 31.999,417.754Z" style="fill:rgb(240,237,230);fill-rule:nonzero;"/>
    <g>
        <path d="M376.439,253.324C382.779,253.344 389.119,253.324 395.469,253.344C395.459,280.014 395.449,306.674 395.479,333.334L412.509,333.334C412.539,339.664 412.539,345.994 412.509,352.334L395.479,352.334C395.449,361.334 395.459,370.324 395.469,379.324C388.999,379.334 382.539,379.334 376.079,379.334C376.079,370.334 376.049,361.344 376.079,352.344C353.989,352.314 331.889,352.354 309.799,352.324C310.069,346.234 309.279,339.954 310.159,333.984C332.129,307.004 354.349,280.214 376.439,253.324M334.729,333.324C348.519,333.334 362.299,333.344 376.079,333.324C376.049,316.574 376.089,299.824 376.059,283.074C362.229,299.774 348.499,316.564 334.729,333.324Z" style="fill:rgb(240,237,230);fill-rule:nonzero;"/>
        <path d="M283.049,379.524C268.499,376.564 272.719,353.014 287.619,356.984C304.079,363.084 294.509,386.894 281.749,392.144C280.159,389.604 278.609,387.034 277.099,384.444C279.179,382.934 281.159,381.274 283.049,379.524Z" style="fill:rgb(240,237,230);fill-rule:nonzero;"/>
        <path d="M182.789,271.794C194.789,250.774 225.489,247.254 245.289,258.574C263.149,268.284 266.239,295.674 251.299,309.334C273.529,324.884 269.079,362.334 245.229,374.114C221.169,388.254 186.449,377.354 175.249,351.644C180.809,348.864 186.389,346.124 191.969,343.374C199.489,361.074 225.309,367.464 239.819,354.664C247.579,348.274 249.289,335.764 243.069,327.774C237.539,320.944 227.729,319.324 219.489,320.934C219.509,314.754 219.509,308.564 219.499,302.384C226.179,302.314 233.939,301.804 238.659,296.414C244.629,289.614 242.399,277.564 233.879,273.934C222.029,268.784 204.799,270.634 198.179,283.054C193.059,279.284 187.899,275.574 182.789,271.794Z" style="fill:rgb(240,237,230);fill-rule:nonzero;"/>
        <path d="M62.429,272.364C79.109,250.554 112.799,246.594 135.869,260.034C151.439,268.874 156.479,291.394 146.239,306.034C138.949,316.314 126.289,320.054 115.549,325.514C100.949,331.974 87.699,344.184 84.379,360.334C106.749,360.334 129.129,360.324 151.499,360.334C151.519,366.664 151.509,373.004 151.499,379.334C121.579,379.324 91.659,379.354 61.739,379.324C61.289,355.744 71.749,331.804 90.979,317.734C101.269,308.924 114.689,305.614 126.279,299.074C135.199,294.024 131.929,280.294 123.889,275.994C107.979,266.344 86.989,272.544 74.709,285.314C70.589,281.014 66.549,276.654 62.429,272.364Z" style="fill:rgb(240,237,230);fill-rule:nonzero;"/>
    </g>
    <path d="M522.319,129.214C530.229,116.154 550.809,114.614 560.669,126.214C567.919,134.314 569.559,145.844 568.819,156.334C556.149,156.354 543.489,156.314 530.819,156.354C528.849,170.084 545.589,179.624 554.919,168.224C558.259,170.924 561.589,173.644 564.889,176.394C555.119,188.654 533.409,190.304 523.739,177.034C513.969,163.394 513.739,143.484 522.319,129.214M531.179,144.294C538.799,144.364 546.429,144.334 554.059,144.314C553.119,138.354 549.649,130.864 542.499,131.344C535.489,131.084 532.179,138.454 531.179,144.294Z" style="fill:rgb(240,237,230);fill-rule:nonzero;"/>
    <path d="M433.479,97.344C450.329,98.914 468.789,93.524 484.439,101.474C502.049,111.864 498.909,141.264 480.169,148.654C486.069,160.884 492.019,173.094 497.919,185.334C492.849,185.334 487.789,185.324 482.729,185.344C477.129,173.714 471.549,162.084 466.079,150.404C459.789,150.264 453.509,150.354 447.229,150.344C447.229,162.004 447.219,173.664 447.239,185.324C442.649,185.344 438.069,185.344 433.479,185.324C433.459,155.994 433.469,126.674 433.479,97.344M447.229,111.344C447.219,119.674 447.229,127.994 447.229,136.324C456.089,135.994 465.079,137.044 473.859,135.744C485.139,133.134 485.149,114.554 473.869,111.934C465.089,110.614 456.099,111.674 447.229,111.344Z" style="fill:rgb(240,237,230);fill-rule:nonzero;"/>
    <g>
        <path d="M70.749,67.644C159.609,66.854 248.599,67.574 337.509,67.294C341.539,66.764 345.809,70.004 345.479,74.254C345.489,117.644 345.509,161.024 345.469,204.414C345.849,208.764 341.699,212.174 337.499,211.644C249.509,211.654 161.509,211.644 73.519,211.644C69.449,212.084 65.709,208.364 66.019,204.324C65.959,161.334 66.039,118.344 65.979,75.354C65.749,72.144 67.479,68.554 70.749,67.644" style="fill:rgb(237,205,0);fill-rule:nonzero;"/>
        <path d="M297.499,97.324C302.299,97.354 307.109,97.334 311.909,97.304C311.899,115.624 311.909,133.944 311.899,152.264C315.759,152.344 319.609,152.344 323.469,152.344C323.449,157.334 323.449,162.324 323.469,167.314C319.609,167.344 315.759,167.364 311.909,167.364C311.929,173.344 311.869,179.334 311.899,185.314C306.859,185.394 301.809,185.364 296.769,185.314C296.799,179.344 296.749,173.374 296.779,167.404C281.939,167.294 267.109,167.334 252.269,167.384C252.219,162.744 252.279,158.104 252.299,153.474C267.409,134.784 282.439,116.044 297.499,97.324M272.029,152.334C280.269,152.364 288.519,152.254 296.769,152.344C296.769,141.914 296.829,131.474 296.729,121.044C288.439,131.424 280.349,141.974 272.029,152.334Z" style="fill:rgb(3,5,10);fill-rule:nonzero;"/>
        <path d="M214.499,97.324C219.299,97.354 224.109,97.334 228.909,97.304C228.899,115.624 228.909,133.944 228.899,152.264C232.759,152.344 236.609,152.344 240.469,152.344C240.449,157.334 240.449,162.324 240.469,167.314C236.609,167.344 232.759,167.364 228.909,167.364C228.929,173.344 228.869,179.334 228.899,185.314C223.859,185.394 218.809,185.364 213.769,185.314C213.799,179.344 213.749,173.374 213.779,167.404C198.939,167.294 184.109,167.334 169.269,167.384C169.219,162.744 169.279,158.104 169.299,153.474C184.409,134.784 199.439,116.044 214.499,97.324M189.029,152.334C197.269,152.364 205.519,152.254 213.769,152.344C213.769,141.914 213.829,131.474 213.729,121.044C205.439,131.424 197.349,141.974 189.029,152.334Z" style="fill:rgb(3,5,10);fill-rule:nonzero;"/>
        <path d="M86.949,97.324C91.869,97.284 96.789,97.354 101.709,97.334C112.819,115.784 123.939,134.234 135.089,152.654C135.049,134.214 135.009,115.774 135.109,97.334C140.239,97.344 145.369,97.324 150.489,97.304C150.609,126.644 150.479,155.994 150.559,185.334C145.619,185.394 140.679,185.344 135.739,185.324C124.689,166.634 113.609,147.954 102.469,129.314C102.429,147.984 102.459,166.654 102.459,185.334C97.279,185.374 92.099,185.314 86.919,185.314C86.959,155.984 86.919,126.654 86.949,97.324Z" style="fill:rgb(3,5,10);fill-rule:nonzero;"/>
    </g>
</svg>
