<?xml version="1.0" encoding="UTF-8" standalone="no"?>
<!DOCTYPE svg PUBLIC "-//W3C//DTD SVG 1.1//EN" "http://www.w3.org/Graphics/SVG/1.1/DTD/svg11.dtd">
<!-- GeoHints -->
<svg width="100%" height="100%" viewBox="0 0 392 205" version="1.1" xmlns="http://www.w3.org/2000/svg" xmlns:xlink="http://www.w3.org/1999/xlink" xml:space="preserve" xmlns:serif="http://www.serif.com/" style="fill-rule:evenodd;clip-rule:evenodd;stroke-linejoin:round;stroke-miterlimit:2;">
    <path d="M0.139,15.906C-0.33,7.854 6.434,0.294 14.559,0.266C134.901,-0.147 255.246,-0.022 375.589,0.256C383.795,0.275 391.04,6.272 391.099,14.856C391.498,72.89 391.409,130.928 391.109,188.963C391.067,196.977 384.93,204.224 376.569,204.253C255.913,204.667 135.254,204.701 14.599,204.253C10.735,204.238 6.933,202.234 4.346,199.479C1.576,196.528 0.193,192.994 0.169,188.953C-0.184,131.271 0.123,73.588 0.139,15.906" style="fill:rgb(0,118,48);fill-rule:nonzero;"/>
    <path d="M15.809,11.296C133.309,10.046 251.019,11.136 368.609,10.756C373.579,9.986 378.879,13.576 378.689,18.896C378.799,90.586 378.739,112.273 378.719,183.963C379.119,188.493 375.399,193.253 370.619,192.713C253.269,192.763 135.919,192.713 18.569,192.743C13.829,193.223 9.979,188.473 10.429,183.943C10.449,112.613 10.429,91.286 10.439,19.946C10.189,16.316 12.119,12.346 15.809,11.296ZM18.239,18.586C18.169,90.776 18.229,112.973 18.209,185.173C135.789,185.073 253.379,185.233 370.959,185.093C370.939,112.943 371.049,90.786 370.909,18.636C253.349,18.516 135.799,18.636 18.239,18.586Z" style="fill:rgb(239,237,231);fill-rule:nonzero;"/>
    <g>
        <path d="M48.365,90.648C59.99,73.769 86.197,71.421 102.817,81.956C117.374,90.895 116.388,115.533 100.443,122.487C85.756,129.285 68.033,136.628 64.037,154.26C80.372,154.572 96.706,154.351 113.028,154.377C113.469,158.996 113.404,163.641 113.287,168.285C91.4,168.363 69.513,168.324 47.625,168.311C46.847,145.386 61.572,123.46 82.928,115.299C89.947,112.393 102.039,108.851 98.004,98.718C89.441,83.98 67.151,88.624 57.226,99.704C54.229,96.733 51.375,93.606 48.365,90.648Z" style="fill:rgb(239,237,231);fill-rule:nonzero;"/>
        <path d="M129.479,104.089C129.557,74.664 174.59,65.375 189.458,88.806C208.206,121.864 182.595,171.918 142.466,169.168C142.336,164.523 142.375,159.891 142.401,155.246C159.034,155.817 175.758,144.608 179.105,127.845C160.409,139.613 128.454,128.831 129.479,104.089M155.025,90.246C147.111,91.79 141.571,100.288 143.854,108.137C149.005,124.251 179.261,121.799 179.779,104.102C179.728,91.959 165.015,87.08 155.025,90.246Z" style="fill:rgb(239,237,231);fill-rule:nonzero;"/>
        <path d="M251.251,57.225C269.829,34.247 306.966,30.215 330.772,47.08C349.497,60.484 347.508,92.889 326.316,102.85C305.493,112.939 278.98,122.845 274.101,148.658C297.281,148.511 320.443,148.529 343.605,148.64C343.642,155.194 343.642,161.731 343.66,168.285C312.581,168.322 281.502,168.377 250.423,168.248C249.189,132.032 275.242,99.849 309.193,89.391C320.167,87.237 327.992,74.919 319.67,65.382C304.351,49.713 277.857,56.378 264.011,70.905C259.813,66.284 255.468,61.81 251.251,57.225Z" style="fill:rgb(239,237,231);fill-rule:nonzero;"/>
        <path d="M221.076,168.428C211.112,165.483 214.239,149.46 224.8,151.925C236.892,156.453 229.911,173.618 220.739,177.821C219.584,175.966 218.481,174.085 217.352,172.216C218.702,171.062 219.973,169.816 221.076,168.428Z" style="fill:rgb(239,237,231);fill-rule:nonzero;"/>
    </g>
</svg>
