<?xml version="1.0" encoding="UTF-8" standalone="no"?>
<!DOCTYPE svg PUBLIC "-//W3C//DTD SVG 1.1//EN" "http://www.w3.org/Graphics/SVG/1.1/DTD/svg11.dtd">
<!-- Geohints -->
<svg width="100%" height="100%" viewBox="0 0 392 255" version="1.1" xmlns="http://www.w3.org/2000/svg" xmlns:xlink="http://www.w3.org/1999/xlink" xml:space="preserve" xmlns:serif="http://www.serif.com/" style="fill-rule:evenodd;clip-rule:evenodd;stroke-linejoin:round;stroke-miterlimit:2;">
    <path d="M0.022,15.697C-0.438,7.797 6.352,-0.143 14.442,0.057C74.272,0.037 318.132,0.047 375.472,0.047C383.502,-0.653 391.142,6.627 390.982,14.647C391.062,51.457 391.002,202.227 390.992,238.707C391.492,246.697 384.412,254.007 376.452,253.997C316.992,254.077 74.182,254.057 14.482,253.997C6.572,253.807 -0.138,246.557 0.052,238.697C0.032,202.267 0.012,53.437 0.022,15.697" style="fill:rgb(0,118,48);fill-rule:nonzero;"/>
    <path d="M15.692,11.037C133.192,9.787 250.902,10.877 368.492,10.497C373.462,9.727 378.762,13.317 378.572,18.637C378.682,90.327 378.622,162.017 378.602,233.707C379.002,238.237 375.282,242.997 370.502,242.457C253.152,242.507 135.802,242.457 18.452,242.487C13.712,242.967 9.862,238.217 10.312,233.687C10.332,162.357 10.312,91.027 10.322,19.687C10.072,16.057 12.002,12.087 15.692,11.037M18.122,18.327C18.052,90.517 18.112,162.717 18.092,234.917C135.672,234.817 253.262,234.977 370.842,234.837C370.822,162.687 370.932,90.527 370.792,18.377C253.232,18.257 135.682,18.377 18.122,18.327Z" style="fill:rgb(239,237,231);fill-rule:nonzero;"/>
    <g>
        <path d="M36.502,153.327C45.462,140.317 65.662,138.507 78.472,146.627C89.692,153.517 88.932,172.507 76.642,177.867C65.322,183.107 51.662,188.767 48.582,202.357C61.172,202.597 73.762,202.427 86.342,202.447C86.682,206.007 86.632,209.587 86.542,213.167C69.672,213.227 52.802,213.197 35.932,213.187C35.332,195.517 46.682,178.617 63.142,172.327C68.552,170.087 77.872,167.357 74.762,159.547C68.162,148.187 50.982,151.767 43.332,160.307C41.022,158.017 38.822,155.607 36.502,153.327Z" style="fill:rgb(239,237,231);fill-rule:nonzero;"/>
        <path d="M99.022,163.687C99.082,141.007 133.792,133.847 145.252,151.907C159.702,177.387 139.962,215.967 109.032,213.847C108.932,210.267 108.962,206.697 108.982,203.117C121.802,203.557 134.692,194.917 137.272,181.997C122.862,191.067 98.232,182.757 99.022,163.687M118.712,153.017C112.612,154.207 108.342,160.757 110.102,166.807C114.072,179.227 137.392,177.337 137.792,163.697C137.752,154.337 126.412,150.577 118.712,153.017Z" style="fill:rgb(239,237,231);fill-rule:nonzero;"/>
        <path d="M192.682,152.857C202.772,140.377 222.942,138.187 235.872,147.347C246.042,154.627 244.962,172.227 233.452,177.637C222.142,183.117 207.742,188.497 205.092,202.517C217.682,202.437 230.262,202.447 242.842,202.507C242.862,206.067 242.862,209.617 242.872,213.177C225.992,213.197 209.112,213.227 192.232,213.157C191.562,193.487 205.712,176.007 224.152,170.327C230.112,169.157 234.362,162.467 229.842,157.287C221.522,148.777 207.132,152.397 199.612,160.287C197.332,157.777 194.972,155.347 192.682,152.857Z" style="fill:rgb(239,237,231);fill-rule:nonzero;"/>
        <path d="M169.622,213.277C161.942,211.007 164.352,198.657 172.492,200.557C181.812,204.047 176.432,217.277 169.362,220.517C168.472,219.087 167.622,217.637 166.752,216.197C167.792,215.307 168.772,214.347 169.622,213.277Z" style="fill:rgb(239,237,231);fill-rule:nonzero;"/>
    </g>
    <path d="M243.942,104.077C244.062,87.527 243.732,70.967 244.112,54.427C253.662,55.537 264.292,52.177 273.042,57.177C282.612,63.467 280.322,78.857 270.522,83.707C273.492,90.607 276.972,97.287 280.232,104.047C277.352,104.077 274.472,104.077 271.602,104.047C268.522,97.497 265.332,90.987 262.332,84.397C258.842,84.377 255.352,84.387 251.852,84.287C251.632,90.867 251.802,97.457 251.762,104.047C249.152,104.077 246.552,104.077 243.942,104.077M251.742,76.467C256.762,76.297 261.842,76.867 266.822,76.147C273.122,74.557 272.832,64.047 266.482,62.697C261.642,62.047 256.702,62.637 251.832,62.367C251.682,67.067 251.782,71.767 251.742,76.467Z" style="fill:rgb(239,237,231);fill-rule:nonzero;"/>
    <path d="M300.162,67.367C312.662,62.057 322.322,76.377 320.132,87.647C313.002,88.067 305.852,87.727 298.712,87.847C297.792,95.757 306.842,100.547 312.482,94.627C314.212,96.037 315.952,97.427 317.722,98.807C312.632,106.387 299.382,106.707 294.312,98.837C288.172,89.317 288.802,72.697 300.162,67.367M298.842,80.997C303.202,81.037 307.552,81.047 311.912,80.977C311.842,71.847 298.852,71.817 298.842,80.997Z" style="fill:rgb(239,237,231);fill-rule:nonzero;"/>
    <g>
        <path d="M37.222,41.677C37.122,38.837 39.932,37.307 42.462,37.567C91.472,37.577 140.482,37.527 189.482,37.597C192.492,37.227 195.082,39.597 194.362,42.687C194.072,67.727 195.402,92.997 193.712,117.907C144.252,120.347 94.172,118.227 44.482,118.967C41.462,119.437 37.082,118.607 37.222,114.717C37.172,90.367 37.162,66.017 37.222,41.677" style="fill:rgb(239,237,231);fill-rule:nonzero;"/>
        <path d="M41.082,41.487C90.952,41.457 140.812,41.467 190.682,41.487C190.702,65.997 190.722,90.517 190.672,115.027C140.792,115.067 90.922,115.017 41.042,115.057C41.092,90.537 41.012,66.007 41.082,41.487" style="fill:rgb(214,0,4);fill-rule:nonzero;"/>
        <path d="M88.282,54.517C90.772,54.507 93.272,54.517 95.772,54.517C101.962,71.057 108.442,87.507 114.332,104.157C111.602,104.077 108.872,104.057 106.152,104.087C104.572,100.027 103.022,95.947 101.582,91.837C95.202,91.477 88.772,91.357 82.402,91.907C81.002,96.017 79.442,100.057 77.862,104.097C75.122,104.077 72.382,104.077 69.632,104.077C75.722,87.507 82.002,71.007 88.282,54.517M85.522,83.817C89.842,83.937 94.162,83.857 98.482,83.907C96.652,78.377 94.332,73.027 92.432,67.527C88.882,72.127 87.982,78.507 85.522,83.817Z" style="fill:rgb(239,237,231);fill-rule:nonzero;"/>
        <path d="M121.182,86.407C129.932,75.767 138.712,65.157 147.482,54.527C149.962,54.507 152.442,54.517 154.922,54.517C154.972,65.027 154.942,75.547 154.942,86.067C157.202,86.077 159.472,86.087 161.742,86.127C161.732,88.517 161.742,90.907 161.762,93.297C159.492,93.357 157.212,93.377 154.942,93.387C154.952,96.947 154.952,100.507 154.952,104.077C152.382,104.077 149.812,104.077 147.242,104.057C147.242,100.497 147.232,96.927 147.262,93.367C138.562,93.327 129.872,93.457 121.172,93.297C121.192,90.997 121.202,88.697 121.182,86.407M131.102,86.057C136.482,86.087 141.872,86.097 147.252,86.057C147.192,79.507 147.332,72.947 147.162,66.397C141.822,72.967 136.392,79.457 131.102,86.057Z" style="fill:rgb(239,237,231);fill-rule:nonzero;"/>
    </g>
</svg>
