<?xml version="1.0" encoding="UTF-8" standalone="no"?>
<!-- Created with Inkscape (http://www.inkscape.org/) -->
<svg xmlns:dc="http://purl.org/dc/elements/1.1/" xmlns:cc="http://creativecommons.org/ns#" xmlns:rdf="http://www.w3.org/1999/02/22-rdf-syntax-ns#" xmlns:svg="http://www.w3.org/2000/svg" xmlns="http://www.w3.org/2000/svg" xmlns:sodipodi="http://sodipodi.sourceforge.net/DTD/sodipodi-0.dtd" xmlns:inkscape="http://www.inkscape.org/namespaces/inkscape" version="1.0" width="526.25" height="364.375" id="svg2" xml:space="preserve" sodipodi:version="0.32" inkscape:version="0.46" sodipodi:docname="Norwegian-road-sign-723.15-new.svg" inkscape:output_extension="org.inkscape.output.svg.inkscape"><metadata id="metadata12"><rdf:RDF><cc:Work rdf:about=""><dc:format>image/svg+xml</dc:format><dc:type rdf:resource="http://purl.org/dc/dcmitype/StillImage"/></cc:Work></rdf:RDF></metadata><sodipodi:namedview inkscape:window-height="845" inkscape:window-width="1440" inkscape:pageshadow="2" inkscape:pageopacity="0.0" guidetolerance="10.0" gridtolerance="10.0" objecttolerance="10.0" borderopacity="1.0" bordercolor="#666666" pagecolor="#ffffff" id="base" showgrid="false" inkscape:zoom="1.0337292" inkscape:cx="263.125" inkscape:cy="182.1875" inkscape:window-x="-4" inkscape:window-y="-4" inkscape:current-layer="svg2"/><defs id="defs5"><inkscape:perspective sodipodi:type="inkscape:persp3d" inkscape:vp_x="0 : 182.1875 : 1" inkscape:vp_y="0 : 1000 : 0" inkscape:vp_z="526.25 : 182.1875 : 1" inkscape:persp3d-origin="263.125 : 121.45833 : 1" id="perspective14"/></defs><g transform="matrix(1.25,0,0,-1.25,0,364.375)" id="g11"><g transform="scale(0.1,0.1)" id="g13"><path d="M 3990,347.5 L 3985,327.5 L 3980,310 L 3960,275 L 3947.5,262.5 L 3917.5,237.5 L 3900,230 L 3865,220 L 345,220 L 325,225 L 307.5,230 L 290,237.5 L 272.5,250 L 247.5,275 L 227.5,310 L 222.5,327.5 L 217.5,347.5 L 217.5,2570 L 222.5,2590 L 227.5,2607.5 L 237.5,2625 L 247.5,2640 L 260,2655 L 272.5,2667.5 L 307.5,2687.5 L 325,2692.5 L 345,2695 L 362.5,2697.5 L 3845,2697.5 L 3865,2695 L 3882.5,2692.5 L 3900,2687.5 L 3917.5,2677.5 L 3932.5,2667.5 L 3947.5,2655 L 3960,2640 L 3970,2625 L 3980,2607.5 L 3985,2590 L 3990,2570 L 3990,347.5 z M 4135,2590 L 4127.5,2627.5 L 4097.5,2697.5 L 4077.5,2727.5 L 4052.5,2757.5 L 4022.5,2782.5 L 3990,2805 L 3957.5,2820 L 3920,2832.5 L 3882.5,2840 L 3845,2842.5 L 362.5,2842.5 L 325,2840 L 287.5,2832.5 L 250,2820 L 217.5,2805 L 185,2782.5 L 157.5,2757.5 L 132.5,2727.5 L 110,2697.5 L 92.5,2662.5 L 82.5,2627.5 L 75,2590 L 70,2550 L 70,365 L 75,327.5 L 82.5,290 L 92.5,252.5 L 110,220 L 132.5,187.5 L 157.5,160 L 185,135 L 217.5,112.5 L 250,95 L 287.5,82.5 L 362.5,72.5 L 3845,72.5 L 3920,82.5 L 3957.5,95 L 3990,112.5 L 4022.5,135 L 4052.5,160 L 4077.5,187.5 L 4097.5,220 L 4112.5,252.5 L 4127.5,290 L 4135,327.5 L 4137.5,365 L 4137.5,2550 L 4135,2590" id="path15" style="fill:#000000;fill-opacity:1;fill-rule:evenodd;stroke:none"/><path d="M 1045,2187.5 L 870,2012.5 L 870,1762.5 L 1027.5,1850 L 1027.5,730 L 1282.5,730 L 1282.5,2187.5 L 1045,2187.5" id="path17" style="fill:#000000;fill-opacity:1;fill-rule:evenodd;stroke:none"/><path d="M 1797.5,2187.5 L 1622.5,2012.5 L 1622.5,1762.5 L 1780,1850 L 1780,730 L 2035,730 L 2035,2187.5 L 1797.5,2187.5" id="path19" style="fill:#000000;fill-opacity:1;fill-rule:evenodd;stroke:none"/><path d="M 3132.5,1150 L 3127.5,1107.5 L 3115,1067.5 L 3092.5,1035 L 3067.5,1002.5 L 3055,990 L 3020,965 L 2985,947.5 L 2945,937.5 L 2902.5,935 L 2885,935 L 2842.5,942.5 L 2805,955 L 2770,975 L 2737.5,1002.5 L 2727.5,1015 L 2702.5,1047.5 L 2685,1085 L 2675,1125 L 2672.5,1167.5 L 2672.5,1265 L 2680,1307.5 L 2692.5,1342.5 L 2712.5,1380 L 2740,1410 L 2752.5,1422.5 L 2785,1447.5 L 2822.5,1465 L 2860,1475 L 2902.5,1480 L 2920,1477.5 L 2960,1472.5 L 3000,1457.5 L 3032.5,1437.5 L 3065,1410 L 3077.5,1397.5 L 3102.5,1365 L 3120,1330 L 3130,1290 L 3132.5,1247.5 L 3132.5,1150 z M 3382.5,1282.5 L 3377.5,1325 L 3367.5,1365 L 3355,1402.5 L 3340,1440 L 3322.5,1475 L 3300,1510 L 3245,1575 L 3240,1580 L 3207.5,1607.5 L 3175,1632.5 L 3140,1655 L 3102.5,1672.5 L 3065,1687.5 L 3027.5,1697.5 L 2987.5,1707.5 L 2945,1712.5 L 2867.5,1712.5 L 2825,1705 L 2787.5,1695 L 2750,1677.5 L 2712.5,1657.5 L 2680,1632.5 L 2687.5,1655 L 2697.5,1695 L 2710,1735 L 2727.5,1772.5 L 2742.5,1812.5 L 2762.5,1852.5 L 2770,1870 L 2795,1905 L 2822.5,1932.5 L 2852.5,1955 L 2887.5,1970 L 2925,1980 L 2967.5,1982.5 L 2985,1982.5 L 3025,1975 L 3062.5,1962.5 L 3097.5,1942.5 L 3130,1915 L 3285,2115 L 3280,2117.5 L 3245,2140 L 3210,2160 L 3172.5,2177.5 L 3135,2192.5 L 3095,2205 L 3055,2212.5 L 3012.5,2217.5 L 2972.5,2220 L 2935,2217.5 L 2892.5,2212.5 L 2852.5,2205 L 2812.5,2195 L 2775,2177.5 L 2735,2160 L 2700,2140 L 2670,2117.5 L 2635,2090 L 2607.5,2062.5 L 2580,2030 L 2555,1997.5 L 2532.5,1962.5 L 2515,1925 L 2507.5,1907.5 L 2490,1867.5 L 2460,1787.5 L 2435,1707.5 L 2417.5,1625 L 2402.5,1545 L 2400,1502.5 L 2395,1460 L 2395,1420 L 2392.5,1377.5 L 2392.5,1360 L 2395,1315 L 2397.5,1272.5 L 2405,1187.5 L 2420,1107.5 L 2430,1067.5 L 2437.5,1035 L 2452.5,995 L 2470,957.5 L 2490,920 L 2515,887.5 L 2540,857.5 L 2570,827.5 L 2602.5,800 L 2627.5,780 L 2665,757.5 L 2700,740 L 2737.5,725 L 2777.5,712.5 L 2817.5,705 L 2860,700 L 2902.5,697.5 L 2912.5,697.5 L 2957.5,700 L 3037.5,715 L 3077.5,727.5 L 3112.5,742.5 L 3150,762.5 L 3182.5,785 L 3215,810 L 3245,837.5 L 3252.5,847.5 L 3280,877.5 L 3305,912.5 L 3327.5,945 L 3345,980 L 3360,1020 L 3370,1057.5 L 3377.5,1097.5 L 3382.5,1140 L 3385,1185 L 3385,1240 L 3382.5,1282.5" id="path21" style="fill:#000000;fill-opacity:1;fill-rule:evenodd;stroke:none"/><path d="M 0,0 L 4210,0 L 4210,2915 L 0,2915 L 0,0" id="path23" style="fill:none;stroke:#000000;stroke-width:1;stroke-linecap:square;stroke-linejoin:miter;stroke-miterlimit:10;stroke-dasharray:none;stroke-opacity:1"/></g></g><path style="fill:#ffffff;fill-opacity:1;stroke:#ffffff;stroke-width:0.96737134;stroke-opacity:1" d="M 37.050322,334.19339 C 33.195628,331.79467 30.155934,328.38926 28.892102,325.05364 C 28.178482,323.17016 27.860294,278.89869 27.860294,181.48399 L 27.860294,40.637588 L 30.270161,36.525466 C 31.595595,34.263781 34.316327,31.39597 36.316232,30.15255 L 39.952436,27.891774 L 263.00214,27.891774 L 486.05195,27.891774 L 490.0735,30.553138 C 492.2853,32.016868 494.9743,34.937913 496.04886,37.044345 C 497.98264,40.834786 498.00276,42.324141 498.00276,181.69635 C 498.00276,336.86854 498.46245,325.76205 491.77647,332.13006 L 488.22167,335.51585 L 264.08705,335.75758 C 46.734173,335.99203 39.864627,335.9447 37.050322,334.1934 L 37.050322,334.19339 z M 373.81066,276.4706 C 388.95708,273.84957 400.56264,266.88782 410.49086,254.46746 C 419.74271,242.89318 422.39002,235.07925 423.18016,217.01287 C 424.11145,195.72001 418.94908,180.75477 406.28174,168.02581 C 393.46281,155.14446 379.87617,149.78458 361.64945,150.41848 C 352.26227,150.74495 350.84623,151.05871 343.94887,154.3406 C 339.82545,156.3026 336.45175,157.55895 336.45175,157.13252 C 336.45175,155.68974 338.54949,149.81986 342.43929,140.37841 C 349.17597,124.02691 357.35983,117.39252 370.79343,117.39252 C 377.88155,117.39253 385.74647,120.09855 388.56636,123.50759 C 389.29663,124.39035 390.38492,125.09204 390.98479,125.06693 C 391.94568,125.02671 410.0244,102.22201 410.69837,100.20006 C 410.8426,99.767434 408.60391,98.05984 405.72347,96.405413 C 385.14728,84.587066 364.02725,83.480461 343.76401,93.158992 C 336.68401,96.54069 333.67113,98.733895 327.1584,105.24664 C 320.32267,112.08231 318.52539,114.62082 314.39791,123.26912 C 308.63102,135.35242 304.45062,147.98502 301.46289,162.35639 C 299.56162,171.50166 299.25787,175.78513 299.3014,192.82858 C 299.33864,207.38465 299.78702,214.84691 300.98685,220.88235 C 304.96826,240.90917 308.53709,248.3333 319.40976,259.20777 C 329.96833,269.76801 340.51722,275.16397 354.03198,276.91771 C 363.22288,278.11035 364.50165,278.08146 373.81066,276.4706 L 373.81066,276.4706 z M 160.39017,181.70381 L 160.39017,90.287224 L 145.62264,90.287224 L 130.85511,90.287224 L 119.50362,101.66836 L 108.15211,113.0495 L 108.15211,128.75475 C 108.15211,137.39266 108.36983,144.46002 108.63594,144.46002 C 108.90205,144.46002 113.36403,142.08141 118.55149,139.17421 L 127.98323,133.8884 L 128.23144,203.50439 L 128.4796,273.1204 L 144.43491,273.1204 L 160.39017,273.1204 L 160.39017,181.70381 z M 255.19256,181.70381 L 255.19256,90.287224 L 239.94137,90.287224 L 224.69018,90.287224 L 213.33865,101.66836 L 201.98713,113.0495 L 201.98713,128.75475 C 201.98713,137.39266 202.31362,144.44642 202.71266,144.4298 C 203.1117,144.41319 207.5737,142.05041 212.62822,139.17922 L 221.81824,133.95884 L 222.06647,203.53964 L 222.3147,273.1204 L 238.75363,273.1204 L 255.19256,273.1204 L 255.19256,181.70381 z" id="path2391"/><path style="fill:#ffffff;fill-opacity:1;stroke:#ffffff;stroke-width:0.96737134;stroke-opacity:1" d="M 353.10562,245.23113 C 346.25402,242.78579 341.09764,238.18554 337.19865,231.03975 C 334.27555,225.68262 333.55689,208.23485 335.92385,200.09272 C 337.77472,193.72605 344.10888,186.20658 350.45483,182.84267 C 355.69218,180.06647 369.05197,179.86973 374.3193,182.49127 C 380.25771,185.44682 385.53994,190.67837 388.31717,196.35477 C 390.72147,201.26884 390.97115,202.79928 391.03645,213.01701 C 391.08162,220.1001 390.63083,225.61714 389.8194,227.9096 C 387.93428,233.23597 381.6424,240.71031 376.51349,243.71602 C 370.51763,247.22984 360.51907,247.87701 353.10562,245.23115 L 353.10562,245.23113 z" id="path2393"/></svg>