<?xml version="1.0" encoding="UTF-8" standalone="no"?>
<!-- Created with Inkscape (http://www.inkscape.org/) -->
<svg xmlns:svg="http://www.w3.org/2000/svg" xmlns="http://www.w3.org/2000/svg" version="1.0" width="1359" height="945" id="svg2">
  <defs id="defs5"/>
  <rect x="0" y="0" width="1359" height="945" fill="white"/>
  <image x="0" y="0" width="1359" height="945" id="image11"/>
  <path d="M 0,472.5 L 0,0 L 679.5,0 L 1359,0 L 1359,472.5 L 1359,945 L 679.5,945 L 0,945 L 0,472.5 z M 1272.5,919.54969 C 1298.9964,915.30232 1322.2992,894.03523 1331.1756,866 L 1334.5,855.5 L 1334.5,473 C 1334.5,107.09637 1334.4215,90.21797 1332.6919,84 C 1327.9662,67.011164 1323.8441,59.248053 1313.8888,48.587997 C 1302.2755,36.152573 1293.7124,31.302576 1273.5,25.712528 L 1265.5,23.5 L 679.5,23.5 C 27.443966,23.5 90.375397,22.86959 72.421512,29.581357 C 49.1116,38.295387 29.400737,61.953522 25.416107,86 C 23.320884,98.644274 23.303077,846.16 25.397692,859.06302 C 29.952775,887.12274 57.329538,914.7266 85.2502,919.41202 C 97.921729,921.53846 1259.2534,921.67312 1272.5,919.54969 z M 95.5,880.47533 C 86.240545,878.4323 84.286365,877.41477 77.871997,871.2965 C 69.959132,863.7489 65.52611,856.21411 64.117537,847.91809 C 62.549672,838.68389 62.522261,105.95165 64.089464,97.473868 C 66.34626,85.265731 75.021179,73.728043 86.5,67.667734 L 92.5,64.5 L 679.5,64.5 L 1266.5,64.5 L 1273.2169,68.323577 C 1282.7285,73.73803 1289.0216,80.974385 1292.3347,90.307147 L 1295,97.814739 L 1295,472.2132 L 1295,846.61166 L 1292.8375,853.05583 C 1287.6419,868.53854 1276.5783,878.17898 1260.9181,880.86928 C 1250.4958,882.65975 103.64328,882.27208 95.5,880.47533 z M 969.30845,717.91728 C 1028.4896,709.00731 1073.4872,672.55347 1094.4952,616.5 C 1109.3006,576.99597 1105.7287,506.81949 1087.2421,474 C 1072.0171,446.97097 1062.0505,436.04494 1032.6188,414.11852 C 991.63628,383.58686 919.40739,381.06489 882.65542,408.88236 C 876.66115,413.41941 876.24368,413.58754 877.04467,411.14206 C 877.52063,409.68893 880.41986,400.175 883.48742,390 C 890.48781,366.7799 904.47034,337.42685 913.49536,327.00535 C 937.89289,298.83272 985.83983,295.35985 1014.6078,319.68162 C 1017.4171,322.05673 1020.2031,324 1020.7989,324 C 1021.6068,324 1062.2112,272.70508 1070.7186,260.93724 C 1074.2878,256.00011 1035.3857,236.45654 1009.7961,230.33113 C 917.87671,208.32827 841.62707,255.49464 805.8302,356.5 C 801.43028,368.91492 798.81743,377.72581 791.89245,403.5 C 780.82013,444.71027 778.43777,525.07981 786.94215,570.5 C 803.4489,658.65926 847.32244,705.63492 925,718.31939 C 930.52584,719.22174 962.57601,718.93088 969.30845,717.91728 z M 932.5,640.35465 C 861.31237,628.97624 848.14346,507.46661 914.50123,474.27985 C 979.47984,441.78283 1042.3873,511.655 1017.7863,589 C 1006.3483,624.96076 970.65507,646.45323 932.5,640.35465 z M 545,671 L 545,633 L 440,633 L 335,633 L 335,566.5 L 335,500 L 412,500 L 489,500 L 489,462.5 L 489,425 L 412,425 L 335,425 L 335,368.5 L 335,312 L 440,312 L 545,312 L 545,274 L 545,236 L 400,236 L 255,236 L 255,472.5 L 255,709 L 400,709 L 545,709 L 545,671 z" id="path2384" style="fill:#00975f"/>
</svg>