<?xml version="1.0" encoding="UTF-8" standalone="no"?>
<!-- Created with Inkscape (http://www.inkscape.org/) -->
<svg xmlns:svg="http://www.w3.org/2000/svg" xmlns="http://www.w3.org/2000/svg" version="1.1" width="442.62564" height="299.97498" id="svg2">
  <defs id="defs4">
    <marker refX="0" refY="0" orient="auto" id="marker7006" style="overflow:visible">
      <path d="M 8.7185878,4.0337352 -2.2072895,0.01601326 8.7185884,-4.0017078 c -1.7454984,2.3720609 -1.7354408,5.6174519 -6e-7,8.035443 z" transform="matrix(1.1,0,0,1.1,1.1,0)" id="path7008" style="font-size:12px;fill-rule:evenodd;stroke-width:0.625;stroke-linejoin:round"/>
    </marker>
    <pattern id="pattern7010" patternTransform="translate(18.5094, 18)" height="476" width="370" patternUnits="userSpaceOnUse">
      <rect style="fill: rgb(0, 229, 255); fill-opacity: 1;" id="rect7012" width="370" height="476" x="0" y="0" rx="20" ry="20"/>
    </pattern>
    <pattern patternUnits="userSpaceOnUse" width="370" height="476" patternTransform="translate(18.5094, 18)" id="pattern7014">
      <rect ry="20" rx="20" y="0" x="0" height="476" width="370" id="rect7016" style="fill: rgb(0, 229, 255); fill-opacity: 1;"/>
    </pattern>
    <marker refX="0" refY="0" orient="auto" id="Arrow2Lstart" style="overflow:visible">
      <path d="M 8.7185878,4.0337352 -2.2072895,0.01601326 8.7185884,-4.0017078 c -1.7454984,2.3720609 -1.7354408,5.6174519 -6e-7,8.035443 z" transform="matrix(1.1,0,0,1.1,1.1,0)" id="path5785" style="font-size:12px;fill-rule:evenodd;stroke-width:0.625;stroke-linejoin:round"/>
    </marker>
    <pattern patternUnits="userSpaceOnUse" width="370" height="476" patternTransform="translate(18.50938,18)" id="pattern4002-8">
      <rect ry="20" rx="20" y="0" x="0" height="476" width="370" id="rect2240-8" style="fill:#00e5ff;fill-opacity:1"/>
    </pattern>
    <pattern id="pattern5932" patternTransform="translate(18.50938,18)" height="476" width="370" patternUnits="userSpaceOnUse">
      <rect style="fill:#00e5ff;fill-opacity:1" id="rect5934" width="370" height="476" x="0" y="0" rx="20" ry="20"/>
    </pattern>
    <pattern id="pattern2944" patternTransform="translate(18.50938,18)" height="476" width="370" patternUnits="userSpaceOnUse">
      <rect style="fill:#00e5ff;fill-opacity:1" id="rect2946" width="370" height="476" x="0" y="0" rx="20" ry="20"/>
    </pattern>
    <pattern patternUnits="userSpaceOnUse" width="370" height="476" patternTransform="translate(18.50938,18)" id="pattern2940">
      <rect ry="20" rx="20" y="0" x="0" height="476" width="370" id="rect2942" style="fill:#00e5ff;fill-opacity:1"/>
    </pattern>
    <marker refX="0" refY="0" orient="auto" id="marker2936" style="overflow:visible">
      <path d="M 8.7185878,4.0337352 -2.2072895,0.01601326 8.7185884,-4.0017078 c -1.7454984,2.3720609 -1.7354408,5.6174519 -6e-7,8.035443 z" transform="matrix(1.1,0,0,1.1,1.1,0)" id="path2938" style="font-size:12px;fill-rule:evenodd;stroke-width:0.625;stroke-linejoin:round"/>
    </marker>
    <pattern id="pattern5613" patternTransform="translate(18.50938,18)" height="476" width="370" patternUnits="userSpaceOnUse">
      <rect style="fill:#00e5ff;fill-opacity:1" id="rect5615" width="370" height="476" x="0" y="0" rx="20" ry="20"/>
    </pattern>
    <marker refX="0" refY="0" orient="auto" id="marker2313" style="overflow:visible">
      <path d="M 8.7185878,4.0337352 -2.2072895,0.01601326 8.7185884,-4.0017078 c -1.7454984,2.3720609 -1.7354408,5.6174519 -6e-7,8.035443 z" transform="matrix(1.1,0,0,1.1,1.1,0)" id="path2315" style="font-size:12px;fill-rule:evenodd;stroke-width:0.625;stroke-linejoin:round"/>
    </marker>
    <pattern patternUnits="userSpaceOnUse" width="370" height="476" patternTransform="translate(18.50938,18)" id="pattern2317">
      <rect ry="20" rx="20" y="0" x="0" height="476" width="370" id="rect2319" style="fill:#00e5ff;fill-opacity:1"/>
    </pattern>
    <pattern id="pattern2321" patternTransform="translate(18.50938,18)" height="476" width="370" patternUnits="userSpaceOnUse">
      <rect style="fill:#00e5ff;fill-opacity:1" id="rect2323" width="370" height="476" x="0" y="0" rx="20" ry="20"/>
    </pattern>
    <pattern id="pattern3936" patternTransform="translate(18.50938,18)" height="476" width="370" patternUnits="userSpaceOnUse">
      <rect style="fill:#00e5ff;fill-opacity:1" id="rect3938" width="370" height="476" x="0" y="0" rx="20" ry="20"/>
    </pattern>
    <pattern patternUnits="userSpaceOnUse" width="370" height="476" patternTransform="translate(18.50938,18)" id="pattern3932">
      <rect ry="20" rx="20" y="0" x="0" height="476" width="370" id="rect3934" style="fill:#00e5ff;fill-opacity:1"/>
    </pattern>
    <marker refX="0" refY="0" orient="auto" id="marker3928" style="overflow:visible">
      <path d="M 8.7185878,4.0337352 -2.2072895,0.01601326 8.7185884,-4.0017078 c -1.7454984,2.3720609 -1.7354408,5.6174519 -6e-7,8.035443 z" transform="matrix(1.1,0,0,1.1,1.1,0)" id="path3930" style="font-size:12px;fill-rule:evenodd;stroke-width:0.625;stroke-linejoin:round"/>
    </marker>
    <pattern id="pattern4296" patternTransform="translate(18.50938,18)" height="476" width="370" patternUnits="userSpaceOnUse">
      <rect style="fill:#00e5ff;fill-opacity:1" id="rect4298" width="370" height="476" x="0" y="0" rx="20" ry="20"/>
    </pattern>
    <pattern patternUnits="userSpaceOnUse" width="370" height="476" patternTransform="translate(18.50938,18)" id="pattern4292">
      <rect ry="20" rx="20" y="0" x="0" height="476" width="370" id="rect4294" style="fill:#00e5ff;fill-opacity:1"/>
    </pattern>
    <marker refX="0" refY="0" orient="auto" id="marker4288" style="overflow:visible">
      <path d="M 8.7185878,4.0337352 -2.2072895,0.01601326 8.7185884,-4.0017078 c -1.7454984,2.3720609 -1.7354408,5.6174519 -6e-7,8.035443 z" transform="matrix(1.1,0,0,1.1,1.1,0)" id="path4290" style="font-size:12px;fill-rule:evenodd;stroke-width:0.625;stroke-linejoin:round"/>
    </marker>
    <marker refX="0" refY="0" orient="auto" id="marker3341" style="overflow:visible">
      <path d="M 8.7185878,4.0337352 -2.2072895,0.01601326 8.7185884,-4.0017078 c -1.7454984,2.3720609 -1.7354408,5.6174519 -6e-7,8.035443 z" transform="matrix(1.1,0,0,1.1,1.1,0)" id="path3343" style="font-size:12px;fill-rule:evenodd;stroke-width:0.625;stroke-linejoin:round"/>
    </marker>
    <pattern patternUnits="userSpaceOnUse" width="370" height="476" patternTransform="translate(18.50938,18)" id="pattern3337">
      <rect ry="20" rx="20" y="0" x="0" height="476" width="370" id="rect3339" style="fill:#00e5ff;fill-opacity:1"/>
    </pattern>
    <pattern id="pattern3333" patternTransform="translate(18.50938,18)" height="476" width="370" patternUnits="userSpaceOnUse">
      <rect style="fill:#00e5ff;fill-opacity:1" id="rect3335" width="370" height="476" x="0" y="0" rx="20" ry="20"/>
    </pattern>
    <pattern id="pattern3329" patternTransform="translate(18.50938,18)" height="476" width="370" patternUnits="userSpaceOnUse">
      <rect style="fill:#00e5ff;fill-opacity:1" id="rect3331" width="370" height="476" x="0" y="0" rx="20" ry="20"/>
    </pattern>
    <pattern patternUnits="userSpaceOnUse" width="370" height="476" patternTransform="translate(18.50938,18)" id="pattern3325">
      <rect ry="20" rx="20" y="0" x="0" height="476" width="370" id="rect3327" style="fill:#00e5ff;fill-opacity:1"/>
    </pattern>
    <marker refX="0" refY="0" orient="auto" id="marker3321" style="overflow:visible">
      <path d="M 8.7185878,4.0337352 -2.2072895,0.01601326 8.7185884,-4.0017078 c -1.7454984,2.3720609 -1.7354408,5.6174519 -6e-7,8.035443 z" transform="matrix(1.1,0,0,1.1,1.1,0)" id="path3323" style="font-size:12px;fill-rule:evenodd;stroke-width:0.625;stroke-linejoin:round"/>
    </marker>
    <pattern id="pattern3317" patternTransform="translate(18.50938,18)" height="476" width="370" patternUnits="userSpaceOnUse">
      <rect style="fill:#00e5ff;fill-opacity:1" id="rect3319" width="370" height="476" x="0" y="0" rx="20" ry="20"/>
    </pattern>
    <marker refX="0" refY="0" orient="auto" id="marker3313" style="overflow:visible">
      <path d="M 8.7185878,4.0337352 -2.2072895,0.01601326 8.7185884,-4.0017078 c -1.7454984,2.3720609 -1.7354408,5.6174519 -6e-7,8.035443 z" transform="matrix(1.1,0,0,1.1,1.1,0)" id="path3315" style="font-size:12px;fill-rule:evenodd;stroke-width:0.625;stroke-linejoin:round"/>
    </marker>
    <pattern patternUnits="userSpaceOnUse" width="370" height="476" patternTransform="translate(18.50938,18)" id="pattern3309">
      <rect ry="20" rx="20" y="0" x="0" height="476" width="370" id="rect3311" style="fill:#00e5ff;fill-opacity:1"/>
    </pattern>
    <pattern id="pattern3305" patternTransform="translate(18.50938,18)" height="476" width="370" patternUnits="userSpaceOnUse">
      <rect style="fill:#00e5ff;fill-opacity:1" id="rect3307" width="370" height="476" x="0" y="0" rx="20" ry="20"/>
    </pattern>
    <pattern id="pattern3301" patternTransform="translate(18.50938,18)" height="476" width="370" patternUnits="userSpaceOnUse">
      <rect style="fill:#00e5ff;fill-opacity:1" id="rect3303" width="370" height="476" x="0" y="0" rx="20" ry="20"/>
    </pattern>
    <pattern patternUnits="userSpaceOnUse" width="370" height="476" patternTransform="translate(18.50938,18)" id="pattern3297">
      <rect ry="20" rx="20" y="0" x="0" height="476" width="370" id="rect3299" style="fill:#00e5ff;fill-opacity:1"/>
    </pattern>
    <marker refX="0" refY="0" orient="auto" id="marker3293" style="overflow:visible">
      <path d="M 8.7185878,4.0337352 -2.2072895,0.01601326 8.7185884,-4.0017078 c -1.7454984,2.3720609 -1.7354408,5.6174519 -6e-7,8.035443 z" transform="matrix(1.1,0,0,1.1,1.1,0)" id="path3295" style="font-size:12px;fill-rule:evenodd;stroke-width:0.625;stroke-linejoin:round"/>
    </marker>
    <pattern id="pattern3289" patternTransform="translate(18.50938,18)" height="476" width="370" patternUnits="userSpaceOnUse">
      <rect style="fill:#00e5ff;fill-opacity:1" id="rect3291" width="370" height="476" x="0" y="0" rx="20" ry="20"/>
    </pattern>
    <pattern patternUnits="userSpaceOnUse" width="370" height="476" patternTransform="translate(18.50938,18)" id="pattern3285">
      <rect ry="20" rx="20" y="0" x="0" height="476" width="370" id="rect3287" style="fill:#00e5ff;fill-opacity:1"/>
    </pattern>
    <marker refX="0" refY="0" orient="auto" id="marker3281" style="overflow:visible">
      <path d="M 8.7185878,4.0337352 -2.2072895,0.01601326 8.7185884,-4.0017078 c -1.7454984,2.3720609 -1.7354408,5.6174519 -6e-7,8.035443 z" transform="matrix(1.1,0,0,1.1,1.1,0)" id="path3283" style="font-size:12px;fill-rule:evenodd;stroke-width:0.625;stroke-linejoin:round"/>
    </marker>
    <marker refX="0" refY="0" orient="auto" id="marker5662" style="overflow:visible">
      <path d="M 8.7185878,4.0337352 -2.2072895,0.01601326 8.7185884,-4.0017078 c -1.7454984,2.3720609 -1.7354408,5.6174519 -6e-7,8.035443 z" transform="matrix(1.1,0,0,1.1,1.1,0)" id="path5664" style="font-size:12px;fill-rule:evenodd;stroke-width:0.625;stroke-linejoin:round"/>
    </marker>
    <pattern id="pattern5658" patternTransform="translate(18.50938,18)" height="476" width="370" patternUnits="userSpaceOnUse">
      <rect style="fill:#00e5ff;fill-opacity:1" id="rect5660" width="370" height="476" x="0" y="0" rx="20" ry="20"/>
    </pattern>
    <pattern patternUnits="userSpaceOnUse" width="370" height="476" patternTransform="translate(18.50938,18)" id="pattern5654">
      <rect ry="20" rx="20" y="0" x="0" height="476" width="370" id="rect5656" style="fill:#00e5ff;fill-opacity:1"/>
    </pattern>
    <marker refX="0" refY="0" orient="auto" id="marker5650" style="overflow:visible">
      <path d="M 8.7185878,4.0337352 -2.2072895,0.01601326 8.7185884,-4.0017078 c -1.7454984,2.3720609 -1.7354408,5.6174519 -6e-7,8.035443 z" transform="matrix(1.1,0,0,1.1,1.1,0)" id="path5652" style="font-size:12px;fill-rule:evenodd;stroke-width:0.625;stroke-linejoin:round"/>
    </marker>
    <pattern id="pattern5646" patternTransform="translate(18.50938,18)" height="476" width="370" patternUnits="userSpaceOnUse">
      <rect style="fill:#00e5ff;fill-opacity:1" id="rect5648" width="370" height="476" x="0" y="0" rx="20" ry="20"/>
    </pattern>
    <pattern patternUnits="userSpaceOnUse" width="370" height="476" patternTransform="translate(18.50938,18)" id="pattern5642">
      <rect ry="20" rx="20" y="0" x="0" height="476" width="370" id="rect5644" style="fill:#00e5ff;fill-opacity:1"/>
    </pattern>
    <pattern patternUnits="userSpaceOnUse" width="370" height="476" patternTransform="translate(18.50938,18)" id="pattern5638">
      <rect ry="20" rx="20" y="0" x="0" height="476" width="370" id="rect5640" style="fill:#00e5ff;fill-opacity:1"/>
    </pattern>
    <pattern id="pattern5634" patternTransform="translate(18.50938,18)" height="476" width="370" patternUnits="userSpaceOnUse">
      <rect style="fill:#00e5ff;fill-opacity:1" id="rect5636" width="370" height="476" x="0" y="0" rx="20" ry="20"/>
    </pattern>
    <marker refX="0" refY="0" orient="auto" id="marker5630" style="overflow:visible">
      <path d="M 8.7185878,4.0337352 -2.2072895,0.01601326 8.7185884,-4.0017078 c -1.7454984,2.3720609 -1.7354408,5.6174519 -6e-7,8.035443 z" transform="matrix(1.1,0,0,1.1,1.1,0)" id="path5632" style="font-size:12px;fill-rule:evenodd;stroke-width:0.625;stroke-linejoin:round"/>
    </marker>
    <pattern patternUnits="userSpaceOnUse" width="370" height="476" patternTransform="translate(18.50938,18)" id="pattern5626">
      <rect ry="20" rx="20" y="0" x="0" height="476" width="370" id="rect5628" style="fill:#00e5ff;fill-opacity:1"/>
    </pattern>
    <marker refX="0" refY="0" orient="auto" id="marker5622" style="overflow:visible">
      <path d="M 8.7185878,4.0337352 -2.2072895,0.01601326 8.7185884,-4.0017078 c -1.7454984,2.3720609 -1.7354408,5.6174519 -6e-7,8.035443 z" transform="matrix(1.1,0,0,1.1,1.1,0)" id="path5624" style="font-size:12px;fill-rule:evenodd;stroke-width:0.625;stroke-linejoin:round"/>
    </marker>
    <pattern id="pattern5618" patternTransform="translate(18.50938,18)" height="476" width="370" patternUnits="userSpaceOnUse">
      <rect style="fill:#00e5ff;fill-opacity:1" id="rect5620" width="370" height="476" x="0" y="0" rx="20" ry="20"/>
    </pattern>
    <pattern patternUnits="userSpaceOnUse" width="370" height="476" patternTransform="translate(18.50938,18)" id="pattern5614">
      <rect ry="20" rx="20" y="0" x="0" height="476" width="370" id="rect5616" style="fill:#00e5ff;fill-opacity:1"/>
    </pattern>
    <pattern patternUnits="userSpaceOnUse" width="370" height="476" patternTransform="translate(18.50938,18)" id="pattern5610">
      <rect ry="20" rx="20" y="0" x="0" height="476" width="370" id="rect5612" style="fill:#00e5ff;fill-opacity:1"/>
    </pattern>
    <pattern id="pattern5606" patternTransform="translate(18.50938,18)" height="476" width="370" patternUnits="userSpaceOnUse">
      <rect style="fill:#00e5ff;fill-opacity:1" id="rect5608" width="370" height="476" x="0" y="0" rx="20" ry="20"/>
    </pattern>
    <marker refX="0" refY="0" orient="auto" id="marker5602" style="overflow:visible">
      <path d="M 8.7185878,4.0337352 -2.2072895,0.01601326 8.7185884,-4.0017078 c -1.7454984,2.3720609 -1.7354408,5.6174519 -6e-7,8.035443 z" transform="matrix(1.1,0,0,1.1,1.1,0)" id="path5604" style="font-size:12px;fill-rule:evenodd;stroke-width:0.625;stroke-linejoin:round"/>
    </marker>
    <marker refX="0" refY="0" orient="auto" id="marker5596" style="overflow:visible">
      <path d="M 8.7185878,4.0337352 -2.2072895,0.01601326 8.7185884,-4.0017078 c -1.7454984,2.3720609 -1.7354408,5.6174519 -6e-7,8.035443 z" transform="matrix(1.1,0,0,1.1,1.1,0)" id="path5598" style="font-size:12px;fill-rule:evenodd;stroke-width:0.625;stroke-linejoin:round"/>
    </marker>
    <pattern id="pattern5592" patternTransform="translate(18.50938,18)" height="476" width="370" patternUnits="userSpaceOnUse">
      <rect style="fill:#00e5ff;fill-opacity:1" id="rect5594" width="370" height="476" x="0" y="0" rx="20" ry="20"/>
    </pattern>
    <pattern patternUnits="userSpaceOnUse" width="370" height="476" patternTransform="translate(18.50938,18)" id="pattern5588">
      <rect ry="20" rx="20" y="0" x="0" height="476" width="370" id="rect5590" style="fill:#00e5ff;fill-opacity:1"/>
    </pattern>
    <marker refX="0" refY="0" orient="auto" id="marker5584" style="overflow:visible">
      <path d="M 8.7185878,4.0337352 -2.2072895,0.01601326 8.7185884,-4.0017078 c -1.7454984,2.3720609 -1.7354408,5.6174519 -6e-7,8.035443 z" transform="matrix(1.1,0,0,1.1,1.1,0)" id="path5586" style="font-size:12px;fill-rule:evenodd;stroke-width:0.625;stroke-linejoin:round"/>
    </marker>
    <pattern id="pattern5580" patternTransform="translate(18.50938,18)" height="476" width="370" patternUnits="userSpaceOnUse">
      <rect style="fill:#00e5ff;fill-opacity:1" id="rect5582" width="370" height="476" x="0" y="0" rx="20" ry="20"/>
    </pattern>
    <pattern patternUnits="userSpaceOnUse" width="370" height="476" patternTransform="translate(18.50938,18)" id="pattern5576">
      <rect ry="20" rx="20" y="0" x="0" height="476" width="370" id="rect5578" style="fill:#00e5ff;fill-opacity:1"/>
    </pattern>
    <pattern patternUnits="userSpaceOnUse" width="370" height="476" patternTransform="translate(18.50938,18)" id="pattern5572">
      <rect ry="20" rx="20" y="0" x="0" height="476" width="370" id="rect5574" style="fill:#00e5ff;fill-opacity:1"/>
    </pattern>
    <pattern id="pattern5568" patternTransform="translate(18.50938,18)" height="476" width="370" patternUnits="userSpaceOnUse">
      <rect style="fill:#00e5ff;fill-opacity:1" id="rect5570" width="370" height="476" x="0" y="0" rx="20" ry="20"/>
    </pattern>
    <marker refX="0" refY="0" orient="auto" id="marker5564" style="overflow:visible">
      <path d="M 8.7185878,4.0337352 -2.2072895,0.01601326 8.7185884,-4.0017078 c -1.7454984,2.3720609 -1.7354408,5.6174519 -6e-7,8.035443 z" transform="matrix(1.1,0,0,1.1,1.1,0)" id="path5566" style="font-size:12px;fill-rule:evenodd;stroke-width:0.625;stroke-linejoin:round"/>
    </marker>
    <pattern patternUnits="userSpaceOnUse" width="370" height="476" patternTransform="translate(18.50938,18)" id="pattern5560">
      <rect ry="20" rx="20" y="0" x="0" height="476" width="370" id="rect5562" style="fill:#00e5ff;fill-opacity:1"/>
    </pattern>
    <marker refX="0" refY="0" orient="auto" id="marker5556" style="overflow:visible">
      <path d="M 8.7185878,4.0337352 -2.2072895,0.01601326 8.7185884,-4.0017078 c -1.7454984,2.3720609 -1.7354408,5.6174519 -6e-7,8.035443 z" transform="matrix(1.1,0,0,1.1,1.1,0)" id="path5558" style="font-size:12px;fill-rule:evenodd;stroke-width:0.625;stroke-linejoin:round"/>
    </marker>
    <pattern id="pattern5552" patternTransform="translate(18.50938,18)" height="476" width="370" patternUnits="userSpaceOnUse">
      <rect style="fill:#00e5ff;fill-opacity:1" id="rect5554" width="370" height="476" x="0" y="0" rx="20" ry="20"/>
    </pattern>
    <pattern patternUnits="userSpaceOnUse" width="370" height="476" patternTransform="translate(18.50938,18)" id="pattern5548">
      <rect ry="20" rx="20" y="0" x="0" height="476" width="370" id="rect5550" style="fill:#00e5ff;fill-opacity:1"/>
    </pattern>
    <pattern patternUnits="userSpaceOnUse" width="370" height="476" patternTransform="translate(18.50938,18)" id="pattern5544">
      <rect ry="20" rx="20" y="0" x="0" height="476" width="370" id="rect5546" style="fill:#00e5ff;fill-opacity:1"/>
    </pattern>
    <pattern id="pattern5540" patternTransform="translate(18.50938,18)" height="476" width="370" patternUnits="userSpaceOnUse">
      <rect style="fill:#00e5ff;fill-opacity:1" id="rect5542" width="370" height="476" x="0" y="0" rx="20" ry="20"/>
    </pattern>
    <marker refX="0" refY="0" orient="auto" id="marker5536" style="overflow:visible">
      <path d="M 8.7185878,4.0337352 -2.2072895,0.01601326 8.7185884,-4.0017078 c -1.7454984,2.3720609 -1.7354408,5.6174519 -6e-7,8.035443 z" transform="matrix(1.1,0,0,1.1,1.1,0)" id="path5538" style="font-size:12px;fill-rule:evenodd;stroke-width:0.625;stroke-linejoin:round"/>
    </marker>
    <marker refX="0" refY="0" orient="auto" id="marker8002" style="overflow:visible">
      <path d="M 8.7185878,4.0337352 -2.2072895,0.01601326 8.7185884,-4.0017078 c -1.7454984,2.3720609 -1.7354408,5.6174519 -6e-7,8.035443 z" transform="matrix(1.1,0,0,1.1,1.1,0)" id="path8004" style="font-size:12px;fill-rule:evenodd;stroke-width:0.625;stroke-linejoin:round"/>
    </marker>
    <pattern patternUnits="userSpaceOnUse" width="370" height="476" patternTransform="translate(18.50938,18)" id="pattern7998">
      <rect ry="20" rx="20" y="0" x="0" height="476" width="370" id="rect8000" style="fill:#00e5ff;fill-opacity:1"/>
    </pattern>
    <pattern id="pattern7994" patternTransform="translate(18.50938,18)" height="476" width="370" patternUnits="userSpaceOnUse">
      <rect style="fill:#00e5ff;fill-opacity:1" id="rect7996" width="370" height="476" x="0" y="0" rx="20" ry="20"/>
    </pattern>
    <pattern id="pattern7990" patternTransform="translate(18.50938,18)" height="476" width="370" patternUnits="userSpaceOnUse">
      <rect style="fill:#00e5ff;fill-opacity:1" id="rect7992" width="370" height="476" x="0" y="0" rx="20" ry="20"/>
    </pattern>
    <pattern patternUnits="userSpaceOnUse" width="370" height="476" patternTransform="translate(18.50938,18)" id="pattern7986">
      <rect ry="20" rx="20" y="0" x="0" height="476" width="370" id="rect7988" style="fill:#00e5ff;fill-opacity:1"/>
    </pattern>
    <marker refX="0" refY="0" orient="auto" id="marker7982" style="overflow:visible">
      <path d="M 8.7185878,4.0337352 -2.2072895,0.01601326 8.7185884,-4.0017078 c -1.7454984,2.3720609 -1.7354408,5.6174519 -6e-7,8.035443 z" transform="matrix(1.1,0,0,1.1,1.1,0)" id="path7984" style="font-size:12px;fill-rule:evenodd;stroke-width:0.625;stroke-linejoin:round"/>
    </marker>
    <pattern id="pattern7978" patternTransform="translate(18.50938,18)" height="476" width="370" patternUnits="userSpaceOnUse">
      <rect style="fill:#00e5ff;fill-opacity:1" id="rect7980" width="370" height="476" x="0" y="0" rx="20" ry="20"/>
    </pattern>
    <marker refX="0" refY="0" orient="auto" id="marker7974" style="overflow:visible">
      <path d="M 8.7185878,4.0337352 -2.2072895,0.01601326 8.7185884,-4.0017078 c -1.7454984,2.3720609 -1.7354408,5.6174519 -6e-7,8.035443 z" transform="matrix(1.1,0,0,1.1,1.1,0)" id="path7976" style="font-size:12px;fill-rule:evenodd;stroke-width:0.625;stroke-linejoin:round"/>
    </marker>
    <pattern patternUnits="userSpaceOnUse" width="370" height="476" patternTransform="translate(18.50938,18)" id="pattern7970">
      <rect ry="20" rx="20" y="0" x="0" height="476" width="370" id="rect7972" style="fill:#00e5ff;fill-opacity:1"/>
    </pattern>
    <pattern id="pattern7966" patternTransform="translate(18.50938,18)" height="476" width="370" patternUnits="userSpaceOnUse">
      <rect style="fill:#00e5ff;fill-opacity:1" id="rect7968" width="370" height="476" x="0" y="0" rx="20" ry="20"/>
    </pattern>
    <pattern id="pattern7962" patternTransform="translate(18.50938,18)" height="476" width="370" patternUnits="userSpaceOnUse">
      <rect style="fill:#00e5ff;fill-opacity:1" id="rect7964" width="370" height="476" x="0" y="0" rx="20" ry="20"/>
    </pattern>
    <pattern patternUnits="userSpaceOnUse" width="370" height="476" patternTransform="translate(18.50938,18)" id="pattern7958">
      <rect ry="20" rx="20" y="0" x="0" height="476" width="370" id="rect7960" style="fill:#00e5ff;fill-opacity:1"/>
    </pattern>
    <marker refX="0" refY="0" orient="auto" id="marker7954" style="overflow:visible">
      <path d="M 8.7185878,4.0337352 -2.2072895,0.01601326 8.7185884,-4.0017078 c -1.7454984,2.3720609 -1.7354408,5.6174519 -6e-7,8.035443 z" transform="matrix(1.1,0,0,1.1,1.1,0)" id="path7956" style="font-size:12px;fill-rule:evenodd;stroke-width:0.625;stroke-linejoin:round"/>
    </marker>
    <pattern id="pattern7950" patternTransform="translate(18.50938,18)" height="476" width="370" patternUnits="userSpaceOnUse">
      <rect style="fill:#00e5ff;fill-opacity:1" id="rect7952" width="370" height="476" x="0" y="0" rx="20" ry="20"/>
    </pattern>
    <pattern patternUnits="userSpaceOnUse" width="370" height="476" patternTransform="translate(18.50938,18)" id="pattern7946">
      <rect ry="20" rx="20" y="0" x="0" height="476" width="370" id="rect7948" style="fill:#00e5ff;fill-opacity:1"/>
    </pattern>
    <marker refX="0" refY="0" orient="auto" id="marker7942" style="overflow:visible">
      <path d="M 8.7185878,4.0337352 -2.2072895,0.01601326 8.7185884,-4.0017078 c -1.7454984,2.3720609 -1.7354408,5.6174519 -6e-7,8.035443 z" transform="matrix(1.1,0,0,1.1,1.1,0)" id="path7944" style="font-size:12px;fill-rule:evenodd;stroke-width:0.625;stroke-linejoin:round"/>
    </marker>
    <marker refX="0" refY="0" orient="auto" id="marker7936" style="overflow:visible">
      <path d="M 8.7185878,4.0337352 -2.2072895,0.01601326 8.7185884,-4.0017078 c -1.7454984,2.3720609 -1.7354408,5.6174519 -6e-7,8.035443 z" transform="matrix(1.1,0,0,1.1,1.1,0)" id="path7938" style="font-size:12px;fill-rule:evenodd;stroke-width:0.625;stroke-linejoin:round"/>
    </marker>
    <pattern patternUnits="userSpaceOnUse" width="370" height="476" patternTransform="translate(18.50938,18)" id="pattern7932">
      <rect ry="20" rx="20" y="0" x="0" height="476" width="370" id="rect7934" style="fill:#00e5ff;fill-opacity:1"/>
    </pattern>
    <pattern id="pattern7928" patternTransform="translate(18.50938,18)" height="476" width="370" patternUnits="userSpaceOnUse">
      <rect style="fill:#00e5ff;fill-opacity:1" id="rect7930" width="370" height="476" x="0" y="0" rx="20" ry="20"/>
    </pattern>
    <pattern id="pattern7924" patternTransform="translate(18.50938,18)" height="476" width="370" patternUnits="userSpaceOnUse">
      <rect style="fill:#00e5ff;fill-opacity:1" id="rect7926" width="370" height="476" x="0" y="0" rx="20" ry="20"/>
    </pattern>
    <pattern patternUnits="userSpaceOnUse" width="370" height="476" patternTransform="translate(18.50938,18)" id="pattern7920">
      <rect ry="20" rx="20" y="0" x="0" height="476" width="370" id="rect7922" style="fill:#00e5ff;fill-opacity:1"/>
    </pattern>
    <marker refX="0" refY="0" orient="auto" id="marker7916" style="overflow:visible">
      <path d="M 8.7185878,4.0337352 -2.2072895,0.01601326 8.7185884,-4.0017078 c -1.7454984,2.3720609 -1.7354408,5.6174519 -6e-7,8.035443 z" transform="matrix(1.1,0,0,1.1,1.1,0)" id="path7918" style="font-size:12px;fill-rule:evenodd;stroke-width:0.625;stroke-linejoin:round"/>
    </marker>
    <pattern id="pattern7912" patternTransform="translate(18.50938,18)" height="476" width="370" patternUnits="userSpaceOnUse">
      <rect style="fill:#00e5ff;fill-opacity:1" id="rect7914" width="370" height="476" x="0" y="0" rx="20" ry="20"/>
    </pattern>
    <marker refX="0" refY="0" orient="auto" id="marker7908" style="overflow:visible">
      <path d="M 8.7185878,4.0337352 -2.2072895,0.01601326 8.7185884,-4.0017078 c -1.7454984,2.3720609 -1.7354408,5.6174519 -6e-7,8.035443 z" transform="matrix(1.1,0,0,1.1,1.1,0)" id="path7910" style="font-size:12px;fill-rule:evenodd;stroke-width:0.625;stroke-linejoin:round"/>
    </marker>
    <pattern patternUnits="userSpaceOnUse" width="370" height="476" patternTransform="translate(18.50938,18)" id="pattern7904">
      <rect ry="20" rx="20" y="0" x="0" height="476" width="370" id="rect7906" style="fill:#00e5ff;fill-opacity:1"/>
    </pattern>
    <pattern id="pattern7900" patternTransform="translate(18.50938,18)" height="476" width="370" patternUnits="userSpaceOnUse">
      <rect style="fill:#00e5ff;fill-opacity:1" id="rect7902" width="370" height="476" x="0" y="0" rx="20" ry="20"/>
    </pattern>
    <pattern id="pattern7896" patternTransform="translate(18.50938,18)" height="476" width="370" patternUnits="userSpaceOnUse">
      <rect style="fill:#00e5ff;fill-opacity:1" id="rect7898" width="370" height="476" x="0" y="0" rx="20" ry="20"/>
    </pattern>
    <pattern patternUnits="userSpaceOnUse" width="370" height="476" patternTransform="translate(18.50938,18)" id="pattern7892">
      <rect ry="20" rx="20" y="0" x="0" height="476" width="370" id="rect7894" style="fill:#00e5ff;fill-opacity:1"/>
    </pattern>
    <marker refX="0" refY="0" orient="auto" id="marker7888" style="overflow:visible">
      <path d="M 8.7185878,4.0337352 -2.2072895,0.01601326 8.7185884,-4.0017078 c -1.7454984,2.3720609 -1.7354408,5.6174519 -6e-7,8.035443 z" transform="matrix(1.1,0,0,1.1,1.1,0)" id="path7890" style="font-size:12px;fill-rule:evenodd;stroke-width:0.625;stroke-linejoin:round"/>
    </marker>
    <pattern id="pattern7884" patternTransform="translate(18.50938,18)" height="476" width="370" patternUnits="userSpaceOnUse">
      <rect style="fill:#00e5ff;fill-opacity:1" id="rect7886" width="370" height="476" x="0" y="0" rx="20" ry="20"/>
    </pattern>
    <pattern patternUnits="userSpaceOnUse" width="370" height="476" patternTransform="translate(18.50938,18)" id="pattern7880">
      <rect ry="20" rx="20" y="0" x="0" height="476" width="370" id="rect7882" style="fill:#00e5ff;fill-opacity:1"/>
    </pattern>
    <marker refX="0" refY="0" orient="auto" id="marker7876" style="overflow:visible">
      <path d="M 8.7185878,4.0337352 -2.2072895,0.01601326 8.7185884,-4.0017078 c -1.7454984,2.3720609 -1.7354408,5.6174519 -6e-7,8.035443 z" transform="matrix(1.1,0,0,1.1,1.1,0)" id="path7878" style="font-size:12px;fill-rule:evenodd;stroke-width:0.625;stroke-linejoin:round"/>
    </marker>
    <marker refX="0" refY="0" orient="auto" id="marker7854" style="overflow:visible">
      <path d="M 8.7185878,4.0337352 -2.2072895,0.01601326 8.7185884,-4.0017078 c -1.7454984,2.3720609 -1.7354408,5.6174519 -6e-7,8.035443 z" transform="matrix(1.1,0,0,1.1,1.1,0)" id="path7856" style="font-size:12px;fill-rule:evenodd;stroke-width:0.625;stroke-linejoin:round"/>
    </marker>
    <pattern id="pattern7850" patternTransform="translate(18.50938,18)" height="476" width="370" patternUnits="userSpaceOnUse">
      <rect style="fill:#00e5ff;fill-opacity:1" id="rect7852" width="370" height="476" x="0" y="0" rx="20" ry="20"/>
    </pattern>
    <pattern patternUnits="userSpaceOnUse" width="370" height="476" patternTransform="translate(18.50938,18)" id="pattern7846">
      <rect ry="20" rx="20" y="0" x="0" height="476" width="370" id="rect7848" style="fill:#00e5ff;fill-opacity:1"/>
    </pattern>
    <marker refX="0" refY="0" orient="auto" id="marker7842" style="overflow:visible">
      <path d="M 8.7185878,4.0337352 -2.2072895,0.01601326 8.7185884,-4.0017078 c -1.7454984,2.3720609 -1.7354408,5.6174519 -6e-7,8.035443 z" transform="matrix(1.1,0,0,1.1,1.1,0)" id="path7844" style="font-size:12px;fill-rule:evenodd;stroke-width:0.625;stroke-linejoin:round"/>
    </marker>
    <pattern id="pattern7838" patternTransform="translate(18.50938,18)" height="476" width="370" patternUnits="userSpaceOnUse">
      <rect style="fill:#00e5ff;fill-opacity:1" id="rect7840" width="370" height="476" x="0" y="0" rx="20" ry="20"/>
    </pattern>
    <pattern patternUnits="userSpaceOnUse" width="370" height="476" patternTransform="translate(18.50938,18)" id="pattern7834">
      <rect ry="20" rx="20" y="0" x="0" height="476" width="370" id="rect7836" style="fill:#00e5ff;fill-opacity:1"/>
    </pattern>
    <pattern patternUnits="userSpaceOnUse" width="370" height="476" patternTransform="translate(18.50938,18)" id="pattern7830">
      <rect ry="20" rx="20" y="0" x="0" height="476" width="370" id="rect7832" style="fill:#00e5ff;fill-opacity:1"/>
    </pattern>
    <pattern id="pattern7826" patternTransform="translate(18.50938,18)" height="476" width="370" patternUnits="userSpaceOnUse">
      <rect style="fill:#00e5ff;fill-opacity:1" id="rect7828" width="370" height="476" x="0" y="0" rx="20" ry="20"/>
    </pattern>
    <marker refX="0" refY="0" orient="auto" id="marker7822" style="overflow:visible">
      <path d="M 8.7185878,4.0337352 -2.2072895,0.01601326 8.7185884,-4.0017078 c -1.7454984,2.3720609 -1.7354408,5.6174519 -6e-7,8.035443 z" transform="matrix(1.1,0,0,1.1,1.1,0)" id="path7824" style="font-size:12px;fill-rule:evenodd;stroke-width:0.625;stroke-linejoin:round"/>
    </marker>
    <pattern patternUnits="userSpaceOnUse" width="370" height="476" patternTransform="translate(18.50938,18)" id="pattern7818">
      <rect ry="20" rx="20" y="0" x="0" height="476" width="370" id="rect7820" style="fill:#00e5ff;fill-opacity:1"/>
    </pattern>
    <marker refX="0" refY="0" orient="auto" id="marker7814" style="overflow:visible">
      <path d="M 8.7185878,4.0337352 -2.2072895,0.01601326 8.7185884,-4.0017078 c -1.7454984,2.3720609 -1.7354408,5.6174519 -6e-7,8.035443 z" transform="matrix(1.1,0,0,1.1,1.1,0)" id="path7816" style="font-size:12px;fill-rule:evenodd;stroke-width:0.625;stroke-linejoin:round"/>
    </marker>
    <pattern id="pattern7810" patternTransform="translate(18.50938,18)" height="476" width="370" patternUnits="userSpaceOnUse">
      <rect style="fill:#00e5ff;fill-opacity:1" id="rect7812" width="370" height="476" x="0" y="0" rx="20" ry="20"/>
    </pattern>
    <pattern patternUnits="userSpaceOnUse" width="370" height="476" patternTransform="translate(18.50938,18)" id="pattern7806">
      <rect ry="20" rx="20" y="0" x="0" height="476" width="370" id="rect7808" style="fill:#00e5ff;fill-opacity:1"/>
    </pattern>
    <pattern patternUnits="userSpaceOnUse" width="370" height="476" patternTransform="translate(18.50938,18)" id="pattern7802">
      <rect ry="20" rx="20" y="0" x="0" height="476" width="370" id="rect7804" style="fill:#00e5ff;fill-opacity:1"/>
    </pattern>
    <pattern id="pattern7798" patternTransform="translate(18.50938,18)" height="476" width="370" patternUnits="userSpaceOnUse">
      <rect style="fill:#00e5ff;fill-opacity:1" id="rect7800" width="370" height="476" x="0" y="0" rx="20" ry="20"/>
    </pattern>
    <marker refX="0" refY="0" orient="auto" id="marker7794" style="overflow:visible">
      <path d="M 8.7185878,4.0337352 -2.2072895,0.01601326 8.7185884,-4.0017078 c -1.7454984,2.3720609 -1.7354408,5.6174519 -6e-7,8.035443 z" transform="matrix(1.1,0,0,1.1,1.1,0)" id="path7796" style="font-size:12px;fill-rule:evenodd;stroke-width:0.625;stroke-linejoin:round"/>
    </marker>
    <marker refX="0" refY="0" orient="auto" id="marker7788" style="overflow:visible">
      <path d="M 8.7185878,4.0337352 -2.2072895,0.01601326 8.7185884,-4.0017078 c -1.7454984,2.3720609 -1.7354408,5.6174519 -6e-7,8.035443 z" transform="matrix(1.1,0,0,1.1,1.1,0)" id="path7790" style="font-size:12px;fill-rule:evenodd;stroke-width:0.625;stroke-linejoin:round"/>
    </marker>
    <pattern id="pattern7784" patternTransform="translate(18.50938,18)" height="476" width="370" patternUnits="userSpaceOnUse">
      <rect style="fill:#00e5ff;fill-opacity:1" id="rect7786" width="370" height="476" x="0" y="0" rx="20" ry="20"/>
    </pattern>
    <pattern patternUnits="userSpaceOnUse" width="370" height="476" patternTransform="translate(18.50938,18)" id="pattern7780">
      <rect ry="20" rx="20" y="0" x="0" height="476" width="370" id="rect7782" style="fill:#00e5ff;fill-opacity:1"/>
    </pattern>
    <marker refX="0" refY="0" orient="auto" id="marker7776" style="overflow:visible">
      <path d="M 8.7185878,4.0337352 -2.2072895,0.01601326 8.7185884,-4.0017078 c -1.7454984,2.3720609 -1.7354408,5.6174519 -6e-7,8.035443 z" transform="matrix(1.1,0,0,1.1,1.1,0)" id="path7778" style="font-size:12px;fill-rule:evenodd;stroke-width:0.625;stroke-linejoin:round"/>
    </marker>
    <pattern id="pattern7772" patternTransform="translate(18.50938,18)" height="476" width="370" patternUnits="userSpaceOnUse">
      <rect style="fill:#00e5ff;fill-opacity:1" id="rect7774" width="370" height="476" x="0" y="0" rx="20" ry="20"/>
    </pattern>
    <pattern patternUnits="userSpaceOnUse" width="370" height="476" patternTransform="translate(18.50938,18)" id="pattern7768">
      <rect ry="20" rx="20" y="0" x="0" height="476" width="370" id="rect7770" style="fill:#00e5ff;fill-opacity:1"/>
    </pattern>
    <pattern patternUnits="userSpaceOnUse" width="370" height="476" patternTransform="translate(18.50938,18)" id="pattern7764">
      <rect ry="20" rx="20" y="0" x="0" height="476" width="370" id="rect7766" style="fill:#00e5ff;fill-opacity:1"/>
    </pattern>
    <pattern id="pattern7760" patternTransform="translate(18.50938,18)" height="476" width="370" patternUnits="userSpaceOnUse">
      <rect style="fill:#00e5ff;fill-opacity:1" id="rect7762" width="370" height="476" x="0" y="0" rx="20" ry="20"/>
    </pattern>
    <marker refX="0" refY="0" orient="auto" id="marker7756" style="overflow:visible">
      <path d="M 8.7185878,4.0337352 -2.2072895,0.01601326 8.7185884,-4.0017078 c -1.7454984,2.3720609 -1.7354408,5.6174519 -6e-7,8.035443 z" transform="matrix(1.1,0,0,1.1,1.1,0)" id="path7758" style="font-size:12px;fill-rule:evenodd;stroke-width:0.625;stroke-linejoin:round"/>
    </marker>
    <pattern patternUnits="userSpaceOnUse" width="370" height="476" patternTransform="translate(18.50938,18)" id="pattern7752">
      <rect ry="20" rx="20" y="0" x="0" height="476" width="370" id="rect7754" style="fill:#00e5ff;fill-opacity:1"/>
    </pattern>
    <marker refX="0" refY="0" orient="auto" id="marker7748" style="overflow:visible">
      <path d="M 8.7185878,4.0337352 -2.2072895,0.01601326 8.7185884,-4.0017078 c -1.7454984,2.3720609 -1.7354408,5.6174519 -6e-7,8.035443 z" transform="matrix(1.1,0,0,1.1,1.1,0)" id="path7750" style="font-size:12px;fill-rule:evenodd;stroke-width:0.625;stroke-linejoin:round"/>
    </marker>
    <pattern id="pattern7744" patternTransform="translate(18.50938,18)" height="476" width="370" patternUnits="userSpaceOnUse">
      <rect style="fill:#00e5ff;fill-opacity:1" id="rect7746" width="370" height="476" x="0" y="0" rx="20" ry="20"/>
    </pattern>
    <pattern patternUnits="userSpaceOnUse" width="370" height="476" patternTransform="translate(18.50938,18)" id="pattern7740">
      <rect ry="20" rx="20" y="0" x="0" height="476" width="370" id="rect7742" style="fill:#00e5ff;fill-opacity:1"/>
    </pattern>
    <pattern patternUnits="userSpaceOnUse" width="370" height="476" patternTransform="translate(18.50938,18)" id="pattern7736">
      <rect ry="20" rx="20" y="0" x="0" height="476" width="370" id="rect7738" style="fill:#00e5ff;fill-opacity:1"/>
    </pattern>
    <pattern id="pattern7732" patternTransform="translate(18.50938,18)" height="476" width="370" patternUnits="userSpaceOnUse">
      <rect style="fill:#00e5ff;fill-opacity:1" id="rect7734" width="370" height="476" x="0" y="0" rx="20" ry="20"/>
    </pattern>
    <marker refX="0" refY="0" orient="auto" id="marker7728" style="overflow:visible">
      <path d="M 8.7185878,4.0337352 -2.2072895,0.01601326 8.7185884,-4.0017078 c -1.7454984,2.3720609 -1.7354408,5.6174519 -6e-7,8.035443 z" transform="matrix(1.1,0,0,1.1,1.1,0)" id="path7730" style="font-size:12px;fill-rule:evenodd;stroke-width:0.625;stroke-linejoin:round"/>
    </marker>
    <pattern patternUnits="userSpaceOnUse" width="370" height="476" patternTransform="translate(18.50938,18)" id="pattern4002">
      <rect ry="20" rx="20" y="0" x="0" height="476" width="370" id="rect2240" style="fill:#00e5ff;fill-opacity:1"/>
    </pattern>
    <pattern patternUnits="userSpaceOnUse" width="370" height="476" patternTransform="translate(18.50938,18)" id="pattern4002-1">
      <rect ry="20" rx="20" y="0" x="0" height="476" width="370" id="rect2240-7" style="fill:#00e5ff;fill-opacity:1"/>
    </pattern>
    <pattern id="pattern4002-4" patternTransform="translate(18.50938,18)" height="476" width="370" patternUnits="userSpaceOnUse">
      <rect style="fill:#00e5ff;fill-opacity:1" id="rect2240-2" width="370" height="476" x="0" y="0" rx="20" ry="20"/>
    </pattern>
    <pattern id="pattern4002-1-6" patternTransform="translate(18.50938,18)" height="476" width="370" patternUnits="userSpaceOnUse">
      <rect style="fill:#00e5ff;fill-opacity:1" id="rect2240-7-1" width="370" height="476" x="0" y="0" rx="20" ry="20"/>
    </pattern>
    <pattern id="pattern4002-9" patternTransform="translate(18.50938,18)" height="476" width="370" patternUnits="userSpaceOnUse">
      <rect style="fill:#00e5ff;fill-opacity:1" id="rect2240-4" width="370" height="476" x="0" y="0" rx="20" ry="20"/>
    </pattern>
  </defs>
  <g transform="translate(473.61618,58.635336)" id="layer1">
    <rect width="438.52725" height="295.87659" rx="28.437151" ry="28.437151" x="-471.56699" y="-56.586143" id="rect3702" style="fill:#ffffff;fill-opacity:1;stroke:#000000;stroke-width:4.09838581;stroke-linecap:round;stroke-linejoin:miter;stroke-miterlimit:4;stroke-opacity:1;stroke-dasharray:none"/>
    <rect width="394.45538" height="249.68498" rx="9.7807379" ry="9.7807379" x="-449.19772" y="-35.296188" id="rect3704" style="fill:#ed2224;fill-opacity:1;stroke:#ed2224;stroke-width:4.09838581;stroke-linecap:round;stroke-linejoin:miter;stroke-miterlimit:4;stroke-opacity:1;stroke-dasharray:none"/>
    <g transform="scale(1.0116934,0.98844176)" id="text3706" style="font-size:223.18130493px;font-style:normal;font-variant:normal;font-weight:bold;font-stretch:normal;text-align:start;line-height:125%;writing-mode:lr-tb;text-anchor:start;fill:#ffffff;fill-opacity:1;stroke:#ffffff;stroke-width:2.61945319;stroke-miterlimit:4;stroke-opacity:1;font-family:Drogowskaz;-inkscape-font-specification:Drogowskaz Bold">
      <path d="m -307.23291,12.372993 28.15912,0 0,98.556927 21.11934,0 -7.03978,28.15912 -14.07956,0 0,42.23869 -28.15912,0 0,-42.23869 -70.39781,0 0,-28.15912 z m 0,98.556927 0,-59.136905 -42.23869,59.136905 z" id="path5026" style="font-size:225.27297974px;fill:#ffffff;stroke:#ffffff"/>
      <path d="m -200.40562,88.758738 c 5.51352,5.394502 12.1431,8.091707 19.88875,8.091623 7.74552,8.4e-5 14.3751,-2.698266 19.88876,-8.09506 5.51348,-5.396609 8.27027,-12.084623 8.27037,-20.064063 -1e-4,-7.979214 -2.75689,-14.725663 -8.27037,-20.239369 -5.51366,-5.51344 -12.14324,-8.270226 -19.88876,-8.270367 -7.74565,1.41e-4 -14.37523,2.756927 -19.88875,8.270367 -5.51363,5.513706 -8.27041,12.260155 -8.27037,20.239369 -4e-5,7.97944 2.75674,14.6686 8.27037,20.0675 z m -19.88876,-59.838135 c 11.0317,-11.031576 24.29086,-16.547441 39.77751,-16.54761 15.48652,1.69e-4 28.74453,5.514888 39.77408,16.544172 11.02932,11.02959 16.54404,24.287601 16.54417,39.774073 -1.3e-4,10.326031 -2.58046,19.829267 -7.74101,28.509737 l -53.85707,91.166535 -32.73773,0 37.31634,-63.35803 c -15.25292,-0.23368 -28.33562,-5.80684 -39.24816,-16.71948 -10.91259,-10.912488 -16.36888,-24.112064 -16.36886,-39.598762 -2e-5,-15.486472 5.51356,-28.743337 16.54073,-39.770635 z" id="path5028" style="font-size:225.27297974px;fill:#ffffff;stroke:#ffffff"/>
    </g>
  </g>
</svg>