<?xml version="1.0" encoding="UTF-8"?>
<!-- Generator: Adobe Illustrator 15.0.0, SVG Export Plug-In . SVG Version: 6.00 Build 0)  -->
<!DOCTYPE svg PUBLIC "-//W3C//DTD SVG 1.0//EN" "http://www.w3.org/TR/2001/REC-SVG-20010904/DTD/svg10.dtd">
<svg version="1.0" id="Layer_1" xmlns="http://www.w3.org/2000/svg" xmlns:xlink="http://www.w3.org/1999/xlink" x="0px" y="0px" width="566.93px" height="566.93px" viewBox="0 0 566.93 566.93" enable-background="new 0 0 566.93 566.93" xml:space="preserve">
<g>
	<g>
		<path fill-rule="evenodd" clip-rule="evenodd" fill="#FFE609" d="M283.94,24.999c152.314,0,259.933,107.093,259.933,259.446    c0,152.374-98.631,226.628-250.945,226.628c-152.355,0-261.489-74.233-261.489-226.606    C31.438,132.112,131.585,24.999,283.94,24.999l0.011-20.534C129.536,4.465,3.953,130.09,3.953,284.445    c0,154.396,125.583,280.02,279.999,280.02S563.93,438.842,563.93,284.445c0-154.355-125.563-279.98-279.979-279.98v3.697"/>
	</g>
	<path fill-rule="evenodd" clip-rule="evenodd" fill="#0D7ABF" d="M283.938,17.388c147.446,0,267.099,119.654,267.099,267.038   c0,147.464-119.652,267.119-267.099,267.119c-147.425,0-267.095-119.655-267.095-267.119   C16.844,137.042,136.513,17.388,283.938,17.388"/>
	<path fill-rule="evenodd" clip-rule="evenodd" fill="#06A34B" d="M49.771,155.97h468.345c0,0-66.678-139.165-241.707-138.582   C276.41,17.388,131.719,11.393,49.771,155.97z"/>
	<g id="XMLID_24_">
		<g>
			<path fill="#FFE609" d="M354.196,125.035c0,4.556,0,9.111,0,13.667c-0.812,0.208-1.661,0.114-2.506,0.114     c-11.696,0-23.892,0-35.76,0c-0.807,0-1.618,0.095-2.392-0.114c-0.209-0.963-0.114-1.96-0.114-2.961c0-30.379,0-61.384,0-91.905     c0.096-0.09,0.066-0.309,0.229-0.342c13.514,0,27.028,0,40.543,0c0,4.214,0,8.428,0,12.642c-9.073,0-18.146,0-27.219,0     c0,9.338,0,18.677,0,28.016c7.934,0,15.868,0,23.802,0c0.204,1.039,0.114,2.093,0.114,3.189c0,3.032,0,6.501,0,9.68     c-0.964,0.208-2.003,0.114-2.961,0.114c-6.705,0-14.056,0-20.955,0c0,9.301,0,18.601,0,27.902     C336.051,125.035,345.123,125.035,354.196,125.035z"/>
			<path fill="#FFE609" d="M291.218,135.968c0,0.949,0.09,1.926-0.114,2.847c-3.293,0-6.771,0-10.136,0     c-1.101,0-2.14,0.09-3.188-0.114c0-31.623,0-63.245,0-94.867c-0.01-0.161-0.019-0.323,0.114-0.342c4.441,0,8.883,0,13.325,0     C291.218,74.247,291.218,105.134,291.218,135.968z"/>
		</g>
		<g>
		</g>
	</g>
	<g id="XMLID_27_">
		<g>
			<path fill="#FFFFFF" d="M259.109,518.946c-1.049-0.043-13.552,0-13.552,0s-13.173-28.566-13.571-28.586     c-0.214,0.237,0,0,0,28.586c-10.331,0.009-11.023,0.085-13.32,0.009c-0.195-1.556-0.247-97.31,0-98.861     c14.022,0,13.206,0,13.32,0c0.261,1.072-0.19,56.184,0,56.487c0.004,0.266,14.715-31.243,14.938-31.471c13.438,0,0,0,13.438,0     c0.019,0.935-18.53,37.972-18.222,38.759C242.164,483.922,259.029,518.102,259.109,518.946z"/>
			<path fill="#FFFFFF" d="M358.189,385.131c-0.133-0.033-0.052-0.043-0.114,0c-0.047,0.033-29.966,0.588-30.407,0     c0.119-0.617-0.503-178.644-0.683-180.281c-0.423-0.484-0.978-0.451-1.822-0.569c-0.095-0.014-0.247,0.038-0.342,0     c-0.09-0.038-0.161-0.327-0.228-0.342c-0.138-0.028-0.053,0.081-0.114,0.114c-0.057,0.033-0.204,0.223-0.228,0.228     c-0.707,0.19-26.958,0.005-27.219-0.228c-0.285-0.261-0.589-0.441-0.797-0.797c0.023-4.574,0.18-9.011,0.228-13.552     c1.082-0.66,59.566-15.73,60.245-15.83c0.38-0.071,0.261,0.394,0.342,0.569C357.089,174.519,357.985,374.15,358.189,385.131z"/>
			<path fill="#FFFFFF" d="M334.046,458.018c0,0.185-0.228,60.929-0.228,60.929s-9.984,0.019-14.122,0     c0.232-1.158-0.104-54.537-0.797-55.463c-0.129-0.175-0.271-0.346-0.456-0.569c-0.237-0.294-0.626-0.73-1.024-1.024     c-0.152-0.114-0.237-0.204-0.456-0.342c-0.052-0.033-0.08-0.095-0.113-0.114c-0.096-0.057-0.29-0.218-0.456-0.228     c-0.052-0.005-0.161-0.085-0.228-0.114c-0.114-0.052-0.275-0.218-0.456-0.228c-0.052-0.005-0.161-0.085-0.228-0.113     c-0.218-0.1-0.679-0.304-1.024-0.342c-1.372-0.162-2.463,0.403-3.303,1.139c-0.114,0.104-0.209,0.185-0.342,0.342     c-0.095,0.118-0.247,0.218-0.342,0.342c-0.09,0.118-0.119,0.294-0.228,0.455c-0.081,0.123-0.28,0.242-0.342,0.342     c-0.023,0.043,0.038,0.199,0,0.228c-0.01,0.01-0.104-0.014-0.114,0c-0.019,0.043,0.033,0.199,0,0.228     c-0.166,0.138-0.332,0.574-0.455,0.911c-0.071,0.199-0.152,0.418-0.229,0.684c-0.009,0.038,0.029,0.204,0,0.228     c-0.113,0.095-0.91,53.641-0.91,53.641h-12.983c0,0-0.408-50.561-0.569-52.046c-0.128-1.225-0.812-2.681-1.708-3.758     c-0.275-0.337-0.584-0.736-1.025-1.025c-0.062-0.043,0.02-0.109-0.114-0.114c-0.161-0.009-0.294-0.332-0.455-0.455     c-0.09-0.071-0.247-0.062-0.342-0.114c-0.057-0.033,0.02-0.108-0.113-0.113c-0.19-0.01-0.229-0.332-0.456-0.342     c-0.189-0.01-0.365-0.228-0.569-0.342c-1.049-0.593-3.811-0.066-4.66,0.47c-0.337,0.214-2.396,2.885-2.491,3.084     c-0.185,0.39-0.251,54.756-0.251,54.756s-13.173-0.02-13.325,0c-0.228-1.766-0.465-73.575-0.024-73.798     c0.09-0.081,13.994,0,13.994,0s0.005,6.211,0.038,7.061c0.019,0.285,2.771-7.298,10.477-7.061c0.109,0.005,6.359-0.028,6.378,0     c6.401,0,7.63,5.281,7.858,5.353c0.422,0.138,0.991-5.353,8.655-5.353c0.986,0,5.77,0.014,6.833,0     C330.516,445.067,334.046,453.514,334.046,458.018z"/>
			<path fill="#FFFFFF" d="M273.117,221.591c0.674,6.548-0.475,20.836-0.508,21.477c-1.319,25.041-49.431,108.034-49.692,108.238     c6.961,0,50.081,0,50.081,0l-0.109,34.279c0,0-83.075,0.807-84.047,0c0-9.945,0-24.333,0-34.279     c0.133,0.015,0.066-0.161,0.114-0.228c0.038-0.048,0.204-0.071,0.228-0.114c0.085-0.146,0.029-0.304,0.114-0.455     c0.038-0.062,0.109,0.014,0.114-0.114c0.009-0.146,0.18-0.143,0.228-0.228c0.085-0.147,0.029-0.304,0.114-0.456     c0.038-0.062,0.109,0.015,0.114-0.113c0.009-0.147,0.18-0.143,0.228-0.228c0.085-0.147,0.029-0.309,0.114-0.456     c0.038-0.062,0.109,0.015,0.114-0.113c0.009-0.152,0.223-0.181,0.228-0.342c0.014-0.219,52.416-88.313,51.889-107.451     c0-0.057-0.74-25.99-0.754-26.023c-0.152-0.37-2.435-6.002-8.803-6.002c-1.238,0-4.845-0.797-9.016,3.412     c-4.252,4.29-3.137,21.041-3.137,21.041s-30.54,1.148-31.888,0c0-8.769,0-17.652,0-26.421c0.038,0,0.076,0,0.114,0     c0.005-1.855,0.228-3.929,0.456-5.353c0.052-0.323,0.095-0.441,0.114-0.569c0.066-0.437,0.081-1.129,0.228-1.253     c0.023-0.019,0-0.195,0-0.228c0.042-0.346,0.081-0.417,0.114-0.569c0.085-0.394,0.057-0.631,0.114-0.911     c0.005-0.009,0.109,0.005,0.114,0c0.024-0.019,0-0.194,0-0.228c0.024-0.195,0.014-0.242,0.114-0.342     c0.114-0.114-0.014-0.346,0.114-0.456c0.033-0.023,0-0.299,0-0.341c0.009-0.104,0.109-0.085,0.114-0.114     c0.1-0.375,0.124-0.783,0.228-1.139c0.313-1.044,0.684-2.107,1.025-2.961c0.09-0.218,0.223-0.413,0.228-0.569     c0.009-0.124,0.09-0.057,0.114-0.114c0.095-0.194,0.138-0.574,0.228-0.797c0.009-0.014,0.104,0.009,0.114,0     c0.033-0.029-0.019-0.185,0-0.228c0.009-0.014,0.104,0.01,0.114,0c0.033-0.028-0.019-0.185,0-0.228     c0.01-0.014,0.104,0.009,0.114,0c0.033-0.029-0.019-0.185,0-0.228c0.01-0.014,0.104,0.01,0.114,0     c0.038-0.028-0.019-0.185,0-0.228c0.009-0.014,0.104,0.009,0.114,0c0.033-0.029-0.019-0.185,0-0.228     c0.009-0.014,0.104,0.01,0.114,0c0.038-0.028,0.09-0.304,0.114-0.341c0.052-0.076,0.076-0.152,0.114-0.228     c0.137-0.256,0.232-0.365,0.341-0.456c0.033-0.028-0.019-0.185,0-0.228c0.01-0.014,0.104,0.009,0.114,0     c0.038-0.029-0.024-0.185,0-0.228c0.009-0.014,0.1,0.014,0.114,0c0.038-0.033-0.028-0.19,0-0.228     c0.042-0.057,0.19-0.052,0.228-0.114c0.038-0.057-0.023-0.167,0-0.228c0.019-0.038,0.204-0.066,0.228-0.114     c0.033-0.052,0.114-0.328,0.114-0.342c0.009-0.133,0.076-0.052,0.114-0.114c0.09-0.138,0.124-0.309,0.228-0.456     c0.09-0.124,0.251-0.218,0.341-0.342c0.029-0.033,0.114-0.199,0.114-0.228c0.014-0.256,0.451-0.413,0.456-0.569     c0.014-0.209,0.484-0.584,0.569-0.684c0.788-0.906,1.827-1.789,2.505-2.619c0.033-0.038,0.19,0.033,0.228,0     c0.271-0.223,0.465-0.513,0.684-0.684c0.124-0.095,0.342-0.142,0.456-0.228c0.152-0.104,0.204-0.247,0.342-0.342     c0.232-0.161,0.545-0.299,0.797-0.456c0.019-0.009-0.009-0.1,0-0.114c0.029-0.033,0.19,0.019,0.228,0     c0.014-0.005-0.01-0.1,0-0.114c0.033-0.038,0.189,0.023,0.228,0c0.047-0.029,0.066-0.19,0.114-0.228     c0.033-0.023,0.342-0.114,0.342-0.114c0.133-0.005,0.052-0.071,0.114-0.114c0.247-0.157,0.47-0.228,0.684-0.342     c2.652-1.386,5.732-2.354,9.111-2.847c3.136-0.46,6.534-0.456,10.25-0.456c7.061,0,14.302,0,21.411,0     c3.459,0,6.491,0.503,9.225,1.367c0.199,0.062,0.531,0.114,0.569,0.114c0.128,0.005,0.062,0.085,0.114,0.114     c0.228,0.104,0.541,0.133,0.797,0.228c0.161,0.057,0.304,0.166,0.456,0.228c0.365,0.147,0.892,0.294,1.025,0.456     c0.028,0.033,0.19-0.019,0.228,0c0.015,0.005-0.009,0.1,0,0.114c0.029,0.033,0.19-0.019,0.228,0c0.019,0.004-0.009,0.1,0,0.114     c0.028,0.033,0.19-0.019,0.228,0c0.015,0.004-0.009,0.1,0,0.114c0.033,0.038,0.304,0.09,0.342,0.114     c0.081,0.047,0.157,0.076,0.228,0.114c0.261,0.133,0.365,0.228,0.456,0.342c0.028,0.033,0.189-0.019,0.228,0     c0.014,0.005-0.009,0.1,0,0.114c0.033,0.033,0.19-0.023,0.228,0c0.019,0.01-0.01,0.1,0,0.114c0.033,0.038,0.189-0.029,0.228,0     c0.085,0.062,0.085,0.218,0.228,0.228c0.133,0.005,0.052,0.071,0.114,0.114c0.237,0.152,0.498,0.218,0.683,0.342     c0.147,0.095,0.209,0.251,0.342,0.342c0.152,0.1,0.327,0.133,0.456,0.228c0.042,0.033,0.081,0.185,0.114,0.228     c0.033,0.038,0.19-0.033,0.228,0c0.147,0.114,0.213,0.232,0.341,0.341c0.247,0.2,0.432,0.465,0.684,0.684     c0.133,0.114,0.337,0.128,0.456,0.228c0.137,0.109,0.232,0.237,0.341,0.342c0.479,0.446,0.878,0.939,1.253,1.367     c0.175,0.199,0.679,0.655,0.683,0.797c0.014,0.199,0.518,0.612,0.57,0.683c0.208,0.271,0.394,0.546,0.569,0.797     c0.73,1.039,1.428,2.125,2.05,3.303c0.028,0.052,0.114,0.18,0.114,0.228c0.014,0.209,0.223,0.29,0.228,0.456     c0.014,0.209,0.223,0.29,0.228,0.456c0.014,0.209,0.223,0.29,0.228,0.456c0.009,0.124,0.09,0.062,0.114,0.114     c0.071,0.152,0.038,0.389,0.114,0.569c0.01,0.014,0.104-0.009,0.114,0c0.033,0.029-0.019,0.185,0,0.228     c0.01,0.014,0.104-0.01,0.114,0c0.033,0.023-0.015,0.185,0,0.228c0.128,0.294,0.327,0.522,0.341,0.797     c0.01,0.119,0.095,0.066,0.114,0.114c0.128,0.313,0.218,0.565,0.228,0.797c0.009,0.114,0.1,0.071,0.114,0.114     c0.128,0.346,0.228,0.693,0.342,1.025s0.218,0.55,0.228,0.797c0.01,0.109,0.104,0.076,0.114,0.114     c0.119,0.384,0.189,0.987,0.341,1.139c0.114,0.114-0.014,0.347,0.114,0.456c0.033,0.024-0.015,0.185,0,0.228     c0.166,0.413,0.351,1.756,0.569,1.936c0.033,0.023,0,0.299,0,0.342c0.009,0.1,0.109,0.09,0.114,0.114     c0.033,0.138-0.005,0.313,0,0.456c0.009,0.095,0.114,0.095,0.114,0.114c0.204,0.954,0.294,1.875,0.456,2.847     c0.019,0.114,0.095,0.133,0.114,0.228c0.024,0.109-0.019,0.233,0,0.342c0.114,0.583,0.237,1.59,0.342,1.936     c0.033,0.1-0.014,0.237,0,0.342c0.09,0.626,0.171,1.215,0.228,1.822c0.251,2.5,0.394,5.03,0.456,7.63     C272.932,218.161,272.946,219.907,273.117,221.591z"/>
		</g>
		<g>
		</g>
	</g>
	<g>
		<path fill="#FFE609" d="M211.661,138.655c-0.055-0.866,0.368-65.359,0.468-66.326c0.046-0.472,0.181-20.172,0.181-25.004    c0-0.901-0.161-2.33,0.072-2.81c0.247-0.513,2.516-0.513,2.882-0.468c0.478,0.053,4.98-0.435,6.735-0.435    c5.979,0,11.833-0.145,17.763-0.145c2.422,0,4.808-0.242,6.882,0.215c8.49,1.88,13.934,6.734,14.375,16.754    c0.099,2.26,0.037,4.553,0.036,6.884c0,2.284,0.069,4.578,0.069,6.842c0,2.293-0.144,13.934-0.358,14.988    c-2.209,10.928-11.994,13.555-12.792,13.952c-3.155,1.55-22.042,0.832-22.118,1.663c-0.022,0.239,0.405,19.958,0,33.704    c-0.001,0.048,0.069,0.033,0,0.042C224.856,138.584,212.109,138.694,211.661,138.655z"/>
		<path fill="#06A34B" d="M245.264,60.817c0.143,0.285,0.382,0.7,0.398,0.899c0.045,0.554-0.059,2.063,0,2.342    c0.064,0.317-0.045,0.861-0.072,1.332c-0.071,1.237-0.285,14.001-0.394,17.56c-0.001,0.032-0.001,0.065-0.002,0.093    c-0.021,0.674-0.751,2.663-0.975,2.85c-2.028,1.706-4.361,2.989-8.033,2.989c-0.854,0-9.367,0.108-9.367,0.108    s-0.11-0.893-0.11-1.443c0-1.538-0.036-3.163-0.036-4.607c0-2.066,0.137-22.173,0.146-23.816c0.004-0.499,0.143-1.05,0.325-1.335    c0.583-0.916,6.32-0.839,6.844-0.901c0.532-0.061,1.205,0,1.838,0c1.121,0,1.884,0.014,2.775,0.18    C239.234,57.19,244.265,58.787,245.264,60.817z"/>
	</g>
</g>
</svg>