<?xml version="1.0" encoding="UTF-8" standalone="no"?>
<!DOCTYPE svg PUBLIC "-//W3C//DTD SVG 1.1//EN" "http://www.w3.org/Graphics/SVG/1.1/DTD/svg11.dtd">
<!-- GeoHints -->
<svg width="100%" height="100%" viewBox="0 0 631 503" version="1.1" xmlns="http://www.w3.org/2000/svg" xmlns:xlink="http://www.w3.org/1999/xlink" xml:space="preserve" xmlns:serif="http://www.serif.com/" style="fill-rule:evenodd;clip-rule:evenodd;">
    <g id="Layer-1" serif:id="Layer 1">
        <path d="M13.799,1.3L616.824,1.3C623.71,1.3 629.332,7.614 629.332,15.323L629.332,487.268C629.332,494.986 623.71,501.3 616.824,501.3L13.799,501.3C6.922,501.3 1.3,494.986 1.3,487.268L1.3,15.323C1.3,7.614 6.922,1.3 13.799,1.3" style="fill:white;stroke:black;stroke-width:2px;"/>
        <rect x="23.276" y="208.947" width="583.398" height="21.519"/>
        <path d="M494.255,430.797L511.176,430.797L511.176,442.909C511.176,447.802 510.77,451.661 509.921,454.504C509.081,457.329 507.475,459.868 505.13,462.111C502.785,464.373 499.813,466.145 496.184,467.419L492.879,460.422C496.286,459.296 498.723,457.754 500.163,455.796C501.612,453.831 502.379,451.135 502.462,447.719L494.255,447.719L494.255,430.797Z"/>
        <path d="M417.967,427.59L470.127,427.59L470.127,447.547L392.794,447.547L392.794,427.59L443.367,336.99C445.181,333.815 446.088,330.339 446.088,326.557C446.088,322.401 444.765,318.81 442.119,315.785C438.868,312.157 434.862,310.343 430.1,310.343C423.07,310.343 417.967,313.67 414.792,320.321C413.355,323.422 412.637,326.597 412.637,329.846L412.637,332.794L390.526,332.794L390.526,329.846C390.526,321.154 393.095,313.367 398.237,306.487C401.866,301.574 406.495,297.682 412.128,294.808C417.758,291.936 423.598,290.499 429.647,290.499C435.467,290.499 441.023,291.823 446.315,294.468C451.606,297.115 456.067,300.781 459.696,305.467C465.139,312.574 467.86,320.625 467.86,329.62C467.86,336.349 466.046,342.886 462.417,349.236L417.967,427.59Z" style="fill-rule:nonzero;"/>
        <path d="M534.487,420.122L534.487,363.309C534.487,357.361 535.961,352.094 538.908,347.509C541.582,343.416 545.212,340.17 549.796,337.768C554.217,335.367 558.828,334.166 563.631,334.166C570.78,334.166 577.057,336.54 582.46,341.288C588.79,346.91 591.956,354.25 591.956,363.309L591.956,420.122C591.956,426.835 590.073,432.729 586.307,437.805C580.63,445.391 572.908,449.184 563.14,449.184C554.407,449.184 547.176,445.937 541.446,439.442C536.806,434.149 534.487,427.709 534.487,420.122ZM575.992,420.122L575.992,361.59C575.992,359.189 575.282,356.788 573.864,354.386C571.517,350.511 568.023,348.574 563.385,348.574C558.691,348.574 555.035,350.538 552.416,354.468C551.106,356.432 550.451,358.806 550.451,361.59L550.451,421.76C550.451,424.598 551.378,427.217 553.234,429.619C555.799,433.057 559.182,434.776 563.385,434.776C568.242,434.776 571.871,432.594 574.273,428.227C575.419,426.098 575.992,423.397 575.992,420.122Z" style="fill-rule:nonzero;"/>
        <path d="M40.38,445.615L40.38,341.833L54.726,341.833L54.726,396.909L71.482,370.442L89.142,370.442L70.633,397.896L90.452,445.615L75.017,445.615L61.383,411.854L54.726,421.547L54.726,445.615L40.38,445.615ZM97.911,370.442L111.122,370.442L111.122,380.689C115.839,372.722 121.48,368.734 128.006,368.734C131.469,368.734 134.478,369.721 137.017,371.707C139.582,373.682 141.669,376.682 143.303,380.689C145.675,376.682 148.251,373.682 151.002,371.707C153.753,369.721 156.689,368.734 159.818,368.734C163.787,368.734 167.176,369.86 169.917,372.113C172.668,374.337 174.727,377.642 176.084,381.963C177.072,385.185 177.561,390.382 177.561,397.555L177.561,445.615L163.233,445.615L163.233,402.651C163.233,395.192 162.746,390.382 161.747,388.203C160.437,385.378 158.396,383.948 155.645,383.948C153.633,383.948 151.749,384.797 149.977,386.514C148.214,388.203 146.94,390.696 146.155,393.973C145.371,397.268 144.973,402.438 144.973,409.509L144.973,445.615L130.646,445.615L130.646,404.414C130.646,397.093 130.388,392.385 129.889,390.252C129.379,388.129 128.578,386.56 127.517,385.526C126.436,384.483 124.996,383.948 123.15,383.948C120.934,383.948 118.959,384.779 117.196,386.44C115.424,388.083 114.15,390.474 113.383,393.585C112.617,396.706 112.229,401.857 112.229,409.076L112.229,445.615L97.911,445.615L97.911,370.442Z" style="fill-rule:nonzero;"/>
        <g>
            <path d="M62.624,181.118C49.143,181.118 38.07,170.141 37.969,156.657L37.969,57.667C38.07,44.182 49.143,33.206 62.624,33.206L254.352,33.206C267.833,33.206 278.905,44.182 279.007,57.667L279.007,156.657C278.905,170.141 267.833,181.118 254.352,181.118L62.624,181.118Z" style="fill:rgb(0,145,64);"/>
            <path d="M252.78,40.878C262.926,40.878 271.262,49.07 271.334,59.22L271.334,155.104C271.262,165.253 262.926,173.445 252.78,173.445L64.195,173.445C54.049,173.445 45.714,165.253 45.642,155.104L45.642,59.22C45.714,49.07 54.049,40.878 64.195,40.878L252.78,40.878Z" style="fill:white;"/>
            <path d="M158.488,46.083C157.078,46.083 155.581,46.251 154.272,46.499L58.841,61.327C56.59,61.94 54.949,64.055 54.949,66.439C54.949,66.626 54.976,66.846 54.986,66.726L54.986,147.597C54.976,147.477 54.949,147.697 54.949,147.884C54.949,150.269 56.59,152.384 58.841,152.996L154.272,167.825C155.581,168.072 157.078,168.241 158.488,168.241C159.898,168.241 161.395,168.072 162.703,167.825L258.135,152.996C260.385,152.384 262.027,150.269 262.027,147.884C262.027,147.697 262,147.477 261.99,147.597L261.99,66.726C262,66.846 262.027,66.626 262.027,66.439C262.027,64.055 260.385,61.94 258.135,61.327L162.703,46.499C161.395,46.251 159.898,46.083 158.488,46.083Z" style="fill:rgb(0,145,64);"/>
            <path d="M137.666,120.995L128.658,91.293L120.292,120.995L137.666,120.995ZM99.489,143.838L121.151,70.49L136.916,70.49L158.578,143.838L144.53,143.838L141.42,133.543L116.646,133.543L113.323,143.838L99.489,143.838Z" style="fill:white;"/>
            <path d="M205.654,70.435L205.654,143.888L191.903,143.888L191.903,91.647L184.757,91.647L184.757,83.973L191.903,70.435L205.654,70.435Z" style="fill:white;"/>
        </g>
        <path d="M605.798,50.974L605.798,162.586L589.853,162.586L589.853,77.385L580.532,77.385L580.532,67.9L589.853,50.974L605.798,50.974L605.798,50.974Z" style="fill-rule:nonzero;"/>
        <path d="M524.276,147.957L560.998,147.957L560.998,162.007L506.554,162.007L506.554,147.957L542.158,84.173C543.435,81.938 544.074,79.491 544.074,76.829C544.074,73.903 543.142,71.374 541.28,69.245C538.991,66.691 536.171,65.413 532.818,65.413C527.868,65.413 524.276,67.756 522.041,72.438C521.029,74.621 520.524,76.856 520.524,79.144L520.524,81.22L504.957,81.22L504.957,79.144C504.957,73.025 506.766,67.543 510.386,62.699C512.941,59.24 516.2,56.5 520.165,54.477C524.129,52.455 528.24,51.443 532.499,51.443C536.596,51.443 540.508,52.375 544.234,54.238C547.958,56.101 551.099,58.682 553.654,61.981C557.485,66.984 559.401,72.652 559.401,78.985C559.401,83.722 558.124,88.325 555.569,92.795L524.276,147.957Z" style="fill-rule:nonzero;"/>
        <path d="M447.466,102.906C452.567,100.143 457.376,98.761 461.893,98.761C468.535,98.761 474.327,100.861 479.269,105.058C485.008,109.948 487.878,116.43 487.878,124.507L487.878,134.231C487.878,140.608 485.858,146.534 481.82,152.006C476.452,159.339 469.146,163.006 459.9,163.006C450.176,163.006 442.576,159.154 437.103,151.448C433.649,146.613 431.922,140.874 431.922,134.231L431.922,79.392C431.922,72.377 434.021,66.347 438.219,61.298C443.851,54.443 451.132,51.015 460.06,51.015C464.683,51.015 469.027,52.079 473.092,54.204C477.157,56.33 480.517,59.305 483.175,63.131C485.885,67.064 487.426,71.156 487.798,75.406C487.85,76.098 487.878,77.427 487.878,79.392L487.878,81.145L472.335,81.145L472.335,77.718C472.335,74.318 471.219,71.395 468.987,68.95C466.542,66.294 463.593,64.965 460.139,64.965C455.357,64.965 451.742,67.224 449.299,71.74C448.076,74.025 447.466,76.576 447.466,79.392L447.466,102.906ZM472.335,136.941L472.335,124.507C472.335,121 471.271,118.024 469.146,115.579C466.702,112.71 463.646,111.275 459.98,111.275C455.516,111.275 452.061,113.215 449.618,117.093C448.183,119.379 447.466,121.85 447.466,124.506L447.466,136.941C447.466,139.917 448.502,142.628 450.574,145.071C452.858,147.729 455.861,149.056 459.581,149.056C463.992,149.056 467.445,147.41 469.943,144.114C471.538,142.043 472.335,139.651 472.335,136.941Z" style="fill-rule:nonzero;"/>
        <path d="M357.892,134.297L357.892,78.979C357.892,73.188 359.327,68.059 362.196,63.596C364.799,59.61 368.334,56.449 372.798,54.11C377.102,51.773 381.592,50.603 386.268,50.603C393.229,50.603 399.341,52.915 404.601,57.538C410.765,63.011 413.847,70.159 413.847,78.979L413.847,134.297C413.847,140.833 412.014,146.572 408.347,151.514C402.82,158.901 395.301,162.594 385.79,162.594C377.287,162.594 370.247,159.432 364.667,153.108C360.15,147.955 357.892,141.684 357.892,134.297ZM398.304,134.297L398.304,77.305C398.304,74.968 397.613,72.63 396.232,70.291C393.946,66.519 390.545,64.632 386.029,64.632C381.458,64.632 377.899,66.545 375.348,70.371C374.073,72.284 373.435,74.595 373.435,77.305L373.435,135.891C373.435,138.655 374.338,141.205 376.145,143.543C378.642,146.891 381.937,148.565 386.029,148.565C390.758,148.565 394.291,146.44 396.63,142.189C397.746,140.116 398.304,137.485 398.304,134.297Z" style="fill-rule:nonzero;"/>
    </g>
</svg>
