<?xml version="1.0" encoding="UTF-8" standalone="no"?>
<!DOCTYPE svg PUBLIC "-//W3C//DTD SVG 1.1//EN" "http://www.w3.org/Graphics/SVG/1.1/DTD/svg11.dtd">
<!-- GeoHints -->
<svg width="100%" height="100%" viewBox="0 0 631 503" version="1.1" xmlns="http://www.w3.org/2000/svg" xmlns:xlink="http://www.w3.org/1999/xlink" xml:space="preserve" xmlns:serif="http://www.serif.com/" style="fill-rule:evenodd;clip-rule:evenodd;">
    <path d="M13.8,1.3L616.833,1.3C623.701,1.3 629.332,7.614 629.332,15.332L629.332,487.268C629.332,494.986 623.701,501.3 616.833,501.3L13.8,501.3C6.913,501.3 1.3,494.986 1.3,487.268L1.3,15.332C1.3,7.614 6.913,1.3 13.8,1.3" style="fill:white;stroke:black;stroke-width:2px;"/>
    <rect x="23.266" y="208.956" width="583.388" height="21.519"/>
    <path d="M336.136,431.907L350.796,431.907L350.796,443.65C350.796,448.404 350.434,452.143 349.707,454.903C348.976,457.635 347.593,460.101 345.552,462.27C343.522,464.467 340.946,466.184 337.816,467.421L334.946,460.636C337.909,459.547 340.005,458.042 341.251,456.149C342.516,454.238 343.171,451.626 343.245,448.321L336.136,448.321L336.136,431.907Z"/>
    <path d="M45.813,445.609L45.813,341.838L60.159,341.838L60.159,396.904L76.914,370.437L94.574,370.437L76.065,397.892L95.894,445.609L80.45,445.609L66.815,411.859L60.159,421.543L60.159,445.609L45.813,445.609ZM103.344,370.437L116.564,370.437L116.564,380.693C121.272,372.717 126.912,368.729 133.439,368.729C136.91,368.729 139.92,369.717 142.449,371.701C145.016,373.677 147.102,376.678 148.745,380.693C151.108,376.678 153.684,373.677 156.435,371.701C159.186,369.717 162.121,368.729 165.251,368.729C169.229,368.729 172.608,369.865 175.35,372.117C178.101,374.333 180.16,377.646 181.517,381.967C182.505,385.189 182.994,390.377 182.994,397.55L182.994,445.609L168.676,445.609L168.676,402.655C168.676,395.186 168.188,390.377 167.19,388.207C165.869,385.374 163.829,383.952 161.078,383.952C159.066,383.952 157.183,384.801 155.41,386.518C153.656,388.207 152.373,390.691 151.597,393.977C150.813,397.264 150.416,402.434 150.416,409.514L150.416,445.609L136.088,445.609L136.088,404.418C136.088,397.098 135.822,392.38 135.313,390.257C134.811,388.134 134.012,386.564 132.95,385.521C131.879,384.478 130.43,383.952 128.583,383.952C126.377,383.952 124.392,384.773 122.629,386.435C120.856,388.088 119.582,390.47 118.816,393.59C118.05,396.71 117.672,401.852 117.672,409.071L117.672,445.609L103.344,445.609L103.344,370.437Z" style="fill-rule:nonzero;"/>
    <path d="M428.052,364.492C428.052,349.821 417.456,338.915 403.097,338.915C388.738,338.915 378.141,349.821 378.141,364.492L378.141,373.392C378.141,380.886 381.414,387.124 387.023,390.707C380.476,393.824 375.957,401.31 375.957,409.272L375.957,418.951C375.957,434.56 387.021,446.089 402.16,446.089C417.458,446.089 429.456,434.248 429.456,418.951L429.456,409.272C429.456,400.841 425.717,394.135 419.172,390.707C425.403,385.721 428.052,380.417 428.052,373.392L428.052,364.492ZM413.249,373.392C413.249,378.7 408.563,383.384 403.097,383.384C397.63,383.384 392.945,378.856 392.945,373.392L392.945,363.087C392.945,356.842 397.162,352.314 402.941,352.314C408.563,352.314 413.249,357.154 413.249,363.087L413.249,373.392ZM414.653,421.137C414.653,427.538 409.344,432.69 402.785,432.69C396.382,432.69 390.76,427.226 390.76,421.137L390.76,409.272C390.76,403.183 396.538,397.719 402.785,397.719C409.031,397.719 414.653,403.183 414.653,409.272L414.653,421.137Z" style="fill-rule:nonzero;"/>
    <path d="M495.926,364.492C495.926,349.821 485.33,338.915 470.971,338.915C456.612,338.915 446.015,349.821 446.015,364.492L446.015,373.392C446.015,380.886 449.288,387.124 454.898,390.707C448.35,393.824 443.831,401.31 443.831,409.272L443.831,418.951C443.831,434.56 454.895,446.089 470.034,446.089C485.332,446.089 497.331,434.248 497.331,418.951L497.331,409.272C497.331,400.841 493.591,394.135 487.046,390.707C493.277,385.721 495.926,380.417 495.926,373.392L495.926,364.492ZM481.123,373.392C481.123,378.7 476.437,383.384 470.971,383.384C465.504,383.384 460.819,378.856 460.819,373.392L460.819,363.087C460.819,356.842 465.036,352.314 470.815,352.314C476.437,352.314 481.123,357.154 481.123,363.087L481.123,373.392ZM482.527,421.137C482.527,427.538 477.218,432.69 470.659,432.69C464.256,432.69 458.634,427.226 458.634,421.137L458.634,409.272C458.634,403.183 464.412,397.719 470.659,397.719C476.905,397.719 482.527,403.183 482.527,409.272L482.527,421.137Z" style="fill-rule:nonzero;"/>
    <path d="M514.358,418.956C514.358,434.56 525.733,446.089 541.029,446.089C556.482,446.089 567.857,434.56 567.857,418.956L567.857,366.048C567.857,350.6 556.638,338.915 541.498,338.915C526.2,338.915 514.358,350.756 514.358,366.048L514.358,418.956ZM553.054,418.956C553.054,427.228 548.369,432.69 541.186,432.69C534.783,432.69 529.161,427.072 529.161,420.517L529.161,364.487C529.161,357.62 534.471,352.314 541.342,352.314C547.744,352.314 553.054,357.776 553.054,364.487L553.054,418.956Z" style="fill-rule:nonzero;"/>
    <path d="M302.498,293.974L280.506,293.974L267.525,317.36L267.525,330.576L280.506,330.576L280.506,448.555L302.498,448.555L302.498,293.974Z" style="fill-rule:nonzero;"/>
    <path d="M62.426,162.578L73.716,162.578L73.716,106.577L94.109,162.578L107.504,162.578L107.504,74.903L96.214,74.903L96.214,132.35L75.953,74.903L62.426,74.903L62.426,162.578Z" style="fill-rule:nonzero;"/>
    <path d="M119.879,144.711C119.879,156.017 127.493,163.892 138.145,163.892C149.324,163.892 157.463,155.886 157.463,144.711L157.463,117.618C157.463,107.099 149.193,98.699 138.671,98.699C128.15,98.699 119.879,107.099 119.879,117.618L119.879,144.711ZM146.173,146.026C146.173,150.497 143.015,153.917 138.803,153.917C134.723,153.917 131.169,150.234 131.169,146.026L131.169,116.302C131.169,112.094 134.459,108.674 138.54,108.674C142.751,108.674 146.173,112.094 146.173,116.302L146.173,146.026Z" style="fill-rule:nonzero;"/>
    <path d="M206.51,100.014L195.467,100.014L186.264,140.238L176.929,100.014L165.491,100.014L179.822,162.578L192.574,162.578L206.51,100.014Z" style="fill-rule:nonzero;"/>
    <path d="M252.649,162.578L252.649,117.749C252.649,112.094 251.992,109.858 249.104,106.181C245.297,101.455 239.516,98.699 233.725,98.699C223.202,98.699 215.85,106.312 215.194,117.749L226.487,117.749L226.487,116.434C226.487,112.094 229.777,108.674 233.857,108.674C238.068,108.674 241.358,112.094 241.358,116.434L241.358,117.749C241.358,122.615 240.964,124.193 239.384,125.903C238.068,127.218 236.357,128.007 234.515,128.007L230.962,128.007C220.97,128.007 213.749,135.372 213.749,145.63C213.749,155.752 220.97,162.578 231.62,162.578C236.094,162.578 238.068,162.315 241.358,161.134L241.358,162.578L252.649,162.578ZM241.358,145.371C241.358,149.841 238.2,152.602 233.199,152.602C227.935,152.602 225.04,149.973 225.04,145.108C225.04,141.164 227.935,138.009 231.488,138.009L234.383,138.009C236.752,138.009 238.2,137.615 241.358,136.431L241.358,145.371Z" style="fill-rule:nonzero;"/>
    <path d="M358.483,112.766L335.878,112.766L335.878,124.057L346.01,124.057L346.01,142.605C346.01,148.13 341.536,152.602 336.01,152.602C332.194,152.602 328.51,150.498 327.062,147.34C326.273,145.63 325.878,143.394 325.878,140.5L325.878,95.402C325.878,89.219 329.957,84.878 335.746,84.878C341.536,84.878 345.747,89.219 346.01,95.402L358.483,95.402C357.433,82.253 348.504,73.588 335.878,73.588C323.121,73.588 313.405,83.04 313.405,95.402L313.405,140.5C313.405,154.309 322.464,163.892 335.483,163.892C348.767,163.892 358.483,153.915 358.483,140.5L358.483,112.766Z" style="fill-rule:nonzero;"/>
    <path d="M369.937,144.711C369.937,156.017 377.552,163.892 388.203,163.892C399.382,163.892 407.522,155.886 407.522,144.711L407.522,117.618C407.522,107.099 399.251,98.699 388.73,98.699C378.208,98.699 369.937,107.099 369.937,117.618L369.937,144.711ZM396.232,146.026C396.232,150.497 393.073,153.917 388.861,153.917C384.781,153.917 381.227,150.234 381.227,146.026L381.227,116.302C381.227,112.094 384.518,108.674 388.598,108.674C392.81,108.674 396.232,112.094 396.232,116.302L396.232,146.026Z" style="fill-rule:nonzero;"/>
    <path d="M420.028,162.578L431.318,162.578L431.318,120.26C431.318,117.105 432.896,114.081 435.525,112.372C437.76,110.794 439.338,110.4 444.334,110.4L448.146,110.4L448.146,100.408L444.465,100.408C437.103,100.408 435.394,100.803 431.318,103.563L431.318,100.408L420.028,100.408L420.028,162.578Z" style="fill-rule:nonzero;"/>
    <path d="M457.76,162.578L469.05,162.578L469.05,100.014L457.76,100.014L457.76,162.578ZM458.286,87.376L468.261,87.376L468.261,77.401L458.286,77.401L458.286,87.376Z" style="fill-rule:nonzero;"/>
    <path d="M507.571,144.579L507.571,146.026C507.571,150.629 504.416,153.917 500.077,153.917C495.739,153.917 492.847,150.761 492.847,146.026L492.847,116.302C492.847,112.225 496.265,108.674 500.209,108.674C504.153,108.674 507.571,112.094 507.571,116.302L507.571,117.618L519.141,117.618C518.746,112.751 518.089,110.121 516.248,107.362C513.093,102.112 506.651,98.699 500.077,98.699C489.696,98.699 481.556,106.968 481.556,117.618L481.556,144.579C481.556,155.623 489.565,163.892 500.209,163.892C511.121,163.892 519.141,155.623 519.141,144.579L507.571,144.579Z" style="fill-rule:nonzero;"/>
    <path d="M568.574,162.578L568.574,117.749C568.574,112.094 567.918,109.858 565.029,106.181C561.222,101.455 555.441,98.699 549.651,98.699C539.127,98.699 531.775,106.312 531.119,117.749L542.413,117.749L542.413,116.434C542.413,112.094 545.703,108.674 549.782,108.674C553.994,108.674 557.284,112.094 557.284,116.434L557.284,117.749C557.284,122.615 556.889,124.193 555.31,125.903C553.994,127.218 552.283,128.007 550.44,128.007L546.887,128.007C536.895,128.007 529.675,135.372 529.675,145.63C529.675,155.752 536.895,162.578 547.545,162.578C552.02,162.578 553.994,162.315 557.284,161.134L557.284,162.578L568.574,162.578ZM557.284,145.371C557.284,149.841 554.125,152.602 549.124,152.602C543.86,152.602 540.965,149.973 540.965,145.108C540.965,141.164 543.86,138.009 547.414,138.009L550.309,138.009C552.678,138.009 554.125,137.615 557.284,136.431L557.284,145.371Z" style="fill-rule:nonzero;"/>
</svg>
