<?xml version="1.0" encoding="UTF-8" standalone="no"?>
<!DOCTYPE svg PUBLIC "-//W3C//DTD SVG 1.1//EN" "http://www.w3.org/Graphics/SVG/1.1/DTD/svg11.dtd">
<!-- GeoHints -->
<svg width="100%" height="100%" viewBox="0 0 631 503" version="1.1" xmlns="http://www.w3.org/2000/svg" xmlns:xlink="http://www.w3.org/1999/xlink" xml:space="preserve" xmlns:serif="http://www.serif.com/" style="fill-rule:evenodd;clip-rule:evenodd;">
    <path d="M13.8,1.3L616.824,1.3C623.711,1.3 629.333,7.614 629.333,15.332L629.333,487.268C629.333,494.986 623.711,501.3 616.824,501.3L13.8,501.3C6.931,501.3 1.3,494.986 1.3,487.268L1.3,15.332C1.3,7.614 6.931,1.3 13.8,1.3" style="fill:white;stroke:black;stroke-width:2px;"/>
    <path d="M345.463,457.994L345.463,477.163L363.12,477.163L363.12,457.994L368.331,457.994L368.331,442.012L363.12,442.012L363.12,353.054L340.066,353.054L299.309,442.012L299.309,457.994L345.463,457.994ZM345.463,442.012L318.664,442.012L345.463,383.931L345.463,442.012Z" style="fill-rule:nonzero;"/>
    <rect x="19.251" y="307.772" width="583.389" height="21.51"/>
    <path d="M384.598,463.566L396.525,463.566L396.525,473.13C396.525,476.998 396.237,480.053 395.649,482.297C395.051,484.513 393.913,486.534 392.27,488.297C390.608,490.079 388.512,491.482 385.956,492.489L383.62,486.968C386.029,486.072 387.737,484.854 388.752,483.313C389.777,481.752 390.322,479.629 390.387,476.933L384.598,476.933L384.598,463.566Z"/>
    <path d="M49.041,475.735L49.041,394.081L60.322,394.081L60.322,437.405L73.504,416.588L87.397,416.588L72.84,438.189L88.441,475.735L76.292,475.735L65.565,449.175L60.321,456.8L60.321,475.735L49.04,475.735L49.041,475.735ZM94.294,416.588L104.688,416.588L104.688,424.647C108.408,418.378 112.84,415.24 117.982,415.24C120.705,415.24 123.078,416.025 125.062,417.576C127.074,419.135 128.727,421.499 130.01,424.647C131.875,421.499 133.897,419.135 136.066,417.576C138.236,416.025 140.544,415.24 143.018,415.24C146.138,415.24 148.797,416.126 150.957,417.898C153.107,419.652 154.732,422.256 155.794,425.663C156.579,428.192 156.966,432.272 156.966,437.922L156.966,475.735L145.695,475.735L145.695,441.929C145.695,436.057 145.318,432.272 144.532,430.564C143.488,428.34 141.892,427.222 139.722,427.222C138.134,427.222 136.648,427.88 135.263,429.235C133.869,430.564 132.882,432.521 132.263,435.106C131.642,437.691 131.331,441.762 131.331,447.329L131.331,475.735L120.05,475.735L120.05,443.322C120.05,437.562 119.858,433.851 119.451,432.18C119.053,430.509 118.427,429.272 117.596,428.45C116.747,427.638 115.611,427.222 114.153,427.222C112.417,427.222 110.857,427.857 109.472,429.179C108.078,430.472 107.072,432.346 106.481,434.802C105.876,437.257 105.577,441.31 105.577,446.987L105.577,475.735L94.296,475.735L94.296,416.588L94.294,416.588Z" style="fill-rule:nonzero;"/>
    <g>
        <path d="M58.395,179.259C45.752,179.259 35.368,168.965 35.273,156.319L35.273,63.481C35.368,50.835 45.752,40.541 58.395,40.541L238.206,40.541C250.849,40.541 261.233,50.835 261.328,63.481L261.328,156.319C261.233,168.965 250.849,179.259 238.206,179.259L58.395,179.259Z" style="fill:rgb(23,56,133);"/>
        <path d="M88.387,159.354L102.806,159.354L102.806,114.823L126.078,114.823L126.078,159.354L140.497,159.354L140.497,58.002L126.078,58.002L126.078,101.772L102.806,101.772L102.806,58.002L88.387,58.002L88.387,159.354Z" style="fill:white;fill-rule:nonzero;"/>
        <path d="M188.39,143.7L188.39,159.354L202.809,159.354L202.809,143.7L207.065,143.7L207.065,130.648L202.809,130.648L202.809,58.002L183.983,58.002L150.699,130.648L150.699,143.7L188.39,143.7ZM188.39,130.648L166.505,130.648L188.39,83.217L188.39,130.648Z" style="fill:white;fill-rule:nonzero;"/>
    </g>
    <path d="M376.071,129.08C376.071,142.289 385.7,152.049 398.649,152.049C411.73,152.049 421.359,142.289 421.359,129.08L421.359,84.293C421.359,71.216 411.862,61.324 399.046,61.324C386.096,61.324 376.071,71.348 376.071,84.293L376.071,129.08ZM408.828,129.08C408.828,136.082 404.862,140.706 398.781,140.706C393.361,140.706 388.602,135.95 388.602,130.401L388.602,82.972C388.602,77.158 393.097,72.667 398.913,72.667C404.333,72.667 408.828,77.291 408.828,82.972L408.828,129.08Z" style="fill-rule:nonzero;"/>
    <path d="M451.227,99.364L451.227,110.707L456.378,110.707C461.793,110.707 466.416,115.332 466.416,120.751L466.416,129.869C466.416,135.949 462.057,140.706 456.246,140.706C450.566,140.706 446.207,136.081 446.207,129.869L446.207,125.773L433.659,125.773L433.659,129.869C433.659,142.157 443.698,152.049 455.982,152.049C468.263,152.049 478.948,141.761 478.948,129.869L478.948,120.486C478.948,113.746 475.782,108.333 470.242,105.299C474.989,101.87 477.627,96.721 477.627,90.773L477.627,83.24C477.627,70.952 468.261,61.324 456.246,61.324C444.226,61.324 434.98,70.82 434.98,83.24L434.98,85.354L447.528,85.354L447.528,81.654C447.528,76.764 451.491,72.667 456.378,72.667C461.265,72.667 465.095,76.631 465.095,81.654L465.095,90.773C465.095,95.796 461.397,99.364 456.378,99.364L451.227,99.364Z" style="fill-rule:nonzero;"/>
    <path d="M522.007,73.987L489.795,150.728L502.723,150.728L535.48,73.987L535.48,62.645L490.191,62.645L490.191,79.8L502.723,79.8L502.723,73.987L522.007,73.987Z" style="fill-rule:nonzero;"/>
    <path d="M559.915,73.987L588.844,73.987L588.844,62.645L547.384,62.645L547.384,107.406L559.915,107.406C561.502,104.896 564.41,103.574 567.98,103.574C573.532,103.574 578.027,107.671 578.027,112.824L578.027,130.928C578.027,136.61 573.929,140.706 568.112,140.706C561.766,140.706 557.805,136.213 557.805,128.946L557.805,125.642L545.27,125.642L545.27,128.946C545.27,134.892 546.591,138.856 550.022,143.212C554.375,148.752 561.105,152.049 567.98,152.049C574.987,152.049 581.589,148.752 586.074,143.212C589.372,139.121 590.559,135.156 590.559,128.946L590.559,112.824C590.559,107.274 589.503,103.839 586.865,100.145C583.04,95.265 576.837,92.232 570.227,92.232C566.525,92.232 564.146,92.891 559.915,94.737L559.915,73.987Z" style="fill-rule:nonzero;"/>
    <g transform="matrix(1.0638,0,0,1.0638,82.5262,-18.3052)">
        <g transform="matrix(86.9753,0,0,86.9753,164.666,278.716)">
            <path d="M0.414,-0.667L0.316,-0.667L0.216,-0.192L0.115,-0.667L0.014,-0.667L0.157,-0L0.275,-0L0.414,-0.667Z" style="fill-rule:nonzero;"/>
        </g>
        <g transform="matrix(86.9753,0,0,86.9753,199.282,278.716)">
            <path d="M0.129,-0.076L0.296,-0.076L0.315,-0L0.414,-0L0.268,-0.667L0.16,-0.667L0.014,-0L0.112,-0L0.129,-0.076ZM0.278,-0.162L0.148,-0.162L0.212,-0.467L0.278,-0.162Z" style="fill-rule:nonzero;"/>
        </g>
        <g transform="matrix(86.9753,0,0,86.9753,268.427,278.716)">
            <path d="M0.061,-0.164C0.061,-0.064 0.134,0.01 0.232,0.01C0.331,0.01 0.404,-0.064 0.404,-0.164L0.404,-0.503C0.404,-0.602 0.332,-0.677 0.235,-0.677C0.137,-0.677 0.061,-0.601 0.061,-0.503L0.061,-0.164ZM0.309,-0.164C0.309,-0.111 0.279,-0.076 0.233,-0.076C0.192,-0.076 0.156,-0.112 0.156,-0.154L0.156,-0.513C0.156,-0.557 0.19,-0.591 0.234,-0.591C0.275,-0.591 0.309,-0.556 0.309,-0.513L0.309,-0.164Z" style="fill-rule:nonzero;"/>
        </g>
        <g transform="matrix(86.9753,0,0,86.9753,308.958,278.716)">
            <path d="M0.161,-0.581L0.38,-0.581L0.38,-0.667L0.066,-0.667L0.066,-0.328L0.161,-0.328C0.173,-0.347 0.195,-0.357 0.222,-0.357C0.264,-0.357 0.298,-0.326 0.298,-0.287L0.298,-0.15C0.298,-0.107 0.267,-0.076 0.223,-0.076C0.175,-0.076 0.145,-0.11 0.145,-0.165L0.145,-0.19L0.05,-0.19L0.05,-0.165C0.05,-0.12 0.06,-0.09 0.086,-0.057C0.119,-0.015 0.17,0.01 0.222,0.01C0.275,0.01 0.325,-0.015 0.359,-0.057C0.384,-0.088 0.393,-0.118 0.393,-0.165L0.393,-0.287C0.393,-0.329 0.385,-0.355 0.365,-0.383C0.336,-0.42 0.289,-0.443 0.239,-0.443C0.211,-0.443 0.193,-0.438 0.161,-0.424L0.161,-0.581Z" style="fill-rule:nonzero;"/>
        </g>
        <g transform="matrix(86.9753,0,0,86.9753,347.227,278.716)">
            <path d="M0.156,-0.503C0.156,-0.553 0.19,-0.591 0.234,-0.591C0.275,-0.591 0.309,-0.556 0.309,-0.513L0.309,-0.492L0.404,-0.492L0.404,-0.503C0.404,-0.548 0.397,-0.57 0.375,-0.602C0.343,-0.65 0.29,-0.677 0.234,-0.677C0.136,-0.677 0.061,-0.601 0.061,-0.503L0.061,-0.166C0.061,-0.064 0.133,0.01 0.233,0.01C0.327,0.01 0.404,-0.069 0.404,-0.166L0.404,-0.226C0.404,-0.316 0.335,-0.384 0.245,-0.384C0.214,-0.384 0.19,-0.377 0.156,-0.358L0.156,-0.503ZM0.309,-0.15C0.309,-0.108 0.275,-0.076 0.231,-0.076C0.189,-0.076 0.156,-0.109 0.156,-0.15L0.156,-0.226C0.156,-0.271 0.19,-0.307 0.233,-0.307C0.276,-0.307 0.309,-0.271 0.309,-0.226L0.309,-0.15Z" style="fill-rule:nonzero;"/>
        </g>
        <g transform="matrix(86.9753,0,0,86.9753,386.453,278.716)">
            <path d="M0.156,-0.503C0.156,-0.553 0.19,-0.591 0.234,-0.591C0.275,-0.591 0.309,-0.556 0.309,-0.513L0.309,-0.492L0.404,-0.492L0.404,-0.503C0.404,-0.548 0.397,-0.57 0.375,-0.602C0.343,-0.65 0.29,-0.677 0.234,-0.677C0.136,-0.677 0.061,-0.601 0.061,-0.503L0.061,-0.166C0.061,-0.064 0.133,0.01 0.233,0.01C0.327,0.01 0.404,-0.069 0.404,-0.166L0.404,-0.226C0.404,-0.316 0.335,-0.384 0.245,-0.384C0.214,-0.384 0.19,-0.377 0.156,-0.358L0.156,-0.503ZM0.309,-0.15C0.309,-0.108 0.275,-0.076 0.231,-0.076C0.189,-0.076 0.156,-0.109 0.156,-0.15L0.156,-0.226C0.156,-0.271 0.19,-0.307 0.233,-0.307C0.276,-0.307 0.309,-0.271 0.309,-0.226L0.309,-0.15Z" style="fill-rule:nonzero;"/>
        </g>
        <g transform="matrix(86.9753,0,0,86.9753,434.376,278.716)">
            <path d="M0.055,-0L0.141,-0L0.141,-0.37L0.233,-0L0.321,-0L0.417,-0.393L0.417,-0L0.512,-0L0.512,-0.667L0.399,-0.667L0.283,-0.208L0.171,-0.667L0.055,-0.667L0.055,-0Z" style="fill-rule:nonzero;"/>
        </g>
    </g>
    <path d="M449.67,399.565L417.003,477.391L430.113,477.391L463.333,399.565L463.333,388.063L417.404,388.063L417.404,405.46L430.113,405.46L430.113,399.565L449.67,399.565Z" style="fill-rule:nonzero;"/>
    <path d="M486.908,410.021C486.908,403.319 491.466,398.226 497.365,398.226C502.861,398.226 507.419,402.917 507.419,408.68L507.419,411.495L520.127,411.495L520.127,410.021C520.127,403.989 519.191,401.04 516.248,396.755C511.967,390.334 504.872,386.723 497.365,386.723C484.232,386.723 474.199,396.888 474.199,410.021L474.199,455.165C474.199,468.832 483.831,478.73 497.23,478.73C509.827,478.73 520.127,468.163 520.127,455.165L520.127,447.124C520.127,435.064 510.897,425.97 498.839,425.97C494.683,425.97 491.466,426.906 486.908,429.447L486.908,410.021ZM507.419,457.309C507.419,462.938 502.861,467.227 496.962,467.227C491.332,467.227 486.908,462.804 486.908,457.309L486.908,447.124C486.908,441.093 491.466,436.268 497.23,436.268C502.995,436.268 507.419,441.093 507.419,447.124L507.419,457.309Z" style="fill-rule:nonzero;"/>
    <path d="M547.319,410.021C547.319,403.319 551.877,398.226 557.776,398.226C563.273,398.226 567.83,402.917 567.83,408.68L567.83,411.495L580.539,411.495L580.539,410.021C580.539,403.989 579.603,401.04 576.66,396.755C572.379,390.334 565.283,386.723 557.776,386.723C544.644,386.723 534.611,396.888 534.611,410.021L534.611,455.165C534.611,468.832 544.243,478.73 557.642,478.73C570.238,478.73 580.539,468.163 580.539,455.165L580.539,447.124C580.539,435.064 571.309,425.97 559.251,425.97C555.095,425.97 551.877,426.906 547.319,429.447L547.319,410.021ZM567.83,457.309C567.83,462.938 563.273,467.227 557.374,467.227C551.743,467.227 547.319,462.804 547.319,457.309L547.319,447.124C547.319,441.093 551.877,436.268 557.642,436.268C563.407,436.268 567.83,441.093 567.83,447.124L567.83,457.309Z" style="fill-rule:nonzero;"/>
</svg>
