<?xml version="1.0" encoding="UTF-8" standalone="no"?>
<!DOCTYPE svg PUBLIC "-//W3C//DTD SVG 1.1//EN" "http://www.w3.org/Graphics/SVG/1.1/DTD/svg11.dtd">
<!-- GeoHints -->
<svg width="100%" height="100%" viewBox="0 0 631 503" version="1.1" xmlns="http://www.w3.org/2000/svg" xmlns:xlink="http://www.w3.org/1999/xlink" xml:space="preserve" xmlns:serif="http://www.serif.com/" style="fill-rule:evenodd;clip-rule:evenodd;">
    <g>
        <path d="M13.799,1.3L616.824,1.3C623.71,1.3 629.332,7.614 629.332,15.323L629.332,487.268C629.332,494.986 623.71,501.3 616.824,501.3L13.799,501.3C6.922,501.3 1.3,494.986 1.3,487.268L1.3,15.323C1.3,7.614 6.922,1.3 13.799,1.3" style="fill:white;stroke:black;stroke-width:2px;"/>
        <rect x="23.276" y="208.947" width="583.398" height="21.519"/>
        <path d="M534.487,420.122L534.487,363.309C534.487,357.361 535.961,352.094 538.908,347.509C541.582,343.416 545.212,340.17 549.796,337.768C554.217,335.367 558.828,334.166 563.631,334.166C570.78,334.166 577.057,336.54 582.46,341.288C588.79,346.91 591.956,354.25 591.956,363.309L591.956,420.122C591.956,426.835 590.073,432.729 586.307,437.805C580.63,445.391 572.908,449.184 563.14,449.184C554.407,449.184 547.176,445.937 541.446,439.442C536.806,434.149 534.487,427.709 534.487,420.122ZM575.992,420.122L575.992,361.59C575.992,359.189 575.282,356.788 573.864,354.386C571.517,350.511 568.023,348.574 563.385,348.574C558.691,348.574 555.035,350.538 552.416,354.468C551.106,356.432 550.451,358.806 550.451,361.59L550.451,421.76C550.451,424.598 551.378,427.217 553.234,429.619C555.799,433.057 559.182,434.776 563.385,434.776C568.242,434.776 571.871,432.594 574.273,428.227C575.419,426.098 575.992,423.397 575.992,420.122Z" style="fill-rule:nonzero;"/>
        <path d="M494.255,430.797L511.176,430.797L511.176,442.909C511.176,447.802 510.77,451.661 509.921,454.504C509.081,457.329 507.475,459.868 505.13,462.111C502.785,464.373 499.813,466.145 496.184,467.419L492.879,460.422C496.286,459.296 498.723,457.754 500.163,455.796C501.612,453.831 502.379,451.135 502.462,447.719L494.255,447.719L494.255,430.797Z"/>
        <path d="M438.078,402.986L404.23,403.025L438.078,330.863L438.078,402.986ZM460.506,423.269L467.202,423.269L467.202,403.004L460.449,403.004L460.449,290.78L431.307,290.78L379.662,403.119L379.662,423.287L437.967,423.287L437.967,447.762L460.564,447.762L460.507,423.269L460.506,423.269Z"/>
        <path d="M40.38,445.615L40.38,341.833L54.726,341.833L54.726,396.909L71.482,370.442L89.142,370.442L70.633,397.896L90.452,445.615L75.017,445.615L61.383,411.854L54.726,421.547L54.726,445.615L40.38,445.615ZM97.911,370.442L111.122,370.442L111.122,380.689C115.839,372.722 121.48,368.734 128.006,368.734C131.469,368.734 134.478,369.721 137.017,371.707C139.582,373.682 141.669,376.682 143.303,380.689C145.675,376.682 148.251,373.682 151.002,371.707C153.753,369.721 156.689,368.734 159.818,368.734C163.787,368.734 167.176,369.86 169.917,372.113C172.668,374.337 174.727,377.642 176.084,381.963C177.072,385.185 177.561,390.382 177.561,397.555L177.561,445.615L163.233,445.615L163.233,402.651C163.233,395.192 162.746,390.382 161.747,388.203C160.437,385.378 158.396,383.948 155.645,383.948C153.633,383.948 151.749,384.797 149.977,386.514C148.214,388.203 146.94,390.696 146.155,393.973C145.371,397.268 144.973,402.438 144.973,409.509L144.973,445.615L130.646,445.615L130.646,404.414C130.646,397.093 130.388,392.385 129.889,390.252C129.379,388.129 128.578,386.56 127.517,385.526C126.436,384.483 124.996,383.948 123.15,383.948C120.934,383.948 118.959,384.779 117.196,386.44C115.424,388.083 114.15,390.474 113.383,393.585C112.617,396.706 112.229,401.857 112.229,409.076L112.229,445.615L97.911,445.615L97.911,370.442Z" style="fill-rule:nonzero;"/>
        <path d="M392.354,51.629L392.354,162.586L376.503,162.586L376.503,77.885L367.237,77.885L367.237,68.456L376.503,51.629L392.354,51.629L392.354,51.629Z" style="fill-rule:nonzero;"/>
        <path d="M567.968,65.578L567.968,91.184C572.488,89.058 576.743,87.993 580.732,87.993C584.773,87.993 588.615,88.871 592.258,90.626C595.9,92.381 598.866,94.801 601.153,97.885C604.29,102.033 605.859,107.246 605.859,113.52L605.859,133.383C605.859,140.51 603.997,146.413 600.275,151.092C597.51,154.549 594.173,157.234 590.264,159.149C586.355,161.063 582.273,162.02 578.019,162.02C573.711,162.02 569.59,161.049 565.655,159.108C561.719,157.168 558.368,154.47 555.604,151.012C551.775,146.174 549.86,140.297 549.86,133.383L549.86,129.394L565.415,129.394L565.415,133.383C565.415,137.052 566.159,140.111 567.649,142.557C569.829,146.174 573.313,147.981 578.099,147.981C582.247,147.981 585.543,146.465 587.99,143.434C589.532,141.467 590.303,138.967 590.303,135.936L590.303,113.52C590.303,111.127 589.612,108.973 588.229,107.059C585.783,103.656 582.326,101.954 577.859,101.954C573.338,101.954 570.042,103.577 567.968,106.82L552.413,106.82L552.413,51.539L603.705,51.539L603.705,65.578L567.968,65.578L567.968,65.578Z" style="fill-rule:nonzero;"/>
        <path d="M500.342,97.637L506.676,97.637C509.283,97.689 511.576,96.882 513.558,95.213C515.955,93.128 517.155,90.469 517.155,87.237L517.155,76.21C517.155,73.239 516.189,70.763 514.262,68.782C512.123,66.488 509.543,65.341 506.52,65.341C502.817,65.341 499.846,66.932 497.605,70.111C496.405,71.884 495.806,73.917 495.806,76.211L495.806,80.668L480.636,80.668L480.636,78.087C480.636,72.406 482.095,67.427 485.015,63.151C487.465,59.554 490.579,56.739 494.36,54.706C498.139,52.672 502.166,51.656 506.442,51.656C510.403,51.656 514.184,52.53 517.781,54.276C521.378,56.023 524.401,58.46 526.852,61.587C530.553,66.279 532.404,71.78 532.404,78.088L532.404,87.237C532.404,91.043 531.413,94.718 529.432,98.263C527.92,100.871 525.887,103.086 523.333,104.91C526.043,106.267 528.389,108.325 530.371,111.088C532.768,114.634 533.968,118.674 533.968,123.209L533.968,134.626C533.968,140.882 531.726,146.591 527.243,151.752C521.664,158.27 514.6,161.527 506.051,161.527C497.449,161.527 490.333,157.957 484.702,150.814C480.949,146.018 479.072,140.623 479.072,134.627L479.072,129.622L494.321,129.622L494.321,134.627C494.321,137.494 495.076,140.101 496.589,142.447C498.882,145.992 502.192,147.764 506.52,147.764C511.316,147.764 514.809,145.653 516.999,141.43C518.145,139.241 518.719,136.973 518.719,134.627L518.719,123.523C518.719,120.5 517.728,117.841 515.748,115.546C513.349,112.784 510.274,111.402 506.52,111.402L500.342,111.402L500.342,97.637Z" style="fill-rule:nonzero;"/>
        <path d="M429.759,97.637L436.093,97.637C438.7,97.689 440.993,96.882 442.975,95.213C445.372,93.128 446.572,90.469 446.572,87.237L446.572,76.21C446.572,73.239 445.606,70.763 443.678,68.782C441.54,66.488 438.96,65.341 435.937,65.341C432.234,65.341 429.263,66.932 427.022,70.111C425.822,71.884 425.223,73.917 425.223,76.211L425.223,80.668L410.053,80.668L410.053,78.087C410.053,72.406 411.512,67.427 414.432,63.151C416.882,59.554 419.996,56.739 423.777,54.706C427.556,52.672 431.583,51.656 435.859,51.656C439.82,51.656 443.601,52.53 447.198,54.276C450.795,56.023 453.818,58.46 456.269,61.587C459.97,66.279 461.821,71.78 461.821,78.088L461.821,87.237C461.821,91.043 460.83,94.718 458.849,98.263C457.336,100.871 455.304,103.086 452.75,104.91C455.46,106.267 457.806,108.325 459.788,111.088C462.185,114.634 463.385,118.674 463.385,123.209L463.385,134.626C463.385,140.882 461.143,146.591 456.66,151.752C451.081,158.27 444.017,161.527 435.468,161.527C426.866,161.527 419.75,157.957 414.119,150.814C410.366,146.018 408.489,140.623 408.489,134.627L408.489,129.622L423.738,129.622L423.738,134.627C423.738,137.494 424.493,140.101 426.006,142.447C428.299,145.992 431.609,147.764 435.937,147.764C440.733,147.764 444.226,145.653 446.416,141.43C447.562,139.241 448.136,136.973 448.136,134.627L448.136,123.523C448.136,120.5 447.145,117.841 445.165,115.546C442.766,112.784 439.691,111.402 435.937,111.402L429.759,111.402L429.759,97.637Z" style="fill-rule:nonzero;"/>
        <g>
            <path d="M49.865,35.053L267.498,35.053C274.709,35.053 280.617,40.841 280.617,47.94L280.617,166.685C280.617,173.766 274.709,179.564 267.498,179.564L49.865,179.564C42.646,179.564 36.746,173.766 36.746,166.685L36.746,47.94C36.746,40.841 42.646,35.053 49.865,35.053" style="fill:rgb(255,235,0);stroke:black;stroke-width:4px;"/>
            <path d="M201.22,134.005L201.22,81.913C201.22,76.459 202.571,71.629 205.273,67.426C207.724,63.673 211.053,60.696 215.256,58.494C219.309,56.292 223.538,55.191 227.942,55.191C234.496,55.191 240.252,57.368 245.206,61.721C251.01,66.876 253.912,73.607 253.912,81.913L253.912,134.005C253.912,140.16 252.186,145.564 248.733,150.218C243.528,157.174 236.448,160.651 227.491,160.651C219.484,160.651 212.854,157.675 207.6,151.719C203.346,146.866 201.22,140.961 201.22,134.005ZM239.275,134.005L239.275,80.336C239.275,78.135 238.625,75.934 237.324,73.731C235.172,70.179 231.969,68.402 227.716,68.402C223.412,68.402 220.06,70.203 217.658,73.806C216.457,75.607 215.856,77.784 215.856,80.336L215.856,135.506C215.856,138.109 216.707,140.51 218.408,142.712C220.76,145.865 223.862,147.441 227.716,147.441C232.169,147.441 235.497,145.44 237.699,141.436C238.75,139.484 239.275,137.007 239.275,134.005Z" style="fill-rule:nonzero;"/>
            <path d="M150.854,145.94L185.382,145.94L185.382,159.15L134.19,159.15L134.19,145.94L167.667,85.966C168.868,83.864 169.469,81.563 169.469,79.06C169.469,76.309 168.593,73.932 166.842,71.93C164.689,69.528 162.038,68.327 158.885,68.327C154.231,68.327 150.854,70.529 148.752,74.932C147.801,76.985 147.326,79.086 147.326,81.237L147.326,83.189L132.689,83.189L132.689,81.237C132.689,75.483 134.39,70.329 137.793,65.775C140.195,62.522 143.26,59.946 146.988,58.044C150.715,56.142 154.581,55.191 158.585,55.191C162.438,55.191 166.116,56.068 169.619,57.819C173.121,59.571 176.074,61.997 178.476,65.1C182.079,69.804 183.881,75.133 183.881,81.087C183.881,85.542 182.68,89.869 180.278,94.073L150.854,145.94Z" style="fill-rule:nonzero;"/>
            <path d="M100.963,129.503L78.583,129.529L100.963,81.816L100.963,129.503ZM115.792,142.914L120.219,142.914L120.219,129.515L115.754,129.515L115.754,55.314L96.486,55.314L62.339,129.591L62.339,142.926L100.89,142.926L100.89,159.109L115.83,159.109L115.793,142.914L115.792,142.914Z"/>
        </g>
    </g>
</svg>
