<?xml version="1.0" encoding="UTF-8" standalone="no"?>
<!-- Created with Inkscape (http://www.inkscape.org/) -->
<svg xmlns:svg="http://www.w3.org/2000/svg" xmlns="http://www.w3.org/2000/svg" version="1.0" width="543" height="348" viewBox="-0.964 -0.676 543 348" id="svg5593" xml:space="preserve">
	<defs id="defs5595">
	
		 
		
		
		
		
	</defs>
	<rect width="511.36584" height="318.81821" x="15.073081" y="14.07492" style="fill:#35b33e;fill-opacity:1;stroke:#000000;stroke-width:0.20130949" id="rect5599"/><path d="M 38.196,346.86 L 503.316,346.86 C 524.34,346.86 541.404,329.796 541.404,308.844 L 541.404,38.124 C 541.404,17.172 524.34,0.108 503.316,0.108 L 38.196,0.108 L 38.196,0.108 C 17.172,0.108 0.108,17.172 0.108,38.124 C 0.108,38.196 0.108,38.196 0.108,38.196 L 0.108,308.844 C 0.108,308.772 0.108,308.772 0.108,308.844 C 0.108,329.796 17.172,346.86 38.196,346.86 L 38.196,346.86 z " style="fill: rgb(255, 255, 255); stroke: rgb(0, 0, 0); stroke-width: 0.216;" id="path5601"/><path d="M 38.196,329.94 L 503.316,329.94 C 515.052,329.94 524.484,320.508 524.484,308.844 L 524.484,38.124 C 524.484,26.46 515.052,17.028 503.316,17.028 L 38.196,17.028 L 38.196,17.028 C 26.46,17.028 17.028,26.46 17.028,38.124 C 17.028,38.196 17.028,38.196 17.028,38.196 L 17.028,308.844 C 17.028,308.772 17.028,308.772 17.028,308.844 C 17.028,320.508 26.46,329.94 38.196,329.94 L 38.196,329.94 z " style="fill: rgb(53, 179, 62); fill-opacity: 1;" id="path5603"/><polygon points="148.572,101.556 227.196,101.556 227.196,127.836 174.78,127.836 174.78,156.564 218.772,156.564 218.772,182.772 174.78,182.772 174.78,219.132 227.196,219.132 227.196,245.412 148.572,245.412 148.572,160.812 148.572,101.556" style="fill: rgb(255, 255, 255);" id="polygon5605"/><polygon points="379.332,101.556 317.7,186.156 354.492,186.156 354.492,166.716 380.7,153.18 380.7,186.156 399.276,186.156 399.276,211.572 380.7,211.572 380.7,245.412 354.492,245.412 354.492,211.572 283.428,211.572 283.428,188.676 346.86,101.556 379.332,101.556" style="fill: rgb(255, 255, 255);" id="polygon5607"/>
</svg>