<?xml version="1.0" encoding="UTF-8" standalone="no"?>
<!DOCTYPE svg PUBLIC "-//W3C//DTD SVG 1.0//EN" "http://www.w3.org/TR/2001/REC-SVG-20010904/DTD/svg10.dtd">
<svg xmlns:svg="http://www.w3.org/2000/svg" xmlns="http://www.w3.org/2000/svg" version="1.0" width="88.586929" height="53.149658" id="svg1893">
  <defs id="defs1895"/>
  <g transform="translate(-389.9923,-465.7871)" id="layer1">
    <g transform="matrix(1.249992,0,0,-1.249992,63.64434,1023.346)" style="font-style:normal;font-variant:normal;font-weight:normal;font-stretch:normal;letter-spacing:normal;word-spacing:normal;text-anchor:start;fill:none;fill-opacity:1;stroke:black;stroke-linecap:butt;stroke-linejoin:miter;stroke-miterlimit:10.43299961;stroke-dasharray:none;stroke-dashoffset:0;stroke-opacity:1" id="g10" xml:space="preserve">
<polygon points="261.08,403.53 261.08,446.05 331.95,446.05 331.95,403.53 261.08,403.53 " style="fill:white;fill-rule:nonzero;stroke-width:0" id="polygon12"/><polygon points="262.5,404.95 330.53,404.95 330.53,444.63 262.5,444.63 262.5,404.95 " style="fill:white;fill-rule:nonzero;stroke-width:0" id="polygon14"/>

<path d="M 268.28,412.77 L 281.82,412.77 L 281.82,415.93 L 272.51,415.93 L 273.43,416.92 L 273.43,416.92 C 274.54,418.13 275.6,419.38 276.59,420.66 C 277.55,421.9 278.41,423.18 279.15,424.42 C 279.9,425.67 280.46,426.87 280.89,428.08 C 281.32,429.25 281.53,430.39 281.53,431.45 C 281.53,432.34 281.39,433.16 281.14,433.94 C 280.86,434.73 280.43,435.4 279.9,436 C 279.33,436.57 278.62,437.04 277.8,437.39 C 276.95,437.71 275.95,437.89 274.82,437.89 C 273.64,437.89 272.54,437.75 271.58,437.5 C 270.59,437.21 269.66,436.86 268.85,436.43 L 268.85,436.43 L 269.24,432.81 L 269.24,432.81 C 269.81,433.27 270.52,433.73 271.33,434.12 C 272.15,434.51 273.07,434.73 274.11,434.73 C 275.21,434.73 276.1,434.37 276.7,433.62 C 277.3,432.88 277.62,431.96 277.62,430.78 C 277.62,429.96 277.45,429.07 277.09,428.12 C 276.7,427.16 276.2,426.13 275.53,425.1 C 274.85,424.03 274.07,422.93 273.18,421.76 C 272.26,420.58 271.27,419.38 270.16,418.13 L 270.16,418.13 L 268.28,415.96 L 268.28,412.77 z " style="fill:black;fill-rule:nonzero;stroke-width:0" id="path16"/>
<polygon points="282.86,418.17 292.45,418.17 292.45,412.77 296,412.77 296,418.17 298.74,418.17 298.74,421.12 296,421.12 296,437.57 291.6,437.57 282.86,421.72 282.86,418.17 " style="fill:black;fill-rule:nonzero;stroke-width:0" id="polygon20"/><polygon points="285.8,421.12 292.45,421.12 292.45,433.73 292.38,433.73 285.8,421.12 " style="fill:white;fill-rule:nonzero;stroke-width:0" id="polygon18"/>

<polygon points="302.58,412.77 306.41,412.77 306.41,417.07 302.58,417.07 302.58,412.77 " style="fill:black;fill-rule:nonzero;stroke-width:0" id="polygon22"/>
<path d="M 310.72,413.48 L 310.85,413.43 L 310.98,413.38 L 311.11,413.34 L 311.25,413.29 L 311.39,413.25 L 311.53,413.2 L 311.67,413.16 L 311.82,413.11 L 311.97,413.07 L 312.12,413.03 L 312.28,412.99 L 312.44,412.95 L 312.6,412.91 L 312.76,412.87 L 312.93,412.84 L 313.11,412.8 C 313.99,412.59 314.99,412.49 316.02,412.49 C 318.65,412.49 320.67,413.26 322.09,414.79 C 323.52,416.32 324.23,418.42 324.23,421.08 L 324.23,421.08 L 324.23,421.08 L 324.23,421.08 C 324.23,422.32 324.05,423.39 323.69,424.35 C 323.3,425.27 322.8,426.05 322.2,426.7 C 321.6,427.33 320.85,427.83 320.04,428.15 C 319.18,428.47 318.29,428.61 317.37,428.61 C 316.8,428.61 316.27,428.58 315.8,428.54 C 315.31,428.47 314.88,428.37 314.56,428.26 L 314.56,428.26 L 314.56,434.55 L 323.05,434.55 L 323.05,437.57 L 311.08,437.57 L 311.08,424.92 L 311.08,424.92 C 311.68,425.1 312.32,425.27 312.96,425.45 C 313.6,425.63 314.35,425.7 315.16,425.7 C 316.87,425.7 318.15,425.24 319.04,424.35 C 319.89,423.46 320.32,422.25 320.32,420.8 C 320.32,419.27 319.89,418.02 319,417.07 C 318.11,416.07 316.91,415.57 315.38,415.57 C 314.49,415.57 313.67,415.71 312.93,415.96 C 312.18,416.21 311.51,416.5 310.94,416.82 L 310.94,416.82 L 310.72,413.48 z " style="fill:black;fill-rule:nonzero;stroke-width:0" id="path24"/>
</g>  </g>
</svg>