<?xml version="1.0" encoding="UTF-8" standalone="no"?>
<!DOCTYPE svg PUBLIC "-//W3C//DTD SVG 1.0//EN" "http://www.w3.org/TR/2001/REC-SVG-20010904/DTD/svg10.dtd">
<svg xmlns:svg="http://www.w3.org/2000/svg" xmlns="http://www.w3.org/2000/svg" version="1.0" width="88.574432" height="88.586929" id="svg4579">
  <defs id="defs4581"/>
  <g transform="translate(-707.1413,-213.783)" id="layer1">
    <g transform="matrix(1.249992,0,0,-1.249992,380.8309,789.1043)" style="font-style:normal;font-variant:normal;font-weight:normal;font-stretch:normal;letter-spacing:normal;word-spacing:normal;text-anchor:start;fill:none;fill-opacity:1;stroke:black;stroke-linecap:butt;stroke-linejoin:miter;stroke-miterlimit:10.43299961;stroke-dasharray:none;stroke-dashoffset:0;stroke-opacity:1" id="g10" xml:space="preserve">
<polygon points="261.05,389.39 261.05,460.26 331.91,460.26 331.91,389.39 261.05,389.39 " style="fill:black;fill-rule:nonzero;stroke-width:0" id="polygon20"/><polygon points="261.34,389.68 331.63,389.68 331.63,459.98 261.34,459.98 261.34,389.68 " style="fill:white;fill-rule:nonzero;stroke-width:0" id="polygon22"/><path d="M 278.18,435.02 L 278.19,434.92 L 278.19,434.82 L 278.19,434.73 L 278.2,434.63 L 278.21,434.54 L 278.22,434.44 L 278.24,434.35 L 278.25,434.26 L 278.27,434.17 L 278.29,434.08 L 278.32,433.99 L 278.34,433.9 L 278.37,433.81 L 278.4,433.73 L 278.43,433.64 L 278.46,433.56 L 278.5,433.47 L 278.54,433.39 L 278.58,433.31 L 278.62,433.23 L 278.66,433.15 L 278.71,433.07 L 278.76,432.99 L 278.81,432.91 L 278.87,432.84 L 278.92,432.76 L 278.98,432.68 L 279.04,432.61 L 279.1,432.54 L 279.17,432.47 L 279.23,432.39 L 279.3,432.32 C 280.05,431.58 280.95,431.21 282,431.21 L 282,431.21 L 310.96,431.21 L 310.96,431.21 C 312.01,431.21 312.91,431.58 313.66,432.32 C 314.4,433.07 314.77,433.97 314.77,435.02 L 314.77,435.02 L 314.77,448.65 L 314.77,448.65 C 314.77,449.7 314.4,450.6 313.66,451.35 C 312.91,452.09 312.01,452.46 310.96,452.46 L 310.96,452.46 L 282,452.46 L 282,452.46 C 280.95,452.46 280.05,452.09 279.3,451.35 C 278.55,450.6 278.18,449.7 278.18,448.65 L 278.18,448.65 L 278.18,435.02 z " style="fill:black;fill-rule:nonzero;stroke-width:0" id="path16"/><path d="M 278.59,435.02 L 278.59,434.84 L 278.61,434.67 L 278.63,434.5 L 278.66,434.33 L 278.7,434.17 L 278.74,434.01 L 278.8,433.85 L 278.86,433.69 L 278.93,433.54 L 279,433.4 L 279.08,433.25 L 279.17,433.11 L 279.27,432.98 L 279.37,432.85 L 279.48,432.73 L 279.59,432.61 L 279.71,432.5 L 279.83,432.39 L 279.96,432.29 L 280.09,432.19 L 280.23,432.11 L 280.37,432.02 L 280.52,431.95 L 280.67,431.88 L 280.83,431.82 L 280.99,431.77 L 281.15,431.72 L 281.31,431.68 L 281.48,431.65 L 281.65,431.63 L 281.82,431.62 L 282,431.61 L 282,431.61 L 310.96,431.61 L 310.96,431.61 C 312.84,431.61 314.37,433.14 314.37,435.02 L 314.37,435.02 L 314.37,448.65 L 314.37,448.65 C 314.37,450.53 312.84,452.05 310.96,452.05 L 310.96,452.05 L 282,452.05 L 282,452.05 C 280.12,452.05 278.59,450.53 278.59,448.65 L 278.59,448.65 L 278.59,435.02 z " style="fill:white;fill-rule:nonzero;stroke-width:0" id="path18"/><path d="M 296.42,432.46 L 281.88,434.77 L 281.88,434.77 C 281.41,434.81 280.98,435.05 280.69,435.41 C 280.42,435.75 280.28,436.18 280.3,436.61 L 280.3,436.61 L 280.32,447.18 L 280.32,447.18 C 280.31,447.56 280.43,447.93 280.65,448.23 C 280.92,448.59 281.32,448.83 281.76,448.89 L 281.76,448.89 L 296.48,451.2 L 311.41,448.79 L 311.41,448.79 C 311.72,448.69 311.99,448.51 312.2,448.26 C 312.48,447.92 312.61,447.49 312.58,447.05 L 312.58,447.05 L 312.59,436.5 L 312.59,436.5 C 312.58,436.02 312.39,435.57 312.05,435.24 C 311.77,434.96 311.41,434.79 311.02,434.75 L 311.02,434.75 L 296.42,432.46 z " style="fill:#ff1721;fill-rule:nonzero;stroke:none;stroke-width:0;stroke-miterlimit:10.43299961;stroke-dasharray:none" id="path12"/><path d="M 288.5,398.19 L 302.04,398.19 L 302.04,401.35 L 292.73,401.35 L 293.66,402.34 L 293.66,402.34 C 294.76,403.55 295.82,404.8 296.82,406.08 C 297.77,407.32 298.63,408.6 299.38,409.84 C 300.12,411.09 300.69,412.3 301.12,413.5 C 301.54,414.68 301.76,415.81 301.76,416.88 C 301.76,417.77 301.61,418.58 301.36,419.37 C 301.08,420.15 300.66,420.82 300.12,421.43 C 299.55,422 298.84,422.46 298.02,422.82 C 297.17,423.13 296.18,423.31 295.04,423.31 C 293.87,423.31 292.77,423.17 291.81,422.92 C 290.81,422.64 289.89,422.28 289.07,421.85 L 289.07,421.85 L 289.46,418.23 L 289.46,418.23 C 290.03,418.69 290.75,419.15 291.56,419.55 C 292.38,419.93 293.3,420.15 294.33,420.15 C 295.43,420.15 296.32,419.79 296.92,419.05 C 297.53,418.3 297.85,417.38 297.85,416.2 C 297.85,415.39 297.67,414.5 297.32,413.54 C 296.92,412.58 296.43,411.55 295.75,410.52 C 295.08,409.45 294.3,408.36 293.41,407.18 C 292.48,406.01 291.49,404.8 290.39,403.55 L 290.39,403.55 L 288.5,401.39 L 288.5,398.19 z " style="fill:black;fill-rule:nonzero;stroke-width:0" id="path26"/>
<path d="M 293.23,435.79 L 299.74,435.79 L 299.74,437.31 L 295.26,437.31 L 295.7,437.79 L 295.7,437.79 C 296.23,438.38 296.75,438.97 297.23,439.59 C 297.69,440.18 298.1,440.8 298.46,441.4 C 298.82,442 299.09,442.58 299.29,443.16 C 299.5,443.72 299.6,444.27 299.6,444.79 C 299.6,445.21 299.54,445.61 299.41,445.98 C 299.28,446.36 299.07,446.68 298.82,446.97 C 298.54,447.25 298.2,447.47 297.81,447.64 C 297.39,447.79 296.92,447.88 296.37,447.88 C 295.81,447.88 295.28,447.81 294.82,447.69 C 294.34,447.55 293.89,447.38 293.5,447.18 L 293.5,447.18 L 293.69,445.43 L 293.69,445.43 C 293.96,445.66 294.3,445.88 294.7,446.07 C 295.09,446.25 295.54,446.36 296.03,446.36 C 296.56,446.36 296.98,446.19 297.28,445.83 C 297.57,445.47 297.72,445.02 297.72,444.46 C 297.72,444.07 297.64,443.64 297.46,443.18 C 297.28,442.71 297.04,442.22 296.71,441.72 C 296.39,441.21 296.01,440.68 295.59,440.12 C 295.14,439.55 294.66,438.97 294.13,438.38 L 294.13,438.38 L 293.23,437.33 L 293.23,435.79 z " style="fill:white;fill-rule:nonzero;stroke:#ff1721;stroke-width:0" id="path14"/>




<path d="M 272.11,398.19 L 285.64,398.19 L 285.64,401.35 L 276.33,401.35 L 277.25,402.34 L 277.25,402.34 C 278.36,403.55 279.42,404.8 280.42,406.08 C 281.38,407.32 282.23,408.6 282.98,409.84 C 283.73,411.09 284.29,412.3 284.72,413.5 C 285.14,414.68 285.36,415.81 285.36,416.88 C 285.36,417.77 285.21,418.58 284.96,419.37 C 284.68,420.15 284.26,420.82 283.73,421.43 C 283.16,422 282.44,422.46 281.62,422.82 C 280.77,423.13 279.78,423.31 278.64,423.31 C 277.47,423.31 276.37,423.17 275.41,422.92 C 274.41,422.64 273.49,422.28 272.67,421.85 L 272.67,421.85 L 273.06,418.23 L 273.06,418.23 C 273.63,418.69 274.34,419.15 275.16,419.55 C 275.98,419.93 276.9,420.15 277.93,420.15 C 279.04,420.15 279.92,419.79 280.52,419.05 C 281.13,418.3 281.45,417.38 281.45,416.2 C 281.45,415.39 281.27,414.5 280.92,413.54 C 280.52,412.58 280.03,411.55 279.36,410.52 C 278.68,409.45 277.89,408.36 277.01,407.18 C 276.08,406.01 275.09,404.8 273.99,403.55 L 273.99,403.55 L 272.11,401.39 L 272.11,398.19 z " style="fill:black;fill-rule:nonzero;stroke-width:0" id="path24"/>

<path d="M 307.5,401.53 L 307.61,401.32 L 307.73,401.11 L 307.86,400.91 L 307.98,400.72 L 308.12,400.53 L 308.25,400.35 L 308.39,400.18 L 308.54,400.01 L 308.68,399.85 L 308.84,399.69 L 308.99,399.54 L 309.16,399.39 L 309.32,399.25 L 309.49,399.11 L 309.66,398.99 L 309.84,398.86 C 310.8,398.22 311.94,397.91 313.32,397.91 C 314.71,397.91 315.88,398.22 316.84,398.9 C 317.8,399.54 318.58,400.43 319.18,401.56 C 319.79,402.7 320.22,404.05 320.46,405.58 C 320.71,407.11 320.86,408.78 320.86,410.59 L 320.86,410.59 L 320.86,410.59 L 320.86,410.59 C 320.86,412.4 320.71,414.07 320.46,415.64 C 320.22,417.16 319.79,418.52 319.18,419.65 C 318.58,420.79 317.8,421.68 316.84,422.36 C 315.88,422.99 314.71,423.31 313.32,423.31 C 311.94,423.31 310.76,422.99 309.8,422.36 C 308.85,421.68 308.1,420.79 307.5,419.65 C 306.89,418.52 306.46,417.16 306.21,415.64 C 305.96,414.07 305.82,412.4 305.82,410.59 C 305.82,408.78 305.96,407.11 306.21,405.58 C 306.46,404.02 306.89,402.66 307.5,401.53 z " style="fill:black;fill-rule:nonzero;stroke-width:0" id="path30"/><path d="M 310.41,403.41 L 310.31,403.73 L 310.22,404.07 L 310.13,404.43 L 310.05,404.8 L 309.98,405.19 L 309.91,405.6 L 309.85,406.03 L 309.8,406.47 L 309.75,406.93 L 309.71,407.4 L 309.67,407.89 L 309.64,408.4 L 309.62,408.92 L 309.6,409.46 L 309.59,410.02 L 309.59,410.59 C 309.59,413.68 309.88,416.1 310.41,417.8 C 310.94,419.51 311.94,420.36 313.32,420.36 C 314.74,420.36 315.74,419.51 316.27,417.84 C 316.8,416.13 317.09,413.72 317.09,410.59 L 317.09,410.59 L 317.09,410.59 L 317.09,410.59 C 317.09,407.5 316.8,405.08 316.27,403.41 C 315.7,401.71 314.71,400.86 313.32,400.86 C 311.94,400.86 310.94,401.71 310.41,403.41 z " style="fill:white;fill-rule:nonzero;stroke-width:0" id="path28"/>

</g>  </g>
</svg>