<?xml version="1.0" encoding="UTF-8"?>
<!-- Generator: Adobe Illustrator 16.0.0, SVG Export Plug-In . SVG Version: 6.00 Build 0)  -->
<!DOCTYPE svg PUBLIC "-//W3C//DTD SVG 1.1//EN" "http://www.w3.org/Graphics/SVG/1.1/DTD/svg11.dtd">
<svg version="1.1" id="Layer_1" xmlns="http://www.w3.org/2000/svg" xmlns:xlink="http://www.w3.org/1999/xlink" x="0px" y="0px" width="2562.52px" height="1286.93px" viewBox="0 0 2562.52 1286.93" enable-background="new 0 0 2562.52 1286.93" xml:space="preserve">
<g>
	<path fill="#FFFFFF" d="M158.74,1284.092c-85.967,0-155.908-69.932-155.908-155.898V158.74C2.832,72.773,72.774,2.832,158.74,2.832   h2245.038c85.967,0,155.898,69.941,155.898,155.908v969.453c0,85.967-69.932,155.898-155.898,155.898H158.74z"/>
	<path d="M2403.779,5.67c84.539,0,153.072,68.532,153.072,153.07v969.449c0,84.538-68.533,153.071-153.072,153.071H158.74   c-84.539,0-153.071-68.533-153.071-153.071V158.74C5.669,74.202,74.201,5.67,158.74,5.67H2403.779 M2403.779,0H158.74   C71.21,0,0,71.211,0,158.74v969.449c0,87.529,71.21,158.74,158.74,158.74h2245.038c87.53,0,158.74-71.211,158.74-158.74V158.74   C2562.519,71.211,2491.309,0,2403.779,0L2403.779,0z"/>
</g>
<g>
	<path d="M2403.78,124.724c18.756,0,34.015,15.26,34.015,34.016v969.449c0,18.756-15.259,34.016-34.015,34.016H158.74   c-18.757,0-34.017-15.26-34.017-34.016V158.74c0-18.756,15.26-34.016,34.017-34.016H2403.78 M2403.78,56.693H158.74   c-56.359,0-102.048,45.688-102.048,102.047v969.449c0,56.359,45.688,102.047,102.048,102.047H2403.78   c56.358,0,102.047-45.688,102.047-102.047V158.74C2505.826,102.381,2460.138,56.693,2403.78,56.693L2403.78,56.693z"/>
</g>
<g id="Layer_1_1_">
	<g>
		<path fill="#003F87" d="M342.141,1078.462c-35.894,0-69.75-14.089-95.331-39.67c-25.581-25.58-39.669-59.436-39.669-95.33v-600    c0-35.895,14.088-69.75,39.669-95.331s59.438-39.669,95.331-39.669h600c35.896,0,69.75,14.088,95.332,39.669    c25.58,25.581,39.668,59.437,39.668,95.331v600c0,35.895-14.088,69.75-39.668,95.33c-25.582,25.581-59.437,39.67-95.332,39.67    H342.141z"/>
		<path fill="#FFFFFF" d="M942.141,223.461c31.889,0,61.978,12.527,84.726,35.275s35.276,52.837,35.276,84.726v600    c0,31.888-12.528,61.977-35.276,84.725s-52.837,35.275-84.726,35.275h-600c-31.888,0-61.977-12.527-84.725-35.275    s-35.276-52.837-35.276-84.725v-600c0-31.889,12.528-61.978,35.276-84.726s52.837-35.275,84.725-35.275H942.141 M942.141,193.462    h-600c-82.5,0-150,67.5-150,150v600c0,82.5,67.5,150,150,150h600c82.5,0,150-67.5,150-150v-600    C1092.141,260.962,1024.641,193.462,942.141,193.462L942.141,193.462z"/>
	</g>
	<g>
		<path d="M942.141,195.462c39.366,0,76.487,15.439,104.523,43.477c28.037,28.036,43.477,65.157,43.477,104.523v600    c0,39.365-15.439,76.486-43.477,104.522c-28.036,28.037-65.157,43.478-104.523,43.478h-600c-39.366,0-76.486-15.44-104.522-43.478    c-28.037-28.036-43.478-65.157-43.478-104.522v-600c0-39.366,15.44-76.487,43.478-104.523s65.156-43.477,104.522-43.477H942.141     M942.141,193.462h-600c-82.5,0-150,67.5-150,150v600c0,82.5,67.5,150,150,150h600c82.5,0,150-67.5,150-150v-600    C1092.141,260.962,1024.641,193.462,942.141,193.462L942.141,193.462z"/>
	</g>
	<path fill="#FFFFFF" d="M610.002,385.355c1.06,0.683,2.121,1.604,3.182,1.402l2.162,0.701l2.928,0.35l1.018-0.935l-0.891-0.818   l-0.127-2.22l-0.892-0.117l-1.145-0.467l-1.4-1.636l-0.382-1.168l-0.636-0.935l0.254-0.701h0.891l0.636,0.701l0.637,1.051   l0.382-0.233l1.018-0.584l2.29,0.233l1.781,1.869l0.763,2.22l1.654,0.351l0.127-1.285l1.019-0.234v-0.935l-0.51-1.52l-0.636-1.519   l-0.636-0.467l-1.019-2.104l-0.254-2.336l-0.763-1.401l-1.4-1.168l-0.254-1.402l-1.526-2.688l0.636-0.935l2.927,0.234l-1.018-1.402   l-0.382-1.168l1.526-0.234l0.127-1.051v-3.972l-0.382-0.351l0.636-1.168l0.892,0.701l1.526,0.818l-0.127-1.402l0.637,0.234v-2.57   l1.526-0.584l1.4,1.402l1.271,0.467v-3.154l0.51,0.234l-0.254-3.037l1.145-1.52l1.271,1.168l1.654,1.402h1.654l-1.909-2.57   l0.509-4.206l1.146-0.116l-0.382-2.221h1.78l1.4,1.285l0.127-0.817l-1.145-3.389l0.509-2.569l1.145-2.921l0.764-2.453l0.891-6.893   l-0.763-0.467l0.127-2.22l0.636-0.467h2.927l0.892,0.935l-0.127,1.285l-0.383,1.051l1.272,7.477l0.891,1.753l1.146,0.817   l-0.382,1.52l0.636,2.452l-0.127,2.688l-0.254,1.168l1.908-0.701v1.52l1.146,1.752l-0.127,1.168h1.399l-0.254,2.103l-1.399,2.104   l0.127,0.584l1.526-0.117l0.764-1.168l1.909-1.168v2.687l1.018,2.805l0.127,1.519l0.636,0.818l1.019-1.52l1.909-1.285l0.509,1.636   l0.509,1.051l-0.254,2.569l1.018-0.935h2.8l0.127,1.402l-0.637,0.117l-0.127,3.153l-0.254,1.168h1.654v0.936l-0.763,0.817   l-1.019,0.818l1.654-0.117l1.781,1.285l-0.51,0.584l-0.636,1.986l-0.254,1.284l-0.891,1.052l-0.637,1.519h-1.145v1.402   l-0.763,0.817l0.254,0.818l0.509,1.051l-1.654,0.234l0.127,0.817l-0.636,1.753l-0.636,1.985l1.271,1.52l1.272,0.233l-0.127-0.817   l0.509-1.869l1.4-1.402l2.418-0.584h2.418l1.399-1.635l1.909,0.233l-0.763,1.052l-0.636,1.635l-1.146,1.635l-1.654,0.351v2.103   l-1.908,2.453l2.672-0.234l1.909-0.701l1.271,0.701l2.036-0.817l4.326-2.453l3.816-0.234l1.019-1.401l1.654-0.468l-0.128,1.752   l1.781-0.467l1.4,0.117l1.653-1.519l1.909-1.869l3.182-1.52l3.435-1.752l-0.763-0.233l-0.127-1.168h1.018l1.76-2.288l1.294-1.101   l2.163,0.117l-0.127-0.818l-1.399-0.35v-0.935l1.653-0.468l0.127-1.168l0.128-1.635l1.271-0.233l-1.271-1.986l-3.817-3.972   l-5.471-3.973l-2.036-3.271l-0.51-4.089l0.383-2.805l1.018,0.701l0.763,0.467l0.255-1.985l1.145-0.936v3.154l0.891,0.234   l0.127-1.636l0.254-1.752l1.781-0.35l0.254,0.701l-0.763,1.168l1.781,1.635l0.382,2.336l1.909,1.285l1.526-0.818l1.251,0.419   l-1.012,1.664l1.797,0.604c0.976,0.409,1.873,0.711,3.309,1.752l3.816,3.854l1.4,0.234l0.127-0.936l1.781-3.036l1.399-2.221   l1.527-4.206l0.509-3.037l1.146-0.467l0.382,1.402l1.526,1.285l1.019-3.154l2.545-6.892l1.077-4.624l1.341-7.175l-0.127-9.578   l-0.636-5.023l-1.272-3.505l-1.653-1.986l-0.255-1.752h0.892l1.526,0.701l4.453,2.103l3.944,3.389l3.054,5.022l2.29,7.944   l-0.255,7.71l-0.891,6.075l-2.418,5.606l0.254,2.805l1.145-2.688l2.418-5.374l1.019-4.905l0.104-2.659l1.654,0.832   c0.434,0.855,1.002,2.322,1.676,4.279l0.636,5.023l-0.382,10.631l-1.781,4.79l-2.799,5.607l-3.054,4.438l-4.326,4.322l-0.509,1.519   l4.453-3.972l4.326-4.206c1.105-1.701,2.489-4.935,3.166-4.266l0.27,4.031c-0.254,1.752-0.509,3.506-0.763,5.258   c-0.688,1.924-1.508,3.785-2.672,5.49l-3.055,4.322c-2.212,2.398-3.706,3.697-5.217,5.023l-6.744,4.556l0.892-0.117l5.599-2.453   c1.02-0.328,2.21-0.864,3.944-2.068c1.463-1.886,3.638-3.796,4.453-3.621l-2.036,5.105l-3.436,4.79l-4.835,4.79l-6.871,4.322   l-10.814,3.738l4.235-0.453l4.543-0.715l6.871-2.104c1.887-0.691,3.772-2.27,5.658-2.074l-1.077,2.542l-3.054,3.037l-3.563,2.921   l-3.817,2.336l-5.344,1.869l-3.563,0.936l-4.072,0.467l-2.163,0.701l2.29,0.117l5.727-0.818l4.708-0.701l4.072-1.519   c1.388-0.908,2.255-0.62,3.181-0.468l-1.909,2.104l-0.509,1.051l-1.146,0.818l-4.581,3.271l-6.106,2.57l-7.634,1.986l-5.472,0.584   v0.584h4.581l4.708-0.468l4.745-1.174c1.59-0.621,3.488-1.81,3.944-0.35l-0.801,0.59l-2.673,3.154l-0.763,0.467l-2.418,2.103   l-4.326,1.752l-3.435,0.584l2.036,2.922l0.763,2.569l0.127,3.855l-0.763,5.606l-2.545,4.439l-1.663,2.558   c-0.525,0.672-0.936,1.287-1.958,2.208l-2.313,1.707l-3.101,1.588l-8.144,4.322l-1.271,0.351l-7.634,3.036l-1.4,2.221l0.636,0.935   l-0.891,0.818l0.763,1.051l1.781,0.935l1.781,0.468l0.127,0.935l0.763,1.051l1.781,0.117l0.891,1.986l2.799,0.467l0.127,1.635   h2.291l0.763,1.402l1.526,0.117l0.255-0.818l1.399-0.35l0.891-1.168l1.654-0.584l0.764-0.818l1.399-2.57l1.4-0.701l1.145-1.752   l1.654-0.935l0.382-0.818l4.072-2.804l3.054-0.701l2.672,0.234l2.672,1.051l0.764,1.986l-1.527,0.35l0.509,0.701l1.909,2.103   l1.018,2.688l-1.271,1.402v-0.584l-1.527-1.052l-0.127,1.285l1.019,1.168v2.688l-0.892,0.935l-1.909-2.22l-1.145,0.701   l-3.563,0.233l-1.146,1.168l-2.29,0.584l-0.254,1.52l-1.781,1.401l-0.763,0.117l-0.254,1.402l-3.181,3.505l-1.272,0.467   l-0.254,1.402l-2.163,2.103l-2.036,2.688l-0.636,1.635l-1.527,1.752l2.163,2.103l-0.891,1.169l-2.8-0.117l-2.418-1.869l-1.145-1.52   l-0.509-2.921l1.018-1.636l0.127-1.635l1.146-1.869l0.509-2.103l-1.4-1.52l-2.545-1.636l-1.909,0.701l-2.672,0.935l-2.926-0.117   l0.254-1.401l1.527-1.051l0.509-1.753l-1.527-1.051l-4.708-3.621l-4.452-3.271l-2.419-1.635l-0.254,1.752l2.036,0.584   c1.824,0.895,3.155,1.901,4.02,3.017c1.137,1.188,1.784,2.598,1.961,4.227c0.177,1.245,0.356,2.491-0.636,3.737l-1.909,1.752   l-0.509-1.752l-0.637-2.569l-2.036-1.285l0.764,1.285l1.145,2.687l-0.254,2.921l-1.271,2.57l-2.418,2.336l-0.255-0.584   l-0.382-2.921l-1.271-2.453l-0.892-0.467l1.4,2.921l0.382,1.985l-0.127,2.453c-0.81,1.734-1.906,3.118-3.435,3.972l-3.182,0.351   l-0.509-1.752l-0.509,1.519l-0.636,1.52l-2.673,3.037l-2.799,1.168l-3.054-0.584l-1.4-1.753h-0.763l-0.382,1.986l-1.53,0.936   l-2.036-0.818l-1.018-2.22l-1.146-1.869l-0.636-3.621v-3.855h-0.636l-0.892,2.336l-0.382,1.986l0.51,2.921l2.289,1.402v1.051   l-0.891,0.818h-4.199l-1.653-0.818l-2.036-1.168l-1.019-2.22l-0.763-2.221l-0.127-4.321l-0.734-0.142l-0.336,3.391l0.672,2.466   l-1.858,0.677c-0.985-0.514-1.891-0.883-3.334-2.241l-1.188-3.985v-4.316l0.336-1.232l-0.672,1.541l-0.336,2.774l-1.007,1.541   l-2.015-1.232l-1.229-2.181l-0.45-5.526l-1.007,3.391c-1.237-0.508-1.903-1.541-2.687-2.466l0.024-3.31l1.991-4.398l-2.351,2.158   l-3.693,2.157c-0.048,1.161-0.307,2.468,0.557,3c0.556,0.739,1.111,1.48,1.901,1.789l0.113,1.211l-4.587-0.143l-3.357-1.541   l-1.007,1.85l-1.344-0.308l-1.679,0.308c0.222,1.032-0.014,3.326,0.672,3.083c0.495,1.431,0.787,2.487,1.499,4.316   c-0.881,1.578-1.693,3.466-2.8,4.008l-2.212,1.85c-1.149-0.439-1.611,0.382-2.326,0.738l-0.336-1.437l1.475-1.459l-1.114-2.362   l-0.229-1.646l-1.007-0.308v-2.158l-2.596-1.111l-1.434-2.438l-1.887-1.232l-0.484-0.992c-0.066-0.255-0.347-0.387-0.65-0.506   c0.155-0.688,0.17-1.056-1.343-2.969l-1.843-0.925l-1.181-2.466l-1.679-0.308l-1.68-1.233h-3.357l-1.007-0.308l-2.016,1.541v-3.392   l1.68-2.157l-1.934-0.117l-0.753,1.657l-1.343-0.616l0.336-3.7l3.022-2.466l-2.016-0.926l3.195-2.53l3.185-0.86   c1.843,0.688,2.4,1.079,3.358,1.564l4.701,3.677c0.98,1.322,3.737,3.697,5.373,6.166l3.357,4.008l2.687,1.233l0.672-1.851h1.679   c1.079-0.821,1.735-1.644,3.694-2.466l0.336-1.233l3.021-1.85l-0.336-0.308l4.365-3.7l-2.015-0.925l1.343-0.926l-1.343-2.157   l-4.365-2.158c-3.395-1.575-6.971-3.317-11.081-5.549c-3.894-1.999-4.868-3.327-7.052-4.934c-2.049-1.716-3.424-4.05-5.037-6.166   c-0.836-2.128-1.555-4.398-1.679-7.398l0.672-6.782l2.686-2.775l-3.693-0.925l-3.652-1.685l-4.365-3.392l-2.656-2.956   c1.347-0.883,4.417,0.611,6.644,0.941c3.261,0.602,5.29,0.751,7.387,0.925l11.081-0.308l-0.929-0.474   c-2.718-0.179-5.522-0.364-10.824-0.76c-4.092-0.399-6.259-1.152-8.73-1.85c-2.381-0.776-4.651-1.982-7.723-4.008   c-4.372-2.606-4.052-3.775-5.708-5.55c3.91,1.782,7.296,2.359,10.745,3.083c2.127,0,4.253,0,6.38,0l0.672-0.308l-4.365-0.617   l-4.7-0.617l-5.373-2.466l-6.044-3.7l-4.029-4.624c-2.182-2.921-1.783-3.811-1.679-4.933l3.357,3.083l8.06,2.775   c9.308,2.815,7.147,1.245,9.065,1.232l-4.701-1.232l-5.708-2.158c-2.967-1.745-5.655-4.002-8.395-6.166   c-2.406-2.466-4.495-4.934-5.708-7.399c-1.223-2.436-2.032-4.447-1.115-4.701l3.13,2.258c2.825,1.662,5.511,3.194,7.388,3.985   l4.7,1.541l-8.059-5.241c-2.691-2.139-4.774-4.054-6.266-5.753c-1.063-1.181-2.22-2.451-4.029-5.857   c-1.179-2.607-1.861-6.127-2.574-9.588c-0.392-2.008,0.544-2.961,1.453-3.774c2.217,5.203,2.72,4.635,4.029,6.782   c1.495,1.604,3.229,3.342,8.059,6.782l-3.693-4.624l-5.628-7.198c-2.32-4.305-2.677-5.904-3.774-8.525l-0.672-7.398l1.007-9.249   l2.686-5.549l1.344,9.249l5.036,10.79l6.045,7.707l-2.016-2.775l-5.373-11.715c-1.666-4.328-2.351-9.558-3.021-14.798   c0.072-4.183,0.593-7.543,1.343-10.482c1.786-4.343,3.93-6.713,6.044-9.249l4.991-3.189l2.396,0.106   c0.688,0.803-1.677,2.984-1.679,3.784c-0.766,2.655-1.594,5.658-1.716,6.834l0.037,8.804c1.188,4.605,2.378,10.9,3.565,13.565   c1.068,3.813,2.7,7.724,3.694,11.183l1.933-2.307l1.216,4.073l4.006,5.774l0.695,3.166l2.687-2.466l4.274-2.73   c1.319-1.051,2.356-1.063,3.448-1.276l-0.672-0.925v-2.775l0.336,1.233l2.35,0.616l1.888-1.69l1.135-2.317   c-0.469-2.317-0.182-2.556,0-3.083c2.173,1.983,2.131,3.153,2.732,4.56l0.173-3.742l2.131,1.648c1.256,1.851,1.445,3.7,1.007,5.55   c-0.075,2.123-0.265,4.034-1.343,4.315c-3.11,3.413-3.796,2.821-5.373,3.7l-0.672,2.158l-4.701,3.7l0.042,1.029   c1.171,0.734,0.934,1.728,0.966,2.67l1.343,0.926l-0.155,2.036l1.499,0.144l2.015,1.211v1.233l1.679,0.925l-0.336,1.541   l3.521,1.657c2.021,1.472,2.555,3.397,6.38,4.316l3.531,1.733l-0.29-2.032l2.64,1.106c0,0-1.007,0.309,4.701,0.926L610.002,385.355   z"/>
	<g>
		<path fill="#FFFFFF" d="M787.054,700.905c-6.186,6.01-11.747,11.747-16.69,17.22c-4.949,5.48-9.627,11.126-14.039,16.954    c-4.422,5.829-8.926,12.277-13.512,19.34c-21.193,32.146-37.271,65.965-48.215,101.464    c-10.952,35.499-16.426,73.033-16.426,112.59h-66.229c0-54.747,8.296-105.611,24.901-152.593    c16.6-46.974,42.388-92.01,77.355-135.107H475.245v-67.289h333.797v67.289C800.565,688.19,793.231,694.903,787.054,700.905z"/>
	</g>
</g>
<g>
	<path d="M1870.706,594.462h-234.234V217.209h59.685v316.441h174.55V594.462z"/>
</g>
<g>
	<path d="M1618.173,1067.908h-60.248V764.98h-34.91v-48.424c22.145-1.126,38.288-9.757,48.424-25.9h46.734V1067.908z"/>
	<path d="M1747.11,1041.444c0,8.64-3.009,15.862-9.009,21.678c-6.009,5.815-13.145,8.728-21.396,8.728   c-7.883,0-14.921-3.097-21.115-9.29c-6.193-6.194-9.29-13.232-9.29-21.115s3.097-14.921,9.29-21.115   c6.194-6.193,13.232-9.29,21.115-9.29s14.921,3.097,21.114,9.29C1744.013,1026.523,1747.11,1033.561,1747.11,1041.444z"/>
	<path d="M1797.219,853.494c0-26.127,9.833-48.044,29.505-65.766c19.665-17.716,44.066-26.577,73.198-26.577   c29.124,0,53.525,9.312,73.198,27.928c19.665,18.624,29.504,41.441,29.504,68.469c0,41.744-10.663,82.362-31.981,121.847   c-21.326,39.492-49.402,70.798-84.234,93.919l-24.324-40.09c35.431-27.322,60.058-58.256,73.874-92.793   c-11.114,3.308-23.128,4.955-36.036,4.955c-27.929,0-52.027-9.009-72.298-27.027   C1807.354,900.341,1797.219,878.719,1797.219,853.494z M1844.967,854.394c0,11.712,5.405,21.847,16.216,30.405   s23.719,12.838,38.739,12.838c17.117,0.303,30.327-3.448,39.64-11.261c9.305-7.806,14.111-18.469,14.414-31.982   c0-12.31-5.258-22.818-15.766-31.531c-10.516-8.706-23.275-13.063-38.288-13.063c-14.718,0-27.556,4.435-38.514,13.288   C1850.443,831.949,1844.967,842.387,1844.967,854.394z"/>
</g>
</svg>