<?xml version="1.0" encoding="UTF-8"?>
<!-- Generator: Adobe Illustrator 16.0.0, SVG Export Plug-In . SVG Version: 6.00 Build 0)  -->
<!DOCTYPE svg PUBLIC "-//W3C//DTD SVG 1.1//EN" "http://www.w3.org/Graphics/SVG/1.1/DTD/svg11.dtd">
<svg version="1.1" id="svg8" sodipodi:docname="Thailand_road_sign_น-5-1.svg" inkscape:version="0.92.3 (2405546, 2018-03-11)" xmlns:sodipodi="http://sodipodi.sourceforge.net/DTD/sodipodi-0.dtd" xmlns:dc="http://purl.org/dc/elements/1.1/" xmlns:svg="http://www.w3.org/2000/svg" xmlns:inkscape="http://www.inkscape.org/namespaces/inkscape" xmlns:cc="http://creativecommons.org/ns#" xmlns:rdf="http://www.w3.org/1999/02/22-rdf-syntax-ns#" xmlns="http://www.w3.org/2000/svg" xmlns:xlink="http://www.w3.org/1999/xlink" x="0px" y="0px" width="936.133px" height="283.465px" viewBox="0 0 936.133 283.465" enable-background="new 0 0 936.133 283.465" xml:space="preserve">
<sodipodi:namedview inkscape:cy="138.81507" showgrid="false" pagecolor="#ffffff" borderopacity="1.0" bordercolor="#666666" inkscape:zoom="0.98994949" inkscape:cx="751.44238" id="base" inkscape:pageshadow="2" inkscape:window-x="-8" inkscape:pageopacity="0.0" inkscape:window-y="-8" inkscape:window-width="1920" inkscape:document-units="mm" inkscape:current-layer="layer1" inkscape:window-maximized="1" inkscape:window-height="1027">
	</sodipodi:namedview>
<g id="layer1" transform="translate(117.99095,-20.92565)" inkscape:label="Layer 1" inkscape:groupmode="layer">
	
		<path id="rect4986" inkscape:connector-curvature="0" sodipodi:nodetypes="sssssssss" fill="#FFFFFF" stroke="#000000" stroke-width="0.6112" d="   M-98.541,21.792c-10.296,0-18.584,8.288-18.584,18.584V284.94c0,10.295,8.288,18.584,18.584,18.584h897.232   c10.296,0,18.583-8.289,18.583-18.584V40.376c0-10.296-8.287-18.584-18.583-18.584H-98.541z"/>
	<path id="rect5793" inkscape:connector-curvature="0" sodipodi:nodetypes="sssssssss" d="M-96.845,35.916   c-3.215,0-5.804,2.588-5.804,5.802v242.451c0,3.215,2.589,5.802,5.804,5.802h893.594c3.214,0,5.803-2.587,5.803-5.802V41.717   c0-3.214-2.589-5.802-5.803-5.802H-96.845z"/>
	<path id="rect5795" inkscape:connector-curvature="0" sodipodi:nodetypes="ccccc" fill="#FFFFFF" d="M-90.148,49.347V276h878.627   V49.347H-90.148z"/>
	<circle id="circle9009" fill="#FFFFFF" cx="263.55" cy="117.976" r="3.147"/>
</g>
<g>
	<g>
		<path d="M137.637,204.34c-0.7,1.596-1.601,2.93-2.699,4.004c-1.101,1.074-2.325,1.904-3.675,2.49s-2.675,0.911-3.974,0.977    c-1.301,0-2.625-0.229-3.975-0.684c-1.349-0.456-2.575-1.205-3.674-2.246c-1.101-1.041-1.987-2.408-2.662-4.102    c-0.675-1.692-1.013-3.743-1.013-6.152v-94.336c0-2.407-0.463-4.622-1.387-6.641c-0.926-2.017-2.212-3.743-3.861-5.176    c-1.65-1.431-3.626-2.554-5.925-3.369c-2.3-0.813-4.824-1.221-7.573-1.221c-1.949,0-3.899,0.229-5.849,0.684    c-1.949,0.456-3.813,1.108-5.586,1.953c-1.776,0.847-3.426,1.823-4.95,2.93c-1.524,1.108-2.837,2.312-3.936,3.613    c2.499,1.628,5.049,3.501,7.647,5.615c2.6,2.116,5.273,5.161,8.024,9.131c-3,1.108-5.438,2.378-7.312,3.809    c-1.875,1.433-3.337,2.979-4.387,4.639s-1.762,3.403-2.137,5.225c-0.375,1.823-0.563,3.679-0.563,5.566v67.578    c0,2.734-0.563,5.046-1.687,6.934c-1.126,1.889-2.525,3.337-4.199,4.346c-1.677,1.009-3.5,1.563-5.475,1.66    c-1.976,0.098-3.8-0.31-5.474-1.221c-1.676-0.911-3.074-2.344-4.199-4.297s-1.688-4.427-1.688-7.422v-66.016    c0-1.953,0.212-4.019,0.638-6.201c0.424-2.181,1.074-4.28,1.949-6.299c0.874-2.017,1.987-3.89,3.337-5.615    c1.351-1.724,2.949-3.14,4.799-4.248c-0.75-0.454-1.574-0.991-2.475-1.611c-0.899-0.618-1.962-1.221-3.186-1.807    c-1.227-0.586-2.676-1.106-4.35-1.563c-1.676-0.454-3.663-0.781-5.962-0.977c2.399-6.118,5.274-11.279,8.623-15.479    s7.074-7.617,11.173-10.254c4.1-2.637,8.499-4.541,13.198-5.713c4.697-1.172,9.571-1.758,14.622-1.758    c4.697,0,9.459,0.781,14.284,2.344c4.823,1.563,9.21,3.857,13.159,6.885s7.173,6.755,9.674,11.182    c2.499,4.429,3.749,9.473,3.749,15.137v91.992C138.687,200.841,138.337,202.745,137.637,204.34z"/>
		<path d="M249.815,197.455c0,2.214-0.3,4.184-0.9,5.908c-0.6,1.726-1.413,3.19-2.437,4.395c-1.025,1.205-2.226,2.115-3.6,2.734    c-1.376,0.618-2.838,0.928-4.387,0.928c-1.151,0-2.249-0.131-3.3-0.391c-1.05-0.261-2.074-0.651-3.074-1.172    s-2.037-1.221-3.111-2.1c-1.076-0.879-2.212-1.904-3.412-3.076c-1.6-1.497-3.563-3.223-5.886-5.176    c-2.325-1.953-4.763-3.906-7.312-5.859c-2.55-1.953-5.112-3.792-7.686-5.518c-2.576-1.725-4.938-3.141-7.086-4.248    c0,4.232-0.364,8.041-1.088,11.426c-0.726,3.386-1.874,6.267-3.448,8.643c-1.575,2.377-3.613,4.216-6.112,5.518    c-2.5,1.302-5.499,1.953-8.998,1.953c-3.149,0-5.974-0.651-8.474-1.953s-4.624-3.125-6.374-5.469s-3.087-5.094-4.011-8.252    c-0.926-3.157-1.388-6.592-1.388-10.303c0-3.906,0.488-7.405,1.462-10.498c0.976-3.092,2.288-5.713,3.937-7.861    c1.65-2.148,3.549-3.841,5.7-5.078c2.148-1.236,4.373-1.953,6.673-2.148l-0.3-1.953v-46.875c-3.25-1.563-5.899-4.053-7.948-7.471    c-2.051-3.418-3.075-7.437-3.075-12.061c0-2.93,0.451-5.647,1.351-8.154c0.899-2.505,2.11-4.702,3.637-6.592    c1.524-1.888,3.311-3.369,5.361-4.443c2.049-1.074,4.224-1.611,6.523-1.611c2.399,0,4.637,0.537,6.711,1.611    s3.874,2.556,5.399,4.443c1.524,1.89,2.711,4.087,3.562,6.592c0.85,2.507,1.249,5.225,1.2,8.154v71.973    c2.399,0.912,4.936,2.051,7.611,3.418c2.673,1.367,5.297,2.832,7.872,4.395c2.574,1.563,5.024,3.125,7.349,4.688    s4.337,2.995,6.037,4.297V83.099c0-2.734,0.563-5.044,1.687-6.934c1.125-1.888,2.55-3.32,4.274-4.297s3.573-1.497,5.549-1.563    c1.975-0.063,3.824,0.358,5.549,1.27c1.725,0.913,3.149,2.329,4.274,4.248c1.125,1.921,1.688,4.346,1.688,7.275V197.455z     M175.505,177.045h-1.199c-1.701,0-3.149,0.717-4.35,2.148c-1.2,1.433-1.8,3.646-1.8,6.641c0,2.409,0.312,4.477,0.938,6.201    c0.624,1.726,1.638,2.588,3.037,2.588c0.799,0,1.562-0.309,2.287-0.928c0.724-0.618,1.087-1.644,1.087-3.076V177.045z"/>
		<path d="M300.205,193.842c0,2.734-0.375,5.29-1.124,7.666c-0.75,2.377-1.775,4.443-3.075,6.201s-2.824,3.157-4.574,4.199    c-1.75,1.041-3.625,1.563-5.623,1.563c-2.1,0-4.05-0.505-5.85-1.514c-1.8-1.01-3.362-2.393-4.686-4.15    c-1.326-1.758-2.362-3.809-3.112-6.152s-1.125-4.817-1.125-7.422c0-2.669,0.375-5.191,1.125-7.568    c0.75-2.376,1.786-4.443,3.112-6.201c1.323-1.758,2.86-3.157,4.61-4.199c1.75-1.041,3.625-1.563,5.625-1.563    c2.049,0,3.974,0.505,5.773,1.514c1.8,1.01,3.361,2.393,4.687,4.15c1.324,1.758,2.362,3.793,3.112,6.104    C299.83,188.78,300.205,191.238,300.205,193.842z"/>
	</g>
	<g>
		<path d="M400.104,211.42h-77.916c0.276-11.387,2.708-22.949,7.291-34.688c4.584-11.734,10.104-21.527,16.563-29.375    c6.459-7.845,13.09-14.271,19.896-19.271c4.166-3.053,7.708-6.214,10.625-9.479c2.916-3.262,4.375-7.116,4.375-11.563    c0-4.303-1.911-8.366-5.729-12.188c-3.821-3.818-8.438-5.729-13.854-5.729c-5.416,0-10.035,1.911-13.854,5.729    c-3.822,3.822-5.729,8.438-5.729,13.854h-19.583c0.276-10.276,4.131-19.375,11.563-27.292    c7.428-7.917,16.631-11.875,27.604-11.875c10.693,0,19.824,3.473,27.396,10.417c7.568,6.947,11.354,15.697,11.354,26.25    c0,6.25-1.39,12.328-4.166,18.229c-2.78,5.905-8.613,12.467-17.5,19.688c-10.417,8.195-18.197,16.25-23.334,24.166    c-5.14,7.916-8.541,15.766-10.208,23.541h55.208V211.42z"/>
		<path d="M456.977,213.92c-14.307,0-24.792-6.006-31.458-18.021c-6.667-12.012-10-30.104-10-54.27c0-23.887,3.333-41.875,10-53.958    c6.666-12.083,17.151-18.125,31.458-18.125c14.304,0,24.792,6.042,31.458,18.125c6.668,12.083,10,30.072,10,53.958    c0,24.167-3.332,42.258-10,54.27C481.769,207.914,471.281,213.92,456.977,213.92z M456.977,194.336    c7.637,0.141,13.126-4.094,16.458-12.707c3.334-8.611,5-22.084,5-40.417c0-18.053-1.666-31.25-5-39.583    c-3.332-8.333-8.821-12.5-16.458-12.5c-7.641,0-13.125,4.167-16.459,12.5c-3.333,8.333-4.999,21.53-4.999,39.583    c0,18.333,1.666,31.806,4.999,40.417C443.852,190.242,449.337,194.476,456.977,194.336z"/>
		<path d="M598.433,150.17h-34.375v33.75h-18.75v-33.75h-33.541v-18.958h33.541V97.253h18.75v33.958h34.375V150.17z"/>
		<path d="M690.722,119.336c-0.279,15.974-4.932,32.468-13.957,49.48c-9.031,17.014-20.906,32.051-35.625,45.104l-11.459-15    c13.609-12.916,24.027-27.221,31.25-42.916c-2.363,1.113-5.072,1.666-8.125,1.666c-12.5-0.416-22.291-4.584-29.375-12.5    c-7.084-7.917-10.625-18.61-10.625-32.083c0-13.333,3.541-23.922,10.625-31.771c7.084-7.845,16.596-11.771,28.541-11.771    c11.668,0,21.043,4.134,28.125,12.396C687.181,90.205,690.722,102.67,690.722,119.336z M671.556,114.961    c0-7.776-1.807-14.026-5.416-18.75c-3.613-4.72-8.334-7.083-14.168-7.083c-6.113,0-10.904,2.155-14.375,6.458    c-3.473,4.307-5.207,10.14-5.207,17.5c0,7.5,1.734,13.438,5.207,17.813c3.471,4.375,8.262,6.563,14.375,6.563    c5.834,0,10.555-2.047,14.168-6.146C669.75,127.22,671.556,121.768,671.556,114.961z"/>
		<path d="M747.595,213.92c-14.307,0-24.791-6.006-31.459-18.021c-6.666-12.012-10-30.104-10-54.27c0-23.887,3.334-41.875,10-53.958    c6.668-12.083,17.152-18.125,31.459-18.125c14.303,0,24.791,6.042,31.459,18.125c6.666,12.083,10,30.072,10,53.958    c0,24.167-3.334,42.258-10,54.27C772.386,207.914,761.898,213.92,747.595,213.92z M747.595,194.336    c7.637,0.141,13.125-4.094,16.459-12.707c3.332-8.611,5-22.084,5-40.417c0-18.053-1.668-31.25-5-39.583    c-3.334-8.333-8.822-12.5-16.459-12.5c-7.641,0-13.125,4.167-16.459,12.5c-3.332,8.333-5,21.53-5,39.583    c0,18.333,1.668,31.806,5,40.417C734.47,190.242,739.955,194.476,747.595,194.336z"/>
		<path d="M844.469,213.92c-14.307,0-24.791-6.006-31.459-18.021c-6.666-12.012-10-30.104-10-54.27c0-23.887,3.334-41.875,10-53.958    c6.668-12.083,17.152-18.125,31.459-18.125c14.303,0,24.791,6.042,31.459,18.125c6.666,12.083,10,30.072,10,53.958    c0,24.167-3.334,42.258-10,54.27C869.26,207.914,858.771,213.92,844.469,213.92z M844.469,194.336    c7.637,0.141,13.125-4.094,16.459-12.707c3.332-8.611,5-22.084,5-40.417c0-18.053-1.668-31.25-5-39.583    c-3.334-8.333-8.822-12.5-16.459-12.5c-7.641,0-13.125,4.167-16.459,12.5c-3.332,8.333-5,21.53-5,39.583    c0,18.333,1.668,31.806,5,40.417C831.344,190.242,836.828,194.476,844.469,194.336z"/>
	</g>
</g>
</svg>