<?xml version="1.0" encoding="UTF-8"?>
<svg version="1.1" id="Layer_1" xmlns="http://www.w3.org/2000/svg" xmlns:xlink="http://www.w3.org/1999/xlink" x="0px" y="0px" viewBox="0 0 900 600" style="enable-background:new 0 0 900 600;" xml:space="preserve">
<style type="text/css">
	.st0{fill:#003F87;}
	.st1{fill:#FFFFFF;}
</style>
<g>
	<path class="st0" d="M45,585c-16.542,0-30-13.458-30-30V45c0-16.542,13.458-30,30-30h810c16.542,0,30,13.458,30,30v510   c0,16.542-13.458,30-30,30H45z"/>
	<path class="st1" d="M855,30c8.131,0,15,6.869,15,15v510c0,8.131-6.869,15-15,15H45c-8.131,0-15-6.869-15-15V45   c0-8.131,6.869-15,15-15H855 M855,0H45C20.25,0,0,20.25,0,45v510c0,24.75,20.25,45,45,45h810c24.75,0,45-20.25,45-45V45   C900,20.25,879.75,0,855,0L855,0z"/>
</g>
<g>
	<path d="M855,2c23.71,0,43,19.29,43,43v510c0,23.71-19.29,43-43,43H45c-23.71,0-43-19.29-43-43V45C2,21.29,21.29,2,45,2H855 M855,0   H45C20.25,0,0,20.25,0,45v510c0,24.75,20.25,45,45,45h810c24.75,0,45-20.25,45-45V45C900,20.25,879.75,0,855,0L855,0z"/>
</g>
<g>
	<path class="st1" d="M107,344l-19,56H54l68-200h32l68,200h-34l-19-56H107z M158,312l-20-58l-20,58H158z"/>
	<path class="st1" d="M394,400h-32v-88h-72v88h-32V200h32v80h72v-80h32V400z"/>
	<path class="st1" d="M490,400h-32V240h-16v-24c10.666-1.331,18.666-6.666,24-16h24V400z"/>
	<path class="st1" d="M538,400c0-42.666,19.2-76.865,57.6-102.6l33-21C637.531,270.8,642,264,642,256s-3.334-14.666-10-20   c-6.669-5.331-15.334-8-26-8c-10.669,0-18.9,2.4-24.7,7.2c-5.8,4.8-9.568,11.734-11.3,20.8l-32-6c3.065-16.4,10.831-29.5,23.3-39.3   c12.466-9.8,27.366-14.7,44.7-14.7c20,0,36.331,6,49,18c12.666,12,19,26,19,42c0,18.669-8.8,33.8-26.4,45.4l-37.6,25   c-17.6,11.734-28.935,25.6-34,41.6h98v32H538z"/>
	<path class="st1" d="M846,336c0,21.334-6,38-18,50s-28.669,18-50,18c-34.669,0-57.334-16-68-48l30-12c6.666,18.669,19.331,28,38,28   c10.666,0,19.331-3.331,26-10c6.666-6.666,10-15.331,10-26c0-18.666-9.334-28-28-28h-8v-32h8c13.331,0,20-6.666,20-20   c0-8-2.669-14.666-8-20c-5.334-5.331-12-8-20-8c-13.334,0-23.469,6.8-30.4,20.4l-29.6-12c5.065-12.666,13-22.566,23.8-29.7   c10.8-7.132,22.866-10.7,36.2-10.7c16,0,30,6,42,18s18,26,18,42c0,13.334-4,24.669-12,34C839.331,302,846,317.334,846,336z"/>
</g>
</svg>