<?xml version="1.0" encoding="UTF-8" standalone="no"?>
<!DOCTYPE svg PUBLIC "-//W3C//DTD SVG 1.1//EN" "http://www.w3.org/Graphics/SVG/1.1/DTD/svg11.dtd">
<!-- GeoHints -->
<svg width="100%" height="100%" viewBox="0 0 400 240" version="1.1" xmlns="http://www.w3.org/2000/svg" xmlns:xlink="http://www.w3.org/1999/xlink" xml:space="preserve" xmlns:serif="http://www.serif.com/" style="fill-rule:evenodd;clip-rule:evenodd;stroke-linejoin:round;stroke-miterlimit:2;">
    <path d="M400,40.103C400,17.97 382.03,0 359.897,0L40.103,0C17.97,0 0,17.97 0,40.103L0,199.897C0,222.03 17.97,240 40.103,240L359.897,240C382.03,240 400,222.03 400,199.897L400,40.103Z" style="fill:white;"/>
    <path d="M387.619,42.888C387.619,26.138 374.02,12.54 357.27,12.54L42.73,12.54C25.98,12.54 12.381,26.138 12.381,42.888L12.381,197.112C12.381,213.862 25.98,227.46 42.73,227.46L357.27,227.46C374.02,227.46 387.619,213.862 387.619,197.112L387.619,42.888Z" style="fill:rgb(0,92,161);"/>
    <g>
        <path d="M104.61,55.598C111.49,55.448 118.37,55.578 125.25,55.518C125.24,82.768 125.24,110.018 125.25,137.278C130.54,137.268 135.83,137.208 141.12,137.338C141.12,144.468 141.15,151.588 141.1,158.718C135.81,158.738 130.53,158.728 125.24,158.718C125.24,167.308 125.26,175.898 125.23,184.488C117.29,184.448 109.36,184.558 101.43,184.418C101.5,175.848 101.43,167.288 101.47,158.728C83.84,158.728 66.22,158.718 48.6,158.728C48.61,151.568 48.6,144.408 48.61,137.248C67.3,110.048 86.07,82.898 104.61,55.598M71.8,137.228C81.68,137.318 91.57,137.228 101.45,137.278C101.46,122.678 101.46,108.088 101.46,93.488C91.52,108.028 81.65,122.628 71.8,137.228Z" style="fill:white;fill-rule:nonzero;"/>
        <path d="M211.92,55.508C218.74,55.548 225.55,55.548 232.37,55.508C232.36,82.758 232.36,110.018 232.37,137.278C237.66,137.268 242.95,137.228 248.24,137.318C248.22,144.448 248.25,151.588 248.22,158.718C242.93,158.738 237.65,158.738 232.37,158.708C232.35,167.288 232.38,175.878 232.35,184.458C224.43,184.488 216.5,184.498 208.58,184.458C208.57,175.878 208.57,167.298 208.58,158.718C190.96,158.738 173.33,158.718 155.71,158.728C156.1,151.398 154.94,143.788 156.27,136.628C174.71,109.518 193.35,82.528 211.92,55.508M178.9,137.228C188.79,137.318 198.68,137.228 208.57,137.278C208.56,122.678 208.6,108.078 208.55,93.468C198.67,108.058 188.77,122.628 178.9,137.228Z" style="fill:white;fill-rule:nonzero;"/>
        <path d="M319.01,55.518C325.83,55.538 332.64,55.548 339.46,55.508C339.5,82.758 339.46,110.018 339.48,137.278C344.76,137.258 350.04,137.258 355.32,137.278C355.35,144.428 355.33,151.578 355.33,158.738C350.04,158.728 344.75,158.728 339.46,158.728C339.49,167.298 339.48,175.878 339.47,184.458C331.54,184.498 323.62,184.478 315.7,184.468C315.68,175.888 315.7,167.298 315.69,158.708C298.08,158.748 280.47,158.718 262.85,158.728C263.15,151.408 262.12,143.848 263.34,136.688C281.79,109.568 300.47,82.578 319.01,55.518M286.02,137.238C295.9,137.328 305.78,137.168 315.66,137.348C315.71,122.708 315.71,108.068 315.67,93.418C305.82,108.048 295.88,122.618 286.02,137.238Z" style="fill:white;fill-rule:nonzero;"/>
    </g>
</svg>
