<?xml version="1.0" encoding="UTF-8" standalone="no"?>
<!-- Created with Inkscape (http://www.inkscape.org/) -->
<svg xmlns:dc="http://purl.org/dc/elements/1.1/" xmlns:cc="http://creativecommons.org/ns#" xmlns:rdf="http://www.w3.org/1999/02/22-rdf-syntax-ns#" xmlns:svg="http://www.w3.org/2000/svg" xmlns="http://www.w3.org/2000/svg" version="1.1" width="600" height="600" viewBox="0 0 600 600" id="Layer_1" xml:space="preserve" style="overflow:visible"><metadata id="metadata20"><rdf:RDF><cc:Work rdf:about=""><dc:format>image/svg+xml</dc:format><dc:type rdf:resource="http://purl.org/dc/dcmitype/StillImage"/><dc:title/></cc:Work></rdf:RDF></metadata><defs id="defs18"/><path d="M 300,300" id="path7"/><path d="m 300,10.00293 c 23.56445,20.075195 54.11719,32.191406 87.5,32.191406 33.38281,0 63.93555,-12.119141 87.5,-32.194336 l 115,115 c -21.16211,30.08105 -33.58789,66.75391 -33.58789,106.32617 0,28.46387 6.42676,55.42481 17.91016,79.5127 C 584.24414,331.66406 590,355.39453 590,380 590,468.36719 518.36719,540 430,540 H 404.88672 C 362.54199,540 324.75098,559.49512 300,590 275.24854,559.49512 237.45801,540 195.11328,540 H 169.99951 C 81.632813,540 9.9995117,468.36719 9.9995117,380 c 0,-24.60547 5.7563473,-48.33594 15.6787113,-69.16113 11.482422,-24.08789 17.910156,-51.04883 17.910156,-79.5127 C 43.588379,191.75391 31.161621,155.08105 10,125 L 125,10 c 23.56445,20.075195 54.1167,32.194336 87.5,32.194336 33.38281,0 63.93555,-12.116211 87.5,-32.191406 z" id="path11" style="fill:#ffffff;fill-opacity:1;fill-rule:evenodd"/><g id="g3886"><path d="M 0,50 C 0,22.385742 22.385254,0 50,0 h 500 c 27.61426,0 50,22.385742 50,50 v 500 c 0,27.61523 -22.38574,50 -50,50 H 50 C 22.385254,600 0,577.61523 0,550 V 50 l 0,0 z" id="path5"/><path d="m 300,10.00293 c 23.56445,20.075195 54.11719,32.191406 87.5,32.191406 33.38281,0 63.93555,-12.119141 87.5,-32.194336 l 115,115 c -21.16211,30.08105 -33.58789,66.75391 -33.58789,106.32617 0,28.46387 6.42676,55.42481 17.91016,79.5127 C 584.24414,331.66406 590,355.39453 590,380 590,468.36719 518.36719,540 430,540 H 404.88672 C 362.54199,540 324.75098,559.49512 300,590 275.24854,559.49512 237.45801,540 195.11328,540 H 169.99951 C 81.632813,540 9.9995117,468.36719 9.9995117,380 c 0,-24.60547 5.7563473,-48.33594 15.6787113,-69.16113 11.482422,-24.08789 17.910156,-51.04883 17.910156,-79.5127 C 43.588379,191.75391 31.161621,155.08105 10,125 L 125,10 c 23.56445,20.075195 54.1167,32.194336 87.5,32.194336 33.38281,0 63.93555,-12.116211 87.5,-32.191406 z" id="path13" style="fill:#ffffff;fill-opacity:1;fill-rule:evenodd;stroke:#000000;stroke-linecap:round;stroke-linejoin:round;stroke-miterlimit:3.863693"/></g><g id="text1343" style="font-size:447.76119995px;font-style:normal;font-variant:normal;font-weight:normal;font-stretch:normal;text-align:center;line-height:125%;writing-mode:lr-tb;text-anchor:middle;font-family:Roadgeek 2005 Series D"><path d="m 270.38129,326.90298 c -2.4e-4,16.71652 -3.28382,32.08963 -9.85075,46.11941 -6.26887,14.0299 -15.22409,26.26869 -26.86567,36.71642 -11.64198,10.44777 -25.52256,18.65672 -41.64179,24.62686 -15.82104,5.67164 -33.28371,8.50746 -52.38806,8.50746 -13.13442,0 -26.11948,-1.49254 -38.95523,-4.47761 -12.537363,-2.98507 -24.029889,-7.16417 -34.47761,-12.53731 l 23.283582,-42.08955 c 6.268598,3.28363 14.477548,5.97019 24.626868,8.0597 10.14916,1.79109 20.74617,2.68661 31.79104,2.68656 10.74615,5e-5 20.74614,-1.64174 30,-4.92537 9.55209,-3.58204 17.76104,-8.35815 24.62687,-14.32836 7.16401,-5.97008 12.68639,-12.985 16.56716,-21.04477 3.88042,-8.35812 5.82071,-17.46259 5.8209,-27.31344 -1.9e-4,-7.46256 -1.49272,-14.32823 -4.47761,-20.59701 -2.68675,-6.26852 -6.56734,-11.7909 -11.64179,-16.56717 -4.77629,-4.77596 -10.44792,-8.5073 -17.01493,-11.19403 -6.2688,-2.6864 -13.13447,-4.02968 -20.59701,-4.02985 -5.37327,1.7e-4 -10.14938,0.44793 -14.32836,1.34329 -3.88071,0.89568 -7.61205,2.53747 -11.19403,4.92537 -3.5822,2.38821 -7.16428,5.67179 -10.74627,9.85075 -3.58218,3.88074 -7.61203,8.95536 -12.08955,15.22388 L 73.366359,292.42537 80.978299,137.5 l 172.388061,0 0,47.46268 -126.26866,0 -3.13433,49.25374 c 11.04468,-3.28338 19.70139,-5.52218 25.97015,-6.71642 6.26854,-1.19382 13.13421,-1.79084 20.59702,-1.79105 13.73119,2.1e-4 26.567,2.68678 38.50746,8.0597 12.23862,5.37334 22.83563,12.68676 31.79105,21.9403 9.25352,9.25391 16.41769,20.00016 21.49254,32.23881 5.3729,12.23894 8.05946,25.224 8.0597,38.95522" id="path4444"/><path d="m 533.61591,227.94776 c -2.4e-4,20.5972 -2.83606,41.1942 -8.50747,61.79104 -5.37335,20.29864 -13.13454,39.85086 -23.28358,58.65672 -10.14945,18.80604 -22.38824,36.26871 -36.71642,52.38806 -14.32851,16.11943 -30.14939,30.14926 -47.46268,42.08955 l -22.83583,-40.2985 c 8.95512,-7.16414 16.86556,-14.02981 23.73135,-20.59702 7.16405,-6.86561 13.58195,-13.88053 19.25373,-21.04478 5.6715,-7.16409 10.89537,-14.77602 15.67164,-22.83582 4.77596,-8.05959 9.40282,-17.01481 13.8806,-26.86567 -8.65688,1.49266 -15.37329,2.53744 -20.14926,3.13433 -4.47775,0.59714 -9.70163,0.89564 -15.67164,0.89552 -14.02997,1.2e-4 -27.31354,-2.38793 -39.85074,-7.16418 -12.23889,-4.77598 -22.98515,-11.19389 -32.23881,-19.25373 -9.25378,-8.35805 -16.56721,-18.05953 -21.9403,-29.10448 -5.37317,-11.34309 -8.05973,-23.28338 -8.0597,-35.82089 -3e-5,-12.8356 2.68653,-24.77588 8.0597,-35.8209 5.37309,-11.34302 12.53726,-21.0445 21.49254,-29.10448 9.25366,-8.35792 19.99992,-14.92508 32.2388,-19.70149 12.53721,-4.77582 25.97004,-7.16387 40.29851,-7.16418 14.32821,3.1e-4 27.76104,2.53762 40.29851,7.61194 12.53713,4.77641 23.28339,11.49283 32.23881,20.14926 9.25351,8.35847 16.41769,18.35846 21.49253,30 5.37291,11.64202 8.05947,24.32858 8.05971,38.0597 m -47.46269,-4.02985 c -1.9e-4,-5.67142 -1.49272,-11.19381 -4.47761,-16.56717 -2.98526,-5.3729 -7.0151,-9.99976 -12.08956,-13.88059 -4.77628,-3.88035 -10.44792,-7.01468 -17.01492,-9.40299 -6.56731,-2.3878 -13.58223,-3.58183 -21.04478,-3.58209 -7.46281,2.6e-4 -14.47773,1.19429 -21.04477,3.58209 -6.26877,2.0898 -11.9404,5.07488 -17.01493,8.95522 -4.77621,3.88084 -8.6568,8.5077 -11.64179,13.8806 -2.68665,5.37336 -4.02993,11.045 -4.02985,17.01493 -8e-5,5.97035 1.3432,11.64199 4.02985,17.01492 2.98499,5.07482 6.86558,9.55243 11.64179,13.43284 5.07453,3.88078 10.74616,7.0151 17.01493,9.40298 6.56704,2.08973 13.58196,3.1345 21.04477,3.13433 7.46255,1.7e-4 14.47747,-1.0446 21.04478,-3.13433 6.86551,-2.38788 12.6864,-5.5222 17.46269,-9.40298 5.07445,-3.88041 8.95504,-8.35802 11.64179,-13.43284 2.98489,-5.37293 4.47742,-11.04457 4.47761,-17.01492" id="path4446"/></g></svg>