<?xml version="1.0" encoding="UTF-8" standalone="no"?>
<!-- Created with Inkscape (http://www.inkscape.org/) -->
<svg xmlns:dc="http://purl.org/dc/elements/1.1/" xmlns:cc="http://creativecommons.org/ns#" xmlns:rdf="http://www.w3.org/1999/02/22-rdf-syntax-ns#" xmlns:svg="http://www.w3.org/2000/svg" xmlns="http://www.w3.org/2000/svg" xmlns:sodipodi="http://sodipodi.sourceforge.net/DTD/sodipodi-0.dtd" xmlns:inkscape="http://www.inkscape.org/namespaces/inkscape" version="1.0" width="601" height="601" viewBox="0 0 600 599.999" id="Layer_1" xml:space="preserve" sodipodi:version="0.32" inkscape:version="0.46" sodipodi:docname="I-29_(MO).svg" inkscape:output_extension="org.inkscape.output.svg.inkscape"><metadata id="metadata15"><rdf:RDF><cc:Work rdf:about=""><dc:format>image/svg+xml</dc:format><dc:type rdf:resource="http://purl.org/dc/dcmitype/StillImage"/></cc:Work></rdf:RDF></metadata><sodipodi:namedview inkscape:window-height="744" inkscape:window-width="1280" inkscape:pageshadow="2" inkscape:pageopacity="0.0" guidetolerance="10.0" gridtolerance="10.0" objecttolerance="10.0" borderopacity="1.0" bordercolor="#666666" pagecolor="#ffffff" id="base" showgrid="false" inkscape:zoom="1.21" inkscape:cx="300.5" inkscape:cy="300.5" inkscape:window-x="-4" inkscape:window-y="-4" inkscape:current-layer="Layer_1"/><defs id="defs1659"><inkscape:perspective sodipodi:type="inkscape:persp3d" inkscape:vp_x="0 : 300.5 : 1" inkscape:vp_y="0 : 1000 : 0" inkscape:vp_z="601 : 300.5 : 1" inkscape:persp3d-origin="300.5 : 200.33333 : 1" id="perspective17"/>
	
	
	
	

	
	
	
	
<inkscape:perspective id="perspective2486" inkscape:persp3d-origin="300.5 : 200.33333 : 1" inkscape:vp_z="601 : 300.5 : 1" inkscape:vp_y="0 : 1000 : 0" inkscape:vp_x="0 : 300.5 : 1" sodipodi:type="inkscape:persp3d"/></defs>
<g transform="matrix(0.998336, 0, 0, 0.998338, 0.499168, 0.498686)" id="g1600" style="fill: rgb(255, 255, 255); fill-opacity: 1; stroke: rgb(0, 0, 0); stroke-width: 0.999999; stroke-miterlimit: 4; stroke-dasharray: none; stroke-opacity: 1;">
		<path d="M 80.75293,0 C 115.42871,10.583496 152.23779,16.276856 190.37695,16.276856 C 228.51563,16.276856 265.32422,10.583496 300,0.0004883 C 334.67578,10.583496 371.48438,16.276856 409.62305,16.276856 C 447.76172,16.276856 484.57129,10.583496 519.24707,0 C 569.8125,63.908203 600,144.67822 600,232.5 C 600,413.92383 471.16992,565.25391 300,599.99902 C 128.83008,565.25391 0,413.92383 0,232.5 C 0,144.67822 30.187988,63.907715 80.75293,0 z" id="path1602" style="fill: rgb(255, 255, 255); fill-opacity: 1; stroke: rgb(0, 0, 0); stroke-width: 0.999999; stroke-miterlimit: 4; stroke-dasharray: none; stroke-opacity: 1;"/>
		
			<path d="M 80.75293,0 C 115.42871,10.583496 152.23779,16.276856 190.37695,16.276856 C 228.51563,16.276856 265.32422,10.583496 300,0.0004883 C 334.67578,10.583496 371.48438,16.276856 409.62305,16.276856 C 447.76172,16.276856 484.57129,10.583496 519.24707,0 C 569.8125,63.908203 600,144.67822 600,232.5 C 600,413.92383 471.16992,565.25391 300,599.99902 C 128.83008,565.25391 0,413.92383 0,232.5 C 0,144.67822 30.187988,63.907715 80.75293,0 z" id="path1604" style="fill: rgb(255, 255, 255); fill-opacity: 1; stroke: rgb(0, 0, 0); stroke-width: 0.999999; stroke-linecap: round; stroke-linejoin: round; stroke-miterlimit: 4; stroke-dasharray: none; stroke-opacity: 1;"/>
	</g><g transform="matrix(1.00709, 0, 0, 1.01028, -2.12803, -3.66885)" id="g1606" style="fill: rgb(0, 63, 135); fill-opacity: 1; stroke: none; stroke-opacity: 1;">
		<path d="M 15,232.5 C 15,200.521 19.169434,169.51611 26.994629,139.99902 L 573.00586,139.99902 C 580.83008,169.51611 585,200.521 585,232.5 C 585,405.60547 462.82617,550.17188 300,584.67676 C 137.17432,550.17188 15,405.60547 15,232.5 z" id="path1608" style="fill: rgb(0, 63, 135); fill-opacity: 1; stroke: none; stroke-opacity: 1;"/>
	</g><g transform="matrix(1.01255, 0, 0, 1.02715, -3.7638, -3.10175)" id="g1610" style="fill: rgb(175, 30, 45); fill-opacity: 1; stroke: none; stroke-opacity: 1;">
		<path d="M 31.324219,124.99902 C 43.579102,85.77832 62.362793,49.44043 86.402832,17.259766 C 119.50439,26.392578 154.37061,31.272461 190.37695,31.272461 C 228.4375,31.272461 265.22461,25.820801 300,15.654785 C 334.77539,25.820801 371.5625,31.272461 409.62305,31.272461 C 445.62891,31.272461 480.49609,26.392578 513.59766,17.259766 C 537.63672,49.44043 556.4209,85.77832 568.67578,124.99902 L 31.324219,124.99902 L 31.324219,124.99902 z" id="path1612" style="fill: rgb(175, 30, 45); fill-opacity: 1; stroke: none; stroke-opacity: 1;"/>
	</g>







<path d="M 108.86859,112.81165 L 108.86859,50.416161 L 117.60967,50.416161 L 117.60967,112.81165 L 108.86859,112.81165 z M 159.56965,112.81165 L 140.31942,70.997717 L 140.31942,112.81165 L 131.39104,112.81165 L 131.39104,50.416161 L 140.31942,50.416161 L 157.42977,87.853449 L 157.42977,50.416161 L 166.35816,50.416161 L 166.35816,112.81165 L 159.56965,112.81165 z M 195.41654,58.706192 L 195.41654,112.81165 L 186.39735,112.81165 L 186.39735,58.706192 L 175.05098,58.706192 L 175.05098,50.416161 L 206.7629,50.416161 L 206.7629,58.706192 L 195.41654,58.706192 z M 215.30532,112.81165 L 215.30532,50.416161 L 244.59927,50.416161 L 244.59927,59.172274 L 224.2337,59.172274 L 224.2337,74.908269 L 237.16084,74.908269 L 237.16084,83.476813 L 224.2337,83.476813 L 224.2337,104.05837 L 247.01726,104.05837 L 247.01726,112.81165 L 215.30532,112.81165 z M 283.20473,112.81165 L 274.92624,83.476813 L 266.37247,83.476813 L 266.37247,112.81165 L 257.4441,112.81165 L 257.4441,50.416161 L 276.04442,50.416161 C 278.46238,50.416224 280.67885,50.819784 282.69389,51.62684 C 284.70884,52.434021 286.44475,53.551862 287.90163,54.980368 C 289.35844,56.408988 290.47425,58.162956 291.24907,60.242277 C 292.02379,62.321703 292.41119,64.60333 292.41123,67.087165 C 292.41119,70.812085 291.66716,73.978511 290.17914,76.586455 C 288.69102,79.19447 286.45894,81.056433 283.48285,82.172347 L 292.41123,112.81165 L 283.20473,112.81165 z M 283.67015,67.087165 C 283.67012,64.665853 282.92609,62.741367 281.43805,61.313699 C 279.94996,59.886136 277.99694,59.172328 275.579,59.172274 L 266.37247,59.172274 L 266.37247,74.908269 L 275.579,74.908269 C 278.18236,74.908307 280.18173,74.240918 281.57712,72.906101 C 282.97244,71.571363 283.67012,69.631721 283.67015,67.087165 L 283.67015,67.087165 z M 334.56419,95.768339 C 334.56416,98.31476 334.11481,100.6897 333.21614,102.89316 C 332.31739,105.09665 331.07766,107.00549 329.49693,108.61973 C 327.91613,110.23398 326.08704,111.52233 324.00964,112.48482 C 321.93219,113.4473 319.68449,113.92853 317.26652,113.92853 C 314.53824,113.92853 312.08951,113.40088 309.92033,112.34556 C 307.75114,111.29024 305.92252,109.86263 304.43447,108.0627 C 302.9464,106.26279 301.79937,104.18295 300.99337,101.82315 C 300.18737,99.463388 299.78437,97.011244 299.78438,94.466716 L 308.52546,94.466716 C 308.52544,95.770251 308.69573,97.058136 309.0363,98.330376 C 309.37684,99.602646 309.90376,100.75127 310.61707,101.77627 C 311.33035,102.80129 312.22952,103.62404 313.3146,104.24452 C 314.39964,104.86503 315.71694,105.17527 317.26652,105.17526 C 318.44523,105.17527 319.57711,104.92707 320.66221,104.43067 C 321.74724,103.93429 322.67716,103.25127 323.45197,102.38161 C 324.22672,101.51197 324.84634,100.50307 325.31087,99.354907 C 325.77533,98.206766 326.00757,97.011244 326.0076,95.768339 C 326.00757,93.968443 325.63579,92.37031 324.89226,90.973934 C 324.14867,89.577602 322.84697,88.165144 320.98716,86.736554 C 320.67685,86.425859 320.55292,86.254867 320.61538,86.223579 C 320.6778,86.192343 320.49191,86.021825 320.05771,85.712023 C 319.62347,85.402277 318.70868,84.796937 317.31335,83.896004 C 315.91798,82.995129 313.63953,81.459044 310.478,79.287747 C 307.93703,77.548497 306.03083,75.514594 304.75942,73.186035 C 303.48797,70.857556 302.85226,68.296942 302.85226,65.504186 C 302.85226,63.268552 303.25526,61.173074 304.06128,59.217745 C 304.86725,57.262525 305.99866,55.539819 307.45551,54.049621 C 308.91235,52.559541 310.60192,51.395283 312.52421,50.556838 C 314.44647,49.718521 316.52295,49.29933 318.75365,49.299267 C 320.98618,49.29933 323.04799,49.70289 324.93908,50.509945 C 326.83013,51.317127 328.47286,52.434967 329.86729,53.863473 C 331.26166,55.292095 332.37747,56.999643 333.21474,58.986126 C 334.0519,60.972715 334.50173,63.1454 334.56419,65.504186 L 326.0076,65.504186 C 325.88459,63.331075 325.14102,61.592738 323.77692,60.289169 C 322.41275,58.985706 320.73833,58.333948 318.75365,58.333894 C 316.70836,58.333948 314.97291,59.016967 313.54731,60.382954 C 312.12167,61.749046 311.40886,63.456122 311.40887,65.504186 C 311.40886,67.055948 311.81186,68.359465 312.61787,69.41474 C 313.42384,70.4701 314.97339,71.649518 317.26652,72.952995 C 323.28119,76.429707 327.6678,79.968432 330.42638,83.569177 C 333.1849,87.16998 334.56416,91.236364 334.56419,95.768339 L 334.56419,95.768339 z M 360.52064,58.706192 L 360.52064,112.81165 L 351.50144,112.81165 L 351.50144,58.706192 L 340.15508,58.706192 L 340.15508,50.416161 L 371.867,50.416161 L 371.867,58.706192 L 360.52064,58.706192 z M 406.44816,112.81165 L 402.07763,95.768339 L 388.68506,95.768339 L 384.59548,112.81165 L 375.57345,112.81165 L 391.10305,50.416161 L 399.84695,50.416161 L 415.37654,112.81165 L 406.44816,112.81165 z M 395.2891,69.042441 L 390.91856,87.015068 L 399.84695,87.015068 L 395.2891,69.042441 z M 439.53084,58.706192 L 439.53084,112.81165 L 430.51165,112.81165 L 430.51165,58.706192 L 419.16529,58.706192 L 419.16529,50.416161 L 450.87721,50.416161 L 450.87721,58.706192 L 439.53084,58.706192 z M 459.41964,112.81165 L 459.41964,50.416161 L 488.71358,50.416161 L 488.71358,59.172274 L 468.34802,59.172274 L 468.34802,74.908269 L 481.27515,74.908269 L 481.27515,83.476813 L 468.34802,83.476813 L 468.34802,104.05837 L 491.13157,104.05837 L 491.13157,112.81165 L 459.41964,112.81165 z" id="text6060" style="font-size: 93.2159px; font-style: normal; font-variant: normal; font-weight: normal; font-stretch: normal; text-align: center; line-height: 125%; text-anchor: middle; fill: rgb(255, 255, 255); fill-opacity: 1;"/>




<path d="M 215.8299,187.69693 L 215.8299,166.3569 L 207.30497,187.69693 L 198.78003,166.3569 L 198.78003,187.69693 L 192.94904,187.69693 L 192.94904,150.84618 L 198.78003,150.84618 L 207.30497,171.52658 L 215.8299,150.84618 L 221.65922,150.84618 L 221.65922,187.69693 L 215.8299,187.69693 z M 230.43928,187.69693 L 230.43928,150.84618 L 236.37938,150.84618 L 236.37938,187.69693 L 230.43928,187.69693 z M 267.65258,177.0823 C 267.65255,178.76861 267.34064,180.32679 266.71683,181.75683 C 266.09298,183.18689 265.19472,184.43343 264.02206,185.49646 C 262.99481,186.4129 261.79387,187.1187 260.41923,187.61385 C 259.04454,188.10899 257.56889,188.35657 255.99227,188.35657 C 252.80205,188.35657 250.0793,187.50419 247.82401,185.79942 C 245.5687,184.09466 243.81778,181.83069 242.57124,179.0075 L 248.12697,176.97152 C 248.89682,178.73169 249.96013,180.07921 251.3169,181.01411 C 252.67365,181.94902 254.2321,182.41648 255.99227,182.41647 C 257.71548,182.41648 259.09965,181.89391 260.1448,180.84878 C 261.1899,179.80367 261.71246,178.51125 261.71248,176.97152 C 261.71246,175.76192 261.3916,174.77219 260.74988,174.00232 C 260.10813,173.23247 259.27393,172.58151 258.24729,172.04942 C 257.22061,171.51736 256.09296,171.04963 254.86434,170.64622 C 253.63569,170.24285 252.41656,169.80281 251.20696,169.32611 C 250.65641,169.1068 249.97803,168.79545 249.17182,168.39204 C 248.36558,167.98867 247.5865,167.42946 246.83455,166.71441 C 246.08259,165.99941 245.44086,165.1101 244.90935,164.04649 C 244.37783,162.98292 244.11207,161.68127 244.11208,160.14153 C 244.11207,158.3456 244.40524,156.81512 244.99159,155.55009 C 245.57793,154.28511 246.37548,153.25845 247.38425,152.4701 C 248.393,151.68181 249.60317,151.10414 251.01477,150.73708 C 252.42635,150.37009 253.95683,150.18658 255.60622,150.18654 C 258.21006,150.18658 260.38284,150.86496 262.12455,152.22169 C 263.86621,153.57848 265.19528,155.41164 266.11175,157.72118 L 260.94207,159.26202 C 260.64888,158.6757 260.26395,158.14419 259.78728,157.66747 C 259.38331,157.26355 258.82382,156.89653 258.10881,156.5664 C 257.39377,156.23633 256.52321,156.05338 255.49712,156.01754 C 254.83691,155.98064 254.1493,156.02624 253.43428,156.15433 C 252.71924,156.28249 252.08674,156.5116 251.53678,156.84167 C 250.98679,157.1718 250.54675,157.62106 250.21666,158.18948 C 249.88655,158.75795 249.75843,159.46402 249.83229,160.3077 C 249.90502,161.44349 250.39988,162.31405 251.3169,162.9194 C 252.23389,163.52479 253.35231,164.04735 254.67215,164.48708 C 255.99197,164.92687 257.41279,165.37586 258.93462,165.83405 C 260.45641,166.2923 261.85877,166.95221 263.1417,167.81381 C 264.42458,168.67544 265.49712,169.8305 266.35932,171.279 C 267.22147,172.72753 267.65255,174.66197 267.65258,177.0823 L 267.65258,177.0823 z M 296.33423,177.0823 C 296.3342,178.76861 296.02229,180.32679 295.39848,181.75683 C 294.77463,183.18689 293.87637,184.43343 292.7037,185.49646 C 291.67646,186.4129 290.47552,187.1187 289.10087,187.61385 C 287.72619,188.10899 286.25054,188.35657 284.67392,188.35657 C 281.4837,188.35657 278.76095,187.50419 276.50565,185.79942 C 274.25035,184.09466 272.49943,181.83069 271.25289,179.0075 L 276.80862,176.97152 C 277.57847,178.73169 278.64178,180.07921 279.99855,181.01411 C 281.35529,181.94902 282.91375,182.41648 284.67392,182.41647 C 286.39713,182.41648 287.7813,181.89391 288.82644,180.84878 C 289.87155,179.80367 290.39411,178.51125 290.39413,176.97152 C 290.39411,175.76192 290.07324,174.77219 289.43153,174.00232 C 288.78978,173.23247 287.95558,172.58151 286.92894,172.04942 C 285.90226,171.51736 284.77461,171.04963 283.54599,170.64622 C 282.31733,170.24285 281.09821,169.80281 279.88861,169.32611 C 279.33806,169.1068 278.65968,168.79545 277.85346,168.39204 C 277.04723,167.98867 276.26814,167.42946 275.5162,166.71441 C 274.76424,165.99941 274.12251,165.1101 273.591,164.04649 C 273.05948,162.98292 272.79372,161.68127 272.79372,160.14153 C 272.79372,158.3456 273.08689,156.81512 273.67324,155.55009 C 274.25958,154.28511 275.05713,153.25845 276.0659,152.4701 C 277.07465,151.68181 278.28482,151.10414 279.69642,150.73708 C 281.108,150.37009 282.63848,150.18658 284.28787,150.18654 C 286.89171,150.18658 289.06449,150.86496 290.8062,152.22169 C 292.54786,153.57848 293.87693,155.41164 294.79339,157.72118 L 289.62372,159.26202 C 289.33052,158.6757 288.9456,158.14419 288.46893,157.66747 C 288.06496,157.26355 287.50547,156.89653 286.79046,156.5664 C 286.07542,156.23633 285.20486,156.05338 284.17877,156.01754 C 283.51856,155.98064 282.83095,156.02624 282.11593,156.15433 C 281.40089,156.28249 280.76839,156.5116 280.21842,156.84167 C 279.66844,157.1718 279.2284,157.62106 278.89831,158.18948 C 278.5682,158.75795 278.44008,159.46402 278.51394,160.3077 C 278.58667,161.44349 279.08153,162.31405 279.99855,162.9194 C 280.91554,163.52479 282.03395,164.04735 283.3538,164.48708 C 284.67362,164.92687 286.09444,165.37586 287.61627,165.83405 C 289.13806,166.2923 290.54042,166.95221 291.82335,167.81381 C 293.10623,168.67544 294.17877,169.8305 295.04097,171.279 C 295.90312,172.72753 296.3342,174.66197 296.33423,177.0823 L 296.33423,177.0823 z M 327.87431,169.32611 C 327.87428,172.26008 327.52599,175.06536 326.82946,177.74194 C 326.13287,180.41854 325.14285,182.58209 323.85941,184.23257 C 321.80606,186.9819 318.8363,188.35657 314.95011,188.35657 C 312.34623,188.35657 310.20115,187.82505 308.51486,186.76202 C 306.82856,185.699 305.43543,184.0306 304.33548,181.75683 C 303.56562,180.1802 302.94235,178.26451 302.46567,176.00976 C 301.98898,173.75504 301.75064,171.52715 301.75064,169.32611 C 301.75064,166.28363 302.10815,163.46073 302.82318,160.8574 C 303.5382,158.25413 304.51899,156.0724 305.76554,154.31222 C 306.86548,152.91912 308.17636,151.88323 309.69818,151.20453 C 311.21998,150.52591 313.04391,150.18658 315.16999,150.18654 C 317.51647,150.18658 319.51468,150.71837 321.16463,151.78193 C 322.81454,152.84555 324.22641,154.51367 325.40025,156.78628 C 326.17007,158.4368 326.77488,160.362 327.21467,162.56188 C 327.6544,164.76182 327.87428,167.01656 327.87431,169.32611 L 327.87431,169.32611 z M 322.04499,169.32611 C 322.04497,167.23699 321.86173,165.30312 321.49529,163.52448 C 321.1288,161.74589 320.57855,160.23332 319.84452,158.98675 C 319.25815,158.03341 318.58928,157.33684 317.83791,156.89706 C 317.0865,156.45733 316.16082,156.20052 315.06089,156.12664 C 313.63082,156.05394 312.43911,156.38404 311.48575,157.11693 C 310.53237,157.8499 309.74405,159.04161 309.12079,160.69207 C 308.6441,161.79205 308.28658,163.12112 308.04825,164.67927 C 307.8099,166.23747 307.69073,167.78641 307.69074,169.32611 C 307.69073,171.30671 307.87396,173.21373 308.24044,175.04716 C 308.60689,176.88062 309.15659,178.38368 309.88953,179.55636 C 310.47698,180.50974 311.17382,181.22477 311.98006,181.70144 C 312.78627,182.17814 313.77628,182.41648 314.95011,182.41647 C 316.30629,182.41648 317.43366,182.05001 318.33222,181.31708 C 319.23074,180.58415 319.99164,179.39244 320.61494,177.74194 C 320.79842,177.26527 320.98194,176.68787 321.16547,176.00976 C 321.34896,175.33167 321.50478,174.61665 321.63293,173.86468 C 321.76102,173.11274 321.86173,172.35184 321.93505,171.58197 C 322.00832,170.81213 322.04497,170.06017 322.04499,169.32611 L 322.04499,169.32611 z M 361.11634,174.49746 C 361.11631,175.92753 360.96049,177.28401 360.64889,178.56691 C 360.33722,179.84982 359.9246,181.04125 359.41102,182.1412 C 358.93431,183.05877 358.31104,183.89325 357.54121,184.64464 C 356.77132,185.39603 355.90971,186.04672 354.95637,186.59669 C 354.00297,187.14667 352.98526,187.57748 351.90323,187.88911 C 350.82116,188.20075 349.71226,188.35657 348.57651,188.35657 C 347.43961,188.35657 346.33015,188.20075 345.24811,187.88911 C 344.16605,187.57748 343.14834,187.14667 342.19498,186.59669 C 341.2416,186.04672 340.37076,185.39603 339.58245,184.64464 C 338.79412,183.89325 338.16162,183.05877 337.68494,182.1412 C 337.17244,181.04125 336.76933,179.84982 336.4756,178.56691 C 336.18187,177.28401 336.035,175.92753 336.035,174.49746 L 336.035,150.84618 L 341.866,150.84618 L 341.866,174.49746 C 341.86599,176.91671 342.48003,178.84135 343.70812,180.27139 C 344.93618,181.70145 346.55898,182.41648 348.57651,182.41647 C 350.59289,182.41648 352.21513,181.70145 353.44323,180.27139 C 354.67128,178.84135 355.28532,176.91671 355.28535,174.49746 L 355.28535,150.84618 L 361.11634,150.84618 L 361.11634,174.49746 L 361.11634,174.49746 z M 388.6281,187.69693 L 382.68801,171.63736 L 375.70391,171.63736 L 375.70391,187.69693 L 369.87291,187.69693 L 369.87291,150.84618 L 382.02837,150.84618 C 383.45841,150.84622 384.68676,150.92874 385.71345,151.09376 C 386.74009,151.25884 387.71164,151.5618 388.6281,152.00265 C 389.43486,152.40551 390.17758,152.9278 390.85627,153.56949 C 391.5349,154.21126 392.12153,154.94447 392.61614,155.76913 C 393.1107,156.59384 393.49563,157.47392 393.77093,158.40935 C 394.04617,159.34485 394.1838,160.2708 394.18383,161.18722 C 394.1838,162.17754 394.04617,163.14014 393.77093,164.07502 C 393.49563,165.00995 393.1107,165.88975 392.61614,166.71441 C 392.12153,167.53912 391.51672,168.28156 390.80172,168.94174 C 390.08667,169.60195 389.3073,170.11556 388.46361,170.48257 L 394.95425,187.69693 L 388.6281,187.69693 z M 388.35283,161.18722 C 388.35281,160.41739 388.1514,159.68418 387.74859,158.98759 C 387.34573,158.29105 386.77729,157.7408 386.04326,157.33681 C 385.56656,157.0806 385.12652,156.9066 384.72315,156.81481 C 384.31974,156.72309 383.64136,156.67721 382.68801,156.67718 L 375.70391,156.67718 L 375.70391,165.69726 L 382.68801,165.69726 C 383.60555,165.69728 384.27498,165.66064 384.69629,165.58732 C 385.11757,165.51405 385.56656,165.34872 386.04326,165.09133 C 386.77729,164.68852 387.34573,164.12959 387.74859,163.41454 C 388.1514,162.69954 388.35281,161.9571 388.35283,161.18722 L 388.35283,161.18722 z M 401.13269,187.69693 L 401.13269,150.84618 L 407.07279,150.84618 L 407.07279,187.69693 L 401.13269,187.69693 z" id="text2740" style="font-size: 54.9085px; font-style: normal; font-variant: normal; font-weight: normal; font-stretch: normal; text-align: center; line-height: 100%; text-anchor: middle; fill: rgb(255, 255, 255); fill-opacity: 1;"/>

<path style="font-size:373.125px;font-style:normal;font-variant:normal;font-weight:normal;font-stretch:normal;text-align:center;line-height:125%;text-anchor:middle;fill:#ffffff;fill-opacity:1" d="M 105.52413,449.74789 C 106.01672,435.09841 107.87726,421.68806 111.10577,409.51677 C 114.33421,397.34556 119.42702,385.30314 126.38421,373.38949 C 131.59823,363.94662 138.05328,355.18951 145.7494,347.11819 C 153.44539,339.04707 161.63973,331.78297 170.33246,325.32587 C 172.56805,324.09068 174.55553,322.78906 176.29491,321.42099 C 178.03409,320.05316 179.77148,318.74775 181.50709,317.50472 L 194.92118,310.43388 L 207.20987,303.35165 L 219.13479,296.64458 C 224.09861,293.41623 228.13231,289.38064 231.2359,284.53773 C 234.33919,279.69516 235.89089,274.66674 235.89105,269.45248 C 235.89089,264.73877 234.64991,260.3318 232.16807,256.23159 C 229.68593,252.13174 226.39683,248.59253 222.30074,245.61392 C 218.20438,242.63575 213.42419,240.27689 207.96015,238.53738 C 202.49587,236.79831 196.66037,235.92868 190.45361,235.92846 C 177.78969,235.92868 167.54535,238.90895 159.72053,244.86933 C 151.89555,250.83011 146.99033,259.52089 145.0048,270.94168 L 105.52413,262.38162 C 109.74538,241.51789 119.42891,225.18787 134.57476,213.39154 C 149.72051,201.59566 168.34678,195.69759 190.45361,195.69733 C 202.37461,195.69759 213.48671,197.68508 223.78993,201.65983 C 234.09288,205.63506 243.03181,210.97419 250.60678,217.67724 C 258.18141,224.38075 264.20448,232.26441 268.67604,241.32822 C 273.14721,250.39245 275.38291,260.01729 275.3831,270.20278 C 275.38291,279.88842 273.20973,289.38632 268.86361,298.6965 C 264.5171,308.00697 258.24772,316.26576 250.05544,323.4729 C 248.06969,324.95843 246.26977,326.32258 244.65568,327.56536 C 243.04129,328.80836 241.36264,329.80117 239.61972,330.54375 L 227.33104,338.36488 L 213.91693,345.4471 L 201.62824,352.52933 C 195.66378,356.00042 190.3853,359.66091 185.79277,363.51075 C 181.20005,367.36076 176.97878,371.52144 173.12895,375.99274 C 169.27893,380.4642 165.67721,385.43198 162.32378,390.89609 C 158.97017,396.36035 155.80422,402.56723 152.82591,409.51677 L 275.3831,409.51677 L 275.3831,449.74789 L 105.52413,449.74789 z M 494.37405,275.42065 C 494.37386,292.55608 492.07565,309.62879 487.47943,326.63886 C 482.88283,343.64918 476.36335,359.97731 467.92098,375.62328 C 459.47828,391.2694 449.29834,405.79571 437.38116,419.20224 C 425.46369,432.60886 412.3016,444.27992 397.89481,454.21547 L 378.89907,420.69144 C 386.34874,414.73468 392.99136,408.96168 398.82698,403.3724 C 404.66238,397.78322 409.93897,392.00832 414.65675,386.04767 C 419.37431,380.08716 423.72062,373.75524 427.69572,367.05187 C 431.67056,360.34866 435.51858,352.89699 439.23981,344.69683 C 432.04002,345.93982 426.51523,346.80947 422.66543,347.30576 C 418.81538,347.80226 414.40845,348.05046 409.44458,348.05036 C 397.77345,348.05046 386.7845,346.06486 376.47771,342.09358 C 366.17075,338.12248 357.1674,332.72272 349.46761,325.89427 C 341.76772,319.06606 335.68401,310.99483 331.21646,301.68057 C 326.74887,292.36662 324.51507,282.49546 324.51509,272.06712 C 324.51507,261.38902 326.74887,251.39283 331.21646,242.07851 C 335.68401,232.76459 341.7052,224.69337 349.28003,217.86482 C 356.85478,211.03672 365.79562,205.63506 376.10257,201.65983 C 386.40937,197.68508 397.52336,195.69759 409.44458,195.69733 C 421.36558,195.69759 432.54019,197.7476 442.96848,201.8474 C 453.39646,205.94768 462.39793,211.535 469.97289,218.60941 C 477.54751,225.68427 483.50806,234.06433 487.85457,243.74959 C 492.2007,253.43525 494.37386,263.99228 494.37405,275.42065 L 494.37405,275.42065 z M 454.88202,272.06712 C 454.88187,267.34581 453.64087,262.74939 451.15904,258.27782 C 448.6769,253.80663 445.38779,249.95668 441.29171,246.72799 C 437.19534,243.4997 432.41515,240.89265 426.95112,238.90684 C 421.48684,236.92147 415.65133,235.92868 409.44458,235.92846 C 403.23761,235.92868 397.46463,236.86083 392.1256,238.72495 C 386.7864,240.5895 382.06683,243.13592 377.9669,246.36421 C 373.8668,249.59291 370.63833,253.44095 368.28145,257.90835 C 365.92445,262.37613 364.74599,267.09572 364.74605,272.06712 C 364.74599,277.03128 365.92445,281.68643 368.28145,286.03261 C 370.63833,290.3791 373.8668,294.16653 377.9669,297.39486 C 382.06683,300.6235 386.7864,303.16802 392.1256,305.02842 C 397.46463,306.88912 403.23761,307.8194 409.44458,307.81926 C 415.65133,307.8194 421.54936,306.88912 427.1387,305.02842 C 432.72776,303.16802 437.57048,300.6235 441.66686,297.39486 C 445.76293,294.16653 448.98952,290.3791 451.34661,286.03261 C 453.7034,281.68643 454.88187,277.03128 454.88202,272.06712 L 454.88202,272.06712 z" id="text5085"/></svg>